<svg id="Layer_2" data-name="Layer 2" xmlns="http://www.w3.org/2000/svg" viewBox="0 0 265.86 229.42"><defs><style>.cls-1,.cls-3,.cls-8{fill:#151515;}.cls-2,.cls-5,.cls-6{fill:none;}.cls-2,.cls-3{stroke:#fff;}.cls-2,.cls-3,.cls-6,.cls-7,.cls-8{stroke-linecap:round;stroke-linejoin:round;}.cls-2,.cls-3,.cls-5,.cls-6,.cls-7,.cls-8{stroke-width:0.7px;}.cls-4,.cls-7{fill:#fff;}.cls-5,.cls-6,.cls-7,.cls-8{stroke:#151515;}.cls-5{stroke-miterlimit:10;}</style></defs><path class="cls-1" d="M53.79,111.52a10.18,10.18,0,0,1,1.49-1.12,2,2,0,0,1,2.37.54c1,1,.27,1.93.05,2.45Z"/><path class="cls-1" d="M39.07,88a1.39,1.39,0,0,0-1.55-1.29A2.57,2.57,0,0,0,36.1,87a1.84,1.84,0,0,0-.65,1.19c-.14.55-.4,1.57-.57,2.12l4.34-1Z"/><path class="cls-1" d="M18.55,95.3c.09,1.81.36,5.52.52,7.32a20.62,20.62,0,0,0,1.65,6.5c1.7,4.25,3.11,8.81,4.72,12.08a18,18,0,0,0,3.81,4.43A122.15,122.15,0,0,1,42.7,138.25c1.18,1.23,2.46,2.7,3.76,4h0c1.72,3.68,3.56,6,8.49,7.17,7.84,1.87,17.26,4,24.65,7.26a28.82,28.82,0,0,1,4.83,2.6c6.88,4.76,8.91,10.7,9.87,19,0,0,4.26,1.64,12.62,1,8-.64,11.16-3.87,11.16-3.87-1.38-7.66-3.31-13.14-4.69-19.14-1.68-7.29-4.16-12.33-8.13-17-7.53-8.94-19.59-12.62-31.16-14.33A39,39,0,0,1,63.13,122a39.52,39.52,0,0,1-6.81-4.25l.13-.14A4.77,4.77,0,0,0,57.59,113,3.08,3.08,0,0,0,54.67,111a2.45,2.45,0,0,0-1.19.75l-2.06,1.82,0,.18a22.14,22.14,0,0,0-6.89-3.88v-.07c0-4.1,1.21-7,.84-11.09a6.33,6.33,0,0,0-.81-2.65,3.5,3.5,0,0,0-3.17-1.24h0a13.3,13.3,0,0,0,.21-2.18,5.55,5.55,0,0,0-1.42-3.92,3.19,3.19,0,0,0-3.91-.53,5.08,5.08,0,0,0-1.65,3.1A83.62,83.62,0,0,0,32,103.86a39,39,0,0,0-.35,7.6h0a53.7,53.7,0,0,1-2.57-5.12c-.31-.74-1-2.45-1.2-3.31-.79-2.87-1.39-6.54-2.95-8.68A5.18,5.18,0,0,0,22,92.21a2.74,2.74,0,0,0-3.27,1.27A3.85,3.85,0,0,0,18.55,95.3Z"/><path class="cls-1" d="M18.53,94.66c-.05-1.39-.21-3,.76-3.46a3,3,0,0,1,2.55-.14A2.62,2.62,0,0,1,23,92.48l.52,1.15Z"/><path class="cls-1" d="M44.62,97.32l-4.12,2.3-1.77-3.18,2.8-2.76c2.16-.15,2.55.89,2.74,1.85Z"/><path class="cls-2" d="M41.37,94.86a3.5,3.5,0,0,1,3.17,1.24,6.33,6.33,0,0,1,.81,2.65c.37,4.09-.82,7-.84,11.09"/><path class="cls-2" d="M31.64,111.46a39,39,0,0,1,.35-7.6A83.62,83.62,0,0,1,34.6,91.33a5.08,5.08,0,0,1,1.65-3.1,3.19,3.19,0,0,1,3.91.53,5.55,5.55,0,0,1,1.42,3.92A22.44,22.44,0,0,1,41,96.91a52,52,0,0,0-1.06,8c0,1.21,0,2.45,0,3.73"/><path class="cls-2" d="M38.11,119.48c-.76-.79-4.52-4.82-4.79-5.23a56.76,56.76,0,0,1-4.25-7.91c-.31-.74-1-2.45-1.2-3.31-.79-2.87-1.39-6.54-2.95-8.68A5.24,5.24,0,0,0,22,92.2a2.75,2.75,0,0,0-3.27,1.28,3.85,3.85,0,0,0-.2,1.82c.09,1.81.36,5.52.52,7.32a20.62,20.62,0,0,0,1.65,6.5c1.7,4.25,3.11,8.81,4.72,12.08a18,18,0,0,0,3.81,4.43A122.15,122.15,0,0,1,42.7,138.25c1.55,1.62,3.29,3.65,5,5.11,2,1.74,8.81,3.16,11.24,3.75"/><path class="cls-2" d="M51.42,113.61l2.06-1.82a2.45,2.45,0,0,1,1.19-.75A3.08,3.08,0,0,1,57.59,113a4.77,4.77,0,0,1-1.14,4.64"/><path class="cls-2" d="M66.21,139.23c-2.65-2.29-5-4.94-8-6.74-2.68-1.61-5-2.76-7.81-4.19-5.56-2.85-11.5-6.3-13.73-11.31-.87-1.95-.19-6,4.15-7.24,3.37-1,8,1.84,11.39,4.67a54.46,54.46,0,0,0,11,7.58,39,39,0,0,0,10.93,2.84c11.57,1.71,23.63,5.39,31.16,14.33,4,4.71,6.45,9.75,8.13,17,1.38,6,3.31,11.95,4.69,19.61"/><path class="cls-2" d="M46.42,142.23c1.72,3.68,3.56,6,8.49,7.17,7.84,1.87,17.26,4,24.65,7.26a28.82,28.82,0,0,1,4.83,2.6c6.88,4.76,8.91,11.2,9.87,19.5"/><path class="cls-3" d="M42.77,119a7.33,7.33,0,0,1-3.37-1.5c-1.2-.83-3.66-2.86-4.06-3.94a4.07,4.07,0,0,1,1-3.66,4.7,4.7,0,0,1,2.87-1.82c1.51,0,6.5,3.9,7.22,5.88C47.1,115.63,44.08,119,42.77,119Z"/><path class="cls-1" d="M210.54,111.52a10.18,10.18,0,0,0-1.49-1.12,2,2,0,0,0-2.37.54c-1,1-.27,1.93-.05,2.45Z"/><path class="cls-1" d="M225.26,88a1.39,1.39,0,0,1,1.55-1.29,2.57,2.57,0,0,1,1.42.36,1.84,1.84,0,0,1,.65,1.19c.14.55.4,1.57.57,2.12l-4.34-1Z"/><path class="cls-1" d="M245.59,93.48a2.75,2.75,0,0,0-3.28-1.27,5.18,5.18,0,0,0-2.9,2.14c-1.56,2.14-2.16,5.81-2.95,8.68-.24.86-.88,2.57-1.2,3.31a53.7,53.7,0,0,1-2.57,5.12h0a39.81,39.81,0,0,0-.34-7.6,86.2,86.2,0,0,0-2.61-12.53,5.14,5.14,0,0,0-1.66-3.1,3.17,3.17,0,0,0-3.9.53,5.52,5.52,0,0,0-1.43,3.92,13.3,13.3,0,0,0,.21,2.18h0a3.51,3.51,0,0,0-3.17,1.24,6.33,6.33,0,0,0-.81,2.65c-.37,4.09.82,7,.84,11.09v.07a22.25,22.25,0,0,0-6.89,3.88l0-.18c-.6-.54-1.46-1.28-2-1.82a2.52,2.52,0,0,0-1.2-.75,3.08,3.08,0,0,0-2.92,1.93,4.77,4.77,0,0,0,1.14,4.64l.13.14a39.83,39.83,0,0,1-6.8,4.25,39.12,39.12,0,0,1-10.94,2.84c-11.57,1.71-23.63,5.39-31.16,14.33-4,4.71-6.45,9.75-8.13,17-1.38,6-3.31,11.48-4.69,19.14,0,0,3.21,3.23,11.16,3.87,8.36.68,12.62-1,12.62-1,1-8.3,3-14.24,9.87-19a28.53,28.53,0,0,1,4.84-2.6c7.38-3.22,16.8-5.39,24.64-7.26,4.93-1.18,6.77-3.49,8.49-7.17h0c1.3-1.27,2.58-2.74,3.76-4a122.15,122.15,0,0,1,13.45-12.62,17.79,17.79,0,0,0,3.81-4.43c1.61-3.27,3-7.83,4.72-12.08a20.34,20.34,0,0,0,1.65-6.5c.16-1.8.43-5.51.52-7.32A4,4,0,0,0,245.59,93.48Z"/><path class="cls-1" d="M245.8,94.66c0-1.39.21-3-.76-3.46a3,3,0,0,0-2.55-.14,2.62,2.62,0,0,0-1.14,1.42l-.51,1.15Z"/><path class="cls-1" d="M219.71,97.32l4.12,2.3,1.77-3.18-2.8-2.76c-2.16-.15-2.55.89-2.74,1.85Z"/><path class="cls-2" d="M223,94.86a3.51,3.51,0,0,0-3.17,1.24,6.33,6.33,0,0,0-.81,2.65c-.37,4.09.82,7,.84,11.09"/><path class="cls-2" d="M232.69,111.46a39.81,39.81,0,0,0-.34-7.6,86.2,86.2,0,0,0-2.61-12.53,5.14,5.14,0,0,0-1.66-3.1,3.17,3.17,0,0,0-3.9.53,5.52,5.52,0,0,0-1.43,3.92,23.29,23.29,0,0,0,.59,4.23,52,52,0,0,1,1.06,8c0,1.21,0,2.45,0,3.73"/><path class="cls-2" d="M226.22,119.48c.76-.79,4.52-4.82,4.79-5.23a56.76,56.76,0,0,0,4.25-7.91c.32-.74,1-2.45,1.2-3.31.79-2.87,1.39-6.54,2.95-8.68a5.24,5.24,0,0,1,2.9-2.15,2.77,2.77,0,0,1,3.28,1.28,4,4,0,0,1,.19,1.82c-.09,1.81-.36,5.52-.52,7.32a20.34,20.34,0,0,1-1.65,6.5c-1.7,4.25-3.11,8.81-4.72,12.08a17.79,17.79,0,0,1-3.81,4.43,122.15,122.15,0,0,0-13.45,12.62c-1.55,1.62-3.29,3.65-5,5.11-2,1.74-8.81,3.16-11.24,3.75"/><path class="cls-2" d="M212.91,113.61c-.6-.54-1.46-1.28-2-1.82a2.52,2.52,0,0,0-1.2-.75,3.08,3.08,0,0,0-2.92,1.93,4.77,4.77,0,0,0,1.14,4.64"/><path class="cls-2" d="M198.12,139.23c2.65-2.29,5-4.94,8-6.74,2.68-1.61,5-2.76,7.82-4.19,5.55-2.85,11.5-6.3,13.72-11.31.87-1.95.19-6-4.15-7.24-3.37-1-8,1.84-11.39,4.67a54.4,54.4,0,0,1-11,7.58,39.12,39.12,0,0,1-10.94,2.84c-11.57,1.71-23.63,5.39-31.16,14.33-4,4.71-6.45,9.75-8.13,17-1.38,6-3.31,11.95-4.69,19.61"/><path class="cls-2" d="M217.91,142.23c-1.72,3.68-3.56,6-8.49,7.17-7.84,1.87-17.26,4-24.64,7.26a28.53,28.53,0,0,0-4.84,2.6c-6.88,4.76-8.91,11.2-9.87,19.5"/><path class="cls-3" d="M221.56,119a7.33,7.33,0,0,0,3.37-1.5c1.2-.83,3.66-2.86,4.06-3.94a4.07,4.07,0,0,0-1.05-3.66,4.7,4.7,0,0,0-2.87-1.82c-1.51,0-6.5,3.9-7.22,5.88C217.23,115.63,220.25,119,221.56,119Z"/><path class="cls-4" d="M158.89,160a.35.35,0,0,1-.46-.19.35.35,0,1,1,.65-.27A.35.35,0,0,1,158.89,160Z"/><path class="cls-4" d="M178.6,152a.36.36,0,0,1-.46-.2.36.36,0,0,1,.2-.46.35.35,0,0,1,.26.66Z"/><path class="cls-4" d="M174.36,157.82a.35.35,0,0,1-.46-.19.37.37,0,0,1,.2-.47.35.35,0,1,1,.26.66Z"/><path class="cls-4" d="M152.59,168a.35.35,0,0,1-.46-.2.36.36,0,0,1,.2-.46.36.36,0,0,1,.46.2A.35.35,0,0,1,152.59,168Z"/><path class="cls-4" d="M170.2,169.31a.36.36,0,0,1-.46-.2.35.35,0,0,1,.19-.46.36.36,0,1,1,.27.66Z"/><path class="cls-4" d="M158.45,148.34a.35.35,0,0,1-.46-.19.36.36,0,0,1,.66-.27A.36.36,0,0,1,158.45,148.34Z"/><path class="cls-4" d="M162.51,148.7a.36.36,0,0,1-.46-.2.35.35,0,0,1,.19-.46.37.37,0,0,1,.47.2A.36.36,0,0,1,162.51,148.7Z"/><path class="cls-4" d="M153.52,177.28a.37.37,0,0,1-.47-.2.36.36,0,0,1,.2-.46.36.36,0,0,1,.27.66Z"/><path class="cls-4" d="M197.2,136.15a.35.35,0,1,1,.2-.46A.35.35,0,0,1,197.2,136.15Z"/><path class="cls-4" d="M211.65,121.33a.36.36,0,0,1-.27-.66.37.37,0,0,1,.47.2A.36.36,0,0,1,211.65,121.33Z"/><path class="cls-4" d="M243.47,103.61a.35.35,0,0,1-.46-.19.36.36,0,1,1,.46.19Z"/><path class="cls-4" d="M216.58,115.39a.36.36,0,0,1-.46-.2.35.35,0,0,1,.19-.46.36.36,0,1,1,.27.66Z"/><path class="cls-4" d="M226.7,91.17a.36.36,0,0,1-.46-.2.35.35,0,1,1,.66-.26A.36.36,0,0,1,226.7,91.17Z"/><path class="cls-4" d="M226.92,127.64a.36.36,0,0,1-.46-.2.36.36,0,0,1,.66-.27A.37.37,0,0,1,226.92,127.64Z"/><path class="cls-4" d="M221.47,128.65a.35.35,0,1,1,.2-.46A.36.36,0,0,1,221.47,128.65Z"/><path class="cls-4" d="M229.58,108.38a.36.36,0,0,1-.46-.2.35.35,0,0,1,.19-.46.37.37,0,0,1,.47.2A.36.36,0,0,1,229.58,108.38Z"/><path class="cls-4" d="M235,115a.36.36,0,0,1-.46-.2.35.35,0,0,1,.19-.46.36.36,0,0,1,.46.2A.35.35,0,0,1,235,115Z"/><path class="cls-4" d="M241.78,97a.36.36,0,0,1-.47-.19.37.37,0,0,1,.2-.47.36.36,0,0,1,.46.2A.35.35,0,0,1,241.78,97Z"/><path class="cls-4" d="M227.06,101.07a.36.36,0,0,1-.46-.2.35.35,0,1,1,.65-.27A.36.36,0,0,1,227.06,101.07Z"/><path class="cls-4" d="M193.23,141.59a.35.35,0,1,1,.19-.46A.35.35,0,0,1,193.23,141.59Z"/><path class="cls-4" d="M212,133.79a.36.36,0,0,1-.46-.2.36.36,0,0,1,.2-.46.35.35,0,0,1,.26.66Z"/><path class="cls-4" d="M183.46,144.29a.36.36,0,0,1-.27-.66.36.36,0,0,1,.46.2A.35.35,0,0,1,183.46,144.29Z"/><path class="cls-4" d="M159.86,176.5a.35.35,0,0,1-.46-.19.36.36,0,0,1,.66-.27A.36.36,0,0,1,159.86,176.5Z"/><path class="cls-4" d="M204.15,130.67a.36.36,0,0,1-.46-.2.35.35,0,0,1,.19-.46.36.36,0,0,1,.46.2A.35.35,0,0,1,204.15,130.67Z"/><path class="cls-4" d="M164.27,159.37a.22.22,0,0,1-.28-.12.22.22,0,0,1,.12-.29.23.23,0,0,1,.29.12A.23.23,0,0,1,164.27,159.37Z"/><path class="cls-4" d="M153.82,158.27a.21.21,0,0,1-.28-.12.22.22,0,1,1,.4-.16A.21.21,0,0,1,153.82,158.27Z"/><path class="cls-4" d="M181.47,132.46a.21.21,0,0,1-.28-.12.22.22,0,0,1,.12-.29.21.21,0,0,1,.28.13A.2.2,0,0,1,181.47,132.46Z"/><path class="cls-4" d="M175,135.6a.22.22,0,0,1-.29-.12.23.23,0,0,1,.13-.29.21.21,0,0,1,.28.13A.21.21,0,0,1,175,135.6Z"/><path class="cls-4" d="M167.56,144a.22.22,0,0,1-.28-.12.22.22,0,0,1,.12-.29.21.21,0,0,1,.28.12A.22.22,0,0,1,167.56,144Z"/><path class="cls-4" d="M170.74,154.06a.21.21,0,0,1-.28-.12.22.22,0,0,1,.12-.29.21.21,0,0,1,.28.13A.21.21,0,0,1,170.74,154.06Z"/><path class="cls-4" d="M182.17,152a.22.22,0,0,1-.29-.12.23.23,0,0,1,.12-.29.23.23,0,0,1,.29.13A.22.22,0,0,1,182.17,152Z"/><path class="cls-4" d="M150.09,174.81a.22.22,0,1,1,.12-.29A.23.23,0,0,1,150.09,174.81Z"/><path class="cls-4" d="M205.21,143.41a.22.22,0,0,1-.28-.12.21.21,0,0,1,.12-.29.22.22,0,0,1,.28.12A.22.22,0,0,1,205.21,143.41Z"/><path class="cls-4" d="M201.41,140.25a.21.21,0,0,1-.28-.12.22.22,0,0,1,.12-.29.21.21,0,0,1,.28.13A.21.21,0,0,1,201.41,140.25Z"/><path class="cls-4" d="M158.4,154.52a.22.22,0,1,1-.16-.4.22.22,0,0,1,.16.4Z"/><path class="cls-4" d="M200.17,149.09a.22.22,0,0,1-.17-.41.22.22,0,1,1,.17.41Z"/><path class="cls-4" d="M189.61,150.77a.21.21,0,0,1-.28-.13.21.21,0,0,1,.12-.28.22.22,0,0,1,.29.12A.23.23,0,0,1,189.61,150.77Z"/><path class="cls-4" d="M168.42,133.68a.21.21,0,0,1-.08-.3.22.22,0,0,1,.3-.08.22.22,0,0,1,.07.3A.21.21,0,0,1,168.42,133.68Z"/><path class="cls-4" d="M239.83,107.32a.22.22,0,0,1-.29-.12.21.21,0,0,1,.13-.28.22.22,0,0,1,.16.4Z"/><path class="cls-4" d="M238.87,102.45a.21.21,0,0,1-.28-.12.22.22,0,1,1,.4-.16A.21.21,0,0,1,238.87,102.45Z"/><path class="cls-4" d="M226.65,94.74a.22.22,0,0,1-.16-.4.2.2,0,0,1,.28.12A.21.21,0,0,1,226.65,94.74Z"/><path class="cls-4" d="M232.76,118.11a.22.22,0,0,1-.29-.12.22.22,0,0,1,.12-.28.22.22,0,0,1,.29.12A.22.22,0,0,1,232.76,118.11Z"/><path class="cls-4" d="M219.54,133.66a.22.22,0,0,1-.29-.12.23.23,0,0,1,.12-.29.23.23,0,0,1,.29.13A.22.22,0,0,1,219.54,133.66Z"/><path class="cls-4" d="M213.73,141.47a.23.23,0,0,1-.29-.12.22.22,0,0,1,.41-.17A.23.23,0,0,1,213.73,141.47Z"/><path class="cls-4" d="M205.81,125a.21.21,0,0,1-.28-.12.22.22,0,0,1,.12-.29.23.23,0,0,1,.29.13A.21.21,0,0,1,205.81,125Z"/><path class="cls-4" d="M221.42,102.23a.22.22,0,1,1-.16-.4.2.2,0,0,1,.28.12A.21.21,0,0,1,221.42,102.23Z"/><path class="cls-4" d="M236.34,121.42a.2.2,0,0,1-.28-.12.22.22,0,1,1,.28.12Z"/><path class="cls-4" d="M240.05,111.67a.23.23,0,0,1-.29-.12.22.22,0,0,1,.41-.17A.22.22,0,0,1,240.05,111.67Z"/><path class="cls-4" d="M199.73,127.29a.22.22,0,0,1-.29-.12.23.23,0,0,1,.12-.29.22.22,0,0,1,.17.41Z"/><path class="cls-4" d="M209.43,113.59a.21.21,0,0,1-.28-.12.2.2,0,0,1,.12-.28.22.22,0,0,1,.16.4Z"/><path class="cls-4" d="M229.09,104.14a.23.23,0,0,1-.29-.12.22.22,0,1,1,.41-.17A.23.23,0,0,1,229.09,104.14Z"/><path class="cls-4" d="M166.69,175a.21.21,0,0,1-.28-.13.2.2,0,0,1,.12-.28.21.21,0,0,1,.28.12A.22.22,0,0,1,166.69,175Z"/><path class="cls-4" d="M172.83,165.26a.22.22,0,0,1-.29-.12.23.23,0,0,1,.12-.29.23.23,0,0,1,.29.13A.22.22,0,0,1,172.83,165.26Z"/><path class="cls-4" d="M152,165.19a.22.22,0,1,1-.16-.4.22.22,0,0,1,.29.12A.21.21,0,0,1,152,165.19Z"/><path class="cls-4" d="M187.07,140.92a.21.21,0,0,1-.28-.12.22.22,0,0,1,.12-.29.22.22,0,0,1,.28.12A.22.22,0,0,1,187.07,140.92Z"/><path class="cls-4" d="M165.45,164.25a.67.67,0,0,1-.87-.37A.68.68,0,0,1,165,163a.67.67,0,0,1,.5,1.25Z"/><path class="cls-4" d="M160.79,173.83a.67.67,0,0,1-.5-1.25.67.67,0,1,1,.5,1.25Z"/><path class="cls-4" d="M162.62,144.5a.67.67,0,0,1-.87-.37.67.67,0,1,1,.87.37Z"/><path class="cls-4" d="M216.34,124.42a.67.67,0,0,1-.87-.37.68.68,0,0,1,.37-.88.67.67,0,0,1,.5,1.25Z"/><path class="cls-4" d="M213.22,138.38a.67.67,0,1,1-.5-1.24.67.67,0,1,1,.5,1.24Z"/><path class="cls-4" d="M174.48,142.76a.67.67,0,0,1-.5-1.24.67.67,0,0,1,.87.37A.66.66,0,0,1,174.48,142.76Z"/><path class="cls-4" d="M195.47,146.86a.67.67,0,1,1-.5-1.25.67.67,0,0,1,.87.37A.68.68,0,0,1,195.47,146.86Z"/><path class="cls-4" d="M190.22,131a.67.67,0,1,1,.37-.87A.66.66,0,0,1,190.22,131Z"/><path class="cls-4" d="M195.47,133.68a.67.67,0,1,1-.5-1.25.67.67,0,0,1,.5,1.25Z"/><path class="cls-4" d="M227.8,124a.67.67,0,0,1-.87-.37.68.68,0,0,1,.37-.88.67.67,0,0,1,.5,1.25Z"/><path class="cls-4" d="M87.57,143.55a.35.35,0,0,0,.43-.26.36.36,0,0,0-.27-.44.37.37,0,0,0-.43.27A.36.36,0,0,0,87.57,143.55Z"/><path class="cls-4" d="M96.23,155a.37.37,0,0,0,.43-.27.36.36,0,0,0-.27-.43.35.35,0,0,0-.43.27A.35.35,0,0,0,96.23,155Z"/><path class="cls-4" d="M101.19,139.72a.35.35,0,0,0,.43-.27.36.36,0,0,0-.26-.43.38.38,0,0,0-.44.27A.36.36,0,0,0,101.19,139.72Z"/><path class="cls-4" d="M109,154.89a.36.36,0,1,0,.16-.7.37.37,0,0,0-.43.27A.36.36,0,0,0,109,154.89Z"/><path class="cls-4" d="M101.91,169.91a.35.35,0,0,0,.43-.26.36.36,0,0,0-.27-.44.37.37,0,0,0-.43.27A.36.36,0,0,0,101.91,169.91Z"/><path class="cls-4" d="M101.55,164.22a.36.36,0,0,0,.16-.7.37.37,0,0,0-.43.27A.36.36,0,0,0,101.55,164.22Z"/><path class="cls-4" d="M114.09,172.88a.36.36,0,1,0,.16-.7.37.37,0,0,0-.43.27A.36.36,0,0,0,114.09,172.88Z"/><path class="cls-4" d="M85.53,153.77a.35.35,0,0,0,.43-.27.37.37,0,0,0-.27-.43.36.36,0,0,0-.43.27A.35.35,0,0,0,85.53,153.77Z"/><path class="cls-4" d="M75.15,142.09a.35.35,0,0,0,.43-.26.36.36,0,0,0-.27-.44.37.37,0,0,0-.43.27A.36.36,0,0,0,75.15,142.09Z"/><path class="cls-4" d="M42.48,133.4a.37.37,0,0,0,.43-.27.36.36,0,0,0-.27-.43.35.35,0,0,0-.43.27A.35.35,0,0,0,42.48,133.4Z"/><path class="cls-4" d="M39.62,127.81a.35.35,0,0,0,.43-.27.35.35,0,0,0-.27-.43.37.37,0,0,0-.43.27A.36.36,0,0,0,39.62,127.81Z"/><path class="cls-4" d="M36.49,106.33a.35.35,0,0,0,.43-.27.35.35,0,0,0-.27-.43.37.37,0,0,0-.43.27A.36.36,0,0,0,36.49,106.33Z"/><path class="cls-4" d="M58.85,124.78a.35.35,0,0,0,.43-.27.37.37,0,0,0-.27-.43.36.36,0,0,0-.43.27A.35.35,0,0,0,58.85,124.78Z"/><path class="cls-4" d="M55.89,115a.36.36,0,0,0,.43-.27.35.35,0,0,0-.27-.43.35.35,0,0,0-.43.27A.37.37,0,0,0,55.89,115Z"/><path class="cls-4" d="M26.05,113.74a.36.36,0,1,0,.16-.7.37.37,0,0,0-.43.27A.36.36,0,0,0,26.05,113.74Z"/><path class="cls-4" d="M31.48,117a.38.38,0,0,0,.44-.27.36.36,0,0,0-.27-.43.35.35,0,0,0-.43.27A.36.36,0,0,0,31.48,117Z"/><path class="cls-4" d="M42.84,102.81a.37.37,0,0,0,.43-.27.36.36,0,0,0-.27-.43.36.36,0,0,0-.43.27A.35.35,0,0,0,42.84,102.81Z"/><path class="cls-4" d="M83.62,130.81a.37.37,0,0,0,.43-.27.36.36,0,0,0-.27-.43.35.35,0,0,0-.43.27A.35.35,0,0,0,83.62,130.81Z"/><path class="cls-4" d="M80,146.92a.36.36,0,0,0,.43-.27.36.36,0,0,0-.7-.17A.38.38,0,0,0,80,146.92Z"/><path class="cls-4" d="M35.13,128.17a.35.35,0,0,0,.43-.27.37.37,0,0,0-.27-.43.36.36,0,0,0-.43.27A.35.35,0,0,0,35.13,128.17Z"/><path class="cls-4" d="M23.41,102.45a.36.36,0,0,0,.17-.7.36.36,0,0,0-.43.27A.35.35,0,0,0,23.41,102.45Z"/><path class="cls-4" d="M37.33,91.19a.36.36,0,0,0,.43-.27.35.35,0,0,0-.27-.43.35.35,0,0,0-.43.27A.37.37,0,0,0,37.33,91.19Z"/><path class="cls-4" d="M60,142.05a.35.35,0,0,0,.43-.27.36.36,0,0,0-.26-.43.36.36,0,0,0-.43.27A.35.35,0,0,0,60,142.05Z"/><path class="cls-4" d="M77.09,150.69a.35.35,0,0,0,.43-.27.37.37,0,0,0-.27-.43.36.36,0,0,0-.43.27A.35.35,0,0,0,77.09,150.69Z"/><path class="cls-4" d="M111.71,160.15A.23.23,0,0,0,112,160a.21.21,0,0,0-.17-.26.21.21,0,0,0-.26.16A.22.22,0,0,0,111.71,160.15Z"/><path class="cls-4" d="M110.5,168.84a.23.23,0,0,0,.27-.17.22.22,0,0,0-.17-.26.22.22,0,0,0-.27.16A.24.24,0,0,0,110.5,168.84Z"/><path class="cls-4" d="M90.3,135.94a.22.22,0,0,0,.27-.16.23.23,0,0,0-.17-.27.21.21,0,0,0-.26.17A.21.21,0,0,0,90.3,135.94Z"/><path class="cls-4" d="M97.24,138.07a.21.21,0,0,0,.26-.16.22.22,0,0,0-.16-.27.23.23,0,0,0-.27.17A.22.22,0,0,0,97.24,138.07Z"/><path class="cls-4" d="M106,145.25a.23.23,0,1,0-.17-.27A.24.24,0,0,0,106,145.25Z"/><path class="cls-4" d="M104.41,155.86a.23.23,0,0,0,.27-.17.22.22,0,0,0-.43-.1A.22.22,0,0,0,104.41,155.86Z"/><path class="cls-4" d="M92.67,155.62a.23.23,0,0,0,.27-.17.21.21,0,0,0-.17-.26.21.21,0,0,0-.26.16A.22.22,0,0,0,92.67,155.62Z"/><path class="cls-4" d="M99.69,175.5a.23.23,0,0,0,.27-.17.22.22,0,0,0-.17-.26.22.22,0,0,0-.27.16A.24.24,0,0,0,99.69,175.5Z"/><path class="cls-4" d="M48.68,130.67a.22.22,0,0,0,.27-.16.23.23,0,0,0-.17-.27.21.21,0,0,0-.26.17A.21.21,0,0,0,48.68,130.67Z"/><path class="cls-4" d="M84,134a.22.22,0,0,0,.26-.17.22.22,0,0,0-.16-.27.24.24,0,0,0-.27.17A.23.23,0,0,0,84,134Z"/><path class="cls-4" d="M71.46,148.94a.23.23,0,0,0,.27-.17.22.22,0,0,0-.17-.26.21.21,0,0,0-.26.16A.22.22,0,0,0,71.46,148.94Z"/><path class="cls-4" d="M108.82,151.71a.23.23,0,1,0-.17-.27A.24.24,0,0,0,108.82,151.71Z"/><path class="cls-4" d="M69.3,144.7a.22.22,0,0,0,.27-.16.24.24,0,0,0-.17-.27.23.23,0,0,0-.27.17A.22.22,0,0,0,69.3,144.7Z"/><path class="cls-4" d="M64.81,130.9a.23.23,0,1,0-.17-.27A.24.24,0,0,0,64.81,130.9Z"/><path class="cls-4" d="M21.54,105a.22.22,0,0,0,.27-.16.23.23,0,0,0-.17-.27.21.21,0,0,0-.26.17A.21.21,0,0,0,21.54,105Z"/><path class="cls-4" d="M54.08,138.7a.22.22,0,0,0,.27-.16.23.23,0,0,0-.17-.27.21.21,0,0,0-.26.17A.21.21,0,0,0,54.08,138.7Z"/><path class="cls-4" d="M49.14,141.56a.23.23,0,0,0,.27-.17.21.21,0,0,0-.17-.26.21.21,0,0,0-.26.16A.22.22,0,0,0,49.14,141.56Z"/><path class="cls-4" d="M64.81,148.23a.23.23,0,0,0,.27-.17.23.23,0,0,0-.44-.1A.24.24,0,0,0,64.81,148.23Z"/><path class="cls-4" d="M49.36,123.06a.22.22,0,0,0,.27-.16.23.23,0,0,0-.17-.27.22.22,0,0,0-.26.17A.21.21,0,0,0,49.36,123.06Z"/><path class="cls-4" d="M31.88,120.61a.22.22,0,0,0,.1-.43.22.22,0,1,0-.1.43Z"/><path class="cls-4" d="M27.38,108.27a.23.23,0,0,0,.1-.44.24.24,0,0,0-.27.17A.23.23,0,0,0,27.38,108.27Z"/><path class="cls-4" d="M21.76,96.64a.23.23,0,0,0,.27-.17.21.21,0,0,0-.17-.26.21.21,0,0,0-.26.16A.22.22,0,0,0,21.76,96.64Z"/><path class="cls-4" d="M38.68,93.89a.23.23,0,1,0-.17-.27A.24.24,0,0,0,38.68,93.89Z"/><path class="cls-4" d="M34.83,103a.24.24,0,0,0,.27-.17.23.23,0,0,0-.17-.27.22.22,0,0,0-.26.17A.22.22,0,0,0,34.83,103Z"/><path class="cls-4" d="M71.24,133.63a.22.22,0,0,0,.27-.16.24.24,0,0,0-.17-.27.22.22,0,0,0-.1.43Z"/><path class="cls-4" d="M59.24,130.31a.21.21,0,0,0,.26-.16.22.22,0,0,0-.16-.27.24.24,0,0,0-.27.17A.21.21,0,0,0,59.24,130.31Z"/><path class="cls-4" d="M42.15,106.56a.21.21,0,0,0,.26-.17.21.21,0,0,0-.16-.26.22.22,0,0,0-.27.16A.23.23,0,0,0,42.15,106.56Z"/><path class="cls-4" d="M42.87,96.86a.22.22,0,0,0,.1-.43.22.22,0,0,0-.27.16A.23.23,0,0,0,42.87,96.86Z"/><path class="cls-4" d="M54.56,113.25a.21.21,0,0,0,.26-.17.21.21,0,0,0-.16-.26.22.22,0,0,0-.27.16A.23.23,0,0,0,54.56,113.25Z"/><path class="cls-4" d="M112.22,176.18a.22.22,0,0,0,.27-.16.24.24,0,0,0-.17-.27.23.23,0,0,0-.27.17A.22.22,0,0,0,112.22,176.18Z"/><path class="cls-4" d="M86,145.28a.23.23,0,0,0,.1-.44.24.24,0,0,0-.27.17A.23.23,0,0,0,86,145.28Z"/><path class="cls-4" d="M51.37,118.05a.23.23,0,0,0,.27-.17.22.22,0,0,0-.17-.26.22.22,0,0,0-.27.16A.24.24,0,0,0,51.37,118.05Z"/><path class="cls-4" d="M93,164.42a.21.21,0,0,0,.26-.16.22.22,0,0,0-.16-.27.24.24,0,0,0-.27.17A.21.21,0,0,0,93,164.42Z"/><path class="cls-4" d="M111.3,165.21a.68.68,0,1,0-.51-.81A.67.67,0,0,0,111.3,165.21Z"/><path class="cls-4" d="M97.13,175.27a.69.69,0,0,0,.82-.51.68.68,0,0,0-1.33-.31A.69.69,0,0,0,97.13,175.27Z"/><path class="cls-4" d="M70.92,128.81a.68.68,0,0,0,.81-.51.68.68,0,1,0-.81.51Z"/><path class="cls-4" d="M51.27,134.39a.68.68,0,1,0-.51-.81A.67.67,0,0,0,51.27,134.39Z"/><path class="cls-4" d="M49.26,117.27a.68.68,0,1,0-.51-.81A.68.68,0,0,0,49.26,117.27Z"/><path class="cls-4" d="M98.91,145.15a.68.68,0,0,0,.3-1.33.68.68,0,0,0-.3,1.33Z"/><path class="cls-4" d="M76.5,139.35a.68.68,0,1,0-.51-.81A.68.68,0,0,0,76.5,139.35Z"/><circle class="cls-1" cx="132.17" cy="71.49" r="8.59" transform="translate(40.42 190.5) rotate(-80.78)"/><circle class="cls-4" cx="106" cy="73.54" r="8.59"/><path class="cls-1" d="M102.79,73.54c0-4.19,2.13-7.57,4.08-8.54a8.46,8.46,0,0,0-.87,0,8.59,8.59,0,0,0,0,17.18,8.46,8.46,0,0,0,.87,0C104.43,80.58,102.79,76.54,102.79,73.54Z"/><circle class="cls-4" cx="81.64" cy="82.24" r="8.58"/><path class="cls-1" d="M77,82.24a8.45,8.45,0,0,1,6.32-8.42,8.67,8.67,0,0,0-1.7-.16,8.58,8.58,0,0,0,0,17.16,8.67,8.67,0,0,0,1.7-.16A8.45,8.45,0,0,1,77,82.24Z"/><circle class="cls-4" cx="60.77" cy="95.85" r="8.58" transform="translate(-43.57 140.47) rotate(-80.78)"/><path class="cls-1" d="M54.24,95.85a8.59,8.59,0,0,1,7.55-8.53,8.59,8.59,0,1,0,0,17.05A8.59,8.59,0,0,1,54.24,95.85Z"/><circle class="cls-1" cx="158.33" cy="73.54" r="8.59"/><path class="cls-4" d="M161.55,73.54c0-4.19-2.14-7.57-4.09-8.54a8.46,8.46,0,0,1,.87,0,8.59,8.59,0,0,1,0,17.18,8.46,8.46,0,0,1-.87,0C159.9,80.58,161.55,76.54,161.55,73.54Z"/><circle class="cls-1" cx="182.69" cy="82.24" r="8.58"/><path class="cls-4" d="M187.31,82.24A8.45,8.45,0,0,0,181,73.82a8.67,8.67,0,0,1,1.7-.16,8.58,8.58,0,1,1,0,17.16,8.67,8.67,0,0,1-1.7-.16A8.45,8.45,0,0,0,187.31,82.24Z"/><circle class="cls-1" cx="203.56" cy="95.85" r="8.58" transform="translate(-12.72 33.85) rotate(-9.22)"/><path class="cls-4" d="M210.1,95.85a8.6,8.6,0,0,0-7.56-8.53,8.59,8.59,0,1,1,0,17.05A8.59,8.59,0,0,0,210.1,95.85Z"/><line class="cls-5" x1="132.17" y1="58.81" x2="132.17" y2="45.32"/><line class="cls-5" x1="132.17" y1="84.18" x2="132.17" y2="97.67"/><line class="cls-5" x1="135.45" y1="59.24" x2="137.93" y2="49.97"/><line class="cls-5" x1="138.51" y1="60.51" x2="141.36" y2="55.57"/><line class="cls-5" x1="128.88" y1="59.24" x2="126.4" y2="49.97"/><line class="cls-5" x1="125.82" y1="60.51" x2="122.97" y2="55.57"/><line class="cls-5" x1="135.45" y1="83.74" x2="137.93" y2="93.01"/><line class="cls-5" x1="138.51" y1="82.48" x2="141.36" y2="87.42"/><line class="cls-5" x1="128.88" y1="83.74" x2="126.4" y2="93.01"/><line class="cls-5" x1="125.82" y1="82.48" x2="122.97" y2="87.42"/><circle class="cls-5" cx="106" cy="73.54" r="8.59"/><circle class="cls-6" cx="158.33" cy="73.54" r="8.59"/><circle class="cls-6" cx="182.69" cy="82.24" r="8.58"/><circle class="cls-6" cx="203.56" cy="95.85" r="8.58" transform="translate(-12.72 33.85) rotate(-9.22)"/><circle class="cls-5" cx="81.64" cy="82.24" r="8.58"/><circle class="cls-5" cx="60.77" cy="95.85" r="8.58" transform="translate(-43.57 140.47) rotate(-80.78)"/><ellipse class="cls-7" cx="153.61" cy="103.09" rx="13.82" ry="2.83"/><path class="cls-7" d="M146.88,103.09c1.52,0,4.51.23,5.56,1.35s1.17,4,1.17,5.37c0-1.45.31-4.47,1.24-5.45s4-1.27,5.48-1.27c-1.43,0-4.35-.18-5.41-1.21s-1.31-4-1.31-5.52c0,1.57-.36,4.58-1.44,5.63S148.24,103.09,146.88,103.09Z"/><path class="cls-1" d="M123,103.09a.37.37,0,1,1-.37-.37A.37.37,0,0,1,123,103.09Z"/><circle class="cls-1" cx="192.74" cy="66.17" r="0.37"/><path class="cls-1" d="M60.43,76.81a.37.37,0,1,1-.37-.37A.36.36,0,0,1,60.43,76.81Z"/><circle class="cls-1" cx="108.87" cy="114.37" r="0.37"/><path class="cls-1" d="M96.32,55.57a.37.37,0,0,1-.74,0,.37.37,0,0,1,.74,0Z"/><path class="cls-1" d="M169.22,111.53a.7.7,0,1,1-.69-.69A.69.69,0,0,1,169.22,111.53Z"/><path class="cls-1" d="M202.24,79a.69.69,0,1,1-.69-.7A.69.69,0,0,1,202.24,79Z"/><path class="cls-1" d="M88.71,63.91a.7.7,0,1,1-.7-.7A.7.7,0,0,1,88.71,63.91Z"/><path class="cls-1" d="M84,100a.7.7,0,1,1-.69-.69A.69.69,0,0,1,84,100Z"/><path class="cls-8" d="M111,54.61c-1.44,0-1.52.12-1.52,1.51,0-1.41-.08-1.51-1.51-1.51,1.43,0,1.45-.1,1.51-1.51C109.48,54.51,109.53,54.61,111,54.61Z"/><path class="cls-8" d="M168.77,90.92c-1.43,0-1.51.12-1.51,1.51,0-1.4-.08-1.51-1.51-1.51,1.43,0,1.45-.09,1.51-1.51C167.29,90.82,167.34,90.92,168.77,90.92Z"/><path class="cls-8" d="M134,115.36c-1.43,0-1.51.13-1.51,1.52,0-1.41-.08-1.52-1.51-1.52,1.43,0,1.45-.09,1.51-1.51C132.48,115.26,132.53,115.36,134,115.36Z"/><ellipse class="cls-7" cx="97.51" cy="93.97" rx="4.32" ry="6.98"/><path class="cls-7" d="M174.1,62.82A2,2,0,0,0,172,65a2,2,0,0,0-2.13-2.13A2,2,0,0,0,172,60.7,2,2,0,0,0,174.1,62.82Z"/></svg>