<svg id="Layer_2" data-name="Layer 2" xmlns="http://www.w3.org/2000/svg" viewBox="0 0 211.81 229.42"><defs><style>.cls-1,.cls-3{fill:none;}.cls-1,.cls-5{stroke:#151515;}.cls-1,.cls-3,.cls-4,.cls-5{stroke-linecap:round;stroke-linejoin:round;stroke-width:0.7px;}.cls-2,.cls-4{fill:#151515;}.cls-3,.cls-4{stroke:#fff;}.cls-5,.cls-6{fill:#fff;}</style></defs><path class="cls-1" d="M69.3,60.63c9.14,3.34,16.42,6.77,32.18,7.58a93.67,93.67,0,0,0,30-3.39"/><path class="cls-1" d="M51.92,51.4a33.5,33.5,0,0,0,8.72,5.81"/><path class="cls-1" d="M56.48,58.23c1.15,1.07,3.42,4,5.43,6.08,5.75,6,17.92,23.23,38.29,23.86,19.09.59,35.09-17.11,40.1-20.92a24.56,24.56,0,0,1,2.33-1.63"/><path class="cls-1" d="M139.4,62.29c2.36-.75,6.6-2.87,7.59-4"/><path class="cls-2" d="M180.18,156.34c-2.29-7-5.46-4.44-6.22-13.58s2.92-26.65,4.31-32.87,3.59-15.57,4.33-17.77.59-5.91.59-8,.15-4.93,0-6.41-.81-4.34-.89-6.18a27.47,27.47,0,0,0-.51-5.23c-.3-.74-2.29-1.63-4.2,0s-1.77,6.85-1.84,10.16a45.29,45.29,0,0,1-.67,9,72.65,72.65,0,0,1-3.65,12.81h0q-.08-.52-.12-1c-.27-3,.17-13.59,0-16.41s-.49-3.48-1.6-6.58-3.42-8.23-4.36-11-1.66-3.32-3.71-6.13-4-4.92-6-3.87-1.33,4.25-.5,6.3,3.15,7.51,3.43,8.34,1.49,5.91,2,8.73.47,4.48.26,8.7h0c-.09-.41-.18-.81-.26-1.22A55,55,0,0,0,157.52,74c-.73-1.42-2.26-4.18-3.7-6.71a46.1,46.1,0,0,0-3.38-5.54c-1-1.2-2.33-2.42-4-4.16s-3.32-2.93-5.05-2.23-1.73,3-1.23,4.91,3.3,6,4.79,8.48a30.14,30.14,0,0,1,3.49,7.89c.47,1.82,2.11,10.43,3,15.18.19,1,.49,2.29.61,2.84a1.86,1.86,0,0,1-.89,2.11h0a21.93,21.93,0,0,1-1.44-4.26c-.59-2.73-2.53-8.28-3.64-11.92s-1.51-5.85-3-9.29-3.2-7.2-3.53-8.38A36.91,36.91,0,0,0,136.8,56c-1.21-2.23-1.71-6-5.45-4.35s-1,10.63-.37,12.76c.58,1.85,1,2.57,2,6.23s2.23,11,3,16.38a105.25,105.25,0,0,1,1.15,22.19c-.19,2.47-.39,4.42-.6,6l-.13-.15a19.55,19.55,0,0,1-3.9-3.81,42.23,42.23,0,0,1-3.46-6.24c-.45-1.59-.45-4.56-1.64-7.74-1.3-3.47-4.2-4.63-5.73-3.61s-.84,6.17-1.18,8.37-.4,5.19.19,6.6c.75,1.8,2.12,3.92,4.52,8.53,2.3,4.4,6.4,15.37,9.23,22.23s9.82,11.33,12.89,16.64,11.41,17.88,16.28,26.19c0,0,5.9,2,14.92-1.24,9.42-3.36,10.76-8.34,10.76-8.34S182.46,163.32,180.18,156.34Z"/><path class="cls-2" d="M84.06,90.52c-2.61-.31-5.85.86-8.29,5.18a48.5,48.5,0,0,0-2.85,6.77,25.32,25.32,0,0,1-6.29,9.44h0c0-.37,0-.73.05-1.08a130.13,130.13,0,0,0-.07-15.18A131.07,131.07,0,0,1,66.23,82c.15-2.21,1.14-8.23,1.29-11a80.35,80.35,0,0,1,1.07-8.38c.38-2.13,1-3.13,1.91-8.46s-1.15-7.32-3-7.7-3.73,4.95-5.1,7.32a22.18,22.18,0,0,0-2.52,7.24,82.91,82.91,0,0,1-2.36,8.84A25.81,25.81,0,0,0,56,77c-.07,2.29-.3,3.81-.76,8.77-.16,1.71-.27,3.28-.37,4.72l-.12-.25c-1.71,1.91-2.46.85-2.79-1-.37-2.07-1.08-11.92-1.08-13.83a9.34,9.34,0,0,1,.76-4.63c.83-2,3.68-10.66,4-11.35a18.09,18.09,0,0,1,2-2.73c1.27-1.65,3.87-6.15,2.92-8.44s-3.37-1.39-5,0-3.75,2.6-5.52,4.57a12.76,12.76,0,0,0-1.77,2.59h0c-1.14,1.62-2.68,2.89-3.69,4.65s-4.42,8.54-6.34,12.05S35.92,77.42,36,79.68a100.21,100.21,0,0,1-.23,10.81c-.31,3-.72,6-1.55,5C33,94.06,32.07,85.21,31.82,83.87s-.58-9.54-.5-11.3.08-6.61-.67-8.12a2.59,2.59,0,0,0-3.72-1.17c-1,.65-1.08,4-1.29,6.11-.18,1.78-.77,4-.77,5.61s-.16,5.52-.41,8.79a17.29,17.29,0,0,0,.67,6.78c.5,2,1.94,10.84,1.79,13.1a68.76,68.76,0,0,0-.1,7.59c.13,1.26.25,1.7-.45,7.25S25,130.45,23.73,138.78s-1.16,9-4.21,12.21-3.07,6.23-3.9,8.73-4.39,8.76-7.86,13.9c0,0,3,5.57,12,8.57,9.5,3.17,13.86,1.18,13.86,1.18,5.27-9.26,8.59-16.19,14.69-22.51,3.61-3.75,8.05-6.51,13.57-13s9.21-19,10.47-22.77a63.71,63.71,0,0,1,6.42-13.77c2.69-3.92,2.93-5,3.62-7.73a42.11,42.11,0,0,1,2.18-6.85C85.75,93.77,86.68,90.83,84.06,90.52Z"/><path class="cls-3" d="M7.76,173.62c3.47-5.14,7-11.4,7.86-13.9s.84-5.54,3.9-8.73,3-3.88,4.21-12.21,1.95-14.72,2.64-20.27.58-6,.45-7.25a68.76,68.76,0,0,1,.1-7.59c.15-2.26-1.29-11.1-1.79-13.1a17.29,17.29,0,0,1-.67-6.78c.25-3.27.41-7.2.41-8.79s.59-3.83.77-5.61c.21-2.14.29-5.46,1.29-6.11a2.59,2.59,0,0,1,3.72,1.17c.75,1.51.75,6.36.67,8.12s.25,10,.5,11.3S33,94.06,34.23,95.49c.83,1,1.24-2,1.55-5A100.21,100.21,0,0,0,36,79.68c-.09-2.26.33-4,2.26-7.53s5.34-10.29,6.34-12.05,2.55-3,3.69-4.65"/><path class="cls-4" d="M27.26,61.75c-.79,0-1.15.12-1.49,2.1a15.09,15.09,0,0,0-.13,4.32,1.15,1.15,0,0,0,1.35.61c.73-.15,1.41-1,1.62-2.62s.51-3,.29-3.53S27.71,61.78,27.26,61.75Z"/><path class="cls-3" d="M40.06,97.92a25.25,25.25,0,0,0,.94-8.4c-.07-3.67-.57-10.72-.57-13.25s-.13-3.94,1.26-6.66,4.06-8.44,4.82-10.22,1.78-4.56,3.56-6.53,3.87-3.17,5.52-4.57,4.06-2.28,5,0S59,55.08,57.68,56.73a18.09,18.09,0,0,0-2,2.73c-.32.69-3.17,9.39-4,11.35a9.34,9.34,0,0,0-.76,4.63c0,1.91.71,11.76,1.08,13.83.33,1.8,1.08,2.86,2.79,1"/><path class="cls-4" d="M53.21,50.11a3.61,3.61,0,0,0,3.55,0,9.71,9.71,0,0,0,3.55-2.86c.42-.78-1-2-1.78-2s-1.69.72-2.9,1.82S52.8,49.61,53.21,50.11Z"/><path class="cls-3" d="M54.26,97.48c.46-3,.53-6.78,1-11.73s.69-6.48.76-8.77a25.81,25.81,0,0,1,1.53-7.09,82.91,82.91,0,0,0,2.36-8.84,22.18,22.18,0,0,1,2.52-7.24c1.37-2.37,3.27-7.7,5.1-7.32s3.89,2.36,3,7.7S69,60.52,68.59,62.65A80.35,80.35,0,0,0,67.52,71c-.15,2.75-1.14,8.77-1.29,11a131.07,131.07,0,0,0,.38,13.64,130.13,130.13,0,0,1,.07,15.18c-.23,5-.39,12.09-.38,13.48"/><path class="cls-3" d="M66.63,111.91a25.32,25.32,0,0,0,6.29-9.44,48.5,48.5,0,0,1,2.85-6.77c2.44-4.32,5.68-5.49,8.29-5.18s1.69,3.25.5,6.18a42.11,42.11,0,0,0-2.18,6.85c-.69,2.75-.93,3.81-3.62,7.73a63.71,63.71,0,0,0-6.42,13.77c-1.26,3.77-5,16.24-10.47,22.77s-10,9.29-13.57,13c-6.1,6.32-9.65,13.58-14.92,22.83"/><path class="cls-4" d="M83.12,94.35c.85-1.8,1.77-3.89,2.46-3.86a2.39,2.39,0,0,1,1.83,1.62c.06.67-2.12,4.55-2.81,5.68s-1.39,1.09-1.79.66C82.2,97.8,82.46,95.75,83.12,94.35Z"/><path class="cls-4" d="M64.15,49.33c.63-1.75,1.64-4,2.37-4.15a2.65,2.65,0,0,1,2.58,1c.82,1-1.11,5-1.84,5.83a2.58,2.58,0,0,1-3.11.85C63.51,52.57,63.26,51.79,64.15,49.33Z"/><path class="cls-3" d="M163.68,182.25c-4.87-8.31-13.13-20.75-16.28-26.19s-10.07-9.78-12.89-16.64-6.93-17.83-9.23-22.23c-2.4-4.61-3.77-6.73-4.52-8.53-.59-1.41-.53-4.4-.19-6.6s-.34-7.36,1.18-8.37,4.43.14,5.73,3.61c1.19,3.18,1.19,6.15,1.64,7.74a42.75,42.75,0,0,0,3.46,6.25,20,20,0,0,0,3.9,3.8"/><path class="cls-3" d="M135,123a60.48,60.48,0,0,0,2.22-13.73A105.25,105.25,0,0,0,136.06,87c-.81-5.35-2-12.72-3-16.38s-1.46-4.38-2-6.23c-.66-2.13-3.36-11.14.37-12.76s4.24,2.12,5.45,4.35a36.91,36.91,0,0,1,2.73,6.86c.33,1.18,2,4.95,3.53,8.38s1.92,5.66,3,9.29,3,9.19,3.64,11.92a26,26,0,0,0,3.06,7.36"/><path class="cls-3" d="M166.9,108.52a20.52,20.52,0,0,0-.05-4.42c-.4-2.3-1.09-2.82-2.64-7.13a96.53,96.53,0,0,1-3.6-12.76A55,55,0,0,0,157.52,74c-.73-1.42-2.26-4.18-3.7-6.71a46.1,46.1,0,0,0-3.38-5.54c-1-1.2-2.33-2.42-4-4.16s-3.32-2.93-5.05-2.23-1.73,3-1.23,4.91,3.3,6,4.79,8.48a30.14,30.14,0,0,1,3.49,7.89c.47,1.82,2.11,10.43,3,15.18.19,1,.49,2.29.61,2.84a1.86,1.86,0,0,1-.89,2.11"/><path class="cls-3" d="M160.87,85.43c.21-4.22.25-5.88-.26-8.7s-1.73-7.9-2-8.73-2.6-6.3-3.43-8.34-1.44-5.25.5-6.3,3.92,1,6,3.87,2.77,3.37,3.71,6.13,3.26,7.9,4.36,11,1.44,3.76,1.6,6.58-.27,13.37,0,16.41,2.05,9.49,1.83,11.18"/><path class="cls-3" d="M171.43,98.29a72.65,72.65,0,0,0,3.65-12.81,45.29,45.29,0,0,0,.67-9c.07-3.31-.08-8.54,1.84-10.16s3.9-.74,4.2,0a27.47,27.47,0,0,1,.51,5.23c.08,1.84.74,4.71.89,6.18s0,4.35,0,6.41.15,5.77-.59,8-2.93,11.55-4.33,17.77-5.07,23.73-4.31,32.87,3.93,6.6,6.22,13.58,9.18,16.33,9.18,16.33"/><path class="cls-4" d="M132.06,50.22c-1.83.24-2,1.17-1.68,2.27a7.81,7.81,0,0,0,2.44,3.79c1.32,1,2.91.81,3.43.25s.46-1.24,0-2.42a13.88,13.88,0,0,0-1.93-3.28A2.51,2.51,0,0,0,132.06,50.22Z"/><path class="cls-4" d="M141.7,54.37c-1.15,0-1.75.63-1.46,1.32s1.82,1.5,2.66,1.77a5,5,0,0,0,2.58.25c.69-.2.69-.58,0-1.39a7.37,7.37,0,0,0-1.9-1.56A3.35,3.35,0,0,0,141.7,54.37Z"/><path class="cls-4" d="M157.13,52.18a1.78,1.78,0,0,0-1.66,2c.2.7,1.67,2,2.87,3a2.67,2.67,0,0,0,2.75.6c.49-.21.67-.62.3-1.21s-1.5-2-2.22-2.87S158,52.11,157.13,52.18Z"/><path class="cls-4" d="M180.15,64.39c-.69.12-1.08.78-.92,3.34.17,2.81,1.12,3.78,1.79,4.06s1.25.18,1.33-.47a53.88,53.88,0,0,0-.21-5.6A1.74,1.74,0,0,0,180.15,64.39Z"/><path class="cls-4" d="M120.67,100.73c.51.08,1.15-2.25,1.42-4.23.3-2.22.36-3.17-.31-3.56-.48-.29-1.72-.89-1.85,1.26S119.87,100.61,120.67,100.73Z"/><path class="cls-5" d="M99.61,71.66a8.92,8.92,0,0,1-3.53-17.1,10.83,10.83,0,0,0-2-.19,10.52,10.52,0,1,0,8.43,16.8A9,9,0,0,1,99.61,71.66Z"/><path class="cls-5" d="M102.66,61.69c-3.45,0-3.65.3-3.65,3.65,0-3.4-.19-3.65-3.64-3.65,3.45,0,3.5-.22,3.64-3.64C99.07,61.45,99.21,61.69,102.66,61.69Z"/><path class="cls-5" d="M81.55,48.76c-1.52,0-1.6.13-1.6,1.61,0-1.5-.09-1.61-1.61-1.61,1.52,0,1.54-.1,1.61-1.61C80,48.65,80,48.76,81.55,48.76Z"/><path class="cls-5" d="M97.94,98.3c-1.52,0-1.6.13-1.6,1.61,0-1.5-.09-1.61-1.61-1.61,1.52,0,1.54-.1,1.61-1.6C96.36,98.2,96.42,98.3,97.94,98.3Z"/><path class="cls-5" d="M119.87,55.07a1.89,1.89,0,0,0-2,2,1.88,1.88,0,0,0-2-2,1.89,1.89,0,0,0,2-2A1.89,1.89,0,0,0,119.87,55.07Z"/><path class="cls-5" d="M117.12,75a1.89,1.89,0,0,0-2,2,1.89,1.89,0,0,0-2-2,1.89,1.89,0,0,0,2-2A1.88,1.88,0,0,0,117.12,75Z"/><path class="cls-5" d="M85.82,82.28a3.77,3.77,0,0,0-4.08,4.08,3.77,3.77,0,0,0-4.08-4.08,3.77,3.77,0,0,0,4.08-4.08A3.77,3.77,0,0,0,85.82,82.28Z"/><path class="cls-5" d="M109.82,46.49A2.62,2.62,0,0,0,107,49.33a2.62,2.62,0,0,0-2.84-2.84A2.63,2.63,0,0,0,107,43.65,2.63,2.63,0,0,0,109.82,46.49Z"/><path class="cls-5" d="M114,88a5,5,0,1,1-3.33-6.3A5,5,0,0,1,114,88Z"/><path class="cls-1" d="M114.2,86.08c1.6.93,2.52,1.88,2.31,2.57-.37,1.18-3.93,1.14-8-.1s-7-3.21-6.64-4.4c.21-.68,1.51-1,3.35-.82"/><path class="cls-5" d="M128.06,78.2a2.33,2.33,0,1,1-2.32-2.33A2.32,2.32,0,0,1,128.06,78.2Z"/><path class="cls-2" d="M110.93,61.3a.38.38,0,0,1-.39.39.39.39,0,0,1-.39-.39.4.4,0,0,1,.39-.39A.39.39,0,0,1,110.93,61.3Z"/><path class="cls-2" d="M125.74,86.48a.4.4,0,0,1-.39.39.39.39,0,0,1-.39-.39.38.38,0,0,1,.39-.39A.39.39,0,0,1,125.74,86.48Z"/><path class="cls-2" d="M93.05,80.13a.39.39,0,0,1-.39.39.38.38,0,0,1-.39-.39.39.39,0,0,1,.39-.39A.4.4,0,0,1,93.05,80.13Z"/><path class="cls-2" d="M77.66,70a.4.4,0,0,1-.39.39.39.39,0,0,1-.39-.39.38.38,0,0,1,.39-.39A.39.39,0,0,1,77.66,70Z"/><path class="cls-2" d="M88.55,48.76a.38.38,0,0,1-.39.39.39.39,0,0,1-.39-.39.4.4,0,0,1,.39-.39A.39.39,0,0,1,88.55,48.76Z"/><circle class="cls-2" cx="101.87" cy="53.09" r="0.39"/><path class="cls-3" d="M141.1,61.65c2.31-1,5.11-2.47,5.89-3.36"/><path class="cls-3" d="M139.07,62.45s-5.48,1.75-7.64,2.37"/><path class="cls-3" d="M133.78,72.92c2.91-2.5,5.89-5.18,7.28-6.24"/><path class="cls-3" d="M60.88,57.21a41.75,41.75,0,0,0,8.21,3.31"/><path class="cls-3" d="M51.33,51.62a40.16,40.16,0,0,0,5.15,6.61"/><path class="cls-3" d="M52.24,51.13a32.36,32.36,0,0,0,5.86,4.8"/><path class="cls-3" d="M59.75,61.89c.71.83,1.45,1.67,2.16,2.42,1.44,1.5,3.28,3.7,5.54,6.17"/><path class="cls-3" d="M142.91,65.39s3.89-3,5.3-5.9"/><path class="cls-6" d="M158.07,158.43a.34.34,0,1,1-.31-.37A.34.34,0,0,1,158.07,158.43Z"/><path class="cls-6" d="M160,138.1a.35.35,0,0,1-.38.31.34.34,0,1,1,.38-.31Z"/><path class="cls-6" d="M163,173.65a.34.34,0,1,1-.3-.37A.33.33,0,0,1,163,173.65Z"/><path class="cls-6" d="M164.57,168.67a.35.35,0,0,1-.37.31.35.35,0,0,1-.31-.38.35.35,0,0,1,.38-.3A.34.34,0,0,1,164.57,168.67Z"/><path class="cls-6" d="M174.68,154.06A.34.34,0,1,1,174,154a.33.33,0,0,1,.37-.3A.34.34,0,0,1,174.68,154.06Z"/><path class="cls-6" d="M184.58,172.36a.35.35,0,0,1-.37.31.35.35,0,0,1-.31-.38.35.35,0,0,1,.38-.3A.34.34,0,0,1,184.58,172.36Z"/><path class="cls-6" d="M150.06,150.3a.34.34,0,0,1-.38.3.34.34,0,1,1,.07-.67A.35.35,0,0,1,150.06,150.3Z"/><path class="cls-6" d="M172.85,172a.35.35,0,0,1-.37.31.35.35,0,0,1-.31-.38.34.34,0,0,1,.37-.3A.34.34,0,0,1,172.85,172Z"/><path class="cls-6" d="M154.88,115.25a.35.35,0,0,1-.37.31.35.35,0,0,1-.31-.38.34.34,0,0,1,.37-.3A.34.34,0,0,1,154.88,115.25Z"/><path class="cls-6" d="M143,108.55a.34.34,0,1,1-.31-.37A.34.34,0,0,1,143,108.55Z"/><path class="cls-6" d="M123.75,106.76a.34.34,0,1,1-.31-.37A.34.34,0,0,1,123.75,106.76Z"/><path class="cls-6" d="M165,79a.34.34,0,1,1-.31-.37A.33.33,0,0,1,165,79Z"/><path class="cls-6" d="M163.62,64.85a.34.34,0,1,1-.31-.37A.34.34,0,0,1,163.62,64.85Z"/><path class="cls-6" d="M180.73,88a.33.33,0,0,1-.37.3.34.34,0,1,1,.37-.3Z"/><path class="cls-6" d="M145.9,89.54a.34.34,0,0,1-.37.31.35.35,0,0,1-.31-.38.34.34,0,0,1,.68.07Z"/><path class="cls-6" d="M132.82,59.53a.34.34,0,1,1-.31-.37A.33.33,0,0,1,132.82,59.53Z"/><path class="cls-6" d="M167.34,92.67a.33.33,0,0,1-.37.3.34.34,0,1,1,.37-.3Z"/><path class="cls-6" d="M176.25,102.62a.34.34,0,1,1-.31-.37A.34.34,0,0,1,176.25,102.62Z"/><path class="cls-6" d="M155.77,90.52a.34.34,0,0,1-.37.31.34.34,0,1,1,.07-.68A.34.34,0,0,1,155.77,90.52Z"/><path class="cls-6" d="M141.22,94.63a.34.34,0,1,1-.31-.38A.35.35,0,0,1,141.22,94.63Z"/><path class="cls-6" d="M153.76,73.71a.34.34,0,0,1-.68-.07.34.34,0,0,1,.37-.3A.33.33,0,0,1,153.76,73.71Z"/><path class="cls-6" d="M153.42,81.85a.34.34,0,0,1-.68-.07.33.33,0,0,1,.37-.3A.34.34,0,0,1,153.42,81.85Z"/><path class="cls-6" d="M138.42,74.26a.34.34,0,0,1-.68-.07.33.33,0,0,1,.37-.3A.35.35,0,0,1,138.42,74.26Z"/><path class="cls-6" d="M140.49,120.37a.33.33,0,0,1-.37.31.34.34,0,1,1,.37-.31Z"/><path class="cls-6" d="M157.73,121.06a.34.34,0,1,1-.31-.38A.35.35,0,0,1,157.73,121.06Z"/><path class="cls-6" d="M134.36,131.93a.34.34,0,1,1,.11-.47A.34.34,0,0,1,134.36,131.93Z"/><path class="cls-6" d="M128.82,113.78a.34.34,0,1,1,.1-.47A.34.34,0,0,1,128.82,113.78Z"/><path class="cls-6" d="M159.48,101.63a.35.35,0,0,1-.38.31.34.34,0,1,1,.38-.31Z"/><path class="cls-6" d="M171.77,135.45a.34.34,0,0,1-.37.31.34.34,0,1,1,.07-.68A.34.34,0,0,1,171.77,135.45Z"/><path class="cls-6" d="M175,166.29a.33.33,0,0,1-.37.3.34.34,0,1,1,.07-.67A.33.33,0,0,1,175,166.29Z"/><path class="cls-6" d="M171.52,125.11a.35.35,0,0,1-.37.31.35.35,0,0,1-.31-.38.35.35,0,0,1,.38-.3A.34.34,0,0,1,171.52,125.11Z"/><path class="cls-6" d="M155.22,107.1a.34.34,0,1,1-.68-.06.35.35,0,0,1,.38-.31A.34.34,0,0,1,155.22,107.1Z"/><path class="cls-6" d="M159.9,153.56a.21.21,0,1,1-.42,0,.21.21,0,0,1,.23-.19A.21.21,0,0,1,159.9,153.56Z"/><path class="cls-6" d="M182.73,166.28a.21.21,0,0,1-.23.19.23.23,0,0,1-.19-.24.21.21,0,0,1,.23-.18A.21.21,0,0,1,182.73,166.28Z"/><path class="cls-6" d="M144.73,127a.21.21,0,0,1-.23.19.22.22,0,0,1-.19-.23.21.21,0,0,1,.23-.19A.21.21,0,0,1,144.73,127Z"/><path class="cls-6" d="M144.52,133.83a.21.21,0,0,1-.23.19.22.22,0,0,1-.19-.23.21.21,0,0,1,.23-.19A.21.21,0,0,1,144.52,133.83Z"/><path class="cls-6" d="M148.27,143.89a.21.21,0,1,1-.18-.23A.21.21,0,0,1,148.27,143.89Z"/><path class="cls-6" d="M158.28,145.7a.21.21,0,0,1-.23.19.21.21,0,0,1-.19-.23.22.22,0,0,1,.23-.19A.21.21,0,0,1,158.28,145.7Z"/><path class="cls-6" d="M161.65,135.1a.21.21,0,0,1-.23.19.21.21,0,0,1,0-.42A.21.21,0,0,1,161.65,135.1Z"/><path class="cls-6" d="M176.68,178a.21.21,0,1,1-.18-.23A.2.2,0,0,1,176.68,178Z"/><path class="cls-6" d="M125.17,103.25a.22.22,0,0,1-.23.19.21.21,0,0,1-.19-.23A.21.21,0,0,1,125,103,.22.22,0,0,1,125.17,103.25Z"/><path class="cls-6" d="M167,113a.21.21,0,1,1-.42,0,.21.21,0,0,1,.23-.18A.21.21,0,0,1,167,113Z"/><path class="cls-6" d="M160.24,113.51a.22.22,0,0,1-.23.19.21.21,0,0,1-.19-.23.21.21,0,1,1,.42,0Z"/><path class="cls-6" d="M153.17,156.39a.23.23,0,0,1-.23.19.22.22,0,0,1-.19-.23.21.21,0,0,1,.23-.19A.21.21,0,0,1,153.17,156.39Z"/><path class="cls-6" d="M171.6,118.55a.21.21,0,0,1-.23.19.23.23,0,0,1-.19-.23.22.22,0,0,1,.23-.19A.21.21,0,0,1,171.6,118.55Z"/><path class="cls-6" d="M166.45,129.32a.21.21,0,0,1-.23.19.21.21,0,0,1,.05-.42A.2.2,0,0,1,166.45,129.32Z"/><path class="cls-6" d="M139.94,138.59a.21.21,0,0,1-.29-.07.21.21,0,1,1,.29.07Z"/><path class="cls-6" d="M149.43,66.21a.22.22,0,0,1-.23.19.21.21,0,0,1-.19-.23.21.21,0,0,1,.23-.19A.21.21,0,0,1,149.43,66.21Z"/><path class="cls-6" d="M136.68,60.31a.21.21,0,0,1-.23.19.21.21,0,0,1-.19-.23.23.23,0,0,1,.23-.19A.21.21,0,0,1,136.68,60.31Z"/><path class="cls-6" d="M135.46,68.17a.21.21,0,0,1-.23.19.21.21,0,0,1-.19-.23.21.21,0,1,1,.42,0Z"/><path class="cls-6" d="M155.43,77a.21.21,0,0,1-.42,0,.21.21,0,1,1,.42,0Z"/><path class="cls-6" d="M131.4,120.36a.21.21,0,1,1-.19-.23A.21.21,0,0,1,131.4,120.36Z"/><path class="cls-6" d="M169.28,81.14a.21.21,0,0,1-.23.19.21.21,0,0,1-.18-.23.21.21,0,0,1,.23-.19A.2.2,0,0,1,169.28,81.14Z"/><path class="cls-6" d="M178.59,85.55a.21.21,0,0,1-.23.19.21.21,0,0,1-.19-.23.23.23,0,0,1,.24-.19A.22.22,0,0,1,178.59,85.55Z"/><path class="cls-6" d="M169.66,103.25a.21.21,0,0,1-.23.19.21.21,0,1,1,.23-.19Z"/><path class="cls-6" d="M149.22,103a.21.21,0,0,1-.23.18.21.21,0,0,1-.19-.23.2.2,0,0,1,.23-.18A.21.21,0,0,1,149.22,103Z"/><path class="cls-6" d="M178.17,97.14a.21.21,0,0,1-.23.19.21.21,0,0,1-.19-.23.23.23,0,0,1,.23-.19A.22.22,0,0,1,178.17,97.14Z"/><path class="cls-6" d="M164,72.43a.21.21,0,0,1-.23.19.21.21,0,0,1-.18-.23.21.21,0,0,1,.23-.19A.2.2,0,0,1,164,72.43Z"/><path class="cls-6" d="M136.89,79.56a.21.21,0,0,1-.23.19.21.21,0,0,1-.19-.23.23.23,0,0,1,.23-.19A.22.22,0,0,1,136.89,79.56Z"/><path class="cls-6" d="M160.05,62.89a.22.22,0,0,1-.24.19.21.21,0,0,1-.18-.23.21.21,0,0,1,.23-.19A.23.23,0,0,1,160.05,62.89Z"/><path class="cls-6" d="M148.48,109.16a.21.21,0,0,1-.23.19.21.21,0,0,1-.18-.23.21.21,0,0,1,.23-.19A.2.2,0,0,1,148.48,109.16Z"/><path class="cls-6" d="M125.17,97.35a.22.22,0,0,1-.23.19.21.21,0,0,1-.19-.23.21.21,0,0,1,.23-.19A.23.23,0,0,1,125.17,97.35Z"/><path class="cls-6" d="M140.88,100.66a.21.21,0,0,1-.23.19.21.21,0,0,1-.19-.23.21.21,0,1,1,.42,0Z"/><path class="cls-6" d="M141.93,73.91a.21.21,0,1,1-.19-.23A.2.2,0,0,1,141.93,73.91Z"/><path class="cls-6" d="M176.81,159.83a.21.21,0,0,1-.23.19.2.2,0,0,1-.18-.23.21.21,0,0,1,.23-.19A.21.21,0,0,1,176.81,159.83Z"/><path class="cls-6" d="M168.72,148.93a.22.22,0,0,1-.23.19.21.21,0,0,1-.19-.23.21.21,0,0,1,.23-.19A.22.22,0,0,1,168.72,148.93Z"/><path class="cls-6" d="M159.35,166.62a.21.21,0,1,1-.42,0,.21.21,0,1,1,.42,0Z"/><path class="cls-6" d="M154.41,126a.22.22,0,0,1-.23.19.21.21,0,1,1,0-.42A.21.21,0,0,1,154.41,126Z"/><path class="cls-6" d="M144.52,82.34a.21.21,0,0,1-.23.19.22.22,0,0,1-.19-.23.21.21,0,0,1,.23-.19A.21.21,0,0,1,144.52,82.34Z"/><path class="cls-6" d="M169.45,138.09a.21.21,0,0,1-.23.19.21.21,0,1,1,.23-.19Z"/><path class="cls-6" d="M164.57,154.74a.65.65,0,0,1-1.29-.13.65.65,0,1,1,1.29.13Z"/><path class="cls-6" d="M173.17,164.3a.65.65,0,0,1-.71.58.66.66,0,0,1-.58-.71.65.65,0,0,1,1.29.13Z"/><path class="cls-6" d="M146.54,148.33a.64.64,0,1,1-.58-.71A.65.65,0,0,1,146.54,148.33Z"/><path class="cls-6" d="M143.42,98a.64.64,0,1,1-1.28-.13.63.63,0,0,1,.7-.57A.64.64,0,0,1,143.42,98Z"/><path class="cls-6" d="M163.92,102.65a.64.64,0,1,1-.57-.71A.65.65,0,0,1,163.92,102.65Z"/><path class="cls-6" d="M141.14,81.18a.65.65,0,0,1-.71.58.66.66,0,0,1-.58-.71.65.65,0,0,1,.71-.57A.64.64,0,0,1,141.14,81.18Z"/><path class="cls-6" d="M150.36,137.49a.65.65,0,0,1-.71.58.65.65,0,0,1,.13-1.29A.66.66,0,0,1,150.36,137.49Z"/><path class="cls-6" d="M181,75a.65.65,0,0,1-1.29-.13A.65.65,0,0,1,181,75Z"/><path class="cls-6" d="M173.8,115a.65.65,0,0,1-1.29-.13.65.65,0,1,1,1.29.13Z"/><path class="cls-6" d="M152,115.62a.65.65,0,0,1-.71.58.64.64,0,0,1-.57-.71.64.64,0,0,1,1.28.13Z"/><path class="cls-6" d="M166.89,87.38a.65.65,0,1,1-.58-.7A.65.65,0,0,1,166.89,87.38Z"/><path class="cls-6" d="M132.18,116.54a.65.65,0,1,1,.2-.89A.65.65,0,0,1,132.18,116.54Z"/><path class="cls-6" d="M39.65,161.65A.34.34,0,0,0,40,162a.34.34,0,1,0,0-.68A.34.34,0,0,0,39.65,161.65Z"/><path class="cls-6" d="M40,141.23a.33.33,0,0,0,.33.34.35.35,0,0,0,.35-.34.34.34,0,0,0-.34-.34A.34.34,0,0,0,40,141.23Z"/><path class="cls-6" d="M33,176.21a.34.34,0,0,0,.34.34.34.34,0,0,0,.34-.34.34.34,0,0,0-.33-.34A.35.35,0,0,0,33,176.21Z"/><path class="cls-6" d="M32,171.08a.34.34,0,0,0,.34.34.34.34,0,0,0,0-.68A.35.35,0,0,0,32,171.08Z"/><path class="cls-6" d="M23.64,155.41a.35.35,0,0,0,.34.35.34.34,0,0,0,.34-.34.34.34,0,0,0-.34-.34A.33.33,0,0,0,23.64,155.41Z"/><path class="cls-6" d="M11.72,172.46a.35.35,0,0,0,.34.35.34.34,0,0,0,.34-.34.34.34,0,0,0-.68,0Z"/><path class="cls-6" d="M48.54,154.48a.33.33,0,0,0,.33.34.35.35,0,0,0,.35-.34.34.34,0,0,0-.34-.34A.34.34,0,0,0,48.54,154.48Z"/><path class="cls-6" d="M23.42,173.46a.34.34,0,0,0,.33.35.35.35,0,0,0,.35-.34.34.34,0,0,0-.34-.34A.32.32,0,0,0,23.42,173.46Z"/><path class="cls-6" d="M47.73,119.11a.34.34,0,0,0,.34.34.34.34,0,0,0,0-.68A.35.35,0,0,0,47.73,119.11Z"/><path class="cls-6" d="M60.33,113.81a.34.34,0,0,0,.68,0,.35.35,0,0,0-.34-.35A.34.34,0,0,0,60.33,113.81Z"/><path class="cls-6" d="M27.12,74.29a.34.34,0,0,0,.34.34.32.32,0,0,0,.34-.33.34.34,0,0,0-.33-.35A.35.35,0,0,0,27.12,74.29Z"/><path class="cls-6" d="M75.65,104.19a.34.34,0,0,0,.34.34.34.34,0,0,0,0-.68A.35.35,0,0,0,75.65,104.19Z"/><path class="cls-6" d="M41.77,81.93a.34.34,0,0,0,.33.35.35.35,0,0,0,.35-.34.34.34,0,0,0-.34-.34A.32.32,0,0,0,41.77,81.93Z"/><path class="cls-6" d="M44.79,68a.34.34,0,0,0,.33.35.35.35,0,0,0,.35-.34.34.34,0,0,0-.34-.34A.32.32,0,0,0,44.79,68Z"/><path class="cls-6" d="M27.12,89.09a.34.34,0,0,0,.34.34.34.34,0,0,0,0-.68A.35.35,0,0,0,27.12,89.09Z"/><path class="cls-6" d="M59.58,94.59a.34.34,0,1,0,.35-.34A.34.34,0,0,0,59.58,94.59Z"/><path class="cls-6" d="M67.11,55.1a.35.35,0,0,0,.34.35.34.34,0,0,0,.34-.34.32.32,0,0,0-.33-.34A.34.34,0,0,0,67.11,55.1Z"/><path class="cls-6" d="M37.92,95.25a.34.34,0,1,0,.68,0,.34.34,0,0,0-.33-.34A.33.33,0,0,0,37.92,95.25Z"/><path class="cls-6" d="M29.92,104.12a.33.33,0,0,0,.33.35.35.35,0,0,0,.35-.34.34.34,0,0,0-.68,0Z"/><path class="cls-6" d="M49.66,94.44a.34.34,0,0,0,.34.34.34.34,0,0,0,.34-.33.34.34,0,1,0-.68,0Z"/><path class="cls-6" d="M63.65,100.17a.34.34,0,0,0,.34.34.33.33,0,0,0,.34-.33.35.35,0,0,0-.33-.35A.35.35,0,0,0,63.65,100.17Z"/><path class="cls-6" d="M63,70.82a.34.34,0,0,0,.34.34.33.33,0,0,0,.34-.33.35.35,0,0,0-.33-.35A.35.35,0,0,0,63,70.82Z"/><path class="cls-6" d="M38.26,78.19a.35.35,0,0,0,.34.35.34.34,0,0,0,.34-.34.34.34,0,0,0-.33-.34A.33.33,0,0,0,38.26,78.19Z"/><path class="cls-6" d="M50.85,101.94a.33.33,0,0,0,.33.34.35.35,0,0,0,.35-.34.34.34,0,0,0-.34-.34A.34.34,0,0,0,50.85,101.94Z"/><path class="cls-6" d="M50.69,57.79a.34.34,0,0,0,.34.34.34.34,0,0,0,.34-.33.33.33,0,0,0-.33-.35A.35.35,0,0,0,50.69,57.79Z"/><path class="cls-6" d="M61.44,125.83a.34.34,0,1,0,.68,0,.34.34,0,0,0-.34-.34A.34.34,0,0,0,61.44,125.83Z"/><path class="cls-6" d="M44.24,124.55a.34.34,0,0,0,.34.34.33.33,0,0,0,.34-.33.34.34,0,1,0-.68,0Z"/><path class="cls-6" d="M63.44,137.86a.34.34,0,0,0,.48-.05.35.35,0,0,0-.06-.48.34.34,0,0,0-.47.06A.33.33,0,0,0,63.44,137.86Z"/><path class="cls-6" d="M74.68,111.55a.34.34,0,0,0,.43-.53.34.34,0,0,0-.43.53Z"/><path class="cls-6" d="M44.71,105.05a.35.35,0,0,0,.34.35.34.34,0,0,0,.34-.34.33.33,0,0,0-.33-.34A.35.35,0,0,0,44.71,105.05Z"/><path class="cls-6" d="M28.65,137.25a.35.35,0,0,0,.34.35.34.34,0,0,0,.34-.34.34.34,0,0,0-.68,0Z"/><path class="cls-6" d="M21.91,167.52a.35.35,0,0,0,.34.35.34.34,0,0,0,.34-.34.35.35,0,0,0-.34-.35A.34.34,0,0,0,21.91,167.52Z"/><path class="cls-6" d="M30.08,127a.32.32,0,0,0,.33.34.34.34,0,1,0,0-.68A.34.34,0,0,0,30.08,127Z"/><path class="cls-6" d="M48.32,111a.35.35,0,0,0,.34.35.34.34,0,0,0,0-.68A.34.34,0,0,0,48.32,111Z"/><path class="cls-6" d="M38.38,156.6a.22.22,0,1,0,.22-.21A.22.22,0,0,0,38.38,156.6Z"/><path class="cls-6" d="M14.25,166.63a.21.21,0,0,0,.21.21.2.2,0,0,0,.21-.2.21.21,0,1,0-.42,0Z"/><path class="cls-6" d="M56.48,131.89a.21.21,0,1,0,.42,0,.21.21,0,0,0-.21-.21A.2.2,0,0,0,56.48,131.89Z"/><path class="cls-6" d="M55.91,138.74a.21.21,0,1,0,.21-.21A.21.21,0,0,0,55.91,138.74Z"/><path class="cls-6" d="M51,148.31a.22.22,0,0,0,.21.22.22.22,0,0,0,0-.43A.23.23,0,0,0,51,148.31Z"/><path class="cls-6" d="M40.89,149a.22.22,0,0,0,.2.22.21.21,0,0,0,.22-.21.21.21,0,0,0-.21-.21A.2.2,0,0,0,40.89,149Z"/><path class="cls-6" d="M38.74,138.05a.21.21,0,0,0,.21.22.21.21,0,0,0,.21-.21.2.2,0,0,0-.2-.21A.21.21,0,0,0,38.74,138.05Z"/><path class="cls-6" d="M18.93,179a.21.21,0,0,0,.2.21.21.21,0,0,0,.22-.21.21.21,0,0,0-.42,0Z"/><path class="cls-6" d="M79.51,101.51a.21.21,0,0,0,.21.21.2.2,0,0,0,.21-.2.22.22,0,0,0-.21-.22A.21.21,0,0,0,79.51,101.51Z"/><path class="cls-6" d="M36,115.44a.21.21,0,0,0,.21.21.21.21,0,0,0,.21-.21.21.21,0,0,0-.2-.21A.21.21,0,0,0,36,115.44Z"/><path class="cls-6" d="M42.61,116.77a.2.2,0,0,0,.2.21.22.22,0,0,0,.22-.21.21.21,0,0,0-.21-.21A.21.21,0,0,0,42.61,116.77Z"/><path class="cls-6" d="M44.75,160.17a.21.21,0,0,0,.21.21.21.21,0,0,0,.21-.2A.21.21,0,0,0,45,160,.21.21,0,0,0,44.75,160.17Z"/><path class="cls-6" d="M30.74,120.48a.21.21,0,0,0,.21.21.21.21,0,0,0,.21-.21.21.21,0,0,0-.2-.21A.21.21,0,0,0,30.74,120.48Z"/><path class="cls-6" d="M34.63,131.76a.21.21,0,0,0,.21.22.21.21,0,0,0,.21-.21.21.21,0,0,0-.21-.21A.21.21,0,0,0,34.63,131.76Z"/><path class="cls-6" d="M59.91,144a.21.21,0,1,0,0-.29A.21.21,0,0,0,59.91,144Z"/><path class="cls-6" d="M64.25,62.67a.21.21,0,1,0,.42,0,.21.21,0,0,0-.21-.21A.2.2,0,0,0,64.25,62.67Z"/><path class="cls-6" d="M57.89,79.29a.22.22,0,0,0,.2.22.21.21,0,0,0,.22-.21.21.21,0,0,0-.21-.21A.2.2,0,0,0,57.89,79.29Z"/><path class="cls-6" d="M44,91.72a.21.21,0,0,0,.21.21.2.2,0,0,0,.21-.2.21.21,0,1,0-.42,0Z"/><path class="cls-6" d="M57.47,51.61a.22.22,0,0,0,.2.22.21.21,0,0,0,.22-.21.21.21,0,0,0-.21-.21A.2.2,0,0,0,57.47,51.61Z"/><path class="cls-6" d="M71.37,117.8a.21.21,0,0,0,.21.21.2.2,0,0,0,.21-.2.22.22,0,0,0-.21-.22A.21.21,0,0,0,71.37,117.8Z"/><path class="cls-6" d="M37.3,83.57a.21.21,0,0,0,.21.22.21.21,0,0,0,.21-.21.2.2,0,0,0-.2-.21A.21.21,0,0,0,37.3,83.57Z"/><path class="cls-6" d="M29.53,80.52a.21.21,0,1,0,.21-.21A.21.21,0,0,0,29.53,80.52Z"/><path class="cls-6" d="M29.53,86.9a.21.21,0,1,0,.42,0,.21.21,0,0,0-.21-.21A.2.2,0,0,0,29.53,86.9Z"/><path class="cls-6" d="M34.41,105.5a.21.21,0,0,0,.21.21.2.2,0,0,0,.21-.2.21.21,0,1,0-.42,0Z"/><path class="cls-6" d="M54.76,107.53a.21.21,0,1,0,.21-.21A.21.21,0,0,0,54.76,107.53Z"/><path class="cls-6" d="M28.63,98.47a.21.21,0,0,0,.2.21.21.21,0,0,0,.22-.21.21.21,0,0,0-.42,0Z"/><path class="cls-6" d="M43.56,75.53a.21.21,0,1,0,.42,0,.21.21,0,0,0-.21-.21A.21.21,0,0,0,43.56,75.53Z"/><path class="cls-6" d="M63.78,75.74a.21.21,0,0,0,.42,0,.21.21,0,0,0-.21-.21A.21.21,0,0,0,63.78,75.74Z"/><path class="cls-6" d="M48.56,66.5a.21.21,0,0,0,.21.21.2.2,0,0,0,.21-.2.22.22,0,0,0-.21-.22A.21.21,0,0,0,48.56,66.5Z"/><path class="cls-6" d="M54.78,113.78A.21.21,0,0,0,55,114a.21.21,0,0,0,.21-.2.21.21,0,0,0-.21-.22A.21.21,0,0,0,54.78,113.78Z"/><path class="cls-6" d="M65.05,129.61a.21.21,0,0,0,.21.21.21.21,0,0,0,.21-.21.21.21,0,0,0-.2-.21A.21.21,0,0,0,65.05,129.61Z"/><path class="cls-6" d="M63.3,106.21a.21.21,0,1,0,.21-.21A.21.21,0,0,0,63.3,106.21Z"/><path class="cls-6" d="M20.86,160.9a.23.23,0,0,0,.21.22.22.22,0,0,0,0-.43A.23.23,0,0,0,20.86,160.9Z"/><path class="cls-6" d="M30.15,151a.21.21,0,1,0,.42,0,.21.21,0,0,0-.21-.21A.2.2,0,0,0,30.15,151Z"/><path class="cls-6" d="M37.45,169.63a.2.2,0,0,0,.2.21.21.21,0,1,0,0-.42A.21.21,0,0,0,37.45,169.63Z"/><path class="cls-6" d="M47,129.82a.21.21,0,1,0,.21-.21A.21.21,0,0,0,47,129.82Z"/><path class="cls-6" d="M61.77,87.59a.21.21,0,1,0,.21-.21A.21.21,0,0,0,61.77,87.59Z"/><path class="cls-6" d="M30.66,140.14a.2.2,0,0,0,.2.21.21.21,0,1,0,0-.42A.21.21,0,0,0,30.66,140.14Z"/><path class="cls-6" d="M50.54,140.88a.65.65,0,0,0,1.29,0,.65.65,0,1,0-1.29,0Z"/><path class="cls-6" d="M33.08,156.8a.63.63,0,0,0,.63.65.65.65,0,0,0,.66-.63.66.66,0,0,0-.64-.66A.64.64,0,0,0,33.08,156.8Z"/><path class="cls-6" d="M26.62,144.72a.64.64,0,0,0,.63.65.65.65,0,1,0,0-1.29A.64.64,0,0,0,26.62,144.72Z"/><path class="cls-6" d="M61.08,103.31a.65.65,0,0,0,.63.66.66.66,0,0,0,.66-.64.65.65,0,0,0-.64-.65A.63.63,0,0,0,61.08,103.31Z"/><path class="cls-6" d="M40.18,105.56a.65.65,0,1,0,.66-.64A.66.66,0,0,0,40.18,105.56Z"/><path class="cls-6" d="M60.8,81.71a.65.65,0,0,0,.63.66.64.64,0,0,0,.65-.64.64.64,0,1,0-1.28,0Z"/><path class="cls-6" d="M39.71,129.81a.66.66,0,0,0,.64.66.65.65,0,0,0,.65-.64.63.63,0,0,0-.64-.65A.64.64,0,0,0,39.71,129.81Z"/><path class="cls-6" d="M47.43,80.12a.65.65,0,0,0,.63.66.66.66,0,0,0,.66-.64.64.64,0,0,0-.64-.65A.63.63,0,0,0,47.43,80.12Z"/><path class="cls-6" d="M29,116.68a.63.63,0,0,0,.63.65.65.65,0,0,0,.66-.63.65.65,0,0,0-1.29,0Z"/><path class="cls-6" d="M50.54,119.8a.65.65,0,1,0,.65-.63A.64.64,0,0,0,50.54,119.8Z"/><path class="cls-6" d="M53.51,125.58a.65.65,0,1,0,.81-1,.65.65,0,0,0-.81,1Z"/></svg>