<svg id="Layer_2" data-name="Layer 2" xmlns="http://www.w3.org/2000/svg" viewBox="0 0 159.48 229.42"><defs><style>.cls-1,.cls-3,.cls-8{fill:#151515;}.cls-1,.cls-2,.cls-4{stroke:#151515;}.cls-1,.cls-2,.cls-4,.cls-5,.cls-6,.cls-7,.cls-8{stroke-linecap:round;stroke-linejoin:round;stroke-width:0.7px;}.cls-2,.cls-9{fill:#fff;}.cls-4,.cls-5,.cls-6{fill:none;}.cls-5,.cls-8{stroke:#fff;}.cls-6,.cls-7{stroke:#936b26;}.cls-7{fill:#ead9c5;}</style></defs><polygon class="cls-1" points="88.66 70.48 97.39 90.84 106.13 70.48 101.23 92.09 120.27 80.75 103.6 95.35 125.67 97.37 103.6 99.38 120.27 113.98 101.23 102.64 106.13 124.25 97.39 103.89 88.66 124.25 93.56 102.64 74.52 113.98 91.19 99.38 69.12 97.37 91.19 95.35 74.52 80.75 93.56 92.09 88.66 70.48"/><polygon class="cls-2" points="97.39 47.59 100.94 86.44 126.65 57.1 106.69 90.61 144.74 81.98 108.88 97.37 144.74 112.75 106.69 104.12 126.65 137.64 100.94 108.29 97.39 147.14 93.84 108.29 68.14 137.64 88.1 104.12 50.05 112.75 85.91 97.37 50.05 81.98 88.1 90.61 68.14 57.1 93.84 86.44 97.39 47.59"/><circle class="cls-3" cx="97.4" cy="97.37" r="11.66"/><line class="cls-4" x1="86.45" y1="63.67" x2="87.39" y2="66.57"/><line class="cls-4" x1="68.73" y1="76.54" x2="71.19" y2="78.33"/><line class="cls-4" x1="61.96" y1="97.37" x2="65.01" y2="97.37"/><line class="cls-4" x1="68.73" y1="118.19" x2="71.19" y2="116.4"/><line class="cls-4" x1="86.45" y1="131.06" x2="87.39" y2="128.17"/><line class="cls-4" x1="108.34" y1="63.67" x2="107.4" y2="66.57"/><line class="cls-4" x1="126.06" y1="76.54" x2="123.6" y2="78.33"/><line class="cls-4" x1="132.83" y1="97.37" x2="129.78" y2="97.37"/><line class="cls-4" x1="126.06" y1="118.19" x2="123.6" y2="116.4"/><line class="cls-4" x1="108.34" y1="131.06" x2="107.4" y2="128.17"/><line class="cls-4" x1="97.4" y1="47.59" x2="97.4" y2="89.04"/><line class="cls-4" x1="68.14" y1="57.1" x2="92.5" y2="90.63"/><line class="cls-4" x1="50.05" y1="81.98" x2="89.48" y2="94.79"/><line class="cls-4" x1="50.05" y1="112.75" x2="89.48" y2="99.94"/><line class="cls-4" x1="126.65" y1="57.1" x2="102.29" y2="90.63"/><line class="cls-4" x1="144.74" y1="81.98" x2="105.31" y2="94.79"/><line class="cls-4" x1="144.74" y1="112.75" x2="105.31" y2="99.94"/><line class="cls-4" x1="68.14" y1="137.64" x2="92.5" y2="104.1"/><line class="cls-4" x1="126.65" y1="137.64" x2="102.29" y2="104.1"/><line class="cls-4" x1="97.4" y1="147.14" x2="97.4" y2="105.69"/><path class="cls-3" d="M106,151.64c-3.79-3.3-6.62-7.71-10.86-10.4A36.47,36.47,0,0,0,90.59,139C83,135.53,76.7,132.14,71,126.61c-2.2-2.14-3.56-4.45-5.69-7.18a9.44,9.44,0,0,0-3.76-3.11l.12-.07c-1-1.31-1.57-1.61-2.31-1.47a8,8,0,0,0-2.66,1.48,1.55,1.55,0,0,0-.37,1.62,6.84,6.84,0,0,0,.51,1.22l.11-.07a9.14,9.14,0,0,0,.68,3.88c1.11,3.16,4.32,5.83,6.54,7.71a37.21,37.21,0,0,1,8,9.71c-2.2-.11-4.31-.32-6.69-.33-2.55,0-4.07.56-6,.59l-.06.1c-1.92-1.68-3.33-3.25-5.2-5.06a63.64,63.64,0,0,1-9-10.89c-1-1.44-2-3.38-3-5-1.21-2.12-1.57-3.6-3.79-5.14a5.09,5.09,0,0,0-3-.93A2.57,2.57,0,0,0,33.4,115a3.59,3.59,0,0,0,.55,2.79l4.64,9.06c.86,1.68,2.69,6,4.49,8.27a2,2,0,0,0-1.11.7c-3.3-2.76-6.51-5.21-9.83-8-1.08-.91-2.44-2.2-3.5-3.25a22.53,22.53,0,0,0-3.83-3.48,5.81,5.81,0,0,0-5.12-.77,2.15,2.15,0,0,0-1.27,1.11,2.75,2.75,0,0,0,.65,2.53,30.93,30.93,0,0,0,3.4,3.83c4.9,4.92,7.64,7.74,12.54,12.67l1.21,1.21h0a69,69,0,0,1-10.85-.4c-1.69-.18-4.32-.87-6-.61a4.8,4.8,0,0,0-3.54,2.83.88.88,0,0,0-.13.66.94.94,0,0,0,.51.47c5.82,3,12.68,2.77,19.16,3.69,4.64.66,8.5,1.77,13.17,2.17h0c4.17,2.78,9,6.09,11.48,8.1,1.09.89,3.4,3,4.58,3.8a5.09,5.09,0,0,0,3.46.88,16.26,16.26,0,0,0,2.52,1.95c2,1.23,4.39,1.57,6.7,2,4.36.8,8.62,2,12.89,3.25,4.06,1.16,8.18,2.35,11.78,4.57,2.42,1.48,4.64,3.44,7.39,4.12,1.74.43,5.29-.64,7-1.08,4.39-1.11,11.3-1,18.92-.61,0,0,2.87-2.16,2.87-9.23a19.28,19.28,0,0,0-2.87-10.3C129,158.24,113.77,158.4,106,151.64Z"/><path class="cls-5" d="M136.1,158c-6.34.31-22.33.36-30.09-6.4-3.79-3.3-6.62-7.71-10.86-10.4A36.47,36.47,0,0,0,90.59,139C83,135.53,76.7,132.14,71,126.61c-2.2-2.14-3.56-4.45-5.69-7.18-.94-1.21-3.87-4.68-6.82-2.79-2.06,1.3-1.82,3.51-.86,6.27,1.11,3.16,4.32,5.83,6.54,7.71a37,37,0,0,1,8,9.71"/><path class="cls-6" d="M96.33,151.09a44,44,0,0,1-26.85-3.81"/><path class="cls-5" d="M68.24,163.23a5.15,5.15,0,0,1-3.65-.86c-1.18-.76-3.85-2.82-4.94-3.7-2.48-2-6.95-5.42-11.12-8.2-3.59-2.4-6.71-4.4-7.43-4.83A32.75,32.75,0,0,1,35,140.45c-4.9-4.93-7.64-7.75-12.54-12.67a30.93,30.93,0,0,1-3.4-3.83,2.75,2.75,0,0,1-.65-2.53,2.15,2.15,0,0,1,1.27-1.11,5.81,5.81,0,0,1,5.12.77,22.53,22.53,0,0,1,3.83,3.48c1.06,1,2.42,2.34,3.5,3.25,3.5,2.95,6.88,5.52,10.38,8.47"/><path class="cls-6" d="M61.6,142.41a70.53,70.53,0,0,1-7.31-6.78,63.64,63.64,0,0,1-9-10.89c-1-1.44-2-3.38-3-5-1.21-2.12-1.57-3.6-3.79-5.14a5.09,5.09,0,0,0-3-.93A2.57,2.57,0,0,0,33.4,115a3.59,3.59,0,0,0,.55,2.79l4.64,9.06c.86,1.68,2.69,6,4.49,8.27"/><path class="cls-6" d="M76.74,140.33c-4.07.26-7.29-.32-11.24-.33-2.55,0-4.07.56-6,.59"/><path class="cls-5" d="M48.53,150.47c-4.67-.4-8.53-1.51-13.17-2.17-6.48-.92-13.34-.69-19.16-3.69a.94.94,0,0,1-.51-.47.88.88,0,0,1,.13-.66,4.8,4.8,0,0,1,3.54-2.83c1.69-.26,4.32.43,6,.61a69,69,0,0,0,10.85.4"/><path class="cls-7" d="M36.12,121.36c-.37.32-.85-.33-1.06-.61a38.46,38.46,0,0,1-2.6-4.89c-.19-.48-.37-.86-.25-1.19a1.32,1.32,0,0,1,1-.64,1.05,1.05,0,0,1,1.27.81C34.74,115.53,36.45,121.07,36.12,121.36Z"/><path class="cls-8" d="M22.47,127.54c-.27.4-.9-.11-1.18-.32a38.36,38.36,0,0,1-3.77-4.07c-.3-.41-.58-.73-.54-1.09a1.35,1.35,0,0,1,.77-.86,1.06,1.06,0,0,1,1.44.46C19.64,122.25,22.71,127.17,22.47,127.54Z"/><path class="cls-8" d="M22,146.41c0,.6-1.38.38-1.7.33a39.58,39.58,0,0,1-4.51-1c-.45-.15-.82-.25-1-.53a1.2,1.2,0,0,1,.06-1,.92.92,0,0,1,1.28-.41C16.83,144,22.07,145.65,22,146.41Z"/><path class="cls-8" d="M125.5,83.41c.12,1.31.18,2.64.18,4a44.08,44.08,0,1,1-87-10.17,50.33,50.33,0,1,0,86.8,6.19Z"/><path class="cls-3" d="M135.28,177.45c-7.62-.35-14.53-.5-18.92.61-1.74.44-5.29,1.51-7,1.08-2.75-.68-5-2.64-7.39-4.12-3.6-2.22-7.72-3.41-11.78-4.57-4.26-1.22-8.53-2.45-12.89-3.25-2.31-.43-4.7-.77-6.7-2-2.25-1.38-3.79-3.3-5.75-5.08-2.19-2-5.54-4.13-7.93-5.86a30.29,30.29,0,0,1-3.49-3.11l-4-3.81c-2.67-2.53-5.38-5.12-7.15-8.35a3.14,3.14,0,0,1-.42-2.92c.71-1.32,2.82-1.33,4.65-.38,2.2,1.14,4.49,4.4,5.68,5.36A148.65,148.65,0,0,0,67.2,151.56h0a33.1,33.1,0,0,1,15,6.36s20.84,11.53,32.54,11.43S135.28,177.45,135.28,177.45Z"/><path class="cls-5" d="M70.94,153.84a163.68,163.68,0,0,1-18.8-12.79c-1.19-1-3.48-4.22-5.68-5.36-1.83-.95-3.94-.94-4.65.38a3.14,3.14,0,0,0,.42,2.92c1.77,3.23,4.48,5.82,7.15,8.35l4,3.81a30.29,30.29,0,0,0,3.49,3.11c2.39,1.73,5.74,3.89,7.93,5.86,2,1.78,3.5,3.7,5.75,5.08,2,1.23,4.39,1.57,6.7,2,4.36.8,8.63,2,12.89,3.25,4.06,1.16,8.18,2.35,11.78,4.57,2.42,1.48,4.64,3.44,7.39,4.12,1.74.43,5.29-.64,7-1.08,4.39-1.11,12.11-.88,19.74-.54"/><path class="cls-5" d="M82.21,157.92a33.1,33.1,0,0,0-15-6.36"/><path class="cls-8" d="M40.08,137.44c-.1-.19-.74-1.05.55-1.49a1.28,1.28,0,0,1,1.59.54,23.3,23.3,0,0,1,2,3.57c.2.48.52,1.65.07,1.89C43.54,142.37,40.86,138.88,40.08,137.44Z"/><path class="cls-2" d="M53,68.18a.84.84,0,0,1,.46-1.09,21.51,21.51,0,0,1,7.68-1.24c-1.88,0-5.63-.18-7.73-1.15A.87.87,0,0,1,53,63.55a7.82,7.82,0,0,1,1.62-2.27,7.8,7.8,0,0,1-2.16,1.56.82.82,0,0,1-1.08-.41,22.1,22.1,0,0,1-1.34-7.68,23.28,23.28,0,0,1-1.26,7.65.83.83,0,0,1-1.1.47,7.73,7.73,0,0,1-2.21-1.59,7.88,7.88,0,0,1,1.63,2.29.85.85,0,0,1-.46,1.09c-2.2,1-5.77,1.19-7.7,1.19a23.49,23.49,0,0,1,7.66,1.25.83.83,0,0,1,.47,1.09,7.75,7.75,0,0,1-1.6,2.24,7.62,7.62,0,0,1,2.24-1.6.83.83,0,0,1,1.09.46A23.34,23.34,0,0,1,50.05,77a22.8,22.8,0,0,1,1.21-7.69.83.83,0,0,1,1.09-.46,7.62,7.62,0,0,1,2.28,1.62A7.83,7.83,0,0,1,53,68.18Z"/><path class="cls-2" d="M55.56,98.76c-3.85.19-4,.35-4.06,6.56-.12-6.21-.22-6.37-4.06-6.56,3.84-.19,3.94-.34,4.06-6.56C51.61,98.42,51.71,98.57,55.56,98.76Z"/><circle class="cls-3" cx="42.19" cy="90.56" r="0.34"/><circle class="cls-3" cx="61.74" cy="60" r="0.34"/><circle class="cls-3" cx="43.85" cy="84.2" r="0.65"/><path class="cls-3" d="M63.7,54.65a.65.65,0,1,1-.65-.65A.65.65,0,0,1,63.7,54.65Z"/><path class="cls-1" d="M65,80.53c-1.35,0-1.43.11-1.43,1.42,0-1.32-.07-1.42-1.42-1.42,1.35,0,1.37-.09,1.42-1.42C63.62,80.43,63.67,80.53,65,80.53Z"/><path class="cls-1" d="M82.29,55.08c-1.35,0-1.42.12-1.42,1.42,0-1.32-.07-1.42-1.42-1.42,1.35,0,1.37-.09,1.42-1.42C80.89,55,80.94,55.08,82.29,55.08Z"/><path class="cls-9" d="M133.39,161.15a.32.32,0,0,0,.34-.33.34.34,0,1,0-.34.33Z"/><path class="cls-9" d="M113.39,160.91a.34.34,0,1,0-.33-.34A.35.35,0,0,0,113.39,160.91Z"/><path class="cls-9" d="M129.74,172.94a.35.35,0,0,0,.34-.34.34.34,0,0,0-.67,0A.35.35,0,0,0,129.74,172.94Z"/><path class="cls-9" d="M92.75,164a.33.33,0,0,0,.34-.33.33.33,0,0,0-.33-.33.33.33,0,0,0-.34.33A.33.33,0,0,0,92.75,164Z"/><path class="cls-9" d="M28.71,144.75a.33.33,0,0,0,.33-.33.34.34,0,1,0-.33.33Z"/><path class="cls-9" d="M20.06,143.08a.35.35,0,0,0,.34-.33.34.34,0,0,0-.34-.34.34.34,0,0,0,0,.67Z"/><path class="cls-9" d="M41.36,148.56a.33.33,0,0,0,.33-.33.33.33,0,1,0-.66,0A.33.33,0,0,0,41.36,148.56Z"/><path class="cls-9" d="M30.29,130.05a.33.33,0,0,0,.34-.33.33.33,0,0,0-.33-.33.32.32,0,0,0-.34.33A.33.33,0,0,0,30.29,130.05Z"/><path class="cls-9" d="M63.48,121.78a.33.33,0,0,0,.34-.33.33.33,0,0,0-.33-.33.33.33,0,0,0-.34.33A.33.33,0,0,0,63.48,121.78Z"/><path class="cls-9" d="M37.73,137.4a.33.33,0,0,0,.33-.33.32.32,0,0,0-.33-.34.33.33,0,0,0-.33.33A.35.35,0,0,0,37.73,137.4Z"/><path class="cls-9" d="M69.57,157.1a.33.33,0,0,0,.33-.33.33.33,0,0,0-.33-.34.33.33,0,0,0-.33.33A.33.33,0,0,0,69.57,157.1Z"/><path class="cls-9" d="M85.4,166.44a.33.33,0,0,0,.34-.33.33.33,0,0,0-.33-.33.33.33,0,0,0-.34.33A.33.33,0,0,0,85.4,166.44Z"/><path class="cls-9" d="M62.08,154.48a.33.33,0,1,0,0-.66.33.33,0,1,0,0,.66Z"/><path class="cls-9" d="M68.73,127.73a.33.33,0,0,0,.33-.33.33.33,0,0,0-.33-.34.33.33,0,0,0-.33.33A.32.32,0,0,0,68.73,127.73Z"/><path class="cls-9" d="M51.49,145.86a.33.33,0,0,0,.34-.33.34.34,0,1,0-.34.33Z"/><path class="cls-9" d="M59.42,149.79a.34.34,0,0,0,.33-.34.32.32,0,0,0-.33-.33.33.33,0,0,0-.33.33A.34.34,0,0,0,59.42,149.79Z"/><path class="cls-9" d="M97,156.86a.33.33,0,0,0,.33-.33.33.33,0,0,0-.33-.34.33.33,0,0,0-.33.33A.32.32,0,0,0,97,156.86Z"/><path class="cls-9" d="M77.94,157.48a.34.34,0,0,0,.34-.33.35.35,0,0,0-.33-.34.34.34,0,0,0-.34.34A.33.33,0,0,0,77.94,157.48Z"/><path class="cls-9" d="M109.57,172.06a.34.34,0,0,0,0-.67.35.35,0,0,0-.34.33A.34.34,0,0,0,109.57,172.06Z"/><path class="cls-9" d="M126,172.94a.35.35,0,0,0,.34-.34.34.34,0,0,0-.67,0A.35.35,0,0,0,126,172.94Z"/><path class="cls-9" d="M99.52,170.72a.34.34,0,1,0-.33-.34A.34.34,0,0,0,99.52,170.72Z"/><path class="cls-9" d="M128.46,162.42a.2.2,0,0,0,.2-.21.2.2,0,0,0-.2-.2.2.2,0,0,0-.21.2A.21.21,0,0,0,128.46,162.42Z"/><path class="cls-9" d="M102.39,159.8a.22.22,0,0,0,.21-.2.21.21,0,1,0-.42,0A.2.2,0,0,0,102.39,159.8Z"/><path class="cls-9" d="M121,160a.2.2,0,0,0,.2-.2.2.2,0,0,0-.2-.21.21.21,0,0,0-.21.2A.21.21,0,0,0,121,160Z"/><path class="cls-9" d="M110.29,162.17a.21.21,0,1,0-.2-.21A.2.2,0,0,0,110.29,162.17Z"/><path class="cls-9" d="M88.16,165a.22.22,0,0,0,.21-.21.23.23,0,0,0-.21-.21.22.22,0,0,0-.21.21A.21.21,0,0,0,88.16,165Z"/><path class="cls-9" d="M89.42,158.5a.21.21,0,1,0,0-.41.21.21,0,0,0-.21.21A.2.2,0,0,0,89.42,158.5Z"/><path class="cls-9" d="M94.1,169.12a.21.21,0,1,0-.2-.21A.2.2,0,0,0,94.1,169.12Z"/><path class="cls-9" d="M104.16,166.23a.2.2,0,0,0,.2-.2.2.2,0,0,0-.2-.21.21.21,0,0,0-.21.2A.21.21,0,0,0,104.16,166.23Z"/><path class="cls-9" d="M46.46,138.92a.2.2,0,0,0,.21-.2.21.21,0,0,0-.21-.21.2.2,0,0,0-.2.2A.2.2,0,0,0,46.46,138.92Z"/><path class="cls-9" d="M23.65,123.06a.2.2,0,0,0,.2-.2.21.21,0,1,0-.41,0A.21.21,0,0,0,23.65,123.06Z"/><path class="cls-9" d="M44.56,145.44a.2.2,0,0,0,.2-.2.21.21,0,1,0-.41,0A.21.21,0,0,0,44.56,145.44Z"/><path class="cls-9" d="M54.41,150a.21.21,0,0,0,.21-.2.21.21,0,0,0-.21-.21.2.2,0,0,0-.2.2A.2.2,0,0,0,54.41,150Z"/><path class="cls-9" d="M24.63,145.35a.21.21,0,0,0,.21-.2.22.22,0,0,0-.21-.21.21.21,0,0,0-.21.21A.2.2,0,0,0,24.63,145.35Z"/><path class="cls-9" d="M30.29,132.38a.21.21,0,0,0,.21-.21.2.2,0,0,0-.2-.2.2.2,0,0,0-.21.2A.21.21,0,0,0,30.29,132.38Z"/><path class="cls-9" d="M78.44,165.61a.2.2,0,0,0,.2-.21.2.2,0,0,0-.2-.2.2.2,0,0,0-.21.2A.21.21,0,0,0,78.44,165.61Z"/><path class="cls-9" d="M64.53,153.68a.21.21,0,1,0-.21-.21A.22.22,0,0,0,64.53,153.68Z"/><path class="cls-9" d="M34.16,143.85a.2.2,0,0,0,.21-.2.21.21,0,0,0-.2-.21.21.21,0,0,0-.21.21A.2.2,0,0,0,34.16,143.85Z"/><path class="cls-9" d="M39.83,142.62a.21.21,0,0,0,.21-.21.2.2,0,0,0-.21-.2.2.2,0,0,0-.2.2A.2.2,0,0,0,39.83,142.62Z"/><path class="cls-9" d="M39.44,147.49a.21.21,0,0,0,.21-.2.21.21,0,0,0-.21-.21.2.2,0,0,0-.2.2A.2.2,0,0,0,39.44,147.49Z"/><path class="cls-9" d="M71.19,129.15a.2.2,0,0,0,.21-.2.21.21,0,0,0-.2-.21A.21.21,0,0,0,71,129,.2.2,0,0,0,71.19,129.15Z"/><path class="cls-9" d="M63.15,124.79a.2.2,0,0,0,.21-.2.21.21,0,0,0-.21-.21.2.2,0,0,0-.2.21A.2.2,0,0,0,63.15,124.79Z"/><path class="cls-9" d="M132.56,174.88a.21.21,0,0,0,.21-.21.2.2,0,0,0-.2-.2.2.2,0,0,0-.21.2A.21.21,0,0,0,132.56,174.88Z"/><path class="cls-9" d="M123,170.51a.2.2,0,0,0,.21-.2.21.21,0,0,0-.2-.21.21.21,0,0,0-.21.21A.2.2,0,0,0,123,170.51Z"/><path class="cls-9" d="M102.18,154.15a.21.21,0,1,0-.2-.21A.2.2,0,0,0,102.18,154.15Z"/><path class="cls-9" d="M112.38,170.08a.21.21,0,0,0,.21-.21.2.2,0,0,0-.21-.2.2.2,0,0,0-.2.2A.2.2,0,0,0,112.38,170.08Z"/><path class="cls-9" d="M129.11,167.09a.63.63,0,0,0,.63-.63.63.63,0,0,0-1.26,0A.64.64,0,0,0,129.11,167.09Z"/><path class="cls-9" d="M113.82,174.86a.64.64,0,0,0,.64-.63.63.63,0,0,0-.63-.63.63.63,0,1,0,0,1.26Z"/><path class="cls-9" d="M78.46,160.94a.64.64,0,0,0,0-1.27.64.64,0,0,0-.64.63A.64.64,0,0,0,78.46,160.94Z"/><path class="cls-9" d="M104.37,156.38a.62.62,0,0,0,.63-.62.63.63,0,1,0-1.26,0A.63.63,0,0,0,104.37,156.38Z"/><path class="cls-9" d="M116.64,131a.34.34,0,0,0,0-.67.35.35,0,0,0-.34.33A.34.34,0,0,0,116.64,131Z"/><path class="cls-9" d="M113.39,139.05a.34.34,0,1,0-.33-.34A.34.34,0,0,0,113.39,139.05Z"/><path class="cls-9" d="M127,101.69a.33.33,0,0,0,.33-.33.34.34,0,1,0-.67,0A.34.34,0,0,0,127,101.69Z"/><path class="cls-9" d="M34.7,107.67a.33.33,0,0,0,.34-.33.33.33,0,0,0-.33-.33.32.32,0,0,0-.34.33A.33.33,0,0,0,34.7,107.67Z"/><path class="cls-9" d="M97.35,140.66a.32.32,0,0,0,.34-.33.33.33,0,0,0-.33-.33.33.33,0,0,0-.34.33A.33.33,0,0,0,97.35,140.66Z"/><path class="cls-9" d="M64.73,138.39a.34.34,0,0,0,.34-.33.34.34,0,1,0-.34.33Z"/><path class="cls-9" d="M69.36,146.2a.34.34,0,0,0,.34-.33.35.35,0,0,0-.33-.34.34.34,0,0,0-.34.34A.33.33,0,0,0,69.36,146.2Z"/><path class="cls-9" d="M81,136.62a.34.34,0,0,0,0-.67.35.35,0,0,0-.34.33A.34.34,0,0,0,81,136.62Z"/><path class="cls-9" d="M56.88,131.4a.34.34,0,0,0,0-.67.34.34,0,0,0-.34.33A.34.34,0,0,0,56.88,131.4Z"/><path class="cls-9" d="M83.48,150.48a.34.34,0,1,0-.33-.34A.34.34,0,0,0,83.48,150.48Z"/><path class="cls-9" d="M111.71,132.24a.2.2,0,0,0,.2-.2.2.2,0,0,0-.2-.21.21.21,0,0,0-.21.21A.2.2,0,0,0,111.71,132.24Z"/><path class="cls-9" d="M97.69,134.11a.2.2,0,0,0,.2-.2.21.21,0,1,0-.41,0A.2.2,0,0,0,97.69,134.11Z"/><path class="cls-9" d="M123,123.27a.21.21,0,0,0,.21-.21.2.2,0,0,0-.2-.2.2.2,0,0,0-.21.2A.21.21,0,0,0,123,123.27Z"/><path class="cls-9" d="M120.77,116.29a.21.21,0,0,0,.21-.2.21.21,0,0,0-.21-.21.2.2,0,0,0-.2.2A.2.2,0,0,0,120.77,116.29Z"/><path class="cls-9" d="M86.35,139.56a.2.2,0,0,0,.2-.2.2.2,0,0,0-.2-.21.21.21,0,0,0-.21.2A.21.21,0,0,0,86.35,139.56Z"/><path class="cls-9" d="M104.23,129.83a.2.2,0,0,0,.2-.2.2.2,0,0,0-.2-.21.21.21,0,0,0-.21.21A.2.2,0,0,0,104.23,129.83Z"/><path class="cls-9" d="M94.25,141.93a.21.21,0,0,0,.21-.21.2.2,0,0,0-.2-.2.2.2,0,0,0-.21.2A.21.21,0,0,0,94.25,141.93Z"/><path class="cls-9" d="M72.12,144.78a.2.2,0,0,0,.2-.2.2.2,0,0,0-.2-.21.21.21,0,0,0-.21.21A.2.2,0,0,0,72.12,144.78Z"/><path class="cls-9" d="M73.38,138.26a.2.2,0,0,0,.21-.2.21.21,0,0,0-.21-.21.2.2,0,0,0-.2.2A.2.2,0,0,0,73.38,138.26Z"/><path class="cls-9" d="M39,127.94a.22.22,0,0,0,.21-.21.21.21,0,0,0-.21-.21.2.2,0,0,0-.2.21A.21.21,0,0,0,39,127.94Z"/><path class="cls-9" d="M113.82,122.82a.2.2,0,0,0,.21-.2.21.21,0,0,0-.2-.21.21.21,0,0,0-.21.21A.2.2,0,0,0,113.82,122.82Z"/><path class="cls-9" d="M78.06,148.88a.21.21,0,1,0-.2-.21A.2.2,0,0,0,78.06,148.88Z"/><path class="cls-9" d="M88.12,146a.2.2,0,0,0,.2-.21.2.2,0,0,0-.2-.2.21.21,0,0,0-.21.2A.21.21,0,0,0,88.12,146Z"/><path class="cls-9" d="M62.39,145.37a.21.21,0,0,0,.21-.21.22.22,0,0,0-.2-.21.21.21,0,0,0,0,.42Z"/><path class="cls-9" d="M106.26,140.34a.21.21,0,0,0,.21-.21.2.2,0,0,0-.2-.2.2.2,0,0,0-.21.2A.21.21,0,0,0,106.26,140.34Z"/><path class="cls-9" d="M86.14,133.91a.21.21,0,0,0,.21-.21.2.2,0,0,0-.21-.2.19.19,0,0,0-.2.2A.21.21,0,0,0,86.14,133.91Z"/><path class="cls-9" d="M34.37,97.77a.34.34,0,1,0-.33-.33A.33.33,0,0,0,34.37,97.77Z"/><path class="cls-9" d="M38.08,119.73a.33.33,0,0,0,.33-.33.33.33,0,0,0-.33-.34.33.33,0,0,0-.33.33A.32.32,0,0,0,38.08,119.73Z"/><path class="cls-9" d="M43.43,122.67a.2.2,0,0,0,.21-.2.21.21,0,0,0-.21-.21.22.22,0,0,0-.21.21A.21.21,0,0,0,43.43,122.67Z"/><path class="cls-9" d="M35,101.9a.2.2,0,0,0,.2-.21.2.2,0,0,0-.2-.2.2.2,0,0,0-.21.2A.21.21,0,0,0,35,101.9Z"/><path class="cls-9" d="M51.33,125a.21.21,0,1,0-.2-.21A.2.2,0,0,0,51.33,125Z"/><path class="cls-9" d="M45.2,129.1a.2.2,0,0,0,.2-.2.2.2,0,0,0-.2-.21.21.21,0,0,0-.21.2A.21.21,0,0,0,45.2,129.1Z"/><path class="cls-9" d="M43.22,117a.21.21,0,1,0-.2-.21A.2.2,0,0,0,43.22,117Z"/><path class="cls-9" d="M96.34,149.84a.21.21,0,0,0,.21-.21.22.22,0,0,0-.21-.21.21.21,0,0,0-.2.21A.2.2,0,0,0,96.34,149.84Z"/><path class="cls-9" d="M55.55,139.78a.63.63,0,1,0,0-1.26.63.63,0,0,0-.63.63A.62.62,0,0,0,55.55,139.78Z"/><path class="cls-9" d="M109.23,128.68a.63.63,0,1,0-.63-.63A.63.63,0,0,0,109.23,128.68Z"/><path class="cls-9" d="M126.32,111.86a.64.64,0,0,0,.64-.63.64.64,0,0,0-1.27,0A.64.64,0,0,0,126.32,111.86Z"/><path class="cls-9" d="M41.58,117.47a.64.64,0,0,0,.64-.63.64.64,0,0,0-.63-.64.64.64,0,0,0,0,1.27Z"/><path class="cls-9" d="M60.05,121.5a.63.63,0,0,0,.63-.63.62.62,0,0,0-.62-.63.63.63,0,1,0,0,1.26Z"/></svg>