<svg id="Layer_2" data-name="Layer 2" xmlns="http://www.w3.org/2000/svg" viewBox="0 0 159.48 229.42"><defs><style>.cls-1,.cls-3,.cls-7{fill:none;}.cls-1,.cls-5{stroke:#151515;}.cls-1,.cls-3,.cls-4,.cls-5{stroke-linecap:round;stroke-linejoin:round;}.cls-1,.cls-3,.cls-4,.cls-5,.cls-7{stroke-width:0.7px;}.cls-2,.cls-4{fill:#151515;}.cls-3,.cls-4,.cls-7{stroke:#fff;}.cls-5,.cls-6{fill:#fff;}.cls-7{stroke-miterlimit:10;}</style></defs><path class="cls-1" d="M92.16,111.5q2.91,1.88,5.54,3.83"/><path class="cls-1" d="M120.79,111.87c-.41,4.23-1.84,7.26-3.87,7.5-2.93.35-6-5.21-6.86-12.42s.83-13.33,3.76-13.68c2.63-.31,5.38,4.14,6.53,10.27"/><path class="cls-1" d="M105.48,121.92c8.38,8.12,12.35,16.23,9.52,21.43-4.58,8.43-25.26,6-46.18-5.34s-34.17-27.43-29.59-35.86c2.29-4.21,8.6-5.72,17-4.75"/><path class="cls-1" d="M87.31,155.31c12.14,1,20.63,4.34,21.08,9.09.65,6.89-16,14.11-37.08,16.11s-38.79-2-39.45-8.86c-.45-4.79,7.41-9.73,19.32-13"/><path class="cls-2" d="M125.24,105.69a3.73,3.73,0,0,0-3.89-2.34c-1.63.13-3.55,1.27-4.95,2.12-1.84,1.12-7.59,4.08-9.63,4.9A23.12,23.12,0,0,0,103.6,112q-5.49,3.23-11.24,6l-.06-.17c-3.18-1.88-1.22-4.71.45-7.3,2.41-3.72,4.78-7.93,6.76-9.15,3.5-2.16,7.18-3.1,11.63-5.13,2.22-1,7.92-1,10.91-2.42,2.55-1.23,3.64-5.32,1.28-6.1-4.37-1.45-7.85-.57-14-.17a21.24,21.24,0,0,0-3.87.7c-4.36,1.28-11.31,3.52-13.44,5-2.73,1.91-7.1,7.63-11.73,13.66h0c3-5.19,6.66-12.73,9.84-14.9a67.61,67.61,0,0,1,10.53-6,16.46,16.46,0,0,1,4.8-1,25.66,25.66,0,0,0,6.46-1c3.2-1.11,3.53-4.32,2.63-5.62-1.18-1.69-4.65-1-8.18-1.51a19,19,0,0,0-6.55,0c-2.14.34-4.57,1.69-12.09,4.59a49.65,49.65,0,0,0-6,2.22A10.54,10.54,0,0,0,78.64,87c-2.14,3.07-4.27,6.16-6.39,9.23v-.06c.4-3,.86-8.24,1.33-10.11.68-2.7,2-5.47,4-9.73C79.27,72.61,80.94,67.45,83,64c1.55-2.6,3.33-5.54,2.49-8.44A3,3,0,0,0,83,53.19c-1,0-2.16,1.48-2.77,2.21-2.43,2.93-3.66,2.73-5.26,5.44-1.37,2.3-3.32,6.58-4.62,8.91C67.78,74.35,63.74,81,63,83.45c-.49,1.57-1.89,13.66-5.7,23.37a36.21,36.21,0,0,0-1.77,4.93,29.21,29.21,0,0,0-.45,6.73c.11,22.9-4.53,48.75-11.32,70.62,0,0,2.19,3,10.85,4.93a29.09,29.09,0,0,0,12.73.24c1.73-5.42,2.26-7,4.57-11C75.54,177,82.15,172.6,85,165.9c1.31-3.1,1.71-6.51,2.26-9.84a99,99,0,0,1,4.92-18.46,28.36,28.36,0,0,1,4.29-8.21A32.91,32.91,0,0,1,103,123.8c2.57-1.84,5-3.65,7.53-5.36,1.7-1.16,3.79-2.78,5.62-3.83a67.28,67.28,0,0,0,6.17-3.67,9.29,9.29,0,0,0,2.34-2.17A3.72,3.72,0,0,0,125.24,105.69Z"/><path class="cls-1" d="M85.69,57.57C94.86,61,101,66.37,99.83,70.49,98.52,75.18,88.3,76.42,77,73.27S57.6,63.75,58.91,59.06c1.18-4.24,9.67-5.66,19.65-3.55"/><path class="cls-2" d="M56,87.76a4,4,0,0,1,.41-2.62,3.69,3.69,0,0,1,3-1.16c1,0,1.89,1.27,2,1.9Z"/><path class="cls-2" d="M56.71,108.15A49.48,49.48,0,0,0,56,93.73a13.23,13.23,0,0,1-.14-5.67c.51-1.7,3.9-4.21,6.39-1.43C62.24,86.63,61.05,99.32,56.71,108.15Z"/><path class="cls-3" d="M43.72,189.1c6.79-21.87,11.43-47.72,11.32-70.62a29.21,29.21,0,0,1,.45-6.73,36.21,36.21,0,0,1,1.77-4.93C61.07,97.11,62.47,85,63,83.45c.78-2.48,4.82-9.1,7.38-13.7,1.3-2.33,3.25-6.61,4.62-8.91,1.6-2.71,2.83-2.51,5.26-5.44.61-.73,1.81-2.23,2.77-2.21a3,3,0,0,1,2.51,2.35c.84,2.9-.94,5.84-2.49,8.44-2.07,3.47-3.74,8.63-5.42,12.3-2,4.26-3.32,7-4,9.73-.47,1.87-.93,7.09-1.33,10.11"/><path class="cls-4" d="M77.59,57c.67-1.13,1.75-2.63,2.19-3.27.58-.85,1.39-1.74,2.41-1.68a2.78,2.78,0,0,1,1.31.42,1.34,1.34,0,0,1,.59.61,1,1,0,0,1-.06.59,22.14,22.14,0,0,1-2.67,3.57C80.17,58.57,79.3,59,78.44,58.9,78.11,58.86,76.49,58.88,77.59,57Z"/><path class="cls-3" d="M67.3,194.27c1.73-5.42,2.26-7,4.57-11C75.5,177,82.11,172.6,84.93,165.9c1.31-3.1,1.71-6.51,2.26-9.84a99,99,0,0,1,4.92-18.46,28.36,28.36,0,0,1,4.29-8.21,32.91,32.91,0,0,1,6.53-5.59c2.57-1.84,5-3.65,7.53-5.36,1.7-1.16,3.79-2.78,5.62-3.83a67.28,67.28,0,0,0,6.17-3.67,9.29,9.29,0,0,0,2.34-2.17,3.32,3.32,0,0,0-3.24-5.38c-1.63.13-3.55,1.27-4.95,2.12-1.84,1.12-7.59,4.08-9.63,4.9A24.07,24.07,0,0,0,103.6,112a156.11,156.11,0,0,1-14,7.29"/><path class="cls-3" d="M59.52,120.32c.26-3.08.22-6.31,2.3-9.22C67.52,103.11,73,95,78.64,87a10.55,10.55,0,0,1,3.14-3.34,49.65,49.65,0,0,1,6-2.22c7.52-2.9,10-4.25,12.09-4.59a19,19,0,0,1,6.55,0c3.53.55,7-.18,8.18,1.51.9,1.3.57,4.51-2.63,5.62a25.66,25.66,0,0,1-6.46,1,16.74,16.74,0,0,0-4.84,1.08,67.61,67.61,0,0,0-10.53,6C87,94.23,83.27,101.77,80.3,107"/><path class="cls-3" d="M68.6,124.84a12.45,12.45,0,0,1,3.28-7.36C79,109.22,87.59,96.38,92,93.31c2.13-1.48,9.08-3.72,13.44-5a21.24,21.24,0,0,1,3.87-.7c6.19-.4,9.67-1.28,14,.17,2.36.78,1.27,4.87-1.28,6.1-3,1.42-8.69,1.41-10.91,2.42-4.45,2-8.13,3-11.63,5.13-2,1.22-4.35,5.43-6.76,9.15-1.67,2.59-3.63,5.42-.45,7.3"/><path class="cls-3" d="M56.71,108.15A49.48,49.48,0,0,0,56,93.73a13.23,13.23,0,0,1-.14-5.67c.51-1.7,3.9-4.21,6.39-1.43"/><path class="cls-4" d="M111.37,79.94c2,.26,2.3-.31,2.5-.89s.45-1.58,0-2a1.91,1.91,0,0,0-.59-.29c-.86-.3-7.7-1-7.9-.1C105,78.54,107.84,79.49,111.37,79.94Z"/><path class="cls-4" d="M121.33,89.93c2,.08,2.29-.52,2.45-1.13s.34-1.65-.17-2a1.93,1.93,0,0,0-.62-.23c-.88-.24-7.81-.22-7.93.59C114.78,89.08,117.76,89.79,121.33,89.93Z"/><path class="cls-4" d="M120.18,107.35a1.85,1.85,0,0,1-.11-1.75,3.18,3.18,0,0,1,1-1,15.63,15.63,0,0,1,1.9-1.1,3.12,3.12,0,0,1,2-.42,2.45,2.45,0,0,1,1.64,1.67,1.48,1.48,0,0,1-.06,1.37,15.9,15.9,0,0,1-4.66,2.28A1.83,1.83,0,0,1,120.18,107.35Z"/><path class="cls-3" d="M56,87.76a4,4,0,0,1,.41-2.62,3.69,3.69,0,0,1,3-1.16c1,0,1.89,1.27,2,1.9"/><path class="cls-5" d="M67.61,135.75a2.43,2.43,0,1,1-2.24-2.61h0A2.44,2.44,0,0,1,67.61,135.75Z"/><path class="cls-5" d="M42.14,163.26a1.71,1.71,0,1,1-1.58-1.84,1.71,1.71,0,0,1,1.58,1.84Z"/><path class="cls-5" d="M83.76,38.3c1.37,0,4.08.3,5,1.34s1,3.61.95,4.89c0-1.32.37-4.05,1.24-4.91s3.65-1.07,5-1c-1.3,0-3.94-.25-4.88-1.21S90,33.7,90,32.35c0,1.42-.43,4.14-1.42,5.07S85,38.33,83.76,38.3Z"/><circle class="cls-5" cx="58.7" cy="59.59" r="1.9"/><path class="cls-5" d="M86.65,176.19a6.37,6.37,0,1,0,5.7-7,6.37,6.37,0,0,0-5.7,7Z"/><path class="cls-1" d="M97.85,171.44a3.8,3.8,0,0,0-3.1,1.18c-.64.82-.81,1.57-.59,3.75.25,2.41-.26,4.33-2.49,5.41"/><path class="cls-1" d="M96.73,170.39a4.37,4.37,0,0,0-4.92,3.74s0,.05,0,.08c-.43,2.34-.78,5-3.72,5.4"/><path class="cls-1" d="M88.12,171.44S91,174.85,87,177.83"/><path class="cls-1" d="M99.07,173.67s-3.85,1.6-1.12,5.87"/><path class="cls-2" d="M43.44,84.84a.35.35,0,1,0,.7-.06.35.35,0,0,0-.38-.32h0A.35.35,0,0,0,43.44,84.84Z"/><path class="cls-2" d="M125.12,127.05a.34.34,0,0,0,.34.36.35.35,0,0,0,.36-.34.28.28,0,0,0,0-.09.34.34,0,0,0-.38-.3h0a.33.33,0,0,0-.31.35Z"/><path class="cls-2" d="M102.3,137.67a.35.35,0,1,0,.27-.33A.35.35,0,0,0,102.3,137.67Z"/><path class="cls-2" d="M44.41,70.83a.64.64,0,0,0,.69.58h0a.65.65,0,1,0-.71-.58Z"/><path class="cls-2" d="M97.93,55.62a.65.65,0,1,0,.58-.72.65.65,0,0,0-.58.72Z"/><path class="cls-2" d="M37.18,131a.65.65,0,1,0,.58-.71h0a.64.64,0,0,0-.58.69Z"/><path class="cls-2" d="M119.76,156.68a.64.64,0,0,0,.69.58h0a.65.65,0,0,0,0-1.3h-.09a.64.64,0,0,0-.58.69Z"/><path class="cls-6" d="M73.54,165.23a.35.35,0,0,0,.7-.06.35.35,0,0,0-.38-.32h0A.35.35,0,0,0,73.54,165.23Z"/><path class="cls-6" d="M71.56,144.65a.35.35,0,1,0,.69-.07.35.35,0,0,0-.69.07Z"/><path class="cls-6" d="M76.9,172.17a.34.34,0,0,0,.38.3h0a.33.33,0,0,0,.31-.35v0a.35.35,0,0,0-.69.07Z"/><path class="cls-6" d="M67,175.58a.35.35,0,0,0,.37.33.36.36,0,0,0,.33-.37.35.35,0,0,0-.37-.33h0a.34.34,0,0,0-.31.37Z"/><path class="cls-6" d="M57.07,155.35a.34.34,0,0,0,.38.3h0a.33.33,0,0,0,.31-.35v0a.35.35,0,0,0-.69.07Z"/><path class="cls-6" d="M49.28,185.37a.35.35,0,0,0,.38.31.34.34,0,0,0,.3-.38h0a.35.35,0,0,0-.38-.31A.35.35,0,0,0,49.28,185.37Z"/><path class="cls-6" d="M54.23,171.48a.34.34,0,0,0,.37.31h0a.35.35,0,0,0,.31-.38.34.34,0,0,0-.37-.31h0A.35.35,0,0,0,54.23,171.48Z"/><path class="cls-6" d="M64.37,190.82a.35.35,0,0,0,.38.3.34.34,0,0,0,.31-.37h0a.35.35,0,0,0-.69.07Z"/><path class="cls-6" d="M76.77,121.52a.35.35,0,1,0,.69-.07.35.35,0,0,0-.69.07Z"/><path class="cls-6" d="M69.49,84.84a.34.34,0,0,0,.68-.07.33.33,0,0,0-.35-.31h0A.35.35,0,0,0,69.49,84.84Z"/><path class="cls-6" d="M58.3,95.22a.35.35,0,0,0,.37.31.35.35,0,1,0-.07-.69.34.34,0,0,0-.3.38Z"/><path class="cls-6" d="M81.65,60a.35.35,0,1,0,.7-.06.35.35,0,0,0-.38-.32h0A.35.35,0,0,0,81.65,60Z"/><path class="cls-6" d="M92.59,99.65a.35.35,0,1,0,.7-.06.35.35,0,0,0-.38-.32h0A.35.35,0,0,0,92.59,99.65Z"/><path class="cls-6" d="M105,93.29a.35.35,0,1,0,.7-.06.35.35,0,0,0-.38-.32h0A.35.35,0,0,0,105,93.29Z"/><path class="cls-6" d="M102.43,80a.35.35,0,1,0,.7-.06.35.35,0,0,0-.38-.32h0A.35.35,0,0,0,102.43,80Z"/><path class="cls-6" d="M91.33,126.71a.34.34,0,0,0,.38.3.33.33,0,0,0,.3-.37h0a.34.34,0,0,0-.37-.31h0A.35.35,0,0,0,91.33,126.71Z"/><path class="cls-6" d="M73.89,127.4a.34.34,0,0,0,.37.3.33.33,0,0,0,.31-.35v0a.34.34,0,0,0-.38-.3A.33.33,0,0,0,73.89,127.4Z"/><path class="cls-6" d="M101.61,116.6a.35.35,0,0,0,.7-.06.35.35,0,0,0-.38-.32h0A.35.35,0,0,0,101.61,116.6Z"/><path class="cls-6" d="M119.55,109.74a.34.34,0,0,0,.38.3h0a.33.33,0,0,0,.31-.35v0a.35.35,0,0,0-.69.07Z"/><path class="cls-6" d="M72.12,107.74a.34.34,0,0,0,.37.31h0a.35.35,0,0,0,.31-.38.34.34,0,0,0-.37-.3.33.33,0,0,0-.31.35Z"/><path class="cls-6" d="M58.57,142a.35.35,0,1,0,.69-.07.35.35,0,0,0-.69.07Z"/><path class="cls-6" d="M71.69,160.29a.21.21,0,0,0,.23.19h0a.19.19,0,0,0,.19-.21v0a.21.21,0,0,0-.23-.19h0a.21.21,0,0,0-.19.23Z"/><path class="cls-6" d="M62.55,185.36a.22.22,0,0,0,.26.17.23.23,0,0,0,.17-.17.21.21,0,0,0-.23-.19h0A.21.21,0,0,0,62.55,185.36Z"/><path class="cls-6" d="M87,133.37a.21.21,0,0,0,.23.19h0a.21.21,0,0,0,.19-.23.21.21,0,1,0-.42,0Z"/><path class="cls-6" d="M87.25,140.32a.21.21,0,0,0,.23.19h0a.21.21,0,0,0,.19-.23h0a.22.22,0,0,0-.26-.17.23.23,0,0,0-.17.17Z"/><path class="cls-6" d="M83.45,150.51a.22.22,0,0,0,.24.19.21.21,0,0,0,.26-.17.22.22,0,0,0-.17-.26.14.14,0,0,0-.09,0,.23.23,0,0,0-.24.22Z"/><path class="cls-6" d="M73.33,152.34a.21.21,0,0,0,.23.19h0a.21.21,0,0,0,.19-.23.21.21,0,1,0-.42,0Z"/><path class="cls-6" d="M69.92,141.61a.21.21,0,0,0,.23.19h0a.21.21,0,0,0,0-.42h0a.2.2,0,0,0-.23.16Z"/><path class="cls-6" d="M54.7,185a.22.22,0,0,0,.24.19.22.22,0,0,0,.17-.26.23.23,0,0,0-.17-.17.22.22,0,0,0-.24.2Z"/><path class="cls-6" d="M94.55,121.17a.21.21,0,0,0,.23.19h0a.22.22,0,0,0,.17-.26.23.23,0,0,0-.17-.17.22.22,0,0,0-.23.21Z"/><path class="cls-6" d="M64.5,119.19a.22.22,0,0,0,.24.19.21.21,0,0,0,.19-.23h0a.22.22,0,0,0-.24-.19.21.21,0,0,0-.19.23Z"/><path class="cls-6" d="M78.5,163.15a.22.22,0,0,0,.26.17.23.23,0,0,0,.17-.17.22.22,0,0,0-.26-.17A.23.23,0,0,0,78.5,163.15Z"/><path class="cls-6" d="M59.85,124.86a.21.21,0,0,0,.23.19h0a.21.21,0,0,0,.19-.23h0a.19.19,0,0,0-.21-.19h0a.19.19,0,0,0-.19.21Z"/><path class="cls-6" d="M102.78,119.4a.19.19,0,0,0,.21.19h0a.21.21,0,0,0,.19-.23h0a.21.21,0,0,0-.23-.19h0a.19.19,0,0,0-.19.21Z"/><path class="cls-6" d="M111.47,90a.22.22,0,0,0,.24.2.23.23,0,0,0,.2-.24.22.22,0,0,0-.24-.2h0A.22.22,0,0,0,111.47,90Z"/><path class="cls-6" d="M73.33,101.35a.21.21,0,1,0,.21-.21.21.21,0,0,0-.21.21Z"/><path class="cls-6" d="M65.19,87a.21.21,0,0,0,.23.19h0a.21.21,0,0,0,0-.42h0a.21.21,0,0,0-.23.19Z"/><path class="cls-6" d="M58.77,91.47a.21.21,0,0,0,.23.19h0a.19.19,0,0,0,.19-.21v0a.19.19,0,0,0-.21-.19h0a.21.21,0,0,0-.19.23Z"/><path class="cls-6" d="M95,85.41a.22.22,0,1,0,.43,0,.21.21,0,0,0-.17-.26.22.22,0,0,0-.26.17.14.14,0,0,0,0,.09Z"/><path class="cls-6" d="M73.54,68.54a.21.21,0,0,0,.21.23.21.21,0,0,0,.23-.2.22.22,0,0,0,0-.08.22.22,0,0,0-.27-.15A.24.24,0,0,0,73.54,68.54Z"/><path class="cls-6" d="M83.24,115.36a.2.2,0,1,0,.23-.24.22.22,0,0,0-.23.21Z"/><path class="cls-6" d="M92.94,105.76a.21.21,0,0,0,.23.19.21.21,0,1,0,0-.42.21.21,0,0,0-.19.23Z"/><path class="cls-6" d="M98.88,79.68a.21.21,0,1,0,.42,0h0a.21.21,0,0,0-.23-.19h0A.21.21,0,0,0,98.88,79.68Z"/><path class="cls-6" d="M54.57,166.64a.21.21,0,0,0,.23.19h0a.19.19,0,0,0,.19-.21v0a.21.21,0,0,0-.42,0h0Z"/><path class="cls-6" d="M77.25,132.38a.21.21,0,0,0,.23.19h0a.21.21,0,0,0,0-.42h0a.2.2,0,0,0-.23.16Z"/><path class="cls-6" d="M87.25,88.22a.21.21,0,0,0,.17.26.22.22,0,0,0,.26-.17.14.14,0,0,0,0-.09.21.21,0,0,0-.17-.26.22.22,0,0,0-.26.17A.14.14,0,0,0,87.25,88.22Z"/><path class="cls-6" d="M62,144.64a.22.22,0,0,0,.24.19.23.23,0,0,0,.19-.23.22.22,0,0,0-.24-.2h0A.22.22,0,0,0,62,144.64Z"/><path class="cls-6" d="M67,161.48a.65.65,0,1,0,1.3,0,.28.28,0,0,0,0-.09.64.64,0,0,0-.69-.58h0A.65.65,0,0,0,67,161.48Z"/><path class="cls-6" d="M58.26,171.16a.67.67,0,0,0,.72.59.65.65,0,0,0,.58-.71h0a.64.64,0,0,0-.69-.58h0A.66.66,0,0,0,58.26,171.16Z"/><path class="cls-6" d="M90.37,103.11a.67.67,0,0,0,.72.59.66.66,0,0,0,.58-.72.67.67,0,0,0-.72-.59.65.65,0,0,0-.58.71Z"/><path class="cls-6" d="M67.62,108.77a.65.65,0,1,0,.58-.71h0a.64.64,0,0,0-.58.69Z"/><path class="cls-6" d="M90.68,87a.65.65,0,0,0,.7.59h0a.66.66,0,0,0-.13-1.31.66.66,0,0,0-.58.72Z"/><path class="cls-6" d="M81.35,144a.65.65,0,1,0,.58-.71h0a.64.64,0,0,0-.58.69Z"/><path class="cls-6" d="M79.67,121.9a.65.65,0,0,0,.71.58h0a.64.64,0,0,0,.58-.69v0a.65.65,0,0,0-.7-.59h0A.67.67,0,0,0,79.67,121.9Z"/><path class="cls-6" d="M67.62,93.32a.67.67,0,0,0,.72.59.66.66,0,0,0,.58-.72.65.65,0,0,0-.71-.58h0a.64.64,0,0,0-.58.69Z"/><path class="cls-6" d="M78.72,63.55a.64.64,0,0,0,.69.58h0a.65.65,0,1,0,0-1.3H79.3a.64.64,0,0,0-.58.69Z"/><path class="cls-6" d="M115.26,108.77a.65.65,0,1,0,.58-.71h0a.64.64,0,0,0-.58.69Z"/><path class="cls-5" d="M40.77,144.58c1.35,0,1.42.15,1.39,1.46,0-1.33.11-1.42,1.45-1.39-1.34,0-1.36-.12-1.38-1.45C42.17,144.52,42.12,144.61,40.77,144.58Z"/><path class="cls-5" d="M72,46c1.35,0,1.42.17,1.37,1.48,0-1.33.13-1.42,1.47-1.37-1.34,0-1.36-.14-1.36-1.47C73.44,45.93,73.39,46,72,46Z"/><path class="cls-5" d="M35.81,107.66c-2-1.21-5.77-1.45-7.81-1.43,2,0,6.11-.27,7.8-1.51a6.76,6.76,0,0,0-1.8-2.78,6.72,6.72,0,0,0,2.69,1.69c1.14-2,1.51-5.73,1.49-7.78,0,2,.46,5.89,1.58,7.77a6.74,6.74,0,0,0,2.72-1.76,6.71,6.71,0,0,0-1.73,2.79c1.91,1.23,5.81,1.42,7.82,1.4-2,0-6,.45-7.79,1.56a6.79,6.79,0,0,0,1.77,2.73,6.82,6.82,0,0,0-2.76-1.72c-1.09,1.87-1.45,5.82-1.43,7.81,0-2-.36-6-1.54-7.79a6.78,6.78,0,0,0-2.75,1.78A6.73,6.73,0,0,0,35.81,107.66Z"/><path class="cls-5" d="M112.43,138.94c3.88.21,4,.37,4.07,6.62.14-6.25.24-6.41,4.11-6.59-3.87-.2-4-.36-4.07-6.61C116.4,138.61,116.31,138.77,112.43,138.94Z"/><path class="cls-5" d="M111.4,101.46a1.71,1.71,0,1,1-1.58-1.84A1.71,1.71,0,0,1,111.4,101.46Z"/><path class="cls-3" d="M78.69,73.71,77,73.27a48,48,0,0,1-7.17-2.61"/><path class="cls-7" d="M73.89,180.24q-1.27.15-2.58.27a97.06,97.06,0,0,1-25.08-.62"/><path class="cls-3" d="M110.89,96.42c.69-1.84,1.7-3,2.93-3.15s2.21.57,3.22,1.86"/><path class="cls-3" d="M113.05,116.57a22.9,22.9,0,0,1-2.73-7.87"/><path class="cls-3" d="M89.29,146.38A96,96,0,0,1,68.82,138a100.36,100.36,0,0,1-14-9.17"/></svg>