<svg id="Layer_2" data-name="Layer 2" xmlns="http://www.w3.org/2000/svg" viewBox="0 0 159.48 229.42"><defs><style>.cls-1,.cls-3{fill:none;}.cls-1,.cls-5,.cls-6{stroke:#151515;}.cls-1,.cls-3,.cls-4,.cls-5,.cls-6{stroke-linecap:round;stroke-linejoin:round;stroke-width:0.7px;}.cls-2,.cls-4,.cls-6{fill:#151515;}.cls-3,.cls-4{stroke:#fff;}.cls-5,.cls-7{fill:#fff;}</style></defs><line class="cls-1" x1="39.64" y1="117.97" x2="39.64" y2="156.98"/><line class="cls-1" x1="61.83" y1="112.59" x2="61.83" y2="176.74"/><line class="cls-1" x1="81.82" y1="123.85" x2="81.82" y2="166.25"/><path class="cls-2" d="M70.15,121.66c-.87,1.58-1.83,3.07-.56,4.61a5,5,0,0,0,3.77,2.15c1,0,2.43-1.2,3.18-1.68l-1.23-3.31Z"/><line class="cls-1" x1="94.6" y1="141.04" x2="94.6" y2="163.92"/><path class="cls-2" d="M33.11,113.51c2.32-2.32,6.71-6.75,9.52-9.64,2.65-2.74,4.41-4.69,7.3-6s12.73-5.17,16.39-7.55h0c1.31-1.67,2.51-3.27,3.42-4.62,3.26-4.85,5.1-6.62,8.33-8,2.87-1.21,8.34-3.75,9.61-4.34,4.87-3.41,10.85-7.48,14.17-13.59,2.93-5.4,3.53-14.22,4.22-21.71,0,0,4.24-1.83,12.91-1.5S130.16,39,130.16,39a149.23,149.23,0,0,0-2.76,18.66c-.47,6-.83,15.14-1.16,18.34-.53,5.11-4,12.94-12.26,18.94s-16.42,8.58-19.38,14c.15,1.13.38,2.21.61,3.41.37,2,1,7.15-1.23,9.39A4.65,4.65,0,0,1,91.87,123c0,.1.75,2.82,1.3,4.47s1.87,4,2.9,7.39.28,8.05-3.18,8.7-5.61-5.05-7.1-8.42c-.85-1.91-3.1-6.46-5.31-11-.5.7-3.56,3.34-6.43,2.8a4.56,4.56,0,0,1-3.79-5.64c.54-2.79,3.38-6.67,5.15-8.19-1.32-4.14,0-6.39.69-9.87,0,0-4,.81-5.16,1.17-1.08,1.16-2.16,2.3-3.17,3.31-3.27,3.26-4.16,4.15-4.75,6.13s-1.58,8.5-2.47,11.07a17.57,17.57,0,0,0-1,5.84c-.1,1.87-.59,7.11-2.77,9.49s-6,2.37-6.62-.5.1-6,0-8.8.49-5,.89-8.5,1.58-9.19,1.78-13a13.5,13.5,0,0,1,.27-2.19,7.63,7.63,0,0,0-3.18,2.12,49.85,49.85,0,0,1-7.46,6.42c-2.85,2-2.23,1.92-6.08,4.76-4.15,3.06-6.81.53-7.21-1.31S30.79,115.84,33.11,113.51Z"/><path class="cls-3" d="M130.16,39a149.23,149.23,0,0,0-2.76,18.66c-.47,6-.83,15.14-1.16,18.34-.53,5.11-4,12.94-12.26,18.94s-16.42,8.58-19.38,14"/><path class="cls-3" d="M100.7,80a58.46,58.46,0,0,1-3,9.85c-1.12,2.67-2.4,4.4-2.52,5.35s-.19,1.55-.28,2.94c-.2,2.84-.48,7.14-.48,8.54a28.78,28.78,0,0,0,.76,5.71c.37,2,1,7.15-1.23,9.39-2.54,2.49-4.47,1-5,0a41.78,41.78,0,0,1-2-6.34c-.47-2-1.12-3.51-1.78-5.85a15.38,15.38,0,0,1-.7-4.91c-.09-2.19,0-6.92-.05-9.3s1.47-5.2,2.35-7.8c1-3.11,2.25-7.63,3.15-10.33.81-2.43,1.91-2.93,4.55-4.88"/><path class="cls-3" d="M109,78.14S104.59,88,97.54,90.31"/><path class="cls-3" d="M106.07,38.07c-.69,7.49-1.29,16.31-4.22,21.71C98,66.9,90.52,71.24,85.38,75s-5.53,4.63-6.32,9.23-2.17,15.06-3,19-2.37,6.32,0,11.65,8.19,16.91,9.69,20.27,3.64,9.08,7.1,8.42,4.21-5.33,3.18-8.7-2.33-5.7-2.9-7.39-1.3-4.47-1.3-4.47"/><path class="cls-3" d="M77.11,97.15a112.48,112.48,0,0,1-9.34,10.58c-3.27,3.26-4.16,4.15-4.75,6.13s-1.58,8.5-2.47,11.07a17.57,17.57,0,0,0-1,5.84c-.1,1.87-.59,7.11-2.77,9.49s-6,2.37-6.62-.5.1-6,0-8.8.49-5,.89-8.5,1.58-9.19,1.78-13,1.48-5.44,4-8.1A160.41,160.41,0,0,0,69.74,85.69c3.26-4.85,5.1-6.62,8.33-8s9-4.06,9-4.06"/><path class="cls-3" d="M66.32,90.31c-3.66,2.38-13.51,6.23-16.39,7.55s-4.65,3.27-7.3,6c-2.81,2.89-7.2,7.32-9.52,9.64s-4.33,3.86-3.93,5.7,3.06,4.37,7.21,1.31c3.85-2.84,3.23-2.75,6.08-4.76a49.85,49.85,0,0,0,7.46-6.42,7.53,7.53,0,0,1,3.19-2.12"/><path class="cls-3" d="M76.1,103.25s-4,.81-5.16,1.17"/><path class="cls-3" d="M80.48,124.15c-.5.7-3.56,3.34-6.43,2.8a4.56,4.56,0,0,1-3.79-5.64c.54-2.79,3.38-6.67,5.15-8.19"/><path class="cls-4" d="M87.44,114.11a2,2,0,0,1,2.7.7,16.44,16.44,0,0,1,2.06,3.87c.4,1.11.51,1.75-.2,2s-1.27.25-1.74.78-1.27,1-1.7.21A34.15,34.15,0,0,1,87.09,117C86.64,115.32,86.75,114.59,87.44,114.11Z"/><path class="cls-4" d="M86,135.55c.31-.56,2.14.27,3.7,2.68a21.31,21.31,0,0,1,2.22,4.08c.31.86.33,1.9-.44,2.28-1.42.68-1.88.32-3.38-2.76C86.4,138.41,85.74,136,86,135.55Z"/><path class="cls-4" d="M50.17,132.14c.86-.23,1.95,1.17,2.3,4.11.33,2.77.25,4.16,0,4.9s-.58,1.07-1.74,1-1.12-.49-1.16-1.49S49.47,132.33,50.17,132.14Z"/><path class="cls-4" d="M33.94,112.68c-.18-.29-1.23,0-2.49,1.14s-3.52,3.39-3.83,3.75-.2,1.07.6,1.51,1.51-.32,2.45-1.21A32.48,32.48,0,0,0,33.2,115C33.9,114,34.16,113,33.94,112.68Z"/><line class="cls-3" x1="94.6" y1="120.93" x2="94.6" y2="130.93"/><path class="cls-3" d="M92.84,126.44a14.51,14.51,0,0,1-11,.58"/><path class="cls-3" d="M94.6,102.46s-6.08,1.66-10.19-2.69"/><path class="cls-3" d="M94.4,103.58s-3.24,2.57-10,.84"/><path class="cls-3" d="M60.55,124.93a47.41,47.41,0,0,1-8.19-11.1"/><path class="cls-3" d="M62.38,116.69c-2,1.57-4.45,2.68-11,3.38"/><path class="cls-3" d="M59.82,127.7s-1.59-3.85-9.08-2.83"/><path class="cls-3" d="M38.42,108.17c1.94,2.75,2,7.45,1.54,9.53"/><path class="cls-3" d="M36.06,110.55c1.47.8,3.41,4.17,3.58,7.42"/><ellipse class="cls-5" cx="81.82" cy="170.72" rx="7.75" ry="2.83"/><path class="cls-5" d="M75.37,170.72c1.46,0,4.33.22,5.33,1.29s1.12,3.81,1.12,5.16c0-1.4.3-4.3,1.2-5.23s3.84-1.22,5.25-1.22c-1.37,0-4.17-.17-5.19-1.16s-1.26-3.86-1.26-5.29c0,1.5-.34,4.39-1.37,5.4S76.68,170.72,75.37,170.72Z"/><path class="cls-5" d="M36.66,135.66a4.71,4.71,0,0,0,1.89-1.61,9.66,9.66,0,0,0,1.09-2.8h0a8.9,8.9,0,0,0,1.08,2.8,5.31,5.31,0,0,0,1.9,1.61h0a4.77,4.77,0,0,0-1.9,1.61,9.94,9.94,0,0,0-1.08,2.8h0a8.77,8.77,0,0,0-1.09-2.8,5.23,5.23,0,0,0-1.89-1.61Z"/><path class="cls-5" d="M59.82,156.15a2,2,0,1,0,2-2A2,2,0,0,0,59.82,156.15Z"/><circle class="cls-6" cx="61.83" cy="167.46" r="0.65"/><circle class="cls-6" cx="61.93" cy="144.85" r="0.65"/><circle class="cls-6" cx="81.82" cy="159.05" r="0.65"/><path class="cls-6" d="M94,157.05a.65.65,0,1,0,.64-.65A.64.64,0,0,0,94,157.05Z"/><circle class="cls-6" cx="39.64" cy="125.63" r="0.65"/><path class="cls-5" d="M78.85,142.8a4.78,4.78,0,0,0,1.89-1.61,9.51,9.51,0,0,0,1.08-2.8h0a8.77,8.77,0,0,0,1.09,2.8,5.32,5.32,0,0,0,1.89,1.61h0a4.71,4.71,0,0,0-1.89,1.61,9.66,9.66,0,0,0-1.09,2.8h0a8.9,8.9,0,0,0-1.08-2.8,5.32,5.32,0,0,0-1.89-1.61Z"/><path class="cls-5" d="M65.56,202.23a9.4,9.4,0,1,0-7.45,0,13,13,0,1,1,7.45,0Z"/><path class="cls-1" d="M53.73,188.87c2.52.16,5.25.25,8.1.25s5.59-.09,8.11-.25"/><path class="cls-1" d="M74.85,188.45c6.23-.71,10.33-1.91,10.33-3.28,0-2.18-10.45-3.94-23.35-3.94S38.49,183,38.49,185.17c0,1.36,4.08,2.56,10.29,3.27"/><polygon class="cls-5" points="39.64 147.59 38.72 155 33.61 149.55 37.22 156.09 29.88 154.68 36.65 157.85 29.88 161.02 37.22 159.6 33.61 166.15 38.72 160.69 39.64 168.11 40.56 160.69 45.67 166.15 42.06 159.6 49.4 161.02 42.63 157.85 49.4 154.68 42.06 156.09 45.67 149.55 40.56 155 39.64 147.59"/><circle class="cls-5" cx="94.6" cy="166.1" r="2.01"/><path class="cls-7" d="M119.77,70a.36.36,0,0,1,.51-.06.37.37,0,0,1,.06.51.36.36,0,0,1-.57-.45Z"/><path class="cls-7" d="M106.39,87.23a.37.37,0,0,1,.51-.06.36.36,0,0,1-.45.57A.36.36,0,0,1,106.39,87.23Z"/><path class="cls-7" d="M123.51,65.71a.37.37,0,0,1,.51-.07.36.36,0,0,1,.06.51.37.37,0,0,1-.51.07A.38.38,0,0,1,123.51,65.71Z"/><path class="cls-7" d="M119.74,57.05a.36.36,0,0,1,.57.45.36.36,0,0,1-.57-.45Z"/><path class="cls-7" d="M99.5,69.52a.37.37,0,1,1,.06.51A.37.37,0,0,1,99.5,69.52Z"/><path class="cls-7" d="M109.49,40.45a.37.37,0,0,1,.51-.06.36.36,0,0,1-.45.57A.36.36,0,0,1,109.49,40.45Z"/><path class="cls-7" d="M107.12,53.53a.36.36,0,0,1,.57.45.37.37,0,0,1-.51.06A.36.36,0,0,1,107.12,53.53Z"/><path class="cls-7" d="M126,42a.38.38,0,0,1,.51-.06.36.36,0,1,1-.44.58A.38.38,0,0,1,126,42Z"/><path class="cls-7" d="M119.88,81.51a.36.36,0,0,1,.57.45.36.36,0,1,1-.57-.45Z"/><path class="cls-7" d="M78.2,109.08a.37.37,0,0,1,.51-.07.38.38,0,0,1,.06.51.37.37,0,0,1-.51.07A.36.36,0,0,1,78.2,109.08Z"/><path class="cls-7" d="M72.47,120.83a.36.36,0,1,1,.57.45.36.36,0,0,1-.57-.45Z"/><path class="cls-7" d="M64.37,97.51a.37.37,0,0,1,.51-.06.36.36,0,0,1-.45.57A.37.37,0,0,1,64.37,97.51Z"/><path class="cls-7" d="M55.82,130.2a.37.37,0,1,1,.06.51A.37.37,0,0,1,55.82,130.2Z"/><path class="cls-7" d="M33.73,118.79a.37.37,0,1,1,.06.51A.37.37,0,0,1,33.73,118.79Z"/><path class="cls-7" d="M43,110.54a.37.37,0,1,1-.39.34A.37.37,0,0,1,43,110.54Z"/><path class="cls-7" d="M73.23,85.57a.36.36,0,0,1,.57.45.36.36,0,0,1-.57-.45Z"/><path class="cls-7" d="M81.74,80.79a.36.36,0,0,1,.51-.06.36.36,0,0,1-.45.57A.36.36,0,0,1,81.74,80.79Z"/><path class="cls-7" d="M59.13,109.94a.37.37,0,0,1,.51-.07.38.38,0,0,1,.06.51.37.37,0,0,1-.51.07A.36.36,0,0,1,59.13,109.94Z"/><path class="cls-7" d="M98,93.7a.36.36,0,1,1,.57.45.36.36,0,0,1-.51.06A.37.37,0,0,1,98,93.7Z"/><path class="cls-7" d="M98.73,98.66a.36.36,0,1,1,.57.45.37.37,0,0,1-.51.06A.36.36,0,0,1,98.73,98.66Z"/><path class="cls-7" d="M90.17,109.44a.36.36,0,1,1,.57.45.36.36,0,0,1-.51.06A.37.37,0,0,1,90.17,109.44Z"/><path class="cls-7" d="M80.89,99.46a.36.36,0,0,1,.57.45.36.36,0,0,1-.57-.45Z"/><path class="cls-7" d="M86.06,120.47a.36.36,0,1,1,.58.44.36.36,0,1,1-.58-.44Z"/><path class="cls-7" d="M92.93,134.31a.36.36,0,0,1,.57.45.36.36,0,1,1-.57-.45Z"/><path class="cls-7" d="M93.29,82.3a.36.36,0,1,1,.57.45.37.37,0,0,1-.51.06A.36.36,0,0,1,93.29,82.3Z"/><path class="cls-7" d="M115.33,73.36a.23.23,0,0,1,.32,0,.22.22,0,0,1,0,.31.22.22,0,0,1-.35-.27Z"/><path class="cls-7" d="M121.32,45.84a.23.23,0,0,1,.32,0,.22.22,0,0,1,0,.31.23.23,0,0,1-.32,0A.23.23,0,0,1,121.32,45.84Z"/><path class="cls-7" d="M111.35,87.68a.23.23,0,1,1,0,.32A.23.23,0,0,1,111.35,87.68Z"/><path class="cls-7" d="M92.39,91.09a.23.23,0,0,1,.32,0,.23.23,0,0,1,0,.32.22.22,0,0,1-.31,0A.21.21,0,0,1,92.39,91.09Z"/><path class="cls-7" d="M112.31,81.37a.23.23,0,0,1,.31,0,.23.23,0,0,1,0,.32.22.22,0,1,1-.35-.28Z"/><path class="cls-7" d="M103.52,92.05a.21.21,0,0,1,.31,0,.23.23,0,0,1,0,.32.23.23,0,0,1-.32,0A.22.22,0,0,1,103.52,92.05Z"/><path class="cls-7" d="M114.13,41.72a.22.22,0,0,1,.31,0,.23.23,0,1,1-.31,0Z"/><path class="cls-7" d="M104.92,74.87a.25.25,0,0,1,.32,0,.23.23,0,1,1-.32,0Z"/><path class="cls-7" d="M88.06,107.66a.21.21,0,0,1,.28,0,.16.16,0,0,1,0,.25.2.2,0,0,1-.28,0A.16.16,0,0,1,88.06,107.66Z"/><path class="cls-7" d="M123,74.65a.23.23,0,0,1,.32,0,.23.23,0,0,1,0,.32.22.22,0,0,1-.31,0A.21.21,0,0,1,123,74.65Z"/><path class="cls-7" d="M86.89,98.28a.22.22,0,1,1,0,.31A.21.21,0,0,1,86.89,98.28Z"/><path class="cls-7" d="M67.14,101.13a.23.23,0,0,1,.32,0,.22.22,0,0,1-.28.35A.23.23,0,0,1,67.14,101.13Z"/><path class="cls-7" d="M82.31,85.88a.21.21,0,0,1,.31,0,.23.23,0,0,1,0,.32.22.22,0,0,1-.31,0A.21.21,0,0,1,82.31,85.88Z"/><path class="cls-7" d="M84.2,123a.23.23,0,0,1,.32,0,.22.22,0,0,1,0,.31.22.22,0,1,1-.35-.27Z"/><path class="cls-7" d="M77.72,112.44a.22.22,0,0,1,.31,0,.23.23,0,1,1-.31,0Z"/><path class="cls-7" d="M54.13,133.81a.23.23,0,1,1,0,.32A.23.23,0,0,1,54.13,133.81Z"/><path class="cls-7" d="M35.88,115.53a.21.21,0,0,1,.31,0,.23.23,0,0,1,0,.32.22.22,0,0,1-.31,0A.21.21,0,0,1,35.88,115.53Z"/><path class="cls-7" d="M56.71,98.28a.22.22,0,1,1,0,.31A.21.21,0,0,1,56.71,98.28Z"/><path class="cls-7" d="M50.6,99.68a.22.22,0,0,1,.21.24.22.22,0,0,1-.24.21.24.24,0,0,1-.21-.24A.23.23,0,0,1,50.6,99.68Z"/><path class="cls-7" d="M89.92,130.29a.22.22,0,1,1,0,.31A.21.21,0,0,1,89.92,130.29Z"/><path class="cls-7" d="M55.75,108.25a.23.23,0,0,1,.32,0,.23.23,0,0,1,0,.32.22.22,0,0,1-.31,0A.21.21,0,0,1,55.75,108.25Z"/><path class="cls-7" d="M73.7,94.37a.23.23,0,1,1,0,.32A.25.25,0,0,1,73.7,94.37Z"/><path class="cls-7" d="M75.14,119.24a.22.22,0,0,1,.31,0,.23.23,0,0,1,0,.32.22.22,0,1,1-.35-.28Z"/><path class="cls-7" d="M105.15,63.47a.22.22,0,1,1,0,.31A.21.21,0,0,1,105.15,63.47Z"/><path class="cls-7" d="M104.54,96.11a.21.21,0,0,1,.31,0,.23.23,0,0,1,0,.32.22.22,0,0,1-.31,0A.21.21,0,0,1,104.54,96.11Z"/><path class="cls-7" d="M72.58,87.46a.21.21,0,0,1,.31,0,.23.23,0,0,1,0,.32.22.22,0,0,1-.31,0A.21.21,0,0,1,72.58,87.46Z"/><path class="cls-7" d="M97.88,81.87a.22.22,0,1,1,0,.31A.21.21,0,0,1,97.88,81.87Z"/><path class="cls-7" d="M111.79,69.63a.7.7,0,0,1,1-.12.69.69,0,0,1,.11,1,.69.69,0,0,1-1.08-.85Z"/><path class="cls-7" d="M112.17,60a.68.68,0,0,1,1-.12.69.69,0,1,1-.85,1.09A.69.69,0,0,1,112.17,60Z"/><path class="cls-7" d="M82.63,117a.7.7,0,0,1,1-.12.69.69,0,0,1-.85,1.09A.7.7,0,0,1,82.63,117Z"/><path class="cls-7" d="M111.62,44.65a.69.69,0,1,1,.12,1A.69.69,0,0,1,111.62,44.65Z"/><path class="cls-7" d="M108.87,92.45a.69.69,0,1,1,.12,1A.7.7,0,0,1,108.87,92.45Z"/><path class="cls-7" d="M66.78,93.86a.68.68,0,0,1,1-.12.69.69,0,1,1-.85,1.09A.69.69,0,0,1,66.78,93.86Z"/><path class="cls-7" d="M47.77,102.09a.68.68,0,0,1,.64.73.69.69,0,0,1-.74.64.7.7,0,0,1-.64-.74A.69.69,0,0,1,47.77,102.09Z"/><path class="cls-2" d="M104.84,150.46a.35.35,0,1,1-.35-.35A.36.36,0,0,1,104.84,150.46Z"/><path class="cls-2" d="M30.23,133.34a.35.35,0,1,1-.7,0,.35.35,0,1,1,.7,0Z"/><path class="cls-2" d="M52.42,170.72a.35.35,0,0,1-.35.35.35.35,0,0,1-.35-.35.35.35,0,0,1,.35-.35A.34.34,0,0,1,52.42,170.72Z"/><path class="cls-2" d="M101.32,118.38a.35.35,0,0,1-.35.35.35.35,0,1,1,0-.7A.35.35,0,0,1,101.32,118.38Z"/><path class="cls-2" d="M92.79,181.23a.67.67,0,1,1-.66-.67A.67.67,0,0,1,92.79,181.23Z"/><path class="cls-2" d="M27.45,141a.66.66,0,0,1-.66.67.67.67,0,0,1,0-1.34A.66.66,0,0,1,27.45,141Z"/><path class="cls-2" d="M104.58,124a.67.67,0,0,1-1.33,0,.67.67,0,1,1,1.33,0Z"/><path class="cls-6" d="M72.2,137.47c-1.38,0-1.45.12-1.45,1.45,0-1.35-.08-1.45-1.45-1.45,1.37,0,1.39-.09,1.45-1.45C70.77,137.38,70.82,137.47,72.2,137.47Z"/><path class="cls-6" d="M44.8,173.76c-1.38,0-1.46.12-1.46,1.45,0-1.35-.07-1.45-1.45-1.45,1.38,0,1.4-.09,1.45-1.45C43.37,173.66,43.42,173.76,44.8,173.76Z"/><path class="cls-6" d="M113.21,107.77c-1.38,0-1.45.12-1.45,1.45,0-1.35-.08-1.45-1.46-1.45,1.38,0,1.4-.09,1.46-1.45C111.78,107.68,111.83,107.77,113.21,107.77Z"/></svg>