<svg id="Layer_2" data-name="Layer 2" xmlns="http://www.w3.org/2000/svg" viewBox="0 0 159.48 229.42"><defs><style>.cls-1,.cls-4{fill:#151515;}.cls-2,.cls-3{fill:none;}.cls-2,.cls-6{stroke:#151515;}.cls-2,.cls-3,.cls-4,.cls-6{stroke-linecap:round;stroke-linejoin:round;stroke-width:0.7px;}.cls-3,.cls-4{stroke:#fff;}.cls-5{fill:#373737;}.cls-6,.cls-7{fill:#fff;}</style></defs><path class="cls-1" d="M35.9,81.35c-.66.53-2.41,2-4.09,3.48s-3.28,2.93-3.71,3.39c-2.71,2.82-4.47,8.36-5.43,10.41-.27.59-.85,1.93-1.46,3.4l-.11-.22c-2.75-3.69-3.73-7.45-5.76-11.58a8.45,8.45,0,0,0-2.94-3.64c-1.28-.7-3.36-.71-3.84.67a3,3,0,0,0,0,1.74c1,3.79,1.65,6.76,3.23,9.62,1.25,2.28,1.83,4.94,2.94,8.2a19.48,19.48,0,0,0,3.45,6.51h0a4.63,4.63,0,0,0-.24,1.08,13.23,13.23,0,0,0,.29,3.43,114.16,114.16,0,0,1,1.58,20.47l.06,0c-1.2,2.17-2.38,4.32-2.3,6.78.09,2.91,2.14,5.35,4.11,7.5,8.44,9.23,17.48,18.32,22.7,29.7,1.47,3.21,2.63,6.59,4.55,9.55,3.21,5,9.54,10.24,14.15,15.89,0,0,5,.4,12.22-4.51,6.48-4.43,7.81-9.71,7.81-9.71-6.55-9-12.11-20-14.16-30.36-.86-4.34.56-9.42.27-12.6-.58-6.32-2.63-9.85-5.64-16.53-2.78-6.15-5.06-10.89-7.26-18.4-1.48-5-3.49-11-7.06-14.87a4.42,4.42,0,0,0-1.75-1.28l-.2-.06h0a2,2,0,0,0-1.9-1.39,4,4,0,0,0-1.81.73,5,5,0,0,0-1.44,1.39,2.31,2.31,0,0,0,.36,1.94,8.43,8.43,0,0,0,.67,5.86l.09.13a9.91,9.91,0,0,1-2,1c-5,1.54-6.27,3.52-10.79,8-.85-1.21-1.8-2.21-1.44-3.37.25-.82,3.62-12.11,4-13.1.47-1.28,2.7-2.32,5.55-5,2.45-2.36,4.48-4.88,3.09-7.49-.74-1.4-1.95-2.17-3.48-1.25h0a7.33,7.33,0,0,0,.82-2.44,4,4,0,0,0-.86-2.9C37.49,80.58,36.78,80.65,35.9,81.35ZM46,114.15a25.09,25.09,0,0,1,4.26,13c0,.74,0,2.52,0,4.06a65.38,65.38,0,0,1-13.51-8.09A29.43,29.43,0,0,1,41.77,117c1.31-1.06,2.84-1.85,4.2-2.83Z"/><path class="cls-1" d="M108.78,51.11c4.23,8.24,8.62,16.07,8.32,24.78h0c-.06.16-.11.33-.17.49a84.53,84.53,0,0,0-3.1,10.16c-1.46,6.57-1.08,11.45-1.1,14.93a35.89,35.89,0,0,1-1.86,11.92c-2.26,7.39-6.34,13.78-8.87,21.08a15.54,15.54,0,0,0-.85,4.76,4,4,0,0,0,2.15,3.16,3.16,3.16,0,0,0,1.77.6c1.87,0,4.91-1.55,6.51-3.69a21.06,21.06,0,0,0,3.38-7.39c.65-2.59,1.62-6.28,2.69-9.23a20.1,20.1,0,0,1,6.5-8.88,7.16,7.16,0,0,1,.95-.67h0c.06.69,0,1.15.17,2.61l0,0c-1.43,4.37-3.23,8.83-4.84,13.14a38.82,38.82,0,0,1-2.1,4.93c-.63,1.17-1.29,2.33-2,3.48-1.54,2.64-2.45,4.64-1.15,7.53h.24q-1.43,1.68-2.86,3.35a17.21,17.21,0,0,0-2.84,4,5.75,5.75,0,0,0-.2,4.76l.17.09a4.74,4.74,0,0,0-1.31,2.64,3.1,3.1,0,0,0,2.6,3.11,4,4,0,0,0,2.2-.92c7.75-5.36,14.55-12,21.3-18.55a39.48,39.48,0,0,0,3.75-4h0c-.07,1.13-.14,1.85-.24,3.11q-.79,10.57-2.58,21c-.59,3.46-1.17,7.34.81,10.24.57.84,1.58,1.6,2.54,1.26a2.78,2.78,0,0,0,1.45-2.1c1.5-5.88,3.27-9.06,4.28-14,1.44-6.94,3.47-11,3.93-17.6a156.6,156.6,0,0,1,2.87-18.2c.64-3,1.41-5.74,1.17-7.56-.27-2.08-4.34-15.06-5.39-19.2-3-11.87-4.52-22.35-8-32.26-1.33-3.8-7-13.56-9.11-17.24,0,0-4.41-2.78-12.5-.57C110.4,48.19,108.78,51.11,108.78,51.11Z"/><path class="cls-2" d="M112.43,104.28c-2.08-5.71-5.62-12.86-10.82-17.43-13.8-12.14-33.57-10.08-45,5.63a28.16,28.16,0,0,0,6.2,39.34,22.52,22.52,0,0,0,31.47-4.95,18,18,0,0,0-4-25.18,14.42,14.42,0,0,0-20.15,3.17A11.54,11.54,0,0,0,72.69,121a9.23,9.23,0,0,0,12.89-2A7.39,7.39,0,0,0,84,108.63c-2.64-1.92-6.34-.34-7.6,1.76s-.36,5,1.63,5.6"/><path class="cls-3" d="M63.84,208.64c-4.61-5.65-11.69-11.81-14.9-16.76-1.92-3-3.08-6.34-4.55-9.55-5.22-11.38-14.26-20.47-22.7-29.7-2-2.15-4-4.59-4.11-7.5-.12-3.55,2.4-6.46,3.81-9.72,1.77-4.12,2.22-9.21,4.42-13.12,1-1.81,2.19-2.62,3.69-4.07,5.42-5.28,6.46-7.43,11.85-9.09,1.72-.53,5.17-3.67,6.77-2.92,2.52,1.18,1.19,4.72-.47,6.5s-4,2.74-5.88,4.27c-3.27,2.66-5.07,6.9-8,9.78-.56.55-.6,5.31-2.93,11.28-.23.59,2,7.45-.18,12.87"/><path class="cls-3" d="M50.38,168c-1-7.85-4.33-15.16-8.56-22.72"/><path class="cls-3" d="M62,153.86A60.35,60.35,0,0,1,42.5,139.55"/><path class="cls-3" d="M83.8,194.39c-6.54-9-12.79-20.82-14.84-31.2-.86-4.34.56-9.42.27-12.6-.58-6.32-2.63-9.85-5.64-16.53-2.78-6.15-5.06-10.89-7.26-18.4-1.48-5-3.49-11-7.06-14.87a4.42,4.42,0,0,0-1.75-1.28,4.4,4.4,0,0,0-5,2.6,8.43,8.43,0,0,0,.67,5.86"/><path class="cls-1" d="M31.35,85.16c-.33-.55.07-1.34.71-2.08,1.18-1.37,2.22-2.53,2.95-3.27,1-1,1.94.11,2.1,1Z"/><path class="cls-4" d="M42.1,108.57A25.28,25.28,0,0,1,46.58,105c.33-.21,1.64-1.16,2.07.33.24.84-.86,1.43-1.39,1.78A12.12,12.12,0,0,1,43.64,109C42.15,109.42,41.45,109.24,42.1,108.57Z"/><path class="cls-1" d="M8.76,86.87c-.53-.49-1.25-.71-1.68-.22S7.63,90.29,8.4,92a6.35,6.35,0,0,0,1.42,1.8Z"/><path class="cls-3" d="M50.21,131.23a65.38,65.38,0,0,1-13.51-8.09"/><path class="cls-3" d="M46,114.15a25.09,25.09,0,0,1,4.26,13c.06,1.22,0,5.23-.15,6.37"/><path class="cls-3" d="M19.82,138.32a114.16,114.16,0,0,0-1.58-20.47,13.23,13.23,0,0,1-.29-3.43c.22-2.45,4-8.32,4.77-9.88s3.45-6.91,4.24-8a15.45,15.45,0,0,1,2.77-2.77c2.62-2.21,5.34-4.22,8-6.42,1.79-1.49,3.2-.72,4,.85,1.39,2.61-.64,5.13-3.09,7.49-2.85,2.73-5.08,3.77-5.55,5-.35,1-3.72,12.28-4,13.1-.36,1.16.59,2.16,1.44,3.37"/><path class="cls-3" d="M21.1,101.81c-2.75-3.69-3.73-7.45-5.76-11.58a8.45,8.45,0,0,0-2.94-3.64c-1.28-.7-3.36-.71-3.84.67a3,3,0,0,0,0,1.74c1,3.79,1.66,6.76,3.23,9.62,1.25,2.28,1.83,4.94,2.94,8.2a19.48,19.48,0,0,0,3.45,6.51"/><path class="cls-3" d="M19.15,111a5.33,5.33,0,0,1,.05-4c.64-1.78,2.84-7,3.47-8.38,1-2,2.72-7.59,5.43-10.41.43-.46,2-1.93,3.71-3.39s3.43-3,4.09-3.48a1.58,1.58,0,0,1,2.52.17,4,4,0,0,1,.66,2.94,5.84,5.84,0,0,1-.82,2.44"/><path class="cls-4" d="M39.54,86.51c-.26-.93-.78-1.33-1.34-1.28a2.74,2.74,0,0,0-1.51.85,35.73,35.73,0,0,0-2.44,2.67c-.6.71-1.38,1.67-1.14,2.24,0,0,2.75-2.15,3.88-3.09S39,86.31,39.54,86.51Z"/><path class="cls-5" d="M111.29,162.71a2.81,2.81,0,0,1-1.72.83,2.67,2.67,0,0,1-2.16-2.67,3.77,3.77,0,0,1,.88-1.45Z"/><path class="cls-3" d="M129.35,45.7c2.1,3.68,8.4,14.56,9.73,18.36,3.46,9.91,5,20.39,8,32.26,1.05,4.14,5.12,17.12,5.39,19.2.24,1.82-.53,4.52-1.17,7.56a156.6,156.6,0,0,0-2.87,18.2c-.46,6.58-2.49,10.66-3.93,17.6-1,4.89-2.78,8.07-4.28,14a2.78,2.78,0,0,1-1.45,2.1c-1,.34-2-.42-2.54-1.26-2-2.9-1.4-6.78-.81-10.24q1.78-10.44,2.58-21c.13-1.65.21-2.38.29-4.28.1-2.38.48-5.48-.69-7.84"/><path class="cls-3" d="M133.33,126c-3.52,9.76-11.05,18.16-18.43,25.44a57.55,57.55,0,0,0-4.45,4.66c-.89,1.08-2,2.16-2.08,3.55a3.1,3.1,0,0,0,2.6,3.11,4,4,0,0,0,2.2-.92c7.75-5.36,14.55-12,21.3-18.55a39.48,39.48,0,0,0,3.75-4"/><path class="cls-3" d="M129.21,122.49c-3.18,9.7-10,17.9-16.66,25.64a17.21,17.21,0,0,0-2.84,4,5.71,5.71,0,0,0-.19,4.76"/><path class="cls-3" d="M126.6,118.82a5.55,5.55,0,0,1-1.31-2.91,27.07,27.07,0,0,1-.19-2.78"/><path class="cls-3" d="M115.17,144.79c-1.3-2.89-.39-4.89,1.15-7.53.68-1.15,1.34-2.31,2-3.48a38.82,38.82,0,0,0,2.1-4.93c1.61-4.31,3.41-8.77,4.84-13.14"/><path class="cls-3" d="M134.72,126.85a9.83,9.83,0,0,0-1.53-1.21,16.22,16.22,0,0,1-4.53-4"/><path class="cls-3" d="M138.68,117.67c-4.05-4.32-10.17-7.51-14.53-3.87a20.1,20.1,0,0,0-6.5,8.88c-1.07,2.95-2,6.64-2.69,9.23a21.06,21.06,0,0,1-3.38,7.39c-1.6,2.14-4.64,3.73-6.51,3.69a3.16,3.16,0,0,1-1.77-.6,4,4,0,0,1-2.15-3.16,15.54,15.54,0,0,1,.85-4.76c2.53-7.3,6.61-13.69,8.87-21.08a35.89,35.89,0,0,0,1.86-11.92c0-3.48-.36-8.36,1.1-14.93a84.53,84.53,0,0,1,3.1-10.16,28.4,28.4,0,0,0,1.88-8.71"/><path class="cls-3" d="M108,50.07c4.24,8.24,9.45,17.11,9.15,25.82"/><path class="cls-4" d="M106.28,143.31c-.82.63-1.92.26-2.67.07a3.23,3.23,0,0,1-2-1.32c-.44-.75.07-2.35.84-4.76.36-1.11,1.32-3.46,2-4,.87-.69,4.1.25,4.58,1.64.36,1-.09,2.47-.61,4.17C107.57,141.84,106.94,142.82,106.28,143.31Z"/><path class="cls-4" d="M141.73,167.75c-.32-.63-1.28,1.37-1.55,1.93-.74,1.49-2.11,4.36-1.93,5.43.22.58,1.42,1,1.82.6s1-3,1.23-4.23C141.52,170.44,142,168.22,141.73,167.75Z"/><polygon class="cls-6" points="72.42 139.1 79.95 135.77 72.58 132.12 80.62 133.85 76.8 126.56 82.29 132.69 83.49 124.55 84.33 132.74 90.08 126.85 85.94 133.97 94.06 132.59 86.53 135.92 93.91 139.57 85.86 137.84 89.68 145.13 84.19 139 83 147.14 82.16 138.95 76.4 144.84 80.54 137.72 72.42 139.1"/><path class="cls-6" d="M59,92.09a.55.55,0,0,1-.68-.33,13.75,13.75,0,0,1-.52-5,14,14,0,0,1-1,4.89.55.55,0,0,1-.75.23,4.85,4.85,0,0,1-1.39-1.11,5,5,0,0,1,.92,1.43.52.52,0,0,1-.3.68,14.27,14.27,0,0,1-4.95.58,14.79,14.79,0,0,1,4.84,1.08.52.52,0,0,1,.26.71,4.7,4.7,0,0,1-1.09,1.36,5,5,0,0,1,1.52-1,.55.55,0,0,1,.68.33,13.75,13.75,0,0,1,.49,5A15.14,15.14,0,0,1,58,96.14a.54.54,0,0,1,.71-.26A5.1,5.1,0,0,1,60.12,97a4.9,4.9,0,0,1-.94-1.48.53.53,0,0,1,.34-.68,14.84,14.84,0,0,1,4.93-.53,14.65,14.65,0,0,1-4.87-1,.53.53,0,0,1-.25-.71,4.89,4.89,0,0,1,1.11-1.4A5,5,0,0,1,59,92.09Z"/><path class="cls-1" d="M94.73,150.91a.42.42,0,0,1,.49.36.41.41,0,0,1-.35.48.42.42,0,0,1-.49-.35A.43.43,0,0,1,94.73,150.91Z"/><path class="cls-1" d="M56.33,77.34a.44.44,0,0,1,.49.36.43.43,0,1,1-.49-.36Z"/><path class="cls-1" d="M109.71,84.26a.44.44,0,0,1,.49.36.43.43,0,1,1-.49-.36Z"/><path class="cls-1" d="M61.8,109.36a.42.42,0,0,1,.49.35.43.43,0,1,1-.84.14A.42.42,0,0,1,61.8,109.36Z"/><path class="cls-1" d="M80.5,153.58a.81.81,0,1,1-.67.93A.81.81,0,0,1,80.5,153.58Z"/><path class="cls-1" d="M84.2,68.67a.82.82,0,0,1,.92.68.8.8,0,0,1-.67.92.81.81,0,0,1-.93-.67A.83.83,0,0,1,84.2,68.67Z"/><path class="cls-1" d="M105.06,109.41a.83.83,0,0,1,.93.68.81.81,0,1,1-.93-.68Z"/><path class="cls-2" d="M69,67.89c-.09,1.66,0,1.76,1.67,1.84-1.64-.08-1.77,0-1.85,1.67.08-1.66,0-1.69-1.67-1.84C68.8,69.61,68.91,69.55,69,67.89Z"/><path class="cls-2" d="M78.12,114.2c0,1.67.16,1.76,1.78,1.74-1.64,0-1.76.11-1.74,1.78,0-1.67-.13-1.69-1.78-1.74C78,115.93,78.14,115.87,78.12,114.2Z"/><path class="cls-6" d="M102.79,84.09a6.91,6.91,0,1,1-6.24-7.52A6.9,6.9,0,0,1,102.79,84.09Z"/><path class="cls-2" d="M102.54,81.52c2.41.79,3.91,1.81,3.82,2.8-.15,1.69-5,2.63-10.72,2.09s-10.32-2.34-10.16-4c.09-1,1.75-1.72,4.27-2"/><path class="cls-6" d="M76.25,97.46c3.78-.11,3.88-.26,4.11-6.35,0,6.09.09,6.25,3.86,6.5-3.78.12-3.88.27-4.11,6.36C80.11,97.88,80,97.72,76.25,97.46Z"/><path class="cls-3" d="M51.65,104a28.18,28.18,0,0,0,10.82,27.6"/><path class="cls-7" d="M68.19,183.92a.35.35,0,1,0,.52-.46.36.36,0,0,0-.49,0A.35.35,0,0,0,68.19,183.92Z"/><path class="cls-7" d="M54.54,168.31a.35.35,0,0,0,.49,0,.35.35,0,0,0-.46-.52A.35.35,0,0,0,54.54,168.31Z"/><path class="cls-7" d="M73.15,199.38a.36.36,0,0,0,.49,0,.35.35,0,1,0-.49,0Z"/><path class="cls-7" d="M68.89,196.22a.34.34,0,0,0,.48,0,.34.34,0,0,0,0-.49.33.33,0,0,0-.48,0A.34.34,0,0,0,68.89,196.22Z"/><path class="cls-7" d="M51.9,190.15a.35.35,0,0,0,.49,0,.35.35,0,0,0-.46-.52A.34.34,0,0,0,51.9,190.15Z"/><path class="cls-7" d="M78,194.43a.35.35,0,1,0,.52-.46.35.35,0,0,0-.52.46Z"/><path class="cls-7" d="M63.72,172.89a.34.34,0,1,0,.51-.46.34.34,0,0,0-.48,0A.34.34,0,0,0,63.72,172.89Z"/><path class="cls-7" d="M64,203.88a.35.35,0,0,0,.49,0,.36.36,0,0,0,0-.49.35.35,0,0,0-.52.46Z"/><path class="cls-7" d="M47.69,149.81a.35.35,0,1,0,.52-.46.35.35,0,0,0-.49,0A.34.34,0,0,0,47.69,149.81Z"/><path class="cls-7" d="M51.12,133.84a.35.35,0,1,0,.52-.46.35.35,0,0,0-.52.46Z"/><path class="cls-7" d="M21.11,127.57a.35.35,0,1,0,.52-.46.35.35,0,1,0-.52.46Z"/><path class="cls-7" d="M54.76,116.7a.34.34,0,0,0,.49,0,.33.33,0,0,0,0-.48.34.34,0,0,0-.49,0A.34.34,0,0,0,54.76,116.7Z"/><path class="cls-7" d="M39,90.68a.34.34,0,1,0,.51-.46.34.34,0,0,0-.48,0A.34.34,0,0,0,39,90.68Z"/><path class="cls-7" d="M11.76,94.84a.36.36,0,0,0,.49,0,.35.35,0,1,0-.49,0Z"/><path class="cls-7" d="M31.56,87.72a.36.36,0,0,0,.49,0,.35.35,0,0,0,0-.49.34.34,0,0,0-.49,0A.36.36,0,0,0,31.56,87.72Z"/><path class="cls-7" d="M34,119.28a.34.34,0,0,0,.48,0,.34.34,0,0,0,0-.49.33.33,0,0,0-.48,0A.34.34,0,0,0,34,119.28Z"/><path class="cls-7" d="M23.22,109.44a.34.34,0,0,0,.49,0,.35.35,0,0,0,0-.49.36.36,0,0,0-.49,0A.35.35,0,0,0,23.22,109.44Z"/><path class="cls-7" d="M24.92,134a.34.34,0,0,0,.48,0,.34.34,0,0,0,0-.49.34.34,0,0,0-.48,0A.34.34,0,0,0,24.92,134Z"/><path class="cls-7" d="M21.64,147.29a.34.34,0,0,0,.49,0,.35.35,0,0,0-.46-.52A.35.35,0,0,0,21.64,147.29Z"/><path class="cls-7" d="M29.89,126.54a.34.34,0,0,0,.48,0,.34.34,0,0,0,0-.49.34.34,0,0,0-.48,0A.34.34,0,0,0,29.89,126.54Z"/><path class="cls-7" d="M49.06,115.63a.34.34,0,1,0,0-.48A.33.33,0,0,0,49.06,115.63Z"/><path class="cls-7" d="M30.88,97.29a.34.34,0,1,0,0-.48A.33.33,0,0,0,30.88,97.29Z"/><path class="cls-7" d="M17.29,104.13a.34.34,0,0,0,.49,0,.35.35,0,0,0-.46-.52A.35.35,0,0,0,17.29,104.13Z"/><path class="cls-7" d="M35.89,131.37a.34.34,0,0,0,.49,0,.35.35,0,0,0,0-.49.36.36,0,0,0-.49,0A.35.35,0,0,0,35.89,131.37Z"/><path class="cls-7" d="M60.16,142.12a.34.34,0,0,0,.49,0,.35.35,0,0,0-.46-.52A.35.35,0,0,0,60.16,142.12Z"/><path class="cls-7" d="M35,157.74a.36.36,0,0,0,.49,0,.35.35,0,0,0-.46-.52A.36.36,0,0,0,35,157.74Z"/><path class="cls-7" d="M66,149.22a.35.35,0,0,0,.32-.37.35.35,0,0,0-.69,0A.35.35,0,0,0,66,149.22Z"/><path class="cls-7" d="M45.42,103.32a.35.35,0,1,0,0-.69.35.35,0,0,0,0,.69Z"/><path class="cls-7" d="M33.41,137.9a.34.34,0,1,0,.51-.46.34.34,0,0,0-.48,0A.34.34,0,0,0,33.41,137.9Z"/><path class="cls-7" d="M43.28,173.07a.34.34,0,0,0,.49,0,.33.33,0,0,0,0-.48.34.34,0,0,0-.49,0A.34.34,0,0,0,43.28,173.07Z"/><path class="cls-7" d="M58.85,200.44a.36.36,0,0,0,.49,0,.34.34,0,0,0,0-.49.34.34,0,0,0-.48,0A.35.35,0,0,0,58.85,200.44Z"/><path class="cls-7" d="M37.37,164.4a.35.35,0,1,0,.52-.46.35.35,0,0,0-.49,0A.34.34,0,0,0,37.37,164.4Z"/><path class="cls-7" d="M40.16,139.89a.34.34,0,1,0,.51-.46.34.34,0,0,0-.48,0A.34.34,0,0,0,40.16,139.89Z"/><path class="cls-7" d="M63.8,181a.21.21,0,0,0,.3,0,.21.21,0,1,0-.28-.32A.21.21,0,0,0,63.8,181Z"/><path class="cls-7" d="M58.62,193.53a.22.22,0,0,0,.31,0,.22.22,0,0,0,0-.3.21.21,0,0,0-.3,0A.22.22,0,0,0,58.62,193.53Z"/><path class="cls-7" d="M60.56,150.06a.21.21,0,1,0,0-.3A.21.21,0,0,0,60.56,150.06Z"/><path class="cls-7" d="M64.8,155.6a.21.21,0,0,0,.32-.28.22.22,0,0,0-.3,0A.21.21,0,0,0,64.8,155.6Z"/><path class="cls-7" d="M67.66,166.13a.22.22,0,0,0,.3,0,.22.22,0,0,0,0-.31.22.22,0,0,0-.3,0A.21.21,0,0,0,67.66,166.13Z"/><path class="cls-7" d="M60.48,173.54a.21.21,0,1,0,.32-.28.22.22,0,0,0-.3,0A.21.21,0,0,0,60.48,173.54Z"/><path class="cls-7" d="M51.42,166.79a.21.21,0,1,0,0-.3A.21.21,0,0,0,51.42,166.79Z"/><path class="cls-7" d="M66.17,187.05a.21.21,0,1,0,0-.3A.21.21,0,0,0,66.17,187.05Z"/><path class="cls-7" d="M53.54,113.08a.21.21,0,1,0,0-.3A.21.21,0,0,0,53.54,113.08Z"/><path class="cls-7" d="M33.9,151.68a.21.21,0,0,0,.3,0,.21.21,0,0,0-.28-.32A.21.21,0,0,0,33.9,151.68Z"/><path class="cls-7" d="M39.81,148.15a.22.22,0,1,0,0-.31A.22.22,0,0,0,39.81,148.15Z"/><path class="cls-7" d="M71,179.33a.21.21,0,1,0,0-.3A.21.21,0,0,0,71,179.33Z"/><path class="cls-7" d="M33.42,159a.21.21,0,0,0,.3,0,.22.22,0,0,0,0-.3.22.22,0,0,0-.31,0A.22.22,0,0,0,33.42,159Z"/><path class="cls-7" d="M44,164.87a.22.22,0,0,0,.3,0,.22.22,0,0,0,0-.31.22.22,0,0,0-.3,0A.21.21,0,0,0,44,164.87Z"/><path class="cls-7" d="M29.62,90.81a.21.21,0,1,0,0-.3A.21.21,0,0,0,29.62,90.81Z"/><path class="cls-7" d="M25.75,109.54a.21.21,0,0,0,.3,0,.22.22,0,0,0,0-.3.22.22,0,0,0-.31,0A.22.22,0,0,0,25.75,109.54Z"/><path class="cls-7" d="M22.11,123.43a.22.22,0,0,0,.3,0,.24.24,0,0,0,0-.31.23.23,0,0,0-.31,0A.22.22,0,0,0,22.11,123.43Z"/><path class="cls-7" d="M12.18,90.91a.21.21,0,1,0,0-.3A.21.21,0,0,0,12.18,90.91Z"/><path class="cls-7" d="M53.73,128.49a.21.21,0,1,0,0-.3A.21.21,0,0,0,53.73,128.49Z"/><path class="cls-7" d="M47.15,102.82a.22.22,0,0,0,.3,0,.21.21,0,0,0,0-.3.22.22,0,0,0-.3,0A.22.22,0,0,0,47.15,102.82Z"/><path class="cls-7" d="M37,91.14a.21.21,0,0,0,.3,0,.22.22,0,0,0,0-.3.21.21,0,1,0-.32.28Z"/><path class="cls-7" d="M26,145.26a.21.21,0,1,0,0-.3A.21.21,0,0,0,26,145.26Z"/><path class="cls-7" d="M42.65,132.91a.22.22,0,0,0,.3,0,.21.21,0,1,0-.3,0Z"/><path class="cls-7" d="M23.33,117.17a.22.22,0,0,0,.31,0,.22.22,0,0,0,0-.3.21.21,0,0,0-.3,0A.22.22,0,0,0,23.33,117.17Z"/><path class="cls-7" d="M27.75,102.84a.21.21,0,1,0,0-.3A.21.21,0,0,0,27.75,102.84Z"/><path class="cls-7" d="M17.53,102.7a.21.21,0,0,0,.3,0,.22.22,0,0,0,0-.3.22.22,0,0,0-.31,0A.22.22,0,0,0,17.53,102.7Z"/><path class="cls-7" d="M46.93,137.6a.21.21,0,0,0,.3,0,.22.22,0,0,0,0-.3.21.21,0,0,0-.32.28Z"/><path class="cls-7" d="M57,136.23a.21.21,0,1,0,0-.3A.21.21,0,0,0,57,136.23Z"/><path class="cls-7" d="M60.64,135.22a.21.21,0,0,0,.32-.28.22.22,0,0,0-.3,0A.21.21,0,0,0,60.64,135.22Z"/><path class="cls-7" d="M53.2,189.31a.22.22,0,0,0,.3,0,.22.22,0,0,0,0-.31.22.22,0,0,0-.3,0A.21.21,0,0,0,53.2,189.31Z"/><path class="cls-7" d="M53.78,182.39a.22.22,0,0,0,.3,0,.21.21,0,0,0,0-.3.22.22,0,0,0-.3,0A.22.22,0,0,0,53.78,182.39Z"/><path class="cls-7" d="M72,191.43a.21.21,0,1,0,0-.3A.21.21,0,0,0,72,191.43Z"/><path class="cls-7" d="M52,155a.21.21,0,1,0,0-.3A.21.21,0,0,0,52,155Z"/><path class="cls-7" d="M39.13,113.48a.22.22,0,0,0,.3,0,.21.21,0,0,0,0-.3.22.22,0,0,0-.3,0A.22.22,0,0,0,39.13,113.48Z"/><path class="cls-7" d="M46.76,173.88a.22.22,0,0,0,.3,0,.21.21,0,1,0-.3,0Z"/><path class="cls-7" d="M62.22,160.87a.66.66,0,0,0,.93.06.66.66,0,1,0-.93-.06Z"/><path class="cls-7" d="M59.94,184.76a.66.66,0,1,0,.06-.93A.66.66,0,0,0,59.94,184.76Z"/><circle class="cls-7" cx="47.33" cy="179.64" r="0.65" transform="translate(-81.92 46.2) rotate(-29.32)"/><path class="cls-7" d="M38.19,130.13a.66.66,0,0,0,.93.05.66.66,0,0,0-.87-1A.66.66,0,0,0,38.19,130.13Z"/><path class="cls-7" d="M25.86,137.4a.64.64,0,0,0,.92.06.65.65,0,0,0,.06-.92.66.66,0,0,0-.93-.06A.65.65,0,0,0,25.86,137.4Z"/><path class="cls-7" d="M43.24,159a.66.66,0,0,0,.93.06.65.65,0,0,0,0-.92.64.64,0,0,0-.92-.06A.65.65,0,0,0,43.24,159Z"/><path class="cls-7" d="M21.59,118.35a.67.67,0,0,0,.93.06.66.66,0,1,0-.93-.06Z"/><path class="cls-7" d="M29.49,157.38a.66.66,0,0,0,.93.06.66.66,0,1,0-.93-.06Z"/><path class="cls-7" d="M55.14,146.9a.66.66,0,1,0-.08-1.31.66.66,0,0,0,.08,1.31Z"/><path class="cls-7" d="M117,61.36a.34.34,0,0,0-.47-.1.35.35,0,1,0,.47.1Z"/><path class="cls-7" d="M127,78.58a.34.34,0,0,0-.47-.1.35.35,0,0,0,.38.58A.34.34,0,0,0,127,78.58Z"/><path class="cls-7" d="M116.72,49a.35.35,0,1,0-.1.48A.34.34,0,0,0,116.72,49Z"/><path class="cls-7" d="M132.7,57.33a.34.34,0,0,0-.48-.1.35.35,0,0,0-.1.48.35.35,0,0,0,.58-.38Z"/><path class="cls-7" d="M122.19,56.21a.35.35,0,0,0-.58.38.35.35,0,1,0,.58-.38Z"/><path class="cls-7" d="M121,79.88a.34.34,0,0,0-.48-.1.35.35,0,0,0-.1.48.34.34,0,0,0,.48.09A.33.33,0,0,0,121,79.88Z"/><path class="cls-7" d="M118.82,114a.34.34,0,1,0-.57.38.35.35,0,0,0,.48.1A.34.34,0,0,0,118.82,114Z"/><path class="cls-7" d="M131.24,97.86a.35.35,0,0,0-.58.38.35.35,0,1,0,.58-.38Z"/><path class="cls-7" d="M125.93,123.91a.35.35,0,1,0-.58.38.35.35,0,0,0,.58-.38Z"/><path class="cls-7" d="M127.21,134.4a.33.33,0,0,0-.47-.1.34.34,0,0,0-.1.48.35.35,0,0,0,.48.1A.34.34,0,0,0,127.21,134.4Z"/><path class="cls-7" d="M122.57,128.26a.34.34,0,0,0-.48-.1.35.35,0,0,0-.09.48.34.34,0,0,0,.57-.38Z"/><path class="cls-7" d="M112.31,158.64a.34.34,0,1,0-.1.48A.34.34,0,0,0,112.31,158.64Z"/><path class="cls-7" d="M134.81,140.09a.34.34,0,1,0-.57.38.35.35,0,0,0,.48.1A.34.34,0,0,0,134.81,140.09Z"/><path class="cls-7" d="M138.55,161.59a.35.35,0,1,0-.1.48A.35.35,0,0,0,138.55,161.59Z"/><path class="cls-7" d="M140.55,130a.35.35,0,1,0-.1.48A.34.34,0,0,0,140.55,130Z"/><path class="cls-7" d="M143.75,104.81a.33.33,0,0,0-.47-.09.33.33,0,0,0-.1.47.34.34,0,1,0,.57-.38Z"/><path class="cls-7" d="M148.61,117.2a.34.34,0,0,0-.48-.1.35.35,0,1,0,.48.1Z"/><path class="cls-7" d="M145.62,123.38a.34.34,0,1,0-.09.48A.35.35,0,0,0,145.62,123.38Z"/><path class="cls-7" d="M115.36,148a.34.34,0,1,0-.57.38.35.35,0,0,0,.48.1A.34.34,0,0,0,115.36,148Z"/><path class="cls-7" d="M140.57,152.21a.35.35,0,0,0-.58.38.35.35,0,0,0,.58-.38Z"/><path class="cls-7" d="M142,136a.35.35,0,1,0-.1.48A.35.35,0,0,0,142,136Z"/><path class="cls-7" d="M138.85,123.18a.34.34,0,1,0-.57.38.34.34,0,0,0,.57-.38Z"/><path class="cls-7" d="M117.82,103.73a.35.35,0,1,0-.58.38.35.35,0,1,0,.58-.38Z"/><path class="cls-7" d="M144,91.94a.35.35,0,0,0-.48-.1.34.34,0,0,0-.1.48.35.35,0,1,0,.58-.38Z"/><path class="cls-7" d="M111.66,126a.34.34,0,0,0-.37.31.35.35,0,0,0,.32.37.33.33,0,0,0,.37-.31A.34.34,0,0,0,111.66,126Z"/><path class="cls-7" d="M127,144.21a.35.35,0,0,0-.37.32.35.35,0,1,0,.69.05A.35.35,0,0,0,127,144.21Z"/><path class="cls-7" d="M143.72,111.64a.34.34,0,0,0-.48-.09.33.33,0,0,0-.09.47.33.33,0,0,0,.47.1A.34.34,0,0,0,143.72,111.64Z"/><path class="cls-7" d="M138.85,75.43a.35.35,0,0,0-.48-.09.34.34,0,0,0-.1.48.35.35,0,0,0,.58-.39Z"/><path class="cls-7" d="M125.61,47.9a.35.35,0,0,0-.48-.1.35.35,0,0,0,.38.58A.35.35,0,0,0,125.61,47.9Z"/><path class="cls-7" d="M142.5,85a.35.35,0,0,0-.48-.1.35.35,0,1,0,.48.1Z"/><path class="cls-7" d="M137.32,108.73a.35.35,0,0,0-.48-.1.34.34,0,0,0-.1.48.35.35,0,1,0,.58-.38Z"/><path class="cls-7" d="M119.64,64.74a.22.22,0,1,0-.06.3A.23.23,0,0,0,119.64,64.74Z"/><path class="cls-7" d="M126.51,53a.21.21,0,0,0-.3-.06.21.21,0,0,0-.06.29.21.21,0,0,0,.3.06A.21.21,0,0,0,126.51,53Z"/><path class="cls-7" d="M116.16,94a.22.22,0,1,0-.36.24.23.23,0,0,0,.3.06A.22.22,0,0,0,116.16,94Z"/><path class="cls-7" d="M121.89,83.85a.21.21,0,1,0-.06.29A.2.2,0,0,0,121.89,83.85Z"/><path class="cls-7" d="M121.88,72.57a.21.21,0,0,0-.29-.06.21.21,0,0,0-.06.3.21.21,0,0,0,.29.06A.21.21,0,0,0,121.88,72.57Z"/><path class="cls-7" d="M129.91,80.52a.21.21,0,1,0-.06.29A.2.2,0,0,0,129.91,80.52Z"/><path class="cls-7" d="M118.13,58.41a.21.21,0,0,0-.29-.07.21.21,0,0,0-.06.3.21.21,0,0,0,.35-.23Z"/><path class="cls-7" d="M120.33,133.41a.23.23,0,0,0-.3-.06.21.21,0,0,0-.06.3.22.22,0,0,0,.3.06A.23.23,0,0,0,120.33,133.41Z"/><path class="cls-7" d="M144.17,98.08a.21.21,0,0,0-.3-.06.22.22,0,0,0-.06.3.23.23,0,0,0,.3.06A.22.22,0,0,0,144.17,98.08Z"/><path class="cls-7" d="M138.81,100.6a.22.22,0,0,0-.29-.06.21.21,0,0,0-.06.3.2.2,0,0,0,.29.06A.21.21,0,0,0,138.81,100.6Z"/><path class="cls-7" d="M118.25,48.14a.21.21,0,0,0-.29-.06.21.21,0,0,0-.06.3.21.21,0,0,0,.29.06A.21.21,0,0,0,118.25,48.14Z"/><path class="cls-7" d="M137,83.46a.21.21,0,1,0-.06.29A.2.2,0,0,0,137,83.46Z"/><path class="cls-7" d="M140.91,158.8a.21.21,0,0,0-.3-.06.22.22,0,0,0-.06.3.22.22,0,0,0,.36-.24Z"/><path class="cls-7" d="M147.35,140.8a.21.21,0,0,0-.29-.07.21.21,0,0,0-.06.3.21.21,0,1,0,.35-.23Z"/><path class="cls-7" d="M148.41,122.08a.21.21,0,1,0-.06.29A.2.2,0,0,0,148.41,122.08Z"/><path class="cls-7" d="M130.08,126.78a.21.21,0,1,0-.06.29A.2.2,0,0,0,130.08,126.78Z"/><path class="cls-7" d="M125.22,144.47a.21.21,0,0,0-.3-.06.22.22,0,0,0-.06.29.21.21,0,0,0,.3.06A.21.21,0,0,0,125.22,144.47Z"/><path class="cls-7" d="M115,157.7a.22.22,0,1,0-.06.3A.22.22,0,0,0,115,157.7Z"/><path class="cls-7" d="M131.09,117.19a.21.21,0,0,0-.3-.06.21.21,0,0,0-.06.29.22.22,0,0,0,.3.07A.23.23,0,0,0,131.09,117.19Z"/><path class="cls-7" d="M137.16,168.23a.21.21,0,0,0-.3-.06.22.22,0,0,0-.06.3.23.23,0,0,0,.3.06A.22.22,0,0,0,137.16,168.23Z"/><path class="cls-7" d="M144.43,147.15a.21.21,0,1,0-.06.29A.2.2,0,0,0,144.43,147.15Z"/><path class="cls-7" d="M110.69,122.66a.21.21,0,1,0-.06.29A.2.2,0,0,0,110.69,122.66Z"/><path class="cls-7" d="M130.29,110.06a.21.21,0,1,0-.06.29A.2.2,0,0,0,130.29,110.06Z"/><path class="cls-7" d="M120.16,110a.21.21,0,0,0-.3-.06.21.21,0,0,0-.06.29.21.21,0,0,0,.3.06A.21.21,0,0,0,120.16,110Z"/><path class="cls-7" d="M116.38,110.5a.21.21,0,0,0-.29-.07.21.21,0,0,0-.06.3.21.21,0,0,0,.35-.23Z"/><path class="cls-7" d="M108.16,127.85a.2.2,0,0,0-.29-.06.21.21,0,0,0-.07.29.21.21,0,0,0,.3.06A.2.2,0,0,0,108.16,127.85Z"/><path class="cls-7" d="M131.29,58a.21.21,0,1,0-.06.29A.2.2,0,0,0,131.29,58Z"/><path class="cls-7" d="M129.75,64.75a.22.22,0,0,0-.36.24.23.23,0,0,0,.3.06A.22.22,0,0,0,129.75,64.75Z"/><path class="cls-7" d="M113,53.26a.21.21,0,0,0-.3-.06.22.22,0,0,0-.06.29.21.21,0,0,0,.3.06A.21.21,0,0,0,113,53.26Z"/><path class="cls-7" d="M127.69,92.13a.22.22,0,0,0-.29-.06.21.21,0,0,0-.06.3.2.2,0,0,0,.29.06A.21.21,0,0,0,127.69,92.13Z"/><path class="cls-7" d="M134.65,135a.22.22,0,0,0-.36.24.23.23,0,0,0,.3.06A.22.22,0,0,0,134.65,135Z"/><path class="cls-7" d="M135.52,74.15a.23.23,0,0,0-.3-.06.22.22,0,1,0,.24.36A.23.23,0,0,0,135.52,74.15Z"/><path class="cls-7" d="M118.39,84.88a.65.65,0,0,0-.91-.19.66.66,0,0,0,.73,1.09A.65.65,0,0,0,118.39,84.88Z"/><path class="cls-7" d="M124,61.54a.66.66,0,1,0-.19.91A.66.66,0,0,0,124,61.54Z"/><path class="cls-7" d="M136.3,68a.65.65,0,0,0-.91-.19.67.67,0,0,0-.19.91.66.66,0,0,0,.91.18A.65.65,0,0,0,136.3,68Z"/><path class="cls-7" d="M134.6,119.62a.66.66,0,0,0-.91-.18.66.66,0,0,0,.73,1.09A.66.66,0,0,0,134.6,119.62Z"/><path class="cls-7" d="M148.16,113.65a.66.66,0,1,0-.19.91A.67.67,0,0,0,148.16,113.65Z"/><path class="cls-7" d="M134.31,89.77a.65.65,0,1,0-1.09.72.65.65,0,0,0,.9.18A.64.64,0,0,0,134.31,89.77Z"/><path class="cls-7" d="M144.56,133.07a.67.67,0,0,0-.91-.19.66.66,0,1,0,.91.19Z"/><path class="cls-7" d="M123.45,99.7a.65.65,0,0,0-.7.6.66.66,0,0,0,.6.71.64.64,0,0,0,.7-.6A.66.66,0,0,0,123.45,99.7Z"/></svg>