<?xml version="1.0" encoding="utf-8"?>
<!-- Generator: Adobe Illustrator 24.0.2, SVG Export Plug-In . SVG Version: 6.00 Build 0)  -->
<svg version="1.1" id="Слой_1" xmlns="http://www.w3.org/2000/svg" xmlns:xlink="http://www.w3.org/1999/xlink" x="0px" y="0px"
	 viewBox="0 0 2000 2000" style="enable-background:new 0 0 2000 2000;" xml:space="preserve">
<style type="text/css">
	.st0{fill:#FFFFFF;}
</style>
<path class="st0" d="M1211,817.61c-13.24,28.81-13.24,18.75,0,47.56c-28.81-13.24-18.75-13.24-47.56,0
	c13.24-28.81,13.24-18.75,0-47.56C1192.25,830.85,1182.19,830.85,1211,817.61z M135.66,655.15c59.33,21.98,45.13,7.78,67.11,67.11
	c21.98-59.33,7.78-45.13,67.11-67.11c-59.33-21.98-45.13-7.78-67.11-67.11C180.8,647.37,195,633.17,135.66,655.15z M1352.09,724.66
	c-28.63-10.61-43.4-14.39-52.38-19.44c2.63-5.39,6.02-12.18,10.18-21.24c-9.05,4.16-15.85,7.55-21.24,10.18
	c-5.05-8.98-8.83-23.75-19.44-52.38c-10.61,28.63-14.39,43.4-19.44,52.38c-5.39-2.63-12.18-6.02-21.24-10.18
	c4.16,9.05,7.55,15.85,10.18,21.24c-8.98,5.05-23.75,8.83-52.38,19.44c28.63,10.61,43.4,14.39,52.38,19.44
	c-2.63,5.39-6.02,12.18-10.18,21.24c9.05-4.16,15.85-7.55,21.24-10.18c5.05,8.98,8.83,23.75,19.44,52.38
	c10.61-28.63,14.39-43.4,19.44-52.38c5.39,2.63,12.19,6.02,21.24,10.18c-4.16-9.05-7.55-15.85-10.18-21.24
	C1308.69,739.05,1323.46,735.27,1352.09,724.66z M344.02,374.37l-70.21-14.01l12.4-8.25l-22.38,4.38l27.75-41.59l-41.41,27.63
	l4.44-22.15l-8.44,12.56l-14.06-70.47l-14.01,70.21l-8.25-12.39l4.38,22.38l-41.59-27.75l27.63,41.41l-22.15-4.44l12.56,8.44
	l-70.47,14.06l70.21,14.01l-12.39,8.25l22.38-4.38l-27.75,41.59l41.41-27.63l-4.44,22.15l8.44-12.56l14.07,70.47l14.01-70.21
	l8.25,12.4l-4.38-22.38l41.59,27.75l-27.63-41.41l22.15,4.44l-12.56-8.44L344.02,374.37z M375.51,565.5
	c-17.53-38.16-17.53-24.83,0-62.99c-38.16,17.53-24.83,17.53-62.99,0c17.53,38.16,17.53,24.83,0,62.99
	C350.68,547.97,337.35,547.97,375.51,565.5z M1293.87,983.52c16.59-44.8,5.87-34.08,50.67-50.67c-44.8-16.59-34.08-5.87-50.67-50.67
	c-16.59,44.8-5.87,34.08-50.67,50.67C1287.99,949.45,1277.27,938.72,1293.87,983.52z M261.63,1672.51
	c369.27,407.79,999.2,438.99,1406.99,69.72s438.99-999.22,69.72-1407.01c-160.1-176.78-369.17-282.73-587.9-316
	c-0.05-0.07-0.1-0.13-0.16-0.2c-0.73-0.9-1.56-1.79-2.53-2.71C1130.88,0.19,1090-3.91,1079.19,3.69c-2.56,1.8-3.62,4.36-3.03,7.04
	c-125.94-9.64-253.57,4.53-375.58,42.88c124.17-13.25,250.88,6.38,366.13,58.19c-0.04,0.1-0.07,0.19-0.11,0.29
	c-0.03,0.09-0.08,0.17-0.1,0.26c-0.5,1.81-2.77,11.62,5.26,17.53c40.14,29.59,40.6,55.13,41.09,82.17
	c0.11,6.27,0.23,12.75,0.88,19.22c3.13,31.27,3.33,176.18,3.34,192.62c-8.62,6.2-64.3,44.43-155.24,65.65
	c-94.61,22.07-140.17,40.82-162.49,66.89c-3.6,4.2-12.91,15.05-15.99,16.35c-0.47-0.81-1.08-2.7-1.55-4.13l-0.51-1.56
	c-3.79-11.42-13.91-72.26-12.15-84.51c11.13,5.49,21.69,6.84,30.68,3.89c7.61-2.5,13.59-7.91,17.3-15.66
	c35.32-73.83,28.36-96.06,22.22-115.67c-3.47-11.1-6.47-20.68-1-39.15c2.16-7.26,2.25-15.32,0.29-23.95
	c-0.21-0.94-0.45-1.89-0.71-2.83c0.29-0.42,0.57-0.85,0.87-1.26c11.08-15.36,8.32-35.36-3.63-50.05
	c-57.4-70.62-167.2-53.13-216.82,4.24c-53.63,62.01-88.06,143.98-106.66,224.43s-30.22,337.6-1.73,505.2s78.77,323.47,75.42,302.94
	c-3.35-20.54,6.7-152.09,65.36-235.42c10.66-15.14,23.01-33.08,35.83-52.94c8.55,28.65,6.96,52.67-4.9,73.33
	c-44.62,77.77-119.3,207.93-60.1,284.87c39.67,51.57,95.05,35.85,106.63,31.81c3.37,4.07,12.77,14.07,30.31,23.51
	c-4.63-1.26-9.34-1.98-13.88-2.02c-0.12,0-0.25,0-0.37,0c-8.94,0-16.17,2.68-21.5,7.97c-8.98,8.9-12.98,24.94-12.98,52
	c0,1.15,0,2.29-0.02,3.39c-0.29,29.37-4.7,33.92-33.35,63.57c-2.88,2.99-6.01,6.22-9.39,9.74c-16.01,16.7-27.59,33.87-35.42,52.49
	c-8.39,11.24-22.32,28.82-26.85,31.83c-1.05,0.7-2.98,0.72-5.32,0.08c-7.04-1.94-17.26-9.77-22.36-20.47l-0.81-1.69
	c-6.97-14.63-11.58-24.3-11.58-37.25c0-6.51,16.12-20.25,29.07-31.29c12.49-10.65,23.28-19.85,25.87-26.48l1.03-2.63
	c4.44-11.32,11.88-30.28,13.35-49.79c0.36-4.76,0.35-9.38-0.04-13.72c-2.18-24.5,2.92-38.11,17.05-45.52
	c14.26-7.47,46.39,4.5,46.71,4.62c1.54,0.58,3.26-0.2,3.84-1.74c0.58-1.54-0.2-3.26-1.73-3.84c-1.42-0.54-34.95-13.03-51.58-4.32
	c-16.38,8.58-22.61,24.42-20.22,51.33c0.35,3.89,0.37,8.04,0.06,12.32c-140.16-29.89-272.56-102.5-376.1-216.85
	C94.18,1057.31,39.43,825.85,83.97,612.01C-64.06,958.68-7.98,1374.79,261.63,1672.51z M1276.38,1257c2.31-2.67,4.14-5.05,5.42-7.08
	c17.05-27.26,19.37-94.57,8.67-124.91c-6.69-18.96-41.15-33.57-61.11-40.59c-30.94-10.89-67.98-18.39-99.09-20.07
	c-1.68-0.08-3.39-0.15-5.09-0.22l-2.25-8.19c-2.91-10.61-14.67-30.39-25.48-39.99c-11.37-10.11-56.92-7.35-75.98-5.7
	c-16.96,1.47-50.84,0.41-60.18,0.08c-2.84-18.12-6.16-37.34-10.98-56.04c-12.15-47.07-16.04-131.44-16.6-145
	c8.84-4.95,47.52-29.44,35.01-72.95c-7.18-24.99-17-44.08-24.89-59.41c-6.63-12.89-11.87-23.07-11.87-30.29c0-1.05,0.24-2,0.74-2.92
	c0.05-0.07,0.1-0.15,0.15-0.23c3.69-6.33,18.54-11.19,39.11-17.91c17.04-5.57,38.24-12.51,62.15-23.13
	c62.09-27.59,175.33-94.54,192.39-121.82c11.22-17.95-9.22-104.96-35.01-208.31c-9.24-37.01-17.21-68.96-19.31-83.65
	c-0.79-5.52-0.82-11.51-0.15-18.18c46.21,31.22,89.43,68.43,128.52,111.61C1554.87,562.94,1541.64,992.19,1276.38,1257z
	 M1021.98,1016.17c28.05-2.43,63.62-2.79,71.51,4.22c9.62,8.55,21.06,27.55,23.69,37.11l1.76,6.39c-29.66-0.85-63.2,0.76-90.4,2.08
	c-25.96,1.26-50.48,2.44-54.64,0.37c-4.33-2.16-7.92-25.55-11.09-46.18l-0.59-3.84C973.04,1016.7,1005.1,1017.64,1021.98,1016.17z
	 M1547.4,1209.45c59.33-21.98,45.13-7.78,67.11-67.11c21.98,59.33,7.78,45.13,67.11,67.11c-59.33,21.98-45.13,7.78-67.11,67.11
	C1592.53,1217.22,1606.73,1231.42,1547.4,1209.45z M1352.29,1525.14l-108.22-21.6l108.63-21.68l-19.36-13.02l34.15,6.85
	l-42.59-63.83l64.11,42.78l-6.76-34.49l12.72,19.11l21.6-108.22l21.68,108.63l13.01-19.36l-6.85,34.15l63.83-42.59l-42.78,64.11
	l34.49-6.76l-19.11,12.72l108.22,21.6l-108.63,21.68l19.36,13.02l-34.15-6.85l42.59,63.83l-64.11-42.78l6.76,34.49l-12.72-19.11
	l-21.6,108.22l-21.68-108.63l-13.02,19.36l6.85-34.15l-63.83,42.59l42.78-64.11l-34.49,6.76L1352.29,1525.14z M1055.76,1711.6
	c59.33-21.98,45.13-7.78,67.11-67.11c21.98,59.33,7.78,45.13,67.11,67.11c-59.33,21.98-45.13,7.78-67.11,67.11
	C1100.9,1719.38,1115.1,1733.58,1055.76,1711.6z M627.02,1610.9c1.89-6.41,6.39-12.64,9.85-21c0.03-0.07,0.07-0.14,0.1-0.21
	c7.54-18.07,18.79-34.76,34.38-51.03c3.37-3.52,6.49-6.75,9.37-9.73c29.4-30.43,34.7-35.91,35.02-67.63
	c0.02-1.11,0.02-2.28,0.02-3.47c0-25,3.57-40.18,11.22-47.77c4.23-4.2,9.89-6.24,17.29-6.24c0.11,0,0.22,0,0.33,0
	c14.86,0.12,31.64,8.12,39.89,19.02c2.84,3.75,5.87,9.54,4.17,15.78c-1.13,4.12-2.65,9.24-4.4,15.17c-0.9,3.02-1.84,6.2-2.79,9.47
	c-5.61,19.17-11.34,40.29-11.34,51.57c0,1.65,1.33,2.98,2.98,2.98c1.64,0,2.98-1.33,2.98-2.98c0-10.52,5.61-31.13,11.1-49.9
	c0.95-3.26,1.9-6.44,2.79-9.45c1.77-5.96,3.29-11.11,4.44-15.29c1.85-6.8,0.06-14.04-5.17-20.95c-3.1-4.09-7.26-7.8-12.04-10.96
	c9.68,3.6,20.94,6.73,33.97,8.9c7.52,1.25,14.98,1.86,22.4,1.86c53.1,0,104.92-30.9,174.13-76.04
	c37.77-24.64,64.38-36.41,85.76-45.86c22.18-9.81,39.7-17.55,58.77-34.88c37.18-33.82,83.05-59.57,91.83-59.57
	c1.64,0,2.98-1.33,2.98-2.98c0-1.65-1.33-2.98-2.98-2.98c-11.31,0-58.74,27.38-95.84,61.12c-18.36,16.68-34.64,23.88-57.17,33.84
	c-21.57,9.54-48.43,21.41-86.6,46.32c-77.71,50.68-133.08,83.16-192.29,73.29c-58.22-9.7-80.27-39.91-80.49-40.22
	c0-0.01-0.01-0.01-0.02-0.02c-0.03-0.04-0.04-0.08-0.07-0.11c-24.24-30.77-22.6-83.11-21.72-111.23l0.12-4.06
	c0.72-25.29,19.74-77.5,19.93-78.02c0.57-1.55-0.23-3.26-1.77-3.82c-1.54-0.57-3.26,0.23-3.82,1.77
	c-0.8,2.18-19.54,53.65-20.29,79.9l-0.12,4.04c-0.87,27.93-2.48,79.14,20.57,111.86c-13.58,4.54-62.09,16.41-98.16-30.47
	c-52.39-68.09,3.79-179.34,60.55-278.27c13.06-22.76,14.6-49.09,4.71-80.48c-0.25-0.78-0.52-1.57-0.78-2.35
	c15.32-24.06,31.12-50.71,45.37-78.54c6.26,12.21,11.29,24.09,14.53,35.56c3.65,12.92,7.58,24.69,11.04,35.08
	c10.45,31.35,18,54.01,9.14,78.17l-12.29,33.52c-0.57,1.55,0.23,3.26,1.77,3.82c0.34,0.12,0.68,0.18,1.03,0.18
	c1.21,0,2.35-0.75,2.8-1.95l12.29-33.52c9.58-26.12,1.75-49.6-9.08-82.1c-3.44-10.33-7.35-22.04-10.96-34.82
	c-3.7-13.09-9.6-26.6-16.95-40.48c36.77-73.55,61.79-154.47,38.3-217.1c-41.49-110.62-48.24-236.04,10.42-301.4
	c26.79-29.86,34.95-59.78,45.29-79.49c1.04,6.37,0.77,12.15-0.84,17.56c-5.99,20.2-2.58,31.09,1.02,42.62
	c5.81,18.57,12.39,39.61-21.91,111.32c-2.99,6.24-7.75,10.59-13.78,12.57c-7.94,2.61-17.62,1.05-27.99-4.49
	c-1.55-0.83-3.25-0.68-4.53,0.41c-1.72,1.45-4.92,4.15,1.27,45.43c3.12,20.82,7.28,41.89,8.92,46.82l0.5,1.52
	c1.32,4.07,2.46,7.58,5.87,8.26c4.1,0.83,8.43-2.79,21.86-18.45c21.41-25,66.07-43.22,159.31-64.97
	c100.02-23.33,158.1-67.14,158.68-67.58c0.74-0.56,1.17-1.44,1.17-2.37c0-6.58-0.04-161.43-3.37-194.73
	c-0.62-6.23-0.74-12.59-0.85-18.74c-0.49-27.3-1-55.53-43.51-86.86c-2.78-2.05-3.47-5.01-3.51-7.37c3.79,2.03,9.3,4.79,13.2,5.87
	c0.04,0.01,0.08,0.02,0.12,0.03l0,0c4.87,1.31,16.21,4.36,22.63-3.15c6.67-7.79,11.26-27.74-25.67-110.72
	c-0.19-0.43-0.27-0.61,0.55-1.19c7.87-5.54,45.93-2.36,61.02,12.06c0.78,0.74,1.46,1.47,2.03,2.17
	c41.07,50.01,32.73,87.18,25.38,119.97c-1.97,8.78-3.83,17.07-4.81,25.45c-0.91,7.85-0.9,14.81,0.03,21.28
	c2.14,14.99,10.15,47.08,19.43,84.25c18.53,74.24,46.53,186.44,35.74,203.7c-16.23,25.97-129.75,92.87-189.76,119.53
	c-23.63,10.5-44.67,17.38-61.58,22.92c-22.07,7.22-36.81,12.06-42,19.98c-2.67,2.02-17.71,13.96-34.35,38.22
	c-17.79,25.95-19.05,34.07-19.13,34.91c-0.16,1.64,1.03,3.1,2.67,3.26c0.1,0.01,0.2,0.02,0.3,0.02c1.51,0,2.81-1.15,2.96-2.68
	c0.04-0.22,1.36-7.7,18.12-32.13c10.96-15.98,21.32-26.52,27.51-32.15c0.93,8.09,5.82,17.62,12.35,30.32
	c7.77,15.1,17.44,33.9,24.46,58.33c10.98,38.21-21.17,59.85-30.96,65.44l-25.4-54.86c-0.69-1.49-2.46-2.14-3.96-1.45
	c-1.49,0.69-2.14,2.46-1.45,3.96l26.47,57.17c0.31,8.1,4.04,97.98,16.84,147.53c4.97,19.24,8.33,39.15,11.23,57.8
	c0.01,0.07,0.02,0.15,0.03,0.22l1.12,7.28c4.68,30.45,7.32,45.86,13.49,50.08c1.97,2.89,12.54,17.55,36.62,36.51
	c24.56,19.34,20.17,53.89,20.12,54.24c-0.22,1.63,0.92,3.13,2.55,3.36c0.14,0.02,0.28,0.03,0.41,0.03c1.46,0,2.74-1.08,2.95-2.57
	c0.22-1.55,4.95-38.25-22.34-59.73c-16.13-12.7-26.07-23.51-31.23-29.78c9.28,0.6,25.32-0.11,49.34-1.27
	c28.31-1.37,63.55-3.07,93.94-1.95c0.03,0,0.07,0,0.1,0c0,0,0,0,0.01,0s0,0,0,0c2.4,0.08,4.75,0.19,7.08,0.31
	c61.89,3.35,145.53,30.17,154.88,56.69c10.08,28.56,7.87,94.23-8.1,119.77c-16.31,26.11-125.91,109.42-199.06,146.84
	c-43.2,22.1-120.84,43.9-179.08,56.93c-0.11,0.03-0.23,0.06-0.33,0.1c-56.1,19.61-81.93,32.42-89.14,44.2
	c-9.56,15.64-24.97,34.97-37.36,50.49c-13.74,17.22-21.59,27.21-23.27,32.25c-3.14,9.46-17.71,37.15-31.9,43.47
	c-11.64,5.16-73.98,11.81-89.7,5.58C622.46,1624.87,625.52,1615.99,627.02,1610.9z"/>
</svg>
