<?xml version="1.0" encoding="utf-8"?>
<!-- Generator: Adobe Illustrator 24.0.2, SVG Export Plug-In . SVG Version: 6.00 Build 0)  -->
<svg version="1.1" id="Слой_1" xmlns="http://www.w3.org/2000/svg" xmlns:xlink="http://www.w3.org/1999/xlink" x="0px" y="0px"
	 viewBox="0 0 2000 859" style="enable-background:new 0 0 2000 859;" xml:space="preserve">
<path d="M587.98,429.48c0,115.01-55.69,216.98-141.54,280.49c-6.08,4.49-12.31,8.82-18.7,12.94h-0.05
	c-6.92,4.44-13.95,8.61-21.19,12.58c-2.69,1.48-5.44,2.96-8.24,4.39h-0.05c-47.66,24.41-101.6,38.2-158.76,38.2
	c-2.75,0-5.44-0.05-8.19-0.1h-0.05c-2.54-0.05-5.07-0.16-7.61-0.26c-0.74,0-1.48-0.05-2.22-0.11c-3.64-0.16-7.24-0.42-10.83-0.74
	c-11.78-0.95-23.3-2.48-34.71-4.65c-0.05,0-0.05,0-0.05,0c-3.28-0.58-6.6-1.22-9.83-1.9c0,0,0,0-0.05,0
	c-10.99-2.38-21.77-5.28-32.33-8.67c-2.69-0.84-5.34-1.69-7.98-2.64C78.24,742.67,35.61,716.46,0,682.81
	c37.25,18.17,79.14,28.42,123.42,28.42c155.65,0,281.76-126.11,281.76-281.75c0-155.59-126.11-281.76-281.76-281.76
	c-44.27,0-86.17,10.25-123.42,28.48c36.61-34.65,80.73-61.44,129.7-77.66c2.8-0.9,5.6-1.8,8.4-2.64c11.1-3.38,22.4-6.18,33.87-8.45
	c3.33-0.63,6.66-1.22,9.98-1.74c11.41-1.96,22.98-3.28,34.76-4.02c5.65-0.37,11.31-0.58,17.06-0.69c1.85-0.05,3.75-0.05,5.65-0.05
	c54.52,0,106.19,12.52,152.16,34.87c3.01,1.48,5.97,2.96,8.93,4.49c12.1,6.34,23.72,13.32,34.92,20.92
	c6.45,4.39,12.68,8.98,18.81,13.74C535.67,218.78,587.98,318,587.98,429.48z M1594.82,429.48c0-155.59,126.11-281.76,281.76-281.76
	c44.27,0,86.17,10.25,123.42,28.48c-36.61-34.65-80.73-61.44-129.7-77.66c-2.8-0.9-5.6-1.8-8.4-2.64
	c-11.1-3.38-22.4-6.18-33.87-8.45c-3.33-0.63-6.66-1.22-9.98-1.74c-11.41-1.96-22.98-3.28-34.76-4.02
	c-5.65-0.37-11.31-0.58-17.06-0.69c-1.85-0.05-3.75-0.05-5.65-0.05c-54.52,0-106.19,12.52-152.16,34.87
	c-3.01,1.48-5.97,2.96-8.93,4.49c-12.1,6.34-23.72,13.32-34.92,20.92c-6.45,4.39-12.68,8.98-18.81,13.74
	c-81.42,63.82-133.72,163.05-133.72,274.52c0,115.01,55.69,216.98,141.54,280.49c6.08,4.49,12.31,8.82,18.7,12.94h0.05
	c6.92,4.44,13.95,8.61,21.19,12.58c2.69,1.48,5.44,2.96,8.24,4.39h0.05c47.66,24.41,101.6,38.2,158.76,38.2
	c2.75,0,5.44-0.05,8.19-0.1h0.05c2.54-0.05,5.07-0.16,7.61-0.26c0.74,0,1.48-0.05,2.22-0.11c3.64-0.16,7.24-0.42,10.83-0.74
	c11.78-0.95,23.3-2.48,34.71-4.65c0.05,0,0.05,0,0.05,0c3.28-0.58,6.6-1.22,9.83-1.9c0,0,0,0,0.05,0
	c10.99-2.38,21.77-5.28,32.33-8.67c2.69-0.84,5.34-1.69,7.98-2.64c47.34-16.33,89.97-42.53,125.58-76.19
	c-37.25,18.17-79.14,28.42-123.42,28.42C1720.94,711.23,1594.82,585.12,1594.82,429.48z M1000,17.48
	c-227.55,0-412.02,184.47-412.02,412.02c0,227.55,184.47,412.02,412.02,412.02s412.02-184.47,412.02-412.02
	C1412.02,201.95,1227.55,17.48,1000,17.48z"/>
</svg>
