<?xml version="1.0" encoding="utf-8"?>
<!-- Generator: Adobe Illustrator 24.0.2, SVG Export Plug-In . SVG Version: 6.00 Build 0)  -->
<svg version="1.1" id="Слой_1" xmlns="http://www.w3.org/2000/svg" xmlns:xlink="http://www.w3.org/1999/xlink" x="0px" y="0px"
	 viewBox="0 0 1571.67 2000" style="enable-background:new 0 0 1571.67 2000;" xml:space="preserve">
<path d="M516.13,1843.78c-24.67,0.05-46.63,11.54-60.9,29.42c10.73,13.36,17.21,30.31,17.23,48.78
	c0.05,18.48-6.33,35.45-17.04,48.83c14.36,17.83,36.38,29.23,61.05,29.18c43.12-0.1,78.01-35.14,77.94-78.28
	C594.32,1878.58,559.28,1843.68,516.13,1843.78z M524.05,1965.68l-1.48-13.1c-1.6-13.96-8.6-24.93-17.88-27.92l-10.33-3.3
	l10.45-2.96c9.37-2.65,16.75-13.36,18.83-27.27l1.94-13.03l1.51,13.1c1.58,13.96,8.6,24.91,17.86,27.92l10.35,3.3l-10.44,2.96
	c-9.37,2.65-16.76,13.36-18.84,27.27L524.05,1965.68z M514.53,1205.28c-1.9-0.93-3.23-2.86-3.23-5.13c0-3.16,2.56-5.72,5.72-5.72
	c3.16,0,5.72,2.56,5.72,5.72c0,1.49-0.58,2.83-1.5,3.84c2.51-0.33,5.06-0.52,7.66-0.52c12.63,0,24.29,4.08,33.78,10.97
	c-14.4,10.46-23.77,27.42-23.77,46.58c0,19.16,9.37,36.12,23.77,46.58c-9.49,6.89-21.16,10.97-33.78,10.97
	c-31.78,0-57.55-25.77-57.55-57.55C471.36,1234.19,489.7,1211.66,514.53,1205.28z M380.18,627.94c-0.03-0.05-0.06-0.11-0.1-0.15
	c-0.03-0.06-0.08-0.1-0.14-0.14c-0.04-0.04-0.09-0.07-0.14-0.1c-0.05-0.03-0.1-0.05-0.16-0.07c-0.02-0.01-0.04-0.02-0.06-0.02
	c-0.1-0.02-9.62-2.05-22.1-1.56c-11.55,0.45-28.08,3.21-41.27,13.78c-13.21,10.59-19.03,26.66-21.58,38.29
	c-2.76,12.56-2.4,22.78-2.4,22.88c0,0.01,0,0.03,0,0.03c0,0.08,0.01,0.15,0.04,0.22c0.01,0.04,0.03,0.08,0.05,0.13
	c0.02,0.04,0.06,0.09,0.09,0.13l0.04,0.05c0.05,0.05,0.08,0.08,0.13,0.12c0.07,0.04,0.14,0.08,0.22,0.1
	c0.04,0.02,0.08,0.02,0.12,0.04c0.06,0.01,0.12,0.01,0.18,0.01c0.32,0,7.88-0.06,18.67-2.62c9.95-2.35,24.56-7.37,37.7-17.89
	c13.15-10.54,20.82-24.31,24.93-34c4.46-10.5,5.8-18.39,5.85-18.73c0.01-0.12,0.01-0.24-0.01-0.35
	C380.23,628.05,380.21,628,380.18,627.94z M322.33,647.33l4.21,1.75l4.49-0.79l-1.75,4.21l0.79,4.49l-4.21-1.75l-4.49,0.79
	l1.75-4.21L322.33,647.33z M316.21,649.6c-0.78,3.04-0.17,6.38,1.94,9.02c3.56,4.44,10.08,5.16,14.52,1.6
	c4.44-3.56,5.16-10.07,1.6-14.52c-2.12-2.64-5.28-3.97-8.44-3.86c4.89-3.21,9.98-5.61,14.9-7.4c1.64,1.19,3.13,2.62,4.42,4.24
	c8.01,10,6.4,24.64-3.59,32.64c-9.99,8.01-24.64,6.4-32.65-3.6c-1.19-1.49-2.2-3.1-2.97-4.8
	C308.67,658.32,312.04,653.75,316.21,649.6z M377.87,631.27c-0.04,0.22-0.1,0.45-0.16,0.7c-0.29,1.15-0.66,2.53-1.13,4.11
	c-0.06,0.2-0.12,0.4-0.17,0.6c-0.88,2.82-2.05,6.21-3.61,9.88c-4.05,9.49-11.56,22.97-24.41,33.27c-0.74,0.6-1.48,1.18-2.23,1.73
	c-1.01,0.75-2.02,1.47-3.04,2.16c-0.8,0.54-1.6,1.06-2.4,1.57c-0.29,0.18-0.58,0.36-0.86,0.53c-0.76,0.47-1.51,0.91-2.28,1.34
	c-0.32,0.18-0.64,0.37-0.97,0.55c-0.38,0.21-0.76,0.41-1.13,0.62c-0.34,0.19-0.69,0.38-1.05,0.55c-0.35,0.19-0.71,0.38-1.07,0.56
	c-0.36,0.18-0.73,0.36-1.09,0.53c-0.35,0.18-0.72,0.35-1.08,0.52c-0.36,0.17-0.72,0.35-1.07,0.5c-0.35,0.16-0.72,0.32-1.07,0.49
	c-0.36,0.15-0.72,0.31-1.08,0.46c-1.06,0.45-2.12,0.88-3.17,1.28c-0.65,0.25-1.29,0.49-1.95,0.73c-0.41,0.15-0.82,0.3-1.23,0.43
	c-0.32,0.11-0.64,0.22-0.96,0.32c-0.75,0.26-1.48,0.5-2.21,0.72c-0.54,0.17-1.08,0.34-1.62,0.49c-0.06,0.02-0.12,0.03-0.17,0.05
	c-0.65,0.18-1.3,0.37-1.93,0.54c-0.33,0.09-0.64,0.17-0.96,0.26c-1.57,0.41-3.08,0.76-4.52,1.07c-0.29,0.06-0.58,0.13-0.86,0.18
	c-1.43,0.3-2.77,0.54-4.03,0.76c-0.43,0.06-0.85,0.14-1.26,0.2c-4.33,0.67-7.54,0.88-9.05,0.95c0.24-2.59,1.14-10.2,4.05-19.34
	c1.49-4.69,3.67-10.24,6.8-15.85c0.74,1.42,1.63,2.79,2.65,4.06c8.61,10.75,24.35,12.48,35.1,3.87
	c10.74-8.61,12.48-24.35,3.87-35.09c-1.14-1.43-2.43-2.71-3.83-3.83c6.1-2.06,11.88-3.23,16.67-3.89c9.2-1.27,16.49-0.93,19-0.75
	C378.25,629.62,378.1,630.35,377.87,631.27z M365.83,623.28c-0.19-0.34-0.23-0.73-0.12-1.1l5.06-17.56c0.22-0.76,1.02-1.2,1.79-0.99
	c0.37,0.11,0.68,0.35,0.86,0.69c0.19,0.34,0.23,0.73,0.12,1.1l-5.06,17.56c-0.08,0.29-0.25,0.54-0.48,0.73
	c-0.26,0.21-0.58,0.32-0.9,0.32c-0.13,0-0.27-0.02-0.4-0.06C366.33,623.86,366.02,623.61,365.83,623.28z M320.91,603.35
	c-0.22-0.76,0.22-1.57,0.98-1.79c0.77-0.22,1.57,0.22,1.79,0.98l7.42,25.41c0.16,0.56-0.03,1.16-0.48,1.53
	c-0.15,0.12-0.32,0.21-0.5,0.26c-0.13,0.04-0.27,0.06-0.4,0.06c-0.24,0-0.48-0.06-0.69-0.18c-0.34-0.19-0.58-0.49-0.69-0.86
	L320.91,603.35z M346.41,624.89c-0.25-0.3-0.36-0.67-0.32-1.06l1.83-19.08c0.08-0.79,0.78-1.36,1.58-1.3
	c0.38,0.04,0.73,0.22,0.98,0.52c0.25,0.3,0.36,0.67,0.32,1.06l-1.83,19.08c-0.04,0.39-0.23,0.75-0.53,0.99
	c-0.26,0.21-0.57,0.32-0.9,0.32c-0.05,0-0.09,0-0.14-0.01C347,625.37,346.65,625.19,346.41,624.89z M291.26,685.59
	c0.03,0.46-0.18,0.91-0.54,1.21l0,0c-0.24,0.19-0.52,0.3-0.82,0.31l-19.61,1.06c-0.03,0-0.05,0-0.08,0c-0.35,0-0.69-0.13-0.96-0.37
	c-0.29-0.26-0.46-0.61-0.48-1c-0.02-0.39,0.11-0.76,0.37-1.04c0.26-0.29,0.61-0.46,1-0.48l19.61-1.06
	C290.53,684.16,291.21,684.79,291.26,685.59z M277.77,636.92c0.19-0.34,0.49-0.58,0.86-0.69c0.37-0.11,0.76-0.06,1.1,0.12
	l23.37,12.87c0.7,0.38,0.95,1.26,0.57,1.96c-0.09,0.17-0.21,0.31-0.36,0.43c-0.26,0.21-0.58,0.32-0.9,0.32
	c-0.24,0-0.48-0.06-0.7-0.18l-23.37-12.87C277.64,638.5,277.39,637.62,277.77,636.92z M273.91,665.33
	c-0.24-0.31-0.34-0.68-0.29-1.07c0.05-0.38,0.24-0.72,0.55-0.96c0.3-0.24,0.68-0.34,1.06-0.29l18.58,2.31
	c0.38,0.05,0.72,0.24,0.96,0.55c0.24,0.31,0.34,0.68,0.29,1.07c-0.05,0.37-0.23,0.71-0.53,0.95c-0.26,0.21-0.57,0.32-0.9,0.32
	c-0.06,0-0.12,0-0.18-0.01l-18.58-2.31C274.48,665.83,274.14,665.64,273.91,665.33z M1040.9,754.61l6.62,12.11l12.11,6.62
	l-12.11,6.62l-6.62,12.11l-6.62-12.11l-12.11-6.62l12.11-6.62L1040.9,754.61z M218.53,1648.31l12.11-6.62l6.62-12.11l6.62,12.11
	l12.11,6.62l-12.11,6.62l-6.62,12.11l-6.62-12.11L218.53,1648.31z M1019.15,711.53l-29.29,5.85l-5.85,29.29l-5.84-29.29l-29.29-5.85
	l29.29-5.84l5.84-29.29l5.85,29.29L1019.15,711.53z M229.77,749.89l15.58,19.43l-21.85-11.96l-19.43,15.58l11.96-21.85l-15.58-19.43
	l21.85,11.96l19.43-15.58L229.77,749.89z M344.91,876.91l11.96-21.85l-15.58-19.43l21.85,11.96l19.43-15.58l-11.96,21.85
	l15.58,19.43l-21.85-11.96L344.91,876.91z M124.59,444.58l0.76,24.9l23.28,8.86l-24.9,0.76l-8.86,23.28l-0.76-24.9l-23.28-8.86
	l24.9-0.76L124.59,444.58z M503.75,880.42l8.43-15.4l-10.99-13.7l15.4,8.43l13.7-10.99l-8.43,15.4l10.99,13.7l-15.4-8.43
	L503.75,880.42z M1363.15,381.58l-20.13-2.2l9.01,18.13l-2.2,20.13l18.13-9.01l20.13,2.2l-9.01-18.13l2.2-20.13L1363.15,381.58z
	 M1383.41,407.56l-15.95-1.74l-14.37,7.14l1.74-15.95l-7.14-14.37l15.95,1.74l14.37-7.14l-1.74,15.95L1383.41,407.56z
	 M976.68,804.74l16.65,5.04l-16.65,5.04c-8.58,2.6-15.23,12.79-16.96,25.96l-3.69,27.94l-3.67-27.94
	c-1.73-13.17-8.4-23.36-16.98-25.96l-16.65-5.04l16.65-5.04c8.58-2.6,15.25-12.79,16.98-25.96l3.67-27.94l3.69,27.94
	C961.45,791.96,968.11,802.15,976.68,804.74z M1280.66,391.1c-20.93,28.2-15.03,68.01,13.16,88.93c28.2,20.93,68,15.04,88.93-13.16
	c5.95-8.02,9.73-16.99,11.45-26.18c1.31,10.98,0.32,22.23-3.08,33c-0.18,0.61-0.39,1.2-0.59,1.8c-0.81,2.37-1.73,4.71-2.78,7.02
	c-0.01,0.01-0.01,0.01-0.01,0.01c-0.31,0.68-0.64,1.36-0.98,2.04c0,0,0,0-0.01,0.01c-1.14,2.36-2.41,4.65-3.82,6.91
	c-0.43,0.69-0.86,1.38-1.32,2.06c-0.09,0.14-0.18,0.28-0.28,0.42c-0.32,0.47-0.64,0.95-0.97,1.41l-0.01,0.01
	c-0.36,0.5-0.71,1-1.08,1.5c-7.69,10.36-17.44,18.28-28.27,23.63l-0.01,0.01c-0.64,0.32-1.27,0.61-1.9,0.9
	c-1.69,0.78-3.39,1.49-5.13,2.15l-0.01,0.01c-1.61,0.6-3.23,1.15-4.86,1.65c-23.05,7.02-49.01,3.39-69.85-12.07
	c-20.2-14.99-31.14-37.81-31.76-61.14c-0.04-1.75-0.03-3.5,0.04-5.25c0.13-3.05,0.43-6.1,0.91-9.14c0.12-0.74,0.25-1.48,0.39-2.22
	c2.13-11.33,6.81-22.38,14.14-32.26c0.26-0.34,0.51-0.69,0.77-1.02c0.79-1.03,1.59-2.02,2.42-3c1.72-2.04,3.51-3.95,5.4-5.76
	c0.54-0.53,1.1-1.06,1.66-1.57c1.95-1.77,3.98-3.44,6.09-5c0.53-0.39,1.07-0.78,1.61-1.17c9.52-6.69,20.31-11.08,31.51-13.06
	C1294.11,376.86,1286.62,383.08,1280.66,391.1z M286.73,1705.99c-1.55,2.1-3.23,4.13-5,6.07c-0.53,0.57-1.05,1.12-1.58,1.67
	c-1.82,1.89-3.73,3.68-5.76,5.4c-0.26,0.21-0.5,0.43-0.76,0.62c-0.72,0.6-1.46,1.22-2.25,1.79c-0.31,0.26-0.67,0.5-1,0.76
	c-0.19,0.14-0.36,0.26-0.55,0.41c-5.07,3.7-10.47,6.72-16.04,9.03c-2.03,0.86-4.09,1.63-6.17,2.29c-0.62,0.19-1.24,0.38-1.86,0.57
	c-1.55,0.45-3.11,0.86-4.68,1.22c-0.98,0.24-1.96,0.43-2.96,0.62c-0.74,0.12-1.48,0.26-2.22,0.38c-3.04,0.48-6.07,0.76-9.13,0.91
	c-1.53,0.07-3.01,0.07-4.52,0.05h-0.74c-1.94-0.05-3.87-0.17-5.81-0.38c-1.32-0.12-2.63-0.29-3.94-0.5
	c-7.86-1.17-15.54-3.56-22.75-7.07c-0.69-0.31-1.36-0.65-2.03-1c-0.74-0.38-1.48-0.79-2.22-1.22c-0.02-0.01-0.04-0.03-0.06-0.04
	c-1.14-0.65-2.27-1.32-3.38-2.04c-5.07-3.23-9.82-7.05-14.13-11.5c-1.12-1.15-2.2-2.34-3.23-3.56c-1.27-1.43-2.44-2.92-3.58-4.45
	c-0.26-0.36-0.53-0.72-0.79-1.1c-1.29-1.79-2.49-3.63-3.59-5.5c-1.51-2.53-2.87-5.11-4.06-7.74c-0.67-1.43-1.29-2.92-1.87-4.4
	c-1.46-3.8-2.61-7.7-3.44-11.64c-0.48-2.15-0.84-4.33-1.1-6.5c-0.14-1.03-0.24-2.08-0.33-3.11c-0.14-1.6-0.24-3.18-0.26-4.78
	c-0.21-7.72,0.72-15.44,2.75-22.9c0.19-0.72,0.41-1.46,0.62-2.18c0.24-0.81,0.5-1.6,0.76-2.41c0.29-0.81,0.57-1.65,0.88-2.46
	c0.67-1.74,1.39-3.44,2.15-5.14c0.29-0.62,0.6-1.27,0.91-1.89h0.02c1.96-3.99,4.28-7.82,6.91-11.47c0.96-1.29,1.94-2.56,2.96-3.8
	c3.97-4.78,8.56-9.15,13.74-13c0.5-0.38,1-0.72,1.51-1.08v-0.02c0.48-0.33,0.93-0.65,1.41-0.98c0.14-0.1,0.29-0.17,0.43-0.26
	c0.67-0.48,1.36-0.91,2.06-1.34c0.1-0.05,0.19-0.12,0.29-0.17c1.39-0.86,2.77-1.65,4.18-2.39c0.81-0.45,1.63-0.86,2.44-1.27
	c0.02,0,0.02,0,0.02,0c0.67-0.33,1.36-0.67,2.03-0.98c2.32-1.05,4.66-1.96,7.03-2.77c0.6-0.21,1.2-0.41,1.79-0.6
	c3.92-1.24,7.91-2.15,11.93-2.75c1.58-0.24,3.18-0.43,4.78-0.57c5.45-0.5,10.9-0.41,16.3,0.24c-5.57,1.05-11.07,2.84-16.3,5.43
	c-1.62,0.79-3.2,1.65-4.78,2.61c-1.74,1.03-3.44,2.18-5.11,3.42c-5.28,3.92-9.78,8.51-13.48,13.55c-1.12,1.55-2.18,3.16-3.18,4.8
	c-3.35,5.62-5.78,11.66-7.27,17.95c-0.45,1.86-0.81,3.75-1.1,5.66c-0.6,4.18-0.79,8.44-0.53,12.69c0.07,1.79,0.26,3.61,0.53,5.4
	c0.41,2.92,1.03,5.83,1.86,8.68c0.45,1.63,0.98,3.2,1.58,4.78c0.74,1.98,1.6,3.94,2.58,5.88c0.69,1.43,1.48,2.82,2.32,4.21
	c1,1.7,2.1,3.39,3.32,5.02c0.07,0.1,0.14,0.22,0.22,0.31c0.88,1.2,1.82,2.37,2.77,3.49c1.41,1.65,2.89,3.2,4.42,4.66
	c1.22,1.17,2.49,2.27,3.78,3.32c2.32,1.89,4.76,3.59,7.29,5.11c1.55,0.93,3.16,1.82,4.78,2.61c3.85,1.89,7.86,3.37,11.98,4.42
	c1.86,0.48,3.75,0.88,5.66,1.2c6.41,1.08,12.96,1.15,19.43,0.22c1.91-0.26,3.8-0.62,5.69-1.08c8.03-1.91,15.82-5.43,22.9-10.64
	c0.07-0.05,0.17-0.12,0.24-0.17c1.39-1.03,2.7-2.08,3.97-3.23c6.12-5.33,10.99-11.64,14.56-18.52c-1.32,7.48-3.71,14.75-7.15,21.61
	c-0.69,1.43-1.46,2.84-2.27,4.23c-1.12,1.94-2.34,3.82-3.63,5.66C287.51,1704.91,287.11,1705.46,286.73,1705.99z M1551.67,369.12
	c-144.46,155.82-290.65,313.3-318.37,342.27c-3.94,4.11-8.34,8.39-13.12,12.76c-6.6,6.05-13.93,12.31-21.82,18.69
	c-21.94,17.76-48.16,36.62-75.1,54.97c-5.95,4.06-11.93,8.13-17.9,12.12c-21.2,14.22-42.33,27.92-61.6,40.39
	c-1.96,1.24-3.87,2.49-5.76,3.7c-3.54,2.29-7,4.54-10.37,6.72c-20.15,13.05-37.72,24.52-50.67,33.61c-1.51,1.05-2.94,2.08-4.3,3.06
	c-3.68,2.65-7.17,5.19-10.52,7.62c-18.62,13.58-32.34,24.24-43.36,34.42c-4.68,4.33-8.87,8.56-12.74,12.91
	c-9.25,10.37-16.64,21.32-24.45,35.37c-0.72,1.32-1.43,2.61-2.08,3.85c-3.2,5.93-5.93,11.52-8.29,16.95
	c-7.34,16.66-11.45,31.65-14.89,48.45c-1.24,6.05-2.39,12.36-3.59,19.03c-0.45,2.46-0.91,5-1.36,7.58l-1,5.67
	c-2.01,11.28-3.04,21.49-3.8,30.71c-0.19,2.22-0.38,4.42-0.55,6.53c-0.33,4.33-0.67,8.37-1.05,12.07
	c-1.29,12.26-3.25,21.3-8.96,26.27c-4.37,1.05-26.79-4.73-45.27-21.44c-8.2-7.41-15.23-19.86-20.72-36.31
	c-2.25-6.62-4.23-13.89-5.95-21.75c-4.02-18.21-6.6-39.51-7.46-62.96c-0.14-4.02-0.19-8.01-0.14-11.95
	c0.12-6.96,0.57-13.79,1.36-20.56c2.94-25.48,10.68-49.84,23.47-73.69c2.84-5.33,5.93-10.61,9.32-15.89
	c11.31-17.81,25.53-35.37,42.74-52.99c0.5-0.53,1-1.03,1.48-1.55c4.26-4.4,8.39-8.89,12.36-13.48
	c23.19-26.67,41.57-55.36,53.78-76.87c4.47-7.89,8.13-14.79,10.88-20.32c3.04-6.09,5-10.47,5.76-12.48
	c1.36-3.54,1.2-9.66-8.96-30.02c-5.78-11.57-12.74-23.5-15.99-28.71c-0.02,0-0.02,0-0.02-0.02c-6.48-10.13-17.21-26.72-26.36-40.82
	c-9.18-14.13-16.78-25.74-16.92-25.98c-1.6-2.46-4.9-3.15-7.36-1.55c-2.46,1.6-3.16,4.9-1.53,7.36c0.19,0.29,13.36,20.51,26,40.04
	c4.54,7,9.04,13.94,12.81,19.81c-3.42,0.26-9.2,0.65-15.75,1.05c-3.54,0.24-7.29,0.48-11.02,0.69c-57.46,3.56-73.24,4.92-76.63,6.57
	c-3.3,1.63-12.62,5.35-29.14,10.78c-5.16,1.7-11.04,3.54-17.64,5.55c-0.07,0.05-0.17,0.05-0.26,0.1
	c-28.47,8.6-48.12,21.53-67.79,44.58c-8.68,10.18-20.48,21.63-30.88,31.74c-13.03,12.62-24.28,23.54-28.37,30.67
	c-5.04,8.77-23.57,37.14-40.97,61.19c-3.61,5.02-7.22,9.87-10.61,14.27c-3.78,4.9-7.31,9.3-10.47,12.91
	c-19.53,22.35-42.95,32.79-55.19,37.05c-8.06,2.82-17.23,2.56-21.37-0.57c-1.74-1.29-2.46-3.04-2.32-5.62
	c0.5-8.75,19-41.76,32.51-65.85c2.32-4.16,4.57-8.2,6.72-12.07c3.18-5.69,6.07-11.02,8.56-15.68c0.72-1.43,1.43-2.8,2.1-4.09
	c8.48-16.76,25.81-40.23,37.29-55.79c9.46-12.83,12.6-17.18,13.53-19.77c1.41-3.9,18.4-35.49,30.79-58.56
	c3.8-7.08,7.41-13.79,10.47-19.5c25.31-13.84,58.18-30.55,81.62-41.83c6.19-2.96,11.71-5.55,16.28-7.6
	c6.07-2.73,10.45-4.54,12.43-5.04c12.5-3.25,27.46,5.35,34.63,9.49c2.56,1.43,5.81,0.57,7.27-1.96c0.67-1.15,0.84-2.44,0.6-3.66
	c-0.26-1.46-1.15-2.82-2.56-3.61c-8.41-4.83-25.91-14.89-42.59-10.54c-2.63,0.67-8.22,2.96-15.73,6.38
	c-4.76,2.13-10.28,4.73-16.28,7.63c-24.72,11.88-58.01,28.92-82.18,42.19c-18.59,10.18-29.95,17.09-33.8,20.51
	c-13.48,12-90.44,89.89-101.34,105.77c-0.91,1.31-2.08,3.08-3.51,5.26c-1.84,2.82-4.09,6.29-6.65,10.25
	c-0.96,1.46-1.96,3.01-3.01,4.66c-18.14,27.96-51.08,78.18-66.54,90.8c-20.2,16.45-55.84,34.18-76.65,34.32
	c-10.99,0.09-13.72-2.44-14.39-3.54c-0.84-1.39-1.46-5.26,3.9-15.32c8.91-16.87,80.12-142.77,94.55-167.67
	c13.46-23.23,68.74-111.19,76.34-123.26c13.48-5.52,95.39-32.19,128.4-42.83c2.51,0.22,5.02,0.45,7.55,0.67
	c18.24,1.6,37.29,3.25,55.04,4.83c7.89,0.72,15.54,1.41,22.73,2.06c25.89,2.39,46.13,4.42,52.25,5.47l18.98,3.27
	c2.89,0.53,5.64-1.43,6.14-4.33c0.5-2.89-1.43-5.64-4.33-6.14l-18.98-3.27c-7.15-1.24-31.14-3.59-61.64-6.36
	c-7.17-0.65-14.68-1.32-22.4-2.01c-15.11-1.34-31.07-2.72-46.87-4.11c-2.89-0.24-5.76-0.5-8.63-0.76
	c-15.85-1.39-31.1-2.7-44.79-3.92c-13.7-1.24-25.84-2.34-35.42-3.3c-34.42-3.37-85.07-1.74-129.74-0.34
	c-28.32,0.91-52.78,1.67-67.93,1c-36.71-1.6-148.24-17.02-198.36-33.03c-47.8-15.3-82.96-67.43-88.25-84.68
	c-0.91-2.89-1.07-5.12-0.48-5.9c3.08-3.94,23.47-2.99,49.28-1.77c5.64,0.26,11.71,0.55,18.31,0.84l13.72,0.57
	c61.83,2.68,155.27,6.69,199.25,0.5c49.93-7,123.21-13.1,165.42-7.12c44,6.19,201.66-46.85,294.33-84.66
	c10.85-4.42,22.23-7.43,34.16-9.27c17.81-2.75,36.79-2.92,56.84-1.34c34.44,2.73,72.09,10.61,112.48,19.31
	c2.17,0.48,4.35,0.93,6.55,1.41c0.91,0.19,1.79,0.38,2.7,0.6c52.04,11.23,105.84,22.66,162.68,25.96
	c52.99,3.06,89.97-6.69,119.87-31.62c27.7-23.09,47.23-57.22,71.97-100.46c17.57-30.67,37.45-65.39,64.56-103.71
	c21.73-30.69,51.13-75.07,83.99-125.96L1481.73,0c-35.21,54.66-66.81,102.52-89.8,134.97c-27.41,38.72-47.42,73.71-65.08,104.57
	c-49.05,85.69-76.06,132.87-182.01,126.75c-17.04-0.98-33.85-2.72-50.41-4.97c-38.89-5.28-76.56-13.43-113.37-21.37
	c-1.98-0.43-3.94-0.86-5.9-1.27c-41.06-8.87-79.35-16.9-114.66-19.67c-1.91-0.17-3.82-0.31-5.71-0.41
	c-27.15-1.72-52.49-0.12-75.91,6.86c-4.78,1.41-9.47,3.03-14.08,4.92c-0.45,0.19-0.93,0.38-1.41,0.57
	c-95.32,38.79-247.38,89.06-287.42,83.39c-43.29-6.12-117.79,0.05-168.39,7.15c-43.02,6.05-135.88,2.06-197.29-0.6l-13.77-0.57
	c-6.55-0.29-12.62-0.57-18.24-0.84c-36.57-1.72-51.72-2.44-58.18,5.88c-4.35,5.62-2.06,13.07-1.29,15.54
	c5.68,18.49,39.87,70.29,88.61,89.3v750.19l-19.73,36.07l-41.3,22.59l41.3,22.59l22.59,41.3l22.59-41.3l41.3-22.59l-41.3-22.59
	l-19.73-36.07V532.29c0.28,0.09,0.56,0.2,0.85,0.29c51.77,16.56,162.96,31.86,201.13,33.56c2.82,0.12,5.98,0.19,9.39,0.21
	c-15.49,18-50.53,58.3-63,69.08c-17.66,15.25-63.41,63.79-87.91,102.25c-5.07,7.96-10.9,16.56-16.56,24.91
	c-23.42,34.51-37.62,56.65-35.06,70.1c0.05,0.29,0.12,0.57,0.19,0.84c0.91,3.68,3.15,6.55,6.45,8.32
	c21.37,11.33,52.41,3.88,92.33-22.1c0.61,0.22,1.26,0.36,1.95,0.36c3.08,0,5.58-2.44,5.7-5.49c0.11-0.08,0.23-0.15,0.34-0.23
	c37.14-25.72,85.19-71.94,113.89-99.55c9.39-9.01,16.8-16.16,21.34-20.2c13.84-12.31,53.54-44.36,78.78-63.58
	c-19.46,30.98-53.13,84.9-63.29,102.44c-14.46,24.93-85.78,151.11-94.75,168.01c-3.85,7.27-8.41,17.85-3.58,25.84
	c3.58,5.9,11.3,8.75,23.57,8.65c11.84-0.08,26.84-4.63,41.63-11.35v207.66c-30.04-1.08-55.13-21.96-62.44-50.1
	c-1.22,5.19-1.85,10.6-1.78,16.17c0.42,35.82,28.85,64.75,64.22,66.21v246.58l-1.74,13.25c-2.15,16.37-10.44,29.04-21.1,32.27
	l-20.7,6.26l20.7,6.26c10.66,3.23,18.95,15.89,21.1,32.27l4.57,34.73l4.59-34.73c2.15-16.37,10.42-29.04,21.08-32.27l20.7-6.26
	l-20.7-6.26c-10.66-3.23-18.93-15.89-21.08-32.27l-1.69-12.79v-247.06c36.05-1.54,64.6-31.44,64.17-67.77
	c-0.07-5.57-0.82-10.97-2.16-16.12c-6.7,28.54-31.66,50.13-62.01,51.59V921.93c13.32-6.57,26.12-14.69,35.92-22.68
	c16.73-13.65,49.17-63.05,68.62-93.05c1.08-1.7,2.13-3.32,3.13-4.88c2.51-3.85,4.71-7.27,6.52-10.01c1.41-2.2,2.61-3.99,3.49-5.23
	c9.85-14.39,86.91-92.5,99.62-103.85c1.1-0.96,4.64-3.63,16.01-10.23c-0.86,1.58-1.72,3.18-2.58,4.83
	c-17.42,32.41-29.88,55.67-31.41,59.9c-0.79,1.79-6.55,9.59-12.12,17.14c-12.38,16.78-29.3,39.75-38.22,57.29
	c-0.48,0.91-0.96,1.86-1.48,2.87c-2.39,4.59-5.31,9.92-8.51,15.68c-2.27,4.13-4.71,8.46-7.2,12.91
	c-19.41,34.66-33.22,60.02-33.8,70.44c-0.36,6.12,1.86,11.21,6.48,14.7c8.15,6.14,21.58,5.5,31.31,2.13
	c13.22-4.59,38.53-15.89,59.68-40.11c3.39-3.87,7.2-8.6,11.26-13.91c3.42-4.45,7-9.27,10.61-14.25
	c17.64-24.43,36.28-53.01,41.4-61.88c3.35-5.83,14.6-16.78,26.53-28.35c10.59-10.25,22.59-21.89,31.57-32.46
	c3.54-4.15,7.08-7.93,10.68-11.41v703.62c-23.09,0.88-44.85,12.32-58.67,30.99c-1.01,1.37-1.96,2.75-2.83,4.1
	c-0.05,0.06-0.07,0.11-0.1,0.17c-0.95,1.49-1.82,2.95-2.67,4.49c-0.32,0.59-0.64,1.2-0.96,1.82c-0.02,0.05-0.05,0.1-0.07,0.15
	c-5.52,10.82-8.31,22.49-8.31,34.68c0,0.6,0.01,1.17,0.02,1.81c0.01,0.54,0.03,1.08,0.06,1.61c0,0.19,0.01,0.4,0.02,0.53
	c0.03,0.8,0.09,1.6,0.16,2.39c0.21,2.55,0.55,5.09,1.01,7.53c0,0.02,0.01,0.05,0.01,0.07c0.13,0.7,0.25,1.4,0.4,2.07
	c0.01,0.05,0.01,0.08,0.02,0.13c0.51,2.37,1.16,4.75,1.9,7.07c0.18,0.61,0.38,1.2,0.58,1.76c3.55,10.31,9.17,19.59,16.71,27.55
	c0.96,1.03,2.54,1.19,3.71,0.39c1.16-0.8,1.56-2.34,0.94-3.61c-3.79-7.77-5.71-16.12-5.71-24.81c0-30.27,23.87-55.06,53.77-56.57
	v207.2l-11.99,21.93l-27.17,14.86l27.17,14.86l14.86,27.17l14.86-27.17l27.17-14.86l-27.17-14.86l-12-21.95v-207.18
	c29.91,1.49,53.79,26.31,53.79,56.57c0,8.7-1.93,17.04-5.72,24.81c-0.63,1.27-0.23,2.8,0.94,3.61c0.49,0.34,1.06,0.5,1.63,0.5
	c0.77,0,1.52-0.3,2.08-0.89c7.66-8.09,13.55-17.94,17.04-28.48c0.19-0.61,0.39-1.21,0.57-1.81c0.72-2.39,1.35-4.89,1.85-7.45
	c0.14-0.73,0.28-1.47,0.38-2.16c0.42-2.47,0.72-5.04,0.88-7.64c0.08-1.18,0.13-2.4,0.16-3.71c0.01-0.42,0.01-0.85,0.01-1.28
	c0-11.7-2.58-22.94-7.66-33.39c-0.32-0.65-0.64-1.29-0.98-1.95c-1.37-2.62-2.92-5.2-4.59-7.66c-0.9-1.33-1.88-2.68-3.01-4.13
	c-14.03-17.88-34.8-28.46-57.37-29.27V722.3c13.33-11.46,27.83-19.08,46.39-24.7c1.12-0.34,2.25-0.69,3.32-1
	c6.55-2.03,12.43-3.92,17.62-5.62c14.13-4.71,23.26-8.29,27.41-10.28c5.5-1.46,49.29-4.18,72.88-5.64
	c5.81-0.38,10.64-0.67,14.6-0.93c10.45-0.67,15.11-1,16.47-1.27l1.31-0.26c0.81,1.34,1.63,2.72,2.49,4.16
	c9.15,15.78,19.84,37.14,19.58,42.28c-0.17,0.38-0.6,1.32-1.22,2.68c-1.79,3.82-5.33,11.23-10.61,20.96
	c-11.02,20.46-29.54,51.13-54.69,80.43c-3.92,4.59-8.01,9.13-12.26,13.6c-1,1.05-2.03,2.1-3.06,3.16
	c-17.04,17.45-31.29,34.9-42.78,52.56c-3.37,5.23-6.55,10.47-9.46,15.75c-13.46,24.26-21.87,49.07-25.55,74.98
	c-0.93,6.65-1.55,13.39-1.89,20.17c-0.29,6.43-0.31,12.91-0.07,19.46c0.77,20.96,2.94,40.37,6.29,57.63
	c1.48,7.55,3.2,14.72,5.12,21.39c6.48,22.56,15.42,39.73,26.22,49.48c11.85,10.73,27.94,19.19,40.63,22.56
	c2.34,0.62,4.56,1.05,6.64,1.31c5.09,0.65,9.18,0.1,11.57-1.86c8.27-6.84,11.11-17.02,12.72-30.43c0.57-4.76,1-9.92,1.43-15.51
	c0.1-1,0.17-2.03,0.24-3.06c0.81-9.87,1.82-20.94,3.99-33.18l1-5.69c0.19-0.96,0.33-1.91,0.5-2.87c1.22-6.72,2.34-13.05,3.51-19.07
	c3.25-16.52,6.91-31,13.38-46.68c2.29-5.54,4.92-11.23,8.03-17.21c1.12-2.18,2.32-4.42,3.59-6.67
	c6.91-12.45,13.38-22.23,21.27-31.43c3.8-4.42,7.94-8.72,12.6-13.12c10.42-9.78,23.5-20.01,41.56-33.22
	c3.92-2.87,8.1-5.9,12.55-9.11c0.72-0.5,1.48-1.05,2.25-1.58c12.19-8.65,29.11-19.74,48.66-32.41c4.54-2.94,9.23-5.98,14.01-9.08
	c0.72-0.45,1.41-0.91,2.13-1.36c18.45-11.95,38.77-25.1,59.3-38.77c5.95-3.97,11.95-7.98,17.9-12.05
	c25.31-17.14,50.29-34.85,72.04-51.82c7.65-5.98,14.89-11.88,21.61-17.64c9.18-7.82,17.35-15.42,24.24-22.61
	c27.42-28.63,170.42-182.68,313.16-336.63L1551.67,369.12z M160.92,1339.06l-32.72,17.9l-17.9,32.73l-17.9-32.73l-32.73-17.9
	l32.73-17.9l17.9-32.73l17.9,32.73L160.92,1339.06z M357.13,686.7c-4.68,4.18-12.19,11.38-21.65,20.48
	c-28.47,27.39-76.13,73.24-112.58,98.45c-39.7,27.46-70.56,36.74-89.3,26.82c-0.65-0.33-0.93-0.72-1.12-1.48
	c-0.02-0.1-0.05-0.21-0.07-0.33c-1.91-10.04,17.66-38.86,33.41-62.07c5.71-8.39,11.62-17.09,16.76-25.14
	c23.59-37.07,69.1-85.47,85.88-99.93c5.76-4.98,15.77-15.56,26.51-27.41l17.5,21.84c0.29,0.36,0.7,0.54,1.13,0.54
	c0.32,0,0.64-0.1,0.9-0.32c0.3-0.24,0.49-0.59,0.53-0.97c0.04-0.38-0.07-0.76-0.31-1.06l-17.8-22.2
	c17.37-19.25,36.09-41.09,41.64-47.58c13.05-0.19,28.49-0.67,45.29-1.2c44.36-1.43,94.63-3.01,128.35,0.29
	c13.84,1.36,32.89,3.06,54.26,4.95c-36.57,11.86-99.5,32.48-107.2,36.23C447.7,612.24,374.1,671.62,357.13,686.7z M738.39,1463.93
	c1.04,1.35,1.96,2.6,2.79,3.82c1.55,2.28,2.98,4.66,4.25,7.09c0.31,0.61,0.61,1.21,0.92,1.82c4.69,9.65,7.07,20.04,7.07,30.87
	c0,0.38,0,0.76-0.01,1.14c-0.02,1.25-0.07,2.39-0.15,3.48c-0.15,2.4-0.42,4.76-0.81,7.07c-0.1,0.66-0.23,1.34-0.35,1.99
	c-0.46,2.36-1.04,4.68-1.72,6.89c-0.17,0.57-0.35,1.14-0.53,1.69c-1.47,4.4-3.38,8.68-5.69,12.72c0.58-3.43,0.88-6.94,0.88-10.49
	c0-33.44-26.44-60.81-59.51-62.29c-0.94-0.05-1.9-0.07-2.85-0.07c-0.96,0-1.92,0.02-2.87,0.07c-33.06,1.5-59.49,28.87-59.49,62.29
	c0,3.57,0.3,7.09,0.88,10.54c-2.16-3.79-3.97-7.78-5.41-11.97c-0.18-0.52-0.35-1.04-0.53-1.59c-0.68-2.13-1.26-4.3-1.73-6.46
	c-0.01-0.03-0.01-0.07-0.02-0.1c-0.14-0.62-0.25-1.26-0.37-1.89c-0.01-0.05-0.01-0.09-0.02-0.14c-0.43-2.3-0.74-4.6-0.94-7.04
	c-0.07-0.72-0.13-1.44-0.16-2.26c0-0.08-0.01-0.17-0.01-0.25v-0.13c-0.02-0.52-0.05-1.03-0.06-1.58s-0.02-1.09-0.02-1.65
	c0-11.33,2.61-22.17,7.75-32.22c0.02-0.05,0.06-0.09,0.08-0.15c0.26-0.52,0.54-1.03,0.81-1.53c0.8-1.47,1.64-2.87,2.55-4.29
	c0.03-0.06,0.06-0.1,0.09-0.15c0.78-1.21,1.64-2.44,2.53-3.66c12.74-17.22,32.78-27.78,54.06-28.65c0.96-0.05,1.91-0.07,2.87-0.07
	c0.95,0,1.9,0.02,2.85,0.07C706.31,1437.67,725.45,1447.45,738.39,1463.93z M511.3,1074.23c0-3.16,2.56-5.72,5.72-5.72
	c3.16,0,5.72,2.56,5.72,5.72c0,3.16-2.56,5.72-5.72,5.72C513.86,1079.95,511.3,1077.39,511.3,1074.23z M511.3,1149.78
	c0-3.16,2.56-5.72,5.72-5.72c3.16,0,5.72,2.56,5.72,5.72c0,3.17-2.56,5.72-5.72,5.72C513.86,1155.5,511.3,1152.95,511.3,1149.78z
	 M511.3,1124.6c0-3.16,2.56-5.71,5.72-5.71c3.16,0,5.72,2.55,5.72,5.71s-2.56,5.72-5.72,5.72
	C513.86,1130.32,511.3,1127.76,511.3,1124.6z M522.75,1829.73c0,3.17-2.56,5.72-5.72,5.72c-3.16,0-5.72-2.55-5.72-5.72
	c0-3.16,2.56-5.72,5.72-5.72C520.18,1824.01,522.75,1826.57,522.75,1829.73z M522.75,1804.55c0,3.16-2.56,5.72-5.72,5.72
	c-3.16,0-5.72-2.56-5.72-5.72c0-3.16,2.56-5.71,5.72-5.71C520.18,1798.83,522.75,1801.39,522.75,1804.55z M511.3,1174.97
	c0-3.17,2.56-5.73,5.72-5.73c3.16,0,5.72,2.56,5.72,5.73c0,3.15-2.56,5.71-5.72,5.71C513.86,1180.69,511.3,1178.12,511.3,1174.97z
	 M511.3,1023.86c0-3.16,2.56-5.72,5.72-5.72c3.16,0,5.72,2.56,5.72,5.72c0,3.17-2.56,5.72-5.72,5.72
	C513.86,1029.59,511.3,1027.03,511.3,1023.86z M511.3,923.13c0-3.16,2.56-5.72,5.72-5.72c3.16,0,5.72,2.56,5.72,5.72
	c0,3.17-2.56,5.73-5.72,5.73C513.86,928.86,511.3,926.3,511.3,923.13z M511.3,973.5c0-3.16,2.56-5.72,5.72-5.72
	c3.16,0,5.72,2.56,5.72,5.72c0,3.17-2.56,5.72-5.72,5.72C513.86,979.22,511.3,976.67,511.3,973.5z M511.3,1049.05
	c0-3.16,2.56-5.72,5.72-5.72c3.16,0,5.72,2.56,5.72,5.72c0,3.17-2.56,5.72-5.72,5.72C513.86,1054.77,511.3,1052.22,511.3,1049.05z
	 M511.3,948.32c0-3.17,2.56-5.73,5.72-5.73c3.16,0,5.72,2.56,5.72,5.73c0,3.15-2.56,5.71-5.72,5.71
	C513.86,954.04,511.3,951.47,511.3,948.32z M511.3,998.68c0-3.16,2.56-5.72,5.72-5.72c3.16,0,5.72,2.56,5.72,5.72
	s-2.56,5.73-5.72,5.73C513.86,1004.41,511.3,1001.84,511.3,998.68z M522.75,1779.36c0,3.17-2.56,5.72-5.72,5.72
	c-3.16,0-5.72-2.55-5.72-5.72c0-3.16,2.56-5.72,5.72-5.72C520.18,1773.64,522.75,1776.2,522.75,1779.36z M511.3,1099.41
	c0-3.16,2.56-5.72,5.72-5.72c3.16,0,5.72,2.56,5.72,5.72c0,3.17-2.56,5.72-5.72,5.72C513.86,1105.14,511.3,1102.58,511.3,1099.41z
	 M522.75,1426.8c0,3.17-2.56,5.72-5.72,5.72c-3.16,0-5.72-2.55-5.72-5.72c0-3.16,2.56-5.72,5.72-5.72
	C520.18,1421.07,522.75,1423.64,522.75,1426.8z M522.75,1451.98c0,3.16-2.56,5.73-5.72,5.73c-3.16,0-5.72-2.58-5.72-5.73
	s2.56-5.72,5.72-5.72C520.18,1446.26,522.75,1448.82,522.75,1451.98z M522.75,1477.16c0,3.17-2.56,5.72-5.72,5.72
	c-3.16,0-5.72-2.55-5.72-5.72c0-3.16,2.56-5.72,5.72-5.72C520.18,1471.44,522.75,1474,522.75,1477.16z M522.75,1502.35
	c0,3.17-2.56,5.72-5.72,5.72c-3.16,0-5.72-2.55-5.72-5.72c0-3.16,2.56-5.72,5.72-5.72C520.18,1496.62,522.75,1499.19,522.75,1502.35
	z M522.75,1351.25c0,3.16-2.56,5.72-5.72,5.72c-3.16,0-5.72-2.56-5.72-5.72c0-3.16,2.56-5.71,5.72-5.71
	C520.18,1345.53,522.75,1348.09,522.75,1351.25z M522.75,1527.53c0,3.16-2.56,5.72-5.72,5.72c-3.16,0-5.72-2.56-5.72-5.72
	s2.56-5.72,5.72-5.72C520.18,1521.81,522.75,1524.37,522.75,1527.53z M522.75,1326.06c0,3.17-2.56,5.72-5.72,5.72
	c-3.16,0-5.72-2.55-5.72-5.72c0-3.16,2.56-5.72,5.72-5.72C520.18,1320.34,522.75,1322.9,522.75,1326.06z M522.75,1754.18
	c0,3.16-2.56,5.72-5.72,5.72c-3.16,0-5.72-2.56-5.72-5.72s2.56-5.72,5.72-5.72C520.18,1748.46,522.75,1751.02,522.75,1754.18z
	 M522.75,1376.43c0,3.17-2.56,5.72-5.72,5.72c-3.16,0-5.72-2.55-5.72-5.72c0-3.16,2.56-5.72,5.72-5.72
	C520.18,1370.71,522.75,1373.27,522.75,1376.43z M522.75,1401.62c0,3.15-2.56,5.71-5.72,5.71c-3.16,0-5.72-2.56-5.72-5.71
	c0-3.17,2.56-5.73,5.72-5.73C520.18,1395.89,522.75,1398.45,522.75,1401.62z M522.75,1678.64c0,3.15-2.56,5.72-5.72,5.72
	c-3.16,0-5.72-2.58-5.72-5.72c0-3.17,2.56-5.73,5.72-5.73C520.18,1672.91,522.75,1675.47,522.75,1678.64z M522.75,1653.45
	c0,3.17-2.56,5.72-5.72,5.72c-3.16,0-5.72-2.55-5.72-5.72c0-3.16,2.56-5.72,5.72-5.72C520.18,1647.72,522.75,1650.29,522.75,1653.45
	z M522.75,1703.81c0,3.17-2.56,5.72-5.72,5.72c-3.16,0-5.72-2.55-5.72-5.72c0-3.16,2.56-5.72,5.72-5.72
	C520.18,1698.09,522.75,1700.65,522.75,1703.81z M522.75,1729c0,3.16-2.56,5.73-5.72,5.73c-3.16,0-5.72-2.58-5.72-5.73
	c0-3.16,2.56-5.72,5.72-5.72C520.18,1723.27,522.75,1725.84,522.75,1729z M522.75,1628.27c0,3.15-2.56,5.71-5.72,5.71
	c-3.16,0-5.72-2.56-5.72-5.71c0-3.17,2.56-5.72,5.72-5.72C520.18,1622.55,522.75,1625.1,522.75,1628.27z M522.75,1552.71
	c0,3.17-2.56,5.72-5.72,5.72c-3.16,0-5.72-2.55-5.72-5.72c0-3.16,2.56-5.72,5.72-5.72C520.18,1546.99,522.75,1549.55,522.75,1552.71
	z M522.75,1603.08c0,3.17-2.56,5.72-5.72,5.72c-3.16,0-5.72-2.55-5.72-5.72c0-3.16,2.56-5.72,5.72-5.72
	C520.18,1597.36,522.75,1599.92,522.75,1603.08z M522.75,1577.9c0,3.16-2.56,5.72-5.72,5.72c-3.16,0-5.72-2.56-5.72-5.72
	c0-3.16,2.56-5.71,5.72-5.71C520.18,1572.18,522.75,1574.74,522.75,1577.9z M217.18,1041.03c0-3.16,2.56-5.72,5.72-5.72
	c3.16,0,5.72,2.56,5.72,5.72s-2.56,5.72-5.72,5.72C219.75,1046.76,217.18,1044.19,217.18,1041.03z M217.18,1091.4
	c0-3.16,2.56-5.72,5.72-5.72c3.16,0,5.72,2.56,5.72,5.72c0,3.16-2.56,5.72-5.72,5.72C219.75,1097.12,217.18,1094.56,217.18,1091.4z
	 M217.18,1015.85c0-3.16,2.56-5.72,5.72-5.72c3.16,0,5.72,2.56,5.72,5.72c0,3.16-2.56,5.72-5.72,5.72
	C219.75,1021.57,217.18,1019.01,217.18,1015.85z M217.18,1066.22c0-3.16,2.56-5.72,5.72-5.72c3.16,0,5.72,2.56,5.72,5.72
	s-2.56,5.72-5.72,5.72C219.75,1071.94,217.18,1069.38,217.18,1066.22z M217.18,1166.95c0-3.17,2.56-5.72,5.72-5.72
	c3.16,0,5.72,2.55,5.72,5.72c0,3.16-2.56,5.72-5.72,5.72C219.75,1172.67,217.18,1170.11,217.18,1166.95z M217.18,1116.58
	c0-3.16,2.56-5.72,5.72-5.72c3.16,0,5.72,2.56,5.72,5.72c0,3.16-2.56,5.72-5.72,5.72C219.75,1122.31,217.18,1119.74,217.18,1116.58z
	 M217.18,1192.13c0-3.16,2.56-5.72,5.72-5.72c3.16,0,5.72,2.56,5.72,5.72c0,3.16-2.56,5.72-5.72,5.72
	C219.75,1197.86,217.18,1195.29,217.18,1192.13z M217.18,1141.77c0-3.16,2.56-5.72,5.72-5.72c3.16,0,5.72,2.56,5.72,5.72
	s-2.56,5.72-5.72,5.72C219.75,1147.49,217.18,1144.93,217.18,1141.77z M217.18,915.12c0-3.16,2.56-5.72,5.72-5.72
	c3.16,0,5.72,2.56,5.72,5.72c0,3.16-2.56,5.72-5.72,5.72C219.75,920.84,217.18,918.28,217.18,915.12z M217.18,839.57
	c0-3.17,2.56-5.72,5.72-5.72c3.16,0,5.72,2.55,5.72,5.72c0,3.16-2.56,5.72-5.72,5.72C219.75,845.29,217.18,842.73,217.18,839.57z
	 M217.18,864.75c0-3.17,2.56-5.72,5.72-5.72c3.16,0,5.72,2.55,5.72,5.72c0,3.16-2.56,5.72-5.72,5.72
	C219.75,870.47,217.18,867.91,217.18,864.75z M217.18,940.3c0-3.16,2.56-5.72,5.72-5.72c3.16,0,5.72,2.56,5.72,5.72
	s-2.56,5.72-5.72,5.72C219.75,946.02,217.18,943.46,217.18,940.3z M217.18,990.67c0-3.17,2.56-5.72,5.72-5.72
	c3.16,0,5.72,2.55,5.72,5.72c0,3.16-2.56,5.72-5.72,5.72C219.75,996.39,217.18,993.83,217.18,990.67z M217.18,965.48
	c0-3.16,2.56-5.72,5.72-5.72c3.16,0,5.72,2.56,5.72,5.72c0,3.16-2.56,5.72-5.72,5.72C219.75,971.21,217.18,968.64,217.18,965.48z
	 M217.18,889.93c0-3.16,2.56-5.72,5.72-5.72c3.16,0,5.72,2.56,5.72,5.72s-2.56,5.72-5.72,5.72
	C219.75,895.66,217.18,893.09,217.18,889.93z M217.18,1494.33c0-3.17,2.56-5.72,5.72-5.72c3.16,0,5.72,2.55,5.72,5.72
	c0,3.16-2.56,5.72-5.72,5.72C219.75,1500.06,217.18,1497.49,217.18,1494.33z M217.18,1469.15c0-3.16,2.56-5.72,5.72-5.72
	c3.16,0,5.72,2.56,5.72,5.72s-2.56,5.72-5.72,5.72C219.75,1474.87,217.18,1472.31,217.18,1469.15z M217.18,1418.78
	c0-3.16,2.56-5.72,5.72-5.72c3.16,0,5.72,2.56,5.72,5.72c0,3.16-2.56,5.72-5.72,5.72C219.75,1424.51,217.18,1421.94,217.18,1418.78z
	 M217.18,1443.97c0-3.16,2.56-5.72,5.72-5.72c3.16,0,5.72,2.56,5.72,5.72c0,3.16-2.56,5.72-5.72,5.72
	C219.75,1449.69,217.18,1447.13,217.18,1443.97z M217.18,1569.88c0-3.16,2.56-5.72,5.72-5.72c3.16,0,5.72,2.56,5.72,5.72
	c0,3.16-2.56,5.72-5.72,5.72C219.75,1575.61,217.18,1573.04,217.18,1569.88z M217.18,1519.52c0-3.16,2.56-5.72,5.72-5.72
	c3.16,0,5.72,2.56,5.72,5.72c0,3.16-2.56,5.72-5.72,5.72C219.75,1525.24,217.18,1522.68,217.18,1519.52z M217.18,1544.7
	c0-3.16,2.56-5.72,5.72-5.72c3.16,0,5.72,2.56,5.72,5.72c0,3.16-2.56,5.72-5.72,5.72C219.75,1550.42,217.18,1547.86,217.18,1544.7z
	 M217.18,1343.23c0-3.16,2.56-5.72,5.72-5.72c3.16,0,5.72,2.56,5.72,5.72c0,3.16-2.56,5.72-5.72,5.72
	C219.75,1348.96,217.18,1346.39,217.18,1343.23z M217.18,1267.68c0-3.16,2.56-5.72,5.72-5.72c3.16,0,5.72,2.56,5.72,5.72
	s-2.56,5.72-5.72,5.72C219.75,1273.41,217.18,1270.84,217.18,1267.68z M217.18,1242.5c0-3.16,2.56-5.72,5.72-5.72
	c3.16,0,5.72,2.56,5.72,5.72c0,3.16-2.56,5.72-5.72,5.72C219.75,1248.22,217.18,1245.66,217.18,1242.5z M217.18,1292.87
	c0-3.16,2.56-5.72,5.72-5.72c3.16,0,5.72,2.56,5.72,5.72c0,3.16-2.56,5.72-5.72,5.72C219.75,1298.59,217.18,1296.03,217.18,1292.87z
	 M217.18,1393.6c0-3.16,2.56-5.72,5.72-5.72c3.16,0,5.72,2.56,5.72,5.72s-2.56,5.72-5.72,5.72
	C219.75,1399.32,217.18,1396.76,217.18,1393.6z M217.18,1368.42c0-3.16,2.56-5.72,5.72-5.72c3.16,0,5.72,2.56,5.72,5.72
	s-2.56,5.72-5.72,5.72C219.75,1374.14,217.18,1371.58,217.18,1368.42z M217.18,1318.05c0-3.17,2.56-5.72,5.72-5.72
	c3.16,0,5.72,2.55,5.72,5.72c0,3.16-2.56,5.72-5.72,5.72C219.75,1323.77,217.18,1321.21,217.18,1318.05z M217.18,1217.32
	c0-3.16,2.56-5.72,5.72-5.72c3.16,0,5.72,2.56,5.72,5.72c0,3.16-2.56,5.72-5.72,5.72C219.75,1223.04,217.18,1220.48,217.18,1217.32z
	 M157.05,1601.71l-41.13-41.3c-1.01-1.04-1.01-2.67,0.02-3.68c1.01-1.02,2.67-1.01,3.67-0.01l40.76,40.98
	c-0.16,0.19-0.31,0.35-0.48,0.54c-0.7,0.81-1.36,1.58-2.01,2.42C157.61,1600.98,157.32,1601.34,157.05,1601.71z M142.88,1698.43
	l-56.12,23.36c-0.68,0.28-1.37,0.25-2-0.01c-0.6-0.25-1.14-0.72-1.4-1.39c-0.58-1.34,0.05-2.86,1.4-3.4l56.31-23.48
	c0.54,1.63,1.12,3.23,1.78,4.85C142.87,1698.4,142.87,1698.4,142.88,1698.43z M159.52,1725.58c0.47,0.4,0.95,0.8,1.45,1.18
	l-0.85,0.85l-40.8,41c-1.02,1.01-2.68,1.02-3.7,0c-0.04-0.03-0.06-0.07-0.09-0.11c-0.03-0.03-0.07-0.05-0.11-0.09
	c-1.02-1.01-1.01-2.67,0-3.69l41.01-40.8l0.84-0.84c0.39,0.5,0.78,0.97,1.18,1.45c0.16,0.2,0.33,0.37,0.49,0.57
	C159.14,1725.25,159.32,1725.42,159.52,1725.58z M86.52,1604.39l55.84,22.99l-0.12,0.29c-0.59,1.5-1.14,3.05-1.62,4.63l-56.08-23.09
	c-1.33-0.55-1.96-2.08-1.42-3.4C83.67,1604.48,85.2,1603.84,86.52,1604.39z M135.94,1665.23l-61.5-0.15
	c-0.36-0.01-0.67-0.08-0.99-0.21c-0.94-0.39-1.63-1.32-1.63-2.42c0-1.44,1.18-2.59,2.62-2.59l61.41,0.14
	C135.85,1661.75,135.86,1663.51,135.94,1665.23z M185.6,1741.11c1.62,0.66,3.22,1.24,4.85,1.78l-23.48,56.31
	c-0.54,1.35-2.06,1.98-3.4,1.4c-0.67-0.26-1.15-0.8-1.39-1.4c-0.26-0.63-0.29-1.32-0.01-2l23.36-56.12
	C185.56,1741.09,185.56,1741.09,185.6,1741.11z M327.25,1764.35c1,1,1.01,2.66-0.01,3.67c-1.01,1.04-2.65,1.03-3.68,0.02
	l-41.3-41.13c0.37-0.27,0.73-0.56,1.07-0.83c0.83-0.65,1.6-1.31,2.42-2.01c0.19-0.16,0.35-0.31,0.54-0.48L327.25,1764.35z
	 M279.57,1797.44c0.55,1.33-0.09,2.86-1.42,3.4c-1.33,0.55-2.86-0.09-3.4-1.42l-23.09-56.08c1.58-0.48,3.13-1.03,4.63-1.63
	l0.29-0.12L279.57,1797.44z M223.95,1748.1l0.14,61.41c0,1.44-1.15,2.62-2.59,2.62c-1.1,0-2.03-0.69-2.42-1.63
	c-0.13-0.31-0.2-0.62-0.21-0.99l-0.15-61.5C220.45,1748.1,222.21,1748.11,223.95,1748.1z"/>
</svg>
