<?xml version="1.0" encoding="utf-8"?>
<!-- Generator: Adobe Illustrator 24.0.2, SVG Export Plug-In . SVG Version: 6.00 Build 0)  -->
<svg version="1.1" id="Слой_1" xmlns="http://www.w3.org/2000/svg" xmlns:xlink="http://www.w3.org/1999/xlink" x="0px" y="0px"
	 viewBox="0 0 1241 2000" style="enable-background:new 0 0 1241 2000;" xml:space="preserve">
<style type="text/css">
	.st0{fill:#FFFFFF;}
</style>
<path class="st0" d="M620.5,1469.09c21.32,0,38.61,17.28,38.61,38.61s-17.28,38.61-38.61,38.61s-38.61-17.29-38.61-38.61
	S599.18,1469.09,620.5,1469.09z M526.72,1546.3c21.32,0,38.61-17.29,38.61-38.61c0-21.32-17.29-38.61-38.61-38.61
	c-12.19,0-23.06,5.66-30.13,14.48c5.3,6.61,8.48,14.99,8.48,24.12c0,9.13-3.18,17.51-8.48,24.12
	C503.66,1540.65,514.53,1546.3,526.72,1546.3z M410.78,1538.94c6.37,4.63,14.19,7.36,22.66,7.36c21.32,0,38.61-17.29,38.61-38.61
	c0-21.32-17.29-38.61-38.61-38.61c-8.47,0-16.3,2.74-22.66,7.36c9.66,7.02,15.94,18.4,15.94,31.25
	C426.72,1520.55,420.44,1531.93,410.78,1538.94z M324.32,1542.6c5.01,2.37,10.6,3.7,16.51,3.7c21.32,0,38.61-17.29,38.61-38.61
	c0-21.32-17.28-38.61-38.61-38.61c-5.91,0-11.5,1.33-16.51,3.7c13.06,6.19,22.1,19.49,22.1,34.9
	C346.42,1523.11,337.38,1536.41,324.32,1542.6z M238.38,1545.17c2.98,0.74,6.09,1.13,9.3,1.13c21.32,0,38.61-17.29,38.61-38.61
	c0-21.32-17.28-38.61-38.61-38.61c-3.21,0-6.32,0.4-9.3,1.13c16.83,4.16,29.31,19.36,29.31,37.47
	C267.69,1525.81,255.21,1541.01,238.38,1545.17z M714.28,1469.09c-21.32,0-38.61,17.29-38.61,38.61c0,21.32,17.29,38.61,38.61,38.61
	c12.19,0,23.06-5.66,30.13-14.48c-5.3-6.61-8.48-14.99-8.48-24.12c0-9.13,3.18-17.51,8.48-24.12
	C737.34,1474.75,726.47,1469.09,714.28,1469.09z M830.22,1476.45c-6.37-4.63-14.19-7.36-22.66-7.36
	c-21.32,0-38.61,17.29-38.61,38.61c0,21.32,17.29,38.61,38.61,38.61c8.47,0,16.3-2.73,22.66-7.36c-9.66-7.02-15.94-18.4-15.94-31.25
	S820.56,1483.47,830.22,1476.45z M916.68,1472.79c-5.01-2.37-10.6-3.7-16.51-3.7c-21.32,0-38.61,17.29-38.61,38.61
	c0,21.32,17.29,38.61,38.61,38.61c5.91,0,11.5-1.33,16.51-3.7c-13.06-6.19-22.1-19.49-22.1-34.9S903.62,1478.98,916.68,1472.79z
	 M1002.62,1470.22c-2.98-0.74-6.09-1.13-9.3-1.13c-21.32,0-38.61,17.29-38.61,38.61c0,21.32,17.28,38.61,38.61,38.61
	c3.21,0,6.32-0.4,9.3-1.13c-16.83-4.16-29.31-19.36-29.31-37.47C973.31,1489.58,985.79,1474.38,1002.62,1470.22z M185.57,255.98
	c4.97,12.72,12.6,24.65,22.88,34.93c39.84,39.84,104.44,39.84,144.29,0c39.84-39.84,39.84-104.44,0-144.29
	c-10.28-10.28-22.21-17.9-34.93-22.88c32.2,36.81,30.77,92.81-4.33,127.9C278.38,286.75,222.39,288.18,185.57,255.98z
	 M881.86,146.63c-39.84,39.84-39.84,104.44,0,144.29c39.84,39.84,104.44,39.84,144.29,0c10.28-10.28,17.9-22.21,22.88-34.93
	c-36.81,32.2-92.81,30.77-127.9-4.33c-35.09-35.09-36.53-91.09-4.33-127.9C904.07,128.72,892.14,136.35,881.86,146.63z
	 M478.14,410.18c0.18,0.18,0.48,0.18,0.66,0c0.18-0.18,0.18-0.48,0-0.66l-5.16-5.16c-0.18-0.18-0.48-0.18-0.66,0
	c-0.18,0.18-0.18,0.48,0,0.66L478.14,410.18z M485.76,417.8l5.16,5.16c0.18,0.18,0.48,0.18,0.66,0c0.18-0.18,0.18-0.48,0-0.66
	l-5.16-5.16c-0.18-0.18-0.48-0.18-0.66,0C485.58,417.32,485.58,417.62,485.76,417.8z M486.42,410.18l5.16-5.16
	c0.18-0.18,0.18-0.48,0-0.66c-0.18-0.18-0.48-0.18-0.66,0l-5.16,5.16c-0.18,0.18-0.18,0.48,0,0.66
	C485.94,410.37,486.24,410.37,486.42,410.18z M472.99,422.96c0.18,0.18,0.48,0.18,0.66,0l5.16-5.16c0.18-0.18,0.18-0.48,0-0.66
	c-0.18-0.18-0.48-0.18-0.66,0l-5.16,5.16C472.81,422.48,472.81,422.78,472.99,422.96z M494.16,448.24l-6.19-6.19
	c-0.22-0.22-0.58-0.22-0.79,0c-0.22,0.22-0.22,0.58,0,0.79l6.19,6.19c0.22,0.22,0.58,0.22,0.79,0
	C494.37,448.82,494.37,448.46,494.16,448.24z M502.5,458.18l6.19,6.19c0.22,0.22,0.58,0.22,0.79,0c0.22-0.22,0.22-0.58,0-0.79
	l-6.19-6.19c-0.22-0.22-0.58-0.22-0.79,0C502.28,457.6,502.28,457.96,502.5,458.18z M503.3,449.04l6.19-6.19
	c0.22-0.22,0.22-0.58,0-0.79c-0.22-0.22-0.58-0.22-0.79,0l-6.19,6.19c-0.22,0.22-0.22,0.58,0,0.79
	C502.72,449.25,503.08,449.25,503.3,449.04z M493.36,457.38l-6.19,6.19c-0.22,0.22-0.22,0.58,0,0.79c0.22,0.22,0.58,0.22,0.79,0
	l6.19-6.19c0.22-0.22,0.22-0.58,0-0.79C493.94,457.16,493.58,457.16,493.36,457.38z M515.82,419.9c0.13,0.13,0.35,0.13,0.48,0
	c0.13-0.13,0.13-0.35,0-0.48l-3.75-3.75c-0.13-0.13-0.35-0.13-0.48,0c-0.13,0.13-0.13,0.35,0,0.48L515.82,419.9z M521.36,425.44
	l3.75,3.75c0.13,0.13,0.35,0.13,0.48,0c0.13-0.13,0.13-0.35,0-0.48l-3.75-3.75c-0.13-0.13-0.35-0.13-0.48,0
	C521.23,425.09,521.23,425.31,521.36,425.44z M521.84,419.9l3.75-3.75c0.13-0.13,0.13-0.35,0-0.48c-0.13-0.13-0.35-0.13-0.48,0
	l-3.75,3.75c-0.13,0.13-0.13,0.35,0,0.48C521.49,420.03,521.71,420.03,521.84,419.9z M512.07,429.19c0.13,0.13,0.35,0.13,0.48,0
	l3.75-3.75c0.13-0.13,0.13-0.35,0-0.48c-0.13-0.13-0.35-0.13-0.48,0l-3.75,3.75C511.94,428.84,511.94,429.06,512.07,429.19z
	 M719.99,678.42c-0.81,0-1.47,0.66-1.47,1.47c0,0.81,0.66,1.47,1.47,1.47s1.47-0.66,1.47-1.47
	C721.47,679.08,720.81,678.42,719.99,678.42z M739.19,680.61c0.39,0,0.71-0.32,0.71-0.71c0-0.39-0.32-0.71-0.71-0.71h-11.04
	c-0.39,0-0.71,0.32-0.71,0.71c0,0.39,0.32,0.71,0.71,0.71H739.19z M712.55,679.9c0-0.39-0.32-0.71-0.71-0.71H700.8
	c-0.39,0-0.71,0.32-0.71,0.71c0,0.39,0.32,0.71,0.71,0.71h11.04C712.23,680.61,712.55,680.29,712.55,679.9z M719.28,688.09v20.55
	c0,0.41,0.32,0.74,0.71,0.74c0.39,0,0.71-0.33,0.71-0.74v-20.55c0-0.41-0.32-0.74-0.71-0.74
	C719.6,687.34,719.28,687.68,719.28,688.09z M719.99,651.48c-0.39,0-0.71,0.32-0.71,0.71v19.55c0,0.39,0.32,0.71,0.71,0.71
	c0.39,0,0.71-0.32,0.71-0.71v-19.55C720.7,651.8,720.38,651.48,719.99,651.48z M722.9,683.36l4.31,4.31c0.15,0.15,0.4,0.15,0.55,0
	c0.15-0.15,0.15-0.4,0-0.55l-4.31-4.31c-0.15-0.15-0.4-0.15-0.55,0C722.75,682.95,722.75,683.2,722.9,683.36z M717.09,676.44
	l-4.31-4.31c-0.15-0.15-0.4-0.15-0.55,0c-0.15,0.15-0.15,0.4,0,0.55l4.31,4.31c0.15,0.15,0.4,0.15,0.55,0
	C717.24,676.84,717.24,676.59,717.09,676.44z M712.78,687.66l4.31-4.31c0.15-0.15,0.15-0.4,0-0.55c-0.15-0.15-0.4-0.15-0.55,0
	l-4.31,4.31c-0.15,0.15-0.15,0.4,0,0.55C712.38,687.81,712.63,687.81,712.78,687.66z M723.45,676.99l4.31-4.31
	c0.15-0.15,0.15-0.4,0-0.55c-0.15-0.15-0.4-0.15-0.55,0l-4.31,4.31c-0.15,0.15-0.15,0.4,0,0.55
	C723.05,677.14,723.3,677.14,723.45,676.99z M627.99,316.1l1.88-4.05c0.42-0.9,0.02-1.98-0.88-2.4c-0.9-0.42-1.98-0.02-2.4,0.88
	l-1.88,4.05c-0.42,0.9-0.02,1.98,0.88,2.4C626.5,317.4,627.58,317,627.99,316.1z M609.71,355.57l1.88-4.05
	c0.42-0.9,0.02-1.98-0.88-2.4c-0.9-0.42-1.98-0.02-2.4,0.88l-1.88,4.05c-0.42,0.9-0.02,1.98,0.88,2.4
	C608.21,356.87,609.29,356.47,609.71,355.57z M599.62,326.63c0.9,0.42,1.98,0.02,2.4-0.88c0.42-0.9,0.02-1.98-0.88-2.4l-4.05-1.88
	c-0.9-0.42-1.98-0.02-2.4,0.88c-0.42,0.9-0.02,1.98,0.88,2.4L599.62,326.63z M639.09,344.91c0.9,0.42,1.98,0.02,2.4-0.88
	c0.42-0.9,0.02-1.98-0.88-2.4l-4.05-1.88c-0.9-0.42-1.98-0.02-2.4,0.88c-0.42,0.9-0.02,1.98,0.88,2.4L639.09,344.91z M610.84,316.95
	c0.91-0.41,1.31-1.49,0.9-2.39l-1.84-4.07c-0.41-0.91-1.49-1.31-2.39-0.9c-0.91,0.41-1.31,1.49-0.9,2.39l1.84,4.07
	C608.86,316.96,609.94,317.36,610.84,316.95z M628.76,356.59c0.91-0.41,1.31-1.49,0.9-2.39l-1.84-4.07
	c-0.41-0.91-1.49-1.31-2.39-0.9c-0.91,0.41-1.31,1.49-0.9,2.39l1.84,4.07C626.77,356.6,627.85,357,628.76,356.59z M597.09,344.75
	l4.07-1.84c0.91-0.41,1.31-1.49,0.9-2.39c-0.41-0.91-1.49-1.31-2.39-0.9l-4.07,1.84c-0.91,0.41-1.31,1.49-0.9,2.39
	C595.1,344.76,596.18,345.16,597.09,344.75z M636.73,326.84l4.07-1.84c0.91-0.41,1.31-1.49,0.9-2.39c-0.41-0.91-1.49-1.31-2.39-0.9
	l-4.07,1.84c-0.91,0.41-1.31,1.49-0.9,2.39C634.74,326.84,635.82,327.25,636.73,326.84z M607.97,336.56c2.81,0.61,4.7,1.4,5.06,1.76
	c0.36,0.36,1.15,2.25,1.76,5.06c0.69,3.71,1.28,37.9,3.4,63.81c2.11-25.92,2.71-60.1,3.4-63.81c0.61-2.81,1.4-4.7,1.76-5.06
	c0.36-0.36,2.25-1.15,5.06-1.76c3.71-0.69,8.21-1.28,34.13-3.4c-25.92-2.12-30.42-2.71-34.13-3.4c-2.81-0.61-4.7-1.4-5.06-1.76
	c-0.36-0.36-1.15-2.25-1.76-5.06c-0.69-3.71-1.28-34.91-3.4-60.83c-2.12,25.92-2.71,57.12-3.4,60.83c-0.61,2.81-1.4,4.7-1.76,5.06
	c-0.36,0.36-2.25,1.15-5.06,1.76c-3.71,0.69-8.21,1.28-34.13,3.4C599.76,335.28,604.26,335.87,607.97,336.56z M611.02,701.23
	l-0.93-7.08c-0.04-0.3-0.48-0.3-0.52,0l-0.93,7.08c-0.56,4.27-2.72,7.57-5.5,8.41l-4.57,1.38c-0.25,0.08-0.25,0.43,0,0.5l4.57,1.38
	c2.78,0.84,4.94,4.14,5.5,8.41l0.93,7.08c0.04,0.3,0.48,0.3,0.52,0l0.93-7.08c0.56-4.27,2.72-7.57,5.5-8.41l4.57-1.38
	c0.25-0.08,0.25-0.43,0-0.5l-4.57-1.38C613.74,708.8,611.58,705.5,611.02,701.23z M662.32,797.95c-23.99-1.96-28.15-2.51-31.59-3.15
	c-0.91-0.2-1.71-0.41-2.39-0.63c1.5-2.15,3.86-5.15,15.14-18.44c-13.29,11.28-16.29,13.64-18.44,15.14
	c-0.21-0.68-0.43-1.48-0.63-2.39c-0.64-3.43-1.19-7.6-3.15-31.59c-1.96,23.99-2.51,28.15-3.15,31.59c-0.2,0.91-0.41,1.71-0.63,2.39
	c-2.15-1.5-5.15-3.86-18.44-15.14c11.28,13.29,13.64,16.29,15.14,18.44c-0.68,0.21-1.48,0.43-2.39,0.63
	c-3.43,0.64-7.6,1.19-31.59,3.15c23.99,1.96,28.15,2.51,31.59,3.15c0.91,0.2,1.71,0.41,2.39,0.63c-1.5,2.15-3.86,5.15-15.14,18.44
	c13.29-11.28,16.29-13.64,18.44-15.14c0.21,0.68,0.43,1.48,0.63,2.39c0.64,3.43,1.19,7.6,3.15,31.59
	c1.96-23.99,2.51-28.15,3.15-31.59c0.2-0.91,0.41-1.71,0.63-2.39c2.15,1.5,5.15,3.86,18.44,15.14
	c-11.28-13.29-13.64-16.29-15.14-18.44c0.68-0.21,1.48-0.43,2.39-0.63C634.17,800.46,638.34,799.91,662.32,797.95z M694.6,382.88
	c-8.32,22.45-2.94,17.08-25.39,25.39c22.45,8.32,17.08,2.94,25.39,25.39c8.31-22.45,2.94-17.08,25.39-25.39
	C697.54,399.96,702.92,405.33,694.6,382.88z M567.85,394.28c-6.35-13.81-6.35-8.99,0-22.8c-13.81,6.35-8.99,6.35-22.8,0
	c6.35,13.81,6.35,8.99,0,22.8C558.86,387.94,554.03,387.94,567.85,394.28z M684.21,768.31c-6.35-13.81-6.35-8.99,0-22.8
	c-13.81,6.35-8.99,6.35-22.8,0c6.35,13.81,6.35,8.99,0,22.8C675.22,761.96,670.4,761.96,684.21,768.31z M554.87,741.61
	c1.05,1.65,2.24,3.16,4.95,20.45c2.7-17.29,3.9-18.79,4.95-20.45c1.65-1.05,3.16-2.24,20.45-4.95c-17.29-2.7-18.79-3.9-20.45-4.95
	c-1.05-1.65-2.24-3.16-4.95-20.45c-2.7,17.29-3.9,18.79-4.95,20.45c-1.65,1.05-3.16,2.24-20.45,4.95
	C551.72,739.37,553.22,740.57,554.87,741.61z M753.22,441.89l-2.92,41.64l-29.05,4.19l29.05,4.19l2.92,41.64l2.92-41.64l29.05-4.19
	l-29.05-4.19L753.22,441.89z M618.62,598.37c0-19.21,15.58-49.28,34.79-49.28c-19.21,0-34.79-31.31-34.79-50.53
	c0,19.21-15.58,50.53-34.79,50.53C603.05,549.09,618.62,579.16,618.62,598.37z M619.95,490v-38.97c0-0.73-0.59-1.33-1.33-1.33
	c-0.73,0-1.33,0.59-1.33,1.33V490c0,0.73,0.59,1.33,1.33,1.33C619.36,491.33,619.95,490.74,619.95,490z M619.95,646.85v-38.97
	c0-0.73-0.59-1.33-1.33-1.33c-0.73,0-1.33,0.59-1.33,1.33v38.97c0,0.73,0.59,1.33,1.33,1.33
	C619.36,648.18,619.95,647.58,619.95,646.85z M543.15,548.94c0,0.73,0.59,1.33,1.33,1.33h29.51c0.73,0,1.33-0.59,1.33-1.33
	c0-0.73-0.59-1.33-1.33-1.33h-29.51C543.75,547.62,543.15,548.21,543.15,548.94z M694.6,548.94c0-0.73-0.59-1.33-1.33-1.33h-29.51
	c-0.73,0-1.33,0.59-1.33,1.33c0,0.73,0.59,1.33,1.33,1.33h29.51C694.01,550.27,694.6,549.67,694.6,548.94z M565.33,602.49
	c0.26,0.26,0.6,0.39,0.94,0.39c0.34,0,0.68-0.13,0.94-0.39l20.87-20.87c0.52-0.52,0.52-1.36,0-1.87c-0.52-0.52-1.36-0.52-1.87,0
	l-20.87,20.87C564.82,601.13,564.82,601.97,565.33,602.49z M649.68,518.14c0.26,0.26,0.6,0.39,0.94,0.39c0.34,0,0.68-0.13,0.94-0.39
	l20.87-20.87c0.52-0.52,0.52-1.36,0-1.87c-0.52-0.52-1.36-0.52-1.87,0l-20.87,20.87C649.16,516.78,649.16,517.62,649.68,518.14z
	 M565.33,495.4c-0.52,0.52-0.52,1.36,0,1.87l20.87,20.87c0.26,0.26,0.6,0.39,0.94,0.39c0.34,0,0.68-0.13,0.94-0.39
	c0.52-0.52,0.52-1.36,0-1.87l-20.87-20.87C566.69,494.88,565.85,494.88,565.33,495.4z M649.68,579.74c-0.52,0.52-0.52,1.36,0,1.87
	l20.87,20.87c0.26,0.26,0.6,0.39,0.94,0.39c0.34,0,0.68-0.13,0.94-0.39c0.52-0.52,0.52-1.36,0-1.87l-20.87-20.87
	C651.04,579.22,650.2,579.22,649.68,579.74z M483.5,536.97l5.82,10.64l5.82-10.64l10.65-5.82l-10.65-5.82l-5.82-10.64l-5.82,10.64
	l-10.64,5.82L483.5,536.97z M439.42,588.55l-8.99-16.44l-16.44-8.99l16.44-8.99l8.99-16.44l8.99,16.44l16.44,8.99l-16.44,8.99
	L439.42,588.55z M434.4,568.13l5.01,9.17l5.01-9.17l9.17-5.01l-9.17-5.01l-5.01-9.17l-5.01,9.17l-9.17,5.01L434.4,568.13z
	 M807.01,552.33l5.82-10.64l10.65-5.82l-10.65-5.82l-5.82-10.64l-5.82,10.64l-10.64,5.82l10.64,5.82L807.01,552.33z M756.12,597.63
	l-16.44-8.99l16.44-8.99l8.99-16.44l8.99,16.44l16.44,8.99l-16.44,8.99l-8.99,16.44L756.12,597.63z M750.94,588.64l9.17,5.01
	l5.01,9.17l5.01-9.17l9.17-5.01l-9.17-5.01l-5.01-9.17l-5.01,9.17L750.94,588.64z M484.9,629.33l6.59,12.04l6.59-12.04l12.04-6.59
	l-12.04-6.59l-6.59-12.04l-6.59,12.04l-12.04,6.59L484.9,629.33z M412.65,667.7c9.8-9.77,16.02-15.72,20.8-15.45
	c1.41,0.08,2.61,0.7,3.49,1.79c5.33,6.65,4.46,18.06-2.57,33.89c-5.89,13.26-17.58,31.15-24.56,41.83c-2.3,3.52-4.1,6.28-5.1,7.94
	c-2.72,4.54-9.06,16.31-13.6,25.19c7.75-7.17,21.11-19.49,25.73-23.49c6.94-5.99,42.37-35.95,47.24-39.85
	c2.19-1.75,5.45-3.93,8.57-2.77c2.32,0.87,3.81,3.29,4.56,7.41c1.41,7.75-2.29,20.74-6.67,28.83c-3.08,5.69-14.53,17-25.32,27.31
	l-2.18,2.08c-0.72,0.69-1.37,1.31-1.92,1.84c-0.6,0.57-1.09,1.05-1.43,1.4c-3.92,3.95-23.84,32.75-26.64,37.42
	c-0.15,0.25-0.55,1.04-1.39,3.26c9.19-7.44,15.3-12.35,16.57-13.1c0.4-0.28,2.86-2.94,4.49-4.7c4.55-4.91,10.79-11.63,15.83-15.52
	l0.22-0.17c0.19-0.15,0.39-0.3,0.59-0.46c1.17-0.92,2.61-2.1,4.41-3.6c1.16-0.97,2.39-1.99,3.63-3.03
	c9.82-8.24,17.04-14.14,20.42-14.98c2.13-0.53,4.08-0.08,5.63,1.32c2.6,2.36,3.26,6.88,2.75,10.31c-0.67,4.5-2.75,13.27-9.2,21.49
	c-0.97,1.24-2.23,2.72-3.74,4.41c-1.15,1.29-2.45,2.7-3.87,4.2c-6.52,6.9-14.45,14.54-17.05,16.76c-1.58,1.35-4.44,5.7-7.21,9.9
	c-2.62,3.98-5.57,8.45-8.37,11.92c-5.55,6.9-8.19,13.24-9.12,21.87c-0.19,1.78-0.38,3.42-0.57,4.93c-0.25,2.02-0.53,3.98-0.82,5.83
	c-0.38,2.38-0.75,4.33-1.05,5.5c-0.08,1.96,1.68,15.98,2.53,22.75l0.16,1.26c0.18,1.45,0.34,2.68,0.47,3.73
	c0.43,3.43,0.58,4.79,0.58,5.29c0.34,0.13,0.7,0.25,1.06,0.38c6.1,2.15,12.47,3.8,13.92,3.62c0.16-0.11,0.37-0.25,0.64-0.45
	c1.28-0.92,3.36-2.47,5.94-4.56c5.19-4.23,12.9-11.07,20.11-19.67c1.27-1.51,2.5-3.06,3.68-4.62c0.8-1.05,1.61-2.17,2.48-3.41
	c4.49-6.42,9.22-12.04,14.07-16.69c1.46-1.4,2.95-2.73,4.43-3.96c6.91-5.75,14.2-9.88,22.27-12.63c2.06-0.7,4.18-1.31,6.31-1.81
	c1.97-0.47,4.05-0.88,6.17-1.2c6.59-1,12.85-1.5,18.6-1.46c2.52,0.01,4.91,0.13,7.09,0.33c7.7,0.72,13.75,2.59,17.49,5.43
	c1.67,1.27,3.36,2.86,4.88,4.58c3.91,4.43,7.37,10.53,5.74,13.49l-0.14,0.24c-1.83,3.09-4.95,4.59-9.08,5.9
	c-1.47,0.47-3.09,0.91-4.81,1.38l-0.13,0.04c-0.27,0.08-0.55,0.15-0.83,0.23c-2.94,0.81-6.4,1.79-10.13,3.21l-1.73,0.65
	c-0.33,0.12-0.61,0.23-0.89,0.33l-0.64,0.25c-1.8,0.69-3.5,1.34-5.13,1.99c-4.27,1.71-8.89,3.74-13.77,6.94
	c-1.62,1.06-3.22,2.21-4.9,3.52c-0.61,0.48-1.23,0.98-1.86,1.51c-4.25,3.54-7.15,6.54-9.71,10.02c-1.07,1.44-2.11,3.01-3.17,4.78
	c-1.96,3.28-4.03,7.27-6.92,13.33c-0.66,1.41-1.37,2.9-2.11,4.49l-0.37,0.8c-1.91,4.16-4.29,9.89-7.28,17.22
	c-0.66,1.6-1.33,3.26-2.02,4.95l-0.1,0.25c-0.07,0.17-0.14,0.34-0.21,0.51c-2.84,6.97-5.64,13.82-8.66,20.96
	c-0.9,2.12-1.81,4.24-2.72,6.36c-5.31,12.27-9.92,21.97-14.07,29.65c-1.62,3.01-3.21,5.77-4.73,8.21c-1.16,1.86-2.21,3.44-3.21,4.84
	c-6.05,8.47-61.18,83.16-103.72,140.76c66.4,64.86,157.22,104.82,257.38,104.82c101.1,0,192.67-40.73,259.24-106.66
	c-40.36-54.73-95.61-129.9-102.06-138.92c-1.81-2.53-3.73-5.57-5.71-9.03c-1.36-2.37-2.76-4.95-4.27-7.88
	c-3.65-7.08-7.59-15.52-12.04-25.8c-0.92-2.12-1.82-4.24-2.72-6.36c-3.02-7.15-5.94-14.28-8.66-20.98l-0.79-1.93
	c-0.52-1.28-1.04-2.54-1.54-3.77c-2.99-7.32-5.37-13.05-7.29-17.22l-0.37-0.79c-0.74-1.59-1.44-3.09-2.11-4.49
	c-3.37-7.08-5.67-11.42-7.94-14.98c-1.08-1.71-2.17-3.24-3.34-4.69c-2.28-2.85-4.91-5.47-8.52-8.47c-0.63-0.53-1.26-1.03-1.87-1.52
	c-1.66-1.3-3.25-2.45-4.89-3.52c-4.9-3.21-9.52-5.22-13.78-6.93c-1.62-0.65-3.32-1.3-5.12-1.99l-0.91-0.34
	c-0.21-0.08-0.42-0.16-0.63-0.24l-1.73-0.66c-3.64-1.38-7-2.35-10.14-3.21l-0.95-0.26c-1.68-0.46-3.31-0.91-4.81-1.38
	c-4.24-1.34-7.43-2.9-9.21-6.13c-0.56-1.02-0.54-2.46,0.05-4.29c0.22-0.67,0.5-1.37,0.85-2.09c1.97-4.12,5.79-8.71,9.72-11.69
	c3.75-2.84,9.79-4.72,17.48-5.43c2.24-0.21,4.63-0.32,7.1-0.33c5.76-0.04,12.01,0.46,18.61,1.46c2.1,0.32,4.18,0.72,6.17,1.2
	c2.15,0.51,4.27,1.12,6.3,1.82c8.08,2.75,15.37,6.88,22.28,12.62c1.46,1.21,2.91,2.5,4.42,3.95c4.91,4.7,9.51,10.16,14.08,16.7
	c0.27,0.38,0.54,0.76,0.81,1.14c1.12,1.56,2.31,3.12,3.52,4.64c7.68,9.61,16.18,17.21,21.95,21.9c2.04,1.66,4.04,3.2,5.93,4.57
	l0.65,0.45c1.46,0.19,7.74-1.44,13.98-3.64c0.34-0.12,0.68-0.24,1.01-0.36c0.01-0.49,0.15-1.76,0.59-5.3l0.63-5.06
	c0.91-7.27,2.6-20.72,2.51-22.67c-0.46-1.75-1.05-5.2-1.6-9.25c-0.26-1.99-0.5-3.92-0.72-5.89l-0.12-1.11
	c-0.92-8.63-3.56-14.97-9.12-21.87c-2.8-3.47-5.74-7.94-8.34-11.88c-2.79-4.24-5.65-8.58-7.23-9.94
	c-2.59-2.22-10.52-9.86-17.06-16.76c-1.45-1.54-2.75-2.95-3.87-4.2c-1.5-1.68-2.75-3.16-3.73-4.4c-6.45-8.22-8.53-17-9.2-21.49
	c-0.51-3.43,0.15-7.95,2.75-10.31c1.54-1.4,3.49-1.86,5.63-1.32c3.39,0.84,10.28,6.48,20.42,14.97l0.21,0.18
	c1.17,0.98,2.32,1.95,3.41,2.85c1.92,1.6,3.28,2.71,4.42,3.6c0.21,0.17,0.42,0.33,0.61,0.48l0.2,0.15
	c5.04,3.89,11.28,10.61,15.83,15.51c1.73,1.87,4.1,4.42,4.56,4.74c1.23,0.72,7.6,5.85,16.5,13.06c-0.84-2.23-1.24-3.01-1.39-3.26
	c-2.81-4.68-22.73-33.49-26.63-37.41c-0.34-0.35-0.83-0.83-1.43-1.4c-0.56-0.54-1.23-1.18-1.96-1.88l-1.01-0.97
	c-0.36-0.35-0.74-0.71-1.13-1.08c-10.79-10.31-22.23-21.61-25.32-27.31c-4.38-8.09-8.08-21.09-6.67-28.83
	c0.75-4.12,2.24-6.54,4.56-7.41c3.12-1.16,6.38,1.02,8.56,2.77c4.78,3.83,40.25,33.81,47.24,39.85c4.62,4,17.98,16.32,25.73,23.49
	c-4.55-8.9-10.89-20.67-13.6-25.19c-0.94-1.57-2.6-4.11-4.7-7.34l-0.37-0.57c-6.99-10.69-18.68-28.59-24.58-41.86
	c-7.03-15.83-7.9-27.23-2.57-33.89c0.87-1.09,2.08-1.71,3.49-1.79c0.1-0.01,0.2-0.01,0.31-0.01c4.65,0,10.83,5.82,20.45,15.41
	c2.3,2.29,4.65,4.63,6.83,6.68c10.69,10.04,23.3,27.41,27.06,33.91c2.49,4.29,12.13,16.57,17.03,22.74
	c0.12-0.57,0.24-1.09,0.35-1.56c2.81-11.95,14.3-46.11,22.61-61.45c8.48-15.66,28.5-24.11,35.03-24.84c0.9-0.1,3.65-0.41,5.39,1.56
	c2.46,2.79,1.31,7.61-1.46,19.24c-0.42,1.76-0.87,3.66-1.35,5.7l-1.01,4.29c-4.49,19.18-11.27,48.09-11.93,61.92
	c-0.79,16.41-3.31,40.3-7.83,53.59c-4.15,12.21,2.69,63.33,9.23,95.54c4.13,20.36-5.17,42.37-15.94,67.86l-0.04,0.09
	c-6.67,15.79-13.57,32.12-17.98,49.78c-8.15,32.57,4.98,43.79,28.81,64.15c4.01,3.42,8.26,7.06,12.72,11.06
	c32.92-55.16,51.84-119.64,51.84-188.54c0-8.14-0.27-16.22-0.79-24.23c9.54,33.4,14.66,68.67,14.66,105.14
	c0,211.12-171.14,382.26-382.26,382.26c-211.12,0-382.26-171.14-382.26-382.26c0-36.47,5.12-71.73,14.66-105.14
	c-0.52,8.01-0.79,16.09-0.79,24.23c0,69.76,19.39,135,53.08,190.6c5.3-4.83,10.32-9.12,15.01-13.12
	c23.83-20.36,36.96-31.58,28.81-64.15c-4.43-17.72-11.33-34.06-18.01-49.86c-10.77-25.49-20.07-47.5-15.94-67.87
	c6.53-32.2,13.37-83.32,9.23-95.54c-4.52-13.31-7.04-37.19-7.83-53.59c-0.66-13.87-7.44-42.79-11.93-61.93l-1-4.28
	c-0.48-2.05-0.93-3.94-1.35-5.68c-2.78-11.66-3.93-16.47-1.47-19.26c1.74-1.97,4.49-1.66,5.39-1.56
	c6.53,0.73,26.55,9.18,35.03,24.84c8.31,15.34,19.79,49.51,22.61,61.45c0.11,0.47,0.22,0.98,0.35,1.56
	c4.27-5.37,14.48-18.34,17.03-22.74c3.76-6.5,16.37-23.87,27.06-33.91C408.04,672.29,410.38,669.95,412.65,667.7z M876.95,737.13
	c-3.18-3.96-16.73-20.93-19.97-26.51c-3.54-6.12-16-23.24-26.2-32.83c-2.32-2.19-4.88-4.73-6.93-6.78
	c-5.96-5.94-14.08-14.02-17.07-14.02l-0.11,0c-4.08,5.1-2.97,15.13,3.2,29.02c5.77,12.98,17.32,30.64,24.22,41.19l0.04,0.06
	c2.29,3.5,4.09,6.27,5.13,8c3.75,6.25,18.09,33.06,19.19,37.08c0.67,2.47,3.02,20.3,4.61,32.72c1.42-5.02,2.81-9.92,3.9-13.61
	c3.05-10.44,5.54-26.3,7.73-40.29l0.01-0.07C875.49,746,876.25,741.17,876.95,737.13z M932.23,1082.07
	c-4.67-4.21-9.12-8.01-13.3-11.58c-12.18-10.41-21.8-18.62-27.47-28.82c-6.15-11.05-7.03-23.41-2.87-40.09
	c4.51-18.07,11.49-34.58,18.24-50.56c10.47-24.76,19.5-46.15,15.66-65.09c-6.39-31.48-13.69-84.4-9.07-98.01
	c4.37-12.86,6.81-36.21,7.58-52.29c0.69-14.33,7.53-43.49,12.05-62.78l1-4.29c0.48-2.06,0.93-3.95,1.35-5.71
	c1.55-6.5,3.31-13.86,2.56-14.97c-0.13-0.05-0.54-0.11-1.34-0.02c-5.64,0.63-23.84,8.45-31.39,22.38
	c-8,14.77-19.47,48.85-22.15,60.28c-1.12,4.74-2.32,12.45-3.72,21.39c-2.22,14.16-4.74,30.21-7.86,40.89
	c-1.78,6.07-4.44,15.53-7.03,24.71l-0.03,0.1c-0.17,0.6-0.34,1.19-0.51,1.79l-0.24,0.87c-1.38,4.89-2.77,9.83-4.09,14.5l-0.1,0.36
	c-0.64,2.27-1.26,4.47-1.86,6.57c-3.16,11.09-4.97,17.15-5.69,19.07l-2.16,5.77c-0.22,0.59-0.66,1.07-1.24,1.33
	c-0.58,0.26-1.22,0.29-1.82,0.06c-1.23-0.46-1.85-1.83-1.39-3.06l2.17-5.78c0.61-1.64,2.19-6.89,4.82-16.06l2-7.03
	c1.25-4.4,2.56-9.06,3.85-13.64l0.96-3.39c0.21-0.74,0.41-1.47,0.62-2.2c-1.6-12.79-4.81-37.67-5.76-42.56
	c-2.25-2.09-27.38-25.45-34.05-31.21c-7.03-6.07-42.42-35.99-47.1-39.73c-2.9-2.32-3.84-2.07-3.94-2.03
	c-0.01,0.01-0.92,0.38-1.55,3.81c-1.17,6.42,2.25,18.48,6.17,25.72c3.15,5.82,18.65,20.62,24.48,26.19l1.74,1.66
	c0.9,0.86,1.71,1.63,2.37,2.27c0.6,0.58,1.1,1.06,1.46,1.43c4.38,4.41,24.36,33.36,27.33,38.31c0.88,1.47,2.4,5.5,4.51,12
	c2.68,8.25,6.05,19.67,8.39,28.4c0.57,2.14,1.05,4.02,1.43,5.59c0.66,2.73,1.03,4.56,1.09,5.45c0.39,5.79-3.94,10.83-6.02,13.25
	c-0.45,0.53-1.1,0.83-1.8,0.83c-0.57,0-1.12-0.2-1.55-0.57c-0.99-0.85-1.1-2.35-0.26-3.35c1.67-1.95,5.15-5.99,4.89-9.85
	c-0.03-0.41-0.19-1.45-0.83-4.1c-0.35-1.47-0.83-3.34-1.42-5.55c-2.29-8.58-5.59-19.79-8.22-27.96c-1.04-0.84-2.19-1.77-3.4-2.75
	l-2.19-1.77c-6.05-4.89-15.19-12.29-16.27-12.93c-0.81-0.47-1.84-1.54-5.56-5.56c-4.22-4.55-10.54-11.36-15.25-14.98l-1.17-0.91
	c-1.37-1.1-2.86-2.32-4.44-3.64c-1.03-0.85-2.1-1.75-3.19-2.67l-0.21-0.17c-6.35-5.32-15.94-13.37-18.52-14.01
	c-0.68-0.17-1-0.03-1.29,0.23c-1.07,0.96-1.61,3.64-1.24,6.1c0.6,4.04,2.46,11.9,8.24,19.26c0.87,1.12,2.02,2.47,3.41,4.03
	c1.13,1.27,2.42,2.68,3.84,4.18c6.42,6.79,14.22,14.3,16.77,16.49c2.06,1.77,4.84,5.98,8.06,10.86c2.57,3.9,5.46,8.28,8.13,11.6
	c6.17,7.67,9.1,14.72,10.14,24.34l0.01,0.08c0.23,2.09,0.46,4.06,0.69,5.87c0.69,5.29,1.31,8.54,1.63,9.72
	c0.33,1.21,0.01,4.96-2.48,24.77c-0.15,1.19-0.3,2.38-0.44,3.5c-0.19,1.48-0.35,2.84-0.48,3.89c1.83-0.74,3.88-1.58,5.95-2.42
	c6.09-2.49,12.38-5.07,13.83-5.67l0.31-0.13c1.21-0.5,2.6,0.08,3.1,1.29c0.5,1.22-0.09,2.61-1.3,3.1
	c-0.06,0.03-15.72,6.48-23.19,9.47v0.01l-0.43,0.17c-0.03,0.01-0.06,0.02-0.1,0.04l-0.01,0c-1.92,0.74-6.05,2.2-9.94,3.3
	c-6.86,1.94-9.17,1.79-10.52,0.96c-0.58-0.36-1.84-1.23-3.64-2.59c-1.8-1.37-3.79-2.98-5.77-4.66c-5.56-4.72-13.74-12.3-21.08-21.6
	c-1.2-1.52-2.39-3.1-3.53-4.71l-0.39-0.56c-4.48-6.42-9.2-11.97-14.04-16.51c-1.43-1.35-2.91-2.65-4.41-3.85
	c-6.7-5.41-13.75-9.22-21.56-11.66c-2.04-0.64-4.17-1.19-6.32-1.64c-1.21-0.25-2.47-0.47-3.74-0.66c-7.32-1.11-14.09-1.58-20.13-1.4
	c-2.58,0.08-4.97,0.27-7.13,0.57c-5.41,0.74-9.67,2.2-12.34,4.23c-6.15,4.66-9,10.85-9.17,12.26c1.16,1.79,3.74,2.86,7.24,3.92
	c1.2,0.36,2.55,0.73,3.72,1.05l0.17,0.05c0.6,0.17,1.23,0.34,1.86,0.51c2.69,0.74,5.92,1.69,9.49,3.05l1.73,0.66
	c0.78,0.3,1.55,0.59,2.3,0.88c1.76,0.67,3.83,1.46,5.79,2.27c5.85,2.4,10.18,4.68,14.48,7.64c1.64,1.13,3.24,2.32,4.88,3.65
	c0.35,0.28,0.72,0.58,1.09,0.89c4.21,3.51,7.13,6.47,9.78,9.91c1.14,1.48,2.24,3.06,3.34,4.83c2.35,3.76,4.83,8.48,8.28,15.77
	c0.57,1.2,1.16,2.45,1.77,3.76c0.2,0.43,0.41,0.88,0.62,1.35l0.09,0.2c2.19,4.84,4.94,11.53,7.57,17.97l2.32,5.7
	c2.82,6.92,5.84,14.3,9.03,21.78c0.9,2.12,1.82,4.24,2.74,6.35c4.77,10.93,8.96,19.71,12.8,26.85c1.59,2.95,3.12,5.62,4.56,7.95
	c1.12,1.8,2.2,3.44,3.21,4.85c6.5,9.1,60.4,82.42,101.58,138.28C900.32,1127.9,917.59,1105.88,932.23,1082.07z M400.64,735.26
	c1.01-1.69,2.75-4.36,4.97-7.75l0.2-0.31c6.9-10.57,18.46-28.25,24.22-41.2c6.17-13.88,7.28-23.91,3.21-29
	c-2.95-0.18-11.52,8.36-17.19,14c-2.05,2.05-4.61,4.6-6.93,6.78c-10.21,9.58-22.67,26.71-26.2,32.83
	c-3.12,5.39-15.82,21.35-19.96,26.51c0.68,3.92,1.4,8.49,2.27,14.03c2.2,14.01,4.68,29.88,7.73,40.29c1.08,3.69,2.48,8.59,3.9,13.61
	c1.81-14.1,3.92-29.95,4.59-32.6l0.03-0.12C382.55,768.32,396.9,741.51,400.64,735.26z M305.41,1084.12
	c14.83,23.77,32.3,45.73,51.99,65.47c42.82-58,97.23-131.7,103.26-140.15l0.3-0.42c1.66-2.36,3.43-5.17,5.25-8.37
	c4.39-7.68,9.31-17.77,15.02-30.87c0.92-2.11,1.84-4.24,2.74-6.35c3.15-7.38,6.19-14.81,9.03-21.78c0.21-0.53,0.43-1.05,0.64-1.56
	l1.68-4.13c2.75-6.74,5.4-13.18,7.56-17.97l0.97-2.11c0.52-1.11,1.02-2.17,1.51-3.2c3.04-6.4,5.2-10.6,7.23-14.03
	c1.08-1.83,2.12-3.44,3.17-4.91c2.93-4.13,6.22-7.59,11-11.57c0.36-0.3,0.73-0.6,1.09-0.89c1.64-1.33,3.24-2.52,4.88-3.65
	c4.28-2.94,8.61-5.22,14.48-7.63c1.7-0.7,3.54-1.42,5.79-2.27c0.75-0.29,1.52-0.58,2.31-0.88l1.72-0.66
	c3.47-1.32,6.61-2.24,9.49-3.05c0.7-0.2,1.37-0.38,2.04-0.56l0.09-0.02c1.29-0.35,2.51-0.69,3.62-1.02c3.51-1.05,6.1-2.13,7.26-3.92
	c-0.17-1.4-3.03-7.6-9.17-12.26c-2.7-2.05-6.86-3.47-12.36-4.23c-2.21-0.31-4.61-0.5-7.13-0.57c-6.03-0.18-12.8,0.3-20.12,1.4
	c-1.26,0.19-2.52,0.42-3.75,0.66c-2.16,0.45-4.28,1-6.32,1.64c-7.81,2.44-14.86,6.25-21.56,11.66c-1.5,1.21-2.98,2.51-4.41,3.85
	c-4.89,4.58-9.47,9.98-14.03,16.5c-0.66,0.95-1.35,1.9-2.04,2.82c-1.17,1.57-2.41,3.15-3.68,4.68c-6.9,8.35-14.29,15.15-19.29,19.38
	c-1.97,1.67-3.97,3.28-5.77,4.66c-1.79,1.36-3.05,2.23-3.63,2.59c-1.36,0.83-3.66,0.98-10.52-0.96c-3.91-1.11-8.03-2.56-9.94-3.3h0
	l-0.12-0.05c-0.03-0.01-0.05-0.02-0.08-0.03l-0.03-0.01c-7.4-2.96-23.42-9.56-23.5-9.6c-1.2-0.49-1.78-1.88-1.29-3.09
	c0.5-1.21,1.89-1.79,3.1-1.29l0.31,0.13c1.46,0.6,7.74,3.18,13.83,5.67c2.07,0.84,4.12,1.68,5.95,2.42
	c-0.12-1.05-0.29-2.4-0.48-3.88c-0.14-1.13-0.29-2.33-0.44-3.51c-2.49-19.81-2.81-23.56-2.48-24.77c0.11-0.4,0.51-1.99,1.11-5.92
	c0.27-1.8,0.53-3.75,0.78-5.8c0.15-1.22,0.3-2.53,0.45-3.95c1.03-9.62,3.97-16.67,10.14-24.34c2.67-3.31,5.56-7.7,8.1-11.56
	c3.24-4.91,6.02-9.13,8.08-10.9c2.53-2.17,10.33-9.67,16.77-16.48c1.31-1.38,2.6-2.79,3.84-4.17c1.37-1.54,2.52-2.9,3.41-4.04
	c5.77-7.35,7.64-15.22,8.24-19.26c0.37-2.46-0.18-5.14-1.24-6.1c-0.29-0.26-0.62-0.4-1.29-0.24c-2.58,0.64-12.17,8.69-18.52,14.01
	c-1.16,0.98-2.31,1.94-3.4,2.85c-1.3,1.08-2.97,2.47-4.43,3.63c-0.41,0.32-0.8,0.63-1.17,0.92c-4.7,3.62-11.02,10.43-15.21,14.94
	c-3.55,3.83-4.76,5.1-5.59,5.6c-1.1,0.65-10.31,8.1-16.41,13.03l-0.09,0.07c-1.94,1.57-3.79,3.07-5.38,4.35
	c-3.17,9.82-7.23,23.85-9.28,32.06c-0.96,3.83-1.16,5.11-1.19,5.54c-0.25,3.87,3.22,7.92,4.89,9.87c0.41,0.48,0.61,1.1,0.57,1.73
	s-0.34,1.21-0.82,1.62c-0.42,0.37-0.97,0.57-1.54,0.57c-0.7,0-1.36-0.3-1.8-0.83c-2.08-2.42-6.41-7.47-6.02-13.25
	c0.02-0.3,0.07-0.69,0.15-1.17c0.23-1.28,0.67-3.24,1.29-5.68c2.11-8.43,6.27-22.73,9.46-32.56l0.15-0.46
	c2.04-6.24,3.5-10.13,4.36-11.56c2.98-4.96,22.97-33.92,27.33-38.32c0.36-0.37,0.86-0.85,1.46-1.43c0.69-0.67,1.53-1.46,2.47-2.36
	l1.64-1.56c5.83-5.57,21.33-20.38,24.48-26.19c3.92-7.24,7.33-19.3,6.17-25.72c-0.63-3.43-1.54-3.8-1.54-3.81
	c-0.1-0.04-1.04-0.29-3.94,2.03c-4.76,3.81-40.12,33.7-47.1,39.73c-5.79,5-25.72,23.47-34.05,31.21
	c-0.95,4.89-4.15,29.78-5.76,42.56c0.21,0.73,0.41,1.47,0.62,2.2l0.74,2.62c1.91,6.78,3.88,13.78,5.63,19.89
	c0.71,2.48,1.38,4.83,2,6.95c1.71,5.9,2.78,9.38,3.26,10.66l2.17,5.78c0.46,1.23-0.16,2.6-1.39,3.06c-0.59,0.22-1.24,0.2-1.82-0.06
	c-0.58-0.26-1.02-0.73-1.24-1.33l-2.16-5.78c-0.6-1.6-1.95-6.04-4.11-13.58c-0.62-2.16-1.29-4.49-1.99-6.94
	c-1.45-5.08-3.02-10.67-4.61-16.3l-1.81-6.43c-2.58-9.17-5.24-18.62-7.03-24.71c-3.13-10.68-5.64-26.73-7.86-40.89
	c-1.4-8.93-2.61-16.65-3.72-21.39c-2.69-11.43-14.15-45.51-22.16-60.28c-7.54-13.92-25.74-21.75-31.39-22.38
	c-0.81-0.09-1.22-0.02-1.34,0.03c-0.76,1.08,1.01,8.45,2.57,14.97l0.06,0.24c0.4,1.69,0.83,3.5,1.29,5.47l1,4.28
	c4.54,19.36,11.37,48.53,12.05,62.79c0.77,16.1,3.21,39.45,7.58,52.29c4.62,13.61-2.68,66.53-9.07,98.01
	c-3.84,18.94,5.2,40.32,15.66,65.09c6.75,15.97,13.73,32.49,18.24,50.56c4.17,16.68,3.28,29.04-2.87,40.09
	c-5.67,10.2-15.29,18.42-27.46,28.82C316.13,1074.63,310.91,1079.09,305.41,1084.12z M635.22,1039.44L620.5,965.7l-14.73,73.8
	l-19.67-20.75l12.53,32.83l-32.85-12.48l20.74,19.6l-73.73,14.72l73.8,14.73l-20.75,19.67l32.83-12.53l-12.48,32.85l19.6-20.74
	l14.72,73.73l14.73-73.8l19.67,20.75l-12.53-32.83l32.85,12.48l-20.74-19.6l73.73-14.72l-73.8-14.73l20.75-19.67l-32.83,12.53
	l12.48-32.85L635.22,1039.44z M1228.66,113.52v1772.96c0,30.2-11.84,58.67-33.34,80.18c-21.5,21.5-49.98,33.34-80.17,33.34H125.86
	c-30.2,0-58.67-11.84-80.17-33.34c-21.5-21.5-33.34-49.98-33.34-80.18V113.52c0-30.2,11.84-58.67,33.34-80.18
	C67.19,11.84,95.66,0,125.86,0h989.27c30.2,0,58.67,11.84,80.17,33.34C1216.81,54.85,1228.66,83.32,1228.66,113.52z M1222.61,113.52
	c0-59.26-48.21-107.47-107.47-107.47H125.86C66.6,6.05,18.39,54.26,18.39,113.52v1772.96c0,59.26,48.21,107.47,107.47,107.47h989.27
	c59.26,0,107.47-48.21,107.47-107.47V113.52z M532.76,1757.48c-0.14-13.75-0.29-27.51-0.43-41.26c-0.21-7.54,0.96-8.32,10.21-8.51
	c0-1.2,0-1.8,0-3c-6.27-0.59-12.55-1.26-18.8-2.01c-8.43,17.02-16.9,34.02-25.4,51.01c-7.91-19.42-15.78-38.85-23.61-58.31
	c-6.19-1.1-12.37-2.29-18.52-3.54c0,1.2,0,1.8,0,3.01c9.35,2.76,10.42,4.73,10,10.23c-1.12,15.64-1.4,31.74-3.51,47.09
	c-0.77,5.57-3.41,6.44-9.57,5.81c0,1.2,0,1.8,0,3.01c8.38,1.74,16.79,3.34,25.23,4.82c0-1.2,0-1.8,0-3.01
	c-7.25-2.02-10-3.5-10.02-9.44c-0.04-15.68,1.16-31.84,1.92-47.73c8.07,20.86,16.32,41.69,23.8,62.77c1.11,0.17,1.67,0.26,2.78,0.43
	c8.29-18.99,17.81-37.46,26.68-56.18c-0.04,14.59-0.07,29.19-0.11,43.78c0.47,7.07-0.26,13.47-9.01,11.87c0,1.2,0,1.8,0,3.01
	c9.51,1.19,19.03,2.26,28.56,3.22c0-1.2,0-1.8,0-3.01C534.12,1770.44,532.74,1765.82,532.76,1757.48z M622.62,1742.39
	c0,20-15.03,37.15-35.6,36.74c-20.32-0.41-35.75-18.91-35.77-38.12c-0.02-19.59,15.96-36.09,36.41-34.74
	C606.51,1707.51,622.63,1723.19,622.62,1742.39z M611.62,1745.33c0.13-15.99-8.54-34.12-26.1-35.18
	c-15.65-0.95-23.21,15.08-23.06,28.84c0.18,15.9,8.38,35.1,26.3,36.13C605.19,1776.07,611.51,1759.1,611.62,1745.33z M705.92,1738.1
	c-0.1,20.13-14.88,38.61-35.52,40.31c-20.12,1.67-35.81-15.54-35.8-34.52c0.01-19.82,15.86-37.61,36.45-38.4
	C689.59,1704.78,706.01,1719.2,705.92,1738.1z M694.95,1742.15c0.16-15.66-8.52-33.31-26.06-32.56
	c-15.66,0.67-23.11,17.15-23.07,31.15c0.03,15.07,8.35,34.55,26.31,33.49C688.59,1773.26,694.81,1756.25,694.95,1742.15z
	 M763.87,1699.21c8.54-0.95,10.91,0.14,11.3,4.83c0.26,3.11,0.53,7.74,0.53,17.72c0,8.77,0,17.53,0,26.3
	c-15.27-15.42-30.37-31-45.31-46.73c-6.43,0.85-9.65,1.24-16.1,1.96c0,1.2,0,1.8,0,3.01c5.26-0.05,7.51,0.4,9.55,2.74
	c1.85,2.12,2.15,3.81,2.15,6.82c0,9.12,0,18.25,0,27.37c0,9.77-0.24,14.64-0.54,18.1c-0.46,5.28-3,7.27-9.66,8.57
	c0,1.2,0,1.8,0,3.01c8.7-0.99,17.39-2.12,26.05-3.39c0-1.2,0-1.8,0-3.01c-7.71,0.48-10.31-0.89-10.6-6.25
	c-0.17-3.04-0.54-7.87-0.54-17.53c0-8.94,0-17.89,0-26.83c15.08,16.41,30.33,32.67,45.73,48.78c1.62-0.31,2.43-0.46,4.04-0.78
	c0-14.35,0-28.7,0-43.04c0-9.98,0.16-14.59,0.32-17.99c0.23-4.92,2.56-6.48,9.35-8.64c0-1.2,0-1.8,0-3.01
	c-8.74,1.81-17.5,3.48-26.3,5.01C763.87,1697.41,763.87,1698.01,763.87,1699.21z M1048.69,1744.7c4.68,6.47,15.15,21.81,15.15,29.47
	c0,1.07-0.57,2.06-1.49,2.61c-0.47,0.28-1,0.42-1.53,0.42c-0.51,0-1.02-0.13-1.47-0.38c-36.16-20.2-73.07-16.22-104.87-8.91
	c3.25,5.74,5.69,11.84,5.69,17.22c0,1.16-0.67,2.22-1.71,2.73c-23.72,11.39-47.6,15.55-71.44,15.55
	c-29.07,0.01-58.07-6.19-86.63-13.03c-58.49,9.56-117.83,14.38-177.24,14.38c-60.46,0-120.84-4.99-180.33-14.89
	c-29.24,7.03-58.96,13.54-88.74,13.54c-23.84,0.01-47.71-4.16-71.43-15.55c-1.05-0.5-1.71-1.57-1.71-2.73
	c0-5.41,2.24-11.55,5.21-17.32c-31.63-7.23-68.37-11.17-104.48,9c-0.46,0.26-0.97,0.38-1.47,0.38c-0.53,0-1.06-0.14-1.53-0.42
	c-0.92-0.54-1.49-1.53-1.49-2.61c0-7.66,10.47-23,15.15-29.47c-4.84-4.1-15.15-13.77-15.15-21.89c0-1.1,0.59-2.1,1.55-2.64
	c36.75-20.53,73.19-17.33,104.54-10.55c-1.42-4.75-2.32-9.08-2.32-12.39c0-1.04,0.53-2,1.41-2.56c0.88-0.55,1.98-0.61,2.92-0.16
	c22.51,10.81,45.33,14.85,68.2,14.91v-56.14c0-2.55,1.11-4.81,3.11-6.38c2.67-2.09,6.58-2.7,10.75-1.67
	c167.36,40.43,344.3,40.43,511.66-0.01c4.15-1.02,8.07-0.41,10.73,1.68c2.01,1.57,3.12,3.84,3.12,6.38v56.06
	c21.13-0.64,42.2-4.84,63.01-14.83c0.94-0.45,2.04-0.39,2.92,0.16c0.88,0.56,1.42,1.52,1.42,2.56c0,3.33-1,7.67-2.58,12.43
	c31.44-6.82,67.94-10.02,104.7,10.51c0.96,0.53,1.55,1.54,1.55,2.64C1063.84,1730.93,1053.53,1740.61,1048.69,1744.7z
	 M289.23,1762.32c3.89-6.39,8.12-11.77,10.22-14.33c-2.5-4.93-9.35-18.82-13.98-31.69c-30.51-6.92-66.24-11.03-102.01,8.16
	c1.52,5.4,9.57,13.25,14.84,17.32c1.31,1.01,1.56,2.88,0.57,4.21c-4.45,5.94-10.82,15.51-13.88,22.27
	C221.46,1750.51,257.88,1755,289.23,1762.32z M427.62,1787.23c-20.81-3.76-41.51-8.13-62.05-13.09c-6.79-1.67-12.1-7.26-12.1-12.72
	v-45.91c-21.99-0.06-44-3.69-65.89-13.29c2.67,13.14,13.6,36.03,18.17,44.79c0.58,1.1,0.42,2.45-0.4,3.38
	c-0.11,0.13-6.66,7.69-11.9,16.64c-0.05,0.12-0.12,0.22-0.19,0.33c-3.05,5.26-5.62,10.96-6.17,15.9
	C333.39,1804.75,380.99,1797.89,427.62,1787.23z M781.47,1785.8c5.25-0.77,10.49-1.57,15.72-2.41c27.46-4.42,54.75-9.89,81.79-16.43
	c3.88-0.96,6.46-3.97,6.46-5.54v-45.92v-6.09v-56.14c0-0.27-0.07-0.4-0.28-0.56c-0.68-0.53-2.3-0.84-4.42-0.32
	c-54.31,13.12-109.68,22.06-165.47,26.75c-21.62,1.82-43.3,3-65,3.53c-9.03,0.22-18.07,0.34-27.1,0.34c-0.01,0-0.01,0-0.01,0
	c-11,0-22-0.17-33-0.5c-20.66-0.62-41.3-1.82-61.89-3.61c-54.85-4.75-109.29-13.61-162.69-26.51c-0.78-0.19-1.48-0.27-2.11-0.27
	c-1.08,0-1.89,0.24-2.32,0.58c-0.21,0.17-0.28,0.3-0.28,0.56v56.04v6.09v46.02c0,1.57,2.58,4.59,6.47,5.55
	c26.01,6.28,52.25,11.59,78.65,15.92c5.2,0.85,10.4,1.67,15.6,2.44C567.42,1801.11,675.59,1801.26,781.47,1785.8z M953.99,1783.27
	c-1.43-11.15-14.86-27.23-20.21-32.77c-0.93-0.97-1.12-2.44-0.44-3.61c5.04-8.75,17.12-31.54,20.11-44.64
	c-20.14,8.81-40.39,12.58-60.62,13.18v45.99c0,5.46-5.31,11.05-12.09,12.72h-0.01c-21.5,5.19-43.18,9.73-64.98,13.61
	C861.64,1798.11,908.44,1804.4,953.99,1783.27z M1057.54,1724.46c-35.88-19.25-71.78-15.06-102.43-8.06
	c-5.1,12.77-12.6,26.51-15.43,31.56c2.39,2.63,7.12,8.08,11.43,14.52c31.58-7.44,68.26-12.05,104.9,5.78
	c-3.06-6.77-9.43-16.34-13.89-22.27c-0.99-1.32-0.74-3.2,0.57-4.21C1047.97,1737.71,1056.02,1729.87,1057.54,1724.46z
	 M102.67,164.05c10.35,6.12,21.9,9.26,33.62,9.26c5.53,0,11.1-0.7,16.6-2.11c21.24-5.45,39.08-18.85,50.25-37.73
	c10.5-17.76,13.9-38.37,9.72-58.43h815.27c-4.18,20.07-0.78,40.67,9.72,58.43c11.16,18.88,29.01,32.28,50.25,37.73
	c5.5,1.41,11.07,2.11,16.6,2.11c11.72,0,23.27-3.13,33.62-9.26c15.24-9.01,26.06-23.42,30.46-40.57
	c7.36-28.64-9.96-57.93-38.6-65.29c-23.24-5.97-47,8.08-52.97,31.32c-2.35,9.16-1,18.69,3.82,26.83
	c4.81,8.14,12.51,13.92,21.67,16.27c7.49,1.92,15.27,0.82,21.92-3.12c6.65-3.93,11.38-10.22,13.3-17.71
	c1.58-6.14,0.67-12.54-2.56-18c-3.23-5.46-8.39-9.34-14.54-10.92c-1.62-0.42-3.26,0.56-3.68,2.18c-0.42,1.62,0.56,3.26,2.18,3.68
	c4.58,1.18,8.43,4.07,10.84,8.14c2.41,4.07,3.09,8.84,1.91,13.42c-1.52,5.92-5.26,10.9-10.52,14.01
	c-5.26,3.11-11.42,3.99-17.34,2.47c-7.6-1.95-13.98-6.74-17.97-13.5c-3.99-6.75-5.12-14.65-3.17-22.25
	c5.14-20.01,25.6-32.1,45.61-26.97c25.41,6.53,40.78,32.51,34.25,57.93c-4,15.58-13.83,28.68-27.68,36.87
	c-13.85,8.19-30.06,10.5-45.65,6.49c-40.62-10.43-65.18-51.96-54.74-92.58c0.01-0.02,0-0.05,0.01-0.07c0.02-0.1,0.03-0.2,0.05-0.31
	c0.01-0.1,0.03-0.21,0.03-0.31c0-0.02,0.01-0.04,0.01-0.07c0-0.07-0.02-0.13-0.02-0.2c-0.01-0.11-0.01-0.22-0.03-0.33
	c-0.02-0.09-0.04-0.18-0.07-0.28c-0.03-0.1-0.05-0.19-0.09-0.28c-0.04-0.09-0.08-0.18-0.13-0.27c-0.04-0.08-0.08-0.17-0.13-0.25
	c-0.05-0.08-0.11-0.16-0.17-0.24c-0.06-0.08-0.12-0.15-0.18-0.22c-0.07-0.07-0.14-0.13-0.21-0.19c-0.07-0.07-0.15-0.13-0.23-0.19
	c-0.08-0.06-0.17-0.11-0.26-0.16c-0.08-0.05-0.16-0.09-0.25-0.13c-0.1-0.05-0.21-0.08-0.31-0.12c-0.06-0.02-0.12-0.05-0.19-0.07
	c-0.02-0.01-0.04,0-0.07-0.01c-0.1-0.02-0.2-0.03-0.31-0.05c-0.1-0.01-0.21-0.03-0.31-0.03c-0.02,0-0.04-0.01-0.07-0.01H209.06
	c-0.02,0-0.04,0.01-0.07,0.01c-0.1,0-0.21,0.02-0.31,0.03c-0.1,0.01-0.21,0.02-0.3,0.05c-0.02,0.01-0.04,0-0.07,0.01
	c-0.07,0.02-0.12,0.05-0.19,0.07c-0.11,0.04-0.21,0.07-0.31,0.12c-0.09,0.04-0.17,0.09-0.25,0.13c-0.09,0.05-0.17,0.1-0.26,0.16
	c-0.08,0.06-0.15,0.12-0.23,0.19c-0.07,0.06-0.14,0.12-0.21,0.19c-0.07,0.07-0.12,0.15-0.18,0.22c-0.06,0.08-0.12,0.15-0.17,0.24
	c-0.05,0.08-0.09,0.16-0.13,0.25c-0.05,0.09-0.09,0.18-0.13,0.27c-0.04,0.09-0.06,0.19-0.09,0.28c-0.03,0.09-0.05,0.18-0.07,0.28
	c-0.02,0.11-0.03,0.22-0.03,0.33c0,0.07-0.02,0.13-0.02,0.2c0,0.02,0.01,0.05,0.01,0.07c0,0.1,0.02,0.2,0.03,0.31
	c0.01,0.1,0.02,0.21,0.05,0.31c0.01,0.02,0,0.04,0.01,0.07c5.05,19.68,2.14,40.14-8.2,57.63c-10.34,17.49-26.87,29.9-46.55,34.95
	c-15.58,4-31.79,1.7-45.64-6.49c-13.85-8.19-23.68-21.28-27.68-36.87c-6.53-25.41,8.84-51.4,34.25-57.93
	c20.01-5.14,40.47,6.96,45.61,26.97c1.95,7.6,0.83,15.5-3.17,22.25c-3.99,6.75-10.38,11.55-17.97,13.5
	c-5.92,1.52-12.08,0.64-17.34-2.47c-5.26-3.11-9-8.09-10.52-14.01c-1.18-4.58-0.5-9.35,1.91-13.42c2.41-4.07,6.26-6.96,10.84-8.14
	c1.62-0.42,2.59-2.06,2.18-3.68c-0.41-1.62-2.06-2.59-3.68-2.18c-6.14,1.58-11.31,5.45-14.54,10.92c-3.23,5.46-4.14,11.85-2.56,18
	c1.92,7.49,6.65,13.77,13.3,17.71c6.65,3.93,14.44,5.04,21.92,3.12c9.16-2.35,16.86-8.13,21.67-16.27
	c4.81-8.14,6.17-17.67,3.82-26.83c-5.97-23.24-29.73-37.29-52.97-31.32c-28.64,7.36-45.96,36.64-38.6,65.29
	C76.61,140.63,87.43,155.04,102.67,164.05z M1088.1,1828.81c-42.59,10.94-68.82,53.55-59.97,96.17H212.86
	c8.85-42.62-17.38-85.23-59.97-96.17c-35.4-9.09-71.6,12.31-80.69,47.71c-7.36,28.64,9.96,57.93,38.6,65.29
	c3.62,0.93,7.24,1.37,10.82,1.37c19.38,0,37.11-13.07,42.15-32.69c2.35-9.16,1-18.69-3.82-26.83c-4.81-8.14-12.51-13.92-21.67-16.27
	c-7.49-1.92-15.27-0.82-21.92,3.12c-6.65,3.93-11.38,10.22-13.3,17.71c-1.58,6.15-0.67,12.54,2.56,18
	c3.23,5.46,8.39,9.34,14.54,10.92c1.62,0.42,3.26-0.56,3.68-2.18c0.42-1.62-0.56-3.26-2.18-3.68c-4.58-1.18-8.43-4.07-10.84-8.14
	c-2.41-4.07-3.09-8.84-1.91-13.42c1.52-5.92,5.26-10.9,10.52-14.01c5.26-3.11,11.42-3.99,17.34-2.47c7.6,1.95,13.98,6.74,17.97,13.5
	c3.99,6.75,5.12,14.65,3.17,22.25c-5.14,20.01-25.6,32.1-45.61,26.97c-25.41-6.53-40.78-32.51-34.25-57.93
	c8.26-32.17,41.16-51.62,73.33-43.36c40.62,10.43,65.18,51.96,54.74,92.58c-0.01,0.02-0.01,0.04-0.01,0.07
	c-0.02,0.1-0.03,0.2-0.05,0.31c-0.01,0.1-0.03,0.21-0.03,0.31c0,0.02-0.01,0.05-0.01,0.07c0,0.07,0.02,0.13,0.02,0.2
	c0.01,0.11,0.01,0.22,0.03,0.33c0.02,0.1,0.04,0.19,0.07,0.28c0.03,0.1,0.05,0.19,0.09,0.28c0.04,0.09,0.08,0.18,0.13,0.27
	c0.04,0.08,0.08,0.17,0.13,0.25c0.05,0.08,0.11,0.16,0.17,0.24c0.06,0.08,0.12,0.15,0.18,0.22c0.07,0.07,0.14,0.13,0.21,0.19
	c0.07,0.07,0.15,0.13,0.23,0.19c0.08,0.06,0.17,0.11,0.26,0.16c0.08,0.05,0.16,0.09,0.25,0.13c0.1,0.05,0.21,0.08,0.31,0.12
	c0.06,0.02,0.12,0.05,0.19,0.07c0.02,0.01,0.04,0.01,0.07,0.01c0.1,0.02,0.2,0.03,0.31,0.05c0.1,0.01,0.21,0.03,0.31,0.03
	c0.02,0,0.04,0.01,0.07,0.01h822.87c0.02,0,0.05-0.01,0.07-0.01c0.1,0,0.2-0.02,0.3-0.03c0.1-0.01,0.21-0.02,0.31-0.05
	c0.02-0.01,0.04,0,0.07-0.01c0.07-0.02,0.12-0.05,0.19-0.07c0.11-0.04,0.21-0.07,0.31-0.12c0.09-0.04,0.17-0.09,0.25-0.13
	c0.09-0.05,0.17-0.1,0.26-0.16c0.08-0.06,0.15-0.12,0.23-0.19c0.07-0.06,0.14-0.12,0.21-0.19c0.07-0.07,0.13-0.15,0.18-0.22
	c0.06-0.08,0.12-0.15,0.17-0.24c0.05-0.08,0.09-0.16,0.13-0.25c0.05-0.09,0.09-0.18,0.13-0.27c0.04-0.09,0.06-0.19,0.09-0.28
	c0.03-0.09,0.05-0.18,0.07-0.28c0.02-0.11,0.03-0.22,0.03-0.33c0-0.07,0.02-0.13,0.02-0.2c0-0.02-0.01-0.04-0.01-0.07
	c0-0.1-0.02-0.21-0.03-0.31c-0.01-0.1-0.02-0.21-0.05-0.31c-0.01-0.02,0-0.05-0.01-0.07c-10.43-40.62,14.13-82.15,54.74-92.58
	c32.17-8.26,65.07,11.19,73.33,43.36c6.53,25.41-8.84,51.4-34.25,57.93c-20.01,5.14-40.47-6.96-45.61-26.97
	c-1.95-7.6-0.83-15.5,3.17-22.25c3.99-6.75,10.38-11.55,17.97-13.5c5.92-1.52,12.08-0.64,17.34,2.47c5.26,3.11,9,8.09,10.52,14.01
	c1.18,4.58,0.5,9.35-1.91,13.42c-2.41,4.07-6.26,6.96-10.84,8.14c-1.62,0.42-2.59,2.06-2.18,3.68c0.42,1.62,2.06,2.59,3.68,2.18
	c6.14-1.58,11.31-5.45,14.54-10.92c3.23-5.46,4.14-11.85,2.56-18c-1.92-7.49-6.65-13.77-13.3-17.71
	c-6.65-3.93-14.44-5.04-21.92-3.12c-9.16,2.35-16.86,8.13-21.67,16.27c-4.81,8.14-6.17,17.67-3.82,26.83
	c5.04,19.62,22.76,32.69,42.15,32.69c3.57,0,7.2-0.44,10.82-1.37c28.64-7.36,45.96-36.64,38.6-65.29
	C1159.7,1841.12,1123.5,1819.71,1088.1,1828.81z M90.51,1816.81c28.78,0,53.1-22.4,55.06-51.52c0-0.03,0-0.07,0-0.1
	c0-0.03,0.01-0.07,0.01-0.1V234.91c0-0.03-0.01-0.07-0.01-0.1c0-0.03,0.01-0.07,0-0.1c-2.04-30.38-28.41-53.44-58.79-51.4
	c-11.93,0.8-22.84,6.2-30.71,15.21c-7.87,9.01-11.77,20.54-10.97,32.47c1.29,19.22,17.34,33.99,36.32,33.99
	c0.82,0,1.64-0.03,2.46-0.08c7.93-0.53,15.17-4.12,20.4-10.1c5.23-5.98,7.82-13.64,7.28-21.57c-0.44-6.5-3.38-12.45-8.29-16.74
	c-4.91-4.29-11.19-6.42-17.69-5.98c-5.36,0.36-10.27,2.79-13.8,6.83c-3.54,4.05-5.29,9.23-4.93,14.59c0.11,1.67,1.55,2.93,3.22,2.81
	c1.67-0.11,2.93-1.55,2.81-3.22c-0.25-3.75,0.97-7.38,3.45-10.21c2.48-2.83,5.91-4.53,9.66-4.78c4.89-0.33,9.62,1.27,13.31,4.5
	c3.69,3.23,5.91,7.7,6.23,12.59c0.42,6.32-1.64,12.42-5.8,17.19c-4.17,4.77-9.94,7.62-16.26,8.05
	c-16.72,1.12-31.23-11.57-32.35-28.28c-0.69-10.32,2.68-20.3,9.49-28.09c6.81-7.79,16.24-12.46,26.57-13.15
	c27.03-1.81,50.49,18.68,52.35,45.7v1529.92c-1.85,27.02-25.32,47.51-52.35,45.7c-10.32-0.69-19.76-5.36-26.57-13.15
	c-6.81-7.79-10.18-17.76-9.49-28.09c1.12-16.72,15.64-29.41,32.35-28.28c13.04,0.88,22.94,12.2,22.06,25.24
	c-0.68,10.1-9.45,17.76-19.54,17.09c-7.75-0.52-13.63-7.25-13.11-14.99c0.11-1.67-1.15-3.11-2.81-3.22
	c-1.66-0.11-3.11,1.15-3.22,2.81c-0.74,11.07,7.66,20.69,18.73,21.43c0.55,0.04,1.1,0.06,1.65,0.06c12.72,0,23.47-9.9,24.33-22.77
	c1.1-16.37-11.32-30.57-27.69-31.67c-20.04-1.34-37.44,13.87-38.79,33.91c-0.8,11.93,3.09,23.47,10.97,32.47
	c7.87,9.01,18.78,14.41,30.71,15.21C88.03,1816.77,89.27,1816.81,90.51,1816.81z M1154.23,183.31
	c-30.38-2.04-56.75,21.02-58.79,51.4c0,0.03,0,0.07,0,0.1c0,0.03-0.01,0.07-0.01,0.1v1530.17c0,0.03,0.01,0.07,0.01,0.1
	c0,0.03-0.01,0.07,0,0.1c1.95,29.13,26.28,51.52,55.06,51.52c1.24,0,2.48-0.04,3.73-0.13c11.93-0.8,22.84-6.2,30.71-15.21
	c7.87-9.01,11.77-20.54,10.97-32.47c-1.35-20.04-18.75-35.25-38.79-33.91c-16.37,1.1-28.79,15.31-27.69,31.67
	c0.9,13.42,12.55,23.62,25.98,22.71c11.07-0.74,19.48-10.36,18.73-21.43c-0.11-1.67-1.55-2.92-3.22-2.81
	c-1.67,0.11-2.93,1.55-2.81,3.22c0.52,7.75-5.36,14.47-13.11,14.99c-10.1,0.67-18.87-6.99-19.54-17.09
	c-0.88-13.04,9.02-24.36,22.06-25.24c16.71-1.12,31.23,11.56,32.35,28.28c0.69,10.32-2.68,20.3-9.48,28.09
	c-6.81,7.79-16.24,12.46-26.57,13.15c-27.03,1.81-50.5-18.68-52.35-45.7V235.04c1.85-27.02,25.32-47.51,52.35-45.7
	c10.32,0.69,19.76,5.36,26.57,13.15c6.81,7.79,10.18,17.76,9.48,28.09c-1.12,16.72-15.64,29.41-32.35,28.28
	c-13.04-0.88-22.94-12.2-22.06-25.24c0.33-4.89,2.54-9.36,6.23-12.59c3.69-3.23,8.42-4.82,13.31-4.5c3.75,0.25,7.18,1.95,9.66,4.78
	c2.48,2.83,3.7,6.46,3.45,10.21c-0.11,1.67,1.15,3.11,2.81,3.22c1.66,0.11,3.11-1.15,3.22-2.81c0.36-5.36-1.39-10.55-4.93-14.59
	c-3.54-4.05-8.44-6.47-13.81-6.83c-6.5-0.44-12.79,1.69-17.69,5.98c-4.91,4.29-7.85,10.23-8.29,16.74
	c-1.1,16.37,11.32,30.57,27.69,31.67c0.83,0.06,1.65,0.08,2.46,0.08c18.98,0,35.03-14.78,36.32-33.99
	c0.8-11.93-3.09-23.47-10.97-32.47C1177.07,189.52,1166.16,184.11,1154.23,183.31z M79.24,1716.61c14.52,0,28.05,7.19,36.19,19.24
	c0.58,0.86,1.54,1.33,2.51,1.33c0.58,0,1.17-0.17,1.69-0.52c1.38-0.93,1.75-2.81,0.81-4.2c-8.7-12.88-22.8-20.88-38.17-21.81V291.03
	c15.37-0.93,29.48-8.94,38.17-21.81c0.93-1.38,0.57-3.26-0.81-4.2c-1.38-0.93-3.26-0.57-4.2,0.81
	c-8.14,12.05-21.67,19.24-36.19,19.24c-14.52,0-28.05-7.19-36.19-19.24c-0.93-1.38-2.81-1.75-4.2-0.81
	c-1.38,0.93-1.75,2.81-0.81,4.2c8.7,12.87,22.8,20.88,38.17,21.81v1419.63c-15.37,0.93-29.48,8.94-38.17,21.81
	c-0.93,1.38-0.57,3.26,0.81,4.2c1.38,0.93,3.26,0.57,4.2-0.81C51.2,1723.8,64.73,1716.61,79.24,1716.61z M1160.57,285.08
	c-14.52,0-28.05-7.19-36.19-19.24c-0.93-1.38-2.81-1.75-4.2-0.81c-1.38,0.93-1.75,2.81-0.81,4.2c8.7,12.87,22.8,20.88,38.17,21.81
	v1419.63c-15.37,0.93-29.48,8.94-38.17,21.81c-0.93,1.38-0.57,3.26,0.81,4.2c1.38,0.93,3.26,0.57,4.2-0.81
	c8.14-12.05,21.67-19.24,36.19-19.24c14.52,0,28.05,7.19,36.19,19.24c0.58,0.86,1.54,1.33,2.51,1.33c0.58,0,1.17-0.17,1.69-0.52
	c1.38-0.93,1.75-2.81,0.81-4.2c-8.7-12.88-22.8-20.88-38.17-21.81V291.03c15.37-0.93,29.48-8.94,38.17-21.81
	c0.93-1.38,0.57-3.26-0.81-4.2c-1.38-0.93-3.26-0.57-4.2,0.81C1188.62,277.88,1175.09,285.08,1160.57,285.08z"/>
</svg>
