<?xml version="1.0" encoding="utf-8"?>
<!-- Generator: Adobe Illustrator 24.0.2, SVG Export Plug-In . SVG Version: 6.00 Build 0)  -->
<svg version="1.1" id="Слой_1" xmlns="http://www.w3.org/2000/svg" xmlns:xlink="http://www.w3.org/1999/xlink" x="0px" y="0px"
	 viewBox="0 0 1170.63 2000" style="enable-background:new 0 0 1170.63 2000;" xml:space="preserve">
<style type="text/css">
	.st0{fill:#FFFFFF;}
</style>
<path class="st0" d="M1123.17,1231.87c-22.05-60.55-54.05-116.62-95.07-166.69c-56.32-68.69-127.88-123.17-207.9-159.31
	c6.77-29.38,13.43-61.47,18.99-94.17c21.54-126.71,12.75-321.11-1.31-381.93c-14.06-60.82-40.09-122.79-80.63-169.67
	c-37.51-43.37-120.52-56.6-163.91-3.21c-9.03,11.11-11.12,26.23-2.74,37.84c0.22,0.31,0.44,0.63,0.66,0.95
	c-0.2,0.71-0.38,1.43-0.54,2.14c-1.49,6.53-1.41,12.61,0.21,18.11c4.14,13.95,1.88,21.2-0.75,29.6c-4.64,14.82-9.9,31.63,16.8,87.44
	c2.81,5.86,7.33,9.94,13.08,11.83c6.79,2.24,14.79,1.22,23.2-2.93c1.32,9.25-6.32,55.25-9.19,63.88l-0.39,1.17
	c-0.35,1.08-0.81,2.51-1.16,3.12c-2.34-0.99-9.37-9.19-12.1-12.36c-16.86-19.72-51.31-33.89-122.84-50.58
	c-68.75-16.04-110.84-44.93-117.36-49.63c0.02-12.42,0.16-121.97,2.54-145.62c0.48-4.9,0.57-9.79,0.66-14.52
	c0.3-16.84,0.6-32.91,17.64-50.55c7.46,21.62,16.84,42.57,46.15,56.83c28.74,13.97,70.11,1.97,70.11,1.97s-17.34-10.66-27.03-14.37
	c16.91-2,32.95-9.27,32.95-9.27s-7.81-1.37-18.59-5.09c14.31-2.97,28.71-14.27,28.71-14.27s-30.4,0.18-47.44-20.83
	c-12.88-15.89-19.61-35.4-29.21-52.77c-10.33-18.7-27.26-32.09-46.51-41.42c0.02-0.04,0.03-0.08,0.05-0.12
	c0.14-0.3,0.27-0.6,0.41-0.92l0.15-0.32c0.77-1.73,0.62-3.47-0.41-4.93c-3.54-4.99-16.49-4.35-20.36-4.05
	c-0.57,0.04-1.15,0.1-1.74,0.16c-9.62-8.88-43.44-24-88.07-26.53c-34.67-1.97-51.06,5.8-56.82,5.85
	c79.21,10.6,92.26,31.49,104.39,44.37c-0.09,0.12-0.18,0.25-0.26,0.37c-23.71,34.49-17.77,61.04-12.51,84.46
	c1.46,6.53,2.84,12.69,3.56,18.79c0.63,5.54,0.63,10.44-0.02,14.94c-1.58,11.1-7.61,35.26-14.6,63.24
	c-19.51,78.13-34.96,143.91-26.46,157.47c12.88,20.63,98.5,71.24,145.44,92.1c18.07,8.03,34.1,13.27,46.97,17.49
	c15.55,5.07,26.77,8.75,29.56,13.53c0.01,0.03,0.03,0.05,0.04,0.08c0.02,0.04,0.05,0.07,0.06,0.11c0.38,0.69,0.57,1.41,0.57,2.21
	c0,5.45-3.96,13.15-8.98,22.9c-5.96,11.59-13.38,26.01-18.82,44.92c-9.45,32.89,19.79,51.4,26.48,55.14
	c-0.42,10.24-3.36,74.03-12.55,109.61c-3.64,14.15-6.14,28.67-8.3,42.37c-7.06,0.25-32.68,1.05-45.5-0.06
	c-14.41-1.25-48.85-3.33-57.44,4.31c-8.17,7.26-17.06,22.21-19.26,30.23l-1.7,6.19c-1.29,0.05-2.57,0.1-3.84,0.17
	c-23.52,1.28-51.52,6.95-74.92,15.18c-15.08,5.3-41.13,16.34-46.19,30.68c-3.5,9.9-5.15,25-4.87,40.65
	c-70.16,52.14-128.31,120.68-168.18,198.2c-41.84,81.33-63.04,169.27-63.04,261.37c0,77.25,15.12,152.2,44.96,222.75
	c28.83,68.15,70.08,129.34,122.64,181.9c52.54,52.54,113.75,93.81,181.9,122.63c70.55,29.84,145.49,44.98,222.75,44.98
	c77.25,0,152.2-15.14,222.75-44.98c68.15-28.82,129.34-70.09,181.89-122.63c52.56-52.56,93.83-113.75,122.64-181.9
	c29.84-70.55,44.98-145.5,44.98-222.75C1157.57,1360.44,1146,1294.54,1123.17,1231.87z M705.65,822.7
	c9.7,15.02,19.04,28.59,27.1,40.04c3.27,4.65,6.34,9.49,9.22,14.49c-12.28-3.5-24.69-6.6-37.22-9.26
	C700.22,854.75,700.55,839.81,705.65,822.7z M388.51,153.6c2.19,4.41,4.05,8.92,5.74,13.49c-1.56-0.29-2.76-0.95-3.65-2.03
	C388.87,162.92,388.17,158.98,388.51,153.6z M398.05,848.44c5.96-5.3,32.85-5.03,54.06-3.19c12.76,1.11,37,0.4,45.18,0.11l-0.44,2.9
	c-2.4,15.6-5.12,33.28-8.38,34.91c-3.15,1.56-21.69,0.66-41.31-0.29c-20.56-0.99-45.92-2.21-68.34-1.57l1.33-4.83
	C382.13,869.27,390.78,854.9,398.05,848.44z M253.39,929.02c7.07-20.05,70.29-40.34,117.09-42.86c1.76-0.09,3.53-0.18,5.34-0.24
	c0,0,0.01,0,0.01,0c0.01,0,0.01,0,0.02,0c0.02,0,0.04,0,0.07,0c22.98-0.86,49.62,0.44,71.02,1.47c18.16,0.87,30.3,1.41,37.31,0.95
	c-3.9,4.74-11.42,12.92-23.62,22.52c-20.63,16.24-17.05,43.99-16.89,45.16c0.16,1.13,1.12,1.94,2.23,1.94c0.1,0,0.21-0.01,0.31-0.02
	c1.23-0.17,2.09-1.31,1.93-2.54c-0.04-0.26-3.36-26.39,15.21-41c18.21-14.33,26.2-25.42,27.68-27.6c4.67-3.19,6.67-14.83,10.2-37.86
	l0.86-5.56c0-0.02,0.01-0.03,0.01-0.05c2.19-14.11,4.73-29.19,8.5-43.77c9.67-37.48,12.5-105.52,12.73-111.55l20-43.2
	c0.52-1.13,0.03-2.47-1.1-2.99c-1.13-0.52-2.47-0.03-2.99,1.1l-19.2,41.47c-7.4-4.22-31.71-20.59-23.4-49.48
	c5.3-18.46,12.61-32.68,18.49-44.09c4.94-9.6,8.64-16.81,9.34-22.92c4.67,4.24,12.49,12.2,20.79,24.3
	c12.67,18.47,13.67,24.13,13.7,24.29c0.12,1.16,1.1,2.03,2.24,2.03c0.07,0,0.15,0,0.23-0.01c1.24-0.12,2.14-1.23,2.02-2.47
	c-0.06-0.64-1.01-6.77-14.46-26.39c-12.55-18.3-23.89-27.32-25.95-28.88c-3.91-6-15.07-9.66-31.76-15.11
	c-12.79-4.19-28.7-9.4-46.55-17.33c-45.37-20.15-131.19-70.73-143.46-90.37c-8.17-13.05,13.01-97.87,27.02-154
	c7.01-28.1,13.07-52.35,14.69-63.69c0.71-4.9,0.71-10.15,0.03-16.08c-0.74-6.34-2.15-12.61-3.63-19.25
	c-5.3-23.62-10.78-48.05,11.82-80.93c2.22-3.24,4.7-6.53,7.36-9.76c0.44-0.54,0.95-1.08,1.53-1.65c7.15-6.82,20.3-10.09,30.26-10.87
	c9.64-0.77,15.35,0.81,16.32,2.18c0.06,0.07,0.11,0.15-0.03,0.48l-0.14,0.3c-0.16,0.35-0.32,0.69-0.44,0.99
	c-12.6,28.43-19.91,49.93-21.74,63.93c-1.13,8.65-0.24,14.63,2.73,18.28c1.88,2.31,4.52,3.6,7.88,3.86
	c0.31,0.02,0.63,0.03,0.95,0.03c1.19,3.41,2.35,6.83,3.5,10.26c-19.88,19.59-20.21,37.66-20.53,55.21
	c-0.09,4.66-0.17,9.46-0.65,14.16c-2.52,25.17-2.55,142.24-2.55,147.21c0,0.71,0.33,1.37,0.89,1.79
	c0.44,0.33,44.35,33.46,119.96,51.09c70.49,16.44,104.26,30.21,120.45,49.12c10.15,11.83,13.41,14.58,16.52,13.95
	c2.58-0.53,3.44-3.17,4.45-6.25l0.38-1.14c1.23-3.74,4.38-19.66,6.74-35.41c4.67-31.21,2.25-33.25,0.96-34.34
	c-0.98-0.81-2.25-0.93-3.42-0.3c-7.85,4.19-15.17,5.36-21.17,3.39c-4.55-1.49-8.15-4.77-10.41-9.51
	c-25.93-54.21-20.96-70.12-16.56-84.16c2.72-8.71,5.3-16.94,0.77-32.21c-1.21-4.09-1.42-8.46-0.63-13.28
	c7.82,14.9,13.98,37.52,34.24,60.09c44.35,49.42,39.25,144.23,7.88,227.86c-17.76,47.34,1.15,108.52,28.95,164.13
	c-5.56,10.49-10.02,20.71-12.82,30.6c-2.73,9.66-5.68,18.51-8.28,26.32c-8.19,24.57-14.11,42.32-6.87,62.07l9.29,25.34
	c0.33,0.91,1.2,1.48,2.11,1.48c0.26,0,0.52-0.04,0.78-0.14c1.17-0.43,1.77-1.72,1.34-2.89l-9.29-25.34
	c-6.7-18.27-0.99-35.39,6.91-59.09c2.62-7.86,5.59-16.76,8.35-26.52c2.45-8.67,6.25-17.65,10.98-26.88
	c10.78,21.04,22.72,41.19,34.3,59.37c-0.2,0.59-0.4,1.19-0.59,1.78c-5.96,18.92-6.43,35.4-1.37,50.02c0.65,1.92,1.41,3.8,2.27,5.66
	c0.8,1.74,1.68,3.47,2.66,5.17c42.92,74.79,85.39,158.9,45.77,210.37c-27.27,35.43-63.93,26.47-74.2,23.03
	c17.42-24.73,16.21-63.44,15.55-84.56l-0.09-3.05c-0.57-19.85-14.74-58.76-15.34-60.4c-0.43-1.17-1.73-1.77-2.89-1.34
	c-1.17,0.43-1.77,1.72-1.34,2.89c0.15,0.4,14.52,39.86,15.07,58.98l0.09,3.07c0.67,21.26,1.91,60.83-16.42,84.09
	c-0.03,0.04-0.05,0.07-0.07,0.11c-0.25,0.34-16.94,23.08-60.84,30.39c-44.77,7.46-86.63-17.09-145.38-55.4
	c-28.86-18.83-49.15-27.81-65.46-35.02c-17.04-7.54-29.36-12.97-43.23-25.59c-28.04-25.5-63.9-46.21-72.46-46.21
	c-1.23,0-2.25,1.01-2.25,2.25c0,1.25,1.02,2.25,2.25,2.25c6.64,0,41.33,19.48,69.44,45.04c14.42,13.11,27.66,18.97,44.42,26.37
	c16.16,7.15,36.28,16.04,64.83,34.67c52.33,34.12,91.5,57.49,131.64,57.49c5.62,0,11.25-0.47,16.94-1.41
	c9.85-1.64,18.36-4.01,25.68-6.73c-3.61,2.38-6.76,5.19-9.1,8.28c-3.95,5.23-5.3,10.71-3.9,15.84c0.87,3.15,2.01,7.04,3.35,11.55
	c0.68,2.28,1.4,4.69,2.12,7.15c4.15,14.19,8.39,29.76,8.39,37.72c0,1.25,1.01,2.25,2.25,2.25c1.23,0,2.25-1.01,2.25-2.25
	c0-8.53-4.34-24.49-8.57-38.98c-0.72-2.48-1.44-4.88-2.12-7.16c-1.32-4.49-2.48-8.35-3.33-11.47c-1.28-4.72,1.01-9.09,3.15-11.92
	c6.25-8.23,18.94-14.28,30.17-14.37c5.78-0.06,10.08,1.5,13.32,4.72c5.78,5.74,8.48,17.21,8.48,36.12c0,0.9,0,1.79,0.02,2.61
	c0.24,23.98,4.23,28.13,26.47,51.13c2.18,2.25,4.52,4.69,7.07,7.36c11.79,12.3,20.3,24.91,25.99,38.58
	c0.03,0.05,0.04,0.11,0.07,0.15c2.63,6.32,4.23,11.8,5.66,16.65c1.14,3.84,2.12,7.16,3.33,9.87c0.07,0.16,0.07,0.26,0.07,0.26
	c-0.04,0.12-0.41,0.53-1.52,0.99c-11.82,4.91-59.02-0.32-67.82-4.22c-10.74-4.78-21.74-25.71-24.12-32.87
	c-1.28-3.8-7.21-11.35-17.6-24.37c-9.36-11.74-21.01-26.36-28.23-38.17c-5.47-8.92-24.99-18.59-67.4-33.43
	c-0.08-0.03-0.16-0.05-0.26-0.06c-44.02-9.84-102.7-26.31-135.38-43.04c-55.29-28.28-138.16-91.27-150.49-111.02
	c-6.17-9.85-9.63-27.65-10.51-45.56c-0.09-2-0.17-4.01-0.2-6.01C248.54,952.9,250.1,938.35,253.39,929.02z M585.32,1992.49
	c-311.41,0-564.75-253.35-564.75-564.75c0-176.11,83.66-344.07,224.09-450.44c1.17,17.58,4.81,34.66,11.04,44.65
	c12.6,20.17,96.45,84.1,152.26,112.64c33.04,16.91,92.05,33.49,136.33,43.38c27.08,9.48,58.87,21.59,64.92,31.48
	c7.37,12.07,19.12,26.81,28.56,38.64c8.09,10.15,15.75,19.76,16.83,22.99c2.64,7.93,14.4,30.14,26.57,35.56
	c6.28,2.78,32.08,6.52,51.73,6.52c10.68,0,19.54-1.1,22.5-4.05c1.49-1.49,1.85-3.47,0.98-5.44c-1.1-2.43-2.03-5.63-3.12-9.31
	c-0.36-1.21-0.73-2.49-1.15-3.85c4.75,5.94,10.14,12.27,12.92,14.12c1.16,0.77,2.59,1.16,4.22,1.16c1.08,0,2.25-0.17,3.49-0.51
	c6.44-1.77,15.3-8.48,19.78-17.88l0.61-1.28c5.34-11.2,9.19-19.29,9.19-30.1c0-6.52-9.33-14.95-23.56-27.08
	c-8.23-7.01-16.74-14.27-18.28-18.23l-0.78-2c-3.27-8.32-8.73-22.26-9.79-36.34c-0.26-3.35-0.25-6.59,0.03-9.63
	c1.81-20.35-2.9-32.32-15.29-38.81c-12.56-6.58-37.92,2.86-38.99,3.27c-1.16,0.44-1.75,1.74-1.31,2.9c0.44,1.16,1.74,1.75,2.9,1.31
	c0.24-0.09,24.53-9.14,35.31-3.49c10.68,5.6,14.54,15.89,12.89,34.41c-0.3,3.29-0.31,6.78-0.03,10.37
	c1.11,14.75,6.73,29.08,10.09,37.64l0.78,1.99c1.95,5.02,10.11,11.97,19.56,20.02c9.79,8.35,21.98,18.73,21.98,23.66
	c0,9.79-3.48,17.1-8.75,28.16l-0.61,1.28c-3.85,8.09-11.59,14.01-16.9,15.48c-1.77,0.49-3.24,0.47-4.02-0.06
	c-3.67-2.44-14.77-16.66-20.27-24.04c-5.92-14.08-14.69-27.08-26.79-39.71c-2.55-2.66-4.91-5.11-7.1-7.36
	c-21.65-22.42-24.99-25.86-25.2-48.07c-0.02-0.83-0.02-1.68-0.02-2.55c0-20.45-3.03-32.59-9.82-39.31
	c-4.08-4.05-9.72-6.1-16.53-6.02c-3.44,0.03-7,0.58-10.51,1.53c13.26-7.14,20.38-14.7,22.93-17.78
	c8.76,3.05,50.62,14.94,80.61-24.04c44.75-58.18-11.7-156.57-45.44-215.36c-0.32-0.56-0.63-1.13-0.95-1.7
	c13.07,2.91,25.94,6.29,38.63,10.08c31.71,61.65,37.36,140.5,35.13,154.18c-1.82,11.18,17.36-46.76,36.29-127.37
	c197.6,90.05,331.61,290.48,331.61,514.39C1150.07,1739.14,896.71,1992.49,585.32,1992.49z M1109.08,1427.74
	c0,289.27-234.5,523.77-523.77,523.77s-523.77-234.5-523.77-523.77c0-32.26,2.92-63.83,8.51-94.47
	c61.61,176.66,229.64,303.42,427.31,303.42c249.89,0,452.46-202.57,452.46-452.46c0-55.67-10.08-108.99-28.47-158.25
	C1036.1,1122.06,1109.08,1266.37,1109.08,1427.74z M249.97,776.25c33.87-12.54,25.76-4.44,38.31-38.31
	c12.54,33.87,4.44,25.76,38.31,38.31c-33.87,12.55-25.76,4.44-38.31,38.31C275.74,780.69,283.84,788.8,249.97,776.25z
	 M249.78,560.28c5.91,3.32,15.61,5.8,34.44,12.78c-18.82,6.97-28.53,9.46-34.44,12.78c1.73,3.54,3.96,8.01,6.69,13.96
	c-5.95-2.73-10.42-4.96-13.96-6.69c-3.32,5.91-5.8,15.61-12.78,34.44c-6.97-18.82-9.46-28.53-12.78-34.44
	c-3.54,1.73-8.01,3.96-13.96,6.69c2.73-5.95,4.96-10.42,6.69-13.96c-5.91-3.32-15.61-5.8-34.44-12.78
	c18.82-6.97,28.53-9.46,34.44-12.78c-1.73-3.54-3.96-8.01-6.69-13.96c5.95,2.73,10.42,4.96,13.96,6.69
	c3.32-5.91,5.81-15.61,12.78-34.44c6.97,18.82,9.46,28.53,12.78,34.44c3.54-1.73,8.01-3.96,13.96-6.69
	C253.73,552.27,251.51,556.74,249.78,560.28z M326.59,692.91c10.01-21.78,10.01-14.17,0-35.95c21.78,10.01,14.17,10.01,35.95,0
	c-10.01,21.78-10.01,14.17,0,35.95C340.76,682.9,348.37,682.9,326.59,692.91z M569.46,130.19c33.87-12.54,25.76-4.44,38.31-38.31
	c12.54,33.87,4.44,25.76,38.31,38.31c-33.87,12.55-25.76,4.44-38.31,38.31C595.22,134.63,603.33,142.73,569.46,130.19z
	 M690.63,104.58c10.01-21.78,10.01-14.17,0-35.95c21.78,10.01,14.17,10.01,35.95,0c-10.01,21.78-10.01,14.17,0,35.95
	C704.8,94.58,712.41,94.58,690.63,104.58z M602.6,27.07c15.58-5.77,11.85-2.04,17.62-17.62c5.77,15.58,2.04,11.85,17.62,17.62
	c-15.58,5.77-11.85,2.04-17.62,17.62C614.46,29.11,618.19,32.84,602.6,27.07z M1034.17,886.9c-35.43,13.12-26.95,4.64-40.08,40.08
	c-13.12-35.43-4.64-26.95-40.08-40.08c35.43-13.12,26.95-4.64,40.08-40.08C1007.22,882.26,998.74,873.78,1034.17,886.9z
	 M890.94,833.37c10.47-22.79,10.47-14.83,0-37.61c22.79,10.47,14.83,10.47,37.61,0c-10.47,22.79-10.47,14.83,0,37.61
	C905.77,822.9,913.73,822.9,890.94,833.37z M909.75,719.23l41.93-8.37l-7.4-4.93l13.36,2.62l-16.57-24.84l24.73,16.5l-2.65-13.23
	l5.04,7.5l8.4-42.08l8.37,41.93l4.93-7.4l-2.62,13.36l24.84-16.57l-16.5,24.73l13.23-2.65l-7.5,5.04l42.08,8.4l-41.93,8.37l7.4,4.93
	l-13.36-2.62l16.57,24.84l-24.73-16.5l2.65,13.23l-5.04-7.5l-8.4,42.08l-8.37-41.93l-4.93,7.4l2.62-13.36l-24.84,16.57l16.5-24.73
	l-13.23,2.65l7.5-5.04L909.75,719.23z M193.17,64.7c-4.3-2-10.71-4.54-40.42-15.08c31.03,5.57,37.86,6.53,42.58,6.93
	c-0.28-1.25-0.67-2.7-1.19-4.31c-2.12-5.94-5.05-12.96-23.77-52.25c24.85,35.73,29.5,41.74,33.61,46.53c1.13,1.25,2.2,2.3,3.15,3.17
	c2-4.3,4.54-10.71,15.07-40.43c-5.57,31.03-6.53,37.86-6.93,42.58c1.25-0.28,2.71-0.67,4.31-1.19c5.95-2.12,12.96-5.05,52.25-23.77
	c-35.73,24.85-41.74,29.5-46.53,33.61c-1.25,1.13-2.3,2.2-3.17,3.15c4.3,2,10.71,4.54,40.43,15.08
	c-31.03-5.57-37.86-6.53-42.58-6.93c0.28,1.25,0.67,2.7,1.19,4.31c2.12,5.95,5.05,12.96,23.77,52.25
	c-24.85-35.73-29.5-41.74-33.61-46.53c-1.14-1.24-2.2-2.3-3.15-3.16c-2,4.3-4.54,10.71-15.08,40.43
	c5.57-31.03,6.53-37.86,6.93-42.59c-1.25,0.28-2.7,0.67-4.31,1.19c-5.95,2.12-12.96,5.05-52.25,23.77
	c35.73-24.85,41.74-29.5,46.53-33.61C191.25,66.72,192.3,65.65,193.17,64.7z M242.1,56.56c0.44,0.06,0.87,0.12,1.3,0.18
	C242.89,56.74,242.45,56.69,242.1,56.56z"/>
</svg>
