<?xml version="1.0" encoding="utf-8"?>
<!-- Generator: Adobe Illustrator 24.0.2, SVG Export Plug-In . SVG Version: 6.00 Build 0)  -->
<svg version="1.1" id="Слой_1" xmlns="http://www.w3.org/2000/svg" xmlns:xlink="http://www.w3.org/1999/xlink" x="0px" y="0px"
	 viewBox="0 0 1502 2000" style="enable-background:new 0 0 1502 2000;" xml:space="preserve">
<path d="M1183.39,1427.93c0,10.28-8.34,18.62-18.62,18.62c-10.28,0-18.62-8.34-18.62-18.62s8.34-18.62,18.62-18.62
	C1175.05,1409.31,1183.39,1417.64,1183.39,1427.93z M945.85,1580.16c-10.28,0-18.62,8.34-18.62,18.62s8.34,18.62,18.62,18.62
	c10.28,0,18.62-8.34,18.62-18.62S956.13,1580.16,945.85,1580.16z M571.39,1598.78c0-10.28-8.34-18.62-18.62-18.62
	c-10.28,0-18.62,8.34-18.62,18.62s8.34,18.62,18.62,18.62C563.05,1617.4,571.39,1609.06,571.39,1598.78z M1340.45,1199.43
	c-10.28,0-18.62,8.34-18.62,18.62s8.34,18.62,18.62,18.62s18.62-8.34,18.62-18.62S1350.73,1199.43,1340.45,1199.43z M730.69,1412.65
	c0,10.28,8.34,18.62,18.62,18.62s18.62-8.34,18.62-18.62s-8.34-18.62-18.62-18.62S730.69,1402.36,730.69,1412.65z M749.31,1874.09
	c-10.28,0-18.62,8.34-18.62,18.62s8.34,18.62,18.62,18.62s18.62-8.34,18.62-18.62S759.59,1874.09,749.31,1874.09z M749.31,1937.25
	c-7.27,0-13.17,5.89-13.17,13.17c0,7.27,5.9,13.17,13.17,13.17s13.17-5.9,13.17-13.17C762.48,1943.14,756.58,1937.25,749.31,1937.25
	z M749.31,1979.66c-5.62,0-10.17,4.55-10.17,10.17s4.55,10.17,10.17,10.17c5.62,0,10.17-4.55,10.17-10.17
	S754.93,1979.66,749.31,1979.66z M749.31,1378.57c7.27,0,13.17-5.89,13.17-13.17c0-7.27-5.89-13.17-13.17-13.17
	s-13.17,5.89-13.17,13.17C736.14,1372.68,742.04,1378.57,749.31,1378.57z M749.31,1336.17c5.62,0,10.17-4.55,10.17-10.17
	c0-5.62-4.55-10.17-10.17-10.17c-5.62,0-10.17,4.55-10.17,10.17C739.14,1331.61,743.69,1336.17,749.31,1336.17z M730.69,560.81
	c0,10.28,8.34,18.62,18.62,18.62s18.62-8.34,18.62-18.62c0-10.28-8.34-18.62-18.62-18.62S730.69,550.53,730.69,560.81z
	 M749.31,525.19c7.27,0,13.17-5.9,13.17-13.17c0-7.27-5.89-13.17-13.17-13.17s-13.17,5.9-13.17,13.17
	C736.14,519.3,742.04,525.19,749.31,525.19z M749.31,480.82c5.62,0,10.17-4.55,10.17-10.17c0-5.62-4.55-10.17-10.17-10.17
	c-5.62,0-10.17,4.55-10.17,10.17C739.14,476.26,743.69,480.82,749.31,480.82z M1004.7,443.68c19.81,11.32,42.71,12.23,62.4,4.46
	c-2.47-15.66,0.16-32.23,8.64-47.06c8.48-14.83,21.43-25.5,36.18-31.32c-3.3-20.91-15.69-40.19-35.5-51.52
	c-34.64-19.8-78.78-7.78-98.58,26.86C958.03,379.73,970.06,423.87,1004.7,443.68z M1249.5,631.91c-3.3-22.1,3.64-45.41,20.79-62.27
	c17.15-16.86,40.58-23.4,62.62-19.71c-2.18-14.56-8.8-28.6-19.91-39.9c-27.97-28.46-73.71-28.85-102.17-0.88
	s-28.85,73.71-0.88,102.17C1221.06,622.62,1234.97,629.48,1249.5,631.91z M1301.25,795.47c3.25,10.57,8.71,19.84,15.7,27.49
	c3.89-26.77,22.71-50.25,50.28-58.72c27.57-8.48,56.33,0.38,74.59,20.34c1.49-10.26,0.79-21-2.45-31.56
	c-11.72-38.14-52.15-59.56-90.29-47.83C1310.94,716.91,1289.52,757.33,1301.25,795.47z M1394.08,930.29
	c-39.9,0-72.25,32.35-72.25,72.25c0,6,0.74,11.82,2.12,17.4c7.79-31.5,36.22-54.85,70.13-54.85c33.9,0,62.34,23.36,70.13,54.85
	c1.38-5.57,2.12-11.4,2.12-17.4C1466.33,962.64,1433.98,930.29,1394.08,930.29z M858.75,1372.25c2.15-8.7,3.31-17.79,3.31-27.15
	c0-62.27-50.48-112.75-112.75-112.75c-62.27,0-112.75,50.48-112.75,112.75c0,9.36,1.16,18.45,3.31,27.15
	c12.15-49.15,56.53-85.6,109.44-85.6C802.22,1286.64,846.6,1323.09,858.75,1372.25z M426.26,401.07
	c8.48,14.83,11.11,31.4,8.64,47.06c19.69,7.77,42.6,6.87,62.4-4.46c34.64-19.8,46.67-63.94,26.86-98.58
	c-19.8-34.64-63.94-46.67-98.58-26.86c-19.81,11.33-32.2,30.61-35.5,51.52C404.83,375.57,417.78,386.24,426.26,401.07z
	 M231.72,569.64c17.15,16.86,24.09,40.17,20.79,62.27c14.52-2.43,28.44-9.29,39.55-20.59c27.97-28.46,27.58-74.2-0.88-102.17
	c-28.46-27.97-74.2-27.58-102.17,0.88c-11.11,11.3-17.73,25.34-19.91,39.9C191.13,546.24,214.56,552.78,231.72,569.64z
	 M134.77,764.24c27.57,8.48,46.4,31.96,50.28,58.72c6.99-7.65,12.45-16.93,15.7-27.49c11.72-38.14-9.69-78.56-47.83-90.29
	c-38.14-11.72-78.56,9.69-90.29,47.83c-3.25,10.57-3.94,21.31-2.45,31.56C78.43,764.62,107.2,755.76,134.77,764.24z M178.05,1019.93
	c1.38-5.57,2.12-11.4,2.12-17.4c0-39.9-32.35-72.25-72.25-72.25s-72.25,32.35-72.25,72.25c0,6,0.74,11.82,2.12,17.4
	c7.79-31.5,36.22-54.85,70.13-54.85S170.26,988.44,178.05,1019.93z M926.19,108.09c2.93,0,5.87-0.89,8.41-2.75
	c6.37-4.66,7.77-13.59,3.11-19.96c-4.66-6.37-13.59-7.77-19.96-3.11c-6.35,4.64-7.75,13.59-3.11,19.96
	C917.44,106.05,921.78,108.09,926.19,108.09z M563.16,340.63c-6.37,4.64-7.78,13.57-3.12,19.94c2.79,3.84,7.14,5.87,11.55,5.87
	c2.91,0,5.85-0.89,8.39-2.75c6.39-4.64,7.78-13.57,3.14-19.94C578.46,337.38,569.53,335.97,563.16,340.63z M681.27,446.09
	c6.03,0,11.62-3.86,13.59-9.89c2.43-7.5-1.68-15.55-9.19-18c-7.5-2.43-15.55,1.7-17.98,9.19c-2.43,7.5,1.68,15.55,9.18,17.98
	C678.33,445.86,679.81,446.09,681.27,446.09z M816.83,446.02c1.46,0,2.94-0.23,4.41-0.7c7.52-2.45,11.6-10.52,9.18-18.01
	c-2.45-7.5-10.5-11.6-18-9.16c-7.52,2.43-11.6,10.5-9.18,18C805.2,442.18,810.81,446.02,816.83,446.02z M968.3,237.36
	c7.89,0,14.28-6.39,14.28-14.28c0-0.07,0-0.16,0-0.23c0-0.09,0-0.18,0-0.27c-0.02-7.89-6.43-14.26-14.32-14.25
	c-7.89,0.02-14.26,6.43-14.25,14.3c0,0.13,0,0.23,0,0.36c0,0.03,0,0.05,0,0.09C954.02,230.97,960.41,237.36,968.3,237.36z
	 M934.85,340.44c-6.37-4.64-15.32-3.23-19.94,3.14c-4.64,6.37-3.23,15.32,3.14,19.94c2.53,1.86,5.48,2.75,8.39,2.75
	c4.41,0,8.77-2.05,11.55-5.89c0.02,0,0.02,0,0.02,0C942.63,354,941.22,345.06,934.85,340.44z M529.6,237.59
	c7.89,0,14.28-6.41,14.26-14.3c0-7.89-6.41-14.26-14.3-14.26c-7.87,0.02-14.26,6.41-14.26,14.3
	C515.32,231.22,521.71,237.61,529.6,237.59z M562.91,105.93c2.53,1.84,5.46,2.71,8.37,2.71c4.43,0,8.78-2.04,11.57-5.89
	c4.64-6.39,3.21-15.32-3.16-19.94c-6.39-4.64-15.32-3.21-19.96,3.16C555.11,92.36,556.52,101.29,562.91,105.93z M812,27.88
	c1.46,0.46,2.94,0.7,4.39,0.7c6.03,0,11.64-3.86,13.58-9.89c2.43-7.52-1.69-15.57-9.19-18c-0.02,0-0.02,0-0.02,0
	c-7.5-2.41-15.55,1.7-17.96,9.21C800.38,17.4,804.51,25.45,812,27.88z M680.83,28.79c1.48,0,2.96-0.23,4.45-0.71
	c7.5-2.45,11.59-10.52,9.14-18.01c-2.45-7.5-10.51-11.59-18.01-9.14c-7.5,2.45-11.59,10.52-9.14,18.01
	C669.22,24.95,674.81,28.79,680.83,28.79z M1287.5,1305.34c2.28-4.67,5.22-10.56,8.82-18.41c-7.85,3.6-13.74,6.54-18.41,8.82
	c-4.37-7.79-7.65-20.59-16.85-45.41c-9.19,24.82-12.47,37.62-16.85,45.41c-4.67-2.28-10.56-5.22-18.41-8.82
	c3.6,7.85,6.54,13.74,8.82,18.41c-7.79,4.37-20.59,7.65-45.41,16.85c24.82,9.19,37.62,12.47,45.41,16.85
	c-2.28,4.67-5.22,10.56-8.82,18.41c7.85-3.61,13.74-6.54,18.41-8.82c4.37,7.79,7.65,20.59,16.85,45.41
	c9.19-24.82,12.47-37.62,16.85-45.41c4.67,2.28,10.56,5.22,18.41,8.82c-3.61-7.85-6.54-13.74-8.82-18.41
	c7.79-4.37,20.59-7.65,45.41-16.85C1308.08,1312.99,1295.28,1309.71,1287.5,1305.34z M1394.08,1065.04
	c-15.88,42.87-5.62,32.61-48.49,48.49c42.87,15.88,32.61,5.62,48.49,48.49c15.88-42.87,5.62-32.61,48.49-48.49
	C1399.7,1097.65,1409.96,1107.91,1394.08,1065.04z M267.37,1305.34c2.28-4.67,5.22-10.56,8.82-18.41
	c-7.85,3.6-13.74,6.54-18.41,8.82c-4.37-7.79-7.65-20.59-16.85-45.41c-9.19,24.82-12.47,37.62-16.85,45.41
	c-4.67-2.28-10.56-5.22-18.41-8.82c3.61,7.85,6.54,13.74,8.82,18.41c-7.79,4.37-20.59,7.65-45.41,16.85
	c24.82,9.19,37.62,12.47,45.41,16.85c-2.28,4.67-5.22,10.56-8.82,18.41c7.85-3.61,13.74-6.54,18.41-8.82
	c4.37,7.79,7.65,20.59,16.85,45.41c9.19-24.82,12.47-37.62,16.85-45.41c4.67,2.28,10.56,5.22,18.41,8.82
	c-3.6-7.85-6.54-13.74-8.82-18.41c7.79-4.37,20.59-7.65,45.41-16.85C287.96,1312.99,275.16,1309.71,267.37,1305.34z M107.92,1065.04
	c-15.88,42.87-5.62,32.61-48.49,48.49c42.87,15.88,32.61,5.62,48.49,48.49c15.88-42.87,5.62-32.61,48.49-48.49
	C113.54,1097.65,123.8,1107.91,107.92,1065.04z M811.51,1623.59l38.06-36.08l-60.22,22.99l22.9-60.25l-35.96,38.04l-26.99-135.24
	l-27.02,135.36l-36.08-38.06l22.99,60.22l-60.25-22.9l38.04,35.96l-135.24,26.99l135.36,27.02l-38.06,36.08l60.22-22.99l-22.9,60.25
	l35.95-38.04l26.99,135.24l27.02-135.36l36.08,38.06l-22.99-60.22l60.25,22.9l-38.04-35.95l135.24-26.99L811.51,1623.59z
	 M333.85,1409.31c-10.28,0-18.62,8.34-18.62,18.62s8.34,18.62,18.62,18.62c10.28,0,18.62-8.34,18.62-18.62
	S344.13,1409.31,333.85,1409.31z M176.79,1218.05c0-10.28-8.34-18.62-18.62-18.62c-10.28,0-18.62,8.34-18.62,18.62
	s8.34,18.62,18.62,18.62C168.45,1236.67,176.79,1228.33,176.79,1218.05z M89.3,852.87c0,10.28,8.34,18.62,18.62,18.62
	c10.28,0,18.62-8.34,18.62-18.62c0-10.28-8.34-18.62-18.62-18.62C97.64,834.25,89.3,842.59,89.3,852.87z M180.17,654.59
	c10.28,0,18.62-8.34,18.62-18.62c0-10.28-8.34-18.62-18.62-18.62c-10.28,0-18.62,8.34-18.62,18.62
	C161.55,646.25,169.89,654.59,180.17,654.59z M345.86,466.81c10.28,0,18.62-8.34,18.62-18.62c0-10.28-8.34-18.62-18.62-18.62
	s-18.62,8.34-18.62,18.62C327.24,458.47,335.58,466.81,345.86,466.81z M1375.46,852.87c0,10.28,8.34,18.62,18.62,18.62
	c10.28,0,18.62-8.34,18.62-18.62c0-10.28-8.34-18.62-18.62-18.62C1383.8,834.25,1375.46,842.59,1375.46,852.87z M1303.21,635.97
	c0,10.28,8.34,18.62,18.62,18.62s18.62-8.34,18.62-18.62c0-10.28-8.34-18.62-18.62-18.62S1303.21,625.68,1303.21,635.97z
	 M1156.14,466.81c10.28,0,18.62-8.34,18.62-18.62c0-10.28-8.34-18.62-18.62-18.62s-18.62,8.34-18.62,18.62
	C1137.52,458.47,1145.86,466.81,1156.14,466.81z M1077.88,1504.13l19.2-18.2l-30.37,11.59l11.55-30.39l-18.13,19.19l-13.61-68.21
	l-13.63,68.27l-18.2-19.2l11.59,30.37l-30.39-11.55l19.19,18.13l-68.21,13.61l68.27,13.63l-19.2,18.2l30.37-11.59l-11.55,30.39
	l18.13-19.19l13.61,68.21l13.63-68.27l18.2,19.2l-11.59-30.37l30.39,11.55l-19.19-18.13l68.21-13.61L1077.88,1504.13z
	 M485.58,1531.37l68.21-13.61l-68.27-13.63l19.2-18.2l-30.37,11.59l11.55-30.39l-18.13,19.19l-13.61-68.21l-13.63,68.27l-18.2-19.2
	l11.59,30.37l-30.39-11.55l19.19,18.13l-68.21,13.61l68.27,13.63l-19.2,18.2l30.37-11.59l-11.55,30.39l18.13-19.19l13.61,68.21
	l13.63-68.27l18.2,19.2l-11.59-30.37l30.39,11.55L485.58,1531.37z M1017.34,1111.42c-60.31,31.61-154.57,68.94-263.15,68.94
	c-1.72,0-3.43-0.01-5.16-0.03c-110.66-1.21-205.72-36.57-265.98-66.03c-67.41-32.9-105.43-64.17-105.8-64.48
	c-0.31-0.24-0.83-0.65-1.28-1.24l-0.26-0.41c-0.16-0.23-0.28-0.42-0.39-0.62c-0.35-0.51-0.58-1.12-0.78-1.62l-0.25-1.12
	c-0.05-0.3-0.08-0.53-0.11-0.81l-0.01-0.7c0.01-0.51,0.02-1.04,0.09-1.46l0.07-0.33c0.06-0.27,0.15-0.66,0.34-1.08
	c0.22-0.67,0.53-1.18,0.84-1.63c0.13-0.24,0.3-0.47,0.5-0.68c4.69-6.07,44.39-56.45,107.31-106.05
	c60.78-47.97,156.04-104.81,266.05-104.81c1.17,0,2.32,0.01,3.49,0.02c111.32,1.22,206.88,56.08,267.43,101.9
	c62.15,46.95,101.41,94.55,105.69,99.82c0.24,0.25,0.39,0.52,0.49,0.69c0.27,0.37,0.61,0.92,0.84,1.64c0.12,0.33,0.3,0.8,0.39,1.37
	c0.13,0.51,0.26,1.25,0.14,2.1c-0.01,0.47-0.09,1.03-0.18,1.42l-0.16,0.55c-0.11,0.37-0.22,0.73-0.39,1.11
	c-0.44,0.93-1.08,1.78-1.95,2.63C1123.48,1042.02,1084.24,1076.36,1017.34,1111.42z M709,933.91l27.41,15.4l14.79,27.76l15.39-27.43
	l27.76-14.79l-27.43-15.39l-14.79-27.76l-15.39,27.43L709,933.91z M602.43,941.43c-0.43,39.79,14.69,77.4,42.6,105.92
	c27.9,28.52,65.18,44.47,104.97,44.9c0.55,0.01,1.11,0.01,1.65,0.01c81.48,0.01,148.21-65.85,149.1-147.57
	c0.14-13-1.32-25.66-4.36-37.67c-31.98-11.09-64.08-18.73-95.52-22.71c13.47,13.29,21.26,31.9,21.05,50.83
	c-0.2,18.73-7.71,36.27-21.13,49.41c-13.42,13.13-31.13,20.23-49.84,20.05c-18.73-0.2-36.27-7.71-49.41-21.13
	c-13.13-13.42-20.25-31.13-20.05-49.86c0.21-19.06,8.07-36.98,21.75-49.99c-31.86,3.82-64.25,11.63-96.38,23.25
	C604.05,917.9,602.56,929.53,602.43,941.43z M1009.3,1096.76c19.93-10.47,39.76-22.2,58.94-34.87c0.47-0.33,1.01-0.69,1.55-1.06
	l0.19-0.13c0.52-0.35,1.03-0.7,1.55-1.07c7.9-5.31,15.53-10.7,22.71-16.04c1.49-1.05,2.72-2.03,3.63-2.77l0.09-0.07
	c3.61-2.69,6.61-5.04,8.99-6.94c-13.71-12.79-47.76-42.65-96.54-72.52c-30.79-18.91-62.89-34.88-95.46-47.5
	c1.84,10.1,2.72,20.54,2.6,31.06c-0.48,44.25-18.22,85.71-49.93,116.74c-31.72,31.03-73.56,47.94-117.8,47.37
	c-44.26-0.48-85.72-18.22-116.76-49.93c-31.04-31.72-47.86-73.55-47.38-117.8c0.1-9.12,0.95-18.26,2.54-27.21
	c-32.23,13.07-64.19,29.85-95.05,49.93c-49.32,32.02-84.04,64.55-97.99,78.46c8.55,6.25,24.8,17.59,46.97,30.68
	c1.13,0.67,2.28,1.34,3.44,2.02c1.35,0.78,2.56,1.49,3.78,2.21c84.31,50.44,183.02,80.9,281.2,85.68c0.09,0,0.19,0.01,0.28,0.01
	c6.34,0.34,12.57,0.45,18.37,0.51C856.21,1164.65,949.73,1127.87,1009.3,1096.76z M741,612.33v193.2c0,4.13,3.36,7.48,7.48,7.48
	s7.48-3.36,7.48-7.48v-193.2c0-4.13-3.36-7.48-7.48-7.48S741,608.21,741,612.33z M1179.41,874.39c-1.97-0.34-3.95,0.11-5.59,1.26
	l-97.61,68.91c-1.63,1.15-2.72,2.87-3.06,4.84c-0.34,1.97,0.11,3.95,1.26,5.59c1.4,1.98,3.69,3.17,6.12,3.17
	c1.55,0,3.04-0.47,4.31-1.37l97.61-68.91c1.63-1.15,2.72-2.87,3.06-4.84c0.34-1.97-0.11-3.95-1.26-5.58
	C1183.1,875.82,1181.38,874.73,1179.41,874.39z M863.29,834.21c0.92,0.38,1.88,0.57,2.85,0.57c3.04,0,5.76-1.82,6.92-4.63l66.08-160
	c0.76-1.85,0.76-3.88-0.01-5.73c-0.77-1.85-2.21-3.28-4.06-4.05c-3.81-1.57-8.19,0.25-9.77,4.06l-66.08,160
	C857.65,828.25,859.47,832.63,863.29,834.21L863.29,834.21z M1056.94,782.66l-87.36,89.85c-2.88,2.96-2.81,7.71,0.15,10.58
	c1.4,1.37,3.26,2.12,5.22,2.12c2.04,0,3.94-0.8,5.37-2.26l87.35-89.85c1.39-1.43,2.15-3.32,2.12-5.32c-0.03-2-0.83-3.87-2.27-5.26
	C1064.57,779.64,1059.82,779.71,1056.94,782.66z M319.38,887.85l104.42,74.79c1.28,0.92,2.78,1.4,4.35,1.4
	c2.41,0,4.69-1.17,6.09-3.12c1.16-1.62,1.63-3.61,1.3-5.58c-0.33-1.97-1.4-3.7-3.03-4.86L328.1,875.68
	c-1.62-1.17-3.61-1.62-5.58-1.3c-1.97,0.33-3.7,1.4-4.86,3.03c-1.16,1.62-1.63,3.61-1.3,5.58
	C316.69,884.96,317.76,886.69,319.38,887.85z M572.53,660.39c-1.85-0.77-3.88-0.77-5.72,0c-1.85,0.76-3.29,2.2-4.06,4.04
	c-0.77,1.84-0.77,3.88-0.01,5.73l66.6,161.26c1.16,2.81,3.88,4.63,6.92,4.63c0.98,0,1.94-0.19,2.85-0.57
	c1.85-0.76,3.29-2.2,4.05-4.04c0.77-1.85,0.77-3.88,0.01-5.73l-66.6-161.26C575.82,662.59,574.38,661.15,572.53,660.39z
	 M530.16,881.04c1.43-1.39,2.24-3.26,2.27-5.26c0.03-2-0.72-3.89-2.12-5.32l-85.37-87.8c-2.88-2.96-7.62-3.02-10.58-0.15
	c-1.43,1.39-2.24,3.26-2.27,5.26c-0.03,2,0.72,3.89,2.12,5.32l85.37,87.8c1.42,1.46,3.32,2.26,5.36,2.26
	C526.91,883.16,528.76,882.41,530.16,881.04z M572.11,223.08c0-97.46,79.01-176.47,176.47-176.47
	c97.46,0,176.47,79.01,176.47,176.47s-79.01,176.47-176.47,176.47C651.12,399.55,572.11,320.54,572.11,223.08z M659.97,262.21
	l37-11.42l-2.18-5.53l-2.18-5.53l-34.82,16.95l-34.82,16.95L659.97,262.21z M683.05,295.18l29.4-25.2l-4.2-4.2l-4.2-4.2l-25.2,29.4
	l-25.2,29.4L683.05,295.18z M750.88,271.78c26.9,0,48.7-21.81,48.7-48.7s-21.81-48.7-48.7-48.7c-26.9,0-48.7,21.8-48.7,48.7
	S723.99,271.78,750.88,271.78z M732.38,280.84l-5.46-2.37l-5.46-2.37l-12.63,36.61l-12.63,36.61l18.09-34.24L732.38,280.84z
	 M756.89,283.46h-5.95H745l2.97,38.61l2.97,38.61l2.97-38.61L756.89,283.46z M801.5,351.05l-11.42-37l-11.42-37l-5.53,2.18
	l-5.53,2.19l16.95,34.82L801.5,351.05z M848.24,320.37l-25.2-29.4l-25.2-29.4l-4.2,4.2l-4.2,4.2l29.4,25.2L848.24,320.37z
	 M877.18,277.82l-34.24-18.09l-34.24-18.09l-2.37,5.46l-2.37,5.46l36.61,12.63L877.18,277.82z M888.54,223.08l-38.61-2.97
	l-38.61-2.97v5.95v5.95l38.61-2.97L888.54,223.08z M841.91,183.94l-37,11.42l2.18,5.53l2.18,5.53l34.82-16.95l34.82-16.95
	L841.91,183.94z M818.83,150.98l-29.4,25.2l4.2,4.2l4.2,4.21l25.2-29.4l25.2-29.4L818.83,150.98z M769.51,165.32l5.46,2.36
	l5.46,2.37l12.63-36.61l12.63-36.61l-18.09,34.24L769.51,165.32z M745,162.7h5.95h5.95l-2.97-38.61l-2.97-38.61l-2.97,38.61
	L745,162.7z M700.38,95.11l11.42,37l11.42,37l5.53-2.18l5.53-2.18l-16.95-34.82L700.38,95.11z M653.65,125.78l25.2,29.4l25.2,29.4
	l4.2-4.21l4.2-4.2l-29.4-25.2L653.65,125.78z M624.7,168.34l34.24,18.09l34.24,18.09l2.37-5.46l2.37-5.46l-36.61-12.63L624.7,168.34
	z M613.34,223.08l38.61,2.97l38.61,2.97v-5.95v-5.95l-38.61,2.97L613.34,223.08z"/>
</svg>
