<?xml version="1.0" encoding="utf-8"?>
<!-- Generator: Adobe Illustrator 24.0.2, SVG Export Plug-In . SVG Version: 6.00 Build 0)  -->
<svg version="1.1" id="Слой_1" xmlns="http://www.w3.org/2000/svg" xmlns:xlink="http://www.w3.org/1999/xlink" x="0px" y="0px"
	 viewBox="0 0 1243 2000" style="enable-background:new 0 0 1243 2000;" xml:space="preserve">
<path d="M177.39,1001.78c-8.73-35.29-13.44-72.16-13.44-110.15c0-252.65,204.81-457.46,457.46-457.46
	c252.65,0,457.46,204.81,457.46,457.46c0,37.99-4.71,74.86-13.44,110.15c-49.31-199.42-229.36-347.31-444.02-347.31
	C406.75,654.47,226.71,802.35,177.39,1001.78z M1124.41,1479.27l46.64,9.14l-39.23-26.12l86.76-17.32l-87.16-17.4l39.44-26.52
	l-46.21,9.27l49.11-73.59l-73.94,49.33l9.14-46.64l-26.12,39.23l-17.32-86.76l-17.4,87.17l-26.52-39.44l9.27,46.21l-73.6-49.11
	l49.33,73.94l-46.64-9.14l39.23,26.12l-86.76,17.32l87.17,17.4l-39.44,26.52l46.21-9.27l-49.11,73.6l73.94-49.33l-9.14,46.64
	l26.12-39.23l17.32,86.76l17.4-87.16l26.52,39.44l-9.27-46.21l73.6,49.11L1124.41,1479.27z M243.4,1427.57l39.44-26.52l-46.21,9.27
	l49.11-73.59l-73.94,49.33l9.14-46.64l-26.12,39.23l-17.32-86.76l-17.4,87.17l-26.52-39.44l9.27,46.21l-73.6-49.11l49.33,73.94
	l-46.64-9.14l39.23,26.12l-86.76,17.32l87.17,17.4l-39.44,26.52l46.21-9.27l-49.11,73.6l73.94-49.33l-9.14,46.64l26.12-39.23
	l17.32,86.76l17.4-87.16l26.52,39.44l-9.27-46.21l73.6,49.11l-49.33-73.94l46.64,9.14l-39.23-26.12l86.76-17.32L243.4,1427.57z
	 M621.42,1598.04c-116.3,0-210.58,94.28-210.58,210.58c0,84.91,50.26,158.07,122.65,191.38c-37.32-27.19-61.59-71.22-61.59-120.93
	c0-82.58,66.94-149.52,149.52-149.52c82.58,0,149.52,66.94,149.52,149.52c0,49.71-24.27,93.74-61.59,120.93
	c72.39-33.31,122.65-106.47,122.65-191.38C831.99,1692.32,737.71,1598.04,621.42,1598.04z M621.42,815.66
	c-5.16,0-9.34,4.18-9.34,9.34s4.18,9.34,9.34,9.34s9.34-4.18,9.34-9.34S626.58,815.66,621.42,815.66z M621.42,740.97
	c-5.16,0-9.34,4.18-9.34,9.34s4.18,9.34,9.34,9.34s9.34-4.18,9.34-9.34S626.58,740.97,621.42,740.97z M621.42,703.63
	c-5.16,0-9.34,4.18-9.34,9.34s4.18,9.34,9.34,9.34s9.34-4.18,9.34-9.34S626.58,703.63,621.42,703.63z M621.42,666.28
	c-5.16,0-9.34,4.18-9.34,9.34s4.18,9.34,9.34,9.34s9.34-4.18,9.34-9.34S626.58,666.28,621.42,666.28z M621.42,778.32
	c-5.16,0-9.34,4.18-9.34,9.34s4.18,9.34,9.34,9.34s9.34-4.18,9.34-9.34S626.58,778.32,621.42,778.32z M621.42,1538.01
	c5.16,0,9.34-4.18,9.34-9.34c0-5.14-4.18-9.34-9.34-9.34s-9.34,4.19-9.34,9.34C612.08,1533.83,616.26,1538.01,621.42,1538.01z
	 M621.42,1500.66c5.16,0,9.34-4.18,9.34-9.34c0-5.14-4.18-9.34-9.34-9.34s-9.34,4.19-9.34,9.34
	C612.08,1496.49,616.26,1500.66,621.42,1500.66z M621.42,1575.35c5.16,0,9.34-4.18,9.34-9.34s-4.18-9.34-9.34-9.34
	s-9.34,4.18-9.34,9.34S616.26,1575.35,621.42,1575.35z M621.42,324.84c-5.16,0-9.34,4.18-9.34,9.34c0,5.14,4.18,9.34,9.34,9.34
	s9.34-4.19,9.34-9.34C630.76,329.02,626.58,324.84,621.42,324.84z M621.42,362.19c-5.16,0-9.34,4.18-9.34,9.34s4.18,9.34,9.34,9.34
	s9.34-4.18,9.34-9.34S626.58,362.19,621.42,362.19z M621.42,399.53c-5.16,0-9.34,4.18-9.34,9.34s4.18,9.34,9.34,9.34
	s9.34-4.18,9.34-9.34S626.58,399.53,621.42,399.53z M1065.51,1122.98c-5.16,0-9.34,4.18-9.34,9.34c0,5.14,4.18,9.34,9.34,9.34
	s9.34-4.19,9.34-9.34C1074.84,1127.16,1070.67,1122.98,1065.51,1122.98z M1065.51,1010.95c-5.16,0-9.34,4.18-9.34,9.34
	c0,5.14,4.18,9.34,9.34,9.34s9.34-4.19,9.34-9.34C1074.84,1015.12,1070.67,1010.95,1065.51,1010.95z M1065.51,1160.33
	c-5.16,0-9.34,4.18-9.34,9.34c0,5.14,4.18,9.34,9.34,9.34s9.34-4.19,9.34-9.34C1074.84,1164.5,1070.67,1160.33,1065.51,1160.33z
	 M1065.51,1048.29c-5.16,0-9.34,4.18-9.34,9.34c0,5.14,4.18,9.34,9.34,9.34s9.34-4.19,9.34-9.34
	C1074.84,1052.47,1070.67,1048.29,1065.51,1048.29z M1065.51,1085.64c-5.16,0-9.34,4.18-9.34,9.34c0,5.14,4.18,9.34,9.34,9.34
	s9.34-4.19,9.34-9.34C1074.84,1089.81,1070.67,1085.64,1065.51,1085.64z M1065.51,1197.67c-5.16,0-9.34,4.18-9.34,9.34
	c0,5.14,4.18,9.34,9.34,9.34s9.34-4.19,9.34-9.34C1074.84,1201.85,1070.67,1197.67,1065.51,1197.67z M1065.51,1235.02
	c-5.16,0-9.34,4.18-9.34,9.34c0,5.14,4.18,9.34,9.34,9.34s9.34-4.19,9.34-9.34C1074.84,1239.19,1070.67,1235.02,1065.51,1235.02z
	 M1065.51,1272.36c-5.16,0-9.34,4.18-9.34,9.34c0,5.14,4.18,9.34,9.34,9.34s9.34-4.19,9.34-9.34
	C1074.84,1276.54,1070.67,1272.36,1065.51,1272.36z M177.5,1010.95c-5.16,0-9.35,4.18-9.35,9.34c0,5.14,4.19,9.34,9.35,9.34
	c5.14,0,9.32-4.19,9.32-9.34C186.82,1015.12,182.65,1010.95,177.5,1010.95z M177.5,1085.64c-5.16,0-9.35,4.18-9.35,9.34
	c0,5.14,4.19,9.34,9.35,9.34c5.14,0,9.32-4.19,9.32-9.34C186.82,1089.81,182.65,1085.64,177.5,1085.64z M177.5,1235.02
	c-5.16,0-9.35,4.18-9.35,9.34c0,5.14,4.19,9.34,9.35,9.34c5.14,0,9.32-4.19,9.32-9.34C186.82,1239.19,182.65,1235.02,177.5,1235.02z
	 M177.5,1122.98c-5.16,0-9.35,4.18-9.35,9.34c0,5.14,4.19,9.34,9.35,9.34c5.14,0,9.32-4.19,9.32-9.34
	C186.82,1127.16,182.65,1122.98,177.5,1122.98z M177.5,1048.29c-5.16,0-9.35,4.18-9.35,9.34c0,5.14,4.19,9.34,9.35,9.34
	c5.14,0,9.32-4.19,9.32-9.34C186.82,1052.47,182.65,1048.29,177.5,1048.29z M177.5,1160.33c-5.16,0-9.35,4.18-9.35,9.34
	c0,5.16,4.19,9.34,9.35,9.34c5.14,0,9.32-4.18,9.32-9.34C186.82,1164.5,182.65,1160.33,177.5,1160.33z M177.5,1272.36
	c-5.16,0-9.35,4.18-9.35,9.34c0,5.14,4.19,9.34,9.35,9.34c5.14,0,9.32-4.19,9.32-9.34C186.82,1276.54,182.65,1272.36,177.5,1272.36z
	 M177.5,1197.67c-5.16,0-9.35,4.18-9.35,9.34c0,5.14,4.19,9.34,9.35,9.34c5.14,0,9.32-4.19,9.32-9.34
	C186.82,1201.85,182.65,1197.67,177.5,1197.67z M739.16,1221.99l98.61,147.79l-147.11-98.16l18.53,92.38l-53-78.83l-34.77,174.23
	l-34.61-173.43l-52.22,78.42l18.26-93.22l-147.79,98.61l98.16-147.11l-92.38,18.53l78.83-53l-174.23-34.77l173.43-34.61
	l-78.42-52.22l93.22,18.26l-98.61-147.79l147.11,98.16l-18.53-92.38l53,78.83l34.77-174.23l34.61,173.43l52.22-78.42l-18.26,93.22
	l147.79-98.61l-98.16,147.11l92.38-18.53l-78.83,53l174.23,34.77l-173.43,34.61l78.42,52.22L739.16,1221.99z M735.76,1153.42
	c0-8.67-7.03-15.69-15.69-15.69c-7.81,0-14.27,5.71-15.47,13.18h-48.1c-0.56-7.68-3.59-14.65-8.33-20.13l8.77-8.76
	c4.46,2.82,10.42,2.29,14.31-1.59c4.5-4.5,4.5-11.81,0-16.31c-4.5-4.51-11.81-4.51-16.31,0c-3.89,3.89-4.41,9.85-1.59,14.31
	l-8.77,8.76c-5.49-4.74-12.46-7.78-20.13-8.33v-47.86c7.57-1.11,13.39-7.62,13.39-15.51c0-8.67-7.03-15.69-15.69-15.69
	s-15.69,7.03-15.69,15.69c0,7.71,5.57,14.11,12.9,15.43v47.93c-7.68,0.56-14.65,3.59-20.13,8.33l-8.76-8.76
	c2.82-4.46,2.29-10.42-1.59-14.31c-4.5-4.51-11.81-4.51-16.31,0c-4.5,4.5-4.5,11.81,0,16.31c3.88,3.89,9.85,4.41,14.31,1.59
	l8.77,8.77c-4.74,5.49-7.77,12.46-8.33,20.13h-47.61c-1.2-7.47-7.66-13.18-15.47-13.18c-8.67,0-15.69,7.03-15.69,15.69
	c0,8.67,7.03,15.69,15.69,15.69c7.79,0,14.23-5.68,15.46-13.11h47.62c0.56,7.67,3.59,14.65,8.33,20.13l-8.77,8.77
	c-4.46-2.82-10.42-2.29-14.31,1.59c-4.5,4.5-4.5,11.81,0,16.31s11.81,4.5,16.31,0c3.89-3.89,4.41-9.85,1.59-14.31l8.76-8.76
	c5.49,4.74,12.46,7.78,20.13,8.33v47.86c-7.33,1.32-12.9,7.72-12.9,15.43c0,8.67,7.03,15.69,15.69,15.69s15.69-7.03,15.69-15.69
	c0-7.88-5.82-14.39-13.39-15.51v-47.79c7.68-0.56,14.65-3.59,20.13-8.33l8.77,8.76c-2.82,4.46-2.29,10.42,1.59,14.31
	c4.5,4.5,11.81,4.5,16.31,0c4.5-4.5,4.5-11.81,0-16.31c-3.89-3.89-9.85-4.41-14.31-1.59l-8.77-8.76c4.74-5.49,7.78-12.46,8.33-20.13
	h48.11c1.23,7.44,7.68,13.11,15.46,13.11C728.73,1169.11,735.76,1162.09,735.76,1153.42z M468.34,153.07l86.76-17.32l-39.23-26.12
	l46.64,9.14l-49.33-73.94l73.6,49.11l-9.27-46.21l26.52,39.44L621.42,0l17.32,86.76l26.12-39.23l-9.14,46.64l73.94-49.33
	l-49.11,73.6l46.21-9.27l-39.44,26.52l87.17,17.4l-86.76,17.32l39.23,26.12l-46.64-9.14l49.33,73.94l-73.6-49.11l9.27,46.21
	l-26.52-39.44l-17.4,87.17l-17.32-86.76l-26.12,39.23l9.14-46.64l-73.94,49.33l49.11-73.6l-46.21,9.27l39.44-26.52L468.34,153.07z
	 M576,153.07c0,4.21,3.42,7.63,7.63,7.63c3.63,0,6.65-2.54,7.43-5.93h15.6c0.33,2.91,1.49,5.56,3.25,7.71l-5.38,5.38
	c-2.14-1.22-4.9-0.93-6.73,0.89c-2.19,2.19-2.19,5.74,0,7.93c2.19,2.19,5.74,2.19,7.93,0c1.71-1.71,2.07-4.25,1.1-6.33l5.51-5.51
	c2.16,1.67,4.79,2.76,7.66,3.03v15.5c-3.55,0.66-6.23,3.75-6.23,7.49c0,4.21,3.42,7.63,7.63,7.63c4.21,0,7.63-3.42,7.63-7.63
	c0-3.52-2.39-6.45-5.63-7.33v-15.74c2.79-0.38,5.33-1.51,7.41-3.21l5.38,5.38c-1.22,2.14-0.93,4.9,0.89,6.72
	c2.19,2.19,5.74,2.19,7.93,0c2.19-2.19,2.19-5.74,0-7.93c-1.71-1.71-4.25-2.07-6.33-1.1l-5.51-5.51c1.61-2.09,2.68-4.61,3-7.36h15.6
	c0.77,3.39,3.8,5.93,7.43,5.93c4.21,0,7.63-3.42,7.63-7.63c0-4.21-3.42-7.63-7.63-7.63c-3.63,0-6.65,2.54-7.43,5.93h-15.6
	c-0.31-2.76-1.39-5.28-3-7.36l5.51-5.51c2.08,0.97,4.62,0.61,6.33-1.1c2.19-2.19,2.19-5.74,0-7.93c-2.19-2.19-5.74-2.19-7.93,0
	c-1.82,1.83-2.11,4.59-0.89,6.73l-5.38,5.38c-2.07-1.7-4.62-2.83-7.41-3.21v-15.74c3.24-0.88,5.63-3.81,5.63-7.33
	c0-4.21-3.42-7.63-7.63-7.63c-4.21,0-7.63,3.42-7.63,7.63c0,3.74,2.69,6.83,6.23,7.49v15.5c-2.87,0.27-5.5,1.36-7.67,3.03
	l-5.51-5.51c0.97-2.08,0.61-4.62-1.1-6.33c-2.19-2.19-5.74-2.19-7.93,0c-2.19,2.19-2.19,5.74,0,7.93c1.82,1.83,4.58,2.11,6.72,0.89
	l5.38,5.38c-1.76,2.15-2.92,4.8-3.25,7.71h-15.6c-0.77-3.39-3.8-5.93-7.43-5.93C579.42,145.44,576,148.86,576,153.07z"/>
</svg>
