<?xml version="1.0" encoding="utf-8"?>
<!-- Generator: Adobe Illustrator 24.0.2, SVG Export Plug-In . SVG Version: 6.00 Build 0)  -->
<svg version="1.1" id="Слой_1" xmlns="http://www.w3.org/2000/svg" xmlns:xlink="http://www.w3.org/1999/xlink" x="0px" y="0px"
	 viewBox="0 0 2000 938.35" style="enable-background:new 0 0 2000 938.35;" xml:space="preserve">
<style type="text/css">
	.st0{fill:#FFFFFF;}
</style>
<path class="st0" d="M887.39,468.28c0-61.4,49.78-111.18,111.18-111.18c61.4,0,111.18,49.78,111.18,111.18
	c0,61.4-49.78,111.18-111.18,111.18C937.17,579.47,887.39,529.69,887.39,468.28z M1012.28,330.45l-6.79-88.14l-6.79-88.14
	l-6.79,88.14l-6.79,88.14h13.57H1012.28z M998.71,782.4l6.79-88.14l6.79-88.14h-13.57h-13.57l6.79,88.14L998.71,782.4z
	 M772.73,475.07l88.14,6.79v-13.57v-13.57l-88.14,6.79l-52.51,4.04c-1.46-65.61-55.1-118.35-121.06-118.35
	c-38.24,0-72.32,17.74-94.51,45.43c16.62,20.73,26.58,47.03,26.58,75.67c0,28.64-9.96,54.93-26.58,75.67
	c22.19,27.68,56.27,45.43,94.51,45.43c65.96,0,119.6-52.74,121.06-118.35L772.73,475.07z M891.64,380.42l9.6-9.6l9.6-9.6
	l-67.12-57.53l-67.12-57.53l57.53,67.12L891.64,380.42z M1105.77,556.15l-9.6,9.6l-9.6,9.6l67.12,57.53l67.13,57.53l-57.53-67.12
	L1105.77,556.15z M910.84,575.35l-9.6-9.6l-9.6-9.6l-57.53,67.13l-57.53,67.12l67.12-57.53L910.84,575.35z M1096.17,370.82l9.6,9.6
	l57.53-67.13l57.53-67.12l-67.13,57.53l-67.12,57.53L1096.17,370.82z M909.36,260.61l26.07,84.47l12.62-4.99l12.62-4.99l-38.7-79.48
	l-38.7-79.48L909.36,260.61z M1061.98,591.49l-12.62,4.99l-12.62,4.99l38.7,79.48l38.7,79.48l-26.07-84.47L1061.98,591.49z
	 M870.51,518.93l-4.99-12.62L786.04,545l-79.48,38.7l84.47-26.07l84.47-26.07L870.51,518.93z M1290.85,352.87l-84.47,26.07
	l-84.47,26.07l4.99,12.62l4.99,12.62l79.48-38.7L1290.85,352.87z M866.85,425.9l5.4-12.45l5.4-12.45l-83.57-28.84l-83.57-28.84
	l78.17,41.29L866.85,425.9z M1119.77,535.57l83.57,28.84l83.57,28.84l-78.17-41.29l-78.17-41.29l-5.4,12.45L1119.77,535.57z
	 M931.42,589.34l-28.84,83.57l-28.84,83.57l41.29-78.17l41.29-78.17l-12.45-5.4L931.42,589.34z M1053.54,341.83l12.45,5.4
	l28.84-83.57l28.84-83.57l-41.29,78.17l-41.29,78.17L1053.54,341.83z M730.48,142.13c2.96,0,5.96-0.97,8.46-2.95
	c5.89-4.68,6.88-13.25,2.2-19.14c-4.68-5.89-13.25-6.88-19.14-2.2c-5.89,4.68-6.88,13.25-2.2,19.14
	C722.49,140.37,726.47,142.13,730.48,142.13z M1361.97,707.66c-6.14-4.35-14.65-2.89-18.99,3.24c-4.35,6.14-2.91,14.65,3.24,19
	c2.4,1.7,5.14,2.51,7.87,2.51c4.27,0,8.47-2,11.13-5.75C1369.56,720.52,1368.1,712.02,1361.97,707.66z M1290.83,771.38
	c-5.43,5.21-5.61,13.83-0.4,19.27c2.67,2.78,6.24,4.19,9.83,4.19c3.4,0,6.79-1.26,9.42-3.79c5.44-5.21,5.61-13.84,0.41-19.27
	C1304.89,766.35,1296.26,766.17,1290.83,771.38z M956.84,50.32c0.44,0,0.9-0.02,1.35-0.07c7.49-0.74,12.95-7.41,12.22-14.9
	c-0.74-7.49-7.4-12.95-14.89-12.22c-7.49,0.74-12.97,7.4-12.23,14.9C943.99,45.06,949.92,50.32,956.84,50.32z M875.98,66.21
	c1.28,0,2.6-0.18,3.89-0.57v-0.01c7.21-2.15,11.31-9.73,9.16-16.94c-2.16-7.22-9.74-11.32-16.95-9.16
	c-7.21,2.15-11.32,9.74-9.16,16.95C864.68,62.39,870.1,66.21,875.98,66.21z M799.61,97.22c2.13,0,4.29-0.5,6.3-1.54
	c6.66-3.48,9.25-11.72,5.77-18.39c-3.49-6.66-11.71-9.25-18.38-5.77c-6.66,3.48-9.25,11.72-5.77,18.38
	C789.96,94.56,794.7,97.22,799.61,97.22z M1400.77,634.88c-6.85-3.11-14.92-0.07-18.03,6.79c-3.11,6.85-0.07,14.92,6.78,18.03
	c1.83,0.83,3.74,1.22,5.62,1.22c5.19,0,10.14-2.97,12.41-8C1410.66,646.06,1407.62,637.99,1400.77,634.88z M1038.07,49.94
	c0.41,0.03,0.83,0.06,1.24,0.06c6.97,0,12.91-5.33,13.56-12.4c0.67-7.51-4.86-14.12-12.34-14.79c-7.51-0.68-14.12,4.85-14.79,12.34
	C1025.04,42.64,1030.57,49.27,1038.07,49.94z M1157.41,857.85v-0.01c-6.98,2.83-10.34,10.76-7.52,17.75
	c2.15,5.3,7.24,8.52,12.63,8.52c1.7,0,3.44-0.32,5.11-1c6.97-2.83,10.34-10.76,7.52-17.75
	C1172.33,858.39,1164.39,855.03,1157.41,857.85z M1080.89,880.58c-7.38,1.44-12.19,8.6-10.75,15.99c1.27,6.5,6.97,11.01,13.35,11.01
	c0.86,0,1.75-0.09,2.63-0.26c7.38-1.44,12.19-8.6,10.75-15.99C1095.44,883.95,1088.28,879.14,1080.89,880.58z M1258.12,136.84
	c2.49,1.94,5.44,2.88,8.37,2.88c4.05,0,8.06-1.81,10.75-5.25c4.62-5.94,3.58-14.5-2.36-19.13c-5.94-4.62-14.5-3.56-19.12,2.37
	C1251.13,123.65,1252.18,132.21,1258.12,136.84z M1116.54,64.61c1.26,0.36,2.52,0.53,3.77,0.53c5.93,0,11.38-3.88,13.09-9.87
	c2.08-7.22-2.09-14.77-9.32-16.86c-7.23-2.08-14.78,2.1-16.86,9.33C1105.13,54.98,1109.31,62.52,1116.54,64.61z M1409.25,338.04
	c1.5,0,3.02-0.25,4.52-0.77c7.1-2.5,10.83-10.27,8.33-17.37c-2.5-7.1-10.27-10.83-17.37-8.33c-7.11,2.5-10.83,10.27-8.33,17.37
	C1398.36,334.54,1403.63,338.04,1409.25,338.04z M1228.23,820.98c-6.31,4.09-8.11,12.52-4.02,18.84c2.61,4.03,6.98,6.22,11.44,6.22
	c2.54,0,5.11-0.72,7.4-2.2c6.31-4.09,8.11-12.52,4.02-18.84C1242.98,818.68,1234.54,816.88,1228.23,820.98z M639.69,710.1
	c-6.11,4.39-7.49,12.9-3.11,19.02c2.67,3.7,6.84,5.66,11.08,5.66c2.75,0,5.53-0.83,7.94-2.55c6.11-4.39,7.51-12.91,3.11-19.02
	S645.8,705.7,639.69,710.1z M1190.78,93.93c1.99,1.01,4.1,1.5,6.18,1.5c4.96,0,9.74-2.72,12.15-7.44c3.43-6.7,0.76-14.91-5.94-18.32
	c-6.7-3.43-14.91-0.77-18.32,5.94C1181.42,82.3,1184.07,90.51,1190.78,93.93z M921.91,881.08c-7.4-1.4-14.52,3.47-15.91,10.87
	c-1.4,7.39,3.47,14.52,10.86,15.91c0.85,0.16,1.7,0.24,2.53,0.24c6.43,0,12.15-4.56,13.37-11.1
	C934.17,889.59,929.3,882.47,921.91,881.08z M600.38,637.59c-6.83,3.16-9.81,11.25-6.65,18.09c2.3,4.97,7.23,7.9,12.37,7.9
	c1.92,0,3.86-0.4,5.71-1.26c6.83-3.16,9.81-11.25,6.65-18.07C615.31,637.41,607.21,634.44,600.38,637.59z M845.22,858.92
	c-6.99-2.78-14.92,0.65-17.69,7.64c-2.77,7.01,0.66,14.92,7.65,17.69c1.65,0.65,3.34,0.96,5.01,0.96c5.43,0,10.56-3.26,12.67-8.62
	C855.64,869.6,852.22,861.69,845.22,858.92z M774.15,822.55c-6.33-4.05-14.76-2.2-18.81,4.14c-4.05,6.34-2.2,14.76,4.14,18.81
	c2.27,1.45,4.81,2.15,7.32,2.15c4.5,0,8.89-2.23,11.49-6.29C782.35,835.03,780.49,826.6,774.15,822.55z M691.97,773.88
	c-5.18,5.46-4.94,14.09,0.52,19.27c2.63,2.5,6.01,3.74,9.38,3.74c3.61,0,7.21-1.43,9.89-4.26c5.17-5.46,4.94-14.09-0.52-19.27
	C705.78,768.19,697.15,768.42,691.97,773.88z M616.66,264.77c2.14,1.23,4.46,1.81,6.77,1.81c4.72,0,9.31-2.46,11.83-6.86
	c3.75-6.53,1.48-14.85-5.04-18.59c-6.54-3.75-14.86-1.49-18.6,5.04C607.88,252.71,610.14,261.03,616.66,264.77z M662.16,195.97
	c2.57,2.21,5.73,3.29,8.88,3.29c3.83,0,7.64-1.6,10.33-4.73c4.91-5.71,4.27-14.31-1.44-19.22c-5.71-4.91-14.31-4.26-19.21,1.44
	C655.8,182.46,656.45,191.06,662.16,195.97z M1362.82,256.5c2.54,4.34,7.1,6.76,11.77,6.76c2.34,0,4.7-0.6,6.87-1.87
	c6.5-3.79,8.67-12.14,4.88-18.63c-3.8-6.49-12.15-8.68-18.64-4.88c-6.49,3.79-8.68,12.14-4.88,18.64V256.5z M585.09,340.96
	c1.45,0.5,2.94,0.74,4.39,0.74c5.68,0,10.97-3.56,12.9-9.23c2.43-7.13-1.37-14.87-8.49-17.29c-7.13-2.43-14.87,1.37-17.3,8.49
	C574.16,330.78,577.97,338.53,585.09,340.96z M1326.41,196.36c3.19,0,6.38-1.11,8.97-3.37c5.65-4.96,6.23-13.57,1.28-19.23
	c-4.96-5.65-13.57-6.23-19.23-1.27c-5.65,4.95-6.23,13.56-1.28,19.22C1318.85,194.78,1322.62,196.36,1326.41,196.36z
	 M1001.44,888.35c-7.53,0.02-13.6,6.13-13.59,13.66c0.02,7.52,6.12,13.59,13.62,13.59c0.01,0,0.02,0,0.05,0
	c7.52-0.02,13.6-6.13,13.59-13.66C1015.09,894.41,1008.97,888.33,1001.44,888.35z M1952.59,420.87c-26.18,0-47.41,21.23-47.41,47.41
	c0,26.18,21.23,47.41,47.41,47.41c26.18,0,47.41-21.23,47.41-47.41C2000,442.1,1978.77,420.87,1952.59,420.87z M1400.84,347.19
	c-66.03,0-119.71,52.85-121.06,118.55l-55.1-4.24l-88.14-6.79v13.57v13.57l88.14-6.79l55.1-4.24
	c1.35,65.7,55.03,118.55,121.06,118.55c38.24,0,72.32-17.74,94.51-45.43c-16.62-20.73-26.58-47.03-26.58-75.67
	c0-28.64,9.96-54.93,26.58-75.67C1473.16,364.94,1439.08,347.19,1400.84,347.19z M1687.12,468.28c0-76.5,44.85-142.51,109.68-173.22
	c-24.84-11.77-52.61-18.38-81.92-18.38c-105.82,0-191.6,85.78-191.6,191.6c0,105.82,85.78,191.6,191.6,191.6
	c29.31,0,57.08-6.61,81.92-18.38C1731.97,610.79,1687.12,544.79,1687.12,468.28z M1813.24,468.28c0-56.82,39.15-104.48,91.94-117.54
	c-9.34-2.31-19.1-3.56-29.16-3.56c-66.88,0-121.09,54.22-121.09,121.09c0,66.88,54.22,121.09,121.09,121.09
	c10.06,0,19.82-1.25,29.16-3.56C1852.39,572.77,1813.24,525.11,1813.24,468.28z M47.41,420.87C21.23,420.87,0,442.1,0,468.28
	c0,26.18,21.23,47.41,47.41,47.41c26.18,0,47.41-21.23,47.41-47.41C94.82,442.1,73.59,420.87,47.41,420.87z M285.12,276.68
	c-29.31,0-57.08,6.61-81.92,18.38c64.83,30.71,109.68,96.72,109.68,173.22c0,76.5-44.85,142.51-109.68,173.22
	c24.84,11.77,52.61,18.38,81.92,18.38c105.82,0,191.6-85.78,191.6-191.6C476.72,362.47,390.94,276.68,285.12,276.68z M245.07,468.28
	c0-66.88-54.21-121.09-121.09-121.09c-10.06,0-19.82,1.25-29.16,3.56c52.79,13.05,91.94,60.71,91.94,117.54
	c0,56.82-39.15,104.48-91.94,117.54c9.34,2.31,19.1,3.56,29.16,3.56C190.86,589.38,245.07,535.16,245.07,468.28z"/>
</svg>
