<?xml version="1.0" encoding="utf-8"?>
<!-- Generator: Adobe Illustrator 24.0.2, SVG Export Plug-In . SVG Version: 6.00 Build 0)  -->
<svg version="1.1" id="Слой_1" xmlns="http://www.w3.org/2000/svg" xmlns:xlink="http://www.w3.org/1999/xlink" x="0px" y="0px"
	 viewBox="0 0 2000 2000" style="enable-background:new 0 0 2000 2000;" xml:space="preserve">
<style type="text/css">
	.st0{fill:#FFFFFF;}
</style>
<path class="st0" d="M1319.82,1135.75L2000,1000l-680.76-135.87l204.08-193.46l-314.29,119.98l119.52-314.46l-192.79,203.99L1000,0
	L864.13,680.76L670.67,476.68l119.99,314.29L476.19,671.46l203.98,192.79L0,1000l680.76,135.87l-204.08,193.46l314.29-119.98
	l-119.52,314.46l192.79-203.99L1000,2000l135.87-680.76l193.46,204.08l-119.98-314.29l314.47,119.52L1319.82,1135.75z
	 M1279.66,1444.38l-154.79-163.28L1000,1906.74l-124.76-625.12l-154.23,163.19l101.49-267.04l-266.89,101.89l163.29-154.79
	L93.26,1000l625.12-124.76L555.19,721.01L822.24,822.5l-101.9-266.89L875.13,718.9L1000,93.26l124.77,625.12l154.22-163.18
	L1177.5,822.23l266.89-101.89L1281.1,875.13L1906.74,1000l-625.12,124.76l163.18,154.22l-267.04-101.49L1279.66,1444.38z"/>
</svg>
