<?xml version="1.0" encoding="utf-8"?>
<!-- Generator: Adobe Illustrator 24.0.2, SVG Export Plug-In . SVG Version: 6.00 Build 0)  -->
<svg version="1.1" id="Слой_1" xmlns="http://www.w3.org/2000/svg" xmlns:xlink="http://www.w3.org/1999/xlink" x="0px" y="0px"
	 viewBox="0 0 1241.5 2000" style="enable-background:new 0 0 1241.5 2000;" xml:space="preserve">
<style type="text/css">
	.st0{fill:#FFFFFF;}
</style>
<path class="st0" d="M1195.56,33.34C1174.06,11.84,1145.59,0,1115.39,0H126.11c-30.2,0-58.67,11.84-80.17,33.34
	c-21.5,21.5-33.34,49.98-33.34,80.18v1772.96c0,30.2,11.84,58.67,33.34,80.18c21.5,21.5,49.98,33.34,80.17,33.34h989.27
	c30.2,0,58.67-11.84,80.17-33.34c21.5-21.5,33.34-49.98,33.34-80.18V113.52C1228.91,83.32,1217.06,54.85,1195.56,33.34z
	 M1222.86,1886.48c0,59.26-48.21,107.47-107.47,107.47H126.11c-59.26,0-107.47-48.21-107.47-107.47V113.52
	c0-59.26,48.21-107.47,107.47-107.47h989.27c59.26,0,107.47,48.21,107.47,107.47V1886.48z M1064.09,1722.81
	c0-1.1-0.59-2.1-1.55-2.64c-36.76-20.53-73.26-17.33-104.7-10.51c1.57-4.76,2.58-9.1,2.58-12.43c0-1.04-0.54-2-1.42-2.56
	c-0.87-0.55-1.97-0.61-2.92-0.16c-20.8,10-41.88,14.19-63.01,14.83v-56.06c0-2.55-1.11-4.81-3.12-6.38
	c-2.66-2.09-6.58-2.7-10.73-1.68c-167.36,40.43-344.3,40.43-511.66,0.01c-4.16-1.03-8.08-0.42-10.75,1.67
	c-2,1.57-3.11,3.84-3.11,6.38v56.14c-22.87-0.07-45.69-4.1-68.2-14.91c-0.94-0.45-2.04-0.39-2.92,0.16
	c-0.88,0.56-1.41,1.52-1.41,2.56c0,3.31,0.91,7.64,2.32,12.39c-31.36-6.78-67.79-9.97-104.54,10.55c-0.96,0.53-1.55,1.54-1.55,2.64
	c0,8.12,10.3,17.8,15.15,21.89c-4.68,6.47-15.15,21.81-15.15,29.47c0,1.07,0.57,2.06,1.49,2.61c0.47,0.28,1,0.42,1.53,0.42
	c0.51,0,1.02-0.13,1.47-0.38c36.11-20.17,72.85-16.24,104.48-9c-2.97,5.77-5.21,11.91-5.21,17.32c0,1.16,0.67,2.22,1.71,2.73
	c23.71,11.39,47.59,15.56,71.43,15.55c29.78,0,59.5-6.5,88.74-13.54c59.5,9.89,119.88,14.89,180.33,14.89
	c59.41,0,118.75-4.82,177.24-14.38c28.56,6.84,57.57,13.04,86.63,13.03c23.84,0,47.72-4.16,71.44-15.55
	c1.05-0.5,1.71-1.57,1.71-2.73c0-5.39-2.44-11.48-5.69-17.22c31.8-7.31,68.7-11.29,104.87,8.91c0.46,0.26,0.97,0.38,1.47,0.38
	c0.53,0,1.06-0.14,1.53-0.42c0.92-0.54,1.49-1.53,1.49-2.61c0-7.66-10.47-23-15.15-29.47
	C1053.78,1740.61,1064.09,1730.93,1064.09,1722.81z M185.23,1768.26c3.06-6.77,9.43-16.34,13.88-22.27c0.99-1.32,0.74-3.2-0.57-4.21
	c-5.27-4.07-13.32-11.92-14.84-17.32c35.77-19.19,71.51-15.08,102.01-8.16c4.63,12.87,11.49,26.77,13.98,31.69
	c-2.11,2.56-6.34,7.94-10.22,14.33C258.13,1755,221.71,1750.51,185.23,1768.26z M287.33,1783.26c0.54-4.94,3.12-10.65,6.17-15.9
	c0.07-0.11,0.14-0.21,0.19-0.33c5.24-8.95,11.79-16.51,11.9-16.64c0.82-0.93,0.98-2.28,0.4-3.38c-4.57-8.77-15.5-31.65-18.17-44.79
	c21.89,9.6,43.9,13.23,65.89,13.29v45.91c0,5.46,5.31,11.05,12.1,12.72c20.54,4.96,41.24,9.33,62.05,13.09
	C381.24,1797.89,333.64,1804.75,287.33,1783.26z M461.83,1785.32c-5.21-0.77-10.41-1.59-15.6-2.44
	c-26.4-4.33-52.64-9.64-78.65-15.92c-3.89-0.96-6.47-3.98-6.47-5.55v-46.02v-6.09v-56.04c0-0.27,0.07-0.4,0.28-0.56
	c0.43-0.34,1.24-0.58,2.32-0.58c0.62,0,1.33,0.08,2.11,0.27c53.4,12.9,107.84,21.76,162.69,26.51c20.58,1.79,41.22,2.99,61.89,3.61
	c11,0.33,21.99,0.5,33,0.5c0,0,0,0,0.01,0c9.03,0,18.08-0.11,27.1-0.34c21.7-0.53,43.39-1.71,65-3.53
	c55.79-4.69,111.17-13.63,165.47-26.75c2.12-0.52,3.74-0.22,4.42,0.32c0.22,0.17,0.28,0.3,0.28,0.56v56.14v6.09v45.92
	c0,1.57-2.57,4.58-6.46,5.54c-27.04,6.54-54.33,12.01-81.79,16.43c-5.23,0.85-10.47,1.65-15.72,2.41
	C675.84,1801.26,567.67,1801.11,461.83,1785.32z M815.99,1787.75c21.8-3.88,43.47-8.42,64.98-13.61h0.01
	c6.78-1.67,12.09-7.26,12.09-12.72v-45.99c20.23-0.6,40.48-4.37,60.62-13.18c-2.98,13.1-15.06,35.9-20.11,44.64
	c-0.68,1.17-0.49,2.64,0.44,3.61c5.35,5.54,18.78,21.62,20.21,32.77C908.69,1804.4,861.89,1798.11,815.99,1787.75z M1042.95,1741.78
	c-1.31,1.01-1.56,2.88-0.57,4.21c4.45,5.94,10.83,15.51,13.89,22.27c-36.65-17.83-73.33-13.22-104.9-5.78
	c-4.31-6.44-9.04-11.89-11.43-14.52c2.83-5.04,10.33-18.79,15.43-31.56c30.65-7,66.55-11.19,102.43,8.06
	C1056.27,1729.87,1048.22,1737.71,1042.95,1741.78z M72.46,123.48c-7.36-28.64,9.96-57.93,38.6-65.29
	c23.24-5.97,47,8.08,52.97,31.32c2.35,9.16,1,18.69-3.82,26.83c-4.81,8.14-12.51,13.92-21.67,16.27
	c-7.49,1.92-15.27,0.82-21.92-3.12c-6.65-3.93-11.38-10.22-13.3-17.71c-1.58-6.15-0.67-12.54,2.56-18
	c3.23-5.46,8.39-9.34,14.54-10.92c1.62-0.42,3.26,0.56,3.68,2.18c0.42,1.62-0.56,3.26-2.18,3.68c-4.58,1.18-8.43,4.07-10.84,8.14
	c-2.41,4.07-3.09,8.84-1.91,13.42c1.52,5.92,5.26,10.9,10.52,14.01c5.26,3.11,11.42,3.99,17.34,2.47c7.6-1.95,13.98-6.74,17.97-13.5
	c3.99-6.75,5.12-14.65,3.17-22.25c-5.14-20.01-25.6-32.11-45.61-26.97c-25.41,6.53-40.78,32.51-34.25,57.93
	c4,15.58,13.83,28.68,27.68,36.87c13.85,8.19,30.06,10.5,45.64,6.49c19.68-5.05,36.21-17.47,46.55-34.95
	c10.34-17.49,13.25-37.95,8.2-57.63c-0.01-0.02-0.01-0.04-0.01-0.07c-0.02-0.1-0.03-0.2-0.05-0.31c-0.01-0.1-0.03-0.21-0.03-0.31
	c0-0.02-0.01-0.05-0.01-0.07c0-0.07,0.02-0.13,0.02-0.2c0.01-0.11,0.01-0.22,0.03-0.33c0.02-0.1,0.04-0.19,0.07-0.28
	c0.03-0.1,0.05-0.19,0.09-0.28c0.04-0.09,0.08-0.18,0.13-0.27c0.04-0.08,0.08-0.17,0.13-0.25c0.05-0.08,0.11-0.16,0.17-0.24
	c0.06-0.08,0.12-0.15,0.18-0.22c0.07-0.07,0.14-0.13,0.21-0.19c0.07-0.07,0.15-0.13,0.23-0.19c0.08-0.06,0.17-0.11,0.26-0.16
	c0.08-0.05,0.16-0.09,0.25-0.13c0.1-0.05,0.21-0.08,0.31-0.12c0.06-0.02,0.12-0.05,0.19-0.07c0.02-0.01,0.04,0,0.07-0.01
	c0.1-0.02,0.2-0.03,0.3-0.05c0.11-0.01,0.21-0.03,0.31-0.03c0.02,0,0.04-0.01,0.07-0.01h822.87c0.02,0,0.04,0.01,0.07,0.01
	c0.1,0,0.21,0.02,0.31,0.03c0.1,0.01,0.21,0.02,0.31,0.05c0.02,0.01,0.04,0,0.07,0.01c0.07,0.02,0.12,0.05,0.19,0.07
	c0.11,0.04,0.21,0.07,0.31,0.12c0.09,0.04,0.17,0.09,0.25,0.13c0.09,0.05,0.17,0.1,0.26,0.16c0.08,0.06,0.15,0.12,0.23,0.19
	c0.07,0.06,0.14,0.12,0.21,0.19c0.07,0.07,0.13,0.15,0.18,0.22c0.06,0.08,0.12,0.15,0.17,0.24c0.05,0.08,0.09,0.16,0.13,0.25
	c0.05,0.09,0.09,0.18,0.13,0.27c0.04,0.09,0.06,0.19,0.09,0.28c0.03,0.09,0.05,0.18,0.07,0.28c0.02,0.11,0.03,0.22,0.03,0.33
	c0,0.07,0.02,0.13,0.02,0.2c0,0.02-0.01,0.04-0.01,0.07c0,0.1-0.02,0.21-0.03,0.31c-0.01,0.1-0.02,0.21-0.05,0.31
	c-0.01,0.02,0,0.05-0.01,0.07c-10.43,40.62,14.13,82.15,54.74,92.58c15.58,4,31.79,1.7,45.65-6.49
	c13.85-8.19,23.68-21.28,27.68-36.87c6.53-25.41-8.84-51.4-34.25-57.93c-20.01-5.14-40.47,6.96-45.61,26.97
	c-1.95,7.6-0.83,15.5,3.17,22.25c3.99,6.75,10.38,11.55,17.97,13.5c5.92,1.52,12.08,0.64,17.34-2.47c5.26-3.11,9-8.09,10.52-14.01
	c1.18-4.58,0.5-9.35-1.91-13.42c-2.41-4.07-6.26-6.96-10.84-8.14c-1.62-0.42-2.59-2.06-2.18-3.68c0.42-1.62,2.06-2.59,3.68-2.18
	c6.14,1.58,11.31,5.45,14.54,10.92c3.23,5.46,4.14,11.85,2.56,18c-1.92,7.49-6.65,13.77-13.3,17.71
	c-6.65,3.93-14.44,5.04-21.92,3.12c-9.16-2.35-16.86-8.13-21.67-16.27c-4.81-8.14-6.17-17.67-3.82-26.83
	c5.97-23.24,29.73-37.29,52.97-31.32c28.64,7.36,45.96,36.64,38.6,65.29c-4.4,17.15-15.22,31.56-30.46,40.57
	c-10.35,6.12-21.9,9.26-33.62,9.26c-5.53,0-11.1-0.7-16.6-2.11c-21.24-5.45-39.08-18.85-50.25-37.73
	c-10.5-17.76-13.9-38.37-9.72-58.43H213.12c4.18,20.07,0.78,40.67-9.72,58.43c-11.16,18.88-29.01,32.28-50.25,37.73
	c-5.5,1.41-11.07,2.11-16.6,2.11c-11.72,0-23.27-3.13-33.62-9.26C87.68,155.04,76.86,140.63,72.46,123.48z M1169.04,1876.52
	c7.36,28.64-9.96,57.93-38.6,65.29c-3.62,0.93-7.25,1.37-10.82,1.37c-19.39,0-37.11-13.07-42.15-32.69
	c-2.35-9.16-1-18.69,3.82-26.83c4.81-8.14,12.51-13.92,21.67-16.27c7.49-1.92,15.27-0.82,21.92,3.12
	c6.65,3.93,11.38,10.22,13.3,17.71c1.58,6.15,0.67,12.54-2.56,18c-3.23,5.46-8.39,9.34-14.54,10.92c-1.62,0.42-3.26-0.56-3.68-2.18
	c-0.42-1.62,0.56-3.26,2.18-3.68c4.58-1.18,8.43-4.07,10.84-8.14c2.41-4.07,3.09-8.84,1.91-13.42c-1.52-5.92-5.26-10.9-10.52-14.01
	c-5.26-3.11-11.42-3.99-17.34-2.47c-7.6,1.95-13.98,6.74-17.97,13.5c-3.99,6.75-5.12,14.65-3.17,22.25
	c5.14,20.01,25.6,32.11,45.61,26.97c25.41-6.53,40.78-32.51,34.25-57.93c-8.26-32.17-41.16-51.62-73.33-43.36
	c-40.62,10.43-65.18,51.96-54.74,92.58c0.01,0.02,0,0.05,0.01,0.07c0.02,0.1,0.03,0.2,0.05,0.31c0.01,0.1,0.03,0.21,0.03,0.31
	c0,0.02,0.01,0.04,0.01,0.07c0,0.07-0.02,0.13-0.02,0.2c-0.01,0.11-0.01,0.22-0.03,0.33c-0.02,0.09-0.04,0.18-0.07,0.28
	c-0.03,0.1-0.05,0.19-0.09,0.28c-0.04,0.09-0.08,0.18-0.13,0.27c-0.04,0.08-0.08,0.17-0.13,0.25c-0.05,0.08-0.11,0.16-0.17,0.24
	c-0.06,0.08-0.12,0.15-0.18,0.22c-0.07,0.07-0.14,0.13-0.21,0.19c-0.07,0.07-0.15,0.13-0.23,0.19c-0.08,0.06-0.17,0.11-0.26,0.16
	c-0.08,0.05-0.16,0.09-0.25,0.13c-0.1,0.05-0.21,0.08-0.31,0.12c-0.06,0.02-0.12,0.05-0.19,0.07c-0.02,0.01-0.04,0-0.07,0.01
	c-0.1,0.02-0.21,0.03-0.31,0.05c-0.1,0.01-0.2,0.03-0.3,0.03c-0.02,0-0.05,0.01-0.07,0.01H209.31c-0.02,0-0.04-0.01-0.07-0.01
	c-0.1,0-0.21-0.02-0.31-0.03c-0.1-0.01-0.21-0.02-0.31-0.05c-0.02-0.01-0.04,0-0.07-0.01c-0.07-0.02-0.12-0.05-0.19-0.07
	c-0.11-0.04-0.21-0.07-0.31-0.12c-0.09-0.04-0.17-0.09-0.25-0.13c-0.09-0.05-0.17-0.1-0.26-0.16c-0.08-0.06-0.15-0.12-0.23-0.19
	c-0.07-0.06-0.14-0.12-0.21-0.19c-0.07-0.07-0.12-0.15-0.18-0.22c-0.06-0.08-0.12-0.15-0.17-0.24c-0.05-0.08-0.09-0.16-0.13-0.25
	c-0.05-0.09-0.09-0.18-0.13-0.27c-0.04-0.09-0.06-0.19-0.09-0.28c-0.03-0.09-0.05-0.18-0.07-0.28c-0.02-0.11-0.03-0.22-0.03-0.33
	c0-0.07-0.02-0.13-0.02-0.2c0-0.02,0.01-0.05,0.01-0.07c0-0.1,0.02-0.2,0.03-0.31c0.01-0.1,0.02-0.21,0.05-0.31
	c0.01-0.02,0-0.04,0.01-0.07c10.43-40.62-14.13-82.15-54.74-92.58c-32.17-8.26-65.07,11.19-73.33,43.36
	c-6.53,25.41,8.84,51.4,34.25,57.93c20.01,5.14,40.47-6.96,45.61-26.97c1.95-7.6,0.83-15.5-3.17-22.25
	c-3.99-6.75-10.38-11.55-17.97-13.5c-5.92-1.52-12.08-0.64-17.34,2.47c-5.26,3.11-9,8.09-10.52,14.01
	c-1.18,4.58-0.5,9.35,1.91,13.42c2.41,4.07,6.26,6.96,10.84,8.14c1.62,0.42,2.59,2.06,2.18,3.68c-0.42,1.62-2.06,2.59-3.68,2.18
	c-6.14-1.58-11.31-5.45-14.54-10.92c-3.23-5.46-4.14-11.85-2.56-18c1.92-7.49,6.65-13.77,13.3-17.71
	c6.65-3.93,14.44-5.04,21.92-3.12c9.16,2.35,16.86,8.13,21.67,16.27c4.81,8.14,6.17,17.67,3.82,26.83
	c-5.04,19.62-22.76,32.69-42.15,32.69c-3.57,0-7.2-0.44-10.82-1.37c-28.64-7.36-45.96-36.64-38.6-65.29
	c9.09-35.4,45.29-56.8,80.69-47.71c42.59,10.94,68.82,53.55,59.97,96.17h815.27c-8.85-42.62,17.38-85.23,59.97-96.17
	C1123.75,1819.71,1159.95,1841.12,1169.04,1876.52z M87.02,1816.69c-11.93-0.8-22.84-6.2-30.71-15.21
	c-7.87-9.01-11.77-20.54-10.97-32.47c1.35-20.04,18.75-35.25,38.79-33.91c16.37,1.1,28.79,15.31,27.69,31.67
	c-0.86,12.87-11.61,22.77-24.33,22.77c-0.55,0-1.1-0.02-1.65-0.06c-11.07-0.74-19.48-10.36-18.73-21.43
	c0.11-1.67,1.55-2.92,3.22-2.81c1.67,0.11,2.93,1.55,2.81,3.22c-0.52,7.75,5.36,14.47,13.11,14.99c10.1,0.67,18.87-6.99,19.54-17.09
	c0.88-13.04-9.02-24.36-22.06-25.24c-16.71-1.13-31.23,11.56-32.35,28.28c-0.69,10.32,2.68,20.3,9.49,28.09
	c6.81,7.79,16.24,12.46,26.57,13.15c27.03,1.82,50.49-18.68,52.35-45.7V235.04c-1.85-27.02-25.32-47.51-52.35-45.7
	c-10.32,0.69-19.76,5.36-26.57,13.15c-6.81,7.79-10.18,17.76-9.49,28.09c1.12,16.71,15.63,29.4,32.35,28.28
	c6.32-0.42,12.09-3.28,16.26-8.05c4.17-4.77,6.23-10.87,5.8-17.19c-0.33-4.89-2.54-9.36-6.23-12.59c-3.69-3.23-8.42-4.82-13.31-4.5
	c-3.75,0.25-7.18,1.95-9.66,4.78c-2.48,2.83-3.7,6.46-3.45,10.21c0.11,1.67-1.15,3.11-2.81,3.22c-1.67,0.11-3.11-1.15-3.22-2.81
	c-0.36-5.36,1.39-10.55,4.93-14.59c3.54-4.05,8.44-6.47,13.8-6.83c6.5-0.44,12.79,1.69,17.69,5.98c4.91,4.29,7.85,10.23,8.29,16.74
	c0.53,7.93-2.06,15.59-7.28,21.57c-5.23,5.98-12.48,9.57-20.4,10.1c-0.83,0.06-1.65,0.08-2.46,0.08
	c-18.98,0-35.03-14.77-36.32-33.99c-0.8-11.93,3.09-23.47,10.97-32.47c7.87-9.01,18.78-14.41,30.71-15.21
	c30.38-2.04,56.75,21.02,58.79,51.4c0,0.03,0,0.07,0,0.1c0,0.03,0.01,0.07,0.01,0.1v1530.17c0,0.03-0.01,0.07-0.01,0.1
	c0,0.03,0.01,0.07,0,0.1c-1.95,29.13-26.28,51.52-55.06,51.52C89.52,1816.81,88.28,1816.77,87.02,1816.69z M1185.19,198.52
	c7.87,9.01,11.77,20.54,10.97,32.47c-1.29,19.21-17.34,33.99-36.32,33.99c-0.82,0-1.64-0.03-2.46-0.08
	c-16.37-1.1-28.79-15.31-27.69-31.67c0.44-6.5,3.38-12.45,8.29-16.74c4.91-4.29,11.19-6.41,17.69-5.98
	c5.36,0.36,10.27,2.79,13.81,6.83c3.54,4.05,5.29,9.23,4.93,14.59c-0.11,1.67-1.56,2.93-3.22,2.81c-1.67-0.11-2.93-1.55-2.81-3.22
	c0.25-3.75-0.97-7.38-3.45-10.21c-2.47-2.83-5.91-4.53-9.66-4.78c-4.89-0.33-9.62,1.27-13.31,4.5c-3.69,3.23-5.91,7.7-6.23,12.59
	c-0.88,13.04,9.02,24.36,22.06,25.24c16.71,1.13,31.23-11.56,32.35-28.28c0.69-10.32-2.68-20.3-9.48-28.09
	c-6.81-7.79-16.24-12.46-26.57-13.15c-27.03-1.81-50.5,18.68-52.35,45.7v1529.91c1.85,27.02,25.32,47.51,52.35,45.7
	c10.32-0.69,19.76-5.36,26.57-13.15c6.81-7.79,10.18-17.76,9.48-28.09c-1.12-16.72-15.64-29.4-32.35-28.28
	c-13.04,0.88-22.94,12.2-22.06,25.24c0.68,10.1,9.45,17.76,19.54,17.09c7.75-0.52,13.63-7.25,13.11-14.99
	c-0.11-1.67,1.15-3.11,2.81-3.22c1.66-0.11,3.11,1.15,3.22,2.81c0.74,11.07-7.66,20.69-18.73,21.43
	c-13.43,0.9-25.08-9.29-25.98-22.71c-1.1-16.37,11.32-30.57,27.69-31.67c20.04-1.35,37.44,13.87,38.79,33.91
	c0.8,11.93-3.09,23.47-10.97,32.47c-7.87,9.01-18.78,14.41-30.71,15.21c-1.25,0.08-2.5,0.13-3.73,0.13
	c-28.78,0-53.1-22.39-55.06-51.52c0-0.03,0-0.07,0-0.1c0-0.03-0.01-0.07-0.01-0.1V234.91c0-0.03,0.01-0.07,0.01-0.1
	c0-0.03-0.01-0.07,0-0.1c2.04-30.38,28.41-53.44,58.79-51.4C1166.41,184.11,1177.32,189.52,1185.19,198.52z M43.31,1735.85
	c-0.93,1.38-2.81,1.75-4.2,0.81c-1.38-0.93-1.75-2.81-0.81-4.2c8.7-12.88,22.8-20.88,38.17-21.81V291.03
	C61.1,290.1,47,282.09,38.3,269.22c-0.93-1.38-0.57-3.26,0.81-4.2c1.38-0.93,3.26-0.57,4.2,0.81c8.14,12.05,21.67,19.24,36.19,19.24
	c14.52,0,28.05-7.19,36.19-19.24c0.93-1.38,2.81-1.75,4.2-0.81c1.38,0.93,1.75,2.81,0.81,4.2c-8.7,12.87-22.8,20.88-38.17,21.81
	v1419.63c15.37,0.93,29.48,8.94,38.17,21.81c0.93,1.38,0.57,3.26-0.81,4.2c-0.52,0.35-1.11,0.52-1.69,0.52
	c-0.97,0-1.92-0.47-2.51-1.33c-8.14-12.05-21.67-19.24-36.19-19.24C64.98,1716.61,51.45,1723.8,43.31,1735.85z M1197.01,265.83
	c0.93-1.38,2.81-1.75,4.2-0.81c1.38,0.93,1.75,2.81,0.81,4.2c-8.7,12.87-22.8,20.88-38.17,21.81v1419.63
	c15.37,0.93,29.48,8.94,38.17,21.81c0.93,1.38,0.57,3.26-0.81,4.2c-0.52,0.35-1.11,0.52-1.69,0.52c-0.97,0-1.92-0.47-2.51-1.33
	c-8.14-12.05-21.67-19.24-36.19-19.24c-14.52,0-28.05,7.19-36.19,19.24c-0.93,1.38-2.81,1.75-4.2,0.81
	c-1.38-0.93-1.75-2.81-0.81-4.2c8.7-12.88,22.8-20.88,38.17-21.81V291.03c-15.37-0.93-29.48-8.94-38.17-21.81
	c-0.93-1.38-0.57-3.26,0.81-4.2c1.38-0.93,3.26-0.57,4.2,0.81c8.14,12.05,21.67,19.24,36.19,19.24
	C1175.34,285.08,1188.87,277.88,1197.01,265.83z"/>
</svg>
