<?xml version="1.0" encoding="utf-8"?>
<!-- Generator: Adobe Illustrator 24.0.2, SVG Export Plug-In . SVG Version: 6.00 Build 0)  -->
<svg version="1.1" id="Слой_1" xmlns="http://www.w3.org/2000/svg" xmlns:xlink="http://www.w3.org/1999/xlink" x="0px" y="0px"
	 viewBox="0 0 2000 782.5" style="enable-background:new 0 0 2000 782.5;" xml:space="preserve">
<style type="text/css">
	.st0{fill:#FFFFFF;}
</style>
<path class="st0" d="M2000,364.93c-1.27,44.81-11.89,89.35-31.96,130.53c-1.09,2.33-2.26,4.58-3.45,6.87
	c-4.65,9.02-9.75,17.87-15.31,26.52c-0.03,0.04-0.03,0.04-0.03,0.04c-1.64,2.53-3.38,5.09-5.13,7.59c0,0,0,0-0.03,0.03
	c-5.98,8.78-12.44,17.23-19.45,25.46c-2.12,2.53-4.27,5.03-6.53,7.49c-0.44,0.51-0.89,1.03-1.37,1.5c-1.57,1.71-3.15,3.42-4.75,5.1
	l-0.04,0.03c-1.74,1.81-3.45,3.59-5.23,5.36c-36.98,36.98-80.8,62.96-127.42,78l-0.03,0.03c-2.74,0.89-5.47,1.71-8.17,2.49
	c-7.25,2.12-14.49,3.96-21.84,5.57l-0.03,0.04c-6.8,1.47-13.64,2.7-20.48,3.73c-96.62,14.46-198.62-15.48-273.03-89.89
	c-40.51-40.51-67.83-89.18-81.99-140.73c-24.22,184.82-182.3,327.52-373.73,327.52c-191.43,0-349.51-142.69-373.73-327.52
	c-14.16,51.54-41.49,100.22-82,140.73c-74.41,74.41-176.4,104.35-273.03,89.89c-6.83-1.03-13.67-2.26-20.47-3.73l-0.03-0.04
	c-7.35-1.6-14.59-3.45-21.84-5.57c-2.7-0.79-5.43-1.61-8.17-2.49l-0.03-0.03c-46.62-15.04-90.44-41.02-127.42-78
	c-1.78-1.78-3.49-3.55-5.23-5.36l-0.03-0.03c-1.6-1.68-3.18-3.38-4.75-5.1c-0.48-0.48-0.92-0.99-1.37-1.5
	c-2.26-2.46-4.41-4.95-6.53-7.48c-7-8.24-13.46-16.68-19.44-25.47c-0.03-0.03-0.03-0.03-0.03-0.03c-1.75-2.49-3.49-5.06-5.13-7.59
	c0,0,0,0-0.03-0.04c-5.57-8.65-10.66-17.5-15.31-26.52c-1.2-2.29-2.36-4.54-3.45-6.87C11.89,454.28,1.27,409.74,0,364.93
	c12.34,35.86,32.81,69.59,61.45,98.23c100.7,100.69,263.87,100.7,364.56,0c100.66-100.66,100.7-263.87,0-364.56
	c-28.64-28.64-62.38-49.11-98.26-61.42c46.11,1.27,91.97,12.47,134.15,33.67c2.39,1.23,4.79,2.46,7.14,3.73
	c9.37,4.99,18.5,10.49,27.38,16.44c2.56,1.74,5.09,3.52,7.59,5.33c8.65,6.12,16.99,12.75,25.09,19.89c3.9,3.42,7.69,6.94,11.48,10.6
	c1.23,1.16,2.46,2.39,3.69,3.62c35.27,35.28,60.6,76.8,75.88,121c0.99,2.9,1.95,5.78,2.87,8.68c3.72,11.93,6.73,23.96,9.06,36.13
	c0.46,2.41,0.85,4.83,1.24,7.24C672.88,137.64,822.02,14.29,1000,14.29c177.98,0,327.13,123.35,366.68,289.22
	c0.4-2.41,0.79-4.83,1.24-7.24c2.33-12.16,5.33-24.2,9.06-36.13c0.92-2.9,1.88-5.78,2.87-8.68c15.28-44.19,40.61-85.72,75.88-121
	c1.23-1.23,2.46-2.46,3.69-3.62c3.79-3.66,7.59-7.18,11.48-10.6c8.1-7.14,16.44-13.78,25.09-19.89c2.5-1.81,5.02-3.59,7.59-5.33
	c8.88-5.95,18.01-11.45,27.38-16.44c2.36-1.27,4.75-2.5,7.14-3.73c42.18-21.19,88.05-32.4,134.15-33.67
	c-35.89,12.31-69.62,32.78-98.27,61.42c-100.69,100.69-100.66,263.9,0,364.56c100.7,100.7,263.87,100.69,364.56,0
	C1967.18,434.52,1987.66,400.79,2000,364.93z"/>
</svg>
