<?xml version="1.0" encoding="utf-8"?>
<!-- Generator: Adobe Illustrator 24.0.2, SVG Export Plug-In . SVG Version: 6.00 Build 0)  -->
<svg version="1.1" id="Слой_1" xmlns="http://www.w3.org/2000/svg" xmlns:xlink="http://www.w3.org/1999/xlink" x="0px" y="0px"
	 viewBox="0 0 1242 2000" style="enable-background:new 0 0 1242 2000;" xml:space="preserve">
<path d="M59.73,126.6c-3.11-20.78,3.33-42.72,19.33-58.72c15.51-15.51,36.59-22.04,56.8-19.59c1.51,0.19,3.02,0.42,4.53,0.71
	c2.62,0.5,5.2,1.15,7.77,1.95c0.63,0.2,1.24,0.4,1.87,0.62c9.5,3.29,18.44,8.73,26.02,16.32c0.26,0.26,0.53,0.53,0.78,0.79
	c0.79,0.82,1.54,1.63,2.28,2.47c1.54,1.74,2.96,3.54,4.28,5.4c0.39,0.54,0.77,1.08,1.15,1.63c1.28,1.91,2.46,3.87,3.54,5.89
	c0.27,0.51,0.54,1.02,0.8,1.54c4.56,9.07,6.97,18.94,7.24,28.85c-2.65-7.72-7.05-14.97-13.21-21.13
	c-21.66-21.66-56.76-21.65-78.41,0c-21.66,21.66-21.66,56.75,0,78.41c6.16,6.16,13.42,10.56,21.13,13.22
	c-9.64-0.27-19.22-2.56-28.07-6.87c-0.5-0.24-0.99-0.48-1.48-0.74c-1.94-1-3.84-2.1-5.71-3.29c-0.01-0.01-0.01-0.01-0.01-0.01
	c-0.54-0.35-1.1-0.73-1.63-1.1c0,0,0,0-0.01-0.01c-1.89-1.29-3.71-2.68-5.48-4.18c-0.54-0.46-1.08-0.92-1.61-1.4
	c-0.11-0.1-0.22-0.19-0.32-0.29c-0.37-0.34-0.73-0.68-1.1-1.02L80.21,166c-0.39-0.38-0.77-0.74-1.15-1.13
	c-7.95-7.95-13.54-17.38-16.78-27.4l-0.01-0.01c-0.19-0.59-0.37-1.18-0.54-1.76c-0.46-1.56-0.85-3.12-1.2-4.7L60.53,131
	C60.21,129.54,59.95,128.07,59.73,126.6z M1134.67,93.31c21.66,21.66,21.66,56.75,0,78.41c-6.16,6.16-13.42,10.56-21.13,13.22
	c9.64-0.27,19.22-2.56,28.07-6.87c0.5-0.24,0.99-0.48,1.48-0.74c1.94-1,3.84-2.1,5.71-3.29c0.01-0.01,0.01-0.01,0.01-0.01
	c0.54-0.35,1.1-0.73,1.63-1.1c0,0,0,0,0.01-0.01c1.89-1.29,3.71-2.68,5.48-4.18c0.54-0.46,1.08-0.92,1.61-1.4
	c0.11-0.1,0.22-0.19,0.32-0.29c0.37-0.34,0.74-0.68,1.1-1.02l0.01-0.01c0.39-0.38,0.77-0.74,1.15-1.13
	c7.95-7.95,13.54-17.38,16.78-27.4l0.01-0.01c0.19-0.59,0.37-1.18,0.54-1.76c0.46-1.56,0.85-3.12,1.2-4.7l0.01-0.01
	c0.32-1.46,0.58-2.93,0.8-4.4c3.11-20.78-3.33-42.72-19.33-58.72c-15.51-15.51-36.59-22.04-56.8-19.59
	c-1.51,0.19-3.02,0.42-4.53,0.71c-2.62,0.5-5.2,1.15-7.77,1.95c-0.63,0.2-1.24,0.4-1.87,0.62c-9.5,3.29-18.44,8.73-26.02,16.32
	c-0.26,0.26-0.53,0.53-0.78,0.79c-0.79,0.82-1.54,1.63-2.28,2.47c-1.54,1.74-2.96,3.54-4.28,5.4c-0.39,0.54-0.77,1.08-1.15,1.63
	c-1.28,1.91-2.46,3.87-3.54,5.89c-0.27,0.51-0.54,1.02-0.8,1.54c-4.56,9.07-6.97,18.94-7.24,28.85c2.65-7.72,7.05-14.97,13.21-21.13
	C1077.92,71.66,1113.02,71.66,1134.67,93.31z M104.49,1905.45c-21.66-21.66-21.66-56.75,0-78.41c6.16-6.16,13.42-10.56,21.13-13.22
	c-9.64,0.27-19.22,2.56-28.07,6.87c-0.5,0.23-0.99,0.48-1.48,0.74c-1.94,1-3.84,2.09-5.71,3.29c-0.01,0.01-0.01,0.01-0.01,0.01
	c-0.54,0.35-1.1,0.73-1.63,1.1c0,0,0,0-0.01,0.01c-1.89,1.29-3.71,2.68-5.48,4.18c-0.54,0.46-1.08,0.92-1.61,1.4
	c-0.11,0.1-0.22,0.19-0.32,0.29c-0.37,0.34-0.73,0.68-1.1,1.02l-0.01,0.01c-0.39,0.38-0.77,0.74-1.15,1.13
	c-7.95,7.95-13.54,17.38-16.78,27.41l-0.01,0.01c-0.19,0.59-0.37,1.18-0.54,1.76c-0.46,1.56-0.85,3.12-1.2,4.7l-0.01,0.01
	c-0.32,1.46-0.58,2.93-0.8,4.4c-3.11,20.78,3.33,42.72,19.33,58.72c15.51,15.51,36.59,22.04,56.8,19.59
	c1.51-0.19,3.02-0.42,4.53-0.71c2.62-0.5,5.2-1.15,7.77-1.95c0.63-0.2,1.24-0.4,1.87-0.62c9.5-3.29,18.44-8.73,26.02-16.32
	c0.26-0.26,0.53-0.53,0.78-0.79c0.79-0.82,1.54-1.63,2.28-2.47c1.54-1.74,2.96-3.54,4.28-5.4c0.39-0.54,0.77-1.08,1.15-1.63
	c1.28-1.91,2.46-3.87,3.54-5.89c0.27-0.51,0.54-1.02,0.8-1.54c4.56-9.07,6.97-18.94,7.24-28.85c-2.65,7.72-7.05,14.97-13.21,21.13
	C161.25,1927.11,126.14,1927.1,104.49,1905.45z M1178.64,1867.76L1178.64,1867.76c-0.35-1.59-0.75-3.15-1.21-4.71
	c-0.17-0.58-0.35-1.17-0.54-1.76l-0.01-0.01c-3.23-10.03-8.82-19.45-16.78-27.41c-0.38-0.38-0.76-0.75-1.15-1.13l-0.01-0.01
	c-0.36-0.35-0.73-0.68-1.1-1.02c-0.1-0.1-0.21-0.2-0.32-0.29c-0.53-0.48-1.07-0.95-1.61-1.4c-1.77-1.51-3.59-2.9-5.48-4.18
	c-0.01-0.01-0.01-0.01-0.01-0.01c-0.54-0.38-1.09-0.75-1.63-1.1c0,0,0,0-0.01-0.01c-1.86-1.2-3.76-2.29-5.71-3.29
	c-0.49-0.26-0.98-0.51-1.48-0.74c-8.86-4.32-18.44-6.6-28.07-6.87c7.71,2.65,14.97,7.06,21.13,13.22
	c21.66,21.66,21.66,56.75,0,78.41c-21.65,21.65-56.75,21.66-78.41,0c-6.16-6.16-10.56-13.42-13.21-21.13
	c0.27,9.92,2.68,19.78,7.24,28.85c0.26,0.51,0.53,1.03,0.8,1.54c1.07,2.01,2.26,3.98,3.54,5.89c0.38,0.55,0.76,1.1,1.15,1.63
	c1.32,1.86,2.74,3.65,4.28,5.4c0.74,0.84,1.49,1.65,2.28,2.47c0.25,0.26,0.51,0.53,0.78,0.79c7.59,7.59,16.52,13.03,26.02,16.32
	c0.63,0.21,1.24,0.42,1.87,0.62c2.57,0.8,5.15,1.45,7.77,1.95c1.51,0.29,3.01,0.51,4.53,0.71c20.21,2.45,41.29-4.08,56.8-19.59
	c16-16,22.44-37.94,19.33-58.72C1179.22,1870.69,1178.96,1869.22,1178.64,1867.76z M216.44,116.36l-29.66,44.45l29.66,44.45
	l-44.45-29.66l-44.45,29.66l29.66-44.45l-29.66-44.45l44.45,29.66L216.44,116.36z M183.08,160.81l22.23-33.32l-33.32,22.23
	l-33.32-22.23l22.23,33.32l-22.23,33.32l33.32-22.23l33.32,22.23L183.08,160.81z M1022.73,205.26l29.66-44.45l-29.66-44.45
	l44.45,29.66l44.45-29.66l-29.66,44.45l29.66,44.45l-44.45-29.66L1022.73,205.26z M1056.09,160.81l-22.23,33.32l33.32-22.23
	l33.32,22.23l-22.23-33.32l22.23-33.32l-33.32,22.23l-33.32-22.23L1056.09,160.81z M216.44,1792.83l-29.66,44.45l29.66,44.45
	l-44.45-29.66l-44.45,29.66l29.66-44.45l-29.66-44.45l44.45,29.66L216.44,1792.83z M183.08,1837.28l22.23-33.32l-33.32,22.23
	l-33.32-22.23l22.23,33.32l-22.23,33.32l33.32-22.23l33.32,22.23L183.08,1837.28z M1022.73,1881.73l29.66-44.45l-29.66-44.45
	l44.45,29.66l44.45-29.66l-29.66,44.45l29.66,44.45l-44.45-29.66L1022.73,1881.73z M1056.09,1837.28l-22.23,33.32l33.32-22.23
	l33.32,22.23l-22.23-33.32l22.23-33.32l-33.32,22.23l-33.32-22.23L1056.09,1837.28z M668.59,514.1c0-26.32-21.33-47.65-47.65-47.65
	c-26.32,0-47.65,21.33-47.65,47.65s21.33,47.65,47.65,47.65C647.26,561.75,668.59,540.41,668.59,514.1z M626.82,455.02l-2.91-37.78
	L621,379.47l-2.91,37.78l-2.91,37.78H621H626.82z M618.09,610.95l2.91,37.78l2.91-37.78l2.91-37.78H621h-5.82L618.09,610.95z
	 M561.93,514.1v-5.82l-37.78,2.91l-37.78,2.91l37.78,2.91l37.78,2.91V514.1z M717.85,511.19l-37.78-2.91v5.82v5.82l37.78-2.91
	l37.78-2.91L717.85,511.19z M550.46,447.67l24.65,28.77l4.11-4.11l4.11-4.11l-28.77-24.65L525.8,418.9L550.46,447.67z M716.2,609.29
	l-24.66-28.77l-24.65-28.77l-4.11,4.11l-4.11,4.11l28.77,24.65L716.2,609.29z M583.34,559.98l-4.11-4.11l-4.11-4.11l-24.65,28.77
	l-24.66,28.77l28.77-24.66L583.34,559.98z M658.66,468.21l4.11,4.11l4.11,4.11l24.65-28.77l24.66-28.77l-28.77,24.65L658.66,468.21z
	 M593.88,461.29l5.41-2.14l5.41-2.14l-16.58-34.06l-16.59-34.07l11.17,36.2L593.88,461.29z M670.47,639.31l-11.17-36.2l-11.17-36.2
	l-5.41,2.14l-5.41,2.14l16.58,34.06L670.47,639.31z M568.2,541.21l-2.14-5.41l-2.14-5.41l-34.06,16.59l-34.07,16.59l36.2-11.17
	L568.2,541.21z M673.8,486.98l2.14,5.41l2.14,5.41l34.06-16.59l34.07-16.59l-36.2,11.17L673.8,486.98z M530.99,478.23l33.5,17.7
	l2.31-5.34l2.31-5.34L533.3,472.9l-35.81-12.36L530.99,478.23z M711.01,549.96l-33.5-17.7l-2.31,5.34l-2.31,5.34l35.82,12.36
	l35.81,12.36L711.01,549.96z M602.84,570.61l-5.34-2.31l-5.34-2.31l-12.36,35.82l-12.36,35.82l17.7-33.5L602.84,570.61z
	 M639.16,457.58l5.34,2.31l5.34,2.31l12.36-35.82l12.36-35.81l-17.7,33.5L639.16,457.58z M684.71,307.17
	c0-6.97-5.65-12.63-12.63-12.63c-6.97,0-12.63,5.65-12.63,12.63c0,6.97,5.65,12.63,12.63,12.63
	C679.06,319.79,684.71,314.14,684.71,307.17z M569.92,294.54c-6.97,0-12.63,5.65-12.63,12.63c0,6.97,5.65,12.63,12.63,12.63
	s12.63-5.65,12.63-12.63C582.54,300.19,576.89,294.54,569.92,294.54z M710.01,324.98c-6.97,0-12.63,5.65-12.63,12.63
	s5.65,12.63,12.63,12.63c6.97,0,12.63-5.65,12.63-12.63S716.98,324.98,710.01,324.98z M531.99,324.98
	c-6.97,0-12.63,5.65-12.63,12.63s5.65,12.63,12.63,12.63c6.97,0,12.63-5.65,12.63-12.63S538.97,324.98,531.99,324.98z
	 M895.93,725.13c0.01-0.16,0.02-0.32,0.02-0.48c0-3.31-2.55-6.11-5.91-6.36c-0.17-0.01-0.33-0.02-0.49-0.02
	c-3.3,0-6.1,2.55-6.35,5.9c-0.26,3.52,2.37,6.58,5.88,6.85c0.16,0.01,0.33,0.01,0.49,0.01c1.65,0,3.18-0.64,4.32-1.69
	C895.05,728.28,895.81,726.8,895.93,725.13z M825.47,992.08c-2.4,0-4.7,1.36-5.78,3.67c-1.5,3.19-0.13,6.99,3.06,8.49
	c0.88,0.41,1.81,0.6,2.71,0.6c1.2,0,2.37-0.34,3.38-0.97c1.01-0.62,1.85-1.54,2.4-2.7c0.42-0.88,0.61-1.8,0.61-2.71
	c0-2.39-1.36-4.69-3.67-5.78C827.3,992.28,826.38,992.08,825.47,992.08z M748.69,1097.84c0.94,0.5,1.99,0.77,3.05,0.77
	c1.16,0,2.32-0.32,3.38-0.97c1.93-1.21,3-3.29,3-5.41c0-1.16-0.32-2.32-0.97-3.38c-1.21-1.93-3.29-3-5.42-3
	c-1.16,0-2.32,0.31-3.37,0.97c-2.99,1.86-3.9,5.8-2.03,8.79C746.93,1096.58,747.75,1097.33,748.69,1097.84z M809.68,1028.52
	c-1.05-0.66-2.22-0.97-3.37-0.97c-2.13,0-4.21,1.06-5.42,3c-1.87,2.99-0.95,6.93,2.04,8.79c1.05,0.65,2.22,0.97,3.37,0.97
	c1.06,0,2.12-0.26,3.06-0.77c0.93-0.51,1.76-1.26,2.36-2.23c0.66-1.05,0.97-2.22,0.97-3.37
	C812.69,1031.81,811.63,1029.73,809.68,1028.52z M843.2,955.25c-0.73-0.27-1.48-0.4-2.22-0.4c-2.59,0-5.03,1.59-5.99,4.16
	c-1.22,3.31,0.46,6.98,3.77,8.2c0.73,0.27,1.48,0.4,2.22,0.4c1.3,0,2.55-0.4,3.61-1.11c1.05-0.73,1.9-1.76,2.38-3.05
	c0.27-0.73,0.4-1.48,0.4-2.22C847.37,958.64,845.78,956.21,843.2,955.25z M864.29,890.38c1.44,0,2.81-0.49,3.9-1.34
	c1.1-0.85,1.93-2.07,2.29-3.53c0.12-0.51,0.18-1.01,0.18-1.52c0-2.88-1.96-5.48-4.87-6.19c-0.51-0.13-1.02-0.19-1.52-0.19
	c-2.87,0-5.47,1.96-6.19,4.87c-0.84,3.43,1.26,6.88,4.68,7.72C863.28,890.31,863.79,890.38,864.29,890.38z M534.77,917.61
	c0.42,1.38,1.26,2.51,2.34,3.3c1.07,0.79,2.39,1.24,3.76,1.24c0.62,0,1.24-0.09,1.85-0.28c2.75-0.83,4.53-3.37,4.53-6.11
	c0-0.61-0.09-1.23-0.28-1.85c-0.83-2.75-3.37-4.54-6.11-4.54c-0.61,0-1.23,0.09-1.85,0.28c-2.76,0.83-4.54,3.37-4.54,6.11
	C534.49,916.37,534.58,917,534.77,917.61C534.77,917.61,534.77,917.61,534.77,917.61z M884.19,809.71c1.12-0.95,1.93-2.3,2.18-3.87
	c0.05-0.34,0.08-0.68,0.08-1.01c0-3.09-2.24-5.8-5.39-6.29c-0.34-0.05-0.67-0.08-1.01-0.08c-3.08,0-5.79,2.24-6.29,5.39
	c-0.55,3.48,1.82,6.75,5.31,7.29c0.34,0.05,0.67,0.08,1,0.08C881.61,811.22,883.06,810.66,884.19,809.71z M872.99,850.96
	c1.49,0,2.9-0.52,4.02-1.43c1.12-0.91,1.93-2.19,2.23-3.71c0.09-0.42,0.13-0.84,0.13-1.26c0-2.98-2.11-5.64-5.14-6.25
	c-0.42-0.08-0.84-0.12-1.25-0.12c-2.98,0-5.65,2.1-6.25,5.14c-0.68,3.45,1.56,6.81,5.02,7.5
	C872.16,850.92,872.58,850.96,872.99,850.96z M710.56,1111.69c1.12,0.93,2.55,1.47,4.07,1.47c0.37,0,0.75-0.03,1.13-0.1
	c3.08-0.56,5.25-3.24,5.25-6.27c0-0.38-0.03-0.75-0.1-1.14c-0.55-3.09-3.24-5.25-6.27-5.25c-0.37,0-0.75,0.03-1.13,0.1
	c-3.47,0.62-5.78,3.94-5.16,7.41C708.63,1109.45,709.43,1110.76,710.56,1111.69z M851.91,929.07c0.61,0.18,1.23,0.27,1.83,0.27
	c1.38,0,2.69-0.45,3.78-1.24c1.08-0.79,1.93-1.93,2.34-3.31c0.18-0.61,0.27-1.22,0.27-1.83c0-2.75-1.79-5.28-4.55-6.11
	c-0.61-0.18-1.22-0.27-1.83-0.27c-2.75,0-5.29,1.79-6.11,4.55C846.62,924.49,848.54,928.05,851.91,929.07z M547.62,956.25
	c0.47,1.29,1.32,2.34,2.37,3.06s2.32,1.12,3.62,1.12c0.73,0,1.46-0.12,2.19-0.39c3.31-1.21,5.01-4.88,3.8-8.18v-0.01
	c-0.95-2.58-3.39-4.18-6-4.18c-0.73,0-1.46,0.13-2.19,0.39C548.1,949.28,546.4,952.94,547.62,956.25z M584.12,1032.86
	c0.95,0.54,2.04,0.82,3.13,0.82c1.1,0,2.21-0.28,3.22-0.88c2.03-1.18,3.16-3.31,3.16-5.5c0-1.1-0.28-2.21-0.88-3.22
	c-1.19-2.03-3.32-3.16-5.51-3.16c-1.09,0-2.2,0.28-3.22,0.87c-3.04,1.78-4.06,5.69-2.28,8.73
	C582.34,1031.53,583.17,1032.32,584.12,1032.86z M642.69,1083.26c-1.13-0.83-2.45-1.24-3.76-1.24c-1.97,0-3.9,0.91-5.16,2.61
	c-2.08,2.84-1.46,6.84,1.38,8.92c1.14,0.83,2.46,1.24,3.77,1.24c0.98,0,1.96-0.23,2.85-0.66c0.89-0.44,1.68-1.1,2.3-1.95
	C646.15,1089.34,645.54,1085.35,642.69,1083.26z M673.31,1111.9C673.32,1111.91,673.32,1111.91,673.31,1111.9
	c0.52,0.13,1.03,0.19,1.54,0.19c1.43,0,2.79-0.48,3.9-1.33c1.1-0.85,1.93-2.06,2.29-3.51c0.13-0.52,0.19-1.03,0.19-1.54
	c0-2.87-1.94-5.47-4.84-6.19c-0.52-0.13-1.03-0.19-1.54-0.19c-2.86,0-5.47,1.94-6.19,4.85c-0.13,0.52-0.19,1.03-0.19,1.54
	C668.46,1108.57,670.41,1111.18,673.31,1111.9z M565.41,996.82c1.01,0.64,2.2,0.99,3.42,0.99c0.88,0,1.77-0.18,2.63-0.57
	c2.36-1.07,3.75-3.39,3.75-5.81c0-0.88-0.18-1.78-0.57-2.63c-1.07-2.36-3.39-3.75-5.82-3.75c-0.88,0-1.77,0.18-2.63,0.57
	c-3.21,1.46-4.64,5.24-3.18,8.45C563.55,995.24,564.39,996.17,565.41,996.82z M891.95,765.6c0.03-0.26,0.05-0.51,0.05-0.76
	c0-3.19-2.38-5.95-5.63-6.33c-0.25-0.03-0.51-0.05-0.76-0.05c-3.19,0-5.95,2.38-6.33,5.63c-0.42,3.5,2.08,6.67,5.58,7.09
	c0.26,0.03,0.51,0.04,0.77,0.04c0.01,0,0.01,0,0.01,0C888.81,771.22,891.56,768.84,891.95,765.6z M975.11,610.97
	c-5.31,33.93-7.65,36.88-9.71,40.12c-3.24,2.05-6.19,4.4-40.12,9.71c33.93,5.31,36.88,7.65,40.12,9.71
	c2.05,3.24,4.4,6.19,9.71,40.12c5.31-33.93,7.65-36.88,9.71-40.12c3.24-2.05,6.19-4.4,40.12-9.71c-33.93-5.31-36.88-7.65-40.12-9.71
	C982.76,647.85,980.41,644.9,975.11,610.97z M620.94,191.65c-8.06,51.54-11.62,56.03-14.74,60.95c-4.92,3.12-9.41,6.68-60.96,14.74
	c51.55,8.06,56.03,11.62,60.96,14.74c3.12,4.92,6.68,9.41,14.74,60.95c8.06-51.54,11.62-56.03,14.75-60.96
	c4.92-3.12,9.41-6.68,60.96-14.74c-51.54-8.06-56.03-11.62-60.96-14.74C632.57,247.68,629,243.19,620.94,191.65z M266.89,710.62
	c5.31-33.93,7.65-36.88,9.71-40.12c3.24-2.05,6.19-4.4,40.12-9.71c-33.93-5.31-36.88-7.65-40.12-9.71
	c-2.05-3.24-4.4-6.19-9.71-40.12c-5.31,33.93-7.65,36.88-9.71,40.12c-3.24,2.05-6.19,4.4-40.12,9.71
	c33.93,5.31,36.88,7.65,40.12,9.71C259.24,673.74,261.59,676.69,266.89,710.62z M621,1469.52c-5.31,33.93-7.65,36.88-9.71,40.12
	c-3.24,2.05-6.19,4.4-40.12,9.71c33.93,5.31,36.88,7.65,40.12,9.71c2.05,3.24,4.4,6.19,9.71,40.12c5.31-33.93,7.65-36.88,9.71-40.12
	c3.24-2.05,6.19-4.4,40.12-9.71c-33.93-5.31-36.88-7.65-40.12-9.71C628.65,1506.4,626.31,1503.44,621,1469.52z M370.09,912.69
	c0.01,0,0.01,0,0.02,0c-0.02-0.09-0.05-0.18-0.07-0.27c-15.99-102.4-23.97-203.37-26.66-268.27c-1.02-9.73-1.56-19.6-1.56-29.6
	c0-112.57,66.64-209.57,162.61-253.74c-49.49,36.04-81.66,94.42-81.66,160.33c0,109.48,88.75,198.23,198.23,198.23
	s198.23-88.75,198.23-198.23c0-65.9-32.17-124.29-81.66-160.33c95.97,44.17,162.61,141.16,162.61,253.74
	c0,21.85-2.52,43.12-7.27,63.53c0,0,0,0,0.01,0c1.13,0.29,2.14,0.87,2.94,1.67c1.16,1.15,1.87,2.75,1.87,4.51s-0.71,3.36-1.87,4.51
	s-2.75,1.87-4.51,1.87c-0.56,0-1.1-0.07-1.61-0.21h0c-15.38,54.58-46.96,102.38-89.2,137.89c0,0.01,0,0.02,0,0.03
	c-1.85,28.76-4.13,59.21-6.9,90.61c10.78,2.05,18.94,11.53,18.94,22.91c0,12.88-10.43,23.32-23.31,23.33
	c-3.2,31.73-6.9,64.01-11.13,96.11c1.18-0.99,2.64-1.49,4.1-1.49c1.53,0,3.06,0.54,4.29,1.65c1.39,1.26,2.1,2.99,2.1,4.73
	c0,1.52-0.54,3.06-1.65,4.28c-0.63,0.7-1.38,1.22-2.18,1.57c-0.81,0.35-1.68,0.53-2.55,0.53c-1.53,0-3.06-0.55-4.29-1.66
	c-0.37-0.33-0.68-0.69-0.95-1.08c-2.39,17.71-4.94,35.36-7.67,52.8c-15.58,99.68-34.59,178.67-56.52,234.79
	c-26.47,67.72-57.35,102.07-91.81,102.07c-31.77,0-60.87-33.09-86.51-98.38c0-0.01,0-0.01-0.01-0.02c-1.23,0.31-2.52,0.49-3.85,0.49
	c-8.84,0-16.01-7.17-16.01-16.01c0-6.35,3.71-11.83,9.08-14.41c0-0.01,0-0.01-0.01-0.02c-2.16-6.5-4.29-13.23-6.39-20.21
	c0,0,0-0.01,0-0.01c-0.29,0.02-0.58,0.04-0.88,0.04c-6.97,0-12.63-5.65-12.63-12.63c0-4.84,2.72-9.03,6.71-11.15
	c-6.03-22.12-11.82-46.29-17.34-72.43c0,0,0-0.01,0-0.01c-22.84-4.64-43.93-27.52-62.79-68.24
	c-17.75-38.32-33.71-92.57-47.45-161.24c-0.02-0.1-0.02-0.19-0.03-0.29c-0.01,0-0.01,0-0.02,0c-0.72,0.05-1.45,0.07-2.17,0.07
	c-4.65,0-9.22-0.88-13.48-2.55c-4.27-1.67-8.22-4.12-11.63-7.25c-4.37,0.82-9.79,1.59-14.88,1.59c-7.09,0-13.53-1.48-15.5-6.35
	c-3.39-8.39,9.63-18.68,18.52-24.52v-0.01c0.24-4.19,1.21-8.34,2.9-12.31c3.86-9.08,11.02-16.12,20.18-19.82
	C367.9,913.41,368.99,913.03,370.09,912.69z M351.5,970.83c-2.06-2.64-3.8-5.62-5.11-8.88c-1.3-3.22-2.14-6.55-2.5-9.93
	c-11.02,7.73-15.05,13.9-13.96,16.58C331.01,971.28,338.2,972.92,351.5,970.83z M357.25,969.77c8.84-1.86,18.67-4.92,28.55-8.91
	c9.87-3.98,19.06-8.6,26.73-13.41c-0.07-3.77-0.82-7.58-2.31-11.28c-1.59-3.94-3.9-7.47-6.8-10.41c-2.9-2.96-6.37-5.33-10.3-6.99
	c-4.01-1.71-8.23-2.56-12.46-2.56c-4.04,0-8.08,0.77-11.95,2.33c-7.9,3.2-14.07,9.27-17.4,17.11c-3.34,7.84-3.41,16.5-0.23,24.4
	C352.58,963.75,354.69,967.01,357.25,969.77z M414.93,934.27c1.32,3.27,2.14,6.6,2.49,9.94c11.02-7.73,15.05-13.91,13.97-16.58
	c-1.09-2.69-8.28-4.34-21.57-2.24C411.9,928.07,413.62,931.04,414.93,934.27z M392.6,977.68c10.54-4.26,17.57-13.54,19.45-23.99
	v-0.01c0-0.01,0-0.01,0-0.01c-7.23,4.26-15.53,8.33-24.34,11.88c-8.83,3.57-17.63,6.41-25.77,8.36c0,0,0.01,0,0.01,0.01
	C370.54,980.13,382.06,981.94,392.6,977.68z M793.07,925.36c-1.23-0.29-2.51-0.44-3.82-0.44c-0.06,0-0.12,0-0.18,0.01
	c-9.28,0.09-16.77,7.64-16.77,16.95c0,8.21,5.84,15.07,13.6,16.63c1.08,0.21,2.2,0.33,3.35,0.33c0.22,0,0.44-0.01,0.67-0.01
	c9.05-0.35,16.29-7.8,16.29-16.94C806.2,933.83,800.59,927.09,793.07,925.36z M643.52,892.82c-4.24,45.21-10.52,91.79-19.38,134.41
	c-2.42,11.66-4.99,22.81-7.7,33.44c-0.02,0.95-0.26,1.89-0.7,2.75c0,0,0,0,0,0c-10.2,39.35-22.36,71.42-36.27,95.63
	c-21.59,37.56-47.68,56.61-77.53,56.61c-1.51,0-3.01-0.09-4.51-0.24c0,0,0,0,0,0c5.39,25.41,11.03,48.92,16.89,70.49
	c0,0,0,0.01,0,0.01c0.68-0.11,1.38-0.19,2.09-0.19c6.97,0,12.63,5.65,12.63,12.63c0,5.27-3.23,9.78-7.81,11.67c0,0,0,0,0,0
	c2.07,6.85,4.16,13.47,6.28,19.85c0,0,0,0.01,0,0.01c1.01-0.2,2.05-0.31,3.12-0.31c8.84,0,16.01,7.17,16.01,16.01
	c0,6.09-3.4,11.38-8.4,14.09c0,0,0,0,0,0c24.97,63.57,52.8,95.8,82.76,95.8c32.63,0,62.26-33.48,88.06-99.5
	c21.83-55.85,40.76-134.56,56.3-233.94c8.09-51.73,14.66-105.2,19.9-157.17c-10.98-1.89-19.34-11.46-19.34-22.99
	c0-12.88,10.45-23.33,23.33-23.33c0.13,0,0.26,0,0.39,0.01c2.64-29.97,4.84-59.09,6.64-86.69c0-0.01,0-0.02,0-0.03
	C753.83,866.12,701.15,888.22,643.52,892.82z M446.98,832.85c0,0.01,0,0.02,0,0.02c6.6,88.78,17.46,193.1,33.1,289.15
	c5.06,31.08,10.4,60.15,16.02,87.14c1.93,0.3,3.88,0.46,5.83,0.46c27.54,0,51.86-18.03,72.29-53.58
	c13.08-22.77,24.61-52.72,34.4-89.34c0,0,0,0,0,0c-0.42-0.1-0.83-0.24-1.24-0.42c-0.85-0.39-1.62-0.98-2.25-1.75
	c-2.23-2.73-1.83-6.75,0.89-8.98c1.19-0.97,2.62-1.44,4.04-1.44c0.59,0,1.17,0.08,1.74,0.24c2.24-9.08,4.39-18.52,6.43-28.35
	c8.75-42.09,14.97-88.08,19.19-132.77c-5.43,0.31-10.9,0.49-16.41,0.49c-29.84,0-58.57-4.7-85.53-13.37c0,0,0,0.01-0.01,0.02
	c-0.85,1.28-2.16,2.26-3.76,2.66c-0.52,0.13-1.04,0.19-1.56,0.19c-1.43,0-2.79-0.48-3.89-1.32c-1.09-0.85-1.93-2.06-2.29-3.5
	c-0.17-0.7-0.23-1.4-0.17-2.07c0,0,0-0.01,0-0.01C495.79,865.92,469.91,851.16,446.98,832.85z M376.01,911.43
	c6.42-0.83,12.98,0.06,19.09,2.66c3.97,1.68,7.55,4,10.63,6.84c10.44-1.97,26.96-3.6,30.35,4.79c0.38,0.93,0.54,1.87,0.54,2.84
	c0,7.76-11.19,16.5-19.08,21.7c-0.82,13.8-9.39,26.6-23.05,32.12c-1.85,0.75-3.74,1.34-5.63,1.77
	c27.26,136.19,62.68,213.1,102.93,224.1c-5.5-26.56-10.73-55.11-15.69-85.58c-15.87-97.52-26.84-203.58-33.41-293.29
	c0,0,0-0.01,0-0.01c-43.29-35.98-75.53-84.79-90.88-140.61C355.77,750.65,363.39,830.58,376.01,911.43z M1229.16,113.52v1772.96
	c0,30.2-11.84,58.67-33.34,80.18c-21.5,21.5-49.98,33.34-80.17,33.34H126.36c-30.2,0-58.67-11.84-80.17-33.34
	c-21.5-21.5-33.34-49.98-33.34-80.18V113.52c0-30.2,11.84-58.67,33.34-80.17S96.16,0,126.36,0h989.28
	c30.2,0,58.67,11.84,80.17,33.34S1229.16,83.32,1229.16,113.52z M1223.11,113.52c0-59.26-48.21-107.47-107.47-107.47H126.36
	C67.1,6.05,18.89,54.26,18.89,113.52v1772.96c0,59.26,48.21,107.47,107.47,107.47h989.28c59.26,0,107.47-48.21,107.47-107.47V113.52
	z M59.83,1801.74c1.67,0,3.02-1.36,3.01-3.03c-0.97-381.25-0.89-768.33-0.81-1142.65c0.03-144.04,0.06-292.98,0.03-439.56
	c0-1.67-1.35-3.02-3.02-3.02c-1.67,0-3.02,1.35-3.02,3.02c0.03,146.58,0,295.52-0.03,439.56c-0.08,374.33-0.16,761.41,0.81,1142.67
	C56.8,1800.39,58.15,1801.74,59.83,1801.74C59.82,1801.74,59.82,1801.74,59.83,1801.74z M1031.01,1947.29
	c-280.3,4.74-559.73,3.36-819.94,1.16c-0.01,0-0.02,0-0.03,0c-1.66,0-3.01,1.34-3.02,3c-0.01,1.67,1.33,3.03,3,3.05
	c132.22,1.12,269.4,2.02,409.14,2.02c135.31,0,273.03-0.85,410.95-3.18c1.67-0.03,3-1.4,2.97-3.07
	C1034.05,1948.59,1032.71,1947.25,1031.01,1947.29z M211.02,50.37c132.25,1.12,269.42,2.02,409.18,2.02
	c135.29,0,273.02-0.85,410.91-3.18c1.67-0.03,3-1.4,2.97-3.07c-0.03-1.67-1.37-3.01-3.07-2.97c-280.28,4.74-559.72,3.36-819.94,1.16
	c-0.01,0-0.02,0-0.03,0c-1.66,0-3.01,1.34-3.02,3C208.01,49,209.35,50.36,211.02,50.37z M1185.31,203.7
	c-0.01-1.66-1.36-3.01-3.02-3.01c0,0-0.01,0-0.02,0c-1.67,0.01-3.02,1.37-3.01,3.04c0.67,126.34,0.67,254.48,0.67,378.41
	c1.53,461.72,1.1,848.88-1.34,1218.42c-0.01,1.67,1.33,3.03,3,3.04c0.01,0,0.01,0,0.02,0c1.66,0,3.01-1.34,3.02-3
	c2.44-369.56,2.87-756.74,1.34-1218.47C1185.98,458.21,1185.98,330.06,1185.31,203.7z M525.62,1730.18
	c-0.16-15.03-0.31-30.06-0.47-45.09c-0.23-8.24,1.05-9.1,11.16-9.3c0-1.31,0-1.97,0-3.28c-8.23-0.79-12.34-1.23-20.55-2.2
	c-9.21,18.6-18.47,37.18-27.76,55.74c-8.65-21.22-17.25-42.46-25.8-63.72c-8.11-1.46-12.16-2.23-20.24-3.87c0,1.31,0,1.97,0,3.28
	c10.22,3.02,11.39,5.17,10.93,11.18c-1.22,17.09-1.53,34.69-3.84,51.46c-0.84,6.08-3.72,7.04-10.46,6.34c0,1.31,0,1.97,0,3.28
	c9.18,1.85,18.36,3.6,27.57,5.27c0-1.31,0-1.97,0-3.28c-7.93-2.21-10.93-3.82-10.95-10.31c-0.06-17.15,1.26-34.79,2.1-52.16
	c8.81,22.8,17.79,45.57,26.01,68.59c1.21,0.19,1.82,0.28,3.04,0.47c9.06-20.75,19.47-40.93,29.16-61.39
	c-0.04,15.95-0.08,31.89-0.12,47.84c0.12,12.56-0.24,13.28-9.85,12.97c0,1.31,0,1.97,0,3.28c10.38,1.35,20.79,2.52,31.21,3.51
	c0-1.31,0-1.97,0-3.28C526.44,1743.47,526.09,1742.78,525.62,1730.18z M623.82,1713.69c0.31,21.92-16.61,40.61-38.9,40.15
	c-22-0.45-39.06-20.68-39.09-41.65c-0.02-21.38,17.82-39.27,39.79-37.96C606.45,1675.47,623.52,1692.68,623.82,1713.69z
	 M611.79,1716.91c-0.06-17.22-8.74-37.56-28.53-38.45c-17.33-0.77-25.3,16.63-25.2,31.51c0.11,16.91,9.13,38.56,28.74,39.48
	C604.85,1750.31,611.85,1732.02,611.79,1716.91z M714.83,1709.01c0.23,22.13-16.3,42.52-38.81,44.05
	c-21.76,1.48-39.31-16.23-39.12-37.72c0.18-21.81,17.69-40.98,39.83-41.96C697.36,1672.46,714.62,1688.21,714.83,1709.01z
	 M702.85,1713.43c-0.02-16.8-8.68-36.78-28.48-35.58c-17.31,1.05-25.26,18.81-25.21,34.04c0.05,16.35,9.12,37.74,28.75,36.59
	C695.9,1747.45,702.87,1728.93,702.85,1713.43z M778.16,1666.51c9.33-1.03,11.92,0.16,12.35,5.27c0.29,3.4,0.58,8.45,0.58,19.36
	c0,9.58,0,19.16,0,28.74c-16.68-16.85-33.18-33.88-49.51-51.07c-7.03,0.93-10.55,1.36-17.59,2.15c0,1.31,0,1.97,0,3.28
	c5.75-0.06,8.21,0.43,10.44,2.99c2.02,2.31,2.34,4.16,2.34,7.45c0,9.97,0,19.94,0,29.91c0,10.67-0.26,16-0.59,19.78
	c-0.5,5.77-3.28,7.94-10.55,9.36c0,1.31,0,1.97,0,3.28c9.51-1.14,18.99-2.37,28.47-3.7c0-1.31,0-1.97,0-3.28
	c-8.42,0.53-11.27-0.97-11.59-6.83c-0.18-3.32-0.59-8.6-0.59-19.16c0-9.77,0-19.55,0-29.32c16.49,17.93,33.14,35.7,49.98,53.31
	c1.77-0.34,2.65-0.51,4.42-0.85c0-15.68,0-31.36,0-47.04c0-10.91,0.17-15.94,0.35-19.66c0.25-5.38,2.79-7.09,10.22-9.45
	c0-1.31,0-1.97,0-3.28c-9.57,1.93-19.13,3.75-28.74,5.47C778.16,1664.54,778.16,1665.2,778.16,1666.51z M1115.9,1696
	c4.93,6.82,17.7,25.34,17.7,34.19c0,1.07-0.57,2.06-1.49,2.61c-0.47,0.28-1,0.42-1.53,0.42c-0.51,0-1.02-0.13-1.47-0.38
	c-42.23-23.59-85.29-18.79-122.32-10.22c3.89,6.74,6.84,13.93,6.84,20.25c0,1.16-0.67,2.22-1.71,2.73
	c-27.37,13.14-54.95,17.95-82.47,17.95c-22.99,0.01-45.94-3.35-68.72-7.99c-77.7,16.26-157.16,24.5-236.66,24.5
	c-0.01,0-0.01,0-0.01,0c-80.52,0-160.99-8.44-239.65-25.13c-23.77,4.97-47.75,8.63-71.75,8.63c-27.52,0-55.09-4.8-82.46-17.95
	c-1.05-0.5-1.72-1.57-1.72-2.73c0-6.35,2.71-13.6,6.26-20.37c-36.83-8.48-79.69-13.21-121.85,10.33c-0.46,0.26-0.97,0.38-1.47,0.38
	c-0.53,0-1.06-0.14-1.53-0.42c-0.92-0.54-1.49-1.53-1.49-2.61c0-8.84,12.77-27.37,17.7-34.19c-5.4-4.52-17.7-15.86-17.7-25.26
	c0-1.1,0.59-2.1,1.55-2.64c42.7-23.85,85.06-19.94,121.43-12c-1.76-5.75-2.9-11-2.9-14.97c0-1.04,0.54-2.01,1.42-2.56
	c0.88-0.56,1.98-0.62,2.92-0.17c35.86,17.22,72.36,19.62,108.76,15.67v-31.4c0-2.71,1.18-5.13,3.32-6.81
	c2.93-2.3,7.29-2.96,11.96-1.82c30.21,7.23,60.72,13.22,91.42,17.95c56.96-13.24,115.31-22.43,172.76,5.11
	c58.26-27.92,117.43-18.09,175.15-4.55c0.01,0,0.01,0,0.01,0c31.93-4.82,63.66-10.98,95.07-18.51c4.66-1.14,9.02-0.48,11.95,1.82
	c2.14,1.68,3.32,4.1,3.32,6.81v31.99c34.41,3.05,68.87,0.01,102.75-16.26c0.93-0.45,2.04-0.39,2.92,0.17
	c0.88,0.55,1.42,1.52,1.42,2.56c0,3.99-1.27,9.25-3.22,15.02c36.48-7.99,78.93-11.92,121.65,11.94c0.96,0.53,1.55,1.54,1.55,2.64
	C1133.6,1680.14,1121.29,1691.48,1115.9,1696z M625.23,1645.44c51.56-0.05,103.11-3.55,154.18-10.48
	c-51.24-11.13-103.35-16.87-154.18,6.86V1645.44z M465.01,1634.45c50.29,7,101.04,10.65,151.83,10.96v-3.59
	C566.79,1618.45,515.49,1623.66,465.01,1634.45z M237.84,1717.01c4.66-7.7,9.79-14.18,12.17-17.06
	c-2.78-5.46-10.96-21.97-16.4-37.15c-35.54-8.08-77.22-12.93-118.96,9.61c1.56,6.41,11.18,15.83,17.43,20.66
	c1.31,1.01,1.56,2.88,0.57,4.21c-5.42,7.23-13.29,19.11-16.63,27.05C158.63,1703.13,201.24,1708.43,237.84,1717.01z M369.56,1751.66
	c-4.77-1.07-9.53-2.18-14.29-3.32c-7.69-1.88-13.7-8.12-13.7-14.21v-73.94c-9.63,1.03-19.27,1.63-28.92,1.63
	c-25.9,0-51.84-4.26-77.61-15.71c0.68,3.76,1.98,8.22,3.62,12.93c0.04,0.1,0.08,0.21,0.11,0.32c6.29,17.93,17.37,39.31,17.53,39.61
	c0.58,1.1,0.42,2.44-0.4,3.38c-0.2,0.24-19.77,22.85-21.28,38.65C279.1,1761.73,324.57,1759.91,369.56,1751.66z M891.27,1741.81
	c4.9-1.2,8.55-5.04,8.55-7.68v-74.02V1654v-31.32c0-0.65-0.23-1.12-0.75-1.53c-0.99-0.78-3.14-1.34-6.22-0.58
	c-26.29,6.3-52.81,11.67-79.49,16.09c-5.19,0.87-10.38,1.69-15.58,2.48c-57.06,8.68-114.8,13.08-172.56,13.14h-1.16
	c-0.01,0-0.01,0-0.01,0h-1.18c-1.24,0-2.47-0.01-3.7-0.01c-0.79,0-1.56-0.01-2.34-0.01c-56.98-0.36-113.91-4.94-170.16-13.67
	c-5.17-0.81-10.33-1.65-15.48-2.52c-25.48-4.31-50.8-9.48-75.92-15.49c-1.03-0.25-1.97-0.36-2.79-0.36c-1.63,0-2.79,0.42-3.45,0.94
	c-0.52,0.4-0.75,0.87-0.75,1.53v30.6v6.13v74.72c0,2.63,3.66,6.48,8.56,7.68c9.69,2.32,19.41,4.51,29.15,6.57
	c4.84,1.03,9.67,2.02,14.52,2.98c145.99,28.9,297.71,29.12,443.8,0.64c4.92-0.96,9.84-1.96,14.75-2.98
	C869.84,1746.77,880.58,1744.37,891.27,1741.81z M983.9,1702.46c-0.94-0.97-1.12-2.44-0.44-3.61c0.17-0.3,12.35-21.5,19.33-39.35
	c0.05-0.19,0.12-0.36,0.21-0.53c1.81-4.67,3.25-9.1,4-12.84c-33.36,14.81-66.99,17.57-100.46,14.65v73.35
	c0,6.09-6.01,12.33-13.68,14.21l-0.02,0.01c-5.64,1.35-11.29,2.65-16.94,3.92c43.9,7.72,88.2,8.95,131.57-11.27
	C1006.01,1727.92,990.18,1708.95,983.9,1702.46z M1127.34,1672.41c-41.86-22.6-83.73-17.66-119.44-9.5
	c-5.99,15.06-14.95,31.41-18.1,37.01c2.71,2.96,8.45,9.51,13.61,17.27c36.86-8.71,79.77-14.15,122.55,7.15
	c-3.34-7.95-11.21-19.83-16.63-27.06c-0.99-1.32-0.74-3.2,0.57-4.21C1116.16,1688.24,1125.78,1678.82,1127.34,1672.41z"/>
</svg>
