<?xml version="1.0" encoding="utf-8"?>
<!-- Generator: Adobe Illustrator 24.0.2, SVG Export Plug-In . SVG Version: 6.00 Build 0)  -->
<svg version="1.1" id="Слой_1" xmlns="http://www.w3.org/2000/svg" xmlns:xlink="http://www.w3.org/1999/xlink" x="0px" y="0px"
	 viewBox="0 0 2000 2000" style="enable-background:new 0 0 2000 2000;" xml:space="preserve">
<path d="M1136.41,1074.64c0,75.43-61.15,136.58-136.58,136.58c-75.43,0-136.58-61.15-136.58-136.58
	c0-75.43,61.15-136.58,136.58-136.58C1075.27,938.07,1136.41,999.21,1136.41,1074.64z M1000,688.78l-8.34,108.27l-8.34,108.27H1000
	h16.67l-8.34-108.27L1000,688.78z M991.66,1352.24l8.34,108.27l8.34-108.27l8.34-108.27H1000h-16.67L991.66,1352.24z
	 M830.68,1091.32v-16.67v-16.67l-108.27,8.34l-108.27,8.34l108.27,8.34L830.68,1091.32z M1169.32,1057.97v16.67v16.67l108.27-8.34
	l108.27-8.34l-108.27-8.34L1169.32,1057.97z M868.48,966.71l11.79-11.79l11.79-11.79l-82.46-70.67l-82.46-70.67l70.67,82.46
	L868.48,966.71z M1131.52,1182.58l-11.79,11.79l-11.79,11.79l82.46,70.67l82.46,70.67l-70.67-82.46L1131.52,1182.58z
	 M880.27,1194.37l-11.79-11.79l-70.67,82.46l-70.67,82.46l82.46-70.67l82.46-70.67L880.27,1194.37z M1119.73,954.92l11.79,11.79
	l70.67-82.46l70.67-82.46l-82.46,70.67l-82.46,70.67L1119.73,954.92z M890.25,819.53l32.03,103.76l15.51-6.13l15.51-6.13
	l-47.54-97.64l-47.54-97.64L890.25,819.53z M1046.7,1238.25l47.54,97.64l47.54,97.64l-32.03-103.76l-32.03-103.76l-15.51,6.13
	L1046.7,1238.25z M848.65,1152.36l-6.13-15.51l-6.13-15.51l-97.64,47.54l-97.64,47.54l103.76-32.03L848.65,1152.36z M1151.35,996.92
	l6.13,15.51l6.13,15.51l97.64-47.54l97.64-47.54l-103.76,32.03L1151.35,996.92z M645.98,921.13L742,971.86l96.02,50.72l6.63-15.3
	l6.63-15.3l-102.65-35.43L645.98,921.13z M1161.98,1126.71l-6.63,15.3l-6.63,15.3l102.65,35.43l102.65,35.43l-96.02-50.72
	L1161.98,1126.71z M881.92,1326.01l-35.43,102.65l50.72-96.02l50.72-96.02l-15.3-6.63l-15.3-6.63L881.92,1326.01z M1067.36,919.3
	l15.3,6.63l35.43-102.65l35.43-102.65l-50.72,96.02l-50.72,96.02L1067.36,919.3z M1000.23,248.58c55.78,0,101-45.22,101-101
	c0-55.78-45.22-101-101-101c-55.78,0-101,45.22-101,101C899.23,203.36,944.45,248.58,1000.23,248.58z M1354.66,331.71
	c27.69,15.83,59.71,17.09,87.24,6.23c-3.45-21.89,0.22-45.06,12.08-65.79c11.86-20.74,29.96-35.65,50.57-43.78
	c-4.61-29.23-21.94-56.19-49.63-72.02c-48.42-27.69-110.13-10.87-137.81,37.55C1289.43,242.33,1306.24,304.03,1354.66,331.71z
	 M1813.48,480.25c-3.04-20.36-12.3-39.98-27.83-55.78c-37.54-38.2-97.98-40.2-137.95-5.69c-0.85,0.42-1.66,0.97-2.38,1.66
	c-0.61,0.58-1.12,1.23-1.54,1.91c-0.31,0.3-0.64,0.58-0.95,0.89c-39.78,39.1-40.33,103.05-1.23,142.83
	c15.53,15.8,34.99,25.39,55.29,28.79c-4.62-30.89,5.08-63.48,29.06-87.05C1749.92,484.24,1782.67,475.1,1813.48,480.25z
	 M1861.47,779.85c38.55-11.85,78.75,0.52,104.27,28.43c2.08-14.34,1.11-29.35-3.43-44.12c-16.39-53.32-72.9-83.25-126.22-66.86
	c-53.32,16.39-83.26,72.9-66.86,126.22c4.54,14.77,12.17,27.74,21.95,38.43C1796.61,824.53,1822.92,791.7,1861.47,779.85z
	 M1899,1011.98c-55.78,0-101,45.22-101,101c0,8.39,1.04,16.53,2.97,24.32c10.89-44.03,50.64-76.68,98.03-76.68
	s87.15,32.65,98.03,76.68c1.93-7.79,2.97-15.93,2.97-24.32C2000,1057.2,1954.78,1011.98,1899,1011.98z M546.02,272.15
	c11.86,20.74,15.53,43.9,12.08,65.79c27.53,10.86,59.55,9.6,87.24-6.23c48.42-27.69,65.24-89.39,37.55-137.81
	c-27.69-48.42-89.39-65.24-137.81-37.55c-27.69,15.83-45.02,42.79-49.63,72.02C516.07,236.5,534.17,251.42,546.02,272.15z
	 M358.41,566.07c39.1-39.78,38.55-103.73-1.23-142.83c-39.78-39.1-103.73-38.55-142.83,1.23c-15.53,15.8-24.79,35.42-27.83,55.78
	c30.8-5.15,63.56,3.99,87.54,27.56c23.98,23.57,33.68,56.16,29.06,87.05C323.42,591.46,342.88,581.87,358.41,566.07z M163.91,697.3
	c-53.32-16.39-109.83,13.55-126.22,66.86c-4.54,14.77-5.51,29.78-3.43,44.12c25.52-27.91,65.72-40.28,104.27-28.43
	c38.55,11.85,64.86,44.67,70.29,82.09c9.78-10.69,17.41-23.66,21.95-38.43C247.17,770.2,217.23,713.69,163.91,697.3z M101,1011.98
	c-55.78,0-101,45.22-101,101c0,8.39,1.04,16.53,2.97,24.32c10.89-44.03,50.64-76.68,98.03-76.68s87.15,32.65,98.03,76.68
	c1.93-7.79,2.97-15.93,2.97-24.32C202,1057.2,156.78,1011.98,101,1011.98z M120.36,1230.89c-5.16,1.14-8.43,6.24-7.29,11.42
	c0.98,4.47,4.95,7.52,9.35,7.52c0.68,0,1.37-0.07,2.06-0.23c5.17-1.14,8.43-6.24,7.31-11.41
	C130.65,1233.02,125.54,1229.75,120.36,1230.89z M180.54,1415.66c-4.79,2.23-6.89,7.93-4.65,12.73c1.62,3.49,5.08,5.55,8.7,5.55
	c1.35,0,2.72-0.29,4.02-0.89c4.8-2.24,6.89-7.93,4.66-12.73C191.04,1415.52,185.34,1413.43,180.54,1415.66z M145.41,1324.92
	c-5.01,1.69-7.7,7.13-6.01,12.15c1.35,3.99,5.08,6.52,9.08,6.52c1.02,0,2.05-0.17,3.07-0.5c5.02-1.7,7.7-7.13,6.01-12.14
	C155.87,1325.92,150.43,1323.23,145.41,1324.92z M116.26,1143.19c-0.57-5.26-5.29-9.07-10.56-8.49c-5.26,0.57-9.06,5.29-8.49,10.56
	c0.54,4.91,4.68,8.55,9.51,8.55c0.35,0,0.69-0.02,1.05-0.06C113.02,1153.18,116.83,1148.46,116.26,1143.19z M495.09,312.45
	c1.86,0,3.73-0.54,5.38-1.66c4.38-2.98,5.51-8.95,2.53-13.32c-2.97-4.37-8.94-5.5-13.31-2.53c-4.37,2.98-5.51,8.94-2.53,13.32
	C489.01,310.98,492.02,312.45,495.09,312.45z M179.96,678.31c1.31,0.6,2.67,0.89,4.01,0.89c3.63,0,7.09-2.06,8.71-5.56
	c2.23-4.82,0.13-10.51-4.67-12.72c-4.8-2.23-10.5-0.13-12.72,4.67C173.07,670.39,175.16,676.08,179.96,678.31z M417.72,371.45
	c2.19,0,4.41-0.75,6.22-2.29c4.02-3.43,4.5-9.47,1.08-13.51c-3.44-4.02-9.49-4.52-13.51-1.08c-4.02,3.44-4.52,9.47-1.08,13.51
	C412.32,370.32,415.02,371.45,417.72,371.45z M1893.64,957.32c0.35,0,0.69-0.02,1.05-0.06c5.26-0.58,9.06-5.31,8.48-10.56
	c-0.57-5.26-5.31-9.07-10.56-8.49c-5.26,0.57-9.06,5.31-8.49,10.56C1884.66,953.68,1888.82,957.32,1893.64,957.32z M1894.83,1133.97
	c-5.26-0.56-9.98,3.25-10.55,8.5c-0.56,5.26,3.25,9.99,8.52,10.55c0.35,0.04,0.69,0.06,1.03,0.06c4.83,0,8.98-3.65,9.51-8.56
	C1903.91,1139.26,1900.1,1134.53,1894.83,1133.97z M1237.07,189.04c0.85,0.24,1.7,0.35,2.55,0.35c4.2,0,8.06-2.79,9.23-7.04
	c1.4-5.1-1.59-10.37-6.7-11.77c-5.1-1.41-10.37,1.58-11.79,6.68C1228.97,182.36,1231.97,187.64,1237.07,189.04z M1880.24,1230.17
	c-5.17-1.14-10.28,2.13-11.41,7.31c-1.13,5.16,2.14,10.28,7.31,11.42c0.69,0.14,1.39,0.22,2.07,0.22c4.4,0,8.36-3.05,9.34-7.52
	c0-0.01,0-0.01,0-0.01C1888.68,1236.41,1885.4,1231.3,1880.24,1230.17z M1806.89,671.72v-0.01c1.62,3.5,5.08,5.55,8.68,5.55
	c1.35,0,2.73-0.29,4.04-0.9c4.8-2.23,6.89-7.93,4.65-12.72c0-0.01,0-0.01,0-0.01c-2.23-4.79-7.93-6.88-12.73-4.65
	C1806.73,661.22,1804.65,666.92,1806.89,671.72z M1574.99,367.86c1.8,1.53,4,2.28,6.19,2.28c2.72,0,5.41-1.15,7.32-3.39
	c3.41-4.04,2.92-10.09-1.11-13.5c-4.04-3.43-10.09-2.93-13.51,1.11C1570.45,358.39,1570.95,364.43,1574.99,367.86z M1855.27,1324.26
	c-5.02-1.69-10.46,1.01-12.15,6.01c-1.69,5.02,1.01,10.46,6.02,12.15c1.02,0.34,2.05,0.5,3.05,0.5c4,0,7.74-2.53,9.09-6.53
	C1862.98,1331.37,1860.27,1325.93,1855.27,1324.26z M1820.18,1415.05c-4.79-2.23-10.49-0.13-12.72,4.67
	c-2.22,4.8-0.13,10.49,4.67,12.72c1.31,0.6,2.67,0.89,4.02,0.89c3.62,0,7.08-2.06,8.7-5.56
	C1827.08,1422.97,1824.99,1417.28,1820.18,1415.05z M1143.02,168.56c0.52,0.08,1.03,0.12,1.53,0.12c4.62,0,8.68-3.35,9.45-8.05
	c0.84-5.23-2.71-10.14-7.93-11c-5.22-0.84-10.14,2.71-11,7.94C1134.24,162.8,1137.8,167.71,1143.02,168.56z M853.76,169.03
	c0.52,0,1.04-0.04,1.57-0.12c5.22-0.86,8.76-5.79,7.91-11.01c-0.86-5.22-5.79-8.77-11.01-7.91c-5.22,0.85-8.77,5.79-7.91,11.01
	C845.09,165.7,849.15,169.03,853.76,169.03z M758.75,189.97c0.85,0,1.71-0.11,2.58-0.35c5.1-1.42,8.09-6.71,6.66-11.8
	c-1.41-5.1-6.71-8.08-11.8-6.67c-5.1,1.43-8.08,6.71-6.66,11.8C750.7,187.19,754.56,189.97,758.75,189.97z M1887.22,849.66
	c-1.14-5.17-6.25-8.43-11.41-7.29c-5.17,1.14-8.43,6.25-7.29,11.43c0.98,4.47,4.95,7.51,9.34,7.51c0.69,0,1.39-0.07,2.08-0.23
	C1885.1,859.94,1888.37,854.83,1887.22,849.66z M97.04,948.91c-0.56,5.26,3.25,9.98,8.5,10.54c0.35,0.04,0.69,0.06,1.03,0.06
	c4.84,0,9-3.65,9.52-8.58c0.56-5.26-3.25-9.98-8.52-10.54C102.33,939.83,97.61,943.64,97.04,948.91z M1238.44,1903.27
	c-5.1,1.41-8.1,6.7-6.67,11.79c1.17,4.25,5.03,7.03,9.22,7.03c0.85,0,1.71-0.12,2.56-0.35c5.1-1.42,8.08-6.7,6.67-11.8
	C1248.81,1904.84,1243.53,1901.86,1238.44,1903.27z M1048.71,1934.24c-5.28,0.29-9.33,4.8-9.05,10.09c0.28,5.1,4.5,9.07,9.56,9.07
	c0.18,0,0.36-0.01,0.53-0.01c5.28-0.29,9.34-4.8,9.06-10.09C1058.52,1938.01,1053.99,1933.95,1048.71,1934.24z M952.43,1934.27
	c-5.28-0.27-9.8,3.77-10.07,9.06c-0.29,5.29,3.77,9.8,9.06,10.09c0.18,0.01,0.35,0.01,0.52,0.01c5.07,0,9.29-3.97,9.57-9.08
	C961.78,1939.06,957.71,1934.55,952.43,1934.27z M1144.41,1923.9c-5.22,0.85-8.76,5.77-7.92,11.01c0.78,4.7,4.84,8.04,9.45,8.04
	c0.52,0,1.03-0.04,1.56-0.12c5.22-0.86,8.77-5.79,7.92-11.01C1154.57,1926.59,1149.65,1923.05,1144.41,1923.9z M856.72,1924.02
	c-5.22-0.85-10.14,2.69-11,7.92c-0.84,5.22,2.71,10.15,7.93,11c0.51,0.08,1.03,0.12,1.55,0.12c4.61,0,8.68-3.34,9.45-8.05
	C865.5,1929.78,861.94,1924.87,856.72,1924.02z M1721.63,1582.58c-4.2-3.2-10.22-2.38-13.43,1.82c-3.2,4.22-2.38,10.23,1.82,13.44
	c1.74,1.32,3.77,1.95,5.8,1.95c2.89,0,5.75-1.31,7.63-3.77C1726.66,1591.8,1725.85,1585.79,1721.63,1582.58z M1575.97,1723.99
	c-4.04,3.44-4.52,9.47-1.09,13.51c1.89,2.23,4.59,3.38,7.31,3.38c2.19,0,4.4-0.75,6.2-2.29c4.02-3.42,4.52-9.47,1.09-13.51
	C1586.05,1721.06,1580.01,1720.56,1575.97,1723.99z M1416.98,1832.03c-4.67,2.48-6.44,8.29-3.96,12.96
	c1.72,3.23,5.04,5.08,8.47,5.08c1.52,0,3.07-0.36,4.49-1.13c4.67-2.48,6.44-8.28,3.96-12.95
	C1427.46,1831.31,1421.65,1829.54,1416.98,1832.03z M1499.38,1782.32c-4.37,2.97-5.51,8.92-2.54,13.31
	c1.86,2.72,4.87,4.19,7.94,4.19c1.86,0,3.73-0.54,5.38-1.65c4.37-2.98,5.51-8.94,2.54-13.32
	C1509.73,1780.48,1503.77,1779.34,1499.38,1782.32z M1498.31,309.64c1.64,1.11,3.51,1.65,5.37,1.65c3.07,0,6.08-1.47,7.94-4.22
	c2.96-4.37,1.82-10.34-2.56-13.31c-4.38-2.97-10.35-1.82-13.31,2.56C1492.77,300.71,1493.92,306.67,1498.31,309.64z M762.69,1903.45
	c-5.1-1.41-10.39,1.58-11.8,6.68c-1.4,5.1,1.58,10.37,6.68,11.79c0.85,0.24,1.71,0.35,2.56,0.35c4.19,0,8.05-2.78,9.23-7.03
	C770.78,1910.15,767.78,1904.87,762.69,1903.45z M1329.65,1872.51c-4.92,1.96-7.31,7.55-5.35,12.46c1.5,3.75,5.1,6.04,8.91,6.04
	c1.17,0,2.38-0.23,3.55-0.68c4.91-1.97,7.31-7.55,5.34-12.46C1340.14,1872.96,1334.56,1870.56,1329.65,1872.51z M1645.85,1657.77
	c-3.64,3.84-3.47,9.91,0.37,13.55c1.84,1.76,4.22,2.62,6.59,2.62c2.54,0,5.07-0.99,6.96-2.98c3.63-3.84,3.47-9.92-0.37-13.56
	C1655.55,1653.77,1649.49,1653.92,1645.85,1657.77z M501.56,1782.65c-4.38-2.97-10.34-1.83-13.31,2.55
	c-2.97,4.37-1.83,10.34,2.55,13.31c1.64,1.11,3.52,1.65,5.37,1.65c3.07,0,6.08-1.47,7.94-4.2
	C507.08,1791.58,505.94,1785.62,501.56,1782.65z M671.42,1872.77c-4.92-1.97-10.49,0.44-12.45,5.35
	c-1.96,4.91,0.43,10.49,5.35,12.44c1.16,0.47,2.36,0.68,3.55,0.68c3.81,0,7.4-2.29,8.9-6.04
	C678.74,1880.3,676.33,1874.72,671.42,1872.77z M225.31,1502.02c-4.53,2.74-5.98,8.64-3.25,13.16c1.8,2.98,4.96,4.62,8.2,4.64
	c1.69,0,3.4-0.45,4.95-1.39c4.53-2.73,5.99-8.62,3.25-13.15C235.73,1500.75,229.84,1499.29,225.31,1502.02z M424.92,1724.36
	c-4.04-3.42-10.09-2.93-13.51,1.1c-3.43,4.02-2.93,10.07,1.1,13.5c1.8,1.53,4,2.29,6.19,2.29c2.72,0,5.41-1.15,7.32-3.38
	C429.45,1733.84,428.96,1727.79,424.92,1724.36z M279.18,1583.05c-4.22,3.21-5.03,9.22-1.82,13.44c1.89,2.47,4.74,3.77,7.63,3.77
	c2.02,0,4.07-0.65,5.81-1.97c4.2-3.21,5.01-9.22,1.81-13.43C289.39,1580.65,283.38,1579.84,279.18,1583.05z M1775.46,1501.49
	c-4.54-2.73-10.42-1.27-13.15,3.26c-2.73,4.54-1.28,10.42,3.26,13.16c1.55,0.92,3.25,1.37,4.93,1.37c3.25,0.01,6.42-1.64,8.22-4.64
	C1781.45,1510.12,1779.99,1504.22,1775.46,1501.49z M1769.82,591.42c1.69,0,3.4-0.46,4.96-1.39c4.53-2.74,5.98-8.64,3.23-13.16
	c-2.74-4.53-8.64-5.98-13.15-3.23c-4.54,2.74-5.99,8.62-3.25,13.15C1763.41,589.77,1766.58,591.42,1769.82,591.42z M584.03,1832.33
	c-4.67-2.49-10.47-0.71-12.95,3.96c-2.48,4.67-0.71,10.48,3.98,12.96c1.43,0.75,2.96,1.11,4.48,1.11c3.43,0,6.74-1.84,8.47-5.09
	C590.49,1840.61,588.72,1834.81,584.03,1832.33z M341.45,1657.81c-3.83,3.64-4,9.71-0.36,13.55c1.89,1.99,4.42,2.99,6.96,2.99
	c2.36,0,4.73-0.87,6.59-2.64c3.84-3.64,4-9.7,0.36-13.55C351.35,1654.33,345.29,1654.17,341.45,1657.81z M229.56,593.21
	c3.25,0,6.42-1.66,8.22-4.65c2.73-4.54,1.26-10.42-3.27-13.15c-4.54-2.73-10.42-1.27-13.15,3.27c-2.73,4.53-1.26,10.42,3.27,13.15
	C226.17,592.77,227.88,593.21,229.56,593.21z M120.08,863.25c0.68,0.14,1.38,0.22,2.05,0.22c4.41,0,8.37-3.05,9.35-7.55
	c1.13-5.16-2.16-10.28-7.32-11.4c-5.17-1.13-10.28,2.14-11.4,7.32C111.62,857.01,114.9,862.11,120.08,863.25z M1140.83,1709.26
	l-96.6-19.28l27.16-25.75l-42.97,16.41l16.34-43l-25.66,27.15l-19.26-96.52l-19.28,96.6l-25.75-27.16l16.41,42.98l-43-16.34
	l27.15,25.66l-96.52,19.26l96.6,19.28l-27.16,25.75l42.98-16.41l-16.34,43l25.66-27.15l19.26,96.52l19.28-96.6l25.75,27.16
	l-16.41-42.97l43,16.34l-27.15-25.66L1140.83,1709.26z M1444.59,1478.13l-46-30.7l30.7,46l-30.7,46l46-30.7l46,30.7l-30.7-46
	l30.7-46L1444.59,1478.13z M555.08,1478.13l-46-30.7l30.7,46l-30.7,46l46-30.7l46,30.7l-30.7-46l30.7-46L555.08,1478.13z
	 M1016.16,463.2l-16.32-81.76l-16.32,81.76l-81.76,16.32l81.76,16.32l16.32,81.76l16.32-81.76l81.76-16.32L1016.16,463.2z
	 M1611.28,1058.32l81.76,16.32l-81.76,16.32l-16.32,81.76l-16.32-81.76l-81.76-16.32l81.76-16.32l16.32-81.76L1611.28,1058.32z
	 M1656.32,1074.64l-46.45-9.27l-4.7-0.94l-0.94-4.7l-9.27-46.45l-9.27,46.45l-0.94,4.7l-4.7,0.94l-46.45,9.27l46.45,9.27l4.7,0.94
	l0.94,4.7l9.27,46.45l9.27-46.45l0.94-4.7l4.7-0.94L1656.32,1074.64z M421.03,1090.96l-16.32,81.76l-16.32-81.76l-81.76-16.32
	l81.76-16.32l16.32-81.76l16.32,81.76l81.76,16.32L421.03,1090.96z M419.63,1083.91l46.45-9.27l-46.45-9.27l-4.7-0.94l-0.94-4.7
	l-9.27-46.45l-9.27,46.45l-0.94,4.7l-4.7,0.94l-46.45,9.27l46.45,9.27l4.7,0.94l0.94,4.7l9.27,46.45l9.27-46.45l0.94-4.7
	L419.63,1083.91z"/>
</svg>
