<?xml version="1.0" encoding="utf-8"?>
<!-- Generator: Adobe Illustrator 24.0.2, SVG Export Plug-In . SVG Version: 6.00 Build 0)  -->
<svg version="1.1" id="Слой_1" xmlns="http://www.w3.org/2000/svg" xmlns:xlink="http://www.w3.org/1999/xlink" x="0px" y="0px"
	 viewBox="0 0 2000 2000" style="enable-background:new 0 0 2000 2000;" xml:space="preserve">
<path d="M2000,1000c-584.37,47.7-685.93,61.13-769.57,76.63c-63.41,13.68-105.93,31.57-114.08,39.72
	c-8.16,8.17-26.04,50.67-39.71,114.08c-15.49,83.63-28.92,185.18-76.64,769.57c-47.7-584.38-61.15-685.94-76.65-769.57
	c-13.69-63.41-31.57-105.92-39.71-114.08c-8.14-8.16-50.66-26.04-114.06-39.72C685.95,1061.13,584.4,1047.69,0,1000
	c584.36-47.69,685.93-61.13,769.56-76.63c63.41-13.68,105.9-31.56,114.07-39.72c8.16-8.14,26.04-50.67,39.72-114.08
	C938.85,685.94,952.29,584.38,1000,0c47.69,584.38,61.14,685.94,76.63,769.57c13.69,63.41,31.58,105.92,39.72,114.08
	c8.14,8.16,50.65,26.04,114.06,39.72C1314.05,938.86,1415.61,952.31,2000,1000z"/>
</svg>
