<?xml version="1.0" encoding="utf-8"?>
<!-- Generator: Adobe Illustrator 24.0.2, SVG Export Plug-In . SVG Version: 6.00 Build 0)  -->
<svg version="1.1" id="Слой_1" xmlns="http://www.w3.org/2000/svg" xmlns:xlink="http://www.w3.org/1999/xlink" x="0px" y="0px"
	 viewBox="0 0 2000 1076" style="enable-background:new 0 0 2000 1076;" xml:space="preserve">
<style type="text/css">
	.st0{fill:#FFFFFF;}
</style>
<path class="st0" d="M676.27,649.44c-1.47-3.63,0.28-7.77,3.91-9.24c3.65-1.46,7.77,0.29,9.25,3.92c1.46,3.63-0.28,7.77-3.92,9.23
	c-0.87,0.36-1.77,0.52-2.65,0.52C680.05,653.87,677.39,652.2,676.27,649.44z M504.13,711.43c-3.63,1.47-5.39,5.61-3.92,9.24
	c1.11,2.75,3.77,4.43,6.57,4.43c0.89,0,1.79-0.16,2.66-0.52c3.63-1.46,5.39-5.6,3.92-9.23
	C511.89,711.71,507.75,709.97,504.13,711.43z M631.28,862.91c-2.98,2.55-3.31,7.03-0.75,10c1.4,1.64,3.38,2.47,5.38,2.47
	c1.64,0,3.29-0.56,4.62-1.71c2.98-2.55,3.31-7.04,0.75-10.01C638.72,860.68,634.24,860.36,631.28,862.91z M533.47,699.55
	c-3.63,1.47-5.38,5.61-3.92,9.24c1.11,2.76,3.78,4.43,6.58,4.43c0.88,0,1.79-0.16,2.66-0.52c3.62-1.46,5.38-5.6,3.92-9.23
	C541.24,699.84,537.1,698.09,533.47,699.55z M656.17,665.22c3.63-1.46,5.38-5.6,3.92-9.23c-1.47-3.63-5.61-5.39-9.24-3.92
	c-3.62,1.47-5.38,5.61-3.92,9.23c1.12,2.76,3.78,4.44,6.58,4.44C654.39,665.75,655.29,665.57,656.17,665.22z M163.71,622.43
	c-3.63-1.46-7.77,0.28-9.23,3.92c-1.47,3.63,0.28,7.76,3.91,9.23c0.87,0.35,1.78,0.52,2.66,0.52c2.8,0,5.47-1.68,6.58-4.44
	C169.09,628.04,167.34,623.9,163.71,622.43z M562.81,687.69c-3.62,1.46-5.38,5.6-3.92,9.23c1.12,2.76,3.78,4.44,6.59,4.44
	c0.88,0,1.78-0.17,2.65-0.52c3.63-1.47,5.38-5.61,3.91-9.23C570.58,687.97,566.44,686.22,562.81,687.69z M592.16,675.81
	c-3.63,1.47-5.39,5.61-3.92,9.23c1.11,2.76,3.78,4.44,6.58,4.44c0.88,0,1.78-0.16,2.65-0.52c3.63-1.46,5.39-5.6,3.92-9.23
	C599.92,676.1,595.78,674.34,592.16,675.81z M630.73,667.86c-1.46-3.62-5.6-5.38-9.23-3.91c-3.63,1.46-5.38,5.6-3.92,9.23
	c1.12,2.76,3.78,4.43,6.58,4.43c0.88,0,1.79-0.16,2.66-0.51C630.45,675.63,632.21,671.49,630.73,667.86z M607.29,883.56
	c-2.98,2.55-3.31,7.03-0.75,10.01c1.41,1.63,3.38,2.46,5.38,2.46c1.64,0,3.29-0.56,4.63-1.71c2.97-2.55,3.31-7.04,0.75-10.01
	C614.73,881.33,610.26,881,607.29,883.56z M655.26,842.26c-2.97,2.55-3.31,7.03-0.75,10.01c1.41,1.63,3.39,2.46,5.38,2.46
	c1.65,0,3.3-0.56,4.63-1.71c2.98-2.55,3.31-7.04,0.75-10.01C662.7,840.03,658.23,839.7,655.26,842.26z M819.25,939.82
	c-3.6-1.55-7.77,0.13-9.31,3.73c-1.54,3.6,0.13,7.77,3.73,9.31c0.92,0.39,1.86,0.57,2.78,0.57c2.76,0,5.38-1.61,6.53-4.3
	C824.52,945.53,822.85,941.36,819.25,939.82z M679.25,821.6c-2.97,2.57-3.31,7.04-0.75,10.01c1.41,1.64,3.39,2.47,5.38,2.47
	c1.64,0,3.29-0.57,4.63-1.71c2.97-2.55,3.31-7.04,0.75-10.01C686.7,819.38,682.22,819.04,679.25,821.6z M806.82,968.92
	c-3.61-1.54-7.78,0.14-9.32,3.74c-1.54,3.6,0.13,7.77,3.74,9.31c0.91,0.38,1.86,0.57,2.78,0.57c2.75,0,5.37-1.61,6.53-4.31
	C812.09,974.63,810.41,970.46,806.82,968.92z M856.57,852.5c-3.6-1.54-7.77,0.13-9.31,3.73c-1.54,3.6,0.13,7.77,3.73,9.31
	c0.91,0.38,1.86,0.57,2.78,0.57c2.75,0,5.38-1.61,6.53-4.3C861.84,858.19,860.17,854.04,856.57,852.5z M844.13,881.6
	c-3.6-1.54-7.77,0.13-9.31,3.73c-1.54,3.61,0.13,7.77,3.74,9.32c0.91,0.38,1.84,0.57,2.77,0.57c2.76,0,5.38-1.61,6.54-4.31
	C849.41,887.31,847.73,883.14,844.13,881.6z M794.37,998.03c-3.6-1.54-7.77,0.13-9.31,3.74c-1.55,3.59,0.13,7.77,3.73,9.31
	c0.9,0.38,1.85,0.57,2.78,0.57c2.75,0,5.38-1.61,6.53-4.31C799.65,1003.74,797.98,999.57,794.37,998.03z M831.68,910.71
	c-3.59-1.54-7.77,0.13-9.31,3.73c-1.54,3.6,0.14,7.77,3.74,9.31c0.91,0.39,1.85,0.58,2.78,0.58c2.75,0,5.38-1.61,6.53-4.31
	C836.97,916.42,835.3,912.25,831.68,910.71z M703.24,800.96c-2.97,2.55-3.31,7.03-0.75,10c1.41,1.64,3.39,2.47,5.38,2.47
	c1.64,0,3.29-0.56,4.63-1.71c2.97-2.55,3.31-7.04,0.75-10.01C710.69,798.73,706.21,798.4,703.24,800.96z M785.22,739.74
	c-2.57-2.97-7.04-3.3-10.01-0.74c-2.97,2.56-3.31,7.03-0.75,10c1.41,1.64,3.39,2.47,5.38,2.47c1.65,0,3.29-0.57,4.63-1.71
	C787.43,747.2,787.77,742.71,785.22,739.74z M709.53,628.33c-3.63,1.46-5.38,5.6-3.92,9.23c1.12,2.76,3.78,4.44,6.58,4.44
	c0.88,0,1.79-0.17,2.66-0.52c3.62-1.47,5.38-5.61,3.91-9.23C717.3,628.62,713.17,626.86,709.53,628.33z M151.84,651.77
	c-3.63-1.46-7.77,0.28-9.24,3.92c-1.47,3.63,0.28,7.77,3.92,9.23c0.87,0.36,1.77,0.52,2.66,0.52c2.8,0,5.46-1.68,6.57-4.44
	C157.22,657.38,155.46,653.24,151.84,651.77z M727.23,780.3c-2.98,2.55-3.31,7.03-0.75,10c1.41,1.64,3.38,2.47,5.38,2.47
	c1.64,0,3.29-0.56,4.63-1.71c2.97-2.55,3.31-7.04,0.74-10.01C734.68,778.08,730.2,777.74,727.23,780.3z M751.22,759.64
	c-2.97,2.57-3.3,7.04-0.74,10.01c1.4,1.64,3.38,2.47,5.38,2.47c1.64,0,3.29-0.56,4.62-1.71c2.98-2.57,3.31-7.04,0.75-10.01
	C758.67,757.43,754.18,757.09,751.22,759.64z M78.49,438.4c0.9,0.39,1.85,0.58,2.78,0.58c2.76,0,5.38-1.62,6.53-4.31
	c1.54-3.6-0.13-7.77-3.73-9.31c-3.6-1.55-7.77,0.13-9.31,3.73C73.21,432.69,74.89,436.86,78.49,438.4z M154.47,354.8
	c1.11,2.76,3.77,4.44,6.57,4.44c0.89,0,1.79-0.17,2.66-0.52c3.63-1.47,5.38-5.6,3.92-9.23c-1.47-3.63-5.61-5.39-9.24-3.92
	C154.75,347.04,153,351.17,154.47,354.8z M142.6,325.46c1.11,2.76,3.78,4.43,6.58,4.43c0.88,0,1.79-0.16,2.66-0.51
	c3.62-1.47,5.38-5.61,3.91-9.24c-1.47-3.62-5.6-5.38-9.23-3.91C142.88,317.69,141.12,321.82,142.6,325.46z M89.81,366.45
	c1.64,0,3.29-0.57,4.63-1.72c2.97-2.55,3.31-7.03,0.75-10.01c-2.57-2.97-7.04-3.3-10.01-0.74c-2.97,2.55-3.31,7.04-0.75,10.01
	C85.84,365.61,87.81,366.45,89.81,366.45z M137.3,300.55c0.88,0,1.79-0.16,2.66-0.51c3.62-1.47,5.38-5.61,3.91-9.24
	c-1.46-3.63-5.6-5.38-9.23-3.92c-3.63,1.47-5.38,5.61-3.92,9.25C131.84,298.88,134.5,300.55,137.3,300.55z M869,823.39
	c-3.6-1.54-7.77,0.13-9.31,3.73c-1.54,3.6,0.14,7.77,3.73,9.31c0.92,0.39,1.86,0.58,2.78,0.58c2.76,0,5.38-1.61,6.54-4.31
	C874.28,829.09,872.61,824.93,869,823.39z M20.27,567.63c-3.6,1.53-5.27,5.71-3.73,9.31c1.16,2.69,3.78,4.3,6.53,4.3
	c0.94,0,1.88-0.19,2.78-0.57c3.6-1.54,5.28-5.71,3.74-9.31C28.04,567.76,23.88,566.08,20.27,567.63z M7.09,483
	C3.18,483,0,486.17,0,490.09c0,3.92,3.18,7.09,7.09,7.09s7.09-3.18,7.09-7.09C14.19,486.17,11.01,483,7.09,483z M1947.83,426.53
	c0.93,0,1.88-0.19,2.78-0.57c3.6-1.55,5.28-5.71,3.74-9.32c-1.54-3.6-5.72-5.27-9.31-3.73c-3.61,1.54-5.28,5.71-3.74,9.31
	C1942.46,424.92,1945.07,426.53,1947.83,426.53z M1912.19,434.66c1.16,2.7,3.78,4.31,6.53,4.31c0.94,0,1.88-0.19,2.78-0.58
	c3.61-1.54,5.28-5.71,3.74-9.31c-1.54-3.6-5.71-5.28-9.31-3.73C1912.33,426.89,1910.65,431.06,1912.19,434.66z M139.96,681.12
	c-3.63-1.47-7.77,0.28-9.24,3.91c-1.46,3.63,0.28,7.77,3.92,9.24c0.87,0.35,1.77,0.51,2.66,0.51c2.8,0,5.46-1.67,6.57-4.43
	C145.35,686.72,143.59,682.58,139.96,681.12z M1905.55,364.73c1.34,1.16,2.99,1.72,4.63,1.72c2,0,3.98-0.84,5.38-2.48
	c2.56-2.96,2.23-7.44-0.74-10c-2.98-2.55-7.46-2.23-10.01,0.75C1902.25,357.69,1902.58,362.18,1905.55,364.73z M1836.28,358.72
	c0.87,0.36,1.78,0.52,2.66,0.52c2.81,0,5.46-1.68,6.58-4.44c1.46-3.62-0.28-7.76-3.92-9.23c-3.63-1.46-7.77,0.28-9.23,3.92
	C1830.9,353.12,1832.66,357.25,1836.28,358.72z M1848.16,329.38c0.87,0.35,1.77,0.52,2.65,0.52c2.82,0,5.47-1.68,6.59-4.44
	c1.46-3.63-0.3-7.77-3.92-9.23c-3.63-1.47-7.77,0.28-9.25,3.91C1842.78,323.77,1844.52,327.9,1848.16,329.38z M87.8,546.48
	c-1.54-3.6-5.71-5.27-9.31-3.73c-3.6,1.54-5.28,5.71-3.74,9.31c1.16,2.7,3.78,4.31,6.54,4.31c0.93,0,1.87-0.19,2.78-0.57
	C87.67,554.25,89.34,550.08,87.8,546.48z M25.85,400.48c-3.6-1.55-7.77,0.13-9.31,3.73c-1.54,3.6,0.13,7.77,3.73,9.31
	c0.92,0.39,1.86,0.57,2.78,0.57c2.76,0,5.38-1.62,6.54-4.3C31.13,406.19,29.45,402.01,25.85,400.48z M116.18,591.7
	c-3-2.51-7.48-2.11-9.99,0.9c-2.51,3-2.11,7.48,0.91,9.99c1.33,1.1,2.94,1.65,4.54,1.65c2.03,0,4.05-0.87,5.46-2.55
	C119.61,598.68,119.19,594.2,116.18,591.7z M110.46,390.43c1.64,0,3.29-0.56,4.63-1.71c2.97-2.55,3.3-7.04,0.75-10.01
	c-2.57-2.97-7.04-3.31-10.01-0.74c-2.97,2.55-3.31,7.03-0.75,10.01C106.49,389.61,108.46,390.43,110.46,390.43z M75.65,640.33
	c-3.01-2.51-7.48-2.1-9.99,0.91c-2.51,3.01-2.11,7.49,0.9,10c1.33,1.1,2.94,1.65,4.54,1.65c2.03,0,4.05-0.87,5.46-2.55
	C79.07,647.31,78.67,642.84,75.65,640.33z M95.92,616.01c-3.01-2.5-7.49-2.1-10,0.91c-2.5,3.01-2.1,7.49,0.92,10
	c1.32,1.1,2.94,1.65,4.53,1.65c2.04,0,4.06-0.87,5.46-2.55C99.34,622.99,98.93,618.52,95.92,616.01z M38.75,483
	c-3.92,0-7.09,3.18-7.09,7.09c0,3.92,3.18,7.09,7.09,7.09s7.09-3.18,7.09-7.09C45.84,486.17,42.67,483,38.75,483z M49.38,555.19
	c-3.6,1.54-5.27,5.71-3.73,9.31c1.15,2.7,3.78,4.31,6.53,4.31c0.93,0,1.88-0.19,2.78-0.58c3.6-1.54,5.27-5.71,3.73-9.31
	S52.98,553.65,49.38,555.19z M70.4,497.19c3.92,0,7.09-3.18,7.09-7.09c0-3.92-3.18-7.09-7.09-7.09c-3.92,0-7.09,3.18-7.09,7.09
	C63.31,494.01,66.48,497.19,70.4,497.19z M69.16,342.46c1.64,0,3.29-0.57,4.63-1.72c2.97-2.55,3.31-7.03,0.74-10
	c-2.55-2.97-7.03-3.31-10-0.75c-2.97,2.55-3.31,7.04-0.75,10.01C65.19,341.62,67.17,342.46,69.16,342.46z M54.96,412.91
	c-3.6-1.54-7.77,0.13-9.31,3.73c-1.54,3.6,0.13,7.77,3.73,9.31c0.92,0.39,1.86,0.58,2.78,0.58c2.76,0,5.38-1.62,6.53-4.31
	C60.23,418.62,58.56,414.45,54.96,412.91z M1167.62,885.34c-1.54-3.6-5.7-5.28-9.31-3.74c-3.6,1.54-5.27,5.71-3.73,9.31
	c1.15,2.7,3.77,4.31,6.53,4.31c0.93,0,1.88-0.19,2.78-0.57C1167.49,893.1,1169.17,888.94,1167.62,885.34z M1857.39,655.68
	c-1.46-3.63-5.6-5.38-9.23-3.92c-3.63,1.47-5.39,5.61-3.92,9.23c1.12,2.76,3.78,4.44,6.58,4.44c0.88,0,1.79-0.16,2.66-0.52
	C1857.11,663.46,1858.87,659.32,1857.39,655.68z M1498.32,711.43c-3.63-1.46-7.77,0.28-9.24,3.92c-1.46,3.63,0.28,7.77,3.92,9.23
	c0.87,0.36,1.77,0.52,2.65,0.52c2.82,0,5.47-1.68,6.58-4.44C1503.7,717.04,1501.95,712.9,1498.32,711.43z M1816.96,681.91
	c-27.44,13-58.11,20.3-90.49,20.3c-112.88,0-205.1-88.37-211.29-199.7l-257.98,0.01c0.32,5.26,0.49,10.56,0.49,15.9
	c0,142.31-115.37,257.67-257.67,257.67c-142.31,0-257.67-115.36-257.67-257.67c0-5.34,0.17-10.65,0.49-15.91H484.86
	c-6.19,111.33-98.41,199.71-211.29,199.71c-32.38,0-63.05-7.3-90.49-20.3c68.22-32.32,116.4-100.01,120.81-179.41h-44.51
	c-5.45,24.6-27.38,43.01-53.62,43.01c-30.34,0-54.93-24.59-54.93-54.93c0-30.34,24.59-54.93,54.93-54.93
	c26.83,0,49.15,19.23,53.96,44.66h44.25c-3.83-80.11-52.2-148.52-120.89-181.06c27.44-13,58.11-20.3,90.49-20.3
	c113.44,0,206.02,89.25,211.38,201.36h256.2c0.91-26.36,5.77-51.74,14.02-75.55l-182.62-75.67c-5.66-2.35-8.35-8.84-6-14.5
	c2.34-5.67,8.85-8.35,14.5-6l182.28,75.53c11.92-26.72,28.24-51.05,48.03-72.09L671.4,172.06c-4.34-4.33-4.34-11.36,0-15.7
	c4.34-4.34,11.36-4.34,15.69,0L827.23,296.5c17.98-16.13,38.22-29.8,60.19-40.44L807.69,76.68c-2.49-5.6,0.03-12.16,5.63-14.65
	c5.59-2.48,12.16,0.03,14.65,5.63l79.83,179.6c25.38-9.7,52.65-15.52,81.11-16.72V35.4c0-6.13,4.97-11.1,11.1-11.1
	c6.13,0,11.1,4.97,11.1,11.1v195.13c28.46,1.21,55.74,7.02,81.13,16.73l79.83-179.6c2.49-5.61,9.06-8.12,14.65-5.63
	c5.6,2.49,8.13,9.05,5.63,14.65l-79.73,179.38c21.96,10.64,42.19,24.3,60.17,40.43l140.12-140.12c4.34-4.34,11.36-4.34,15.69,0
	c4.34,4.33,4.34,11.36,0,15.7l-139.93,139.93c19.8,21.05,36.13,45.41,48.06,72.14l182.25-75.52c5.65-2.35,12.16,0.34,14.5,6.01
	c2.35,5.66-0.34,12.16-6,14.5l-182.59,75.66c8.24,23.81,13.1,49.18,14.01,75.53l256.2-0.01c5.35-112.11,97.94-201.37,211.38-201.37
	c32.38,0,63.05,7.3,90.49,20.3c-68.69,32.54-117.06,100.96-120.89,181.06l44.2,0c4.81-25.43,27.13-44.66,53.96-44.66
	c30.34,0,54.93,24.59,54.93,54.93c0,30.34-24.59,54.93-54.93,54.93c-26.24,0-48.17-18.4-53.62-43.01l-44.47,0
	C1700.56,581.89,1748.75,649.59,1816.96,681.91z M1233.89,502.52H766.15C807.03,590.77,896.36,652,1000.02,652
	C1103.68,652,1193.01,590.77,1233.89,502.52z M1236.7,480.32c-4.75-126.44-109.09-227.84-236.68-227.84
	c-127.58,0-231.93,101.39-236.68,227.84H1236.7z M1883.81,591.7c-3.01,2.5-3.42,6.97-0.91,9.99c1.4,1.68,3.42,2.55,5.45,2.55
	c1.6,0,3.22-0.55,4.54-1.65c3.01-2.51,3.42-6.99,0.91-9.99C1891.29,589.59,1886.82,589.19,1883.81,591.7z M1860.04,681.11
	c-3.63,1.47-5.39,5.61-3.92,9.25c1.11,2.76,3.78,4.44,6.58,4.44c0.88,0,1.78-0.17,2.65-0.52c3.63-1.47,5.39-5.61,3.92-9.24
	C1867.8,681.4,1863.66,679.64,1860.04,681.11z M1865.35,286.87c-3.63-1.46-7.77,0.28-9.23,3.92c-1.47,3.63,0.28,7.77,3.92,9.23
	c0.86,0.36,1.77,0.52,2.65,0.52c2.81,0,5.47-1.67,6.58-4.43C1870.74,292.48,1868.98,288.35,1865.35,286.87z M1845.53,626.34
	c-1.47-3.63-5.61-5.39-9.25-3.92c-3.63,1.47-5.38,5.6-3.92,9.23c1.12,2.76,3.78,4.43,6.58,4.43c0.88,0,1.79-0.16,2.66-0.51
	C1845.24,634.11,1846.99,629.98,1845.53,626.34z M1380.93,663.95c-3.62-1.47-7.76,0.28-9.23,3.91c-1.46,3.63,0.28,7.77,3.92,9.24
	c0.87,0.35,1.77,0.51,2.65,0.51c2.82,0,5.47-1.67,6.58-4.43C1386.33,669.55,1384.57,665.41,1380.93,663.95z M1395.07,878.57
	c-3.01-2.51-7.49-2.11-10,0.91c-2.5,3.01-2.1,7.49,0.91,10c1.33,1.1,2.95,1.64,4.54,1.64c2.04,0.01,4.06-0.86,5.46-2.54
	C1398.49,885.56,1398.08,881.08,1395.07,878.57z M1468.97,699.55c-3.63-1.46-7.76,0.28-9.23,3.92c-1.46,3.63,0.28,7.77,3.92,9.24
	c0.87,0.35,1.77,0.51,2.65,0.51c2.81,0,5.47-1.67,6.58-4.43C1474.36,705.16,1472.6,701.03,1468.97,699.55z M1410.29,675.81
	c-3.63-1.46-7.77,0.28-9.23,3.92c-1.47,3.63,0.27,7.77,3.91,9.23c0.87,0.36,1.78,0.52,2.66,0.52c2.81,0,5.46-1.67,6.58-4.43
	C1415.67,681.42,1413.92,677.29,1410.29,675.81z M1439.63,687.69c-3.63-1.47-7.77,0.28-9.23,3.92c-1.47,3.62,0.28,7.76,3.91,9.23
	c0.87,0.35,1.78,0.52,2.66,0.52c2.81,0,5.47-1.68,6.58-4.44C1445.02,693.29,1443.26,689.15,1439.63,687.69z M1974.14,400.48
	c-3.6,1.54-5.27,5.7-3.73,9.31c1.15,2.69,3.77,4.3,6.53,4.3c0.93,0,1.88-0.19,2.78-0.57c3.6-1.54,5.28-5.71,3.73-9.31
	C1981.91,400.61,1977.74,398.94,1974.14,400.48z M1961.24,483c-3.92,0-7.09,3.18-7.09,7.09c0,3.92,3.18,7.09,7.09,7.09
	c3.92,0,7.09-3.18,7.09-7.09C1968.34,486.17,1965.16,483,1961.24,483z M1979.72,567.62c-3.6-1.54-7.77,0.14-9.31,3.74
	c-1.54,3.6,0.13,7.77,3.73,9.31c0.92,0.38,1.85,0.57,2.79,0.57c2.75,0,5.37-1.62,6.52-4.31
	C1985,573.33,1983.32,569.16,1979.72,567.62z M881.45,794.28c-3.6-1.54-7.77,0.13-9.31,3.73s0.13,7.78,3.73,9.32
	c0.91,0.38,1.86,0.57,2.78,0.57c2.76,0,5.38-1.61,6.53-4.31C886.72,799.98,885.05,795.81,881.45,794.28z M1992.91,483
	c-3.93,0-7.11,3.18-7.11,7.09c0,3.92,3.18,7.09,7.11,7.09c3.91,0,7.09-3.18,7.09-7.09C2000,486.17,1996.81,483,1992.91,483z
	 M1950.61,555.19c-3.6-1.55-7.77,0.13-9.31,3.73c-1.54,3.6,0.13,7.77,3.74,9.31c0.91,0.39,1.84,0.58,2.77,0.58
	c2.76,0,5.38-1.61,6.54-4.31C1955.89,560.9,1954.21,556.73,1950.61,555.19z M1904.07,616.01c-3.01,2.51-3.42,6.99-0.91,10
	c1.41,1.68,3.43,2.55,5.46,2.55c1.6,0,3.21-0.55,4.54-1.65c3.01-2.51,3.42-6.99,0.91-10
	C1911.55,613.91,1907.08,613.51,1904.07,616.01z M1935.47,329.99c-2.98-2.55-7.46-2.22-10.01,0.75c-2.55,2.97-2.22,7.44,0.74,10.01
	c1.34,1.15,2.99,1.71,4.63,1.71c2,0,3.98-0.84,5.38-2.47C1938.77,337.03,1938.44,332.54,1935.47,329.99z M1894.16,377.97
	c-2.96-2.57-7.44-2.23-10,0.74c-2.55,2.97-2.23,7.46,0.74,10.01c1.34,1.16,2.99,1.71,4.63,1.71c2,0,3.97-0.83,5.38-2.46
	C1897.46,385,1897.14,380.52,1894.16,377.97z M1925.24,552.06c1.54-3.6-0.13-7.77-3.73-9.31c-3.61-1.54-7.77,0.13-9.32,3.73
	c-1.54,3.61,0.14,7.77,3.74,9.31c0.91,0.39,1.85,0.58,2.78,0.58C1921.48,556.37,1924.1,554.75,1925.24,552.06z M1924.34,640.33
	c-3.01,2.51-3.42,6.99-0.91,10c1.4,1.68,3.42,2.54,5.45,2.54c1.61,0,3.22-0.54,4.54-1.64c3.01-2.51,3.42-6.99,0.92-10
	C1931.81,638.23,1927.35,637.82,1924.34,640.33z M1929.59,483c-3.92,0-7.09,3.18-7.09,7.09c0,3.92,3.18,7.09,7.09,7.09
	c3.93,0,7.09-3.18,7.09-7.09C1936.68,486.17,1933.52,483,1929.59,483z M1370.75,858.3c-3.01-2.5-7.48-2.1-10,0.92
	c-2.5,3.01-2.1,7.48,0.92,9.99c1.32,1.11,2.94,1.65,4.53,1.65c2.04,0,4.06-0.87,5.46-2.56
	C1374.17,865.29,1373.76,860.81,1370.75,858.3z M1000.02,815.93c-3.92,0-7.09,3.18-7.09,7.09s3.18,7.09,7.09,7.09
	c3.92,0,7.09-3.18,7.09-7.09S1003.93,815.93,1000.02,815.93z M1180.06,914.44c-1.54-3.6-5.71-5.27-9.31-3.73
	c-3.6,1.54-5.28,5.71-3.74,9.31c1.16,2.7,3.78,4.31,6.54,4.31c0.93,0,1.87-0.19,2.78-0.58
	C1179.93,922.21,1181.6,918.04,1180.06,914.44z M1130.31,798.02c-1.55-3.61-5.72-5.28-9.31-3.74c-3.61,1.54-5.28,5.71-3.74,9.31
	c1.16,2.7,3.78,4.31,6.53,4.31c0.93,0,1.88-0.19,2.78-0.57C1130.17,805.79,1131.85,801.62,1130.31,798.02z M1351.59,652.07
	c-3.63-1.47-7.77,0.28-9.23,3.92c-1.47,3.62,0.28,7.77,3.91,9.23c0.87,0.35,1.78,0.52,2.66,0.52c2.8,0,5.47-1.68,6.58-4.44
	C1356.99,657.68,1355.23,653.55,1351.59,652.07z M1155.19,856.23c-1.54-3.6-5.71-5.28-9.31-3.73c-3.6,1.54-5.28,5.71-3.74,9.31
	c1.16,2.69,3.78,4.31,6.53,4.31c0.94,0,1.88-0.19,2.78-0.58C1155.04,864,1156.73,859.83,1155.19,856.23z M1142.74,827.12
	c-1.54-3.6-5.71-5.27-9.31-3.73c-3.6,1.54-5.27,5.71-3.73,9.31c1.15,2.7,3.77,4.31,6.53,4.31c0.93,0,1.88-0.19,2.78-0.58
	C1142.61,834.89,1144.28,830.72,1142.74,827.12z M1000.02,847.59c-3.92,0-7.09,3.18-7.09,7.09c0,3.92,3.18,7.09,7.09,7.09
	c3.92,0,7.09-3.18,7.09-7.09C1007.11,850.76,1003.93,847.59,1000.02,847.59z M1000.02,910.89c-3.92,0-7.09,3.18-7.09,7.09
	s3.18,7.09,7.09,7.09c3.92,0,7.09-3.18,7.09-7.09S1003.93,910.89,1000.02,910.89z M1000.02,1037.51c-3.92,0-7.09,3.18-7.09,7.09
	c0,3.92,3.18,7.09,7.09,7.09c3.92,0,7.09-3.18,7.09-7.09C1007.11,1040.69,1003.93,1037.51,1000.02,1037.51z M1000.02,1005.86
	c-3.92,0-7.09,3.18-7.09,7.09c0,3.92,3.18,7.09,7.09,7.09c3.92,0,7.09-3.18,7.09-7.09
	C1007.11,1009.03,1003.93,1005.86,1000.02,1005.86z M1000.02,942.55c-3.92,0-7.09,3.18-7.09,7.09s3.18,7.09,7.09,7.09
	c3.92,0,7.09-3.18,7.09-7.09S1003.93,942.55,1000.02,942.55z M1000.02,974.2c-3.92,0-7.09,3.18-7.09,7.09s3.18,7.09,7.09,7.09
	c3.92,0,7.09-3.18,7.09-7.09S1003.93,974.2,1000.02,974.2z M1000.02,879.24c-3.92,0-7.09,3.18-7.09,7.09c0,3.92,3.18,7.09,7.09,7.09
	c3.92,0,7.09-3.18,7.09-7.09C1007.11,882.42,1003.93,879.24,1000.02,879.24z M1297.8,797.52c-3.01-2.51-7.49-2.11-10,0.91
	c-2.5,3.01-2.11,7.49,0.9,9.99c1.33,1.11,2.94,1.65,4.54,1.65c2.03,0,4.05-0.87,5.46-2.55
	C1301.22,804.49,1300.82,800.03,1297.8,797.52z M1322.12,817.78c-3.01-2.5-7.49-2.1-10,0.92c-2.51,3-2.11,7.48,0.91,9.99
	c1.33,1.1,2.94,1.65,4.54,1.65c2.03,0,4.05-0.87,5.46-2.55C1325.54,824.76,1325.12,820.29,1322.12,817.78z M1346.43,838.04
	c-3-2.51-7.48-2.11-9.99,0.91c-2.51,3.01-2.11,7.49,0.91,9.99c1.32,1.11,2.94,1.65,4.54,1.65c2.03,0,4.05-0.86,5.45-2.55
	C1349.85,845.03,1349.44,840.56,1346.43,838.04z M1290.24,642.01c2.81,0,5.47-1.68,6.58-4.44c1.47-3.63-0.28-7.76-3.92-9.23
	c-3.62-1.47-7.76,0.28-9.23,3.91c-1.46,3.65,0.28,7.77,3.92,9.24C1288.46,641.83,1289.36,642.01,1290.24,642.01z M1322.25,640.2
	c-3.63-1.46-7.77,0.28-9.23,3.92c-1.47,3.63,0.28,7.77,3.91,9.23c0.87,0.36,1.78,0.52,2.66,0.52c2.81,0,5.46-1.67,6.58-4.43
	C1327.64,645.81,1325.89,641.67,1322.25,640.2z M1208.07,998.03c-3.6,1.54-5.28,5.71-3.73,9.31c1.15,2.7,3.77,4.31,6.52,4.31
	c0.94,0,1.88-0.19,2.79-0.57c3.6-1.55,5.27-5.72,3.73-9.32C1215.84,998.16,1211.67,996.49,1208.07,998.03z M1192.49,943.55
	c-1.53-3.6-5.7-5.27-9.31-3.73c-3.6,1.54-5.27,5.71-3.73,9.31c1.16,2.7,3.78,4.31,6.53,4.31c0.94,0,1.88-0.19,2.78-0.58
	C1192.36,951.32,1194.04,947.15,1192.49,943.55z M1204.94,972.66c-1.54-3.6-5.71-5.28-9.31-3.73c-3.6,1.53-5.27,5.7-3.73,9.31
	c1.15,2.69,3.78,4.3,6.53,4.3c0.93,0,1.88-0.19,2.78-0.57C1204.81,980.43,1206.48,976.26,1204.94,972.66z M1224.85,736.72
	c-3-2.51-7.48-2.11-9.99,0.91c-2.51,3.01-2.11,7.49,0.91,10c1.32,1.1,2.94,1.64,4.54,1.64c2.03,0,4.05-0.86,5.45-2.55
	C1228.26,743.71,1227.86,739.23,1224.85,736.72z M1273.49,777.25c-3.01-2.51-7.49-2.1-10,0.91c-2.51,3.01-2.1,7.49,0.91,10
	c1.33,1.1,2.95,1.65,4.54,1.65c2.03,0,4.05-0.87,5.46-2.56C1276.9,784.23,1276.5,779.76,1273.49,777.25z M1249.17,756.99
	c-3.01-2.51-7.48-2.11-9.99,0.91c-2.51,3-2.11,7.48,0.91,9.99c1.32,1.1,2.94,1.65,4.54,1.65c2.03,0,4.05-0.87,5.45-2.56
	C1252.58,763.96,1252.18,759.49,1249.17,756.99z"/>
</svg>
