<?xml version="1.0" encoding="utf-8"?>
<!-- Generator: Adobe Illustrator 24.0.2, SVG Export Plug-In . SVG Version: 6.00 Build 0)  -->
<svg version="1.1" id="Слой_1" xmlns="http://www.w3.org/2000/svg" xmlns:xlink="http://www.w3.org/1999/xlink" x="0px" y="0px"
	 viewBox="0 0 1252 2000" style="enable-background:new 0 0 1252 2000;" xml:space="preserve">
<style type="text/css">
	.st0{fill:#FFFFFF;}
</style>
<path class="st0" d="M84.05,164.88c-7.95-7.95-13.54-17.38-16.78-27.4l-0.01-0.01c-0.19-0.59-0.37-1.18-0.54-1.76
	c-0.46-1.56-0.85-3.12-1.2-4.7L65.53,131c-0.32-1.46-0.58-2.93-0.8-4.4c-3.11-20.78,3.33-42.72,19.33-58.72
	c15.51-15.51,36.59-22.04,56.8-19.59c1.51,0.19,3.02,0.42,4.53,0.71c2.62,0.5,5.2,1.15,7.77,1.95c0.62,0.2,1.24,0.4,1.87,0.62
	c9.51,3.29,18.44,8.73,26.02,16.32c0.26,0.26,0.53,0.53,0.78,0.79c0.79,0.82,1.54,1.63,2.28,2.47c1.54,1.74,2.96,3.54,4.28,5.4
	c0.39,0.54,0.77,1.08,1.15,1.63c1.28,1.91,2.46,3.87,3.54,5.89c0.27,0.51,0.54,1.02,0.8,1.54c4.56,9.07,6.97,18.94,7.24,28.85
	c-2.65-7.72-7.05-14.97-13.21-21.13c-21.66-21.66-56.76-21.65-78.41,0c-21.66,21.66-21.66,56.75,0,78.41
	c6.16,6.16,13.42,10.56,21.13,13.22c-9.64-0.27-19.22-2.56-28.07-6.87c-0.5-0.24-0.99-0.48-1.48-0.74c-1.94-1-3.84-2.1-5.7-3.29
	c-0.01-0.01-0.01-0.01-0.01-0.01c-0.54-0.35-1.1-0.73-1.63-1.1c0,0,0,0-0.01-0.01c-1.89-1.29-3.71-2.68-5.48-4.18
	c-0.54-0.46-1.08-0.92-1.61-1.4c-0.11-0.1-0.22-0.19-0.32-0.29c-0.37-0.34-0.74-0.68-1.1-1.02L85.21,166
	C84.82,165.63,84.44,165.26,84.05,164.88z M1165.12,164.88c7.95-7.95,13.54-17.38,16.78-27.4l0.01-0.01
	c0.19-0.59,0.37-1.18,0.54-1.76c0.46-1.56,0.85-3.12,1.2-4.7l0.01-0.01c0.32-1.46,0.58-2.93,0.8-4.4
	c3.11-20.78-3.33-42.72-19.33-58.72c-15.51-15.51-36.59-22.04-56.8-19.59c-1.51,0.19-3.02,0.42-4.53,0.71
	c-2.62,0.5-5.2,1.15-7.77,1.95c-0.62,0.2-1.24,0.4-1.87,0.62c-9.51,3.29-18.44,8.73-26.02,16.32c-0.26,0.26-0.53,0.53-0.78,0.79
	c-0.79,0.82-1.54,1.63-2.28,2.47c-1.54,1.74-2.96,3.54-4.28,5.4c-0.39,0.54-0.77,1.08-1.15,1.63c-1.28,1.91-2.46,3.87-3.54,5.89
	c-0.27,0.51-0.54,1.02-0.8,1.54c-4.56,9.07-6.97,18.94-7.24,28.85c2.65-7.72,7.05-14.97,13.21-21.13
	c21.66-21.66,56.76-21.65,78.41,0c21.66,21.66,21.66,56.75,0,78.41c-6.16,6.16-13.42,10.56-21.13,13.22
	c9.64-0.27,19.22-2.56,28.07-6.87c0.5-0.24,0.99-0.48,1.48-0.74c1.94-1,3.84-2.1,5.7-3.29c0.01-0.01,0.01-0.01,0.01-0.01
	c0.54-0.35,1.1-0.73,1.63-1.1c0,0,0,0,0.01-0.01c1.89-1.29,3.71-2.68,5.48-4.18c0.54-0.46,1.08-0.92,1.61-1.4
	c0.11-0.1,0.22-0.19,0.32-0.29c0.37-0.34,0.74-0.68,1.1-1.02l0.01-0.01C1164.35,165.63,1164.73,165.26,1165.12,164.88z
	 M84.05,1833.89c-7.95,7.95-13.54,17.38-16.78,27.41l-0.01,0.01c-0.19,0.59-0.37,1.18-0.54,1.76c-0.46,1.56-0.85,3.12-1.2,4.7
	l-0.01,0.01c-0.32,1.46-0.58,2.93-0.8,4.4c-3.11,20.78,3.33,42.72,19.33,58.72c15.51,15.51,36.59,22.04,56.8,19.59
	c1.51-0.19,3.02-0.42,4.53-0.71c2.62-0.5,5.2-1.15,7.77-1.95c0.62-0.2,1.24-0.4,1.87-0.62c9.51-3.29,18.44-8.73,26.02-16.32
	c0.26-0.26,0.53-0.53,0.78-0.79c0.79-0.82,1.54-1.63,2.28-2.47c1.54-1.74,2.96-3.54,4.28-5.4c0.39-0.54,0.77-1.08,1.15-1.63
	c1.28-1.91,2.46-3.87,3.54-5.89c0.27-0.51,0.54-1.02,0.8-1.54c4.56-9.07,6.97-18.94,7.24-28.85c-2.65,7.72-7.05,14.97-13.21,21.13
	c-21.66,21.66-56.76,21.65-78.41,0c-21.66-21.66-21.66-56.75,0-78.41c6.16-6.16,13.42-10.56,21.13-13.22
	c-9.64,0.27-19.22,2.56-28.07,6.87c-0.5,0.24-0.99,0.48-1.48,0.74c-1.94,1-3.84,2.1-5.7,3.29c-0.01,0.01-0.01,0.01-0.01,0.01
	c-0.54,0.35-1.1,0.73-1.63,1.1c0,0,0,0-0.01,0.01c-1.89,1.29-3.71,2.68-5.48,4.18c-0.54,0.46-1.08,0.92-1.61,1.4
	c-0.11,0.1-0.22,0.19-0.32,0.29c-0.37,0.34-0.74,0.68-1.1,1.02l-0.01,0.01C84.82,1833.13,84.44,1833.5,84.05,1833.89z
	 M1163.96,1832.76L1163.96,1832.76c-0.37-0.35-0.74-0.69-1.1-1.03c-0.1-0.1-0.21-0.2-0.32-0.29c-0.53-0.49-1.07-0.95-1.61-1.4
	c-1.77-1.51-3.59-2.9-5.48-4.18c-0.01-0.01-0.01-0.01-0.01-0.01c-0.54-0.38-1.09-0.75-1.63-1.1c0,0,0,0-0.01-0.01
	c-1.86-1.2-3.76-2.29-5.7-3.29c-0.49-0.26-0.98-0.51-1.48-0.74c-8.86-4.32-18.44-6.6-28.07-6.87c7.71,2.65,14.97,7.06,21.13,13.22
	c21.66,21.66,21.66,56.75,0,78.41c-21.65,21.65-56.75,21.66-78.41,0c-6.16-6.16-10.56-13.42-13.21-21.13
	c0.27,9.92,2.68,19.78,7.24,28.85c0.26,0.51,0.53,1.03,0.8,1.54c1.07,2.01,2.26,3.98,3.54,5.89c0.37,0.55,0.76,1.1,1.15,1.63
	c1.32,1.86,2.74,3.65,4.28,5.4c0.73,0.84,1.49,1.65,2.28,2.47c0.25,0.26,0.51,0.53,0.78,0.79c7.59,7.59,16.52,13.03,26.02,16.32
	c0.62,0.21,1.24,0.42,1.87,0.62c2.57,0.8,5.15,1.45,7.77,1.95c1.51,0.29,3.01,0.51,4.53,0.71c20.21,2.45,41.29-4.08,56.8-19.59
	c16-16,22.44-37.94,19.33-58.72c-0.22-1.47-0.49-2.94-0.8-4.4l-0.01-0.01c-0.35-1.58-0.74-3.14-1.2-4.7
	c-0.17-0.58-0.35-1.17-0.54-1.76l-0.01-0.01c-3.23-10.03-8.82-19.45-16.78-27.41C1164.73,1833.5,1164.35,1833.13,1163.96,1832.76z
	 M176.99,175.6l44.45,29.66l-29.66-44.45l29.66-44.45l-44.45,29.66l-44.45-29.66l29.66,44.45l-29.66,44.45L176.99,175.6z
	 M176.99,149.73l33.32-22.23l-22.23,33.32l22.23,33.32l-33.32-22.23l-33.32,22.23l22.23-33.32l-22.23-33.32L176.99,149.73z
	 M1072.18,175.6l-44.45,29.66l29.66-44.45l-29.66-44.45l44.45,29.66l44.45-29.66l-29.66,44.45l29.66,44.45L1072.18,175.6z
	 M1072.18,149.73l-33.32-22.23l22.23,33.32l-22.23,33.32l33.32-22.23l33.32,22.23l-22.23-33.32l22.23-33.32L1072.18,149.73z
	 M176.99,1822.49l44.45-29.66l-29.66,44.45l29.66,44.45l-44.45-29.66l-44.45,29.66l29.66-44.45l-29.66-44.45L176.99,1822.49z
	 M176.99,1848.37l33.32,22.23l-22.23-33.32l22.23-33.32l-33.32,22.23l-33.32-22.23l22.23,33.32l-22.23,33.32L176.99,1848.37z
	 M1072.18,1822.49l-44.45-29.66l29.66,44.45l-29.66,44.45l44.45-29.66l44.45,29.66l-29.66-44.45l29.66-44.45L1072.18,1822.49z
	 M1072.18,1848.37l-33.32,22.23l22.23-33.32l-22.23-33.32l33.32,22.23l33.32-22.23l-22.23,33.32l22.23,33.32L1072.18,1848.37z
	 M1200.81,1966.66c21.5-21.5,33.34-49.98,33.34-80.18V113.52c0-30.2-11.84-58.67-33.34-80.17C1179.31,11.84,1150.84,0,1120.64,0
	H131.36c-30.2,0-58.67,11.84-80.17,33.34c-21.5,21.5-33.34,49.98-33.34,80.17v1772.96c0,30.2,11.84,58.67,33.34,80.18
	c21.5,21.5,49.97,33.34,80.17,33.34h989.27C1150.84,2000,1179.31,1988.16,1200.81,1966.66z M1120.64,6.05
	c59.26,0,107.47,48.21,107.47,107.47v1772.96c0,59.26-48.21,107.47-107.47,107.47H131.36c-59.26,0-107.47-48.21-107.47-107.47
	V113.52C23.89,54.26,72.1,6.05,131.36,6.05H1120.64z M64.83,1801.74c1.67,0,3.02-1.36,3.01-3.03
	c-0.97-381.26-0.89-768.33-0.81-1142.65c0.03-144.04,0.06-292.98,0.03-439.56c0-1.67-1.35-3.02-3.02-3.02
	c-1.67,0-3.02,1.35-3.02,3.02c0.03,146.58,0,295.52-0.03,439.56c-0.08,374.33-0.16,761.41,0.81,1142.67
	C61.8,1800.39,63.15,1801.74,64.83,1801.74C64.82,1801.74,64.83,1801.74,64.83,1801.74z M1036.11,1953.33c1.67-0.03,3-1.4,2.97-3.07
	c-0.03-1.67-1.37-3-3.07-2.97c-280.3,4.74-559.73,3.36-819.94,1.16c-0.01,0-0.02,0-0.03,0c-1.66,0-3.01,1.34-3.02,3
	c-0.01,1.67,1.33,3.03,3,3.05c132.22,1.12,269.4,2.02,409.14,2.02C760.47,1956.51,898.19,1955.66,1036.11,1953.33z M1036.11,49.22
	c1.67-0.03,3-1.4,2.97-3.07c-0.03-1.67-1.37-3.01-3.07-2.97c-280.28,4.74-559.72,3.36-819.94,1.16c-0.01,0-0.02,0-0.03,0
	c-1.66,0-3.01,1.34-3.02,3c-0.01,1.67,1.33,3.03,3,3.05c132.24,1.12,269.42,2.02,409.18,2.02
	C760.49,52.4,898.22,51.55,1036.11,49.22z M1189.64,1800.61c2.44-369.56,2.87-756.74,1.34-1218.47c0-123.93,0-252.08-0.67-378.44
	c-0.01-1.66-1.36-3.01-3.02-3.01c-0.01,0-0.01,0-0.02,0c-1.67,0.01-3.02,1.37-3.01,3.04c0.67,126.34,0.67,254.48,0.67,378.41
	c1.53,461.72,1.1,848.88-1.34,1218.42c-0.01,1.67,1.33,3.03,3,3.04c0.01,0,0.01,0,0.02,0
	C1188.27,1803.62,1189.62,1802.28,1189.64,1800.61z M1120.9,1696c4.93,6.82,17.7,25.34,17.7,34.19c0,1.07-0.57,2.06-1.49,2.61
	c-0.47,0.28-1,0.42-1.53,0.42c-0.51,0-1.02-0.13-1.47-0.38c-42.23-23.59-85.28-18.79-122.32-10.22c3.89,6.74,6.84,13.93,6.84,20.25
	c0,1.16-0.66,2.22-1.71,2.73c-27.37,13.14-54.95,17.95-82.47,17.95c-22.99,0.01-45.94-3.35-68.72-7.99
	c-77.7,16.26-157.16,24.5-236.66,24.5c-0.01,0-0.01,0-0.01,0c-80.52,0-160.99-8.44-239.65-25.13c-23.77,4.97-47.75,8.63-71.75,8.63
	c-27.52,0-55.09-4.8-82.46-17.95c-1.05-0.5-1.72-1.57-1.72-2.73c0-6.35,2.71-13.6,6.26-20.37c-36.83-8.48-79.69-13.21-121.85,10.33
	c-0.46,0.26-0.97,0.38-1.47,0.38c-0.53,0-1.06-0.14-1.53-0.42c-0.92-0.54-1.49-1.53-1.49-2.61c0-8.84,12.77-27.37,17.7-34.19
	c-5.4-4.52-17.7-15.86-17.7-25.26c0-1.1,0.59-2.11,1.55-2.64c42.7-23.85,85.06-19.94,121.43-11.99c-1.76-5.75-2.9-11-2.9-14.97
	c0-1.04,0.54-2.01,1.42-2.56c0.88-0.56,1.98-0.62,2.92-0.17c35.86,17.22,72.36,19.62,108.76,15.67v-31.4c0-2.71,1.18-5.13,3.32-6.81
	c2.93-2.3,7.29-2.96,11.96-1.82c30.21,7.23,60.72,13.22,91.42,17.95c56.96-13.24,115.31-22.43,172.76,5.11
	c58.26-27.92,117.43-18.09,175.15-4.55c0.01,0,0.01,0,0.01,0c31.93-4.82,63.66-10.98,95.07-18.51c4.66-1.14,9.02-0.48,11.95,1.82
	c2.14,1.68,3.32,4.1,3.32,6.81v31.99c34.41,3.05,68.87,0.01,102.75-16.26c0.93-0.45,2.04-0.39,2.92,0.17
	c0.88,0.55,1.42,1.52,1.42,2.56c0,3.99-1.27,9.25-3.22,15.02c36.48-7.99,78.93-11.92,121.65,11.94c0.96,0.53,1.55,1.54,1.55,2.64
	C1138.6,1680.14,1126.3,1691.48,1120.9,1696z M630.23,1645.44c51.56-0.05,103.11-3.55,154.18-10.48
	c-51.24-11.13-103.35-16.87-154.18,6.86V1645.44z M470.01,1634.45c50.29,7,101.04,10.65,151.82,10.96v-3.59
	C571.79,1618.45,520.49,1623.66,470.01,1634.45z M242.84,1717.01c4.66-7.7,9.79-14.18,12.17-17.06
	c-2.77-5.46-10.96-21.97-16.4-37.15c-35.54-8.08-77.22-12.93-118.96,9.61c1.56,6.41,11.18,15.83,17.43,20.66
	c1.31,1.01,1.56,2.88,0.57,4.21c-5.42,7.23-13.29,19.11-16.62,27.05C163.63,1703.13,206.24,1708.43,242.84,1717.01z M374.57,1751.66
	c-4.77-1.07-9.53-2.18-14.29-3.32c-7.69-1.88-13.7-8.12-13.7-14.21v-73.94c-9.63,1.03-19.27,1.63-28.92,1.63
	c-25.9,0-51.84-4.26-77.61-15.71c0.68,3.76,1.98,8.22,3.62,12.93c0.04,0.1,0.08,0.21,0.11,0.32c6.29,17.93,17.37,39.31,17.53,39.61
	c0.58,1.1,0.42,2.45-0.4,3.38c-0.2,0.24-19.77,22.85-21.28,38.65C284.1,1761.73,329.57,1759.91,374.57,1751.66z M849.33,1752
	c4.92-0.96,9.84-1.95,14.74-2.98c10.77-2.24,21.5-4.65,32.2-7.21c4.9-1.2,8.55-5.04,8.55-7.68v-74.02V1654v-31.32
	c0-0.65-0.23-1.12-0.75-1.53c-0.99-0.78-3.14-1.34-6.22-0.58c-26.29,6.3-52.81,11.67-79.49,16.09c-5.19,0.87-10.38,1.69-15.58,2.48
	c-57.06,8.68-114.8,13.08-172.56,13.14h-1.16c-0.01,0-0.01,0-0.01,0h-1.18c-1.24,0-2.47-0.01-3.7-0.01c-0.79,0-1.57-0.01-2.34-0.01
	c-56.98-0.36-113.91-4.94-170.16-13.67c-5.17-0.81-10.32-1.65-15.48-2.52c-25.48-4.31-50.8-9.48-75.92-15.49
	c-1.03-0.26-1.97-0.36-2.79-0.36c-1.63,0-2.79,0.42-3.45,0.94c-0.52,0.4-0.75,0.87-0.75,1.53v30.6v6.13v74.72
	c0,2.63,3.66,6.48,8.56,7.68c9.69,2.32,19.41,4.51,29.15,6.57c4.84,1.03,9.67,2.02,14.52,2.98
	C551.53,1780.27,703.24,1780.48,849.33,1752z M1012.47,1741c-1.46-13.08-17.28-32.04-23.56-38.54c-0.94-0.97-1.12-2.44-0.44-3.61
	c0.17-0.3,12.35-21.5,19.33-39.35c0.05-0.18,0.12-0.36,0.21-0.53c1.81-4.67,3.24-9.1,4-12.84c-33.36,14.81-66.99,17.57-100.46,14.65
	v73.35c0,6.09-6.01,12.33-13.68,14.21l-0.02,0.01c-5.64,1.35-11.29,2.65-16.94,3.92C924.79,1759.98,969.1,1761.21,1012.47,1741z
	 M1114.34,1697.28c-0.99-1.32-0.74-3.2,0.57-4.21c6.25-4.83,15.87-14.25,17.43-20.66c-41.86-22.6-83.73-17.66-119.44-9.5
	c-5.99,15.06-14.95,31.41-18.1,37.01c2.71,2.96,8.45,9.51,13.61,17.27c36.86-8.71,79.77-14.15,122.55,7.15
	C1127.63,1716.38,1119.76,1704.51,1114.34,1697.28z"/>
</svg>
