<?xml version="1.0" encoding="utf-8"?>
<!-- Generator: Adobe Illustrator 24.0.2, SVG Export Plug-In . SVG Version: 6.00 Build 0)  -->
<svg version="1.1" id="Слой_1" xmlns="http://www.w3.org/2000/svg" xmlns:xlink="http://www.w3.org/1999/xlink" x="0px" y="0px"
	 viewBox="0 0 1602 2000" style="enable-background:new 0 0 1602 2000;" xml:space="preserve">
<path d="M272.8,1249.81c2.96,5.56,0.85,12.46-4.71,15.42c-5.56,2.95-12.46,0.84-15.41-4.71c-0.91-1.71-1.33-3.54-1.33-5.35
	c0-4.08,2.19-8.02,6.05-10.07C262.95,1242.14,269.84,1244.25,272.8,1249.81z M230.69,1184.58c-4.46,1.77-7.18,6.06-7.18,10.58
	c0,1.41,0.26,2.84,0.81,4.22c2.34,5.85,8.96,8.7,14.81,6.36c5.85-2.33,8.7-8.96,6.37-14.81
	C243.16,1185.09,236.53,1182.24,230.69,1184.58z M230.53,753.54c5.85,2.33,12.47-0.52,14.81-6.37c2.33-5.85-0.53-12.48-6.37-14.81
	c-5.84-2.33-12.48,0.52-14.81,6.37c-0.55,1.38-0.81,2.81-0.81,4.21C223.34,747.49,226.07,751.77,230.53,753.54z M374.17,1404.55
	c-2.08,2.21-3.12,5.02-3.12,7.84c0,3.02,1.19,6.03,3.56,8.28c4.57,4.33,11.78,4.14,16.11-0.44c4.33-4.57,4.14-11.78-0.43-16.11
	C385.71,1399.79,378.5,1399.98,374.17,1404.55z M257.19,692.99c5.56,2.95,12.46,0.83,15.41-4.73c2.95-5.56,0.83-12.46-4.73-15.41
	c-5.56-2.95-12.46-0.83-15.41,4.73c-0.9,1.7-1.33,3.53-1.33,5.33C251.12,686.99,253.33,690.95,257.19,692.99z M290.48,1302.35
	c-3.25,2.21-4.99,5.79-4.99,9.44c0,2.21,0.64,4.44,1.97,6.4c3.54,5.2,10.62,6.55,15.83,3.02c5.2-3.54,6.56-10.63,3.02-15.83
	C302.77,1300.16,295.69,1298.81,290.48,1302.35z M1126.76,450.93c3.25-5.4,1.51-12.4-3.89-15.64c-5.39-3.25-12.39-1.51-15.64,3.88
	c-1.11,1.84-1.64,3.87-1.64,5.87c0,3.87,1.97,7.64,5.53,9.78C1116.51,458.06,1123.52,456.32,1126.76,450.93z M329.56,1355.71
	c-2.65,2.25-4.01,5.45-4.01,8.69c0,2.61,0.9,5.23,2.72,7.38c4.08,4.8,11.27,5.38,16.06,1.3c4.79-4.08,5.38-11.28,1.3-16.07
	C341.56,1352.21,334.36,1351.63,329.56,1355.71z M1259.04,580.33c4.08,4.79,11.28,5.36,16.07,1.28c4.79-4.08,5.36-11.28,1.28-16.06
	c-4.08-4.79-11.27-5.37-16.06-1.29c-2.65,2.26-4.01,5.45-4.01,8.68C1256.32,575.55,1257.22,578.18,1259.04,580.33L1259.04,580.33z
	 M1314.24,634.93c5.2-3.54,6.55-10.63,3.01-15.84c-3.54-5.2-10.63-6.55-15.83-3.01c-3.24,2.21-4.99,5.79-4.99,9.44
	c0,2.21,0.64,4.44,1.98,6.41C1301.94,637.13,1309.03,638.47,1314.24,634.93z M1230.46,532.8c4.32-4.57,4.12-11.79-0.46-16.11
	c-4.57-4.33-11.78-4.13-16.11,0.45c-2.08,2.2-3.12,5.02-3.12,7.83c0,3.02,1.2,6.04,3.57,8.28
	C1218.92,537.57,1226.13,537.37,1230.46,532.8z M1164.86,491.24c5.02,3.81,12.16,2.83,15.97-2.17c3.8-5.02,2.82-12.16-2.18-15.97
	c-5.01-3.81-12.16-2.83-15.97,2.18c-1.56,2.06-2.32,4.48-2.32,6.89C1160.35,485.6,1161.9,489,1164.86,491.24z M439.43,491.78
	c5.01-3.82,5.98-10.97,2.16-15.98c-3.82-5-10.97-5.97-15.97-2.15c-2.95,2.24-4.49,5.63-4.49,9.07c0,2.41,0.77,4.84,2.34,6.9
	C427.28,494.63,434.43,495.59,439.43,491.78z M1347.38,692.16c5.56-2.96,7.66-9.87,4.71-15.42c-2.96-5.56-9.87-7.66-15.42-4.71
	c-3.85,2.05-6.04,5.99-6.04,10.07c0,1.81,0.43,3.65,1.33,5.35C1334.92,693.01,1341.83,695.12,1347.38,692.16z M390.01,533.84
	c4.57-4.33,4.75-11.54,0.42-16.11c-4.33-4.57-11.54-4.76-16.11-0.42c-2.36,2.24-3.56,5.25-3.56,8.27c0,2.81,1.04,5.63,3.13,7.84
	C378.23,537.99,385.44,538.17,390.01,533.84z M290.26,635.69c5.21,3.53,12.29,2.18,15.83-3.03c3.54-5.21,2.18-12.3-3.03-15.83
	c-5.21-3.53-12.29-2.17-15.83,3.04c-1.33,1.95-1.96,4.18-1.96,6.39C285.26,629.9,287.01,633.48,290.26,635.69z M329.32,582.3
	c4.79,4.07,11.99,3.48,16.06-1.31c4.08-4.8,3.49-11.99-1.3-16.06c-4.8-4.08-11.99-3.49-16.07,1.3c-1.82,2.14-2.71,4.76-2.71,7.38
	C325.3,576.84,326.67,580.04,329.32,582.3z M1215.33,1403.52c-2.35,2.24-3.54,5.25-3.54,8.26c0,2.82,1.04,5.64,3.13,7.85
	c4.33,4.56,11.55,4.75,16.11,0.42c4.57-4.34,4.75-11.55,0.41-16.12C1227.11,1399.37,1219.9,1399.18,1215.33,1403.52z M493.09,455.28
	c5.39-3.26,7.12-10.26,3.87-15.65c-3.25-5.39-10.26-7.12-15.65-3.87c-3.54,2.14-5.5,5.9-5.51,9.77c0,2,0.54,4.04,1.64,5.88
	C480.7,456.81,487.7,458.53,493.09,455.28z M1165.94,1445.63c-2.93,2.25-4.48,5.64-4.48,9.07c0,2.41,0.76,4.84,2.34,6.9
	c3.82,5.01,10.97,5.97,15.97,2.15c0.01,0,0.01,0,0.01,0c5-3.82,5.96-10.97,2.14-15.98
	C1178.1,1442.77,1170.95,1441.81,1165.94,1445.63z M1112.31,1482.17c-3.54,2.14-5.5,5.9-5.5,9.76c0,2.01,0.54,4.04,1.65,5.89
	c3.26,5.39,10.26,7.11,15.65,3.85c5.39-3.26,7.11-10.27,3.85-15.65C1124.7,1480.64,1117.7,1478.91,1112.31,1482.17z
	 M1275.98,1355.02c-4.79-4.07-11.98-3.48-16.06,1.33c-1.81,2.14-2.7,4.76-2.7,7.36c0,3.23,1.37,6.45,4.03,8.7
	c4.79,4.07,11.99,3.48,16.06-1.33C1281.38,1366.29,1280.78,1359.09,1275.98,1355.02z M1374.63,1183.69
	c-5.85-2.33-12.47,0.53-14.8,6.38c-0.55,1.38-0.81,2.8-0.81,4.2c0,4.53,2.73,8.82,7.2,10.6c5.85,2.32,12.47-0.54,14.79-6.38
	C1383.34,1192.64,1380.49,1186.01,1374.63,1183.69z M1068.9,418.85c2.64-5.72,0.16-12.49-5.56-15.13
	c-5.71-2.65-12.49-0.15-15.13,5.56c-0.72,1.55-1.06,3.17-1.06,4.78c0,4.3,2.45,8.43,6.62,10.35v0.01
	C1059.49,427.06,1066.26,424.57,1068.9,418.85z M1348.03,1244.27c-5.56-2.95-12.46-0.82-15.41,4.74c-0.9,1.7-1.32,3.53-1.32,5.32
	c-0.01,4.09,2.2,8.04,6.06,10.08c5.57,2.95,12.46,0.82,15.41-4.74C1355.71,1254.11,1353.59,1247.22,1348.03,1244.27z M1315,1301.6
	c-5.21-3.53-12.29-2.16-15.83,3.04c-1.33,1.95-1.96,4.19-1.96,6.38c0,3.66,1.76,7.24,5.01,9.44c5.21,3.53,12.3,2.17,15.83-3.04
	C1321.58,1312.21,1320.22,1305.13,1315,1301.6z M1055.07,1512.69c-4.15,1.93-6.59,6.05-6.59,10.34c0,1.61,0.34,3.25,1.07,4.8
	c2.65,5.71,9.43,8.18,15.14,5.53c5.71-2.65,8.18-9.44,5.53-15.14C1067.55,1512.51,1060.77,1510.03,1055.07,1512.69z M550.77,1513.08
	c-5.71-2.65-12.48-0.16-15.13,5.54c-0.73,1.55-1.06,3.18-1.06,4.79c0,4.3,2.44,8.42,6.6,10.35c5.71,2.65,12.49,0.16,15.13-5.54
	C558.97,1522.5,556.49,1515.73,550.77,1513.08z M493.44,1482.63L493.44,1482.63c-5.39-3.25-12.39-1.51-15.64,3.88
	c-1.12,1.84-1.64,3.87-1.64,5.87c0,3.87,1.96,7.63,5.51,9.77c0,0.01,0,0.01,0,0.01c5.39,3.24,12.39,1.51,15.65-3.88
	C500.57,1492.89,498.83,1485.89,493.44,1482.63z M1374.13,752.66c5.85-2.34,8.69-8.97,6.34-14.82c-2.34-5.85-8.97-8.69-14.81-6.35
	c-4.46,1.78-7.17,6.06-7.17,10.59c0,1.41,0.26,2.84,0.82,4.22C1361.65,752.15,1368.28,754.99,1374.13,752.66z M439.74,1446.17
	L439.74,1446.17c-5.01-3.82-12.16-2.85-15.97,2.16c-1.57,2.07-2.33,4.49-2.33,6.9c0,3.44,1.55,6.84,4.49,9.09c0-0.01,0-0.01,0-0.01
	c5.01,3.82,12.16,2.85,15.97-2.17C445.72,1457.12,444.75,1449.98,439.74,1446.17z M550.36,424.81c5.72-2.65,8.2-9.43,5.54-15.14
	c-2.65-5.71-9.43-8.19-15.13-5.54c-4.16,1.93-6.6,6.05-6.6,10.35c0,1.6,0.34,3.23,1.06,4.79
	C537.88,424.98,544.66,427.46,550.36,424.81z M802.53,1624.53c-41.37,0-74.91,33.54-74.91,74.91c0,41.37,33.54,74.91,74.91,74.91
	c41.37,0,74.91-33.54,74.91-74.91C877.44,1658.06,843.91,1624.53,802.53,1624.53z M802.53,1812.87c-22.01,0-39.85,17.84-39.85,39.85
	c0,22.01,17.84,39.85,39.85,39.85s39.85-17.84,39.85-39.85C842.38,1830.71,824.54,1812.87,802.53,1812.87z M801.63,1943.65
	c-15.56,0-28.18,12.61-28.18,28.18c0,15.56,12.61,28.18,28.18,28.18c15.56,0,28.18-12.61,28.18-28.18
	C829.8,1956.26,817.19,1943.65,801.63,1943.65z M396.73,1101.45c-21.19,57.2-7.5,43.51-64.69,64.69
	c57.2,21.19,43.51,7.5,64.69,64.69c21.19-57.2,7.5-43.51,64.69-64.69C404.22,1144.95,417.91,1158.64,396.73,1101.45z M1203.5,663.09
	c-17.67-38.46-17.67-25.03,0-63.49c-38.46,17.67-25.03,17.67-63.49,0c17.67,38.46,17.67,25.03,0,63.49
	C1178.47,645.42,1165.03,645.42,1203.5,663.09z M1215.2,757.6c10.5-28.34,3.71-21.56,32.05-32.05
	c-28.34-10.5-21.56-3.71-32.05-32.05c-10.5,28.34-3.71,21.56-32.05,32.05C1211.49,736.05,1204.7,729.27,1215.2,757.6z
	 M494.6,1265.27c-38.46,17.67-25.03,17.67-63.49,0c17.67,38.47,17.67,25.03,0,63.5c38.46-17.67,25.03-17.67,63.49,0
	C476.92,1290.3,476.92,1303.74,494.6,1265.27z M1204.37,1230.44c-9.54,4.39-16.72,7.96-22.4,10.74c-5.32-9.48-9.31-25.05-20.5-55.26
	c-11.19,30.2-15.18,45.78-20.5,55.26c-5.68-2.77-12.86-6.35-22.4-10.74c4.39,9.54,7.96,16.72,10.74,22.4
	c-9.48,5.32-25.05,9.31-55.26,20.5c30.21,11.19,45.78,15.18,55.26,20.5c-2.77,5.68-6.35,12.86-10.74,22.4
	c9.54-4.38,16.72-7.96,22.4-10.74c5.32,9.48,9.31,25.05,20.5,55.26c11.19-30.21,15.18-45.78,20.5-55.26
	c5.68,2.77,12.86,6.35,22.4,10.74c-4.39-9.54-7.96-16.72-10.74-22.4c9.48-5.32,25.05-9.31,55.26-20.5
	c-30.21-11.19-45.78-15.18-55.26-20.5C1196.4,1247.16,1199.98,1239.98,1204.37,1230.44z M445.96,646.01
	c-2.77,5.68-6.35,12.86-10.74,22.4c9.54-4.38,16.72-7.96,22.4-10.74c5.32,9.48,9.31,25.05,20.5,55.26
	c11.19-30.21,15.18-45.78,20.5-55.26c5.68,2.77,12.86,6.35,22.4,10.74c-4.39-9.54-7.96-16.72-10.74-22.4
	c9.48-5.32,25.05-9.31,55.26-20.5c-30.21-11.19-45.78-15.18-55.26-20.5c2.77-5.68,6.35-12.86,10.74-22.4
	c-9.54,4.38-16.72,7.96-22.4,10.74c-5.32-9.48-9.31-25.05-20.5-55.26c-11.19,30.21-15.18,45.78-20.5,55.26
	c-5.68-2.77-12.86-6.35-22.4-10.74c4.39,9.54,7.96,16.72,10.74,22.4c-9.48,5.32-25.05,9.31-55.26,20.5
	C420.91,636.7,436.49,640.69,445.96,646.01z M365.63,971.76l-113.8-22.71l32-30.34l-50.63,19.33l19.25-50.66l-30.23,31.98
	l-22.69-113.71l-22.71,113.8l-30.34-32l19.33,50.63l-50.66-19.25l31.98,30.23L33.43,971.76l113.8,22.71l-32,30.34l50.63-19.33
	l-19.25,50.66l30.23-31.98l22.69,113.71l22.71-113.8l30.34,32l-19.33-50.63l50.66,19.25l-31.98-30.23L365.63,971.76z
	 M1454.87,994.45l113.7-22.69l-113.8-22.71l32-30.34l-50.63,19.33l19.25-50.66l-30.23,31.98l-22.69-113.71l-22.71,113.8l-30.34-32
	l19.33,50.63l-50.66-19.25l31.98,30.23l-113.71,22.69l113.8,22.71l-32,30.34l50.63-19.33l-19.25,50.66l30.23-31.98l22.69,113.71
	l22.71-113.8l30.34,32l-19.33-50.63l50.66,19.25L1454.87,994.45z M802.53,1423.29c-110.14,0-199.42,89.29-199.42,199.42
	c0,80.41,47.6,149.7,116.15,181.25c-35.35-25.75-58.33-67.45-58.33-114.53c0-78.2,63.4-141.6,141.6-141.6s141.6,63.4,141.6,141.6
	c0,47.08-22.98,88.78-58.33,114.53c68.55-31.55,116.15-100.83,116.15-181.25C1001.96,1512.57,912.67,1423.29,802.53,1423.29z
	 M1141.76,978.87c-1.54,1.36-36.87,32.28-97.12,63.86c-54.31,28.46-139.19,62.08-236.96,62.08c-1.55,0-3.09-0.01-4.65-0.03
	c-99.65-1.09-185.25-32.94-239.51-59.46c-60.7-29.62-94.94-57.78-95.28-58.06c-0.28-0.22-0.75-0.59-1.15-1.12l-0.23-0.37
	c-0.14-0.21-0.25-0.38-0.35-0.56c-0.31-0.46-0.53-1.01-0.7-1.46l-0.23-1.01c-0.04-0.27-0.07-0.48-0.1-0.73l-0.01-0.63
	c0-0.46,0.02-0.93,0.08-1.32l0.06-0.3c0.06-0.25,0.14-0.6,0.31-0.97c0.19-0.6,0.47-1.06,0.76-1.47c0.12-0.22,0.27-0.42,0.45-0.61
	c4.22-5.46,39.97-50.84,96.63-95.5c54.73-43.19,140.52-94.38,239.58-94.38c1.05,0,2.09,0.01,3.14,0.02
	c100.25,1.1,186.29,50.5,240.82,91.76c55.96,42.28,91.32,85.14,95.17,89.89c0.21,0.23,0.36,0.46,0.44,0.62
	c0.24,0.34,0.55,0.83,0.75,1.48c0.11,0.3,0.27,0.72,0.35,1.24c0.11,0.46,0.23,1.12,0.12,1.89c-0.01,0.42-0.08,0.92-0.16,1.28
	l-0.14,0.5c-0.1,0.33-0.2,0.65-0.35,1C1143.11,977.33,1142.54,978.1,1141.76,978.87z M766.98,882.87l24.68,13.86l13.32,25
	l13.86-24.7l25-13.32l-24.7-13.86l-13.32-25l-13.86,24.7L766.98,882.87z M671.01,889.64c-0.39,35.83,13.23,69.7,38.36,95.38
	c25.13,25.68,58.7,40.04,94.52,40.43c0.49,0,1,0.01,1.49,0.01c73.38,0.01,133.46-59.3,134.26-132.89
	c0.13-11.7-1.19-23.11-3.93-33.92c-28.8-9.99-57.71-16.86-86.02-20.45c12.13,11.97,19.14,28.72,18.96,45.78
	c-0.18,16.87-6.94,32.67-19.02,44.49c-12.08,11.83-28.03,18.21-44.88,18.05c-16.86-0.18-32.67-6.94-44.49-19.03
	c-11.83-12.09-18.24-28.03-18.05-44.9c0.19-17.17,7.26-33.3,19.58-45.02c-28.69,3.44-57.85,10.48-86.79,20.93
	C672.47,868.46,671.13,878.92,671.01,889.64z M1125.33,972.85c-12.35-11.52-43.01-38.41-86.94-65.31
	c-27.72-17.03-56.63-31.41-85.97-42.77c1.66,9.1,2.45,18.49,2.34,27.97c-0.43,39.85-16.4,77.18-44.97,105.13
	c-28.56,27.94-66.24,43.17-106.08,42.66c-39.85-0.43-77.19-16.4-105.14-44.97c-27.95-28.56-43.1-66.24-42.66-106.08
	c0.09-8.22,0.86-16.44,2.29-24.51c-29.02,11.77-57.8,26.88-85.59,44.96c-44.42,28.83-75.68,58.13-88.24,70.66
	c7.7,5.63,22.33,15.84,42.3,27.63c1.02,0.61,2.05,1.21,3.1,1.81c1.21,0.7,2.31,1.34,3.41,1.99c5.48,3.1,12.86,7.23,21.1,11.52
	c1.49,0.79,3.01,1.57,4.56,2.35c8.33,4.28,16.57,8.29,24.5,11.93c0.66,0.3,1.34,0.61,2.02,0.92l0.34,0.15
	c0.95,0.43,1.91,0.87,2.9,1.3c2.15,0.97,4.31,1.9,6.5,2.85l0.33,0.14c1.33,0.58,2.67,1.16,4.01,1.74c0.08,0.02,0.39,0.15,0.69,0.27
	l0.25,0.11c3.01,1.31,6.25,2.62,9.11,3.78c3.77,1.56,7.8,3.13,12.71,4.95c1.86,0.76,3.69,1.43,5.56,2.11
	c2.4,0.91,4.8,1.76,7.21,2.62c4.14,1.47,7.91,2.75,11.53,3.92c7.23,2.37,13.31,4.26,19.16,5.96l6.64,1.91
	c1.05,0.27,2.2,0.58,3.34,0.89l0.31,0.09c0.99,0.27,1.99,0.54,2.97,0.8c1.51,0.43,3,0.8,4.51,1.17c0.76,0.19,1.49,0.37,2.23,0.55
	c2.24,0.58,4.54,1.16,6.79,1.67c1.8,0.46,3.58,0.87,5.36,1.28l1.57,0.36c2.27,0.51,4.59,0.98,6.88,1.43
	c2.09,0.49,4.23,0.94,6.79,1.4l0.46,0.09c2.33,0.45,4.66,0.89,7.01,1.32c1.61,0.32,3.18,0.59,4.74,0.85l1.69,0.28
	c4.47,0.78,9.33,1.54,15.32,2.37c1.51,0.23,3.01,0.42,4.52,0.61l1.38,0.18c6.42,0.76,11.73,1.33,16.7,1.78
	c6.45,0.61,13.58,1.1,21.79,1.49c5.71,0.31,11.32,0.4,16.54,0.46c96.36,1,180.57-32.12,234.21-60.13
	c17.94-9.43,35.8-19.99,53.07-31.4c0.43-0.3,0.91-0.62,1.4-0.95l0.17-0.11c0.46-0.32,0.93-0.63,1.4-0.96
	c7.11-4.78,13.98-9.64,20.45-14.45c1.34-0.94,2.45-1.83,3.27-2.49l0.08-0.06C1120.48,976.67,1123.19,974.55,1125.33,972.85z
	 M1196.08,812.77c0.31-1.77-0.1-3.56-1.14-5.03c-1.04-1.47-2.59-2.45-4.36-2.76c-1.77-0.3-3.56,0.1-5.03,1.14l-87.9,62.05
	c-1.47,1.04-2.45,2.59-2.75,4.36c-0.31,1.77,0.1,3.56,1.14,5.03c1.26,1.79,3.32,2.85,5.51,2.85c1.4,0,2.74-0.43,3.88-1.23
	l87.9-62.05C1194.8,816.09,1195.78,814.54,1196.08,812.77z M970.56,612.27c-3.43-1.41-7.38,0.22-8.8,3.66L902.26,760
	c-1.42,3.43,0.22,7.38,3.65,8.8l0,0c0.83,0.34,1.69,0.51,2.57,0.51c2.74,0,5.18-1.64,6.23-4.17l59.5-144.08
	c0.69-1.66,0.69-3.5,0-5.16C973.52,614.25,972.22,612.95,970.56,612.27z M1001.77,812.81c1.26,1.23,2.93,1.91,4.7,1.91
	c1.84,0,3.55-0.72,4.83-2.04l78.66-80.91c1.25-1.29,1.93-2.99,1.91-4.79c-0.03-1.8-0.75-3.48-2.04-4.74
	c-2.66-2.59-6.94-2.53-9.53,0.13l-78.66,80.91C999.05,805.95,999.11,810.22,1001.77,812.81z M416.13,817.1l94.03,67.35
	c1.15,0.83,2.51,1.26,3.92,1.26c2.17,0,4.22-1.05,5.48-2.81c1.05-1.46,1.46-3.25,1.17-5.02c-0.29-1.78-1.26-3.33-2.72-4.38
	l-94.03-67.35c-1.46-1.05-3.25-1.46-5.02-1.17c-1.78,0.29-3.33,1.26-4.38,2.73c-1.05,1.46-1.46,3.25-1.17,5.02
	C413.7,814.5,414.67,816.06,416.13,817.1z M644.09,612.27c-1.66-0.69-3.49-0.69-5.15,0c-1.66,0.69-2.96,1.98-3.65,3.64
	c-0.69,1.66-0.69,3.49,0,5.16l59.97,145.21c1.05,2.53,3.49,4.17,6.23,4.17c0.88,0,1.75-0.17,2.57-0.51
	c1.66-0.69,2.96-1.98,3.65-3.64c0.69-1.66,0.69-3.49,0.01-5.16l-59.97-145.21C647.05,614.26,645.76,612.96,644.09,612.27z
	 M519.67,722.25c-1.29,1.25-2.02,2.94-2.04,4.74c-0.03,1.8,0.65,3.5,1.91,4.79l76.88,79.07c1.28,1.32,2.99,2.04,4.83,2.04
	c1.77,0,3.43-0.68,4.7-1.91c1.29-1.25,2.02-2.93,2.04-4.73c0.03-1.8-0.65-3.5-1.91-4.79l-76.88-79.07
	C526.6,719.72,522.33,719.66,519.67,722.25z M802.53,1140.15c-3.72,0-6.74,4.04-6.74,9v232.37c0,4.96,3.02,9,6.74,9
	c3.72,0,6.74-4.04,6.74-9v-232.37C809.27,1144.19,806.25,1140.15,802.53,1140.15z M908.48,1136.33c-0.88,0-1.74,0.17-2.57,0.51l0,0
	c-3.43,1.42-5.07,5.37-3.65,8.8l59.5,144.08c1.42,3.43,5.37,5.07,8.8,3.66c1.66-0.69,2.96-1.98,3.65-3.64
	c0.69-1.66,0.69-3.49,0-5.16l-59.5-144.08C913.67,1137.96,911.22,1136.33,908.48,1136.33z M1006.47,1104.81
	c-1.77,0-3.43,0.68-4.7,1.91c-2.66,2.59-2.72,6.86-0.13,9.53l78.66,80.91c2.59,2.66,6.87,2.72,9.53,0.13
	c1.29-1.25,2.02-2.94,2.04-4.74c0.03-1.8-0.65-3.5-1.91-4.79l-78.66-80.91C1010.02,1105.53,1008.31,1104.81,1006.47,1104.81z
	 M704.05,1135.71c-0.82-0.34-1.69-0.51-2.57-0.51c-2.74,0-5.18,1.64-6.23,4.17l-59.97,145.21c-0.69,1.66-0.69,3.5,0,5.16
	c0.69,1.66,1.99,2.96,3.65,3.64c1.66,0.69,3.49,0.69,5.15,0c1.66-0.69,2.96-1.99,3.65-3.65l59.97-145.21
	c0.69-1.66,0.69-3.49-0.01-5.16C707.01,1137.69,705.72,1136.39,704.05,1135.71z M607.98,1113.29c-0.03-1.8-0.75-3.48-2.04-4.73
	c-1.26-1.23-2.93-1.91-4.7-1.91c-1.84,0-3.55,0.72-4.83,2.04l-76.88,79.07c-1.25,1.29-1.93,2.99-1.91,4.79
	c0.03,1.8,0.75,3.48,2.04,4.74c2.66,2.59,6.94,2.53,9.53-0.13l76.88-79.07C607.33,1116.79,608,1115.09,607.98,1113.29z
	 M1001.08,340.12c0.29,2.4,0.48,4.71,0.66,7.16c0.04,0.57,0.06,1.07,0.1,1.64l132.24,0.36c3.24,0.01,5.94-2.67,5.92-5.96
	c0.04-3.31-2.61-5.96-5.93-6l-133.37-0.27C1000.87,338.08,1000.99,339.13,1001.08,340.12z M1040.25,109.31
	c2.33-2.33,2.37-6.09,0.05-8.42c-1.77-1.78-4.4-2.18-6.54-1.28c-0.72,0.3-1.33,0.68-1.93,1.26l-99.73,99.26
	c2.92,2.66,5.77,5.48,8.57,8.32L1040.25,109.31z M878.03,162.67l53.11-129.09c1.31-3.06-0.14-6.53-3.23-7.76
	c-1.5-0.66-3.14-0.56-4.52,0.01c-1.43,0.6-2.6,1.67-3.24,3.23l-53,128.58c0.08,0.03,0.08,0.03,0.16,0.06
	C870.99,159.27,874.52,160.9,878.03,162.67z M982.66,271.08l0.28,0.66l127.54-53.13c3.03-1.26,4.47-4.77,3.21-7.8
	c-1.26-3.03-4.77-4.48-7.8-3.21l-128.09,53.36C979.57,264.29,981.18,267.69,982.66,271.08z M462.21,349.28l132.24-0.36
	c0.04-0.57,0.06-1.07,0.1-1.64c0.18-2.44,0.37-4.76,0.66-7.16c0.09-1,0.21-2.05,0.38-3.08l-133.37,0.27c-3.31,0.04-5.97,2.68-5.93,6
	C456.28,346.61,458.98,349.28,462.21,349.28z M655.63,208.44c2.8-2.84,5.65-5.66,8.57-8.32l-99.73-99.26
	c-0.6-0.57-1.22-0.96-1.93-1.26c-2.15-0.89-4.77-0.5-6.54,1.28c-2.33,2.33-2.28,6.09,0.05,8.42L655.63,208.44z M718.26,162.67
	c3.51-1.77,7.04-3.4,10.73-4.97c0.08-0.03,0.08-0.03,0.16-0.06l-53-128.58c-0.64-1.56-1.81-2.63-3.24-3.23
	c-1.38-0.57-3.02-0.67-4.52-0.01c-3.1,1.23-4.54,4.7-3.23,7.76L718.26,162.67z M485.82,218.61l127.54,53.13l0.28-0.66
	c1.48-3.39,3.09-6.79,4.86-10.12L490.41,207.6c-3.03-1.26-6.54,0.18-7.8,3.21C481.35,213.84,482.79,217.35,485.82,218.61z
	 M792.05,141.06c1.43-0.18,2.84-0.3,4.25-0.43c0.58-0.05,1.14-0.07,1.72-0.12c0.57,0.05,1.14,0.06,1.72,0.12
	c1.41,0.12,2.82,0.25,4.25,0.43l0.01-2.72l0.33-132.36c-0.01-3.29-2.69-5.99-5.98-5.98c-0.11,0-0.21,0.03-0.32,0.03
	c-0.11,0-0.21-0.03-0.32-0.03c-3.29-0.01-5.97,2.69-5.98,5.98l0.33,132.34L792.05,141.06z M976.51,356.88
	c-1.98,93.2-75.06,168.18-166.35,174.26c0.26,0.79,0.43,1.62,0.43,2.49v208.03c0,4.44-3.61,8.06-8.06,8.06
	c-4.44,0-8.06-3.62-8.06-8.06V533.63c0-0.74,0.13-1.44,0.32-2.12c-0.16,0-0.32,0-0.48,0c-98.53-2.09-176.72-83.66-174.63-182.19
	c2.09-98.53,83.66-176.73,182.19-174.64C900.41,176.77,978.59,258.35,976.51,356.88z M949.86,288.23
	c-6.89,78.35-73.5,138.98-153.3,137.29c-79.78-1.69-143.76-65.09-147.34-143.67c-9.24,19.93-14.6,42.05-15.1,65.42
	c-1.92,90.59,69.96,165.6,160.55,167.52c90.59,1.92,165.58-69.97,167.5-160.57C962.67,330.87,958.25,308.53,949.86,288.23z"/>
</svg>
