<?xml version="1.0" encoding="utf-8"?>
<!-- Generator: Adobe Illustrator 24.0.2, SVG Export Plug-In . SVG Version: 6.00 Build 0)  -->
<svg version="1.1" id="Слой_1" xmlns="http://www.w3.org/2000/svg" xmlns:xlink="http://www.w3.org/1999/xlink" x="0px" y="0px"
	 viewBox="0 0 725.75 2000" style="enable-background:new 0 0 725.75 2000;" xml:space="preserve">
<style type="text/css">
	.st0{fill:#FFFFFF;}
</style>
<path class="st0" d="M705.88,660.25c0-138.31-81.87-257.48-199.78-311.74c60.8,44.28,100.32,116.01,100.32,196.98
	c0,134.51-109.04,243.54-243.54,243.54S119.33,679.99,119.33,545.49c0-80.97,39.52-152.7,100.32-196.98
	C101.74,402.77,19.87,521.94,19.87,660.25c0,12,0.62,23.86,1.83,35.54c3.91,98.41,17.25,255.97,41.69,395.54
	c16.96,96.84,37.05,173.74,59.7,228.56c27.48,66.52,58.94,100.25,93.5,100.25c24.62,0,47.3-11.31,67.77-33.68
	c16.83,74.5,35.6,136.04,56.06,183.63c34.03,79.16,72.85,119.3,115.39,119.3c23.74,0,46.37-11.98,67.25-35.62
	c18.85-21.34,36.75-52.74,53.19-93.32c28.51-70.37,53.28-169.3,73.61-294.04c32.28-198.04,46.21-418.21,48.53-534.65
	C703.28,708.69,705.88,684.77,705.88,660.25z M387.76,1002.34c-5.67,55.9-13.81,114.16-25.05,168.48
	c-15.11,73.03-34.06,130.61-56.33,171.14c-5.8,10.55-11.82,19.92-18.05,28.12c-5.12-23.54-10.06-48.31-14.79-74.31
	c-19.2-105.33-32.87-219.23-41.55-318.4c40.33,16.67,84.53,25.88,130.88,25.88C371.24,1003.25,379.54,1002.93,387.76,1002.34z
	 M216.59,1412.71c-31.26,0-60.41-32.18-86.63-95.66c-22.44-54.32-42.38-130.7-59.25-227.01C50.49,974.63,37.89,846.91,31.95,750.7
	c27.31,100.13,98.83,182,192.3,223.35c8.68,100.32,22.49,216.1,41.98,323.04c5.15,28.24,10.53,55.04,16.12,80.4
	C262.4,1400.89,240.38,1412.71,216.59,1412.71z M642.53,1265.22c-44.44,272.63-109.01,416.74-186.72,416.74
	c-39.29,0-75.82-38.63-108.57-114.8c-20.77-48.32-39.81-111.25-56.84-187.7c7.84-9.62,15.35-20.92,22.49-33.92
	c22.63-41.18,41.83-99.45,57.09-173.21c11.38-55.01,19.61-114.04,25.3-170.61c68.35-6.41,130.87-32.87,181.61-73.44
	c3.95-0.51,7.21-3.24,8.44-6.97c48.43-41.31,85.23-95.84,104.79-158.03C686.16,884.84,672.03,1084.27,642.53,1265.22z
	 M336.15,664.37l21.05,11.51l-21.05,11.51l-11.51,21.05l-11.51-21.05l-21.05-11.51l21.05-11.51l11.51-21.05L336.15,664.37z
	 M279.4,534.67l-50.9-10.16l50.9-10.16l10.16-50.9l10.16,50.9l50.9,10.16l-50.9,10.16l-10.16,50.9L279.4,534.67z M408.44,642.49
	l6.5,49.37l6.5-49.37c3.07-23.27,14.83-41.27,29.98-45.85l29.42-8.9l-29.42-8.9c-15.15-4.58-26.91-22.58-29.98-45.85l-6.5-49.37
	l-6.5,49.37c-3.06,23.27-14.83,41.27-29.98,45.85l-29.42,8.9l29.42,8.9C393.61,601.23,405.38,619.22,408.44,642.49z M379.47,582.19
	c16.46-4.98,29.19-24.11,32.43-48.74l3.04-23.05l3.04,23.05c3.24,24.63,15.97,43.76,32.43,48.74l18.36,5.55l-18.36,5.55
	c-16.46,4.98-29.19,24.11-32.43,48.74l-3.04,23.05l-3.04-23.05c-3.24-24.63-15.97-43.76-32.43-48.74l-18.36-5.55L379.47,582.19z
	 M426.07,1767.61c2.8-4.96,9.09-6.72,14.05-3.92c4.96,2.79,6.72,9.09,3.92,14.05c-1.89,3.37-5.39,5.26-9,5.26
	c-1.72,0-3.45-0.43-5.05-1.33C425.03,1778.87,423.27,1772.58,426.07,1767.61z M255.6,1711.02c-1.89-5.38,0.93-11.27,6.31-13.16
	c5.37-1.89,11.26,0.92,13.15,6.3c1.89,5.37-0.93,11.27-6.3,13.16c-1.14,0.4-2.29,0.59-3.43,0.59
	C261.08,1717.9,257.09,1715.25,255.6,1711.02z M383.89,1828.51c-3.09-4.79-1.7-11.17,3.09-14.25c4.79-3.09,11.17-1.7,14.25,3.09
	c3.09,4.79,1.7,11.17-3.09,14.25c-1.72,1.11-3.66,1.64-5.57,1.64C389.18,1833.24,385.86,1831.58,383.89,1828.51z M560.27,1253.1
	c-0.56,5.29-5.03,9.22-10.24,9.22c-0.36,0-0.74-0.02-1.11-0.06c-5.66-0.6-9.77-5.69-9.17-11.35c0.61-5.66,5.69-9.77,11.36-9.17
	C556.77,1242.35,560.88,1247.43,560.27,1253.1z M572.77,1119.5c-0.44,5.4-4.95,9.48-10.27,9.48c-0.28,0-0.57-0.02-0.85-0.03
	c-5.68-0.46-9.91-5.45-9.45-11.13c0.46-5.68,5.45-9.9,11.13-9.44C569.01,1108.84,573.23,1113.82,572.77,1119.5z M458.86,1721.35
	c-5.35-1.96-8.09-7.89-6.12-13.24c1.96-5.35,7.89-8.09,13.24-6.12c5.35,1.96,8.1,7.9,6.12,13.25c-1.53,4.17-5.48,6.76-9.68,6.76
	C461.23,1721.99,460.03,1721.79,458.86,1721.35z M300.59,1764.36c2.65,5.04,0.71,11.27-4.33,13.93c-1.53,0.8-3.17,1.18-4.79,1.18
	c-3.71,0-7.3-2.01-9.14-5.51c-2.65-5.04-0.71-11.28,4.33-13.94C291.7,1757.37,297.94,1759.31,300.59,1764.36z M206.31,1457.07
	c-0.56,0.09-1.12,0.14-1.68,0.14c-4.96,0-9.34-3.6-10.17-8.66c-0.92-5.62,2.9-10.93,8.52-11.84c5.63-0.92,10.93,2.9,11.84,8.52
	C215.75,1450.85,211.94,1456.15,206.31,1457.07z M577.86,1052.58c-0.38,5.44-4.91,9.59-10.27,9.59c-0.25,0-0.49-0.01-0.74-0.03
	c-5.69-0.4-9.96-5.33-9.57-11.02c0.4-5.69,5.33-9.96,11.02-9.57C573.98,1041.97,578.25,1046.89,577.86,1052.58z M255.58,1640.87
	c1.49,5.5-1.76,11.17-7.25,12.66c-0.91,0.25-1.82,0.36-2.71,0.36c-4.55,0-8.71-3.02-9.95-7.61c-1.49-5.5,1.76-11.17,7.25-12.67
	C248.42,1632.13,254.09,1635.37,255.58,1640.87z M582.22,985.61c-0.33,5.48-4.88,9.71-10.29,9.71c-0.21,0-0.41-0.01-0.62-0.02
	c-5.69-0.34-10.03-5.22-9.68-10.91c0.34-5.69,5.22-10.03,10.91-9.68C578.23,975.04,582.57,979.92,582.22,985.61z M229.66,1588.83
	c-4.73,0-9-3.27-10.06-8.07c-1.24-5.57,2.26-11.08,7.82-12.31c5.56-1.24,11.08,2.27,12.31,7.83v-0.01
	c1.24,5.56-2.27,11.08-7.83,12.31C231.15,1588.74,230.4,1588.83,229.66,1588.83z M218.14,1523.02c-0.64,0.12-1.29,0.17-1.92,0.17
	c-4.86,0-9.19-3.45-10.13-8.4c-1.06-5.6,2.63-10.99,8.23-12.05c5.6-1.06,10.99,2.62,12.05,8.22
	C227.42,1516.56,223.74,1521.95,218.14,1523.02z M325.74,1829.77c-4.6-3.37-5.59-9.83-2.22-14.42c3.37-4.6,9.82-5.59,14.42-2.22
	c4.6,3.37,5.59,9.82,2.22,14.42c-2.02,2.76-5.15,4.22-8.33,4.22C329.71,1831.77,327.57,1831.11,325.74,1829.77z M185.57,1324.59
	c-5.12,0-9.56-3.81-10.22-9.02c-0.72-5.65,3.28-10.82,8.94-11.53c5.65-0.72,10.82,3.28,11.53,8.94c0.72,5.65-3.28,10.81-8.94,11.53
	C186.45,1324.57,186.01,1324.59,185.57,1324.59z M170.6,1191.48c-5.24,0-9.72-3.97-10.25-9.29c-0.57-5.67,3.56-10.72,9.24-11.29
	c5.66-0.56,10.72,3.57,11.28,9.24c0.56,5.67-3.57,10.73-9.24,11.29C171.29,1191.47,170.94,1191.48,170.6,1191.48z M177.65,1258.1
	c-5.18,0-9.65-3.89-10.23-9.16c-0.64-5.66,3.43-10.77,9.1-11.41c5.66-0.63,10.77,3.44,11.4,9.1c0.64,5.66-3.44,10.76-9.1,11.41
	C178.42,1258.08,178.04,1258.1,177.65,1258.1z M522.55,1519.16C522.55,1519.16,522.55,1519.16,522.55,1519.16
	c-0.92,4.95-5.26,8.41-10.13,8.41c-0.63,0-1.27-0.06-1.91-0.18c-5.6-1.05-9.28-6.44-8.24-12.04c1.06-5.6,6.45-9.28,12.05-8.24
	C519.92,1508.16,523.61,1513.55,522.55,1519.16z M492.66,1650.63c-1.27,4.56-5.41,7.55-9.94,7.55c-0.92,0-1.84-0.12-2.76-0.38
	c-5.49-1.53-8.71-7.21-7.17-12.7c1.53-5.5,7.21-8.71,12.7-7.18C490.98,1639.45,494.19,1645.14,492.66,1650.63z M204.73,1379.2
	c0.81,5.65-3.1,10.87-8.75,11.68c-0.49,0.07-0.99,0.11-1.48,0.11c-5.05,0-9.46-3.71-10.2-8.86c-0.8-5.64,3.11-10.87,8.76-11.68
	C198.7,1369.65,203.93,1373.57,204.73,1379.2z M566.94,1186.36c-0.5,5.35-5,9.36-10.27,9.36c-0.32,0-0.64-0.02-0.97-0.05
	c-5.68-0.53-9.85-5.55-9.31-11.23c0.52-5.67,5.55-9.84,11.22-9.31C563.29,1175.66,567.47,1180.68,566.94,1186.36z M552.68,1319.81
	c-0.64,5.23-5.08,9.07-10.23,9.07c-0.41,0-0.83-0.02-1.25-0.07c-5.66-0.69-9.69-5.83-9-11.49c0.68-5.65,5.83-9.68,11.48-9
	C549.34,1309.01,553.37,1314.16,552.68,1319.81z M509,1585.14C509,1585.14,509,1585.14,509,1585.14c-1.07,4.79-5.33,8.05-10.05,8.05
	c-0.75,0-1.51-0.08-2.27-0.26c-5.56-1.25-9.05-6.77-7.81-12.33h0.01c1.25-5.55,6.77-9.05,12.32-7.8
	C506.76,1574.05,510.26,1579.57,509,1585.14z M544.01,1386.42c-0.72,5.16-5.13,8.9-10.2,8.9c-0.47,0-0.96-0.03-1.44-0.1
	c-5.64-0.79-9.58-6-8.8-11.65c0.78-5.65,6-9.58,11.65-8.8C540.86,1375.56,544.79,1380.77,544.01,1386.42z M154.02,991.19
	c-5.39,0-9.93-4.18-10.28-9.63c-0.38-5.69,3.92-10.6,9.61-10.98c5.69-0.38,10.6,3.93,10.98,9.61c0.38,5.68-3.92,10.6-9.61,10.98
	C154.48,991.18,154.25,991.19,154.02,991.19z M534.07,1452.89c-0.82,5.07-5.2,8.68-10.18,8.68c-0.54,0-1.1-0.05-1.65-0.13
	c-5.62-0.91-9.45-6.21-8.55-11.83c0.91-5.63,6.2-9.45,11.83-8.55C531.14,1441.97,534.97,1447.26,534.07,1452.89z M158.82,1058.02
	c-5.33,0-9.85-4.12-10.28-9.52c-0.44-5.68,3.81-10.65,9.49-11.08c5.69-0.44,10.65,3.81,11.08,9.49c0.44,5.69-3.81,10.65-9.49,11.08
	C159.36,1058,159.09,1058.02,158.82,1058.02z M164.35,1124.79c-5.29,0-9.8-4.04-10.27-9.41c-0.49-5.68,3.7-10.68,9.38-11.18
	c5.67-0.5,10.68,3.7,11.18,9.37l-0.01-0.01c0.5,5.68-3.7,10.68-9.37,11.18C164.96,1124.77,164.65,1124.79,164.35,1124.79z
	 M244.4,224.58l90.99-11.15l-33.32-50.01l48.51,33.89L361.63,0l11.09,197.96L455,129.33l-66.74,84.54l92.08,10.71l-91.55,11.52
	l26.89,41.78l-42.48-26L362.1,449.85l-11.1-198.09l-77.77,75.94l62.42-92.04L244.4,224.58z M366.65,1891.46
	c39.45,0,72.53-27.18,81.59-63.82c1.6,6.48,2.47,13.26,2.47,20.24c0,46.43-37.64,84.06-84.06,84.06
	c-46.43,0-84.06-37.63-84.06-84.06c0-6.98,0.87-13.76,2.47-20.24C294.12,1864.28,327.21,1891.46,366.65,1891.46z M473.84,1951.79
	c1.41,1.41,1.41,3.71,0,5.12c-1.41,1.42-3.71,1.42-5.12,0l-35.84-35.84c1.83-1.58,3.6-3.22,5.32-4.92L473.84,1951.79z
	 M508.06,1905.28c-0.77,1.85-2.89,2.73-4.74,1.96l-45.28-18.76c1.06-2.17,2.04-4.38,2.94-6.63l45.11,18.7
	C507.95,1901.32,508.82,1903.44,508.06,1905.28z M429.4,1982.91c0.82,1.83-0.01,3.97-1.84,4.78c-1.83,0.81-3.97-0.01-4.78-1.84
	l-20.7-46.58c2.27-0.84,4.5-1.76,6.7-2.77L429.4,1982.91z M295.1,1916.15c1.72,1.7,3.49,3.34,5.32,4.92l-35.84,35.84
	c-1.41,1.42-3.71,1.42-5.12,0c-1.42-1.41-1.42-3.71,0-5.12L295.1,1916.15z M275.27,1888.49l-45.3,18.77
	c-1.85,0.76-3.97-0.11-4.73-1.96c-0.77-1.85,0.11-3.97,1.96-4.73l45.13-18.7C273.23,1884.12,274.21,1886.33,275.27,1888.49z
	 M324.54,1936.5c2.19,1,4.43,1.92,6.7,2.77l-20.7,46.58c-0.82,1.83-2.96,2.65-4.78,1.84c-1.83-0.81-2.65-2.95-1.83-4.78
	L324.54,1936.5z M366.65,1945.61c1.21,0,2.42-0.02,3.62-0.07v50.83c0,2-1.62,3.62-3.62,3.62c-2,0-3.62-1.63-3.62-3.62v-50.83
	C364.23,1945.59,365.44,1945.61,366.65,1945.61z"/>
</svg>
