<?xml version="1.0" encoding="utf-8"?>
<!-- Generator: Adobe Illustrator 24.0.2, SVG Export Plug-In . SVG Version: 6.00 Build 0)  -->
<svg version="1.1" id="Слой_1" xmlns="http://www.w3.org/2000/svg" xmlns:xlink="http://www.w3.org/1999/xlink" x="0px" y="0px"
	 viewBox="0 0 1377 2000" style="enable-background:new 0 0 1377 2000;" xml:space="preserve">
<style type="text/css">
	.st0{fill:#FFFFFF;}
</style>
<path class="st0" d="M1337.38,1014.48l-263.2,79.62c-160.13,48.43-284.54,238.69-316.95,484.72l-53.73,408.04
	c-2.31,17.54-27.69,17.54-30,0l-53.74-408.04c-32.4-246.02-156.8-436.28-316.95-484.72l-263.2-79.62
	c-14.33-4.33-14.33-24.63,0-28.96l263.2-79.61c160.14-48.44,284.55-238.7,316.95-484.72l53.74-408.03c2.31-17.54,27.69-17.54,30,0
	l53.73,408.03c32.41,246.02,156.81,436.28,316.95,484.72l263.2,79.61C1351.71,989.85,1351.71,1010.14,1337.38,1014.48z"/>
</svg>
