<?xml version="1.0" encoding="utf-8"?>
<!-- Generator: Adobe Illustrator 24.0.2, SVG Export Plug-In . SVG Version: 6.00 Build 0)  -->
<svg version="1.1" id="Слой_1" xmlns="http://www.w3.org/2000/svg" xmlns:xlink="http://www.w3.org/1999/xlink" x="0px" y="0px"
	 viewBox="0 0 2000 2000" style="enable-background:new 0 0 2000 2000;" xml:space="preserve">
<path d="M1531.43,1531.42l-370-246.88l39.71,197.96l-75.45-112.21L1000,2000l-125.21-627.36l-73.75,110.76l39.17-199.95
	l-371.64,247.97l246.88-370l-197.96,39.71l112.21-75.45L0,1000l627.36-125.21L516.6,801.04l199.95,39.17L468.58,468.58l370,246.88
	L798.87,517.5l75.45,112.21L1000,0l125.21,627.36l73.75-110.76l-39.17,199.95l371.64-247.97l-246.88,370l197.96-39.71l-112.21,75.45
	L2000,1000l-627.36,125.21l110.76,73.75l-199.95-39.17L1531.43,1531.42z"/>
</svg>
