<?xml version="1.0" encoding="utf-8"?>
<!-- Generator: Adobe Illustrator 24.0.2, SVG Export Plug-In . SVG Version: 6.00 Build 0)  -->
<svg version="1.1" id="Слой_1" xmlns="http://www.w3.org/2000/svg" xmlns:xlink="http://www.w3.org/1999/xlink" x="0px" y="0px"
	 viewBox="0 0 1661 2000" style="enable-background:new 0 0 1661 2000;" xml:space="preserve">
<style type="text/css">
	.st0{fill:#DBAC4B;}
</style>
<path class="st0" d="M562.46,263.81c-0.34-0.34-0.34-0.89,0-1.22c0.34-0.34,0.89-0.34,1.22,0l9.52,9.52c0.34,0.34,0.34,0.89,0,1.22
	c-0.34,0.34-0.89,0.34-1.22,0L562.46,263.81z M595.56,296.91c0.34,0.34,0.89,0.34,1.22,0c0.34-0.34,0.34-0.89,0-1.22l-9.52-9.52
	c-0.34-0.34-0.89-0.34-1.22,0c-0.34,0.34-0.34,0.89,0,1.22L595.56,296.91z M587.27,273.33l9.52-9.52c0.34-0.34,0.34-0.89,0-1.22
	c-0.34-0.34-0.89-0.34-1.22,0l-9.52,9.52c-0.34,0.34-0.34,0.89,0,1.22C586.38,273.66,586.93,273.66,587.27,273.33z M563.69,296.91
	l9.52-9.52c0.34-0.34,0.34-0.89,0-1.22c-0.34-0.34-0.89-0.34-1.22,0l-9.52,9.52c-0.34,0.34-0.34,0.89,0,1.22
	C562.8,297.24,563.35,297.24,563.69,296.91z M588.65,332.16c-0.4,0.4-0.4,1.06,0,1.47l11.42,11.42c0.4,0.4,1.06,0.4,1.47,0
	c0.4-0.4,0.4-1.06,0-1.47l-11.42-11.42C589.71,331.76,589.05,331.76,588.65,332.16z M628.37,373.34c0.4,0.4,1.06,0.4,1.47,0
	c0.4-0.4,0.4-1.06,0-1.47l-11.42-11.42c-0.4-0.4-1.06-0.4-1.47,0c-0.4,0.4-0.4,1.06,0,1.47L628.37,373.34z M618.41,345.05
	l11.42-11.42c0.4-0.4,0.4-1.06,0-1.47c-0.4-0.4-1.06-0.4-1.47,0l-11.42,11.42c-0.4,0.4-0.4,1.06,0,1.47
	C617.35,345.45,618.01,345.45,618.41,345.05z M600.07,360.46l-11.42,11.42c-0.4,0.4-0.4,1.06,0,1.47c0.4,0.4,1.06,0.4,1.47,0
	l11.42-11.42c0.4-0.4,0.4-1.06,0-1.47C601.13,360.05,600.48,360.05,600.07,360.46z M641.53,291.26c0.24,0.24,0.64,0.24,0.89,0
	s0.24-0.64,0-0.89l-6.92-6.92c-0.24-0.24-0.64-0.24-0.89,0c-0.24,0.24-0.24,0.64,0,0.89L641.53,291.26z M658.68,308.41
	c0.24,0.24,0.64,0.24,0.89,0c0.24-0.24,0.24-0.64,0-0.89l-6.92-6.92c-0.24-0.24-0.64-0.24-0.89,0c-0.24,0.24-0.24,0.64,0,0.89
	L658.68,308.41z M652.65,291.26l6.92-6.92c0.24-0.24,0.24-0.64,0-0.89c-0.24-0.24-0.64-0.24-0.89,0l-6.92,6.92
	c-0.24,0.24-0.24,0.64,0,0.89C652,291.51,652.4,291.51,652.65,291.26z M635.5,308.41l6.92-6.92c0.24-0.24,0.24-0.64,0-0.89
	c-0.24-0.24-0.64-0.24-0.89,0l-6.92,6.92c-0.24,0.24-0.24,0.64,0,0.89C634.85,308.66,635.25,308.66,635.5,308.41z M1015.71,771.21
	c0,1.5,1.22,2.72,2.72,2.72c1.5,0,2.72-1.22,2.72-2.72c0-1.5-1.22-2.72-2.72-2.72C1016.93,768.49,1015.71,769.71,1015.71,771.21z
	 M1053.86,772.52c0.72,0,1.31-0.59,1.31-1.31c0-0.72-0.59-1.31-1.31-1.31h-20.38c-0.72,0-1.31,0.59-1.31,1.31
	c0,0.72,0.59,1.31,1.31,1.31H1053.86z M1004.68,771.21c0-0.72-0.59-1.31-1.31-1.31H983c-0.72,0-1.31,0.59-1.31,1.31
	c0,0.72,0.59,1.31,1.31,1.31h20.38C1004.1,772.52,1004.68,771.93,1004.68,771.21z M1017.12,786.33v37.93c0,0.75,0.59,1.37,1.31,1.37
	c0.72,0,1.31-0.62,1.31-1.37v-37.93c0-0.75-0.59-1.37-1.31-1.37C1017.71,784.96,1017.12,785.58,1017.12,786.33z M1017.12,720.07
	v36.09c0,0.72,0.59,1.31,1.31,1.31c0.72,0,1.31-0.59,1.31-1.31v-36.09c0-0.72-0.59-1.31-1.31-1.31
	C1017.71,718.76,1017.12,719.35,1017.12,720.07z M1023.79,777.6l7.95,7.95c0.28,0.28,0.74,0.28,1.02,0c0.28-0.28,0.28-0.74,0-1.02
	l-7.95-7.95c-0.28-0.28-0.74-0.28-1.02,0S1023.51,777.32,1023.79,777.6z M1013.07,764.83l-7.95-7.95c-0.28-0.28-0.74-0.28-1.02,0
	c-0.28,0.28-0.28,0.74,0,1.02l7.95,7.95c0.28,0.28,0.74,0.28,1.02,0C1013.35,765.57,1013.35,765.11,1013.07,764.83z M1005.12,785.55
	l7.95-7.95c0.28-0.28,0.28-0.74,0-1.02c-0.28-0.28-0.74-0.28-1.02,0l-7.95,7.95c-0.28,0.28-0.28,0.74,0,1.02
	C1004.38,785.83,1004.83,785.83,1005.12,785.55z M1024.81,765.85l7.95-7.95c0.28-0.28,0.28-0.74,0-1.02c-0.28-0.28-0.74-0.28-1.02,0
	l-7.95,7.95c-0.28,0.28-0.28,0.74,0,1.02C1024.07,766.13,1024.53,766.13,1024.81,765.85z M844.17,101.28
	c1.67,0.77,3.66,0.04,4.43-1.63l3.47-7.48c0.77-1.67,0.04-3.66-1.63-4.43c-1.67-0.77-3.66-0.04-4.43,1.63l-3.47,7.48
	C841.77,98.51,842.5,100.51,844.17,101.28z M814.85,172.52l3.47-7.48c0.77-1.67,0.04-3.66-1.63-4.43c-1.67-0.77-3.66-0.04-4.43,1.63
	l-3.47,7.48c-0.77,1.67-0.04,3.66,1.63,4.43C812.08,174.91,814.08,174.18,814.85,172.52z M788.73,115.62l7.48,3.47
	c1.67,0.77,3.66,0.04,4.43-1.63c0.77-1.67,0.04-3.66-1.63-4.43l-7.48-3.47c-1.67-0.77-3.66-0.04-4.43,1.63
	C786.34,112.85,787.07,114.84,788.73,115.62z M869.08,152.83c1.67,0.77,3.66,0.04,4.43-1.63c0.77-1.67,0.04-3.66-1.63-4.43
	l-7.48-3.47c-1.67-0.77-3.66-0.04-4.43,1.63s-0.04,3.66,1.63,4.43L869.08,152.83z M812.52,99.56c0.76,1.67,2.74,2.42,4.42,1.67
	c1.67-0.76,2.42-2.74,1.67-4.42l-3.4-7.51c-0.76-1.67-2.74-2.42-4.42-1.67c-1.67,0.76-2.42,2.74-1.67,4.42L812.52,99.56z
	 M850.01,174.4c1.67-0.76,2.42-2.74,1.67-4.42l-3.4-7.51c-0.76-1.67-2.74-2.42-4.42-1.67c-1.67,0.76-2.42,2.74-1.67,4.42l3.4,7.51
	C846.35,174.41,848.33,175.16,850.01,174.4z M791.55,152.55l7.51-3.4c1.67-0.76,2.42-2.74,1.67-4.42c-0.76-1.67-2.74-2.42-4.42-1.67
	l-7.51,3.4c-1.67,0.76-2.42,2.74-1.67,4.42C787.89,152.55,789.87,153.3,791.55,152.55z M864.72,119.48l7.51-3.4
	c1.67-0.76,2.42-2.74,1.67-4.42c-0.76-1.67-2.74-2.42-4.42-1.67l-7.51,3.4c-1.67,0.76-2.42,2.74-1.67,4.42
	C861.06,119.48,863.05,120.23,864.72,119.48z M820.97,140.68c0.67,0.67,2.13,4.15,3.25,9.34c1.27,6.85,2.37,69.95,6.27,117.79
	c3.9-47.84,5-110.95,6.27-117.8c1.12-5.19,2.58-8.67,3.25-9.34c0.67-0.67,4.15-2.13,9.34-3.25c6.85-1.27,15.16-2.37,63-6.28
	c-47.84-3.91-56.15-5.01-63-6.27c-5.19-1.12-8.67-2.58-9.34-3.25c-0.67-0.67-2.13-4.15-3.25-9.34C835.5,105.44,834.4,47.84,830.5,0
	c-3.9,47.84-5.01,105.44-6.27,112.28c-1.12,5.19-2.58,8.67-3.25,9.34c-0.67,0.67-4.15,2.13-9.34,3.25c-6.85,1.27-15.16,2.37-63,6.27
	c47.84,3.91,56.15,5.01,63,6.28C816.83,138.54,820.31,140.01,820.97,140.68z M817.27,810.59l-1.72-13.08
	c-0.07-0.56-0.89-0.56-0.96,0l-1.72,13.08c-1.04,7.88-5.02,13.98-10.16,15.53l-8.43,2.55c-0.46,0.14-0.46,0.79,0,0.93l8.43,2.55
	c5.13,1.55,9.12,7.65,10.16,15.53l1.72,13.08c0.07,0.56,0.89,0.56,0.96,0l1.72-13.08c1.04-7.88,5.03-13.98,10.16-15.53l8.43-2.55
	c0.46-0.14,0.46-0.79,0-0.93l-8.43-2.55C822.3,824.57,818.31,818.47,817.27,810.59z M911.97,989.14
	c-44.28-3.61-51.97-4.63-58.31-5.81c-1.68-0.36-3.16-0.76-4.41-1.16c2.77-3.97,7.12-9.5,27.95-34.04
	c-24.53,20.83-30.07,25.18-34.04,27.95c-0.4-1.25-0.8-2.73-1.16-4.41c-1.17-6.34-2.19-14.03-5.81-58.31
	c-3.61,44.28-4.63,51.97-5.81,58.31c-0.36,1.68-0.76,3.16-1.16,4.41c-3.97-2.77-9.5-7.12-34.04-27.95
	c20.83,24.53,25.18,30.07,27.95,34.03c-1.25,0.4-2.73,0.8-4.41,1.16c-6.34,1.17-14.03,2.19-58.31,5.81
	c44.28,3.62,51.97,4.63,58.31,5.81c1.68,0.36,3.16,0.76,4.41,1.16c-2.77,3.97-7.12,9.5-27.95,34.04
	c24.54-20.83,30.07-25.18,34.04-27.95c0.4,1.25,0.8,2.73,1.16,4.41c1.17,6.34,2.19,14.03,5.81,58.31
	c3.61-44.28,4.63-51.97,5.81-58.31c0.36-1.68,0.76-3.16,1.16-4.41c3.97,2.77,9.5,7.12,34.04,27.95
	c-20.83-24.53-25.18-30.07-27.95-34.04c1.25-0.4,2.73-0.8,4.41-1.16C860,993.77,867.7,992.75,911.97,989.14z M971.56,316.67
	c15.35-41.44,5.43-31.52,46.87-46.87c-41.44-15.35-31.52-5.43-46.87-46.87c-15.35,41.44-5.43,31.52-46.87,46.87
	C966.13,285.15,956.21,275.23,971.56,316.67z M737.57,243.97c-11.71-25.5-11.71-16.59,0-42.09c-25.5,11.71-16.59,11.71-42.09,0
	c11.71,25.5,11.71,16.59,0,42.09C720.98,232.26,712.07,232.26,737.57,243.97z M952.38,934.42c-11.71-25.5-11.71-16.59,0-42.09
	c-25.5,11.71-16.59,11.71-42.09,0c11.71,25.5,11.71,16.59,0,42.09C935.78,922.7,926.88,922.7,952.38,934.42z M722.75,922.88
	c4.99-31.92,7.2-34.69,9.13-37.74c3.05-1.93,5.83-4.14,37.74-9.13c-31.92-4.99-34.69-7.2-37.74-9.13
	c-1.93-3.05-4.14-5.83-9.13-37.74c-4.99,31.92-7.2,34.69-9.13,37.74c-3.05,1.93-5.83,4.14-37.74,9.13
	c31.92,4.99,34.69,7.2,37.74,9.13C715.56,888.19,717.76,890.97,722.75,922.88z M1652.01,1178.49
	c0,453.71-367.8,821.51-821.51,821.51c-453.7,0-821.51-367.8-821.51-821.51c0-78.37,11-154.16,31.51-225.95
	c-1.12,17.21-1.69,34.57-1.69,52.06c0,199.29,73.64,381.37,195.19,520.54c15.45-15.13,29.91-27.48,42.96-38.62
	c44.37-37.91,68.81-58.79,53.59-119.66c-8.18-32.76-20.96-62.99-33.31-92.23c-19.81-46.87-36.9-87.35-29.36-124.56
	c12.09-59.59,24.72-154.25,16.99-177.01c-8.32-24.48-12.94-68.41-14.39-98.59c-1.22-25.66-13.76-79.15-22.06-114.55l-1.85-7.91
	c-0.88-3.78-1.71-7.28-2.49-10.5c-5.03-21.06-7.11-29.78-2.99-34.44c2.78-3.15,7.37-2.64,8.88-2.47
	c11.87,1.32,48.27,16.7,63.72,45.2c15.31,28.26,36.44,91.14,41.61,113.13c0.39,1.63,0.77,3.46,1.17,5.44
	c8.75-10.97,28.3-35.76,33.19-44.2c6.91-11.94,30.07-43.86,49.73-62.32c4.06-3.81,8.42-8.16,12.64-12.36
	c17.82-17.77,29.24-28.54,37.37-28.07c2.23,0.13,4.15,1.11,5.54,2.84c9.53,11.9,7.87,32.52-4.91,61.29
	c-10.85,24.41-32.41,57.4-45.28,77.12c-4.21,6.44-7.54,11.54-9.39,14.62c-5.63,9.39-19.88,35.96-28.26,52.74
	c15.86-14.7,43.47-40.2,52.54-48.03c12.91-11.15,78.34-66.46,87.17-73.53c3.8-3.03,9.44-6.85,14.6-4.92
	c3.83,1.44,6.33,5.6,7.63,12.73c2.55,14.03-4.19,37.67-12.18,52.41c-6.08,11.24-31.22,35.5-46.51,50.1
	c-0.86,0.82-1.69,1.61-2.48,2.36c-1.97,1.88-3.71,3.53-5.11,4.88c-1.11,1.07-2.02,1.96-2.66,2.6c-7.26,7.31-44.16,60.65-49.35,69.3
	c-0.44,0.74-1.61,3.09-4.18,10.42c0.83-0.67,1.69-1.36,2.55-2.06c16.89-13.67,29.02-23.45,31.36-24.82c0.9-0.63,4.8-4.83,8.57-8.89
	c8.38-9.04,19.86-21.4,29.07-28.5c0.48-0.38,0.99-0.76,1.51-1.18c2.4-1.89,5.18-4.17,8.17-6.66c2.14-1.79,4.41-3.67,6.7-5.6
	c18-15.1,31.21-25.91,37.2-27.4c3.53-0.88,6.72-0.13,9.25,2.15c4.47,4.06,5.57,11.93,4.68,17.94c-1.21,8.18-5,24.14-16.73,39.09
	c-1.88,2.39-4.22,5.13-6.85,8.08c-2.21,2.47-4.61,5.07-7.12,7.72c-12.23,12.94-26.79,26.91-31.38,30.85
	c-3.02,2.58-8.13,10.33-13.53,18.53c-4.8,7.28-10.24,15.53-15.38,21.92c-10.41,12.94-15.36,24.82-17.1,41.02
	c-0.35,3.28-0.71,6.3-1.05,9.07c-0.52,4.15-1.03,7.72-1.5,10.72c-0.77,4.89-1.45,8.27-1.95,10.14c-0.24,3.36,3,29.09,4.74,42.96
	c0.43,3.42,0.79,6.26,1.08,8.6c0.76,6.14,1.07,8.87,1.07,9.68v0.8c0.89,0.33,1.82,0.67,2.79,1.01c10.15,3.58,23.66,7.4,26.6,6.69
	c0.21-0.14,0.69-0.48,1.41-0.99c2.02-1.45,5.93-4.33,11.02-8.46c9.82-7.99,23.99-20.61,37.3-36.47c2.32-2.76,4.6-5.62,6.84-8.57
	c1.57-2.06,3.11-4.18,4.61-6.34c8.26-11.82,16.82-22,25.81-30.62c2.67-2.55,5.37-4.96,8.11-7.24c12.61-10.48,26.08-18.1,40.73-23.09
	c3.77-1.28,7.61-2.39,11.53-3.31c3.69-0.89,7.45-1.62,11.29-2.2c12.25-1.86,23.76-2.74,34.15-2.68c4.56,0.03,8.89,0.22,12.99,0.61
	c13.82,1.28,24.8,4.58,31.65,9.78c3.15,2.4,6.16,5.26,8.82,8.29c7.82,8.86,12.81,19.18,10.44,23.48c-0.09,0.16-0.18,0.31-0.27,0.47
	c-3.11,5.25-8.62,7.92-16.03,10.28c-2.69,0.85-5.64,1.66-8.83,2.53c-0.58,0.16-1.17,0.32-1.77,0.48
	c-5.64,1.55-11.95,3.36-18.81,5.96l-3.19,1.2c-0.55,0.21-1.09,0.41-1.63,0.61c-3.78,1.44-7.32,2.79-10.7,4.15
	c-9.23,3.71-17.24,7.42-25.63,12.91c-2.97,1.94-5.99,4.1-9.13,6.56c-1.14,0.9-2.29,1.83-3.46,2.81
	c-7.55,6.29-13.08,11.84-18.13,18.72c-2.02,2.72-3.96,5.65-5.91,8.93c-3.91,6.54-7.93,14.43-12.83,24.72
	c-1.23,2.6-2.53,5.37-3.9,8.3c-0.22,0.48-0.45,0.98-0.68,1.48c-3.68,8.02-8.26,19.07-13.47,31.83c-1.21,2.96-2.46,6.01-3.73,9.14
	c-0.19,0.46-0.37,0.92-0.57,1.37c-4.9,12.03-10.3,25.27-15.98,38.71c-1.66,3.9-3.33,7.82-5.03,11.73
	c-8.38,19.35-17.22,38.54-25.93,54.65c-2.92,5.42-5.82,10.49-8.69,15.09c-1.99,3.19-3.95,6.16-5.89,8.87
	c-10.99,15.39-111.28,151.25-188.33,255.61C489.48,1738,653.18,1796.3,830.5,1796.3c179.04,0,344.19-59.44,476.81-159.65
	c-74.15-100.57-173.76-236.07-185.65-252.73c-3.42-4.79-6.93-10.38-10.46-16.57c-2.61-4.54-5.23-9.4-7.86-14.49
	c-7.48-14.5-15.01-30.96-22.18-47.55c-1.7-3.91-3.37-7.83-5.03-11.73c-5.68-13.43-11.08-26.67-15.98-38.71
	c-0.19-0.47-0.38-0.92-0.57-1.38c-1.27-3.12-2.52-6.17-3.72-9.14c-5.21-12.76-9.79-23.81-13.47-31.84c-0.23-0.5-0.46-1-0.68-1.47
	c-1.36-2.93-2.67-5.7-3.9-8.3c-5.68-11.94-10.19-20.67-14.73-27.79c-2.03-3.2-4.07-6.07-6.24-8.76c-4.47-5.59-9.44-10.44-15.9-15.81
	c-1.18-0.99-2.34-1.92-3.48-2.82c-3.13-2.46-6.15-4.62-9.11-6.56c-8.4-5.49-16.41-9.21-25.65-12.91c-3.37-1.36-6.92-2.7-10.7-4.15
	c-0.53-0.2-1.07-0.39-1.61-0.6l-3.19-1.21c-6.87-2.61-13.18-4.41-18.83-5.97c-0.59-0.16-1.18-0.31-1.75-0.48
	c-3.2-0.87-6.15-1.69-8.85-2.54c-7.62-2.41-13.22-5.18-16.28-10.73c-0.88-1.61-0.74-4.05,0.19-6.94c0.38-1.17,0.88-2.41,1.5-3.71
	c3.36-7,10.04-15.41,17.57-21.13c6.86-5.2,17.81-8.5,31.63-9.78c4.09-0.38,8.44-0.58,12.99-0.61c10.38-0.05,21.9,0.83,34.17,2.68
	c3.83,0.58,7.59,1.31,11.28,2.19c3.92,0.93,7.76,2.04,11.52,3.32c14.65,4.98,28.13,12.6,40.73,23.08c2.75,2.28,5.44,4.69,8.1,7.23
	c9,8.62,17.56,18.81,25.83,30.64c0.49,0.71,1,1.42,1.5,2.12c2.13,2.96,4.32,5.84,6.54,8.62c14.25,17.82,30.04,31.96,40.7,40.62
	c5.07,4.13,8.98,7.01,11.01,8.47c0.73,0.51,1.22,0.85,1.43,1c2.95,0.72,16.54-3.13,26.71-6.72c0.92-0.33,1.82-0.66,2.68-0.98v-0.8
	c0-0.82,0.31-3.55,1.08-9.7c0.29-2.33,0.65-5.17,1.07-8.58c1.74-13.87,4.98-39.6,4.74-42.96c-0.7-2.64-1.78-8.33-2.95-17.05
	c-0.42-3.2-0.87-6.82-1.32-10.85c-0.07-0.66-0.15-1.35-0.22-2.04c-1.73-16.2-6.69-28.08-17.1-41.02
	c-5.14-6.39-10.58-14.64-15.38-21.92c-5.4-8.2-10.52-15.95-13.53-18.53c-4.59-3.94-19.15-17.91-31.39-30.85
	c-2.49-2.65-4.91-5.26-7.12-7.73c-2.63-2.94-4.96-5.68-6.84-8.07c-11.73-14.95-15.52-30.91-16.73-39.09
	c-0.89-6.01,0.22-13.88,4.68-17.94c2.53-2.3,5.73-3.03,9.25-2.15c5.99,1.49,19.2,12.3,37.2,27.39c2.3,1.93,4.55,3.82,6.7,5.6
	c3,2.49,5.77,4.77,8.18,6.67c0.52,0.41,1.02,0.8,1.51,1.18c9.21,7.1,20.69,19.47,29.07,28.5c3.77,4.07,7.66,8.27,8.62,8.93
	c2.28,1.35,14.43,11.14,31.34,24.82c0.85,0.68,1.69,1.36,2.51,2.03c-2.58-7.33-3.74-9.68-4.18-10.42
	c-5.19-8.64-42.08-61.99-49.35-69.3c-0.64-0.65-1.54-1.53-2.66-2.6c-1.4-1.36-3.14-3.01-5.11-4.88c-0.79-0.75-1.62-1.55-2.49-2.37
	c-15.28-14.6-40.41-38.87-46.5-50.1c-7.99-14.74-14.73-38.38-12.18-52.41c1.3-7.13,3.8-11.3,7.63-12.73
	c5.17-1.93,10.81,1.88,14.6,4.92c8.84,7.07,74.27,62.39,87.17,73.53c9.06,7.83,36.68,33.33,52.54,48.03
	c-8.38-16.77-22.63-43.36-28.26-52.74c-1.85-3.09-5.18-8.18-9.39-14.63c-12.88-19.71-34.43-52.7-45.28-77.11
	c-12.78-28.76-14.43-49.39-4.91-61.29c1.38-1.73,3.3-2.72,5.54-2.84c0.16-0.01,0.33-0.02,0.5-0.02c8.09,0,19.4,10.68,36.87,28.09
	c4.22,4.2,8.58,8.54,12.64,12.36c19.65,18.46,42.82,50.38,49.73,62.32c4.89,8.44,24.44,33.22,33.19,44.2
	c0.39-1.98,0.78-3.81,1.17-5.44c5.18-21.99,26.3-84.88,41.61-113.13c15.44-28.5,51.85-43.89,63.72-45.2
	c1.52-0.17,6.1-0.68,8.88,2.47c4.12,4.67,2.04,13.38-2.99,34.44c-0.77,3.22-1.61,6.72-2.49,10.5l-1.86,7.92
	c-8.29,35.39-20.83,88.87-22.05,114.53c-1.44,30.18-6.07,74.12-14.39,98.59c-7.73,22.75,4.9,117.42,16.99,177.01
	c7.55,37.22-9.56,77.7-29.36,124.56c-12.35,29.24-25.13,59.47-33.31,92.23c-15.22,60.87,9.22,81.76,53.59,119.66
	c12.05,10.29,25.3,21.62,39.43,35.2c119.77-138.72,192.21-319.46,192.21-517.12c0-17.49-0.57-34.85-1.69-52.06
	C1641,1024.33,1652.01,1100.12,1652.01,1178.49z M358.01,876.53c1.33,7.59,2.75,16.61,4.28,26.42c4.07,25.93,8.68,55.3,14.31,74.53
	c2.31,7.88,5.39,18.76,8.84,30.96c2.85-22.38,7.84-60.8,9.23-66.13c0-0.01,0-0.01,0-0.01c0.01-0.04,0.02-0.08,0.03-0.12
	c2-7.33,28.39-56.62,35.29-68.13c1.9-3.19,5.27-8.33,9.51-14.83c12.78-19.56,34.16-52.28,44.8-76.23
	c11.59-26.08,13.58-45.03,5.75-54.82c-0.27-0.34-0.53-0.47-0.99-0.49c-5.91-0.31-20.7,14.4-32.59,26.24
	c-4.24,4.24-8.64,8.62-12.76,12.49c-18.94,17.78-42.04,49.55-48.6,60.88C389.09,837.7,363.27,869.98,358.01,876.53z M352.5,1635.74
	c77.64-105.14,177.22-240.06,188.23-255.48c0.18-0.26,0.37-0.51,0.56-0.78c3.19-4.52,6.45-9.76,9.76-15.55
	c9.21-16.09,18.74-36.36,27.79-57.1c1.71-3.9,3.4-7.83,5.06-11.74c5.92-13.88,11.56-27.66,16.68-40.22
	c0.51-1.27,1.02-2.51,1.53-3.74c0.93-2.31,1.86-4.57,2.76-6.78c5.37-13.14,10.1-24.61,13.94-33.12c0.46-0.99,0.89-1.94,1.31-2.84
	c1.13-2.41,2.21-4.72,3.26-6.93c5.04-10.63,9.22-18.9,13.3-25.8c1.93-3.27,3.83-6.23,5.8-8.98c5.61-7.9,11.68-14.12,20.09-21.12
	c0.66-0.56,1.33-1.1,1.98-1.62c3.09-2.49,6.05-4.7,8.94-6.7c8.86-6.08,17.12-10.11,26.5-13.96c3.38-1.39,6.91-2.76,10.66-4.18
	c1.39-0.54,2.81-1.08,4.26-1.62l3.18-1.21c6.33-2.41,12.13-4.12,17.4-5.59c1.28-0.36,2.53-0.7,3.75-1.03
	c2.46-0.67,4.76-1.3,6.87-1.94c6.98-2.09,12.03-4.23,14.29-8.09c0.13-2.67-5.7-15.05-17.44-23.94c-5.21-3.95-13.23-6.65-23.39-8.05
	c-4.09-0.57-8.54-0.92-13.29-1.06c-11.02-0.32-23.67,0.53-37.36,2.6c-2.36,0.36-4.68,0.77-6.98,1.24
	c-4.02,0.83-7.95,1.85-11.79,3.05c-14.48,4.52-27.77,11.7-40.21,21.75c-2.78,2.24-5.52,4.63-8.21,7.17
	c-9.09,8.53-17.72,18.71-26.06,30.65c-1.22,1.75-2.47,3.47-3.74,5.17c-2.19,2.94-4.45,5.82-6.76,8.6
	c-12.09,14.63-25.24,26.96-35.45,35.63c-4.08,3.46-7.7,6.35-10.6,8.55c-3.2,2.43-5.52,4.04-6.61,4.71
	c-1.92,1.18-5.47,1.76-18.42-1.91c-7.35-2.08-15.05-4.81-18.42-6.13c-0.01-0.01-0.01-0.01-0.02-0.01h-0.01
	c-13.19-5.28-43.27-17.66-43.56-17.79c-1.61-0.66-2.37-2.49-1.71-4.1c0.66-1.6,2.5-2.37,4.1-1.7c0.2,0.08,13.39,5.51,26.12,10.71
	c4.58,1.87,9.09,3.71,12.92,5.25c-0.22-1.99-0.64-5.39-1.12-9.24c-0.25-2.08-0.53-4.3-0.81-6.49c-4.25-33.77-5.2-43.08-4.61-45.24
	c0.42-1.55,1.17-5.15,2.07-11.07c0.45-2.98,0.94-6.56,1.44-10.75c0.28-2.25,0.56-4.69,0.83-7.31c1.88-17.49,7.22-30.32,18.44-44.28
	c4.96-6.17,10.31-14.28,15.03-21.44c5.91-8.96,11-16.69,14.69-19.85c4.54-3.89,18.99-17.76,31.04-30.51
	c2.51-2.66,4.91-5.27,7.11-7.73c2.43-2.74,4.59-5.29,6.34-7.52c10.84-13.8,14.33-28.57,15.45-36.13c0.74-4.99-0.41-10.3-2.68-12.36
	c-0.95-0.87-2.04-1.09-3.52-0.72c-5.03,1.26-22.18,15.62-34.69,26.12c-2.14,1.8-4.25,3.57-6.27,5.25c-2.95,2.46-5.72,4.74-8.16,6.68
	c-0.74,0.59-1.46,1.16-2.14,1.68c-8.79,6.78-20.52,19.42-28.3,27.79c-6.41,6.92-8.6,9.22-9.98,10.03
	c-2.12,1.25-18.58,14.57-30.6,24.29c-3.7,3-7.22,5.84-10.21,8.26c-6.22,19.24-13.64,45.08-17.28,59.62
	c-1.3,5.18-2.12,8.93-2.23,10.44v0.04c-0.5,7.61,6.13,15.35,9.32,19.07c1.13,1.32,0.98,3.3-0.34,4.43
	c-0.58,0.51-1.31,0.75-2.04,0.75c-0.89,0-1.77-0.37-2.39-1.1c-3.73-4.35-11.5-13.41-10.81-23.58c0.04-0.5,0.13-1.19,0.27-2.05
	c0.41-2.35,1.23-5.95,2.35-10.39c3.93-15.68,11.52-41.8,17.44-60.02c0.01,0,0.01,0,0.01,0c0-0.02,0.01-0.03,0.01-0.04
	c3.87-11.91,6.63-19.29,8.2-21.9c5.48-9.14,42.26-62.43,50.27-70.49c0.66-0.67,1.57-1.55,2.67-2.62c1.44-1.38,3.2-3.07,5.21-4.99
	c0.74-0.71,1.53-1.46,2.37-2.25c14.25-13.61,39.8-38.27,45.43-48.66c7.33-13.54,13.71-36.18,11.51-48.29
	c-1.17-6.4-2.93-7.71-3.64-7.97c-0.91-0.34-3.21-0.28-8.48,3.94c-8.8,7.04-74.09,62.25-86.98,73.37
	c-12.02,10.37-57.01,52.18-63.19,57.91c-1.73,8.44-8.2,58.95-10.75,79.3c0.4,1.43,0.81,2.86,1.21,4.31
	c3.94,13.99,8.1,28.81,11.75,41.56c1.31,4.59,2.56,8.91,3.69,12.82c2.86,9.86,5.06,17.16,6.05,19.78l4,10.66
	c0.61,1.62-0.22,3.44-1.84,4.05c-1.62,0.61-3.44-0.22-4.05-1.84l-3.99-10.66c-1.2-3.19-3.98-12.52-7.57-24.98
	c-1.15-3.98-2.39-8.28-3.67-12.82c-3.25-11.41-6.85-24.22-10.41-36.88c-0.47-1.65-0.92-3.28-1.39-4.92c0,0,0,0,0-0.01
	c-5.09-18.09-9.82-34.86-13.02-45.8c-5.74-19.63-10.38-49.22-14.48-75.32c-2.59-16.55-4.84-30.84-6.89-39.57
	c-4.97-21.14-26.2-84.22-41.02-111.58c-14.13-26.09-48.29-40.77-58.89-41.95c-1.79-0.2-3.09-0.05-3.48,0.38
	c-1.96,2.23,0.84,13.96,4.4,28.83c0.77,3.24,1.61,6.74,2.49,10.54l1.85,7.9c8.35,35.62,20.96,89.45,22.22,115.69
	c1.42,29.77,5.94,73.01,14.05,96.87c8.44,24.89-5.02,122.29-16.78,180.28c-7.16,35.31,9.58,74.96,28.99,120.88
	c12.45,29.45,25.32,59.92,33.62,93.15c7.61,30.45,6.02,52.99-5.17,73.1c-10.37,18.64-28.05,33.74-50.43,52.87
	c-13.03,11.13-27.49,23.49-42.89,38.58C272.68,1568.79,310.99,1604.26,352.5,1635.74z M1272.82,942.19
	c1.33,4.89,6.38,43.71,9.25,66.26c3.45-12.21,6.53-23.08,8.84-30.96c5.63-19.23,10.24-48.61,14.3-74.52
	c1.54-9.82,2.96-18.84,4.29-26.44c-5.26-6.54-31.08-38.82-37.1-49.22c-6.56-11.33-29.66-43.1-48.6-60.88
	c-4.12-3.88-8.52-8.26-12.76-12.49c-11.75-11.7-26.34-26.25-32.39-26.25c-0.06,0-0.13,0.01-0.2,0.01c-0.46,0.03-0.72,0.15-0.99,0.49
	c-7.83,9.78-5.83,28.74,5.75,54.82c10.64,23.94,32.02,56.67,44.8,76.22c4.24,6.51,7.6,11.65,9.51,14.83
	C1244.43,885.57,1270.81,934.86,1272.82,942.19z M1425.84,1526.47c-14.09-13.56-27.34-24.89-39.38-35.17
	c-22.38-19.12-40.06-34.23-50.43-52.87c-11.19-20.1-12.78-42.66-5.17-73.1c8.3-33.22,21.17-63.69,33.62-93.15
	c19.4-45.91,36.15-85.56,28.99-120.88c-11.77-57.99-25.23-155.39-16.78-180.28c8.1-23.86,12.64-67.09,14.05-96.87
	c1.26-26.23,13.87-80.06,22.22-115.67l1.85-7.92c0.89-3.8,1.72-7.3,2.49-10.54c3.55-14.86,6.35-26.6,4.4-28.83
	c-0.4-0.43-1.7-0.57-3.48-0.38c-10.6,1.18-44.76,15.86-58.9,41.95c-14.82,27.35-36.04,90.43-41.01,111.58
	c-2.06,8.73-4.3,23.02-6.89,39.57c-4.09,26.11-8.73,55.7-14.48,75.32c-3.2,10.94-7.93,27.7-13.02,45.8c0,0.01,0,0.01,0,0.01
	c-0.47,1.63-0.92,3.27-1.39,4.92c-2.54,9.03-5.11,18.15-7.55,26.77c-1.25,4.42-2.46,8.71-3.63,12.79
	c-4.96,17.41-8.97,31.1-10.47,35.11l-3.99,10.66c-0.61,1.62-2.42,2.45-4.05,1.84c-1.62-0.61-2.45-2.42-1.84-4.05l4-10.66
	c1.28-3.44,4.68-14.97,8.92-29.74c1.18-4.11,2.41-8.47,3.7-12.98c2.87-10.14,5.93-21.03,8.87-31.45c0.4-1.44,0.81-2.88,1.21-4.31
	c-2.55-20.34-9.02-70.86-10.75-79.3c-6.17-5.74-51.17-47.54-63.19-57.91c-12.88-11.12-78.17-66.33-86.98-73.37
	c-5.27-4.22-7.57-4.28-8.48-3.94c-0.71,0.26-2.48,1.57-3.64,7.97c-2.2,12.11,4.18,34.75,11.51,48.29
	c5.63,10.38,31.17,35.04,45.42,48.65c0.83,0.79,1.62,1.54,2.38,2.26c2.01,1.92,3.78,3.61,5.21,4.99c1.1,1.07,2.01,1.95,2.67,2.62
	c8.01,8.08,44.79,61.35,50.27,70.49c1.57,2.61,4.33,9.98,8.2,21.9c5.03,15.49,11.28,36.71,15.46,52.37
	c1.01,3.81,1.91,7.31,2.64,10.29c1.15,4.74,1.87,8.24,1.97,9.84c0.68,10.17-7.08,19.22-10.81,23.58c-0.62,0.73-1.5,1.1-2.39,1.1
	c-0.73,0-1.45-0.24-2.05-0.75c-1.31-1.13-1.46-3.11-0.34-4.43c3.19-3.72,9.84-11.46,9.32-19.07c-0.08-1.21-0.65-3.96-1.56-7.78
	c-0.69-2.88-1.59-6.37-2.63-10.28c-3.97-14.87-10.06-35.79-15.31-52.02c-2.99-2.41-6.49-5.24-10.18-8.22
	c-12.03-9.74-28.52-23.08-30.63-24.33c-1.39-0.82-3.58-3.12-9.99-10.03c-7.77-8.37-19.5-21.02-28.3-27.79
	c-0.68-0.53-1.4-1.09-2.15-1.68c-2.43-1.95-5.21-4.22-8.16-6.69c-2.02-1.68-4.12-3.44-6.27-5.24
	c-12.51-10.49-29.64-24.86-34.68-26.12c-1.48-0.37-2.57-0.15-3.52,0.72c-2.27,2.05-3.43,7.37-2.68,12.36
	c1.12,7.57,4.62,22.33,15.45,36.13c1.74,2.23,3.91,4.77,6.34,7.5c2.18,2.46,4.59,5.08,7.11,7.74c12.05,12.75,26.5,26.63,31.04,30.52
	c3.69,3.16,8.79,10.89,14.69,19.85c4.72,7.16,10.07,15.27,15.03,21.44c11.23,13.95,16.57,26.79,18.44,44.28
	c0.01,0.05,0.01,0.11,0.02,0.15c0.44,4.06,0.87,7.67,1.28,10.86c1.33,10.19,2.48,16.02,3.05,18.11c0.58,2.16-0.36,11.47-4.61,45.24
	c-0.28,2.19-0.56,4.4-0.81,6.47c-0.48,3.85-0.9,7.26-1.12,9.26c3.83-1.54,8.35-3.38,12.92-5.25c12.73-5.2,25.92-10.63,26.12-10.71
	c1.61-0.66,3.44,0.1,4.1,1.7c0.66,1.61-0.11,3.45-1.71,4.1c-0.3,0.13-30.37,12.51-43.56,17.79h-0.01c-0.01,0-0.01,0-0.01,0.01
	c-3.38,1.32-11.08,4.05-18.43,6.13c-12.95,3.67-16.51,3.09-18.42,1.91c-1.09-0.67-3.41-2.29-6.61-4.72
	c-2.9-2.21-6.52-5.09-10.6-8.55c-11.16-9.46-25.79-23.29-38.73-39.7c-2.23-2.81-4.39-5.7-6.48-8.65c-0.24-0.34-0.48-0.69-0.73-1.03
	c-8.34-11.94-16.99-22.13-26.08-30.66c-2.69-2.55-5.43-4.94-8.21-7.17c-12.45-10.05-25.74-17.22-40.21-21.74
	c-3.84-1.2-7.77-2.22-11.79-3.05c-2.29-0.47-4.61-0.88-6.96-1.24c-13.7-2.07-26.36-2.93-37.39-2.6c-4.75,0.14-9.2,0.49-13.29,1.07
	c-10.15,1.39-18.16,4.1-23.36,8.04c-11.74,8.89-17.56,21.28-17.44,23.94c2.26,3.87,7.3,5.99,14.27,8.09
	c2.12,0.64,4.42,1.27,6.89,1.95c1.21,0.33,2.46,0.67,3.73,1.03c5.28,1.46,11.08,3.19,17.42,5.59l3.19,1.21
	c1.45,0.55,2.86,1.09,4.24,1.62c3.75,1.43,7.28,2.79,10.66,4.18c9.38,3.85,17.63,7.89,26.5,13.97c2.89,1.98,5.84,4.18,8.93,6.69
	c0.66,0.52,1.33,1.07,2,1.63c7.31,6.08,12.85,11.58,17.86,18.09c2.1,2.73,4.1,5.63,6.1,8.82c4.7,7.52,9.39,16.67,15.22,28.98
	c1.05,2.21,2.14,4.51,3.27,6.94c0.42,0.91,0.85,1.86,1.3,2.84c3.85,8.53,8.58,19.99,13.95,33.12c0.9,2.21,1.82,4.47,2.76,6.77
	c0.5,1.24,1.01,2.49,1.53,3.75c5.12,12.57,10.76,26.35,16.68,40.22c1.66,3.91,3.36,7.83,5.06,11.74
	c7.71,17.66,15.77,34.97,23.67,49.66c2.84,5.29,5.67,10.24,8.45,14.74c2.02,3.26,4.01,6.28,5.98,9.03
	c11.9,16.66,110.75,151.13,185.54,252.58C1353.56,1601.17,1391.59,1565.51,1425.84,1526.47z M1079.77,501.06l5.4-76.86l53.63-7.74
	l-53.63-7.74l-5.4-76.86l-5.4,76.86l-53.62,7.74l53.62,7.74L1079.77,501.06z M831.31,620.72c0-35.47,28.75-90.98,64.22-90.98
	c-35.47,0-64.22-57.8-64.22-93.27c0,35.47-28.75,93.27-64.22,93.27C802.55,529.74,831.31,585.25,831.31,620.72z M833.75,420.68
	v-71.94c0-1.35-1.1-2.45-2.45-2.45c-1.35,0-2.45,1.1-2.45,2.45v71.94c0,1.35,1.1,2.45,2.45,2.45
	C832.66,423.12,833.75,422.03,833.75,420.68z M833.75,710.21v-71.94c0-1.35-1.1-2.45-2.45-2.45c-1.35,0-2.45,1.1-2.45,2.45v71.94
	c0,1.35,1.1,2.45,2.45,2.45C832.66,712.66,833.75,711.56,833.75,710.21z M694.43,531.92h54.48c1.35,0,2.45-1.1,2.45-2.45
	c0-1.35-1.1-2.45-2.45-2.45h-54.48c-1.35,0-2.45,1.1-2.45,2.45C691.99,530.82,693.08,531.92,694.43,531.92z M971.56,529.47
	c0-1.35-1.1-2.45-2.45-2.45h-54.48c-1.35,0-2.45,1.1-2.45,2.45c0,1.35,1.1,2.45,2.45,2.45h54.48
	C970.46,531.92,971.56,530.82,971.56,529.47z M732.93,628.31c0.48,0.48,1.1,0.72,1.73,0.72c0.63,0,1.25-0.24,1.73-0.72l38.52-38.52
	c0.96-0.96,0.96-2.5,0-3.46c-0.95-0.96-2.51-0.96-3.46,0l-38.52,38.52C731.97,625.81,731.97,627.36,732.93,628.31z M892.09,472.61
	l38.52-38.52c0.96-0.95,0.96-2.5,0-3.46c-0.95-0.96-2.51-0.96-3.46,0l-38.52,38.52c-0.96,0.96-0.96,2.5,0,3.46
	c0.48,0.48,1.1,0.72,1.73,0.72C890.99,473.33,891.61,473.09,892.09,472.61z M774.91,472.61c0.96-0.96,0.96-2.5,0-3.46l-38.52-38.52
	c-0.95-0.96-2.51-0.96-3.46,0c-0.96,0.96-0.96,2.5,0,3.46l38.52,38.52c0.48,0.48,1.1,0.72,1.73,0.72
	C773.81,473.33,774.44,473.09,774.91,472.61z M888.63,586.33c-0.96,0.95-0.96,2.5,0,3.46l38.52,38.52c0.48,0.48,1.1,0.72,1.73,0.72
	c0.63,0,1.25-0.24,1.73-0.72c0.96-0.96,0.96-2.5,0-3.46l-38.52-38.52C891.14,585.37,889.59,585.37,888.63,586.33z M592.61,527.02
	l10.75-19.65l19.65-10.75l-19.65-10.75l-10.75-19.65l-10.75,19.65l-19.65,10.75l19.65,10.75L592.61,527.02z M483.9,572.24
	l-30.35-16.6l30.35-16.6l16.6-30.34l16.6,30.34l30.35,16.6l-30.35,16.6l-16.6,30.34L483.9,572.24z M474.32,555.64l16.92,9.25
	l9.26,16.92l9.25-16.92l16.92-9.25l-16.92-9.25l-9.25-16.92l-9.26,16.92L474.32,555.64z M1179.06,535.72l10.75-19.65l19.65-10.75
	l-19.65-10.75l-10.75-19.65l-10.75,19.65l-19.65,10.75l19.65,10.75L1179.06,535.72z M1085.13,619.35l-30.35-16.6l30.35-16.6
	l16.6-30.34l16.6,30.34l30.35,16.6l-30.35,16.6l-16.6,30.34L1085.13,619.35z M1075.55,602.75l16.92,9.25l9.26,16.92l9.25-16.92
	l16.92-9.25l-16.92-9.25l-9.25-16.92l-9.26,16.92L1075.55,602.75z M596.61,700.09l12.16-22.23L631,665.7l-22.23-12.16l-12.16-22.23
	l-12.16,22.23l-22.23,12.16l22.23,12.16L596.61,700.09z"/>
</svg>
