<?xml version="1.0" encoding="utf-8"?>
<!-- Generator: Adobe Illustrator 24.0.2, SVG Export Plug-In . SVG Version: 6.00 Build 0)  -->
<svg version="1.1" id="Слой_1" xmlns="http://www.w3.org/2000/svg" xmlns:xlink="http://www.w3.org/1999/xlink" x="0px" y="0px"
	 viewBox="0 0 2000 2000" style="enable-background:new 0 0 2000 2000;" xml:space="preserve">
<style type="text/css">
	.st0{fill:#FFFFFF;}
</style>
<path class="st0" d="M1091.85,1168.55c0,50.73-41.12,91.85-91.85,91.85c-50.73,0-91.85-41.12-91.85-91.85
	c0-50.73,41.12-91.85,91.85-91.85C1050.73,1076.7,1091.85,1117.82,1091.85,1168.55z M1294.8,1225.94
	c-12.61-15.73-20.16-35.67-20.16-57.39c0-21.72,7.56-41.67,20.16-57.39c-16.83-21-42.68-34.46-71.69-34.46
	c-50.73,0-91.85,41.12-91.85,91.85c0,50.73,41.12,91.85,91.85,91.85C1252.12,1260.4,1277.97,1246.94,1294.8,1225.94z
	 M1498.95,1094.21c-15.14-11-33.77-17.51-53.92-17.51c-50.73,0-91.85,41.12-91.85,91.85c0,50.73,41.12,91.85,91.85,91.85
	c20.15,0,38.78-6.51,53.92-17.51c-22.98-16.7-37.93-43.76-37.93-74.34S1475.97,1110.9,1498.95,1094.21z M1665.39,1260.4
	c14.05,0,27.36-3.17,39.27-8.81c-31.08-14.72-52.58-46.37-52.58-83.04s21.5-68.32,52.58-83.04c-11.91-5.64-25.22-8.81-39.27-8.81
	c-50.73,0-91.85,41.12-91.85,91.85C1573.54,1219.28,1614.66,1260.4,1665.39,1260.4z M1839.38,1168.55
	c0-43.1,29.69-79.25,69.74-89.15c-7.09-1.75-14.49-2.7-22.12-2.7c-50.73,0-91.85,41.12-91.85,91.85c0,50.73,41.12,91.85,91.85,91.85
	c7.63,0,15.03-0.95,22.12-2.7C1869.07,1247.8,1839.38,1211.65,1839.38,1168.55z M776.89,1076.7c-29.01,0-54.85,13.46-71.69,34.46
	c12.61,15.73,20.16,35.67,20.16,57.39c0,21.72-7.56,41.67-20.16,57.39c16.83,21,42.68,34.46,71.69,34.46
	c50.73,0,91.85-41.12,91.85-91.85C868.74,1117.82,827.61,1076.7,776.89,1076.7z M554.97,1076.7c-20.15,0-38.78,6.51-53.92,17.51
	c22.98,16.7,37.93,43.76,37.93,74.34s-14.95,57.65-37.93,74.34c15.14,11,33.77,17.51,53.92,17.51c50.73,0,91.85-41.12,91.85-91.85
	C646.82,1117.82,605.7,1076.7,554.97,1076.7z M334.61,1076.7c-14.05,0-27.36,3.17-39.27,8.81c31.08,14.72,52.58,46.37,52.58,83.04
	s-21.5,68.32-52.58,83.04c11.91,5.64,25.22,8.81,39.27,8.81c50.73,0,91.85-41.12,91.85-91.85
	C426.46,1117.82,385.34,1076.7,334.61,1076.7z M204.85,1168.55c0-50.73-41.12-91.85-91.85-91.85c-7.63,0-15.03,0.95-22.12,2.7
	c40.04,9.9,69.74,46.05,69.74,89.15c0,43.1-29.69,79.25-69.74,89.15c7.09,1.75,14.49,2.7,22.12,2.7
	C163.73,1260.4,204.85,1219.28,204.85,1168.55z M220.52,1415.7c-7.98,2.69-12.27,11.34-9.57,19.32c2.16,6.36,8.09,10.37,14.45,10.37
	c1.61,0,3.26-0.26,4.88-0.81c7.97-2.69,12.25-11.34,9.56-19.32C237.15,1417.29,228.49,1413,220.52,1415.7z M291.9,1577.36
	c-7.21,4.35-9.53,13.72-5.17,20.94c2.86,4.74,7.9,7.36,13.07,7.38c2.68,0,5.4-0.72,7.86-2.2c7.21-4.36,9.52-13.72,5.17-20.94
	C308.48,1575.32,299.11,1573,291.9,1577.36z M216.61,1341.61c-1.82-8.22-9.96-13.42-18.18-11.61c-8.22,1.81-13.42,9.94-11.61,18.17
	c1.57,7.11,7.88,11.97,14.88,11.97c1.09,0,2.19-0.11,3.29-0.36C213.21,1357.97,218.41,1349.84,216.61,1341.61z M291.28,760.8
	c2.46,1.48,5.17,2.19,7.85,2.19c5.17,0,10.22-2.64,13.08-7.4c4.34-7.21,2-16.59-5.21-20.93c-7.22-4.35-16.59-2.01-20.93,5.21
	C281.74,747.09,284.07,756.46,291.28,760.8z M251.8,1498.48c-7.64,3.55-10.96,12.61-7.41,20.25c2.58,5.57,8.09,8.83,13.84,8.83
	c2.15,0,4.32-0.46,6.4-1.42c7.65-3.55,10.96-12.61,7.42-20.25C268.51,1498.26,259.45,1494.93,251.8,1498.48z M251.29,839.78
	c2.07,0.96,4.25,1.42,6.39,1.42c5.75,0,11.27-3.28,13.84-8.86h0.01c3.53-7.65,0.2-16.71-7.45-20.24
	c-7.65-3.53-16.71-0.21-20.24,7.44C240.31,827.18,243.64,836.25,251.29,839.78z M624.57,1877.55c-7.44-3.94-16.67-1.11-20.62,6.33
	c-3.94,7.44-1.11,16.67,6.33,20.62c2.28,1.21,4.73,1.79,7.13,1.79c5.46,0,10.75-2.95,13.49-8.12
	C634.84,1890.73,632.01,1881.51,624.57,1877.55z M696.58,424.62c1.88,0,3.8-0.35,5.65-1.1c7.82-3.13,11.62-12,8.5-19.82
	c-3.13-7.82-12-11.62-19.83-8.49c-7.82,3.13-11.62,12-8.5,19.81C684.79,420.99,690.52,424.62,696.58,424.62z M550.17,1832.75
	c-6.97-4.74-16.46-2.92-21.19,4.05c-4.73,6.97-2.91,16.45,4.06,21.19c2.61,1.78,5.6,2.63,8.55,2.63c4.88,0,9.67-2.34,12.62-6.69
	C558.95,1846.96,557.14,1837.48,550.17,1832.75z M703.4,1914.03c-7.83-3.12-16.7,0.71-19.81,8.53c-3.11,7.82,0.7,16.7,8.53,19.81
	c1.85,0.74,3.76,1.09,5.63,1.09c6.07,0,11.8-3.65,14.17-9.62C715.03,1926.03,711.22,1917.16,703.4,1914.03z M481.03,1780.17
	c-6.43-5.46-16.05-4.67-21.49,1.74c-5.46,6.43-4.67,16.04,1.74,21.5c2.86,2.43,6.37,3.63,9.87,3.63c4.32,0,8.62-1.83,11.63-5.38
	C488.23,1795.25,487.45,1785.62,481.03,1780.17z M340.29,1651.44c-6.69,5.11-7.98,14.67-2.88,21.37c3,3.94,7.54,6.01,12.14,6.01
	c3.22,0,6.47-1.02,9.24-3.13c6.7-5.11,7.98-14.67,2.89-21.37C356.56,1647.63,347,1646.33,340.29,1651.44z M396.4,1719.89
	c-6.11,5.8-6.37,15.45-0.57,21.56c3,3.16,7.03,4.76,11.07,4.76c3.76,0,7.54-1.39,10.49-4.19c6.11-5.8,6.36-15.45,0.57-21.56
	C412.16,1714.35,402.51,1714.1,396.4,1719.89z M470.26,561.32c3.5,0,7.02-1.2,9.88-3.64h0.01c6.4-5.46,7.18-15.09,1.71-21.5
	c-5.46-6.4-15.09-7.18-21.49-1.71c-6.42,5.46-7.19,15.08-1.72,21.49C461.66,559.5,465.95,561.32,470.26,561.32z M339.59,686.62
	c2.76,2.09,5.99,3.11,9.22,3.11c4.6,0,9.15-2.07,12.15-6.02c5.1-6.71,3.79-16.27-2.91-21.37c-6.71-5.09-16.27-3.78-21.37,2.92
	C331.57,671.96,332.88,681.52,339.59,686.62z M1374.85,459.24c2.28,1.2,4.72,1.76,7.12,1.76c5.47,0.01,10.75-2.94,13.49-8.1
	c3.94-7.45,1.1-16.68-6.34-20.62c-7.44-3.94-16.67-1.1-20.61,6.34C1364.57,446.06,1367.41,455.28,1374.85,459.24z M1296,422.82
	c1.84,0.73,3.75,1.08,5.62,1.08c6.07,0,11.81-3.65,14.18-9.63c3.1-7.82-0.72-16.69-8.54-19.79c-7.83-3.12-16.7,0.71-19.8,8.54
	C1284.34,410.84,1288.17,419.71,1296,422.82z M189.07,1272.73c8.38-0.91,14.42-8.43,13.52-16.81c-0.9-8.38-8.43-14.42-16.8-13.52
	c-8.38,0.9-14.43,8.43-13.52,16.81c-0.01,0-0.01,0-0.01,0c0.85,7.81,7.46,13.61,15.15,13.61
	C187.96,1272.82,188.52,1272.79,189.07,1272.73z M1449.29,503.98c2.61,1.78,5.6,2.63,8.54,2.63c4.89,0,9.68-2.35,12.64-6.7
	c4.73-6.97,2.9-16.46-4.07-21.18c-6.97-4.73-16.45-2.91-21.18,4.07C1440.49,489.78,1442.32,499.26,1449.29,503.98z M1592.65,620.91
	c3.77,0,7.55-1.39,10.5-4.19c6.1-5.8,6.35-15.46,0.56-21.56c-5.8-6.11-15.46-6.35-21.57-0.56c-6.1,5.81-6.35,15.46-0.54,21.57
	C1584.59,619.32,1588.62,620.91,1592.65,620.91z M1810.85,1063.71c-8.38,0.91-14.42,8.44-13.51,16.82
	c0.85,7.81,7.46,13.59,15.14,13.59c0.54,0,1.11-0.03,1.67-0.1c8.38-0.92,14.42-8.44,13.51-16.81
	C1826.74,1068.84,1819.21,1062.79,1810.85,1063.71z M1783.25,994.84c1.57,7.12,7.88,11.97,14.88,11.97c1.09,0,2.19-0.12,3.3-0.36
	c8.22-1.82,13.42-9.96,11.6-18.18c-1.82-8.24-9.96-13.42-18.18-11.61C1786.63,978.48,1781.44,986.62,1783.25,994.84z
	 M1650.07,688.25c3.22,0,6.48-1.01,9.24-3.13c6.7-5.11,7.98-14.68,2.88-21.37c0-0.01,0-0.01,0-0.01
	c-5.11-6.69-14.68-7.97-21.38-2.86c-6.69,5.11-7.97,14.68-2.86,21.38C1640.94,686.18,1645.48,688.25,1650.07,688.25z M866.79,377.23
	c0.82,0,1.66-0.07,2.48-0.2h0.01c8.3-1.36,13.94-9.2,12.58-17.53c-1.37-8.3-9.22-13.94-17.52-12.58
	c-8.32,1.36-13.95,9.2-12.59,17.52C852.99,371.93,859.45,377.23,866.79,377.23z M1213.65,395.21v-0.01
	c1.36,0.38,2.72,0.56,4.06,0.56c6.69,0,12.83-4.43,14.69-11.2c2.23-8.13-2.54-16.52-10.65-18.76c-8.12-2.23-16.51,2.53-18.76,10.65
	C1200.76,384.57,1205.53,392.96,1213.65,395.21z M220.13,922.65c1.61,0.54,3.25,0.79,4.86,0.79c6.37,0,12.31-4.02,14.46-10.4
	c2.68-7.98-1.62-16.63-9.61-19.3c-7.98-2.69-16.63,1.61-19.31,9.6C207.84,911.32,212.14,919.97,220.13,922.65z M198.17,1008.42
	c1.1,0.24,2.19,0.35,3.27,0.35c7.02,0,13.33-4.87,14.89-12c1.79-8.22-3.42-16.35-11.65-18.15c-8.22-1.8-16.35,3.42-18.15,11.64
	C184.73,998.49,189.94,1006.62,198.17,1008.42z M785.71,1941.72c-8.12-2.24-16.51,2.52-18.76,10.63
	c-2.25,8.12,2.52,16.51,10.63,18.77c1.36,0.37,2.72,0.54,4.07,0.56c6.69,0,12.82-4.43,14.68-11.2
	C798.59,1952.37,793.83,1943.97,785.71,1941.72z M185.67,1096.03c0.54,0.05,1.09,0.09,1.63,0.09c7.69,0,14.31-5.82,15.14-13.64
	c0.89-8.38-5.16-15.88-13.54-16.77c-8.38-0.89-15.89,5.16-16.79,13.54C171.23,1087.62,177.3,1095.14,185.67,1096.03z M616.33,461.9
	c2.42,0,4.88-0.58,7.16-1.79c7.43-3.97,10.25-13.2,6.3-20.63c-3.96-7.44-13.2-10.25-20.63-6.3c-7.44,3.96-10.25,13.2-6.3,20.63
	C605.6,458.97,610.87,461.9,616.33,461.9z M780.4,396.27c1.35,0,2.72-0.17,4.08-0.56c8.11-2.27,12.86-10.67,10.61-18.78
	c-2.25-8.12-10.66-12.86-18.78-10.61c-8.12,2.27-12.86,10.66-10.6,18.78C767.59,391.86,773.72,396.27,780.4,396.27z M406.08,622.26
	c4.04,0,8.08-1.6,11.08-4.78c5.78-6.11,5.51-15.76-0.6-21.56c-6.12-5.78-15.77-5.51-21.56,0.61c-5.8,6.11-5.52,15.76,0.6,21.56
	C398.54,620.87,402.31,622.26,406.08,622.26z M540.62,507.66c2.95,0,5.95-0.86,8.57-2.65c6.96-4.74,8.76-14.23,4.02-21.19
	c-4.74-6.96-14.23-8.77-21.19-4.03c-6.96,4.74-8.76,14.23-4.03,21.19C530.94,505.32,535.74,507.66,540.62,507.66z M1699.89,761.37
	c2.69,0,5.4-0.72,7.87-2.21c7.21-4.36,9.51-13.73,5.15-20.94c-4.36-7.21-13.74-9.52-20.94-5.15c-7.21,4.36-9.52,13.72-5.15,20.94
	C1689.7,758.74,1694.73,761.37,1699.89,761.37z M1582.39,1720.09c-5.8,6.12-5.53,15.77,0.58,21.57c2.95,2.79,6.72,4.17,10.49,4.17
	c4.04,0,8.07-1.59,11.08-4.76c5.79-6.11,5.53-15.76-0.59-21.56C1597.84,1713.72,1588.19,1713.98,1582.39,1720.09z M1450.27,1832.45
	c-6.97,4.74-8.78,14.21-4.04,21.19c2.95,4.35,7.74,6.68,12.62,6.68c2.95,0,5.94-0.85,8.56-2.64c6.96-4.74,8.77-14.21,4.04-21.19
	C1466.72,1829.53,1457.23,1827.71,1450.27,1832.45z M1519.36,1779.83c-6.42,5.46-7.19,15.09-1.73,21.5
	c3.02,3.54,7.3,5.37,11.62,5.37c3.49,0,7-1.2,9.87-3.64c6.42-5.46,7.2-15.08,1.74-21.49
	C1535.4,1775.16,1525.77,1774.38,1519.36,1779.83z M1375.93,1877.29c-7.44,3.95-10.26,13.18-6.31,20.62
	c2.74,5.16,8.02,8.09,13.47,8.09c2.42,0,4.87-0.57,7.16-1.79c7.43-3.96,10.25-13.18,6.31-20.62
	C1392.61,1876.16,1383.37,1873.34,1375.93,1877.29z M1518.47,556.51c2.87,2.43,6.36,3.62,9.85,3.62c4.33,0,8.63-1.83,11.64-5.39
	c5.45-6.42,4.65-16.04-1.78-21.49c-6.42-5.45-16.05-4.65-21.49,1.78C1511.25,541.43,1512.05,551.05,1518.47,556.51z
	 M1130.08,1960.16c-8.32,1.36-13.95,9.19-12.6,17.51c1.22,7.48,7.69,12.8,15.03,12.8c0.82,0,1.64-0.07,2.47-0.2
	c8.31-1.36,13.95-9.19,12.6-17.51C1146.22,1964.45,1138.39,1958.81,1130.08,1960.16z M1214.88,1941.56v-0.01
	c-8.11,2.26-12.87,10.66-10.62,18.78c1.87,6.75,8.01,11.18,14.69,11.18c1.34,0,2.71-0.17,4.07-0.56
	c8.12-2.26,12.88-10.66,10.62-18.78S1222.99,1939.31,1214.88,1941.56z M1297.15,1913.82c-7.82,3.13-11.63,12-8.51,19.81
	c2.37,5.97,8.1,9.61,14.16,9.61c1.88,0,3.8-0.35,5.65-1.09c7.82-3.13,11.63-11.99,8.51-19.81
	C1313.85,1914.5,1304.97,1910.7,1297.15,1913.82z M1814.27,1241.74c-8.37-0.9-15.89,5.15-16.79,13.53
	c-0.9,8.38,5.15,15.89,13.53,16.8c0.56,0.06,1.11,0.09,1.66,0.09c7.68,0,14.29-5.81,15.14-13.63
	C1828.7,1250.16,1822.64,1242.63,1814.27,1241.74z M1779.67,1415.09c-7.98-2.69-16.63,1.6-19.32,9.59
	c-2.68,7.98,1.61,16.63,9.6,19.32c1.61,0.54,3.25,0.79,4.86,0.79c6.37,0,12.31-4.02,14.46-10.38c0-0.01,0-0.01,0-0.01
	C1791.95,1426.43,1787.66,1417.78,1779.67,1415.09z M1801.7,1329.34c-8.24-1.81-16.36,3.4-18.16,11.63
	c-1.81,8.22,3.4,16.35,11.63,18.16c1.1,0.24,2.2,0.35,3.28,0.35c7,0,13.32-4.86,14.88-11.98
	C1815.13,1339.26,1809.92,1331.14,1801.7,1329.34z M1660.01,1651.02c-6.7-5.1-16.26-3.8-21.36,2.9h-0.01
	c-5.1,6.7-3.8,16.27,2.9,21.37c2.77,2.1,6.01,3.11,9.23,3.11c4.61,0,9.15-2.07,12.16-6.01c-0.01,0-0.01,0-0.01,0
	C1668.02,1665.69,1666.72,1656.11,1660.01,1651.02z M1116.19,359.24c-1.34,8.31,4.31,16.14,12.62,17.48c0.82,0.13,1.63,0.2,2.45,0.2
	c7.35,0,13.82-5.33,15.03-12.82c1.34-8.31-4.31-16.14-12.62-17.48C1125.36,345.28,1117.53,350.93,1116.19,359.24z M1708.38,1576.87
	c-7.21-4.35-16.58-2.01-20.94,5.2h0.01c-4.36,7.21-2.03,16.58,5.18,20.93c2.46,1.49,5.17,2.19,7.85,2.19
	c5.17,0,10.21-2.63,13.07-7.38c0.01,0,0.01,0,0.01,0C1717.91,1590.59,1715.59,1581.23,1708.38,1576.87z M1774.39,921.58
	c1.62,0,3.27-0.26,4.89-0.82c7.97-2.69,12.25-11.35,9.55-19.33c-2.7-7.97-11.36-12.25-19.33-9.55c-7.97,2.7-12.25,11.36-9.55,19.33
	C1762.09,917.57,1768.03,921.58,1774.39,921.58z M1748.44,1497.93c-7.65-3.54-16.71-0.22-20.25,7.43
	c-3.54,7.64-0.22,16.7,7.42,20.24c2.08,0.97,4.26,1.42,6.4,1.42c5.75,0,11.26-3.27,13.84-8.83
	C1759.4,1510.53,1756.08,1501.47,1748.44,1497.93z M1741.49,839.43c2.16,0,4.35-0.46,6.43-1.43c7.64-3.55,10.95-12.61,7.4-20.26
	c-3.55-7.64-12.62-10.95-20.26-7.4c-7.64,3.56-10.95,12.62-7.4,20.26C1730.24,836.16,1735.75,839.43,1741.49,839.43z
	 M1043.74,1969.49c-8.41,0.45-14.86,7.64-14.41,16.04c0.44,8.13,7.17,14.43,15.22,14.43c0.27,0,0.56-0.01,0.83-0.02
	c8.41-0.46,14.86-7.64,14.41-16.05C1059.33,1975.49,1052.15,1969.03,1043.74,1969.49z M870.54,1960.27
	c-8.31-1.35-16.14,4.29-17.49,12.6c-1.35,8.32,4.29,16.15,12.61,17.49c0.82,0.14,1.64,0.21,2.45,0.21c7.35,0,13.82-5.33,15.04-12.81
	C884.5,1969.45,878.85,1961.61,870.54,1960.27z M956.87,1969.52c-8.41-0.45-15.59,6.01-16.03,14.42
	c-0.45,8.41,6.01,15.59,14.42,16.03c0.28,0.01,0.56,0.02,0.83,0.02c8.05,0,14.78-6.31,15.21-14.44
	C971.74,1977.15,965.28,1969.97,956.87,1969.52z M810.39,1289.69c-6.07,4.43-7.41,12.94-2.97,19.02c2.67,3.66,6.81,5.6,11.01,5.6
	c2.78,0,5.59-0.85,8.01-2.61c6.08-4.43,7.42-12.95,2.98-19.02C824.98,1286.6,816.46,1285.26,810.39,1289.69z M930.72,1395.84
	c5.74,0,11.08-3.66,12.95-9.42c2.32-7.16-1.6-14.84-8.76-17.16c-7.16-2.31-14.84,1.6-17.15,8.76c-2.32,7.16,1.59,14.84,8.75,17.16
	C927.91,1395.62,929.33,1395.84,930.72,1395.84z M818.14,1050.39c4.21,0,8.37-1.95,11.02-5.62c4.42-6.09,3.06-14.61-3.02-19.02
	c-6.09-4.42-14.6-3.07-19.02,3.02c-4.41,6.09-3.06,14.6,3.02,19.02C812.56,1049.54,815.36,1050.39,818.14,1050.39z M1173.42,1025.23
	c-6.08,4.43-7.41,12.95-2.96,19.02c2.66,3.65,6.81,5.59,11,5.59c2.79,0,5.6-0.85,8.02-2.63c6.08-4.43,7.41-12.95,2.96-19.02
	C1188.01,1022.11,1179.49,1020.78,1173.42,1025.23z M859.73,976.03c-6.07,4.43-7.4,12.95-2.96,19.02c2.66,3.66,6.8,5.59,11,5.59
	c2.79,0,5.6-0.85,8.02-2.61c6.08-4.43,7.41-12.95,2.97-19.03C874.33,972.93,865.81,971.6,859.73,976.03z M857.11,1342.32
	c-4.42,6.08-3.07,14.6,3.02,19.02c2.41,1.75,5.22,2.6,7.98,2.6c4.22,0,8.37-1.95,11.03-5.61c4.41-6.09,3.07-14.61-3.02-19.02
	C870.05,1334.9,861.53,1336.24,857.11,1342.32z M1013.73,1393.11c-0.01-7.53-6.11-13.62-13.63-13.62
	c-7.52,0.01-13.62,6.11-13.6,13.63c0,7.52,6.1,13.62,13.62,13.6C1007.64,1406.72,1013.73,1400.62,1013.73,1393.11z M1189.73,1289.51
	c-6.09-4.42-14.61-3.08-19.03,3.01c-4.42,6.08-3.07,14.59,3.01,19.02c2.42,1.75,5.22,2.6,8,2.6c4.21,0,8.35-1.95,11.02-5.61
	C1197.15,1302.45,1195.81,1293.93,1189.73,1289.51z M1069.07,968.42c5.74,0,11.09-3.66,12.95-9.43c2.31-7.16-1.62-14.82-8.78-17.13
	c-7.16-2.32-14.83,1.61-17.13,8.77c-2.31,7.16,1.61,14.83,8.77,17.15C1066.27,968.21,1067.69,968.42,1069.07,968.42z M999.67,957.6
	c7.52-0.01,13.61-6.12,13.59-13.64c-0.01-7.53-6.11-13.6-13.64-13.59c-7.52,0.01-13.61,6.11-13.59,13.64
	c0.01,7.51,6.11,13.59,13.62,13.59C999.66,957.6,999.66,957.6,999.67,957.6z M1142.71,994.63c4.41-6.09,3.05-14.61-3.04-19.02
	c-6.08-4.41-14.6-3.06-19.01,3.03c-4.42,6.09-3.06,14.61,3.03,19.02c2.42,1.75,5.21,2.59,7.98,2.59
	C1135.9,1000.25,1140.05,998.3,1142.71,994.63z M1121.05,1358.22c2.66,3.66,6.81,5.6,11.01,5.6c2.78,0,5.59-0.85,8.01-2.6
	c6.08-4.43,7.42-12.94,2.98-19.03c-4.42-6.08-12.94-7.41-19.02-2.98C1117.96,1343.62,1116.62,1352.14,1121.05,1358.22z
	 M930.28,968.64c1.41,0,2.82-0.22,4.23-0.68c7.15-2.33,11.06-10.02,8.72-17.17c-2.33-7.15-10.02-11.06-17.17-8.72
	c-7.16,2.33-11.06,10.02-8.72,17.17C919.22,964.99,924.55,968.64,930.28,968.64z M1069.49,1395.78c1.39,0,2.81-0.22,4.2-0.68
	c7.16-2.32,11.07-10.01,8.75-17.16c-2.33-7.16-10.01-11.07-17.17-8.74c-7.15,2.32-11.06,10-8.74,17.16
	C1058.42,1392.12,1063.75,1395.78,1069.49,1395.78z M573.93,1508.3l-63.07-42.09l42.09,63.07l-42.09,63.07l63.07-42.09l63.07,42.09
	l-42.09-63.07l42.09-63.07L573.93,1508.3z M1426.06,1508.3l-63.07-42.09l42.09,63.07l-42.09,63.07l63.07-42.09l63.07,42.09
	l-42.09-63.07l42.09-63.07L1426.06,1508.3z M1000,1654.59l-14.84,74.36l-74.36,14.84l74.36,14.84l14.84,74.36l14.84-74.36
	l74.36-14.84l-74.36-14.84L1000,1654.59z M573.93,828.8l63.07,42.09l-42.09-63.07l42.09-63.07l-63.07,42.09l-63.07-42.09
	l42.09,63.07l-42.09,63.07L573.93,828.8z M1426.06,828.8l63.07,42.09l-42.09-63.07l42.09-63.07l-63.07,42.09l-63.07-42.09
	l42.09,63.07l-42.09,63.07L1426.06,828.8z M1225,428.33l-175.63-20.42l127.29-161.24l-156.92,130.9L998.6,0l-21.08,376.3L885,311.67
	l63.55,95.39L775,428.33l174.06,21.13L830,625l148.33-144.84l21.17,377.82l21.15-377.57l81.02,49.58l-51.28-79.69L1225,428.33z"/>
</svg>
