<?xml version="1.0" encoding="utf-8"?>
<!-- Generator: Adobe Illustrator 24.0.2, SVG Export Plug-In . SVG Version: 6.00 Build 0)  -->
<svg version="1.1" id="Слой_1" xmlns="http://www.w3.org/2000/svg" xmlns:xlink="http://www.w3.org/1999/xlink" x="0px" y="0px"
	 viewBox="0 0 2000 2000" style="enable-background:new 0 0 2000 2000;" xml:space="preserve">
<path d="M1705.76,1276.91c45.09-95.6,44.76-62.05,1.6-158.54c95.6,45.1,62.05,44.76,158.54,1.6c-45.09,95.6-44.76,62.05-1.6,158.54
	C1768.71,1233.41,1802.25,1233.75,1705.76,1276.91z M140.77,1278.5c95.6-45.09,62.05-44.76,158.55-1.6
	c-45.1-95.6-44.76-62.05-1.6-158.54c-95.6,45.1-62.05,44.76-158.55,1.6C184.26,1215.56,183.92,1182.01,140.77,1278.5z M1000,1608.1
	c-105.06,0-190.22,85.17-190.22,190.22s85.16,190.22,190.22,190.22s190.22-85.16,190.22-190.22S1105.06,1608.1,1000,1608.1z
	 M1240.54,628.37c0-19.97-2.48-39.36-7.07-57.92c-25.93,104.86-120.6,182.62-233.47,182.62s-207.54-77.76-233.47-182.62
	c-4.59,18.56-7.07,37.94-7.07,57.92c0,127.65,99.43,232.05,225.07,240.03v503.05c0,8.55,6.93,15.48,15.48,15.48
	s15.48-6.93,15.48-15.48V868.39C1141.12,860.41,1240.54,756.01,1240.54,628.37z M895.79,376.26l-63.77,60.45L932.9,398.2
	l-38.36,100.94l60.24-63.74L1000,661.99l45.26-226.78l60.45,63.77L1067.2,398.1l100.95,38.36l-63.74-60.24L1331,331l-226.78-45.26
	l63.77-60.45L1067.1,263.8l38.37-100.95l-60.24,63.74L1000,0l-45.26,226.78l-60.45-63.77L932.8,263.9l-100.95-38.36l63.74,60.24
	L669,331L895.79,376.26z M352.44,1275.98c-6.05-6.05-15.85-6.05-21.9,0c-6.05,6.05-6.05,15.85,0,21.9l250.6,250.6
	c3.02,3.02,6.99,4.53,10.95,4.53s7.92-1.51,10.95-4.53c6.05-6.05,6.05-15.85,0-21.9L352.44,1275.98z M1669.48,1297.88
	c6.05-6.05,6.05-15.85,0-21.9c-6.05-6.05-15.85-6.05-21.9,0l-250.6,250.6c-6.05,6.05-6.05,15.85,0,21.9
	c3.02,3.02,6.99,4.53,10.95,4.53c3.96,0,7.92-1.51,10.95-4.53L1669.48,1297.88z M656.47,1079.72c-3.28-7.89-12.34-11.63-20.24-8.35
	c-7.89,3.29-11.63,12.35-8.34,20.24l137.13,329.48c2.48,5.95,8.23,9.54,14.3,9.54c1.98,0,4-0.38,5.94-1.19
	c7.89-3.29,11.63-12.35,8.34-20.24L656.47,1079.72z M1233.24,1420.33l136.01-329.96c3.26-7.91-0.51-16.96-8.41-20.21
	s-16.96,0.51-20.21,8.41l-136.01,329.96c-3.26,7.91,0.51,16.96,8.41,20.21c1.93,0.8,3.93,1.17,5.89,1.17
	C1225.01,1429.91,1230.78,1426.3,1233.24,1420.33z M419.25,1829.58H142.12c-8.55,0-15.48,6.93-15.48,15.48
	c0,8.55,6.93,15.48,15.48,15.48h277.13c8.55,0,15.48-6.93,15.48-15.48C434.74,1836.51,427.8,1829.58,419.25,1829.58z
	 M1857.88,1829.58h-277.13c-8.55,0-15.48,6.93-15.48,15.48c0,8.55,6.93,15.48,15.48,15.48h277.13c8.55,0,15.48-6.93,15.48-15.48
	C1873.36,1836.51,1866.43,1829.58,1857.88,1829.58z M1518.84,1969.78c-0.55-1.33-1.22-2.59-2-3.77c-0.8-1.2-1.71-2.31-2.71-3.33
	c-1.02-1-2.13-1.91-3.33-2.71c-1.18-0.78-2.46-1.46-3.77-2c-1.31-0.55-2.69-0.97-4.08-1.26c-7.12-1.44-14.66,0.91-19.73,5.97
	c-1.02,1.02-1.93,2.13-2.73,3.33c-0.78,1.18-1.46,2.44-2,3.77c-0.55,1.31-0.96,2.7-1.24,4.08c-0.29,1.42-0.44,2.86-0.44,4.28
	c0,1.42,0.15,2.86,0.44,4.28c0.27,1.38,0.69,2.77,1.24,4.08c0.55,1.31,1.22,2.59,2,3.77c0.8,1.2,1.71,2.31,2.73,3.32
	c4.06,4.08,9.69,6.41,15.45,6.41c1.42,0,2.86-0.15,4.28-0.44c1.38-0.27,2.77-0.69,4.08-1.24c1.31-0.55,2.59-1.22,3.77-2
	c1.2-0.8,2.31-1.71,3.33-2.73c1-1,1.91-2.11,2.71-3.32c0.78-1.18,1.46-2.46,2-3.77c0.55-1.31,0.97-2.7,1.26-4.08
	c0.27-1.42,0.42-2.86,0.42-4.28c0-1.42-0.15-2.86-0.42-4.28C1519.8,1972.48,1519.38,1971.09,1518.84,1969.78z M978.22,1479.48
	c0,12.06,9.78,21.86,21.86,21.86c12.06,0,21.86-9.8,21.86-21.86c0-12.08-9.78-21.86-21.86-21.86
	C988,1457.62,978.22,1467.4,978.22,1479.48z M1108.03,1490.72c-3.11,11.66,3.81,23.64,15.46,26.76c1.89,0.51,3.81,0.75,5.67,0.75
	c9.65,0,18.49-6.45,21.11-16.21c3.11-11.66-3.81-23.64-15.46-26.76C1123.13,1472.12,1111.15,1479.06,1108.03,1490.72z
	 M865.34,1475.2c-11.68,3.11-18.6,15.1-15.48,26.76c2.6,9.78,11.44,16.23,21.09,16.23c1.87,0,3.77-0.24,5.66-0.75
	c11.66-3.11,18.6-15.1,15.48-26.76C888.98,1479,877,1472.08,865.34,1475.2z M1450.85,1717.85c-6.05-10.46-19.42-14.03-29.87-7.98
	c-10.44,6.05-14.01,19.4-7.98,29.85c4.06,7.01,11.4,10.93,18.94,10.93c3.72,0,7.49-0.95,10.93-2.95
	c10.46-6.05,14.03-19.42,7.98-29.87V1717.85z M1337.15,1610.1c-8.52,8.54-8.52,22.39,0.02,30.91c-0.02,0-0.02,0-0.02,0
	c4.28,4.28,9.87,6.41,15.46,6.41c5.59,0,11.19-2.13,15.45-6.41c8.54-8.52,8.54-22.37,0-30.91
	C1359.54,1601.55,1345.7,1601.55,1337.15,1610.1z M1487.43,1870.17c11.66-3.11,18.58-15.1,15.46-26.76
	c-3.11-11.68-15.1-18.6-26.76-15.48c-11.66,3.11-18.6,15.1-15.48,26.76c2.62,9.78,11.46,16.23,21.11,16.23
	C1483.64,1870.91,1485.53,1870.68,1487.43,1870.17z M1260.34,1527.31c-10.45-6.05-23.82-2.48-29.87,7.96
	c-6.05,10.46-2.48,23.83,7.98,29.87c3.44,2,7.21,2.95,10.93,2.95c7.54,0,14.88-3.92,18.94-10.91
	C1274.35,1546.73,1270.78,1533.36,1260.34,1527.31z M739.77,1527.22c-10.46,6.05-14.03,19.42-7.98,29.87
	c4.04,6.99,11.4,10.91,18.94,10.91c3.72,0,7.47-0.95,10.93-2.93c10.44-6.05,14.01-19.42,7.98-29.85
	C763.59,1524.76,750.22,1521.17,739.77,1527.22z M579.06,1709.73c-10.44-6.05-23.81-2.5-29.86,7.96h-0.02
	c-6.03,10.46-2.48,23.82,7.98,29.87c3.44,1.99,7.21,2.93,10.93,2.93c7.54,0,14.88-3.9,18.94-10.89c-0.02,0-0.02,0-0.02,0
	C593.08,1729.15,589.51,1715.78,579.06,1709.73z M523.89,1827.74c-11.68-3.11-23.66,3.81-26.78,15.46
	c-3.11,11.68,3.81,23.64,15.46,26.78c1.89,0.49,3.79,0.75,5.66,0.75c9.65,0,18.49-6.45,21.11-16.21
	C542.46,1842.86,535.54,1830.88,523.89,1827.74z M632.01,1609.97c-8.54,8.54-8.54,22.39-0.02,30.91c4.28,4.28,9.87,6.41,15.46,6.41
	c5.59,0,11.18-2.13,15.45-6.39c8.54-8.54,8.54-22.37,0.02-30.91C654.38,1601.44,640.55,1601.44,632.01,1609.97z M521.51,1969.78
	c-0.55-1.33-1.24-2.59-2.02-3.77c-0.78-1.2-1.71-2.31-2.71-3.33c-1-1-2.13-1.91-3.32-2.71c-1.18-0.78-2.46-1.46-3.77-2
	c-1.33-0.55-2.69-0.97-4.1-1.26c-2.82-0.56-5.72-0.56-8.54,0c-1.4,0.29-2.77,0.71-4.1,1.26c-1.31,0.55-2.59,1.22-3.77,2
	c-1.18,0.8-2.31,1.71-3.31,2.71c-1,1.02-1.93,2.13-2.71,3.33c-0.78,1.18-1.48,2.44-2.02,3.77c-0.55,1.31-0.97,2.7-1.24,4.08
	c-0.29,1.42-0.44,2.86-0.44,4.28c0,1.42,0.15,2.86,0.44,4.26c0.27,1.4,0.69,2.77,1.24,4.1c0.55,1.31,1.24,2.59,2.02,3.77
	c0.78,1.2,1.71,2.31,2.71,3.33c1,1,2.13,1.91,3.31,2.71c1.18,0.78,2.46,1.46,3.77,2c1.33,0.55,2.69,0.97,4.1,1.26
	c1.4,0.27,2.84,0.42,4.26,0.42c1.44,0,2.88-0.15,4.28-0.42c1.4-0.29,2.77-0.71,4.1-1.26c1.31-0.55,2.59-1.22,3.77-2
	c1.18-0.8,2.31-1.71,3.32-2.71c1-1.02,1.93-2.13,2.71-3.33c0.78-1.18,1.47-2.46,2.02-3.77c0.55-1.33,0.97-2.7,1.24-4.1
	c0.29-1.4,0.44-2.84,0.44-4.26c0-1.42-0.15-2.86-0.44-4.28C522.47,1972.48,522.05,1971.09,521.51,1969.78z"/>
</svg>
