<?xml version="1.0" encoding="utf-8"?>
<!-- Generator: Adobe Illustrator 24.0.2, SVG Export Plug-In . SVG Version: 6.00 Build 0)  -->
<svg version="1.1" id="Слой_1" xmlns="http://www.w3.org/2000/svg" xmlns:xlink="http://www.w3.org/1999/xlink" x="0px" y="0px"
	 viewBox="0 0 4000 426.5" style="enable-background:new 0 0 4000 426.5;" xml:space="preserve">
<path d="M1797.93,213.25c0-111.6,90.47-202.07,202.07-202.07s202.07,90.47,202.07,202.07S2111.6,415.32,2000,415.32
	S1797.93,324.85,1797.93,213.25z M1395.81,213.25c0,47.79-16.63,91.67-44.36,126.26c37.03,46.19,93.9,75.8,157.71,75.8
	c111.6,0,202.07-90.47,202.07-202.07s-90.47-202.07-202.07-202.07c-63.81,0-120.68,29.61-157.71,75.8
	C1379.18,121.58,1395.81,165.46,1395.81,213.25z M985.79,213.25c0,67.27-32.9,126.82-83.45,163.55
	c33.32,24.21,74.29,38.52,118.62,38.52c111.6,0,202.07-90.47,202.07-202.07s-90.47-202.07-202.07-202.07
	c-44.33,0-85.3,14.31-118.62,38.52C952.89,86.43,985.79,145.98,985.79,213.25z M565.46,213.25c0,80.68-47.3,150.3-115.67,182.69
	c26.2,12.41,55.48,19.38,86.4,19.38c111.6,0,202.07-90.47,202.07-202.07S647.79,11.18,536.19,11.18c-30.92,0-60.2,6.97-86.4,19.38
	C518.16,62.95,565.46,132.57,565.46,213.25z M153.41,213.25c0,94.82-65.32,174.35-153.41,196.13c15.59,3.85,31.88,5.94,48.65,5.94
	c111.6,0,202.07-90.47,202.07-202.07S160.26,11.18,48.65,11.18c-16.78,0-33.07,2.08-48.65,5.94
	C88.09,38.9,153.41,118.43,153.41,213.25z M2648.55,86.99c-37.03-46.19-93.9-75.8-157.71-75.8c-111.6,0-202.07,90.47-202.07,202.07
	s90.47,202.07,202.07,202.07c63.81,0,120.68-29.61,157.71-75.8c-27.73-34.6-44.36-78.48-44.36-126.26
	C2604.19,165.46,2620.82,121.58,2648.55,86.99z M3097.66,49.7c-33.32-24.21-74.29-38.52-118.62-38.52
	c-111.6,0-202.07,90.47-202.07,202.07s90.47,202.07,202.07,202.07c44.33,0,85.3-14.31,118.62-38.52
	c-50.55-36.73-83.45-96.28-83.45-163.55S3047.11,86.43,3097.66,49.7z M3550.21,30.56c-26.2-12.41-55.48-19.38-86.4-19.38
	c-111.6,0-202.07,90.47-202.07,202.07s90.47,202.07,202.07,202.07c30.92,0,60.2-6.97,86.4-19.38
	c-68.37-32.39-115.67-102.01-115.67-182.69S3481.84,62.95,3550.21,30.56z M4000,17.12c-15.59-3.85-31.88-5.94-48.65-5.94
	c-111.6,0-202.07,90.47-202.07,202.07s90.47,202.07,202.07,202.07c16.78,0,33.07-2.08,48.65-5.94
	c-88.09-21.78-153.41-101.31-153.41-196.13S3911.91,38.9,4000,17.12z"/>
</svg>
