<?xml version="1.0" encoding="utf-8"?>
<!-- Generator: Adobe Illustrator 24.0.2, SVG Export Plug-In . SVG Version: 6.00 Build 0)  -->
<svg version="1.1" id="Слой_1" xmlns="http://www.w3.org/2000/svg" xmlns:xlink="http://www.w3.org/1999/xlink" x="0px" y="0px"
	 viewBox="0 0 661.5 2000" style="enable-background:new 0 0 661.5 2000;" xml:space="preserve">
<style type="text/css">
	.st0{fill:#FFFFFF;}
</style>
<path class="st0" d="M330.3,617.88c0-26.88-21.79-68.95-48.67-68.95c26.88,0,48.67-43.81,48.67-70.69
	c0,26.88,21.79,70.69,48.67,70.69C352.09,548.93,330.3,591,330.3,617.88z M328.45,411.73v54.53c0,1.02,0.83,1.85,1.85,1.85
	s1.85-0.83,1.85-1.85v-54.53c0-1.02-0.83-1.85-1.85-1.85S328.45,410.71,328.45,411.73z M328.45,631.18v54.53
	c0,1.02,0.83,1.85,1.85,1.85s1.85-0.83,1.85-1.85v-54.53c0-1.02-0.83-1.85-1.85-1.85S328.45,630.16,328.45,631.18z M224.71,548.72
	c0,1.02,0.83,1.85,1.85,1.85h41.29c1.02,0,1.85-0.83,1.85-1.85c0-1.02-0.83-1.85-1.85-1.85h-41.29
	C225.54,546.87,224.71,547.7,224.71,548.72z M436.6,548.72c0-1.02-0.83-1.85-1.85-1.85h-41.29c-1.02,0-1.85,0.83-1.85,1.85
	c0,1.02,0.83,1.85,1.85,1.85h41.29C435.77,550.58,436.6,549.75,436.6,548.72z M257.05,624.18c0.47,0,0.95-0.18,1.31-0.54l29.2-29.2
	c0.72-0.72,0.72-1.9,0-2.62c-0.72-0.72-1.9-0.72-2.62,0l-29.2,29.2c-0.73,0.72-0.73,1.9,0,2.62
	C256.1,624,256.57,624.18,257.05,624.18z M375.06,506.17c0.47,0,0.95-0.18,1.31-0.54l29.2-29.2c0.72-0.72,0.72-1.9,0-2.62
	c-0.72-0.72-1.9-0.72-2.62,0l-29.2,29.2c-0.72,0.72-0.72,1.9,0,2.62C374.11,505.99,374.58,506.17,375.06,506.17z M255.74,473.81
	c-0.73,0.72-0.73,1.9,0,2.62l29.2,29.2c0.36,0.36,0.84,0.54,1.31,0.54c0.47,0,0.95-0.18,1.31-0.54c0.72-0.72,0.72-1.9,0-2.62
	l-29.2-29.2C257.64,473.08,256.46,473.08,255.74,473.81z M402.95,623.64c0.36,0.36,0.84,0.54,1.31,0.54c0.47,0,0.95-0.18,1.31-0.54
	c0.72-0.72,0.72-1.9,0-2.62l-29.2-29.2c-0.72-0.72-1.9-0.72-2.62,0c-0.72,0.72-0.72,1.9,0,2.62L402.95,623.64z M232.62,371
	c-4.84,0-9.42-1.12-13.49-3.11c3.89,3.68,8.55,6.54,13.73,8.33c0.29,0.1,0.58,0.2,0.87,0.29c1.16,0.37,2.33,0.69,3.54,0.95
	c0.01,0,0.01,0,0.01,0c0.35,0.08,0.72,0.14,1.07,0.21c0,0,0,0,0.01,0c1.25,0.24,2.51,0.4,3.79,0.51c0.39,0.03,0.79,0.06,1.18,0.08
	c0.08,0.01,0.16,0.01,0.24,0.01c0.28,0.01,0.55,0.02,0.83,0.03h0.01c0.3,0.01,0.59,0.01,0.9,0.01c6.25,0,12.15-1.51,17.36-4.18h0.01
	c0.31-0.16,0.61-0.32,0.9-0.48c0.79-0.43,1.56-0.89,2.32-1.37h0.01c0.7-0.45,1.38-0.92,2.04-1.41c9.39-6.94,15.47-18.09,15.47-30.66
	c0-12.19-5.72-23.03-14.62-30.01c-0.67-0.52-1.35-1.02-2.06-1.5c-1.22-0.83-2.5-1.59-3.82-2.29c-0.32-0.17-0.65-0.33-0.98-0.49
	c-5.02-2.44-10.67-3.81-16.63-3.81c-0.21,0-0.42,0-0.62,0.01c-0.63,0.01-1.25,0.03-1.87,0.08c-1.29,0.08-2.55,0.23-3.8,0.44
	c-0.36,0.06-0.73,0.12-1.09,0.19c-1.25,0.25-2.49,0.55-3.7,0.92c-0.31,0.09-0.61,0.19-0.92,0.29c-5.35,1.77-10.18,4.7-14.18,8.49
	c4.07-1.99,8.65-3.11,13.49-3.11c17.01,0,30.8,13.79,30.8,30.8C263.42,357.21,249.63,371,232.62,371z M388.96,370.86
	c0.66,0.49,1.35,0.96,2.04,1.41h0.01c0.76,0.49,1.52,0.94,2.32,1.37c0.29,0.16,0.59,0.32,0.9,0.48h0.01
	c5.21,2.67,11.11,4.18,17.36,4.18c0.3,0,0.6-0.01,0.9-0.01h0.01c0.28-0.01,0.55-0.02,0.83-0.03c0.08,0,0.16-0.01,0.24-0.01
	c0.4-0.02,0.79-0.05,1.18-0.08c1.29-0.1,2.55-0.27,3.79-0.51c0.01,0,0.01,0,0.01,0c0.36-0.06,0.72-0.13,1.07-0.21c0,0,0,0,0.01,0
	c1.2-0.26,2.38-0.58,3.53-0.95c0.3-0.09,0.58-0.18,0.87-0.29c5.18-1.78,9.84-4.65,13.73-8.33c-4.07,1.99-8.65,3.11-13.49,3.11
	c-17.02,0-30.8-13.79-30.8-30.8c0-17.01,13.79-30.8,30.8-30.8c4.84,0,9.42,1.12,13.49,3.11c-4-3.79-8.83-6.72-14.18-8.49
	c-0.31-0.1-0.61-0.2-0.92-0.29c-1.21-0.37-2.45-0.68-3.7-0.92c-0.36-0.07-0.73-0.13-1.09-0.19c-1.25-0.21-2.51-0.36-3.8-0.44
	c-0.62-0.04-1.24-0.06-1.87-0.08c-0.2-0.01-0.41-0.01-0.62-0.01c-5.96,0-11.61,1.37-16.63,3.81c-0.33,0.16-0.65,0.32-0.98,0.49
	c-1.32,0.69-2.59,1.46-3.82,2.29c-0.7,0.48-1.39,0.98-2.06,1.5c-8.9,6.98-14.62,17.82-14.62,30.01
	C373.49,352.77,379.58,363.92,388.96,370.86z M328.45,295.16c-24.88,0-45.04,20.17-45.04,45.04c0,24.88,20.17,45.04,45.04,45.04
	c24.88,0,45.04-20.17,45.04-45.04C373.49,315.32,353.32,295.16,328.45,295.16z M456.61,1354.39c-3.64,1.56-5.32,5.78-3.76,9.42
	c1.17,2.72,3.81,4.34,6.6,4.34c0.94,0,1.9-0.19,2.82-0.59c3.64-1.56,5.32-5.78,3.76-9.42
	C464.46,1354.5,460.24,1352.83,456.61,1354.39z M611.09,987.43c-3.92-0.6-7.57,2.09-8.17,6.01c-0.6,3.91,2.09,7.57,6,8.17
	c0.37,0.06,0.73,0.08,1.09,0.08c3.48,0,6.54-2.54,7.08-6.09C617.7,991.68,615.01,988.03,611.09,987.43z M588.98,1107.88
	c-3.86-0.88-7.71,1.52-8.6,5.38c-0.89,3.86,1.52,7.71,5.38,8.6c0.54,0.13,1.08,0.18,1.62,0.18c3.26,0.01,6.22-2.24,6.98-5.56
	C595.24,1112.62,592.84,1108.77,588.98,1107.88z M597.34,1067.92c-3.89-0.78-7.66,1.74-8.44,5.62c-0.78,3.88,1.74,7.66,5.62,8.44
	c0.47,0.1,0.95,0.14,1.41,0.14c3.35,0,6.35-2.36,7.03-5.77C603.74,1072.47,601.22,1068.69,597.34,1067.92z M579.39,1147.58
	c-3.83-1.02-7.75,1.25-8.78,5.08c-1.02,3.83,1.25,7.76,5.08,8.78c0.62,0.17,1.24,0.25,1.86,0.25c3.16,0,6.07-2.11,6.92-5.32
	c0-0.01,0-0.01,0-0.01C585.5,1152.54,583.22,1148.61,579.39,1147.58z M621.6,906.42c-3.93-0.45-7.49,2.37-7.94,6.3
	c-0.45,3.94,2.37,7.5,6.31,7.94c0.28,0.04,0.55,0.05,0.82,0.05c3.59,0,6.7-2.7,7.12-6.36C628.36,910.42,625.54,906.87,621.6,906.42z
	 M625.78,865.78c-3.94-0.38-7.44,2.5-7.83,6.44c-0.39,3.95,2.5,7.45,6.44,7.84c0.23,0.02,0.47,0.04,0.7,0.04
	c3.65,0,6.77-2.78,7.13-6.48c-0.01,0-0.01,0-0.01,0C632.61,869.67,629.72,866.17,625.78,865.78z M616.72,946.97
	c-3.93-0.52-7.53,2.24-8.05,6.17c-0.52,3.93,2.24,7.53,6.17,8.05c0.32,0.04,0.63,0.06,0.95,0.06c3.54,0,6.62-2.62,7.1-6.23
	C623.41,951.1,620.64,947.49,616.72,946.97z M604.67,1027.74c-3.9-0.68-7.62,1.92-8.3,5.83c-0.69,3.9,1.93,7.62,5.83,8.3
	c0.41,0.08,0.84,0.11,1.25,0.11c3.42,0,6.45-2.46,7.05-5.94C611.18,1032.13,608.57,1028.42,604.67,1027.74z M351.7,1314.7
	c-3.19,2.34-3.89,6.82-1.55,10.02c-0.01,0-0.01,0-0.01,0c1.41,1.92,3.59,2.94,5.8,2.94c1.47,0,2.95-0.45,4.23-1.38
	c3.2-2.34,3.89-6.82,1.56-10.02C359.39,1313.05,354.89,1312.36,351.7,1314.7z M568.33,1186.89c-3.78-1.19-7.8,0.91-9,4.69
	c-1.19,3.77,0.91,7.8,4.69,9c0.72,0.22,1.44,0.33,2.16,0.33c3.04,0,5.87-1.96,6.84-5.03
	C574.21,1192.11,572.11,1188.08,568.33,1186.89z M629.27,825.08c-3.95-0.32-7.4,2.63-7.72,6.57c-0.32,3.95,2.63,7.41,6.58,7.72
	c0.19,0.01,0.39,0.02,0.57,0.02c3.71,0,6.84-2.85,7.14-6.6C636.16,828.85,633.22,825.39,629.27,825.08z M421.11,1359.4
	c-3.92-0.57-7.56,2.14-8.14,6.05c-0.58,3.92,2.13,7.56,6.05,8.14c0.35,0.05,0.71,0.08,1.06,0.08c3.5,0,6.56-2.57,7.09-6.13
	C427.73,1363.63,425.03,1359.98,421.11,1359.4z M388.11,1344.37c-3.12-2.44-7.63-1.88-10.06,1.24c-2.44,3.13-1.88,7.63,1.25,10.06
	c1.31,1.03,2.86,1.52,4.4,1.52c2.14,0,4.25-0.94,5.66-2.76C391.79,1351.31,391.24,1346.81,388.11,1344.37z M555.4,1225.62
	c-3.71-1.41-7.84,0.45-9.25,4.16c-1.4,3.7,0.46,7.84,4.16,9.25c0.84,0.32,1.7,0.47,2.54,0.47c2.89,0,5.62-1.76,6.71-4.63
	c-0.01,0-0.01,0-0.01,0C560.97,1231.17,559.1,1227.02,555.4,1225.62z M521.2,1299.6c-3.34-2.13-7.77-1.15-9.9,2.18
	c-2.13,3.34-1.16,7.77,2.19,9.9c1.19,0.76,2.53,1.13,3.85,1.13c2.36,0,4.68-1.17,6.05-3.31
	C525.51,1306.17,524.53,1301.73,521.2,1299.6z M540.01,1263.42c-3.57-1.71-7.85-0.19-9.55,3.39c-1.71,3.58-0.19,7.86,3.39,9.56
	c1,0.48,2.05,0.7,3.08,0.7c2.68,0,5.25-1.51,6.48-4.1C545.1,1269.4,543.58,1265.12,540.01,1263.42z M641.72,709.77
	c0,3.96-3.22,7.17-7.17,7.17c-0.63,0-1.23-0.11-1.81-0.26c-17.27,61.29-52.69,114.95-100.09,154.85
	c-5.68,133.87-16.89,302.2-35.68,460.73c0.12,0.11,0.26,0.19,0.38,0.3c2.81,2.79,2.84,7.33,0.06,10.15
	c-0.55,0.56-1.18,0.97-1.85,1.31c-0.14,1.14-0.27,2.28-0.41,3.42c-17.5,143.26-38.85,256.79-63.47,337.43
	c-14.12,46.25-29.48,81.99-45.66,106.24c-17.84,26.74-37.21,40.3-57.57,40.3c-19.15,0-37.53-13.57-54.64-40.34
	c-15.5-24.25-30.39-59.99-44.25-106.22c-10.88-36.29-21.21-79.18-30.94-128.34c-0.56,0.02-1.11,0.04-1.67,0.04
	c-16.82,0-32.88-11.34-47.74-33.69c-13.28-19.99-26.03-49.39-37.88-87.39c-20.68-66.31-39.02-159.37-54.52-276.6
	c-23.81-180.09-36.09-384.9-38.7-501.47c-0.7-8.57-1.08-17.23-1.08-25.98c0-126.5,74.88-235.49,182.72-285.12
	C144.15,386.81,108,452.42,108,526.47c0,83.8,46.28,156.78,114.68,194.8c2.23,1.25,3.45,1.91,9.16,4.82
	c29.8,14.8,63.38,23.13,98.91,23.13c123.02,0,222.75-99.73,222.75-222.75c0-74.06-36.15-139.66-91.76-180.16
	c107.84,49.63,182.72,158.62,182.72,285.12c0,24.56-2.83,48.47-8.17,71.41C639.4,703.62,641.72,706.41,641.72,709.77z M129.76,872.3
	c6.84,138.71,20.01,314.63,40.34,474.58c9.67,76.07,20.28,143.77,31.74,202.61c28.66-3.07,54.25-33.2,76.11-89.71
	c19.87-51.36,36.57-124.33,49.63-216.9c13.49-95.61,21.65-203.29,25.95-298.56c-7.53,0.54-15.13,0.83-22.79,0.83
	c-28.19,0-55.51-3.74-81.5-10.72c-0.99,2.17-3.02,3.82-5.56,4.16c-0.33,0.04-0.64,0.07-0.96,0.07c-3.54,0-6.62-2.62-7.1-6.22
	c-0.09-0.68-0.05-1.33,0.04-1.98C196.46,918.01,160.6,898.06,129.76,872.3z M197.29,1549.76c-11.44-58.81-22.03-126.41-31.68-202.31
	c-20.56-161.69-33.79-339.7-40.58-479.17c-47.69-41.46-82.73-97.08-98.58-160.32c4.51,119.48,16.47,294.03,37.1,450.03
	c15.45,116.84,33.71,209.52,54.27,275.46c11.66,37.39,24.12,66.21,37.05,85.65c13.52,20.35,27.68,30.66,42.08,30.66
	C197.06,1549.77,197.18,1549.76,197.29,1549.76z M527.94,875.41c-26.16,21.17-55.79,38.22-87.91,50.16v269.01
	c2.6-0.98,7.42-3.7,20.6-13.32c-13.13,18-13.41,20.43-13.96,22.86c0.54,2.43,0.82,4.86,13.96,22.86
	c-18-13.13-20.43-13.41-22.86-13.96c-2.43,0.54-4.86,0.82-22.86,13.96c13.13-18,13.41-20.43,13.96-22.86
	c-0.54-2.43-0.82-4.86-13.96-22.86c13.18,9.61,18,12.33,20.6,13.32V927.21c-23.85,8.45-49.03,14.09-75.13,16.54
	c-4.3,95.68-12.48,203.97-26.05,300.08c-1.85,13.12-3.77,25.83-5.76,38.14c0.65-1.04,1.55-1.94,2.72-2.55
	c3.5-1.84,7.84-0.49,9.68,3.02c1.83,3.5,0.48,7.84-3.02,9.68c-1.07,0.56-2.2,0.82-3.33,0.82c-0.07,0-0.13-0.01-0.19-0.01v276.3
	c0,0.11-0.05,0.2-0.06,0.3c1.53-0.13,3.07-0.21,4.63-0.21c0.3,0,0.61,0,0.9,0.01c0.92,0.02,1.82,0.05,2.72,0.11
	c1.88,0.12,3.72,0.33,5.54,0.64c0.53,0.08,1.06,0.18,1.59,0.28c1.83,0.36,3.63,0.81,5.39,1.35c0.45,0.13,0.89,0.28,1.34,0.42
	c7.8,2.58,14.83,6.85,20.66,12.37c-5.93-2.9-12.6-4.53-19.65-4.53c-24.79,0-44.87,20.09-44.87,44.87
	c0,24.79,20.08,44.87,44.87,44.87c7.05,0,13.72-1.63,19.65-4.53c-5.67,5.36-12.46,9.53-20,12.13c-0.42,0.15-0.84,0.29-1.27,0.42
	c-1.68,0.54-3.4,1-5.15,1.38c-0.01,0-0.01,0-0.01,0c-0.51,0.11-1.04,0.21-1.57,0.3c0,0,0,0-0.01,0c-1.82,0.35-3.65,0.59-5.53,0.74
	c-0.57,0.05-1.14,0.09-1.73,0.12c-0.12,0.01-0.24,0.02-0.35,0.02c-0.4,0.02-0.81,0.03-1.21,0.04h-0.01
	c-0.44,0.01-0.87,0.02-1.31,0.02c-9.1,0-17.69-2.2-25.28-6.08h-0.01c-0.45-0.23-0.88-0.46-1.31-0.7c-1.15-0.63-2.27-1.3-3.37-2H309
	c-1.02-0.66-2.01-1.35-2.98-2.06c-13.67-10.11-22.54-26.35-22.54-44.67c0-17.75,8.33-33.56,21.3-43.72c0.98-0.76,1.97-1.49,3-2.19
	c1.78-1.21,3.64-2.32,5.56-3.33c0.47-0.24,0.94-0.48,1.42-0.71c4.76-2.31,9.9-3.95,15.3-4.82c-0.1-0.25-0.16-0.53-0.16-0.82v-278.07
	c-0.65-0.56-1.21-1.24-1.63-2.05c-0.28-0.53-0.46-1.08-0.6-1.64c-28.37,172.11-70.17,262.39-124.49,268.74
	c9.67,48.78,19.92,91.34,30.73,127.36c28.52,95.1,60.33,143.33,94.55,143.33c67.76,0,123.85-165.98,162.2-479.99
	c0.09-0.73,0.18-1.46,0.26-2.19c-1.34-0.26-2.61-0.9-3.66-1.93c-2.81-2.79-2.85-7.33-0.05-10.14c1.48-1.5,3.45-2.18,5.41-2.1
	C511.11,1174.06,522.23,1008.17,527.94,875.41z M263.76,1093.96c0.73,3.34,3.7,5.62,6.99,5.62c0.51,0,1.03-0.05,1.55-0.17
	c3.87-0.86,6.31-4.69,5.46-8.55c-0.85-3.86-4.69-6.31-8.55-5.45C265.34,1086.27,262.9,1090.1,263.76,1093.96z M255.42,1053.8
	c0.66,3.43,3.67,5.8,7.03,5.8c0.45,0,0.92-0.05,1.38-0.14c3.89-0.76,6.42-4.53,5.67-8.41c-0.76-3.9-4.53-6.43-8.42-5.67
	C257.2,1046.15,254.66,1049.91,255.42,1053.8z M273.19,1133.92c0.81,3.25,3.74,5.42,6.94,5.42c0.58,0,1.18-0.07,1.77-0.22
	c3.83-0.97,6.16-4.87,5.19-8.71v0.01c-0.97-3.84-4.86-6.17-8.7-5.2C274.54,1126.18,272.22,1130.07,273.19,1133.92z M253.85,1005.17
	c-3.9,0.67-6.52,4.39-5.84,8.29c0.6,3.49,3.63,5.95,7.05,5.95c0.41,0,0.82-0.03,1.23-0.11c3.9-0.67,6.52-4.38,5.85-8.28
	C261.47,1007.12,257.76,1004.5,253.85,1005.17z M241.44,973c0.54,3.56,3.6,6.09,7.08,6.09c0.36,0,0.73-0.02,1.1-0.08
	c3.91-0.6,6.6-4.25,6.01-8.17c-0.6-3.92-4.26-6.6-8.17-6.01C243.53,965.43,240.84,969.09,241.44,973
	C241.44,973,241.44,973,241.44,973z M283.93,1173.58c0.91,3.13,3.77,5.17,6.88,5.17c0.66,0,1.34-0.09,2.01-0.29
	c3.8-1.11,5.99-5.09,4.88-8.88c-1.1-3.8-5.09-5.99-8.88-4.88C285.01,1165.8,282.82,1169.79,283.93,1173.58z M317.43,1255.93
	c0.91,0,1.84-0.17,2.73-0.54c3.66-1.52,5.4-5.71,3.89-9.37c-1.51-3.66-5.71-5.4-9.37-3.89c-3.66,1.51-5.4,5.71-3.88,9.37
	C311.95,1254.26,314.62,1255.93,317.43,1255.93z M633.93,743.48c-3.96-0.15-7.29,2.94-7.44,6.89c-0.16,3.96,2.93,7.28,6.88,7.44
	c0.1,0,0.19,0,0.28,0c3.84,0,7.01-3.03,7.16-6.89C640.97,746.97,637.88,743.63,633.93,743.48z M632.03,784.3
	c-3.96-0.24-7.35,2.77-7.6,6.72c-0.24,3.95,2.77,7.36,6.72,7.6c0.14,0.01,0.3,0.02,0.44,0.02c3.76,0,6.92-2.93,7.16-6.73
	C638.99,787.95,635.98,784.55,632.03,784.3z M296.3,1212.85c1.02,2.98,3.8,4.85,6.79,4.85c0.77,0,1.55-0.12,2.32-0.38
	c3.75-1.28,5.75-5.36,4.47-9.11c-1.28-3.74-5.36-5.74-9.11-4.46C297.01,1205.03,295.02,1209.1,296.3,1212.85z M330.3,275.19
	c14.72-39.74,5.21-30.23,44.94-44.94c-39.74-14.72-30.23-5.21-44.94-44.94c-14.72,39.74-5.21,30.23-44.94,44.94
	C325.09,244.96,315.58,235.45,330.3,275.19z M330.3,143.98c10-27,3.54-20.54,30.54-30.54c-27-10-20.54-3.54-30.54-30.54
	c-10,27-3.54,20.54-30.54,30.54C326.76,123.45,320.3,116.98,330.3,143.98z M330.3,40.13c6.57-17.74,2.33-13.5,20.07-20.07
	C332.63,13.5,336.87,17.74,330.3,0c-6.57,17.74-2.33,13.5-20.07,20.07C327.97,26.64,323.73,22.39,330.3,40.13z M206.01,1289.55
	c3.16,0.71,6.32,1.07,29.72,18.14c-17.07-23.4-17.43-26.56-18.14-29.72c0.71-3.16,1.07-6.32,18.14-29.72
	c-23.4,17.07-26.56,17.43-29.72,18.14c-3.16-0.71-6.32-1.07-29.72-18.14c17.07,23.4,17.43,26.56,18.14,29.72
	c-0.71,3.16-1.07,6.32-18.14,29.72C199.69,1290.62,202.85,1290.26,206.01,1289.55z M348.8,1913.18l18.63-27.93l-27.93,18.63
	l-11.06-55.41l-11.06,55.41l-27.93-18.63l18.63,27.93l-55.41,11.06l55.41,11.06l-18.63,27.93l27.93-18.63l11.06,55.41l11.06-55.41
	l27.93,18.63l-18.63-27.93l55.41-11.06L348.8,1913.18z M206.01,939.31c2.5,0,4.53-2.02,4.53-4.53c0-2.5-2.03-4.53-4.53-4.53
	c-2.5,0-4.53,2.03-4.53,4.53C201.48,937.29,203.51,939.31,206.01,939.31z M206.01,1097.83c2.5,0,4.53-2.03,4.53-4.54
	c0-2.5-2.03-4.53-4.53-4.53c-2.5,0-4.53,2.03-4.53,4.53C201.48,1095.8,203.51,1097.83,206.01,1097.83z M206.01,1150.66
	c2.5,0,4.53-2.02,4.53-4.53c0-2.5-2.03-4.53-4.53-4.53c-2.5,0-4.53,2.03-4.53,4.53C201.48,1148.64,203.51,1150.66,206.01,1150.66z
	 M206.01,1203.5c2.5,0,4.53-2.02,4.53-4.53c0-2.5-2.03-4.53-4.53-4.53c-2.5,0-4.53,2.03-4.53,4.53
	C201.48,1201.47,203.51,1203.5,206.01,1203.5z M206.01,1071.4c2.5,0,4.53-2.02,4.53-4.53c0-2.5-2.03-4.53-4.53-4.53
	c-2.5,0-4.53,2.03-4.53,4.53C201.48,1069.38,203.51,1071.4,206.01,1071.4z M206.01,1177.08c2.5,0,4.53-2.02,4.53-4.53
	c0-2.5-2.03-4.52-4.53-4.52c-2.5,0-4.53,2.02-4.53,4.52C201.48,1175.05,203.51,1177.08,206.01,1177.08z M206.01,1124.24
	c2.5,0,4.53-2.02,4.53-4.53c0-2.5-2.03-4.53-4.53-4.53c-2.5,0-4.53,2.03-4.53,4.53C201.48,1122.22,203.51,1124.24,206.01,1124.24z
	 M206.01,1229.91c2.5,0,4.53-2.02,4.53-4.52c0-2.51-2.03-4.54-4.53-4.54c-2.5,0-4.53,2.03-4.53,4.54
	C201.48,1227.89,203.51,1229.91,206.01,1229.91z M206.01,992.15c2.5,0,4.53-2.02,4.53-4.53c0-2.5-2.03-4.52-4.53-4.52
	c-2.5,0-4.53,2.02-4.53,4.52C201.48,990.12,203.51,992.15,206.01,992.15z M206.01,1018.57c2.5,0,4.53-2.03,4.53-4.54
	c0-2.5-2.03-4.53-4.53-4.53c-2.5,0-4.53,2.03-4.53,4.53C201.48,1016.54,203.51,1018.57,206.01,1018.57z M206.01,1256.33
	c2.5,0,4.53-2.02,4.53-4.53c0-2.5-2.03-4.52-4.53-4.52c-2.5,0-4.53,2.02-4.53,4.52C201.48,1254.31,203.51,1256.33,206.01,1256.33z
	 M206.01,965.73c2.5,0,4.53-2.02,4.53-4.52c0-2.51-2.03-4.54-4.53-4.54c-2.5,0-4.53,2.03-4.53,4.54
	C201.48,963.71,203.51,965.73,206.01,965.73z M206.01,1044.98c2.5,0,4.53-2.02,4.53-4.52c0-2.51-2.03-4.54-4.53-4.54
	c-2.5,0-4.53,2.03-4.53,4.54C201.48,1042.96,203.51,1044.98,206.01,1044.98z"/>
</svg>
