<?xml version="1.0" encoding="utf-8"?>
<!-- Generator: Adobe Illustrator 24.0.2, SVG Export Plug-In . SVG Version: 6.00 Build 0)  -->
<svg version="1.1" id="Слой_1" xmlns="http://www.w3.org/2000/svg" xmlns:xlink="http://www.w3.org/1999/xlink" x="0px" y="0px"
	 viewBox="0 0 2000 2000" style="enable-background:new 0 0 2000 2000;" xml:space="preserve">
<path d="M1353.53,1000c0,195.48-158.47,353.95-353.95,353.95c-195.48,0-353.95-158.47-353.95-353.95
	c0-195.48,158.47-353.95,353.95-353.95C1195.06,646.05,1353.53,804.52,1353.53,1000z M1043.21,561.2l-21.61-280.6L1000,0
	l-21.61,280.6l-21.61,280.6H1000H1043.21z M956.79,1438.8l21.61,280.6L1000,2000l21.61-280.6l21.61-280.6H1000H956.79z
	 M561.2,1043.21V1000v-43.21l-280.6,21.61L0,1000l280.6,21.61L561.2,1043.21z M1438.8,956.79V1000v43.21l280.6-21.61L2000,1000
	l-280.6-21.61L1438.8,956.79z M659.17,720.28l30.56-30.56l30.56-30.56L506.59,476.03L292.89,292.89l183.14,213.69L659.17,720.28z
	 M1340.84,1279.72l-30.56,30.56l-30.56,30.56l213.69,183.14l213.69,183.14l-183.14-213.69L1340.84,1279.72z M689.72,1310.28
	l-30.56-30.56l-183.14,213.69l-183.14,213.69l213.69-183.14l213.69-183.14L689.72,1310.28z M1310.28,689.72l30.56,30.56
	l183.14-213.69l183.14-213.69l-213.69,183.14l-213.69,183.14L1310.28,689.72z M798.58,607.77l40.19-15.88l40.19-15.88L755.77,322.98
	L632.57,69.95l83.01,268.91L798.58,607.77z M1201.42,1392.23l-40.19,15.88l-40.19,15.88l123.2,253.03l123.2,253.03l-83-268.91
	L1201.42,1392.23z M607.77,1201.42l-15.88-40.19l-15.88-40.19l-253.03,123.2l-253.03,123.2l268.91-83.01L607.77,1201.42z
	 M1392.23,798.58l15.88,40.19l15.88,40.19l253.03-123.2l253.03-123.2l-268.91,83.01L1392.23,798.58z M580.23,865.08l17.19-39.65
	l17.19-39.64l-266.03-91.81L82.54,602.17l248.84,131.46L580.23,865.08z M1419.77,1134.92l-17.19,39.65l-17.19,39.64l266.03,91.81
	l266.03,91.81l-248.84-131.46L1419.77,1134.92z M785.78,1385.39l-91.81,266.03l-91.81,266.03l131.45-248.84l131.45-248.84
	l-39.65-17.19L785.78,1385.39z M1214.22,614.61l91.81-266.03l91.81-266.03l-131.45,248.84l-131.45,248.84l39.65,17.19
	L1214.22,614.61z"/>
</svg>
