<?xml version="1.0" encoding="utf-8"?>
<!-- Generator: Adobe Illustrator 24.0.2, SVG Export Plug-In . SVG Version: 6.00 Build 0)  -->
<svg version="1.1" id="Слой_1" xmlns="http://www.w3.org/2000/svg" xmlns:xlink="http://www.w3.org/1999/xlink" x="0px" y="0px"
	 viewBox="0 0 2000 2000" style="enable-background:new 0 0 2000 2000;" xml:space="preserve">
<style type="text/css">
	.st0{fill:#FFFFFF;}
</style>
<path class="st0" d="M1172.21,1091.94c36.62,52.38,94.02,125.43,368.95,449.21c-323.81-274.94-396.84-332.33-449.22-368.95
	c-5.22,16.49-10.51,36.04-15.3,58.21c-15.5,83.63-28.94,185.2-76.64,769.58c-47.7-584.37-61.13-685.93-76.63-769.58
	c-4.79-22.17-10.08-41.72-15.3-58.21c-52.38,36.62-125.39,94.01-449.22,368.94c274.94-323.81,332.32-396.84,368.94-449.22
	c-16.49-5.21-36.03-10.51-58.21-15.29C685.94,1061.15,584.38,1047.73,0,1000c584.38-47.7,685.94-61.15,769.57-76.65
	c22.18-4.79,41.73-10.09,58.22-15.31c-36.62-52.38-94.02-125.42-368.94-449.2C782.67,733.8,855.69,791.18,908.07,827.79
	c5.22-16.49,10.51-36.04,15.3-58.21C938.87,685.95,952.31,584.4,1000,0c47.69,584.35,61.13,685.93,76.63,769.55
	c4.79,22.18,10.08,41.73,15.3,58.22c52.38-36.62,125.42-94,449.22-368.93c-274.92,323.79-332.32,396.83-368.94,449.21
	c16.49,5.21,36.04,10.51,58.21,15.3c83.63,15.5,185.19,28.94,769.57,76.65c-584.38,47.69-685.94,61.14-769.57,76.63
	C1208.25,1081.42,1188.7,1086.72,1172.21,1091.94z"/>
</svg>
