<?xml version="1.0" encoding="utf-8"?>
<!-- Generator: Adobe Illustrator 24.0.2, SVG Export Plug-In . SVG Version: 6.00 Build 0)  -->
<svg version="1.1" id="Слой_1" xmlns="http://www.w3.org/2000/svg" xmlns:xlink="http://www.w3.org/1999/xlink" x="0px" y="0px"
	 viewBox="0 0 1200 2000" style="enable-background:new 0 0 1200 2000;" xml:space="preserve">
<style type="text/css">
	.st0{fill:#FFFFFF;}
</style>
<path class="st0" d="M1115.27,592.88c-37.29,0-67.77,29.14-69.92,65.89H874.08c0.69-21.93,6.81-42.49,17.07-60.38
	c4.61-8.02,10.04-15.5,16.2-22.33c23.75-26.37,58.17-42.94,96.46-42.94c20.39,0,39.69,4.73,56.85,13.12
	c-6.75-5.41-6.99-6-10.38-8.97c-4.39-3.85-9.33-7.08-14.26-10.2c-8.76-5.54-18.06-10.2-27.73-13.92
	c-38.18-14.7-81.71-14.21-119.51,1.45c-30.02,12.43-55.87,34.19-73.48,61.46c-0.02,0.04-0.04,0.08-0.07,0.11
	c-11.49-28.9-28.86-55.43-51.52-78.08c-21.77-21.77-47.15-38.72-75.45-50.39c-28.01-11.56-57.7-17.42-88.27-17.42
	c-30.84,0-60.78,5.96-88.99,17.72c-28.02,11.67-53.16,28.52-74.73,50.09c-22.65,22.64-40.01,49.16-51.5,78.05
	c-0.02-0.03-0.03-0.05-0.05-0.08c-20.61-31.99-52.68-56.12-89.15-67.02c-0.54-0.16-1.08-0.32-1.62-0.48
	c-35.04-10.06-73.45-7.74-107.02,6.49c-17.72,7.53-33.79,18.15-47.57,31.19c17.16-8.39,36.46-13.12,56.86-13.12
	c38.28,0,72.68,16.57,96.44,42.92c6.15,6.83,11.59,14.31,16.2,22.33c10.26,17.89,16.39,38.45,17.08,60.39H154.65
	c-2.15-36.75-32.63-65.89-69.92-65.89c-38.69,0-70.05,31.36-70.05,70.05s31.36,70.05,70.05,70.05c37.29,0,67.77-29.15,69.92-65.9
	h171.25c-2.2,69.76-59.38,125.63-129.68,125.63c-20.39,0-39.69-4.73-56.86-13.09c2.49,1.21,4.97,4.53,7.12,6.34
	c2.54,2.13,5.14,4.18,7.8,6.15c5.34,3.95,10.93,7.57,16.72,10.83c11.86,6.67,24.57,11.82,37.74,15.27
	c13.34,3.5,27.13,5.29,40.91,5.29c3.16,0,6.29-0.1,9.4-0.28c2.52,93.91,16.06,264.23,42.77,413.63
	c17.08,95.5,37.3,171.34,60.1,225.41c27.67,65.61,59.33,98.88,94.1,98.88c24.35,0,46.83-14.1,67.19-42.03
	c16.13,66.03,32.92,122.76,50.23,169.64c18.48,50.03,37.64,88.76,56.95,115.12c21.5,29.34,43.85,44.21,66.44,44.21
	c23.9,0,47.32-12.73,69.62-37.83c20.14-22.68,39.86-56.02,58.6-99.1c32.72-75.2,62.84-180.11,89.54-311.82
	c44.7-220.48,69.43-470.1,71.54-579.87c27.86-6.4,53.72-20.19,74.5-39.83c-17.15,8.37-36.45,13.09-56.85,13.09
	c-70.31,0-127.49-55.87-129.69-125.63h171.23c2.15,36.75,32.63,65.9,69.92,65.9c38.69,0,70.05-31.36,70.05-70.05
	S1153.95,592.88,1115.27,592.88z M445.09,506.91c20.41-20.41,44.2-36.36,70.71-47.4c26.68-11.13,55.01-16.77,84.19-16.77
	c28.93,0,57.02,5.55,83.51,16.48c26.77,11.04,50.79,27.08,71.39,47.68c23.89,23.89,41.57,52.33,52.26,83.37
	c-1.36,2.67-2.66,5.37-3.87,8.12c-8.15,18.55-13.03,37.2-13.57,58.63l0.05,1.74c-2.21-102.9-86.32-185.64-189.75-185.64
	c-103.44,0-187.55,82.74-189.76,185.64h-0.15c-0.54-21.43-5.23-41.83-13.37-60.38c-1.21-2.77-2.52-5.48-3.89-8.16
	C403.53,559.22,421.21,530.79,445.09,506.91z M737.42,662.93l-20.8,4.15l-73.27,14.63l26.46,25.01l-41.91-15.93l15.99,41.89
	l-25.1-26.48L600,800.35l-18.77-94.07l-25.01,26.47l15.93-41.91l-41.89,15.99l26.48-25.11l-73.35-14.64l-20.81-4.15l20.81-4.15
	l73.26-14.62l-26.46-25.01l41.91,15.93l-15.99-41.89l25.1,26.48L600,525.52l18.77,94.07l25.01-26.47l-15.93,41.91l41.89-15.99
	l-26.48,25.1l73.35,14.64L737.42,662.93z M600.02,852.73c13.24,0,26.17-1.35,38.65-3.94c-2.16,89.66-11.24,247.08-35.56,394.11
	c-19.89,120.26-45.81,206.98-76.62,257.76c-12.43-52.41-24.46-110.42-36.03-173.81c-43.49-238.27-69.81-495.26-75.39-621.06
	C434.51,789.98,509.93,852.73,600.02,852.73z M456.05,1553.66c-31.48,0-60.82-31.73-87.21-94.3
	c-22.59-53.56-42.65-128.86-59.63-223.82c-26.7-149.28-40.2-319.44-42.67-412.94c20.08-2.1,39.07-7.89,56.27-16.7h0.02
	c1.29-0.66,2.56-1.34,3.8-2.02c3.33-1.83,6.57-3.76,9.76-5.8h0.02c2.94-1.89,5.82-3.9,8.61-5.96c31.52-23.32,54.2-57.91,62.11-97.81
	c4.4,121.36,31.04,387.66,75.98,633.87c12.11,66.35,24.73,126.85,37.78,181.23C501.1,1538.71,479.39,1553.66,456.05,1553.66z
	 M877.23,805.9c21.95,11.24,46.8,17.6,73.13,17.6c1.27,0,2.51-0.03,3.77-0.05h0.02c1.17-0.03,2.34-0.08,3.51-0.12
	c0.34,0,0.68-0.03,1.02-0.05c1.68-0.07,3.34-0.19,4.99-0.34c5.08-0.4,10.05-1.07,14.97-1.98c-2.31,110.23-26.96,357.89-71.36,576.89
	c-26.6,131.2-56.57,235.61-89.07,310.33c-38.23,87.88-79.06,132.43-121.36,132.43c-20.07,0-40.4-13.85-60.41-41.15
	c-18.9-25.8-37.73-63.91-55.97-113.29c-17.78-48.15-35.01-106.78-51.55-175.3c8.47-12.95,16.55-28.39,24.22-46.29
	c22.56-52.63,41.85-126.8,57.34-220.44c24.55-148.45,33.61-307.46,35.7-397.05c81.22-20.3,141.68-91.73,143.55-178.79l0.2,0.84
	c1.3,51.27,26.56,94.52,65.07,123.01c2.8,2.06,5.67,4.06,8.61,5.96h0.02c3.19,2.04,6.43,3.97,9.76,5.8c1.24,0.68,2.51,1.35,3.8,2.02
	H877.23z M503.6,96.4l65.99-13.17l-18.56-17.54l29.4,11.17l-11.22-29.38l17.61,18.57L600,0l13.17,65.99l17.54-18.56l-11.17,29.4
	l29.38-11.22l-18.57,17.61l66.04,13.18l-65.99,13.17l18.56,17.54l-29.4-11.17l11.22,29.38l-17.61-18.57L600,192.79l-13.17-65.99
	l-17.54,18.56l11.17-29.4l-29.38,11.22l18.57-17.61L503.6,96.4z M448.5,1663.25c-0.71,0.15-1.42,0.22-2.13,0.22
	c-4.81-0.01-9.14-3.37-10.15-8.27c-1.17-5.62,2.43-11.12,8.04-12.28c5.62-1.17,11.12,2.43,12.29,8.04
	C457.73,1656.58,454.12,1662.08,448.5,1663.25z M463.46,1729.01c-0.81,0.2-1.62,0.29-2.42,0.29c-4.7,0-8.96-3.21-10.09-7.98
	c-1.33-5.57,2.11-11.17,7.69-12.5c5.57-1.34,11.18,2.11,12.51,7.69C472.48,1722.08,469.04,1727.68,463.46,1729.01z M435.29,1597.11
	c-0.64,0.12-1.28,0.17-1.91,0.17c-4.9,0-9.27-3.49-10.19-8.49c-1.05-5.64,2.68-11.06,8.32-12.1c5.64-1.05,11.06,2.68,12.1,8.32
	C444.65,1590.65,440.92,1596.07,435.29,1597.11z M626.53,1986.19c1.89,5.41-0.96,11.33-6.38,13.23c-1.13,0.39-2.28,0.58-3.42,0.58
	c-4.29,0-8.31-2.68-9.8-6.96c-1.89-5.42,0.96-11.34,6.38-13.23C618.72,1977.92,624.64,1980.78,626.53,1986.19z M431.96,1518.77
	c0.94,5.66-2.88,11.02-8.54,11.95c-0.57,0.1-1.15,0.14-1.72,0.14c-4.98,0-9.38-3.6-10.23-8.67c-0.95-5.66,2.87-11.01,8.53-11.96
	C425.67,1509.29,431.02,1513.12,431.96,1518.77L431.96,1518.77z M566.37,1961c3.85,4.25,3.51,10.82-0.76,14.66
	c-1.99,1.79-4.47,2.67-6.95,2.67c-2.84,0-5.67-1.15-7.72-3.42c-3.85-4.26-3.51-10.82,0.76-14.67
	C555.97,1956.39,562.53,1956.73,566.37,1961z M480.72,1794.22c-0.94,0.27-1.89,0.39-2.82,0.39c-4.54,0-8.71-3-9.99-7.58
	c-1.55-5.52,1.67-11.25,7.19-12.8c5.52-1.55,11.26,1.67,12.8,7.19C489.46,1786.93,486.24,1792.66,480.72,1794.22z M532.47,1906.67
	c2.46,5.18,0.26,11.37-4.92,13.83c-1.45,0.69-2.96,1.01-4.45,1.01c-3.88,0-7.61-2.19-9.39-5.93c-2.46-5.18-0.26-11.37,4.92-13.84
	C523.8,1899.29,530,1901.49,532.47,1906.67L532.47,1906.67z M507.75,1845.21c1.88,5.43-0.99,11.34-6.41,13.22
	c-1.12,0.39-2.28,0.58-3.41,0.58c-4.29,0-8.32-2.69-9.81-6.99c0,0,0,0,0,0.01c-1.88-5.42,0.99-11.34,6.41-13.22
	C499.95,1836.92,505.87,1839.79,507.75,1845.21z M412.7,1464.15c-0.52,0.08-1.05,0.12-1.56,0.12c-5.05,0-9.48-3.69-10.26-8.83
	c-0.86-5.67,3.04-10.97,8.71-11.82c5.67-0.86,10.97,3.05,11.82,8.71C422.27,1458,418.37,1463.3,412.7,1464.15z M355.5,927.79
	c-5.47,0-10.06-4.29-10.37-9.82c-0.32-5.72,4.07-10.63,9.79-10.94c5.73-0.32,10.63,4.07,10.94,9.79v0.01
	c0.32,5.72-4.07,10.62-9.79,10.94C355.88,927.78,355.69,927.79,355.5,927.79z M359.74,995.13c-5.4,0-9.96-4.18-10.35-9.65
	c-0.4-5.72,3.91-10.68,9.64-11.09c5.72-0.4,10.68,3.91,11.08,9.64c0.41,5.72-3.9,10.68-9.63,11.08
	C360.23,995.12,359.98,995.13,359.74,995.13z M364.87,1062.4c-5.35,0-9.89-4.1-10.33-9.54c-0.47-5.72,3.78-10.72,9.5-11.2
	c5.72-0.47,10.73,3.78,11.21,9.5c0.47,5.71-3.79,10.73-9.5,11.2C365.45,1062.39,365.16,1062.4,364.87,1062.4z M342.09,850.31
	c-0.19-5.73,4.3-10.53,10.04-10.72c5.73-0.18,10.53,4.3,10.72,10.04c0.19,5.74-4.3,10.53-10.04,10.73h-0.35
	C346.89,860.36,342.28,855.93,342.09,850.31z M392.72,1330.73c-5.16,0-9.63-3.85-10.29-9.09c-0.71-5.69,3.32-10.88,9.01-11.6
	c5.69-0.71,10.88,3.31,11.6,9c0.71,5.69-3.32,10.88-9.01,11.6C393.58,1330.7,393.15,1330.73,392.72,1330.73z M401.51,1397.58
	c-5.1,0-9.55-3.76-10.27-8.96c-0.79-5.68,3.19-10.92,8.86-11.71c5.68-0.79,10.92,3.19,11.71,8.87c0.78,5.68-3.19,10.92-8.87,11.71
	C402.46,1397.56,401.98,1397.58,401.51,1397.58z M370.77,1129.6c-5.3,0-9.82-4.05-10.33-9.42c-0.53-5.72,3.66-10.78,9.38-11.31
	c5.71-0.53,10.77,3.66,11.31,9.38h-0.01c0.54,5.71-3.66,10.77-9.37,11.3C371.42,1129.58,371.1,1129.6,370.77,1129.6z
	 M377.38,1196.73c-5.25,0-9.76-3.98-10.32-9.31c-0.59-5.71,3.56-10.82,9.26-11.41c5.7-0.59,10.81,3.56,11.4,9.26
	c0.59,5.7-3.56,10.81-9.25,11.4C378.11,1196.7,377.74,1196.73,377.38,1196.73z M384.7,1263.77c-5.21,0-9.7-3.9-10.31-9.2
	c-0.65-5.7,3.44-10.85,9.14-11.5c5.7-0.65,10.85,3.44,11.5,9.14c0.66,5.7-3.44,10.84-9.14,11.5
	C385.48,1263.74,385.09,1263.77,384.7,1263.77z M789.02,1147.01C789.02,1147.01,789.02,1147.01,789.02,1147.01
	c-0.26,5.57-4.84,9.92-10.37,9.92c-0.16,0-0.32-0.01-0.47-0.01c-5.73-0.27-10.17-5.12-9.91-10.85c0.27-5.72,5.12-10.16,10.85-9.9
	C784.84,1136.42,789.28,1141.28,789.02,1147.01z M791.84,1079.55c-0.22,5.6-4.82,9.98-10.38,9.98c-0.13,0-0.27,0-0.4-0.01
	c-5.73-0.22-10.2-5.04-9.98-10.77c0.22-5.73,5.04-10.19,10.77-9.98C787.58,1069,792.05,1073.82,791.84,1079.55z M785.71,1214.45
	c-0.29,5.54-4.88,9.84-10.36,9.84c-0.18,0-0.37,0-0.56-0.01c-5.73-0.31-10.13-5.19-9.82-10.92c0.3-5.72,5.18-10.13,10.92-9.82
	C781.62,1203.84,786.01,1208.72,785.71,1214.45z M794.2,1012.08C794.2,1012.08,794.2,1012.08,794.2,1012.08
	c-0.18,5.62-4.79,10.04-10.38,10.04h-0.34c-5.73-0.18-10.23-4.98-10.04-10.71c0.18-5.73,4.98-10.23,10.71-10.05
	C789.88,1001.54,794.39,1006.34,794.2,1012.08z M797.68,877.05c-0.12,5.67-4.74,10.18-10.38,10.18h-0.21
	c-5.74-0.12-10.29-4.85-10.18-10.58c0.11-5.74,4.85-10.29,10.58-10.18C793.25,866.58,797.8,871.31,797.68,877.05z M798.83,809.5
	c-0.08,5.69-4.71,10.24-10.38,10.24h-0.15c-5.74-0.08-10.32-4.79-10.24-10.53c0.08-5.73,4.8-10.32,10.53-10.24
	C794.33,799.06,798.91,803.77,798.83,809.5z M799.58,741.93C799.58,741.93,799.58,741.93,799.58,741.93
	c-0.05,5.7-4.69,10.3-10.38,10.3c-0.03,0-0.06,0-0.08-0.01c-5.74-0.04-10.35-4.73-10.3-10.46h-0.01c0.05-5.73,4.73-10.35,10.47-10.3
	C795.01,731.5,799.62,736.19,799.58,741.93z M796.14,944.57c-0.14,5.64-4.76,10.12-10.37,10.12h-0.27
	c-5.73-0.15-10.26-4.92-10.12-10.65c0.15-5.73,4.92-10.26,10.65-10.11C791.76,934.07,796.3,938.84,796.14,944.57z M781.87,1281.73
	c-0.34,5.52-4.91,9.75-10.36,9.75c-0.22,0-0.43-0.01-0.64-0.02c-5.72-0.36-10.09-5.28-9.74-11c0.36-5.73,5.28-10.08,11.01-9.74
	C777.87,1271.08,782.22,1276.01,781.87,1281.73z M781.87,1281.73C781.87,1281.73,781.87,1281.73,781.87,1281.73
	C781.87,1281.74,781.87,1281.74,781.87,1281.73C781.87,1281.73,781.87,1281.73,781.87,1281.73z M741.89,1685.3
	c-0.79,5.13-5.21,8.8-10.25,8.8c-0.52,0-1.05-0.04-1.59-0.12c-5.67-0.88-9.55-6.19-8.67-11.86c0.88-5.67,6.19-9.55,11.85-8.67
	C738.89,1674.33,742.77,1679.63,741.89,1685.3z M716.29,1818.61c-1.15,4.75-5.4,7.95-10.09,7.95c-0.81,0-1.63-0.09-2.44-0.29
	c-5.58-1.35-9.01-6.95-7.67-12.53c1.35-5.57,6.95-9,12.53-7.67C714.19,1807.42,717.62,1813.03,716.29,1818.61z M730.45,1752.13
	c-0.94,4.98-5.3,8.46-10.18,8.46c-0.64,0-1.3-0.06-1.94-0.18c-5.64-1.07-9.34-6.5-8.27-12.14c1.06-5.63,6.5-9.34,12.14-8.27
	C727.82,1741.06,731.52,1746.5,730.45,1752.13z M671,1948.14c-1.89,3.42-5.44,5.36-9.1,5.36c-1.69,0-3.41-0.42-5.01-1.3
	c-5.02-2.77-6.84-9.09-4.06-14.11v0.01c2.77-5.03,9.09-6.85,14.11-4.07C671.95,1936.8,673.77,1943.12,671,1948.14z M697.8,1884.35
	c-1.45,4.36-5.51,7.12-9.86,7.12c-1.08,0-2.18-0.17-3.27-0.53c-5.45-1.8-8.4-7.68-6.59-13.12c1.8-5.45,7.68-8.4,13.12-6.6
	C696.65,1873.03,699.61,1878.9,697.8,1884.35z M766.34,1483.86c-0.52,5.37-5.03,9.4-10.33,9.4c-0.32,0-0.66-0.02-0.99-0.05
	c-5.71-0.54-9.89-5.61-9.35-11.31v-0.01c0.54-5.71,5.61-9.89,11.32-9.35C762.69,1473.07,766.88,1478.14,766.34,1483.86z
	 M772.28,1416.54c-0.45,5.43-4.99,9.54-10.34,9.54c-0.28,0-0.57-0.01-0.86-0.03c-5.72-0.46-9.97-5.48-9.5-11.2
	c0.47-5.72,5.48-9.97,11.2-9.5C768.49,1405.82,772.75,1410.83,772.28,1416.54z M751.4,1618.26c-0.68,5.23-5.14,9.05-10.28,9.05
	c-0.45,0-0.9-0.03-1.35-0.08c-5.68-0.74-9.69-5.95-8.96-11.64h-0.01c0.74-5.68,5.96-9.69,11.64-8.96
	C748.13,1607.37,752.14,1612.58,751.4,1618.26z M777.42,1349.19c-0.39,5.47-4.95,9.64-10.35,9.64c-0.25,0-0.5-0.01-0.75-0.02
	c-5.72-0.41-10.03-5.38-9.62-11.09v-0.01c0.41-5.72,5.38-10.03,11.09-9.62C773.52,1338.5,777.82,1343.47,777.42,1349.19z
	 M759.44,1551.11C759.44,1551.11,759.44,1551.11,759.44,1551.11c-0.58,5.31-5.08,9.25-10.31,9.25c-0.37,0-0.76-0.03-1.15-0.07
	c-5.71-0.63-9.81-5.76-9.18-11.46c0.62-5.7,5.76-9.81,11.46-9.18C755.97,1540.27,760.08,1545.4,759.44,1551.11z M298.08,368.7
	c-2.43-2.43-2.43-6.38,0-8.81c2.43-2.43,6.38-2.43,8.81,0l113.22,113.22c2.43,2.43,2.43,6.38,0,8.81c-1.22,1.22-2.81,1.82-4.41,1.82
	c-1.59,0-3.19-0.61-4.41-1.82L298.08,368.7z M779.89,481.92c-2.43-2.43-2.43-6.38,0-8.81l113.22-113.22c2.43-2.43,6.38-2.43,8.81,0
	c2.43,2.43,2.43,6.38,0,8.81L788.7,481.92c-1.22,1.22-2.81,1.82-4.41,1.82C782.7,483.75,781.11,483.14,779.89,481.92z
	 M432.58,275.76c-1.32-3.18,0.18-6.82,3.36-8.15c3.18-1.32,6.82,0.18,8.15,3.36l61.96,148.86c1.32,3.18-0.18,6.82-3.36,8.15
	c-0.78,0.33-1.59,0.48-2.39,0.48c-2.44,0-4.76-1.44-5.75-3.84L432.58,275.76z M693.15,419.52l61.45-149.08
	c1.31-3.18,4.95-4.7,8.13-3.39c3.18,1.31,4.7,4.95,3.39,8.13l-61.45,149.08c-0.99,2.4-3.31,3.86-5.76,3.86
	c-0.79,0-1.59-0.15-2.37-0.47C693.35,426.35,691.83,422.7,693.15,419.52z M593.77,402.48V252.76
	c-35.76-3.16-63.81-33.18-63.81-69.76c0-5.82,0.72-11.46,2.06-16.87c7.55,30.54,35.12,53.18,67.99,53.18
	c32.87,0,60.44-22.65,67.99-53.18c1.34,5.4,2.06,11.05,2.06,16.87c0,36.59-28.06,66.61-63.83,69.76v149.72
	c0,3.44-2.79,6.23-6.23,6.23S593.77,405.92,593.77,402.48z"/>
</svg>
