<?xml version="1.0" encoding="utf-8"?>
<!-- Generator: Adobe Illustrator 24.0.2, SVG Export Plug-In . SVG Version: 6.00 Build 0)  -->
<svg version="1.1" id="Слой_1" xmlns="http://www.w3.org/2000/svg" xmlns:xlink="http://www.w3.org/1999/xlink" x="0px" y="0px"
	 viewBox="0 0 1898.5 2000" style="enable-background:new 0 0 1898.5 2000;" xml:space="preserve">
<path d="M1337.89,223.33C1657.85,370.57,1880,693.95,1880,1069.25c0,514.04-416.71,930.75-930.75,930.75S18.5,1583.29,18.5,1069.25
	c0-375.3,222.15-698.67,542.11-845.92c-164.98,120.16-272.23,314.8-272.23,534.51c0,364.99,295.88,660.87,660.87,660.87
	s660.87-295.88,660.87-660.87C1610.12,538.13,1502.87,343.49,1337.89,223.33z M901.06,1019.78l-74.06,40.5l74.06,40.5l40.5,74.06
	l40.5-74.06l74.06-40.5l-74.06-40.5l-40.5-74.06L901.06,1019.78z M558.07,706.5l-179.06,35.74l179.06,35.74l35.74,179.06
	l35.74-179.06l179.06-35.74L629.54,706.5l-35.74-179.06L558.07,706.5z M1181.12,683.4c13.19-100.11,63.81-177.52,128.96-197.23
	l126.57-38.29l-126.57-38.29c-65.16-19.71-115.78-97.13-128.96-197.23L1153.15,0l-27.97,212.37
	c-13.18,100.1-63.8,177.52-128.96,197.23l-126.57,38.29l126.57,38.29c65.16,19.71,115.78,97.12,128.96,197.23l27.97,212.37
	L1181.12,683.4z M1000.58,423.99c70.8-21.42,125.56-103.71,139.51-209.66l13.06-99.16l13.06,99.16
	c13.95,105.95,68.71,188.25,139.51,209.66l78.99,23.89l-78.99,23.89c-70.8,21.41-125.56,103.71-139.51,209.66l-13.06,99.16
	l-13.06-99.16c-13.95-105.95-68.71-188.25-139.51-209.66l-78.99-23.89L1000.58,423.99z"/>
</svg>
