<?xml version="1.0" encoding="iso-8859-1"?>
<!-- Generator: Adobe Illustrator 19.0.0, SVG Export Plug-In . SVG Version: 6.00 Build 0)  -->
<svg version="1.1" id="Capa_1" xmlns="http://www.w3.org/2000/svg" xmlns:xlink="http://www.w3.org/1999/xlink" x="0px" y="0px"
	 viewBox="0 0 512.001 512.001" style="enable-background:new 0 0 512.001 512.001;" xml:space="preserve">
<g>
	<g>
		<path d="M117.808,468.063c-2.143-2.325-5.605-3.063-8.517-1.861c-3.314,1.368-5.276,5.009-4.557,8.533
			c0.575,3.068,3.117,5.477,6.167,6.014c3.138,0.552,6.373-0.976,7.937-3.75C120.451,474.138,120.037,470.481,117.808,468.063z"/>
	</g>
</g>
<g>
	<g>
		<path d="M143.66,464.993c-2.844-1.502-6.4-1.063-8.772,1.123c-2.712,2.5-3.223,6.769-1.159,9.829
			c3.657,5.687,12.73,3.641,13.852-2.923C148.127,469.82,146.539,466.514,143.66,464.993z"/>
	</g>
</g>
<g>
	<g>
		<path d="M404.212,467.483c-1.837-2.686-5.224-3.995-8.381-3.11c-3.134,0.879-5.421,3.704-5.583,6.968
			c-0.156,3.109,1.68,6.089,4.529,7.345c2.848,1.256,6.276,0.632,8.48-1.571C405.804,474.568,406.189,470.485,404.212,467.483z"/>
	</g>
</g>
<g>
	<g>
		<path d="M108.134,437.82c-3.128,1.957-4.329,5.956-2.973,9.353c1.244,2.943,4.215,4.855,7.421,4.7
			c3.191-0.156,5.983-2.354,6.921-5.399C121.552,439.822,113.97,434.17,108.134,437.82z"/>
	</g>
</g>
<g>
	<g>
		<path d="M431.425,254.594c4.212-0.001,7.628-3.415,7.628-7.629v-73.514c0-16.965-13.752-30.717-30.717-30.717h-68.436v-15.001
			c19.163-12.036,29.707-27.334,31.307-45.493c3.541-40.175-39.079-78.691-40.895-80.311c-2.374-2.117-5.81-2.53-8.625-1.051
			c-2.815,1.481-4.415,4.561-4.017,7.716c0.03,0.238,2.862,24.02-9.778,40.48c-12.125,15.791-15.391,34.305-8.962,50.794
			c4.775,12.246,14.227,21.847,25.714,26.633v16.23h-68.436c-16.965,0-30.717,13.752-30.717,30.717v98.432h-44.237v-10.601
			c13.168-4.125,24.18-14.456,29.468-28.013c6.431-16.49,3.163-35.003-8.962-50.793c-12.639-16.46-9.807-40.241-9.78-40.462
			c0.415-3.16-1.179-6.245-3.997-7.735c-2.818-1.49-6.265-1.072-8.644,1.051c-1.816,1.62-44.436,40.136-40.895,80.311
			c1.493,16.935,10.769,31.379,27.554,43.013v13.231h-62.334c-16.965,0-30.717,13.752-30.717,30.717v116.739
			c0,4.212,3.415,7.628,7.628,7.628s7.628-3.415,7.628-7.628V302.601c0-8.539,6.923-15.462,15.462-15.462h139.924
			c8.539,0,15.462,6.923,15.462,15.462v194.144h-25.932v0.001H88.203v-41.809c0-4.212-3.415-7.628-7.628-7.628
			s-7.628,3.415-7.628,7.628v49.437c0,4.212,3.415,7.628,7.628,7.628h186.103c0.007,0,0.013-0.001,0.019-0.001h164.727
			c4.212,0,7.628-3.415,7.628-7.628V282.563c0-4.212-3.415-7.628-7.628-7.628c-4.212,0-7.628,3.415-7.628,7.628v214.183H274.306
			V302.601c0-16.965-13.752-30.717-30.717-30.717h-2.843v-98.432c0-8.539,6.923-15.462,15.462-15.462h152.127
			c8.539,0,15.462,6.923,15.462,15.462v73.514C423.797,251.179,427.212,254.594,431.425,254.594z M173.627,221.034
			c-4.212,0-7.628,3.415-7.628,7.628v10.372c-7.453-7.3-11.533-15.463-12.355-24.702c-1.806-20.305,12.457-41.469,23.528-54.595
			c1.294,9.828,4.609,21.77,12.488,32.03c8.926,11.624,11.359,24.395,6.849,35.96c-2.909,7.459-8.521,13.596-15.255,17.091v-16.156
			C181.254,224.449,177.839,221.034,173.627,221.034z M332.273,91.883c-4.212,0-7.628,3.415-7.628,7.628v9.604
			c-5.04-3.606-9.153-8.764-11.502-14.785c-4.509-11.565-2.077-24.337,6.849-35.961c7.882-10.266,11.197-22.214,12.49-32.045
			c2.242,2.661,4.617,5.659,6.969,8.922c8.367,11.619,18.033,28.97,16.562,45.656c-0.943,10.7-6.25,19.959-16.111,28.102v-9.493
			C339.9,95.298,336.485,91.883,332.273,91.883z"/>
	</g>
</g>
<g>
</g>
<g>
</g>
<g>
</g>
<g>
</g>
<g>
</g>
<g>
</g>
<g>
</g>
<g>
</g>
<g>
</g>
<g>
</g>
<g>
</g>
<g>
</g>
<g>
</g>
<g>
</g>
<g>
</g>
</svg>
