<?xml version="1.0" encoding="utf-8"?>
<!-- Generator: Adobe Illustrator 25.4.1, SVG Export Plug-In . SVG Version: 6.00 Build 0)  -->
<svg fill="#FFFFFF" version="1.1" id="Main" xmlns="http://www.w3.org/2000/svg" xmlns:xlink="http://www.w3.org/1999/xlink" x="0px" y="0px"
	 viewBox="0 0 127.5 84.2" style="enable-background:new 0 0 127.5 84.2;" xml:space="preserve">
<style type="text/css">
	.st0{fill:#FFFFFF;}
</style>
<g id="Butterfly">
	<path d="M42.7,46.9h-0.5l-0.1-0.6c0-12.2,9.9-22.1,22.1-22.1h0.5l0,0.5C64.8,37,54.8,46.9,42.7,46.9z M42.6,46.4L42.6,46.4
		L42.6,46.4z M63.8,25.3c-11.3,0.3-20.4,9.4-20.6,20.6C54.4,45.6,63.5,36.5,63.8,25.3z"/>
	<path d="M64.2,32h-0.5l-0.1-0.6c0-12.2,9.9-22.1,22.1-22.1h0.5l0,0.5C86.3,22.1,76.4,32,64.2,32z M64.2,31.5L64.2,31.5L64.2,31.5z
		 M85.3,10.4C74,10.6,64.9,19.8,64.7,31C76,30.8,85.1,21.6,85.3,10.4z"/>
	<path d="M64.3,32C52,32,42.1,22.1,42.1,9.9V9.4l0.6-0.1c12.2,0,22.1,9.9,22.1,22.1V32L64.3,32z M43.1,10.4
		c0.3,11.3,9.4,20.4,20.6,20.6C63.5,19.7,54.4,10.6,43.1,10.4z M42.7,9.9L42.7,9.9L42.7,9.9z"/>
	<path d="M85.8,46.9c-12.2,0-22.2-9.9-22.2-22.1v-0.5l0.6-0.1c12.2,0,22.1,9.9,22.1,22.1v0.5L85.8,46.9z M64.7,25.3
		c0.3,11.3,9.4,20.4,20.6,20.6C85.1,34.6,75.9,25.5,64.7,25.3z M64.2,24.8L64.2,24.8L64.2,24.8z"/>
	<g>
		<path d="M52.3,20.1c-2.2-1.8-5.6-3.1-8.8-3.3l0.1-1c3.5,0.2,7,1.5,9.3,3.5L52.3,20.1z"/>
		<path d="M63.7,25.4l-0.7,0c-7.8-0.5-14-6.7-14.4-14.4l0-0.7l0.7,0.2c0.4,0.1,0.8,0.3,1.2,0.4l0.3,0.1c0.3,0.1,0.6,0.2,0.9,0.4
			l0.3,0.1c0.3,0.1,0.6,0.3,0.8,0.4l0.3,0.1c0.7,0.4,1.4,0.8,2.1,1.3l0.2,0.2c0.2,0.2,0.5,0.4,0.7,0.5l0.3,0.2
			c0.2,0.2,0.5,0.4,0.7,0.6l0.2,0.2c0.6,0.5,1.2,1.1,1.7,1.7l0.2,0.2c0.2,0.2,0.4,0.5,0.6,0.7l0.2,0.3c0.2,0.2,0.4,0.5,0.5,0.7
			l0.2,0.3c0.5,0.7,0.9,1.4,1.3,2.1l0.1,0.2c0.2,0.4,0.3,0.6,0.5,0.9l0.1,0.3c0.1,0.3,0.2,0.6,0.4,0.8l0.1,0.3
			c0.1,0.4,0.3,0.8,0.4,1.2L63.7,25.4z M49.6,11.6c0.8,6.7,6,11.9,12.7,12.7c0-0.1-0.1-0.3-0.1-0.4L62,23.6
			c-0.1-0.3-0.2-0.5-0.3-0.8l-0.1-0.3c-0.1-0.3-0.3-0.5-0.4-0.8L61,21.4c-0.4-0.7-0.8-1.4-1.2-2l-0.2-0.2c-0.2-0.2-0.3-0.5-0.5-0.7
			l-0.2-0.3c-0.2-0.2-0.4-0.5-0.6-0.7l-0.2-0.2c-0.5-0.6-1.1-1.1-1.6-1.6l-0.2-0.2c-0.2-0.2-0.4-0.4-0.7-0.6l-0.2-0.2
			c-0.3-0.2-0.5-0.4-0.7-0.6L54.4,14c-0.6-0.4-1.3-0.8-2-1.2l-0.2-0.1c-0.3-0.1-0.5-0.3-0.8-0.4l-0.3-0.1c-0.3-0.1-0.5-0.2-0.8-0.3
			L50,11.7C49.9,11.7,49.7,11.6,49.6,11.6z"/>
	</g>
	<g>
		<path d="M76.2,20.1l-0.6-0.8c2.4-2,5.9-3.3,9.3-3.5l0.1,1C81.7,17,78.4,18.3,76.2,20.1z"/>
		<path d="M64.8,25.4l0.2-0.7c0.1-0.4,0.3-0.8,0.4-1.2l0.1-0.3c0.1-0.3,0.2-0.6,0.4-0.8L66,22c0.1-0.3,0.3-0.6,0.4-0.8l0.1-0.3
			c0.4-0.7,0.8-1.4,1.3-2.1l0.2-0.3c0.2-0.2,0.4-0.5,0.5-0.7l0.2-0.3c0.2-0.2,0.4-0.5,0.6-0.7l0.2-0.2c0.5-0.6,1.1-1.2,1.7-1.7
			l0.2-0.2c0.2-0.2,0.5-0.4,0.7-0.6l0.2-0.2c0.3-0.2,0.6-0.4,0.8-0.6l0.2-0.2c0.7-0.5,1.4-0.9,2.1-1.3l0.3-0.1
			c0.3-0.1,0.6-0.3,0.8-0.4l0.3-0.1c0.4-0.2,0.6-0.3,0.9-0.4l0.3-0.1c0.4-0.1,0.8-0.3,1.2-0.4l0.7-0.2l0,0.7
			c-0.5,7.8-6.7,14-14.4,14.4L64.8,25.4z M78.9,11.6c-0.1,0-0.3,0.1-0.4,0.1l-0.3,0.1c-0.3,0.1-0.5,0.2-0.8,0.3l-0.3,0.1
			c-0.3,0.1-0.5,0.3-0.8,0.4l-0.2,0.1c-0.7,0.4-1.4,0.8-2,1.2l-0.2,0.2c-0.2,0.2-0.5,0.3-0.7,0.5l-0.3,0.2c-0.2,0.2-0.5,0.4-0.7,0.6
			L72,15.7c-0.6,0.5-1.1,1.1-1.6,1.6l-0.1,0.1c-0.3,0.3-0.4,0.5-0.6,0.7l-0.2,0.3c-0.2,0.2-0.4,0.5-0.5,0.7l-0.2,0.2
			c-0.4,0.6-0.8,1.3-1.2,2l-0.1,0.2c-0.1,0.3-0.3,0.5-0.4,0.8l-0.1,0.3c-0.1,0.3-0.2,0.5-0.3,0.8l-0.1,0.3c0,0.1-0.1,0.3-0.1,0.4
			C72.9,23.5,78.1,18.2,78.9,11.6z"/>
	</g>
	<g>
		<path d="M84.9,40.3c-3.5-0.2-7-1.5-9.3-3.5l0.6-0.8c2.2,1.8,5.6,3.1,8.8,3.3L84.9,40.3z"/>
		<path d="M80,46l-0.7-0.2c-0.4-0.1-0.8-0.3-1.2-0.4l-0.3-0.1c-0.3-0.1-0.6-0.2-0.8-0.4l-0.3-0.1c-0.3-0.1-0.6-0.3-0.8-0.4l-0.3-0.1
			c-0.7-0.4-1.4-0.8-2.1-1.3l-0.2-0.1c-0.3-0.2-0.6-0.4-0.8-0.6L72.2,42c-0.2-0.2-0.5-0.4-0.7-0.6l-0.2-0.2
			c-0.6-0.5-1.2-1.1-1.7-1.7l-0.2-0.2c-0.2-0.3-0.4-0.5-0.6-0.7l-0.2-0.3c-0.2-0.2-0.4-0.5-0.5-0.7l-0.2-0.3
			c-0.5-0.7-0.9-1.4-1.3-2.1l-0.1-0.3c-0.1-0.3-0.3-0.6-0.4-0.8l-0.1-0.3c-0.1-0.3-0.2-0.6-0.4-0.8l-0.1-0.3
			c-0.1-0.4-0.3-0.8-0.4-1.2l-0.2-0.7l0.7,0c7.8,0.5,14,6.7,14.4,14.4L80,46z M66.2,31.9c0,0.1,0.1,0.3,0.1,0.4l0.1,0.3
			c0.1,0.3,0.2,0.5,0.3,0.8l0.1,0.3c0.1,0.3,0.3,0.5,0.4,0.8l0.1,0.2c0.4,0.7,0.8,1.4,1.2,2l0.1,0.2c0.2,0.3,0.4,0.5,0.6,0.8
			l0.2,0.3c0.2,0.2,0.4,0.5,0.6,0.7l0.2,0.2c0.5,0.6,1.1,1.1,1.6,1.6l0.1,0.1c0.3,0.3,0.5,0.4,0.7,0.6l0.3,0.2
			c0.2,0.2,0.5,0.3,0.7,0.5l0.2,0.2c0.6,0.4,1.3,0.8,2,1.2l0.2,0.1c0.3,0.1,0.5,0.3,0.8,0.4l0.3,0.1c0.3,0.1,0.5,0.2,0.8,0.3
			l0.3,0.1c0.1,0,0.3,0.1,0.4,0.1C78.1,37.9,72.9,32.6,66.2,31.9z"/>
	</g>
	<g>
		<path d="M43.6,40.3l-0.1-1c3.2-0.2,6.6-1.4,8.8-3.3l0.6,0.8C50.6,38.8,47.1,40.1,43.6,40.3z"/>
		<path d="M48.5,46l0-0.7c0.5-7.8,6.7-14,14.4-14.4l0.7,0l-0.2,0.7c-0.1,0.4-0.3,0.8-0.4,1.2L63,32.9c-0.1,0.3-0.2,0.6-0.4,0.8
			l-0.1,0.3c-0.1,0.3-0.3,0.6-0.4,0.8l-0.1,0.3c-0.4,0.7-0.8,1.4-1.3,2.1l-0.1,0.2c-0.2,0.3-0.4,0.5-0.6,0.8l-0.2,0.3
			c-0.2,0.2-0.4,0.5-0.6,0.7l-0.2,0.2c-0.5,0.6-1.1,1.2-1.7,1.7L57,41.3c-0.3,0.3-0.5,0.4-0.8,0.6L56,42.2c-0.2,0.2-0.5,0.4-0.7,0.5
			L55,42.9c-0.7,0.5-1.4,0.9-2.1,1.3l-0.3,0.1c-0.3,0.1-0.6,0.3-0.8,0.4l-0.3,0.1c-0.3,0.1-0.6,0.2-0.8,0.4l-0.3,0.1
			c-0.4,0.1-0.8,0.3-1.2,0.4L48.5,46z M62.3,31.9c-6.7,0.8-11.9,6-12.7,12.7c0.1,0,0.3-0.1,0.4-0.1l0.3-0.1c0.3-0.1,0.5-0.2,0.8-0.3
			l0.3-0.1c0.3-0.1,0.5-0.3,0.8-0.4l0.2-0.1c0.7-0.4,1.3-0.8,2-1.2l0.2-0.1c0.3-0.2,0.5-0.4,0.8-0.6l0.3-0.2
			c0.2-0.2,0.5-0.4,0.7-0.6l0.2-0.2c0.6-0.5,1.1-1.1,1.6-1.6l0.1-0.2c0.2-0.3,0.4-0.5,0.6-0.7l0.2-0.3c0.2-0.2,0.3-0.5,0.5-0.7
			l0.2-0.2c0.4-0.6,0.8-1.3,1.2-2l0.1-0.2c0.1-0.3,0.3-0.5,0.4-0.8l0.1-0.3c0.1-0.3,0.2-0.5,0.3-0.8l0.1-0.3
			C62.2,32.1,62.3,32,62.3,31.9z"/>
	</g>
	<path d="M64.3,32C52,32,42.1,22.1,42.1,9.9V9.4l0.6-0.1c12.2,0,22.1,9.9,22.1,22.1V32L64.3,32z M43.1,10.4
		c0.3,11.3,9.4,20.4,20.6,20.6C63.5,19.7,54.4,10.6,43.1,10.4z M42.7,9.9L42.7,9.9L42.7,9.9z"/>
</g>
<g id="Text_Vecto">
	<g>
		<g>
			<path d="M60.3,53.2c0-0.2,0-0.4-0.1-0.5c0,0,0-0.1-0.1-0.2c-0.1-0.1-0.1-0.2-0.1-0.3c0-0.1,0.1-0.1,0.3-0.1c0.2,0,0.4,0,0.5,0
				c0.1,0,0.2,0.1,0.3,0.2c0.1,0.1,0.2,0.4,0.4,0.8c0.2,0.4,0.3,0.7,0.3,0.8l0.1,0.3l0.1,0.1c0,0,0.2-0.3,0.4-0.9
				c0.3-0.6,0.4-1,0.5-1.1c0.1-0.1,0.2-0.2,0.4-0.2h0.1c0.2,0,0.3,0,0.4,0s0.1,0.1,0.1,0.1c0,0,0,0.1-0.1,0.2s-0.1,0.2-0.1,0.3
				s0,0.4,0,0.9c0,0.5,0,0.9,0.1,1.1c0,0.1,0.1,0.2,0.1,0.2l0.1,0.1l0.1,0.1l0.1,0.1v0.1l-0.1,0.1c-0.1,0-0.2,0.1-0.5,0.1
				c-0.5,0-0.7,0-0.7-0.1l0-0.1L63,55c0-0.1,0-0.2,0.1-0.4s0-0.5,0-0.9c0-0.4,0-0.6,0-0.7l0-0.1c0,0-0.3,0.5-0.6,1.5
				c-0.2,0.4-0.2,0.6-0.3,0.7c-0.1,0.2-0.2,0.3-0.2,0.3s-0.1,0-0.2-0.1c0-0.1-0.2-0.4-0.5-1.2c-0.3-0.7-0.5-1.1-0.5-1.1
				c0,0-0.1,0.1-0.1,0.4l0,0.3c0,0.1,0,0.3,0,0.6c0,0.3,0,0.6,0.1,0.7c0.1,0.2,0.1,0.3,0.1,0.3l0,0.1c-0.1,0.1-0.3,0.1-0.5,0.1
				c-0.2,0-0.3,0-0.3-0.1l0-0.1c0,0,0-0.1,0.1-0.2s0.2-0.2,0.2-0.3C60.3,54.5,60.3,54,60.3,53.2z"/>
			<path d="M66.3,54.3c-0.3,0-0.4,0-0.5,0c-0.1,0.1-0.1,0.2-0.1,0.5c0,0.1,0,0.2,0,0.2c0,0.1,0,0.1,0.1,0.1c0,0,0,0.1,0,0.1
				c0,0.1-0.1,0.1-0.4,0.1c-0.3,0-0.4,0-0.5,0c-0.1,0-0.1-0.1-0.1-0.1v0c0,0,0-0.1,0.1-0.1s0.1-0.1,0.2-0.1c0.1-0.1,0.3-0.6,0.6-1.5
				c0.1-0.2,0.1-0.4,0.2-0.6c0.1-0.2,0.1-0.4,0.2-0.5c0.1-0.2,0.2-0.3,0.4-0.3h0c0.1,0,0.3,0.1,0.4,0.3s0.2,0.5,0.4,1
				s0.3,0.9,0.5,1.4c0.1,0.1,0.1,0.2,0.2,0.3c0,0,0,0,0.1,0.1s0.1,0.1,0.1,0.1c0,0.1-0.1,0.2-0.3,0.2h-0.4c-0.3,0-0.5,0-0.5,0
				c-0.1,0-0.1-0.1-0.1-0.1c0,0,0,0,0-0.1c0,0,0-0.1,0.1-0.1c0-0.1,0.1-0.2,0.1-0.3c0-0.2,0-0.4-0.1-0.5
				C66.8,54.3,66.6,54.3,66.3,54.3z M66.1,54L66.1,54L66.1,54l0.3,0c0.2,0,0.4,0,0.4,0c0,0,0-0.1,0-0.1c0-0.1-0.1-0.2-0.1-0.2
				s-0.1-0.2-0.1-0.4s-0.1-0.3-0.1-0.4s0-0.1,0-0.1c0,0-0.1,0.2-0.1,0.5c-0.1,0.3-0.1,0.5-0.1,0.5C66,53.9,66,54,66.1,54L66.1,54
				C66,54,66,54,66.1,54z"/>
		</g>
		<g>
			<ellipse fill="#80808000" id="Star_00000079469635817755305090000017607123902085673645_" class="st0" cx="64.4" cy="9.9" rx="3.4" ry="3.7"/>
			<path d="M64.4,16.2l-0.5-2.5c-0.5-2.5-0.8-2.8-3-3.3l-2-0.5l2-0.5c2.2-0.5,2.5-0.8,3-3.3l0.5-2.5l0.5,2.5c0.5,2.5,0.8,2.8,3,3.3
				l2,0.5l-2,0.5c-2.2,0.5-2.5,0.8-3,3.3L64.4,16.2z M62.7,9.9c0.9,0.4,1.3,0.9,1.7,1.8c0.3-0.9,0.8-1.4,1.7-1.8
				c-0.9-0.4-1.3-0.9-1.7-1.8C64.1,9,63.6,9.5,62.7,9.9z"/>
		</g>
		<g id="Spiritualité">
			<path d="M7.1,71.1c0.4,0.3,3.2,1.8,3.7,1.9c0.5,0.2,1,0.3,1.5,0.3c1.1,0,1.9-0.2,2.4-0.7c0.5-0.5,0.8-1.2,0.8-1.9
				c0-0.7-0.1-1.2-0.4-1.6c-0.2-0.4-0.6-0.7-1-1c-0.4-0.2-0.9-0.5-1.4-0.6c-0.5-0.2-1.1-0.3-1.6-0.4c-0.5-0.1-1.1-0.3-1.6-0.4
				c-0.5-0.2-1-0.4-1.4-0.7c-0.4-0.3-0.8-0.6-1-1.1c-0.2-0.4-0.4-1-0.4-1.7c0-0.7,0.1-1.3,0.5-1.9c0.3-0.6,0.7-1.1,1.3-1.6
				c0.6-0.5,1.2-0.8,2-1.1s1.7-0.4,2.7-0.4c1,0,1.8,0.1,2.5,0.3c0.7,0.2,1.2,0.3,1.6,0.4c0.1-0.1,0.2-0.3,0.2-0.4
				c0.1-0.2,0.2-0.3,0.3-0.4s0.2-0.2,0.4-0.3s0.3-0.1,0.5-0.1c0.1,0,0.2,0,0.3,0.1c0.1,0.1,0.1,0.2,0.1,0.2c0,0.1-0.1,0.1-0.2,0.2
				c-0.1,0-0.2,0.1-0.2,0.1c-0.5,0.2-0.8,0.8-1.1,1.6c-0.3,0.9-0.5,1.9-0.5,3.2c0,0-0.1,0.1-0.1,0.1c-0.1,0-0.1,0-0.2,0
				c-0.1,0-0.2,0-0.2,0c0-0.4-0.2-0.9-0.4-1.3s-0.5-0.9-0.9-1.2c-0.4-0.4-0.9-0.7-1.4-0.9c-0.6-0.2-1.2-0.4-1.9-0.4
				c-0.4,0-0.8,0.1-1.2,0.2c-0.4,0.1-0.6,0.3-0.9,0.5c-0.2,0.2-0.4,0.5-0.5,0.7s-0.2,0.5-0.2,0.8c0,0.6,0.2,1.2,0.7,1.7
				c0.5,0.5,1.3,0.9,2.3,1.1c0.6,0.2,1.3,0.3,2,0.5c0.7,0.2,1.3,0.5,1.9,0.8c0.6,0.3,1,0.8,1.4,1.3c0.4,0.5,0.5,1.2,0.5,2
				c0,0.8-0.2,1.5-0.5,2.2c-0.4,0.7-0.8,1.3-1.4,1.9c-0.6,0.5-1.3,1-2,1.3c-0.7,0.3-1.5,0.5-2.3,0.5c-0.6,0-1.2,0-1.8-0.1
				c-0.6-0.1-1.1-0.2-1.6-0.3c-0.5-0.1-0.9-0.2-1.3-0.4c-0.4-0.1-0.6-0.2-0.8-0.3c0.1-0.2,0.3-0.5,0.4-0.7s0.3-0.5,0.4-0.8
				C6.9,71.7,7,71.4,7.1,71.1"/>
			<path d="M27.4,73.2c-0.5,0.3-1,0.6-1.7,0.8c-0.7,0.2-1.4,0.4-2,0.4c-0.2,0-0.4,0-0.7,0c-0.3,0-0.5-0.1-0.6-0.1c0,0.3,0,0.6,0,0.9
				s0,0.6,0,0.8c0,0.3,0,0.5,0,0.8s0,0.4,0,0.6c0,0.7,0.1,1.3,0.2,1.5s0.3,0.4,0.6,0.4c0.1,0,0.3,0,0.5-0.1c0.2,0,0.4-0.1,0.6-0.2
				c0,0,0.1,0,0.1,0.1s0.1,0.2,0.1,0.2c0,0-0.1,0.1-0.3,0.1c-0.2,0.1-0.5,0.1-0.8,0.2c-0.3,0.1-0.7,0.2-1,0.3
				c-0.4,0.1-0.7,0.2-1.1,0.3c-0.3,0.1-0.6,0.2-0.9,0.2c-0.2,0.1-0.4,0.1-0.5,0.1c-0.1,0-0.2,0-0.2,0s-0.1-0.1-0.1-0.2
				c0-0.1,0-0.1,0.1-0.1c0.1,0,0.1-0.1,0.1-0.1c0.1-0.1,0.1-0.3,0.1-0.5c0-0.2,0-0.5,0.1-0.7c0-0.6,0.1-1.2,0.1-2
				c0.1-0.8,0.1-1.6,0.1-2.5s0.1-1.7,0.1-2.6s0.1-1.6,0.1-2.3c0-1,0-1.8-0.1-2.3s-0.2-1-0.3-1.3s-0.3-0.4-0.5-0.5
				c-0.2-0.1-0.4-0.1-0.6-0.1c0,0-0.1,0-0.2,0c-0.1,0-0.2,0-0.2,0c-0.1,0-0.1-0.1-0.1-0.2c0-0.1,0-0.1,0-0.1c0,0,0,0,0.1-0.1
				c0.1,0,0.2-0.1,0.4-0.2s0.4-0.2,0.7-0.3c0.3-0.1,0.5-0.3,0.8-0.4c0.3-0.1,0.6-0.3,0.8-0.4c0.3-0.1,0.5-0.2,0.7-0.3
				c0.2-0.1,0.3-0.1,0.4-0.1c0.2,0,0.4,0.1,0.5,0.3c0.1,0.2,0.1,0.4,0.1,0.8c0,0.1,0,0.3,0,0.6c0,0.3,0,0.6,0,1
				c0.2-0.2,0.5-0.5,0.8-0.8c0.3-0.3,0.7-0.6,1.1-0.9c0.4-0.3,0.9-0.5,1.3-0.7c0.5-0.2,0.9-0.3,1.4-0.3c0.6,0,1.2,0.1,1.7,0.3
				c0.5,0.2,0.9,0.5,1.2,0.9s0.6,0.8,0.7,1.3s0.3,1,0.3,1.5c0,0.7-0.1,1.4-0.3,1.9s-0.5,1.1-0.8,1.6c-0.3,0.5-0.6,0.9-1,1.2
				c-0.4,0.3-0.7,0.6-1,0.8L27.4,73.2z M22.4,71.5c0,0.2,0.2,0.3,0.4,0.5c0.2,0.2,0.4,0.3,0.7,0.5c0.3,0.1,0.6,0.3,1,0.4
				c0.4,0.1,0.8,0.1,1.2,0.1c0.4,0,0.8-0.1,1.1-0.2c0.4-0.2,0.7-0.4,0.9-0.7c0.3-0.3,0.5-0.8,0.6-1.3s0.2-1.2,0.2-1.9
				c0-0.5-0.1-1-0.2-1.5c-0.1-0.5-0.4-0.9-0.6-1.2c-0.3-0.4-0.6-0.6-1-0.8c-0.4-0.2-0.8-0.3-1.3-0.3c-0.2,0-0.5,0.1-0.8,0.2
				c-0.3,0.1-0.6,0.2-0.8,0.4c-0.3,0.2-0.5,0.4-0.7,0.6c-0.2,0.2-0.4,0.5-0.5,0.7c-0.1,0.2-0.1,0.5-0.2,0.8
				c-0.1,0.4-0.1,0.8-0.1,1.2s0,0.9,0,1.4S22.4,71.2,22.4,71.5z"/>
			<path d="M35.6,70.4c0,0.3,0,0.6,0,0.9c0,0.3,0.1,0.5,0.2,0.7s0.2,0.4,0.4,0.5c0.2,0.1,0.4,0.2,0.7,0.2c0.2,0,0.3,0,0.5-0.1
				c0.2,0,0.4-0.1,0.6-0.1c0.2-0.1,0.3-0.1,0.5-0.2s0.2-0.1,0.3-0.1c0,0,0.1,0,0.1,0s0,0.1,0,0.2c0,0.1,0,0.1-0.1,0.2
				c0,0.1-0.1,0.1-0.1,0.1c-0.1,0.1-0.4,0.2-0.8,0.4s-0.8,0.4-1.3,0.6c-0.5,0.2-0.9,0.4-1.4,0.5c-0.4,0.1-0.8,0.2-1.1,0.2
				c-0.3,0-0.6-0.1-0.8-0.3c-0.2-0.2-0.3-0.5-0.3-0.8c0-0.1,0-0.2,0-0.3c0-0.1,0-0.2,0-0.3c0-0.1,0-0.4,0.1-0.8
				c0-0.4,0.1-0.8,0.1-1.3s0.1-1,0.1-1.5c0-0.5,0-0.9,0-1.3v-0.8c0-0.4,0-0.7-0.1-1c0-0.3-0.1-0.5-0.2-0.7c-0.1-0.1-0.2-0.2-0.3-0.3
				c-0.1-0.1-0.2-0.1-0.4-0.1c-0.1,0-0.2,0-0.3,0.1c-0.1,0-0.2,0.1-0.2,0.1c0,0-0.1,0-0.1-0.1s-0.1-0.2,0-0.2
				c0.1-0.1,0.3-0.2,0.6-0.4c0.3-0.2,0.7-0.3,1.1-0.5c0.4-0.2,0.8-0.4,1.2-0.5c0.4-0.2,0.7-0.2,0.8-0.2c0.2,0,0.3,0,0.3,0.1
				c0.1,0.1,0.1,0.2,0.1,0.3v0.1c0,0.1,0,0.4-0.1,0.7s-0.1,0.7-0.1,1.2c-0.1,0.5-0.1,1-0.1,1.6c0,0.6-0.1,1.3-0.1,2V70.4z M34.7,59
				c0.1,0,0.2,0.1,0.4,0.2c0.2,0.1,0.3,0.3,0.5,0.5s0.3,0.4,0.5,0.5s0.2,0.3,0.2,0.4c0,0.1-0.1,0.2-0.3,0.3s-0.4,0.3-0.6,0.5
				c-0.2,0.2-0.4,0.3-0.7,0.4c-0.2,0.1-0.4,0.2-0.5,0.2c0,0-0.2-0.1-0.3-0.2c-0.2-0.1-0.3-0.3-0.5-0.5s-0.3-0.3-0.5-0.5
				c-0.1-0.2-0.2-0.3-0.2-0.3c0-0.1,0.1-0.2,0.3-0.3c0.2-0.2,0.4-0.3,0.6-0.5c0.2-0.2,0.4-0.3,0.7-0.4C34.5,59.1,34.6,59,34.7,59z"
				/>
			<path d="M48.3,64.9c-0.2,0.1-0.4,0.3-0.6,0.5c-0.2,0.2-0.5,0.4-0.7,0.6c-0.2,0.2-0.5,0.3-0.7,0.5s-0.5,0.2-0.7,0.2
				c-0.2,0-0.4,0-0.5-0.1c-0.2-0.1-0.3-0.2-0.5-0.3c-0.1-0.1-0.3-0.2-0.4-0.3s-0.3-0.1-0.4-0.1c-0.4,0-0.7,0.2-1,0.5
				c-0.3,0.3-0.5,0.7-0.7,1.2c-0.2,0.5-0.3,1-0.4,1.6c-0.1,0.6-0.1,1.2-0.1,1.7c0,0.5,0,0.8,0.1,1.1s0.1,0.5,0.2,0.7
				c0.1,0.2,0.2,0.3,0.3,0.3s0.3,0.1,0.5,0.1c0.2,0,0.4,0,0.6-0.1c0,0,0.1,0,0.1,0.1s0,0.1,0,0.2c0,0,0,0.1-0.1,0.1
				c0,0-0.1,0.1-0.1,0.1c-0.3,0.1-0.7,0.3-1,0.4c-0.3,0.2-0.6,0.3-0.8,0.4c-0.2,0.1-0.5,0.2-0.7,0.3c-0.3,0.1-0.5,0.2-0.7,0.2
				c-0.2,0-0.4,0-0.6-0.1s-0.2-0.1-0.2-0.2s0-0.1,0.1-0.2c0-0.1,0.1-0.2,0.1-0.3c0-0.2,0.1-0.5,0.1-0.8c0-0.3,0.1-0.6,0.1-1
				s0.1-0.7,0.1-1.1c0-0.4,0-0.7,0-1.1c0-0.8,0-1.5-0.1-2.1c-0.1-0.6-0.1-1-0.3-1.4s-0.3-0.6-0.5-0.8c-0.2-0.2-0.5-0.2-0.9-0.2
				c-0.1,0-0.1,0-0.2,0s-0.1,0-0.2,0c-0.1,0-0.1,0-0.1-0.1s0-0.2,0.1-0.2c0.2-0.1,0.4-0.3,0.7-0.5c0.3-0.2,0.7-0.4,1-0.6
				c0.4-0.2,0.7-0.3,1-0.5c0.3-0.1,0.6-0.2,0.7-0.2c0.2,0,0.4,0.1,0.5,0.2c0.1,0.1,0.2,0.3,0.3,0.5s0.1,0.4,0.1,0.6
				c0,0.2,0,0.5,0,0.7c0,0.2,0,0.4,0,0.5c0,0.2,0,0.4,0,0.6c0.7-1,1.3-1.7,1.8-2.3c0.5-0.5,1-0.8,1.5-0.8c0.2,0,0.3,0.1,0.5,0.2
				s0.3,0.3,0.5,0.5c0.2,0.2,0.4,0.3,0.6,0.5c0.2,0.1,0.4,0.2,0.6,0.2c0.2,0,0.3,0,0.4-0.1c0.1,0,0.2-0.1,0.2-0.1
				C48.3,64.6,48.3,64.7,48.3,64.9L48.3,64.9z"/>
			<path d="M51.4,70.4c0,0.3,0,0.6,0,0.9c0,0.3,0.1,0.5,0.2,0.7s0.2,0.4,0.4,0.5c0.2,0.1,0.4,0.2,0.7,0.2c0.2,0,0.3,0,0.5-0.1
				c0.2,0,0.4-0.1,0.6-0.1c0.2-0.1,0.3-0.1,0.5-0.2s0.2-0.1,0.3-0.1c0,0,0.1,0,0.1,0s0,0.1,0,0.2c0,0.1,0,0.1-0.1,0.2
				c0,0.1-0.1,0.1-0.1,0.1c-0.1,0.1-0.4,0.2-0.8,0.4s-0.8,0.4-1.3,0.6c-0.5,0.2-0.9,0.4-1.4,0.5c-0.4,0.1-0.8,0.2-1.1,0.2
				c-0.3,0-0.6-0.1-0.8-0.3c-0.2-0.2-0.3-0.5-0.3-0.8c0-0.1,0-0.2,0-0.3c0-0.1,0-0.2,0-0.3c0-0.1,0-0.4,0.1-0.8
				c0-0.4,0.1-0.8,0.1-1.3s0.1-1,0.1-1.5c0-0.5,0-0.9,0-1.3v-0.8c0-0.4,0-0.7-0.1-1c0-0.3-0.1-0.5-0.2-0.7c-0.1-0.1-0.2-0.2-0.3-0.3
				c-0.1-0.1-0.2-0.1-0.4-0.1c-0.1,0-0.2,0-0.3,0.1c-0.1,0-0.2,0.1-0.2,0.1c0,0-0.1,0-0.1-0.1s-0.1-0.2,0-0.2
				c0.1-0.1,0.3-0.2,0.6-0.4c0.3-0.2,0.7-0.3,1.1-0.5c0.4-0.2,0.8-0.4,1.2-0.5c0.4-0.2,0.7-0.2,0.8-0.2c0.2,0,0.3,0,0.3,0.1
				c0.1,0.1,0.1,0.2,0.1,0.3v0.1c0,0.1,0,0.4-0.1,0.7s-0.1,0.7-0.1,1.2c-0.1,0.5-0.1,1-0.1,1.6c0,0.6-0.1,1.3-0.1,2V70.4z M50.5,59
				c0.1,0,0.2,0.1,0.4,0.2c0.2,0.1,0.3,0.3,0.5,0.5s0.3,0.4,0.5,0.5s0.2,0.3,0.2,0.4c0,0.1-0.1,0.2-0.3,0.3s-0.4,0.3-0.6,0.5
				c-0.2,0.2-0.4,0.3-0.7,0.4C50.3,61.9,50.1,62,50,62c0,0-0.2-0.1-0.3-0.2c-0.2-0.1-0.3-0.3-0.5-0.5s-0.3-0.3-0.5-0.5
				c-0.1-0.2-0.2-0.3-0.2-0.3c0-0.1,0.1-0.2,0.3-0.3c0.2-0.2,0.4-0.3,0.6-0.5c0.2-0.2,0.4-0.3,0.7-0.4C50.3,59.1,50.4,59,50.5,59z"
				/>
			<path d="M64.3,71.2C64.3,71.1,64.3,71.1,64.3,71.2c0.1,0,0.1,0.1,0.1,0.2c0,0.1,0,0.1,0,0.2c0,0.1,0,0.1-0.1,0.2
				c-0.3,0.3-0.7,0.6-1.1,0.9c-0.4,0.3-0.9,0.6-1.4,0.9c-0.1,0.1-0.3,0.2-0.5,0.3c-0.2,0.1-0.5,0.2-0.8,0.3
				c-0.3,0.1-0.6,0.2-0.9,0.3c-0.3,0.1-0.6,0.1-0.8,0.1c-0.5,0-1-0.1-1.5-0.3c-0.5-0.2-0.9-0.5-1.2-0.8c-0.4-0.4-0.6-0.8-0.8-1.3
				c-0.2-0.5-0.3-1-0.3-1.6c0-0.6,0.1-1.2,0.3-1.8c0.2-0.6,0.4-1.1,0.6-1.5c0.2-0.4,0.4-0.8,0.6-1.1c0.2-0.3,0.3-0.5,0.4-0.7
				c-0.3,0-0.5,0-0.8,0c-0.2,0-0.4,0-0.6,0c-0.5,0-0.9,0-1.2,0c-0.3,0-0.6,0-0.9,0.1c-0.1,0-0.2,0.1-0.3,0.2s-0.2,0.2-0.3,0.2
				c0,0-0.1-0.1-0.1-0.1c-0.1-0.1-0.1-0.1-0.1-0.2c0,0,0-0.1,0-0.1c0,0,0.1-0.1,0.3-0.3c0.2-0.2,0.4-0.3,0.7-0.5
				c0.3-0.2,0.6-0.4,0.9-0.7c0.3-0.3,0.7-0.5,1-0.7c0.3-0.2,0.6-0.4,0.8-0.6c0.2-0.2,0.4-0.2,0.5-0.3c0.1,0,0.2,0,0.3,0
				c0.1,0.1,0.1,0.1,0.1,0.1c0,0-0.1,0.1-0.2,0.2c-0.1,0.1-0.1,0.2-0.1,0.2c0.2,0.1,0.4,0.2,0.8,0.4c0.4,0.1,0.8,0.2,1.3,0.3
				c0.5,0.1,1,0.1,1.5,0.2c0.5,0,1,0.1,1.4,0.1c0.6,0,1.1,0,1.5-0.1c0.4,0,0.7-0.1,0.9-0.1c0.2-0.1,0.4-0.1,0.5-0.1c0,0,0,0,0.1,0.1
				s0.1,0.1,0.1,0.2c0,0-0.1,0.1-0.3,0.2s-0.4,0.2-0.6,0.4c-0.1,0.1-0.3,0.2-0.5,0.3s-0.4,0.2-0.6,0.3c-0.2,0.1-0.4,0.2-0.7,0.3
				c-0.2,0.1-0.5,0.1-0.7,0.2c-0.2,0-0.5,0.1-0.8,0.1s-0.6,0-0.9,0c-0.3,0-0.6,0-1,0c-0.3,0-0.6,0-0.9,0c0,0.1-0.1,0.2-0.2,0.4
				c-0.1,0.2-0.2,0.4-0.3,0.6s-0.2,0.6-0.2,0.9c-0.1,0.3-0.1,0.7-0.1,1.1c0,0.6,0.1,1.2,0.3,1.7c0.2,0.5,0.4,0.9,0.8,1.3
				c0.3,0.4,0.7,0.7,1.2,0.9c0.5,0.2,0.9,0.3,1.5,0.3c0.3,0,0.6,0,0.9-0.1c0.3-0.1,0.6-0.2,0.8-0.3s0.5-0.2,0.7-0.4
				c0.2-0.1,0.4-0.3,0.6-0.4L64.3,71.2z"/>
			<path d="M64,65.1c-0.1,0-0.2-0.1-0.2-0.2c0-0.1,0.1-0.1,0.2-0.2c0,0,0.2-0.1,0.4-0.2c0.2-0.1,0.5-0.2,0.8-0.3
				c0.3-0.1,0.7-0.2,1-0.4s0.7-0.2,1-0.3c0.2-0.1,0.3-0.1,0.4-0.1c0.1,0,0.1,0,0.2,0c0,0,0.1,0,0.2,0.1c0.1,0,0.1,0.1,0,0.2
				c0,0.1-0.1,0.4-0.1,0.8c-0.1,0.4-0.1,0.9-0.1,1.5c0,0.5-0.1,1.1-0.1,1.6c0,0.5-0.1,0.9-0.1,1.3c0,1.2,0.2,2.1,0.7,2.7
				c0.5,0.6,1.3,1,2.3,1c0.5,0,1-0.1,1.4-0.3s0.6-0.5,0.8-0.8c0.1-0.2,0.2-0.6,0.3-1.3c0-0.1,0-0.3,0-0.5c0-0.2,0-0.4,0-0.6
				c0-0.2,0-0.4,0-0.6c0-0.2,0-0.4,0-0.5c0-0.7,0-1.3-0.1-1.9c-0.1-0.6-0.1-1-0.2-1.3c0-0.2-0.1-0.3-0.3-0.3c-0.1,0-0.2,0-0.3,0
				c-0.1,0-0.1-0.1-0.1-0.2c0,0,0-0.1,0.1-0.1c0.1-0.1,0.3-0.1,0.5-0.2c0.2-0.1,0.5-0.2,0.8-0.3s0.6-0.2,0.8-0.2
				c0.3-0.1,0.5-0.1,0.7-0.1c0.2,0,0.4,0,0.5,0c0,0,0,0,0,0.1c0,0,0,0.1,0.1,0.1c0,0.1,0,0.4-0.1,0.8c-0.1,0.5-0.1,1.2-0.2,2.3
				c-0.1,0.7-0.1,1.4-0.2,2.1c0,0.7-0.1,1.2-0.1,1.5c0,0.7,0.1,1.2,0.4,1.6c0.3,0.4,0.6,0.6,1,0.6c0.2,0,0.5-0.1,0.7-0.2
				c0.2-0.1,0.4-0.2,0.5-0.3c0.1,0,0.2,0.1,0.2,0.2c0,0.1,0,0.2-0.1,0.2c-0.2,0.1-0.5,0.3-0.9,0.5c-0.4,0.2-0.8,0.4-1.2,0.6
				c-0.4,0.2-0.8,0.4-1.2,0.5c-0.4,0.1-0.7,0.2-0.9,0.2c-0.1,0-0.2-0.1-0.3-0.2c-0.1-0.2-0.2-0.3-0.2-0.6C73,73.4,73,73.2,73,72.9
				c0-0.2,0-0.4,0-0.6c-0.3,0.2-0.7,0.5-1.1,0.7c-0.4,0.2-0.8,0.5-1.2,0.7c-0.4,0.2-0.8,0.4-1.3,0.5s-0.8,0.2-1.2,0.2
				c-0.9,0-1.6-0.2-2.2-0.7c-0.6-0.5-0.9-1.1-0.9-1.9c0-0.2,0-0.4,0-0.7c0-0.3,0.1-0.7,0.1-1.1s0.1-0.9,0.1-1.3c0-0.5,0-0.9,0-1.4
				c0-0.7-0.1-1.2-0.3-1.5c-0.2-0.4-0.5-0.6-0.8-0.6L64,65.1z"/>
			<path d="M84.4,67.4c-0.1-0.5-0.2-0.9-0.3-1.2c-0.1-0.4-0.3-0.7-0.4-0.9s-0.4-0.4-0.6-0.5c-0.2-0.1-0.6-0.2-0.9-0.2
				c-0.3,0-0.6,0.1-0.9,0.2s-0.5,0.3-0.7,0.4c-0.2,0.2-0.4,0.3-0.5,0.5c-0.1,0.2-0.2,0.3-0.2,0.4c0,0.1-0.1,0.2-0.2,0.2
				c-0.2,0-0.4-0.1-0.6-0.2s-0.3-0.3-0.3-0.5c0-0.1,0-0.2,0-0.3c0.3-0.2,0.7-0.4,1.2-0.6c0.5-0.2,1-0.4,1.5-0.6s1-0.3,1.5-0.5
				c0.5-0.1,1-0.2,1.4-0.2c0.6,0,1.1,0.1,1.4,0.3c0.3,0.2,0.6,0.4,0.7,0.7c0.2,0.3,0.3,0.7,0.3,1.1c0,0.4,0.1,0.9,0.1,1.4
				c0,0.7,0.1,1.5,0.2,2.2s0.2,1.3,0.3,1.8s0.3,1,0.6,1.3c0.2,0.3,0.5,0.5,0.8,0.5c0.2,0,0.3,0,0.5-0.1s0.4-0.1,0.5-0.2
				c0.2-0.1,0.3-0.2,0.5-0.2c0.1-0.1,0.2-0.1,0.3-0.2c0.1,0,0.2,0.1,0.2,0.2c0,0.1,0,0.1,0,0.2c0,0-0.1,0.1-0.3,0.2
				s-0.4,0.3-0.7,0.4s-0.6,0.3-0.9,0.5c-0.3,0.2-0.7,0.4-1,0.5c-0.3,0.2-0.6,0.3-0.9,0.4s-0.5,0.2-0.7,0.2c-0.2,0-0.4-0.1-0.5-0.2
				c-0.1-0.2-0.3-0.4-0.4-0.6c-0.1-0.3-0.2-0.6-0.3-0.9c-0.1-0.3-0.1-0.7-0.2-1.1c-0.3,0.2-0.6,0.5-1,0.8c-0.4,0.3-0.9,0.6-1.3,0.8
				c-0.5,0.3-1,0.5-1.5,0.7c-0.5,0.2-1,0.3-1.5,0.3c-0.4,0-0.7-0.1-1-0.2c-0.3-0.1-0.5-0.3-0.7-0.5c-0.2-0.2-0.3-0.4-0.4-0.7
				c-0.1-0.3-0.1-0.6-0.1-0.8c0-0.5,0.1-0.9,0.4-1.2c0.3-0.3,0.7-0.6,1.3-0.9c0.3-0.1,0.7-0.3,1.2-0.6c0.5-0.2,1-0.5,1.5-0.7
				c0.5-0.2,1-0.5,1.5-0.7C83.9,67.7,84.2,67.5,84.4,67.4z M85,70.8c0-0.2-0.1-0.5-0.1-0.8c0-0.3-0.1-0.6-0.1-0.8s-0.1-0.5-0.1-0.7
				c0-0.2-0.1-0.3-0.1-0.4c-0.2,0.1-0.5,0.2-0.8,0.3s-0.6,0.2-0.9,0.4c-0.3,0.1-0.6,0.3-0.8,0.4c-0.3,0.1-0.5,0.3-0.7,0.4
				c-0.3,0.2-0.6,0.4-0.8,0.7s-0.3,0.5-0.3,0.8c0,0.4,0.1,0.8,0.4,1.1c0.2,0.3,0.6,0.5,1.2,0.5c0.3,0,0.6-0.1,0.9-0.2
				c0.3-0.1,0.6-0.2,0.8-0.4c0.3-0.1,0.5-0.3,0.7-0.4s0.3-0.2,0.4-0.3c0.1-0.1,0.2-0.2,0.3-0.3C85,71.1,85,70.9,85,70.8z"/>
			<path d="M97.3,72c0.1,0.1,0.1,0.1,0.1,0.2c0,0.1-0.2,0.3-0.5,0.5c-0.4,0.2-0.8,0.4-1.4,0.7c-0.6,0.3-1.2,0.5-1.7,0.7
				c-0.3,0.1-0.5,0.2-0.7,0.3c-0.2,0.1-0.4,0.1-0.6,0.1c-0.2,0-0.5,0-0.8-0.1c-0.3-0.1-0.6-0.2-0.8-0.3c-0.2-0.1-0.3-0.2-0.4-0.3
				c-0.1-0.1-0.2-0.1-0.2-0.2c0-0.1,0-0.1,0.1-0.2c0-0.1,0.1-0.1,0.1-0.2c0,0,0-0.1,0-0.2c0-0.1,0-0.1,0-0.2c0-0.4,0.1-0.9,0.1-1.6
				c0.1-0.7,0.1-1.5,0.1-2.3s0.1-1.7,0.1-2.6c0-0.9,0-1.7,0-2.5c0-1,0-1.7,0-2.3c0-0.6,0-1.1-0.1-1.4c0-0.5-0.1-0.8-0.2-1
				c-0.1-0.2-0.2-0.3-0.2-0.3c-0.1-0.1-0.2-0.1-0.3-0.2c-0.1,0-0.2,0-0.3,0c-0.1,0-0.1,0-0.2,0c-0.1,0-0.1,0-0.1,0
				c0-0.5,0.2-0.7,0.6-0.7c0.3,0,0.7,0,1.1,0c0.4,0,0.8,0,1,0c0.2,0,0.4,0,0.6,0c0.2,0,0.4,0,0.6-0.1c0.2,0,0.4,0,0.5-0.1
				s0.3-0.1,0.4-0.1c0.1,0,0.1,0,0.1,0.1c0,0.1,0.1,0.1,0.1,0.2c0,0.1,0,0.2,0,0.2c0,0.1-0.1,0.1-0.1,0.1c-0.1,0-0.2,0-0.2,0
				c-0.1,0-0.2,0-0.3,0.1c-0.1,0-0.1,0.1-0.2,0.3c-0.1,0.2-0.1,0.4-0.2,0.7c0,0.3-0.1,0.8-0.1,1.3s-0.1,1.2-0.1,2
				c0,0.6-0.1,1.3-0.1,2c0,0.7,0,1.3-0.1,1.9c0,0.6,0,1.2,0,1.8c0,0.5,0,1,0,1.4c0,0.4,0,0.9,0,1.3c0,0.4,0,0.8,0.1,1
				c0.1,0.2,0.3,0.5,0.6,0.7c0.3,0.2,0.6,0.3,1,0.3c0.3,0,0.5,0,0.8-0.1s0.5-0.2,0.8-0.3s0.4-0.2,0.6-0.3C97.1,72.1,97.2,72,97.3,72
				z"/>
			<path d="M99.4,70.4c0,0.3,0,0.6,0,0.9c0,0.3,0.1,0.5,0.2,0.7c0.1,0.2,0.2,0.4,0.4,0.5c0.2,0.1,0.4,0.2,0.7,0.2
				c0.2,0,0.3,0,0.5-0.1c0.2,0,0.4-0.1,0.6-0.1c0.2-0.1,0.3-0.1,0.5-0.2c0.1-0.1,0.2-0.1,0.3-0.1c0,0,0.1,0,0.1,0s0,0.1,0,0.2
				c0,0.1,0,0.1-0.1,0.2c0,0.1-0.1,0.1-0.1,0.1c-0.1,0.1-0.4,0.2-0.8,0.4s-0.8,0.4-1.3,0.6c-0.5,0.2-0.9,0.4-1.4,0.5
				c-0.4,0.1-0.8,0.2-1.1,0.2c-0.3,0-0.6-0.1-0.8-0.3s-0.3-0.5-0.3-0.8c0-0.1,0-0.2,0-0.3c0-0.1,0-0.2,0-0.3c0-0.1,0-0.4,0.1-0.8
				c0-0.4,0.1-0.8,0.1-1.3c0-0.5,0.1-1,0.1-1.5s0-0.9,0-1.3v-0.8c0-0.4,0-0.7-0.1-1c0-0.3-0.1-0.5-0.2-0.7c-0.1-0.1-0.2-0.2-0.3-0.3
				c-0.1-0.1-0.2-0.1-0.4-0.1c-0.1,0-0.2,0-0.3,0.1c-0.1,0-0.2,0.1-0.2,0.1c0,0-0.1,0-0.1-0.1c-0.1-0.1-0.1-0.2,0-0.2
				c0.1-0.1,0.3-0.2,0.6-0.4s0.7-0.3,1.1-0.5c0.4-0.2,0.8-0.4,1.2-0.5c0.4-0.2,0.7-0.2,0.8-0.2s0.3,0,0.3,0.1
				c0.1,0.1,0.1,0.2,0.1,0.3v0.1c0,0.1,0,0.4-0.1,0.7s-0.1,0.7-0.1,1.2c-0.1,0.5-0.1,1-0.1,1.6c0,0.6-0.1,1.3-0.1,2V70.4z M98.5,59
				c0.1,0,0.2,0.1,0.4,0.2c0.2,0.1,0.3,0.3,0.5,0.5c0.2,0.2,0.3,0.4,0.5,0.5s0.2,0.3,0.2,0.4c0,0.1-0.1,0.2-0.3,0.3
				s-0.4,0.3-0.6,0.5c-0.2,0.2-0.4,0.3-0.7,0.4c-0.2,0.1-0.4,0.2-0.5,0.2c0,0-0.2-0.1-0.3-0.2c-0.2-0.1-0.3-0.3-0.5-0.5
				c-0.2-0.2-0.3-0.3-0.5-0.5c-0.1-0.2-0.2-0.3-0.2-0.3c0-0.1,0.1-0.2,0.3-0.3c0.2-0.2,0.4-0.3,0.6-0.5c0.2-0.2,0.4-0.3,0.7-0.4
				C98.3,59.1,98.5,59,98.5,59z"/>
			<path d="M112.3,71.2C112.3,71.1,112.4,71.1,112.3,71.2c0.1,0,0.1,0.1,0.1,0.2c0,0.1,0,0.1,0,0.2s0,0.1-0.1,0.2
				c-0.3,0.3-0.7,0.6-1.1,0.9s-0.9,0.6-1.4,0.9c-0.1,0.1-0.3,0.2-0.5,0.3s-0.5,0.2-0.8,0.3c-0.3,0.1-0.6,0.2-0.9,0.3
				c-0.3,0.1-0.6,0.1-0.8,0.1c-0.5,0-1-0.1-1.5-0.3c-0.5-0.2-0.9-0.5-1.2-0.8c-0.4-0.4-0.6-0.8-0.8-1.3c-0.2-0.5-0.3-1-0.3-1.6
				c0-0.6,0.1-1.2,0.3-1.8c0.2-0.6,0.4-1.1,0.6-1.5c0.2-0.4,0.4-0.8,0.6-1.1c0.2-0.3,0.3-0.5,0.4-0.7c-0.3,0-0.5,0-0.8,0
				c-0.2,0-0.4,0-0.6,0c-0.5,0-0.9,0-1.2,0c-0.3,0-0.6,0-0.9,0.1c-0.1,0-0.2,0.1-0.3,0.2c-0.1,0.1-0.2,0.2-0.3,0.2
				c0,0-0.1-0.1-0.1-0.1c-0.1-0.1-0.1-0.1-0.1-0.2c0,0,0-0.1,0-0.1c0,0,0.1-0.1,0.3-0.3c0.2-0.2,0.4-0.3,0.7-0.5
				c0.3-0.2,0.6-0.4,0.9-0.7c0.3-0.3,0.7-0.5,1-0.7s0.6-0.4,0.8-0.6c0.2-0.2,0.4-0.2,0.5-0.3c0.1,0,0.2,0,0.3,0
				c0.1,0.1,0.1,0.1,0.1,0.1c0,0-0.1,0.1-0.2,0.2c-0.1,0.1-0.1,0.2-0.1,0.2c0.2,0.1,0.4,0.2,0.8,0.4c0.4,0.1,0.8,0.2,1.3,0.3
				c0.5,0.1,1,0.1,1.5,0.2c0.5,0,1,0.1,1.4,0.1c0.6,0,1.1,0,1.5-0.1c0.4,0,0.7-0.1,0.9-0.1c0.2-0.1,0.4-0.1,0.5-0.1c0,0,0,0,0.1,0.1
				s0.1,0.1,0.1,0.2c0,0-0.1,0.1-0.3,0.2c-0.2,0.1-0.4,0.2-0.6,0.4c-0.1,0.1-0.3,0.2-0.5,0.3c-0.2,0.1-0.4,0.2-0.6,0.3
				c-0.2,0.1-0.4,0.2-0.7,0.3s-0.5,0.1-0.7,0.2c-0.2,0-0.5,0.1-0.8,0.1c-0.3,0-0.6,0-0.9,0c-0.3,0-0.6,0-1,0c-0.3,0-0.6,0-0.9,0
				c0,0.1-0.1,0.2-0.2,0.4c-0.1,0.2-0.2,0.4-0.3,0.6s-0.2,0.6-0.2,0.9s-0.1,0.7-0.1,1.1c0,0.6,0.1,1.2,0.3,1.7s0.4,0.9,0.8,1.3
				c0.3,0.4,0.7,0.7,1.2,0.9s0.9,0.3,1.5,0.3c0.3,0,0.6,0,0.9-0.1c0.3-0.1,0.6-0.2,0.8-0.3s0.5-0.2,0.7-0.4c0.2-0.1,0.4-0.3,0.6-0.4
				L112.3,71.2z"/>
			<path d="M118.4,67.3c-0.6,0.3-1.1,0.5-1.6,0.7s-0.9,0.4-1.3,0.6c-0.4,0.2-0.6,0.3-0.8,0.4c0,0.5,0.1,1,0.3,1.4
				c0.2,0.4,0.5,0.8,0.8,1.1s0.8,0.6,1.3,0.8c0.5,0.2,1,0.3,1.6,0.3c0.5,0,1-0.1,1.4-0.2c0.4-0.1,0.8-0.2,1.1-0.4
				c0.3-0.1,0.5-0.3,0.7-0.4c0.2-0.1,0.3-0.2,0.3-0.2c0.1,0,0.1,0,0.2,0.1c0.1,0.1,0.1,0.1,0.1,0.2c-0.2,0.2-0.4,0.4-0.7,0.7
				s-0.7,0.6-1.2,0.9c-0.5,0.3-1,0.6-1.6,0.8s-1.2,0.3-1.9,0.3c-0.6,0-1.2-0.1-1.8-0.3c-0.6-0.2-1.1-0.5-1.5-0.8
				c-0.5-0.4-0.8-0.8-1.1-1.4c-0.3-0.6-0.4-1.3-0.4-2.1c0-0.7,0-1.2,0.1-1.7s0.2-0.9,0.4-1.3c0.1-0.4,0.3-0.7,0.5-0.9
				c0.2-0.3,0.4-0.5,0.6-0.7c0.2-0.3,0.5-0.5,0.9-0.7s0.7-0.4,1.1-0.6s0.8-0.3,1.2-0.5c0.4-0.1,0.9-0.2,1.3-0.2
				c0.8,0,1.4,0.1,1.9,0.4s0.7,0.6,0.7,1.1c0,0.3-0.1,0.6-0.3,0.8C120,66.3,119.8,66.6,118.4,67.3z M114.7,68.3
				c0.2-0.1,0.5-0.2,0.8-0.3c0.3-0.1,0.6-0.3,0.9-0.4c0.3-0.1,0.6-0.3,0.8-0.4s0.4-0.2,0.6-0.4c0.3-0.2,0.4-0.5,0.4-1
				c0-0.2,0-0.4-0.1-0.5c-0.1-0.2-0.2-0.4-0.3-0.5c-0.1-0.2-0.3-0.3-0.5-0.4c-0.2-0.1-0.4-0.1-0.6-0.1c-0.2,0-0.4,0.1-0.7,0.2
				c-0.2,0.1-0.5,0.4-0.7,0.7c-0.2,0.3-0.4,0.7-0.5,1.3C114.8,66.9,114.7,67.5,114.7,68.3z M120.1,59.7c0,0-0.2,0.2-0.5,0.5
				c-0.4,0.3-0.8,0.5-1.3,0.9s-1,0.6-1.5,0.9c-0.5,0.3-0.9,0.5-1.2,0.7c0,0-0.1,0-0.2,0s-0.1-0.1-0.2-0.1c-0.1-0.1-0.1-0.1-0.1-0.1
				s0-0.1,0-0.1c0.2-0.2,0.6-0.5,1-0.9s0.8-0.8,1.2-1.2c0.4-0.4,0.8-0.8,1.1-1.1s0.5-0.5,0.5-0.5c0,0,0.1,0,0.2,0.1s0.2,0.2,0.4,0.4
				c0.1,0.1,0.2,0.3,0.4,0.4C120.1,59.5,120.1,59.6,120.1,59.7z"/>
		</g>
	</g>
</g>
</svg>
