<?xml version="1.0" encoding="utf-8"?>
<!-- Generator: Adobe Illustrator 25.4.1, SVG Export Plug-In . SVG Version: 6.00 Build 0)  -->
<svg version="1.1" id="Calque_1" xmlns="http://www.w3.org/2000/svg" xmlns:xlink="http://www.w3.org/1999/xlink" x="0px" y="0px"
	 viewBox="0 0 55.4 50.2" style="enable-background:new 0 0 55.4 50.2;" xml:space="preserve">
<style type="text/css">
	.st0{fill:none;stroke:#ccae3f;stroke-miterlimit:10;}
	.st1{fill:#80808000;}
	.st2{fill:#ccae3f;}
</style>
<g id="Main">
	<g id="Butterfly">
		<path class="st0" d="M6.9,45.9L6.9,45.9C6.9,45.9,7,45.9,6.9,45.9c12,0.1,21.7-9.6,21.7-21.6l0,0l0,0C16.6,24.2,6.9,33.9,6.9,45.9
			z"/>
		<path class="st0" d="M28.5,31L28.5,31L28.5,31c12,0.1,21.7-9.6,21.7-21.6l0,0l0,0C38.1,9.4,28.5,19,28.5,31z"/>
		<path class="st0" d="M7,9.4C7,9.4,6.9,9.4,7,9.4C6.9,9.4,6.9,9.4,7,9.4C6.9,21.3,16.6,31,28.5,31l0,0l0,0C28.6,19,18.9,9.4,7,9.4z
			"/>
		<path class="st0" d="M28.5,24.2L28.5,24.2C28.5,24.3,28.5,24.3,28.5,24.2c-0.1,12,9.6,21.7,21.6,21.7l0,0l0,0
			C50.1,33.9,40.5,24.2,28.5,24.2z"/>
		<g>
			<path class="st0" d="M17,19.2c-2.4-1.9-5.8-3.2-9.1-3.4"/>
			<path class="st0" d="M27.3,24.3c-0.1-0.4-0.3-0.8-0.4-1.1c0-0.1-0.1-0.2-0.1-0.3c-0.1-0.3-0.2-0.6-0.3-0.8c0-0.1-0.1-0.2-0.1-0.3
				c-0.1-0.3-0.3-0.6-0.4-0.8c0-0.1-0.1-0.2-0.1-0.3c-0.4-0.7-0.8-1.4-1.2-2c-0.1-0.1-0.1-0.2-0.2-0.2c-0.2-0.2-0.3-0.5-0.5-0.7
				c-0.1-0.1-0.1-0.2-0.2-0.3c-0.2-0.2-0.4-0.5-0.6-0.7c-0.1-0.1-0.1-0.1-0.2-0.2c-0.5-0.6-1.1-1.2-1.7-1.7
				c-0.1-0.1-0.1-0.1-0.2-0.2c-0.2-0.2-0.5-0.4-0.7-0.6c-0.1-0.1-0.2-0.1-0.3-0.2c-0.2-0.2-0.5-0.4-0.7-0.5
				c-0.1-0.1-0.2-0.1-0.2-0.2c-0.7-0.5-1.3-0.9-2-1.2c-0.1,0-0.2-0.1-0.2-0.1c-0.3-0.1-0.5-0.3-0.8-0.4c-0.1,0-0.2-0.1-0.3-0.1
				c-0.3-0.1-0.5-0.2-0.8-0.3c-0.1,0-0.2-0.1-0.3-0.1c-0.4-0.1-0.7-0.3-1.1-0.4C13.8,17.9,19.8,23.9,27.3,24.3L27.3,24.3z"/>
		</g>
		<g>
			<path class="st0" d="M40.2,19.2c2.4-1.9,5.8-3.2,9.1-3.4"/>
			<path class="st0" d="M29.8,24.3c0.1-0.4,0.3-0.8,0.4-1.1c0-0.1,0.1-0.2,0.1-0.3c0.1-0.3,0.2-0.6,0.3-0.8c0-0.1,0.1-0.2,0.1-0.3
				c0.1-0.3,0.3-0.6,0.4-0.8c0-0.1,0.1-0.2,0.1-0.3c0.4-0.7,0.8-1.4,1.2-2c0.1-0.1,0.1-0.2,0.2-0.2c0.2-0.2,0.3-0.5,0.5-0.7
				c0.1-0.1,0.1-0.2,0.2-0.3c0.2-0.2,0.4-0.5,0.6-0.7c0.1-0.1,0.1-0.1,0.2-0.2c0.5-0.6,1.1-1.2,1.7-1.7c0.1-0.1,0.1-0.1,0.2-0.2
				c0.2-0.2,0.5-0.4,0.7-0.6c0.1-0.1,0.2-0.1,0.3-0.2c0.2-0.2,0.5-0.4,0.7-0.5c0.1-0.1,0.2-0.1,0.2-0.2c0.7-0.5,1.3-0.9,2-1.2
				c0.1,0,0.2-0.1,0.2-0.1c0.3-0.1,0.5-0.3,0.8-0.4c0.1,0,0.2-0.1,0.3-0.1c0.3-0.1,0.5-0.2,0.8-0.3c0.1,0,0.2-0.1,0.3-0.1
				c0.4-0.1,0.7-0.3,1.1-0.4C43.3,17.9,37.3,23.9,29.8,24.3L29.8,24.3z"/>
		</g>
		<g>
			<path class="st0" d="M40.2,35.9c2.4,1.9,5.8,3.2,9.1,3.4"/>
			<path class="st0" d="M29.8,30.8c0.1,0.4,0.3,0.8,0.4,1.1c0,0.1,0.1,0.2,0.1,0.3c0.1,0.3,0.2,0.6,0.3,0.8c0,0.1,0.1,0.2,0.1,0.3
				c0.1,0.3,0.3,0.6,0.4,0.8c0,0.1,0.1,0.2,0.1,0.3c0.4,0.7,0.8,1.4,1.2,2c0.1,0.1,0.1,0.2,0.2,0.2c0.2,0.2,0.3,0.5,0.5,0.7
				c0.1,0.1,0.1,0.2,0.2,0.3c0.2,0.2,0.4,0.5,0.6,0.7c0.1,0.1,0.1,0.1,0.2,0.2c0.5,0.6,1.1,1.2,1.7,1.7c0.1,0.1,0.1,0.1,0.2,0.2
				c0.2,0.2,0.5,0.4,0.7,0.6c0.1,0.1,0.2,0.1,0.3,0.2c0.2,0.2,0.5,0.4,0.7,0.5c0.1,0.1,0.2,0.1,0.2,0.2c0.7,0.5,1.3,0.9,2,1.2
				c0.1,0,0.2,0.1,0.2,0.1c0.3,0.1,0.5,0.3,0.8,0.4c0.1,0,0.2,0.1,0.3,0.1c0.3,0.1,0.5,0.2,0.8,0.3c0.1,0,0.2,0.1,0.3,0.1
				c0.4,0.1,0.7,0.3,1.1,0.4C43.3,37.3,37.3,31.2,29.8,30.8L29.8,30.8z"/>
		</g>
		<g>
			<path class="st0" d="M17,35.9c-2.4,1.9-5.8,3.2-9.1,3.4"/>
			<path class="st0" d="M27.3,30.8c-0.1,0.4-0.3,0.8-0.4,1.1c0,0.1-0.1,0.2-0.1,0.3c-0.1,0.3-0.2,0.6-0.3,0.8c0,0.1-0.1,0.2-0.1,0.3
				c-0.1,0.3-0.3,0.6-0.4,0.8c0,0.1-0.1,0.2-0.1,0.3c-0.4,0.7-0.8,1.4-1.2,2c-0.1,0.1-0.1,0.2-0.2,0.2c-0.2,0.2-0.3,0.5-0.5,0.7
				c-0.1,0.1-0.1,0.2-0.2,0.3c-0.2,0.2-0.4,0.5-0.6,0.7c-0.1,0.1-0.1,0.1-0.2,0.2c-0.5,0.6-1.1,1.2-1.7,1.7
				c-0.1,0.1-0.1,0.1-0.2,0.2c-0.2,0.2-0.5,0.4-0.7,0.6c-0.1,0.1-0.2,0.1-0.3,0.2c-0.2,0.2-0.5,0.4-0.7,0.5
				c-0.1,0.1-0.2,0.1-0.2,0.2c-0.7,0.5-1.3,0.9-2,1.2c-0.1,0-0.2,0.1-0.2,0.1c-0.3,0.1-0.5,0.3-0.8,0.4c-0.1,0-0.2,0.1-0.3,0.1
				c-0.3,0.1-0.5,0.2-0.8,0.3c-0.1,0-0.2,0.1-0.3,0.1c-0.4,0.1-0.7,0.3-1.1,0.4C13.8,37.3,19.8,31.2,27.3,30.8L27.3,30.8z"/>
		</g>
		<path class="st0" d="M7,9.4C7,9.4,6.9,9.4,7,9.4C6.9,9.4,6.9,9.4,7,9.4C6.9,21.3,16.6,31,28.5,31l0,0l0,0C28.6,19,18.9,9.4,7,9.4z
			"/>
	</g>
	<g id="Text_Vecto">
	</g>
</g>
<g>
	<ellipse id="Star_00000044878700436623435620000009707188458150515350_" class="st1" cx="28.4" cy="9.4" rx="3.4" ry="3.7"/>
	<path class="st2" d="M28.4,15.7l-0.5-2.5c-0.5-2.5-0.8-2.8-3-3.3l-2-0.5l2-0.5c2.2-0.5,2.5-0.8,3-3.3l0.5-2.5l0.5,2.5
		c0.5,2.5,0.8,2.8,3,3.3l2,0.5l-2,0.5c-2.2,0.5-2.5,0.8-3,3.3L28.4,15.7z M26.7,9.4c0.9,0.4,1.3,0.9,1.7,1.8
		c0.3-0.9,0.8-1.4,1.7-1.8c-0.9-0.4-1.3-0.9-1.7-1.8C28.1,8.5,27.6,9,26.7,9.4z"/>
</g>
</svg>
