<svg width="127.5" height="84.2" xmlns="http://www.w3.org/2000/svg" xml:space="preserve" version="1.1" fill="#FFFFFF">

 <g>
  <title>Layer 1</title>
  <g id="Butterfly">
   <path id="svg_1" d="m42.7,46.9l-0.5,0l-0.1,-0.6c0,-12.2 9.9,-22.1 22.1,-22.1l0.5,0l0,0.5c0.1,12.3 -9.9,22.2 -22,22.2zm-0.1,-0.5l0,0l0,0zm21.2,-21.1c-11.3,0.3 -20.4,9.4 -20.6,20.6c11.2,-0.3 20.3,-9.4 20.6,-20.6z"/>
   <path id="svg_2" d="m64.2,32l-0.5,0l-0.1,-0.6c0,-12.2 9.9,-22.1 22.1,-22.1l0.5,0l0,0.5c0.1,12.3 -9.8,22.2 -22,22.2zm0,-0.5l0,0l0,0zm21.1,-21.1c-11.3,0.2 -20.4,9.4 -20.6,20.6c11.3,-0.2 20.4,-9.4 20.6,-20.6z"/>
   <path id="svg_3" d="m64.3,32c-12.3,0 -22.2,-9.9 -22.2,-22.1l0,-0.5l0.6,-0.1c12.2,0 22.1,9.9 22.1,22.1l0,0.6l-0.5,0zm-21.2,-21.6c0.3,11.3 9.4,20.4 20.6,20.6c-0.2,-11.3 -9.3,-20.4 -20.6,-20.6zm-0.4,-0.5l0,0l0,0z"/>
   <path id="svg_4" d="m85.8,46.9c-12.2,0 -22.2,-9.9 -22.2,-22.1l0,-0.5l0.6,-0.1c12.2,0 22.1,9.9 22.1,22.1l0,0.5l-0.5,0.1zm-21.1,-21.6c0.3,11.3 9.4,20.4 20.6,20.6c-0.2,-11.3 -9.4,-20.4 -20.6,-20.6zm-0.5,-0.5l0,0l0,0z"/>
   <g id="svg_5">
    <path id="svg_6" d="m52.3,20.1c-2.2,-1.8 -5.6,-3.1 -8.8,-3.3l0.1,-1c3.5,0.2 7,1.5 9.3,3.5l-0.6,0.8z"/>
    <path id="svg_7" d="m63.7,25.4l-0.7,0c-7.8,-0.5 -14,-6.7 -14.4,-14.4l0,-0.7l0.7,0.2c0.4,0.1 0.8,0.3 1.2,0.4l0.3,0.1c0.3,0.1 0.6,0.2 0.9,0.4l0.3,0.1c0.3,0.1 0.6,0.3 0.8,0.4l0.3,0.1c0.7,0.4 1.4,0.8 2.1,1.3l0.2,0.2c0.2,0.2 0.5,0.4 0.7,0.5l0.3,0.2c0.2,0.2 0.5,0.4 0.7,0.6l0.2,0.2c0.6,0.5 1.2,1.1 1.7,1.7l0.2,0.2c0.2,0.2 0.4,0.5 0.6,0.7l0.2,0.3c0.2,0.2 0.4,0.5 0.5,0.7l0.2,0.3c0.5,0.7 0.9,1.4 1.3,2.1l0.1,0.2c0.2,0.4 0.3,0.6 0.5,0.9l0.1,0.3c0.1,0.3 0.2,0.6 0.4,0.8l0.1,0.3c0.1,0.4 0.3,0.8 0.4,1.2l0.1,0.7zm-14.1,-13.8c0.8,6.7 6,11.9 12.7,12.7c0,-0.1 -0.1,-0.3 -0.1,-0.4l-0.2,-0.3c-0.1,-0.3 -0.2,-0.5 -0.3,-0.8l-0.1,-0.3c-0.1,-0.3 -0.3,-0.5 -0.4,-0.8l-0.2,-0.3c-0.4,-0.7 -0.8,-1.4 -1.2,-2l-0.2,-0.2c-0.2,-0.2 -0.3,-0.5 -0.5,-0.7l-0.2,-0.3c-0.2,-0.2 -0.4,-0.5 -0.6,-0.7l-0.2,-0.2c-0.5,-0.6 -1.1,-1.1 -1.6,-1.6l-0.2,-0.2c-0.2,-0.2 -0.4,-0.4 -0.7,-0.6l-0.2,-0.2c-0.3,-0.2 -0.5,-0.4 -0.7,-0.6l-0.3,-0.1c-0.6,-0.4 -1.3,-0.8 -2,-1.2l-0.2,-0.1c-0.3,-0.1 -0.5,-0.3 -0.8,-0.4l-0.3,-0.1c-0.3,-0.1 -0.5,-0.2 -0.8,-0.3l-0.3,-0.2c-0.1,0 -0.3,-0.1 -0.4,-0.1z"/>
   </g>
   <g id="svg_8">
    <path id="svg_9" d="m76.2,20.1l-0.6,-0.8c2.4,-2 5.9,-3.3 9.3,-3.5l0.1,1c-3.3,0.2 -6.6,1.5 -8.8,3.3z"/>
    <path id="svg_10" d="m64.8,25.4l0.2,-0.7c0.1,-0.4 0.3,-0.8 0.4,-1.2l0.1,-0.3c0.1,-0.3 0.2,-0.6 0.4,-0.8l0.1,-0.4c0.1,-0.3 0.3,-0.6 0.4,-0.8l0.1,-0.3c0.4,-0.7 0.8,-1.4 1.3,-2.1l0.2,-0.3c0.2,-0.2 0.4,-0.5 0.5,-0.7l0.2,-0.3c0.2,-0.2 0.4,-0.5 0.6,-0.7l0.2,-0.2c0.5,-0.6 1.1,-1.2 1.7,-1.7l0.2,-0.2c0.2,-0.2 0.5,-0.4 0.7,-0.6l0.2,-0.2c0.3,-0.2 0.6,-0.4 0.8,-0.6l0.2,-0.2c0.7,-0.5 1.4,-0.9 2.1,-1.3l0.3,-0.1c0.3,-0.1 0.6,-0.3 0.8,-0.4l0.3,-0.1c0.4,-0.2 0.6,-0.3 0.9,-0.4l0.3,-0.1c0.4,-0.1 0.8,-0.3 1.2,-0.4l0.7,-0.2l0,0.7c-0.5,7.8 -6.7,14 -14.4,14.4l-0.7,0.2zm14.1,-13.8c-0.1,0 -0.3,0.1 -0.4,0.1l-0.3,0.1c-0.3,0.1 -0.5,0.2 -0.8,0.3l-0.3,0.1c-0.3,0.1 -0.5,0.3 -0.8,0.4l-0.2,0.1c-0.7,0.4 -1.4,0.8 -2,1.2l-0.2,0.2c-0.2,0.2 -0.5,0.3 -0.7,0.5l-0.3,0.2c-0.2,0.2 -0.5,0.4 -0.7,0.6l-0.2,0.3c-0.6,0.5 -1.1,1.1 -1.6,1.6l-0.1,0.1c-0.3,0.3 -0.4,0.5 -0.6,0.7l-0.2,0.3c-0.2,0.2 -0.4,0.5 -0.5,0.7l-0.2,0.2c-0.4,0.6 -0.8,1.3 -1.2,2l-0.1,0.2c-0.1,0.3 -0.3,0.5 -0.4,0.8l-0.1,0.3c-0.1,0.3 -0.2,0.5 -0.3,0.8l-0.1,0.3c0,0.1 -0.1,0.3 -0.1,0.4c6.4,-0.6 11.6,-5.9 12.4,-12.5z"/>
   </g>
   <g id="svg_11">
    <path id="svg_12" d="m84.9,40.3c-3.5,-0.2 -7,-1.5 -9.3,-3.5l0.6,-0.8c2.2,1.8 5.6,3.1 8.8,3.3l-0.1,1z"/>
    <path id="svg_13" d="m80,46l-0.7,-0.2c-0.4,-0.1 -0.8,-0.3 -1.2,-0.4l-0.3,-0.1c-0.3,-0.1 -0.6,-0.2 -0.8,-0.4l-0.3,-0.1c-0.3,-0.1 -0.6,-0.3 -0.8,-0.4l-0.3,-0.1c-0.7,-0.4 -1.4,-0.8 -2.1,-1.3l-0.2,-0.1c-0.3,-0.2 -0.6,-0.4 -0.8,-0.6l-0.3,-0.3c-0.2,-0.2 -0.5,-0.4 -0.7,-0.6l-0.2,-0.2c-0.6,-0.5 -1.2,-1.1 -1.7,-1.7l-0.2,-0.2c-0.2,-0.3 -0.4,-0.5 -0.6,-0.7l-0.2,-0.3c-0.2,-0.2 -0.4,-0.5 -0.5,-0.7l-0.2,-0.3c-0.5,-0.7 -0.9,-1.4 -1.3,-2.1l-0.1,-0.3c-0.1,-0.3 -0.3,-0.6 -0.4,-0.8l-0.1,-0.3c-0.1,-0.3 -0.2,-0.6 -0.4,-0.8l-0.1,-0.3c-0.1,-0.4 -0.3,-0.8 -0.4,-1.2l-0.2,-0.7l0.7,0c7.8,0.5 14,6.7 14.4,14.4l0,0.8zm-13.8,-14.1c0,0.1 0.1,0.3 0.1,0.4l0.1,0.3c0.1,0.3 0.2,0.5 0.3,0.8l0.1,0.3c0.1,0.3 0.3,0.5 0.4,0.8l0.1,0.2c0.4,0.7 0.8,1.4 1.2,2l0.1,0.2c0.2,0.3 0.4,0.5 0.6,0.8l0.2,0.3c0.2,0.2 0.4,0.5 0.6,0.7l0.2,0.2c0.5,0.6 1.1,1.1 1.6,1.6l0.1,0.1c0.3,0.3 0.5,0.4 0.7,0.6l0.3,0.2c0.2,0.2 0.5,0.3 0.7,0.5l0.2,0.2c0.6,0.4 1.3,0.8 2,1.2l0.2,0.1c0.3,0.1 0.5,0.3 0.8,0.4l0.3,0.1c0.3,0.1 0.5,0.2 0.8,0.3l0.3,0.1c0.1,0 0.3,0.1 0.4,0.1c-0.5,-6.5 -5.7,-11.8 -12.4,-12.5z"/>
   </g>
   <g id="svg_14">
    <path id="svg_15" d="m43.6,40.3l-0.1,-1c3.2,-0.2 6.6,-1.4 8.8,-3.3l0.6,0.8c-2.3,2 -5.8,3.3 -9.3,3.5z"/>
    <path id="svg_16" d="m48.5,46l0,-0.7c0.5,-7.8 6.7,-14 14.4,-14.4l0.7,0l-0.2,0.7c-0.1,0.4 -0.3,0.8 -0.4,1.2l0,0.1c-0.1,0.3 -0.2,0.6 -0.4,0.8l-0.1,0.3c-0.1,0.3 -0.3,0.6 -0.4,0.8l-0.1,0.3c-0.4,0.7 -0.8,1.4 -1.3,2.1l-0.1,0.2c-0.2,0.3 -0.4,0.5 -0.6,0.8l-0.2,0.3c-0.2,0.2 -0.4,0.5 -0.6,0.7l-0.2,0.2c-0.5,0.6 -1.1,1.2 -1.7,1.7l-0.3,0.2c-0.3,0.3 -0.5,0.4 -0.8,0.6l-0.2,0.3c-0.2,0.2 -0.5,0.4 -0.7,0.5l-0.3,0.2c-0.7,0.5 -1.4,0.9 -2.1,1.3l-0.3,0.1c-0.3,0.1 -0.6,0.3 -0.8,0.4l-0.3,0.1c-0.3,0.1 -0.6,0.2 -0.8,0.4l-0.3,0.1c-0.4,0.1 -0.8,0.3 -1.2,0.4l-0.7,0.3zm13.8,-14.1c-6.7,0.8 -11.9,6 -12.7,12.7c0.1,0 0.3,-0.1 0.4,-0.1l0.3,-0.1c0.3,-0.1 0.5,-0.2 0.8,-0.3l0.3,-0.1c0.3,-0.1 0.5,-0.3 0.8,-0.4l0.2,-0.1c0.7,-0.4 1.3,-0.8 2,-1.2l0.2,-0.1c0.3,-0.2 0.5,-0.4 0.8,-0.6l0.3,-0.2c0.2,-0.2 0.5,-0.4 0.7,-0.6l0.2,-0.2c0.6,-0.5 1.1,-1.1 1.6,-1.6l0.1,-0.2c0.2,-0.3 0.4,-0.5 0.6,-0.7l0.2,-0.3c0.2,-0.2 0.3,-0.5 0.5,-0.7l0.2,-0.2c0.4,-0.6 0.8,-1.3 1.2,-2l0.1,-0.2c0.1,-0.3 0.3,-0.5 0.4,-0.8l0.1,-0.3c0.1,-0.3 0.2,-0.5 0.3,-0.8l0.1,-0.3c0.2,-0.4 0.3,-0.5 0.3,-0.6z"/>
   </g>
   <path id="svg_17" d="m64.3,32c-12.3,0 -22.2,-9.9 -22.2,-22.1l0,-0.5l0.6,-0.1c12.2,0 22.1,9.9 22.1,22.1l0,0.6l-0.5,0zm-21.2,-21.6c0.3,11.3 9.4,20.4 20.6,20.6c-0.2,-11.3 -9.3,-20.4 -20.6,-20.6zm-0.4,-0.5l0,0l0,0z"/>
  </g>
  <g id="svg_19">
   <path id="svg_20" d="m60.3,53.2c0,-0.2 0,-0.4 -0.1,-0.5c0,0 0,-0.1 -0.1,-0.2c-0.1,-0.1 -0.1,-0.2 -0.1,-0.3c0,-0.1 0.1,-0.1 0.3,-0.1c0.2,0 0.4,0 0.5,0c0.1,0 0.2,0.1 0.3,0.2c0.1,0.1 0.2,0.4 0.4,0.8c0.2,0.4 0.3,0.7 0.3,0.8l0.1,0.3l0.1,0.1c0,0 0.2,-0.3 0.4,-0.9c0.3,-0.6 0.4,-1 0.5,-1.1c0.1,-0.1 0.2,-0.2 0.4,-0.2l0.1,0c0.2,0 0.3,0 0.4,0s0.1,0.1 0.1,0.1c0,0 0,0.1 -0.1,0.2s-0.1,0.2 -0.1,0.3s0,0.4 0,0.9c0,0.5 0,0.9 0.1,1.1c0,0.1 0.1,0.2 0.1,0.2l0.1,0.1l0.1,0.1l0.1,0.1l0,0.1l-0.1,0.1c-0.1,0 -0.2,0.1 -0.5,0.1c-0.5,0 -0.7,0 -0.7,-0.1l0,-0.1l0.1,-0.3c0,-0.1 0,-0.2 0.1,-0.4s0,-0.5 0,-0.9c0,-0.4 0,-0.6 0,-0.7l0,-0.1c0,0 -0.3,0.5 -0.6,1.5c-0.2,0.4 -0.2,0.6 -0.3,0.7c-0.1,0.2 -0.2,0.3 -0.2,0.3s-0.1,0 -0.2,-0.1c0,-0.1 -0.2,-0.4 -0.5,-1.2c-0.3,-0.7 -0.5,-1.1 -0.5,-1.1c0,0 -0.1,0.1 -0.1,0.4l0,0.3c0,0.1 0,0.3 0,0.6c0,0.3 0,0.6 0.1,0.7c0.1,0.2 0.1,0.3 0.1,0.3l0,0.1c-0.1,0.1 -0.3,0.1 -0.5,0.1c-0.2,0 -0.3,0 -0.3,-0.1l0,-0.1c0,0 0,-0.1 0.1,-0.2s0.2,-0.2 0.2,-0.3c-0.1,-0.3 -0.1,-0.8 -0.1,-1.6z"/>
   <path id="svg_21" d="m66.3,54.3c-0.3,0 -0.4,0 -0.5,0c-0.1,0.1 -0.1,0.2 -0.1,0.5c0,0.1 0,0.2 0,0.2c0,0.1 0,0.1 0.1,0.1c0,0 0,0.1 0,0.1c0,0.1 -0.1,0.1 -0.4,0.1c-0.3,0 -0.4,0 -0.5,0c-0.1,0 -0.1,-0.1 -0.1,-0.1l0,0c0,0 0,-0.1 0.1,-0.1s0.1,-0.1 0.2,-0.1c0.1,-0.1 0.3,-0.6 0.6,-1.5c0.1,-0.2 0.1,-0.4 0.2,-0.6c0.1,-0.2 0.1,-0.4 0.2,-0.5c0.1,-0.2 0.2,-0.3 0.4,-0.3l0,0c0.1,0 0.3,0.1 0.4,0.3s0.2,0.5 0.4,1s0.3,0.9 0.5,1.4c0.1,0.1 0.1,0.2 0.2,0.3c0,0 0,0 0.1,0.1s0.1,0.1 0.1,0.1c0,0.1 -0.1,0.2 -0.3,0.2l-0.4,0c-0.3,0 -0.5,0 -0.5,0c-0.1,0 -0.1,-0.1 -0.1,-0.1c0,0 0,0 0,-0.1c0,0 0,-0.1 0.1,-0.1c0,-0.1 0.1,-0.2 0.1,-0.3c0,-0.2 0,-0.4 -0.1,-0.5c-0.2,-0.1 -0.4,-0.1 -0.7,-0.1zm-0.2,-0.3l0,0l0,0l0.3,0c0.2,0 0.4,0 0.4,0c0,0 0,-0.1 0,-0.1c0,-0.1 -0.1,-0.2 -0.1,-0.2s-0.1,-0.2 -0.1,-0.4s-0.1,-0.3 -0.1,-0.4s0,-0.1 0,-0.1c0,0 -0.1,0.2 -0.1,0.5c-0.1,0.3 -0.1,0.5 -0.1,0.5c-0.3,0.1 -0.3,0.2 -0.2,0.2l0,0c-0.1,0 -0.1,0 0,0z"/>
  </g>
  <ellipse ry="3.7" rx="3.4" cy="9.9" cx="64.4" class="st0" id="Star_00000079469635817755305090000017607123902085673645_" fill="none"/>
  <path id="svg_23" d="m64.4,16.2l-0.5,-2.5c-0.5,-2.5 -0.8,-2.8 -3,-3.3l-2,-0.5l2,-0.5c2.2,-0.5 2.5,-0.8 3,-3.3l0.5,-2.5l0.5,2.5c0.5,2.5 0.8,2.8 3,3.3l2,0.5l-2,0.5c-2.2,0.5 -2.5,0.8 -3,3.3l-0.5,2.5zm-1.7,-6.3c0.9,0.4 1.3,0.9 1.7,1.8c0.3,-0.9 0.8,-1.4 1.7,-1.8c-0.9,-0.4 -1.3,-0.9 -1.7,-1.8c-0.3,0.9 -0.8,1.4 -1.7,1.8z"/>
  <g id="Spiritualité">
   <path id="svg_24" d="m7.1,71.1c0.4,0.3 3.2,1.8 3.7,1.9c0.5,0.2 1,0.3 1.5,0.3c1.1,0 1.9,-0.2 2.4,-0.7c0.5,-0.5 0.8,-1.2 0.8,-1.9c0,-0.7 -0.1,-1.2 -0.4,-1.6c-0.2,-0.4 -0.6,-0.7 -1,-1c-0.4,-0.2 -0.9,-0.5 -1.4,-0.6c-0.5,-0.2 -1.1,-0.3 -1.6,-0.4c-0.5,-0.1 -1.1,-0.3 -1.6,-0.4c-0.5,-0.2 -1,-0.4 -1.4,-0.7c-0.4,-0.3 -0.8,-0.6 -1,-1.1c-0.2,-0.4 -0.4,-1 -0.4,-1.7c0,-0.7 0.1,-1.3 0.5,-1.9c0.3,-0.6 0.7,-1.1 1.3,-1.6c0.6,-0.5 1.2,-0.8 2,-1.1s1.7,-0.4 2.7,-0.4c1,0 1.8,0.1 2.5,0.3c0.7,0.2 1.2,0.3 1.6,0.4c0.1,-0.1 0.2,-0.3 0.2,-0.4c0.1,-0.2 0.2,-0.3 0.3,-0.4s0.2,-0.2 0.4,-0.3s0.3,-0.1 0.5,-0.1c0.1,0 0.2,0 0.3,0.1c0.1,0.1 0.1,0.2 0.1,0.2c0,0.1 -0.1,0.1 -0.2,0.2c-0.1,0 -0.2,0.1 -0.2,0.1c-0.5,0.2 -0.8,0.8 -1.1,1.6c-0.3,0.9 -0.5,1.9 -0.5,3.2c0,0 -0.1,0.1 -0.1,0.1c-0.1,0 -0.1,0 -0.2,0c-0.1,0 -0.2,0 -0.2,0c0,-0.4 -0.2,-0.9 -0.4,-1.3s-0.5,-0.9 -0.9,-1.2c-0.4,-0.4 -0.9,-0.7 -1.4,-0.9c-0.6,-0.2 -1.2,-0.4 -1.9,-0.4c-0.4,0 -0.8,0.1 -1.2,0.2c-0.4,0.1 -0.6,0.3 -0.9,0.5c-0.2,0.2 -0.4,0.5 -0.5,0.7s-0.2,0.5 -0.2,0.8c0,0.6 0.2,1.2 0.7,1.7c0.5,0.5 1.3,0.9 2.3,1.1c0.6,0.2 1.3,0.3 2,0.5c0.7,0.2 1.3,0.5 1.9,0.8c0.6,0.3 1,0.8 1.4,1.3c0.4,0.5 0.5,1.2 0.5,2c0,0.8 -0.2,1.5 -0.5,2.2c-0.4,0.7 -0.8,1.3 -1.4,1.9c-0.6,0.5 -1.3,1 -2,1.3c-0.7,0.3 -1.5,0.5 -2.3,0.5c-0.6,0 -1.2,0 -1.8,-0.1c-0.6,-0.1 -1.1,-0.2 -1.6,-0.3c-0.5,-0.1 -0.9,-0.2 -1.3,-0.4c-0.4,-0.1 -0.6,-0.2 -0.8,-0.3c0.1,-0.2 0.3,-0.5 0.4,-0.7s0.3,-0.5 0.4,-0.8c-0.2,-0.6 -0.1,-0.9 0,-1.2"/>
   <path id="svg_25" d="m27.4,73.2c-0.5,0.3 -1,0.6 -1.7,0.8c-0.7,0.2 -1.4,0.4 -2,0.4c-0.2,0 -0.4,0 -0.7,0c-0.3,0 -0.5,-0.1 -0.6,-0.1c0,0.3 0,0.6 0,0.9s0,0.6 0,0.8c0,0.3 0,0.5 0,0.8s0,0.4 0,0.6c0,0.7 0.1,1.3 0.2,1.5s0.3,0.4 0.6,0.4c0.1,0 0.3,0 0.5,-0.1c0.2,0 0.4,-0.1 0.6,-0.2c0,0 0.1,0 0.1,0.1s0.1,0.2 0.1,0.2c0,0 -0.1,0.1 -0.3,0.1c-0.2,0.1 -0.5,0.1 -0.8,0.2c-0.3,0.1 -0.7,0.2 -1,0.3c-0.4,0.1 -0.7,0.2 -1.1,0.3c-0.3,0.1 -0.6,0.2 -0.9,0.2c-0.2,0.1 -0.4,0.1 -0.5,0.1c-0.1,0 -0.2,0 -0.2,0s-0.1,-0.1 -0.1,-0.2c0,-0.1 0,-0.1 0.1,-0.1c0.1,0 0.1,-0.1 0.1,-0.1c0.1,-0.1 0.1,-0.3 0.1,-0.5c0,-0.2 0,-0.5 0.1,-0.7c0,-0.6 0.1,-1.2 0.1,-2c0.1,-0.8 0.1,-1.6 0.1,-2.5s0.1,-1.7 0.1,-2.6s0.1,-1.6 0.1,-2.3c0,-1 0,-1.8 -0.1,-2.3s-0.2,-1 -0.3,-1.3s-0.3,-0.4 -0.5,-0.5c-0.2,-0.1 -0.4,-0.1 -0.6,-0.1c0,0 -0.1,0 -0.2,0c-0.1,0 -0.2,0 -0.2,0c-0.1,0 -0.1,-0.1 -0.1,-0.2c0,-0.1 0,-0.1 0,-0.1c0,0 0,0 0.1,-0.1c0.1,0 0.2,-0.1 0.4,-0.2s0.4,-0.2 0.7,-0.3c0.3,-0.1 0.5,-0.3 0.8,-0.4c0.3,-0.1 0.6,-0.3 0.8,-0.4c0.3,-0.1 0.5,-0.2 0.7,-0.3c0.2,-0.1 0.3,-0.1 0.4,-0.1c0.2,0 0.4,0.1 0.5,0.3c0.1,0.2 0.1,0.4 0.1,0.8c0,0.1 0,0.3 0,0.6c0,0.3 0,0.6 0,1c0.2,-0.2 0.5,-0.5 0.8,-0.8c0.3,-0.3 0.7,-0.6 1.1,-0.9c0.4,-0.3 0.9,-0.5 1.3,-0.7c0.5,-0.2 0.9,-0.3 1.4,-0.3c0.6,0 1.2,0.1 1.7,0.3c0.5,0.2 0.9,0.5 1.2,0.9s0.6,0.8 0.7,1.3s0.3,1 0.3,1.5c0,0.7 -0.1,1.4 -0.3,1.9s-0.5,1.1 -0.8,1.6c-0.3,0.5 -0.6,0.9 -1,1.2c-0.4,0.3 -0.7,0.6 -1,0.8l-0.9,0.5zm-5,-1.7c0,0.2 0.2,0.3 0.4,0.5c0.2,0.2 0.4,0.3 0.7,0.5c0.3,0.1 0.6,0.3 1,0.4c0.4,0.1 0.8,0.1 1.2,0.1c0.4,0 0.8,-0.1 1.1,-0.2c0.4,-0.2 0.7,-0.4 0.9,-0.7c0.3,-0.3 0.5,-0.8 0.6,-1.3s0.2,-1.2 0.2,-1.9c0,-0.5 -0.1,-1 -0.2,-1.5c-0.1,-0.5 -0.4,-0.9 -0.6,-1.2c-0.3,-0.4 -0.6,-0.6 -1,-0.8c-0.4,-0.2 -0.8,-0.3 -1.3,-0.3c-0.2,0 -0.5,0.1 -0.8,0.2c-0.3,0.1 -0.6,0.2 -0.8,0.4c-0.3,0.2 -0.5,0.4 -0.7,0.6c-0.2,0.2 -0.4,0.5 -0.5,0.7c-0.1,0.2 -0.1,0.5 -0.2,0.8c-0.1,0.4 -0.1,0.8 -0.1,1.2s0,0.9 0,1.4s0.1,0.8 0.1,1.1z"/>
   <path id="svg_26" d="m35.6,70.4c0,0.3 0,0.6 0,0.9c0,0.3 0.1,0.5 0.2,0.7s0.2,0.4 0.4,0.5c0.2,0.1 0.4,0.2 0.7,0.2c0.2,0 0.3,0 0.5,-0.1c0.2,0 0.4,-0.1 0.6,-0.1c0.2,-0.1 0.3,-0.1 0.5,-0.2s0.2,-0.1 0.3,-0.1c0,0 0.1,0 0.1,0s0,0.1 0,0.2c0,0.1 0,0.1 -0.1,0.2c0,0.1 -0.1,0.1 -0.1,0.1c-0.1,0.1 -0.4,0.2 -0.8,0.4s-0.8,0.4 -1.3,0.6c-0.5,0.2 -0.9,0.4 -1.4,0.5c-0.4,0.1 -0.8,0.2 -1.1,0.2c-0.3,0 -0.6,-0.1 -0.8,-0.3c-0.2,-0.2 -0.3,-0.5 -0.3,-0.8c0,-0.1 0,-0.2 0,-0.3c0,-0.1 0,-0.2 0,-0.3c0,-0.1 0,-0.4 0.1,-0.8c0,-0.4 0.1,-0.8 0.1,-1.3s0.1,-1 0.1,-1.5c0,-0.5 0,-0.9 0,-1.3l0,-0.8c0,-0.4 0,-0.7 -0.1,-1c0,-0.3 -0.1,-0.5 -0.2,-0.7c-0.1,-0.1 -0.2,-0.2 -0.3,-0.3c-0.1,-0.1 -0.2,-0.1 -0.4,-0.1c-0.1,0 -0.2,0 -0.3,0.1c-0.1,0 -0.2,0.1 -0.2,0.1c0,0 -0.1,0 -0.1,-0.1s-0.1,-0.2 0,-0.2c0.1,-0.1 0.3,-0.2 0.6,-0.4c0.3,-0.2 0.7,-0.3 1.1,-0.5c0.4,-0.2 0.8,-0.4 1.2,-0.5c0.4,-0.2 0.7,-0.2 0.8,-0.2c0.2,0 0.3,0 0.3,0.1c0.1,0.1 0.1,0.2 0.1,0.3l0,0.1c0,0.1 0,0.4 -0.1,0.7s-0.1,0.7 -0.1,1.2c-0.1,0.5 -0.1,1 -0.1,1.6c0,0.6 -0.1,1.3 -0.1,2l0,1.2l0.2,0zm-0.9,-11.4c0.1,0 0.2,0.1 0.4,0.2c0.2,0.1 0.3,0.3 0.5,0.5s0.3,0.4 0.5,0.5s0.2,0.3 0.2,0.4c0,0.1 -0.1,0.2 -0.3,0.3s-0.4,0.3 -0.6,0.5c-0.2,0.2 -0.4,0.3 -0.7,0.4c-0.2,0.1 -0.4,0.2 -0.5,0.2c0,0 -0.2,-0.1 -0.3,-0.2c-0.2,-0.1 -0.3,-0.3 -0.5,-0.5s-0.3,-0.3 -0.5,-0.5c-0.1,-0.2 -0.2,-0.3 -0.2,-0.3c0,-0.1 0.1,-0.2 0.3,-0.3c0.2,-0.2 0.4,-0.3 0.6,-0.5c0.2,-0.2 0.4,-0.3 0.7,-0.4c0.2,-0.2 0.3,-0.3 0.4,-0.3z"/>
   <path id="svg_27" d="m48.3,64.9c-0.2,0.1 -0.4,0.3 -0.6,0.5c-0.2,0.2 -0.5,0.4 -0.7,0.6c-0.2,0.2 -0.5,0.3 -0.7,0.5s-0.5,0.2 -0.7,0.2c-0.2,0 -0.4,0 -0.5,-0.1c-0.2,-0.1 -0.3,-0.2 -0.5,-0.3c-0.1,-0.1 -0.3,-0.2 -0.4,-0.3s-0.3,-0.1 -0.4,-0.1c-0.4,0 -0.7,0.2 -1,0.5c-0.3,0.3 -0.5,0.7 -0.7,1.2c-0.2,0.5 -0.3,1 -0.4,1.6c-0.1,0.6 -0.1,1.2 -0.1,1.7c0,0.5 0,0.8 0.1,1.1s0.1,0.5 0.2,0.7c0.1,0.2 0.2,0.3 0.3,0.3s0.3,0.1 0.5,0.1c0.2,0 0.4,0 0.6,-0.1c0,0 0.1,0 0.1,0.1s0,0.1 0,0.2c0,0 0,0.1 -0.1,0.1c0,0 -0.1,0.1 -0.1,0.1c-0.3,0.1 -0.7,0.3 -1,0.4c-0.3,0.2 -0.6,0.3 -0.8,0.4c-0.2,0.1 -0.5,0.2 -0.7,0.3c-0.3,0.1 -0.5,0.2 -0.7,0.2c-0.2,0 -0.4,0 -0.6,-0.1s-0.2,-0.1 -0.2,-0.2s0,-0.1 0.1,-0.2c0,-0.1 0.1,-0.2 0.1,-0.3c0,-0.2 0.1,-0.5 0.1,-0.8c0,-0.3 0.1,-0.6 0.1,-1s0.1,-0.7 0.1,-1.1c0,-0.4 0,-0.7 0,-1.1c0,-0.8 0,-1.5 -0.1,-2.1c-0.1,-0.6 -0.1,-1 -0.3,-1.4s-0.3,-0.6 -0.5,-0.8c-0.2,-0.2 -0.5,-0.2 -0.9,-0.2c-0.1,0 -0.1,0 -0.2,0s-0.1,0 -0.2,0c-0.1,0 -0.1,0 -0.1,-0.1s0,-0.2 0.1,-0.2c0.2,-0.1 0.4,-0.3 0.7,-0.5c0.3,-0.2 0.7,-0.4 1,-0.6c0.4,-0.2 0.7,-0.3 1,-0.5c0.3,-0.1 0.6,-0.2 0.7,-0.2c0.2,0 0.4,0.1 0.5,0.2c0.1,0.1 0.2,0.3 0.3,0.5s0.1,0.4 0.1,0.6c0,0.2 0,0.5 0,0.7c0,0.2 0,0.4 0,0.5c0,0.2 0,0.4 0,0.6c0.7,-1 1.3,-1.7 1.8,-2.3c0.5,-0.5 1,-0.8 1.5,-0.8c0.2,0 0.3,0.1 0.5,0.2s0.3,0.3 0.5,0.5c0.2,0.2 0.4,0.3 0.6,0.5c0.2,0.1 0.4,0.2 0.6,0.2c0.2,0 0.3,0 0.4,-0.1c0.1,0 0.2,-0.1 0.2,-0.1c0.4,0 0.4,0.1 0.4,0.3l0,0z"/>
   <path id="svg_28" d="m51.4,70.4c0,0.3 0,0.6 0,0.9c0,0.3 0.1,0.5 0.2,0.7s0.2,0.4 0.4,0.5c0.2,0.1 0.4,0.2 0.7,0.2c0.2,0 0.3,0 0.5,-0.1c0.2,0 0.4,-0.1 0.6,-0.1c0.2,-0.1 0.3,-0.1 0.5,-0.2s0.2,-0.1 0.3,-0.1c0,0 0.1,0 0.1,0s0,0.1 0,0.2c0,0.1 0,0.1 -0.1,0.2c0,0.1 -0.1,0.1 -0.1,0.1c-0.1,0.1 -0.4,0.2 -0.8,0.4s-0.8,0.4 -1.3,0.6c-0.5,0.2 -0.9,0.4 -1.4,0.5c-0.4,0.1 -0.8,0.2 -1.1,0.2c-0.3,0 -0.6,-0.1 -0.8,-0.3c-0.2,-0.2 -0.3,-0.5 -0.3,-0.8c0,-0.1 0,-0.2 0,-0.3c0,-0.1 0,-0.2 0,-0.3c0,-0.1 0,-0.4 0.1,-0.8c0,-0.4 0.1,-0.8 0.1,-1.3s0.1,-1 0.1,-1.5c0,-0.5 0,-0.9 0,-1.3l0,-0.8c0,-0.4 0,-0.7 -0.1,-1c0,-0.3 -0.1,-0.5 -0.2,-0.7c-0.1,-0.1 -0.2,-0.2 -0.3,-0.3c-0.1,-0.1 -0.2,-0.1 -0.4,-0.1c-0.1,0 -0.2,0 -0.3,0.1c-0.1,0 -0.2,0.1 -0.2,0.1c0,0 -0.1,0 -0.1,-0.1s-0.1,-0.2 0,-0.2c0.1,-0.1 0.3,-0.2 0.6,-0.4c0.3,-0.2 0.7,-0.3 1.1,-0.5c0.4,-0.2 0.8,-0.4 1.2,-0.5c0.4,-0.2 0.7,-0.2 0.8,-0.2c0.2,0 0.3,0 0.3,0.1c0.1,0.1 0.1,0.2 0.1,0.3l0,0.1c0,0.1 0,0.4 -0.1,0.7s-0.1,0.7 -0.1,1.2c-0.1,0.5 -0.1,1 -0.1,1.6c0,0.6 -0.1,1.3 -0.1,2l0,1.2l0.2,0zm-0.9,-11.4c0.1,0 0.2,0.1 0.4,0.2c0.2,0.1 0.3,0.3 0.5,0.5s0.3,0.4 0.5,0.5s0.2,0.3 0.2,0.4c0,0.1 -0.1,0.2 -0.3,0.3s-0.4,0.3 -0.6,0.5c-0.2,0.2 -0.4,0.3 -0.7,0.4c-0.2,0.1 -0.4,0.2 -0.5,0.2c0,0 -0.2,-0.1 -0.3,-0.2c-0.2,-0.1 -0.3,-0.3 -0.5,-0.5s-0.3,-0.3 -0.5,-0.5c-0.1,-0.2 -0.2,-0.3 -0.2,-0.3c0,-0.1 0.1,-0.2 0.3,-0.3c0.2,-0.2 0.4,-0.3 0.6,-0.5c0.2,-0.2 0.4,-0.3 0.7,-0.4c0.2,-0.2 0.3,-0.3 0.4,-0.3z"/>
   <path id="svg_29" d="m64.3,71.2c0,-0.1 0,-0.1 0,0c0.1,0 0.1,0.1 0.1,0.2c0,0.1 0,0.1 0,0.2c0,0.1 0,0.1 -0.1,0.2c-0.3,0.3 -0.7,0.6 -1.1,0.9c-0.4,0.3 -0.9,0.6 -1.4,0.9c-0.1,0.1 -0.3,0.2 -0.5,0.3c-0.2,0.1 -0.5,0.2 -0.8,0.3c-0.3,0.1 -0.6,0.2 -0.9,0.3c-0.3,0.1 -0.6,0.1 -0.8,0.1c-0.5,0 -1,-0.1 -1.5,-0.3c-0.5,-0.2 -0.9,-0.5 -1.2,-0.8c-0.4,-0.4 -0.6,-0.8 -0.8,-1.3c-0.2,-0.5 -0.3,-1 -0.3,-1.6c0,-0.6 0.1,-1.2 0.3,-1.8c0.2,-0.6 0.4,-1.1 0.6,-1.5c0.2,-0.4 0.4,-0.8 0.6,-1.1c0.2,-0.3 0.3,-0.5 0.4,-0.7c-0.3,0 -0.5,0 -0.8,0c-0.2,0 -0.4,0 -0.6,0c-0.5,0 -0.9,0 -1.2,0c-0.3,0 -0.6,0 -0.9,0.1c-0.1,0 -0.2,0.1 -0.3,0.2s-0.2,0.2 -0.3,0.2c0,0 -0.1,-0.1 -0.1,-0.1c-0.1,-0.1 -0.1,-0.1 -0.1,-0.2c0,0 0,-0.1 0,-0.1c0,0 0.1,-0.1 0.3,-0.3c0.2,-0.2 0.4,-0.3 0.7,-0.5c0.3,-0.2 0.6,-0.4 0.9,-0.7c0.3,-0.3 0.7,-0.5 1,-0.7c0.3,-0.2 0.6,-0.4 0.8,-0.6c0.2,-0.2 0.4,-0.2 0.5,-0.3c0.1,0 0.2,0 0.3,0c0.1,0.1 0.1,0.1 0.1,0.1c0,0 -0.1,0.1 -0.2,0.2c-0.1,0.1 -0.1,0.2 -0.1,0.2c0.2,0.1 0.4,0.2 0.8,0.4c0.4,0.1 0.8,0.2 1.3,0.3c0.5,0.1 1,0.1 1.5,0.2c0.5,0 1,0.1 1.4,0.1c0.6,0 1.1,0 1.5,-0.1c0.4,0 0.7,-0.1 0.9,-0.1c0.2,-0.1 0.4,-0.1 0.5,-0.1c0,0 0,0 0.1,0.1s0.1,0.1 0.1,0.2c0,0 -0.1,0.1 -0.3,0.2s-0.4,0.2 -0.6,0.4c-0.1,0.1 -0.3,0.2 -0.5,0.3s-0.4,0.2 -0.6,0.3c-0.2,0.1 -0.4,0.2 -0.7,0.3c-0.2,0.1 -0.5,0.1 -0.7,0.2c-0.2,0 -0.5,0.1 -0.8,0.1s-0.6,0 -0.9,0c-0.3,0 -0.6,0 -1,0c-0.3,0 -0.6,0 -0.9,0c0,0.1 -0.1,0.2 -0.2,0.4c-0.1,0.2 -0.2,0.4 -0.3,0.6s-0.2,0.6 -0.2,0.9c-0.1,0.3 -0.1,0.7 -0.1,1.1c0,0.6 0.1,1.2 0.3,1.7c0.2,0.5 0.4,0.9 0.8,1.3c0.3,0.4 0.7,0.7 1.2,0.9c0.5,0.2 0.9,0.3 1.5,0.3c0.3,0 0.6,0 0.9,-0.1c0.3,-0.1 0.6,-0.2 0.8,-0.3s0.5,-0.2 0.7,-0.4c0.2,-0.1 0.4,-0.3 0.6,-0.4l0.3,-0.6z"/>
   <path id="svg_30" d="m64,65.1c-0.1,0 -0.2,-0.1 -0.2,-0.2c0,-0.1 0.1,-0.1 0.2,-0.2c0,0 0.2,-0.1 0.4,-0.2c0.2,-0.1 0.5,-0.2 0.8,-0.3c0.3,-0.1 0.7,-0.2 1,-0.4s0.7,-0.2 1,-0.3c0.2,-0.1 0.3,-0.1 0.4,-0.1c0.1,0 0.1,0 0.2,0c0,0 0.1,0 0.2,0.1c0.1,0 0.1,0.1 0,0.2c0,0.1 -0.1,0.4 -0.1,0.8c-0.1,0.4 -0.1,0.9 -0.1,1.5c0,0.5 -0.1,1.1 -0.1,1.6c0,0.5 -0.1,0.9 -0.1,1.3c0,1.2 0.2,2.1 0.7,2.7c0.5,0.6 1.3,1 2.3,1c0.5,0 1,-0.1 1.4,-0.3s0.6,-0.5 0.8,-0.8c0.1,-0.2 0.2,-0.6 0.3,-1.3c0,-0.1 0,-0.3 0,-0.5c0,-0.2 0,-0.4 0,-0.6c0,-0.2 0,-0.4 0,-0.6c0,-0.2 0,-0.4 0,-0.5c0,-0.7 0,-1.3 -0.1,-1.9c-0.1,-0.6 -0.1,-1 -0.2,-1.3c0,-0.2 -0.1,-0.3 -0.3,-0.3c-0.1,0 -0.2,0 -0.3,0c-0.1,0 -0.1,-0.1 -0.1,-0.2c0,0 0,-0.1 0.1,-0.1c0.1,-0.1 0.3,-0.1 0.5,-0.2c0.2,-0.1 0.5,-0.2 0.8,-0.3s0.6,-0.2 0.8,-0.2c0.3,-0.1 0.5,-0.1 0.7,-0.1c0.2,0 0.4,0 0.5,0c0,0 0,0 0,0.1c0,0 0,0.1 0.1,0.1c0,0.1 0,0.4 -0.1,0.8c-0.1,0.5 -0.1,1.2 -0.2,2.3c-0.1,0.7 -0.1,1.4 -0.2,2.1c0,0.7 -0.1,1.2 -0.1,1.5c0,0.7 0.1,1.2 0.4,1.6c0.3,0.4 0.6,0.6 1,0.6c0.2,0 0.5,-0.1 0.7,-0.2c0.2,-0.1 0.4,-0.2 0.5,-0.3c0.1,0 0.2,0.1 0.2,0.2c0,0.1 0,0.2 -0.1,0.2c-0.2,0.1 -0.5,0.3 -0.9,0.5c-0.4,0.2 -0.8,0.4 -1.2,0.6c-0.4,0.2 -0.8,0.4 -1.2,0.5c-0.4,0.1 -0.7,0.2 -0.9,0.2c-0.1,0 -0.2,-0.1 -0.3,-0.2c-0.1,-0.2 -0.2,-0.3 -0.2,-0.6c0,0 0,-0.2 0,-0.5c0,-0.2 0,-0.4 0,-0.6c-0.3,0.2 -0.7,0.5 -1.1,0.7c-0.4,0.2 -0.8,0.5 -1.2,0.7c-0.4,0.2 -0.8,0.4 -1.3,0.5s-0.8,0.2 -1.2,0.2c-0.9,0 -1.6,-0.2 -2.2,-0.7c-0.6,-0.5 -0.9,-1.1 -0.9,-1.9c0,-0.2 0,-0.4 0,-0.7c0,-0.3 0.1,-0.7 0.1,-1.1s0.1,-0.9 0.1,-1.3c0,-0.5 0,-0.9 0,-1.4c0,-0.7 -0.1,-1.2 -0.3,-1.5c-0.2,-0.4 -0.5,-0.6 -0.8,-0.6l-0.2,-0.1z"/>
   <path id="svg_31" d="m84.4,67.4c-0.1,-0.5 -0.2,-0.9 -0.3,-1.2c-0.1,-0.4 -0.3,-0.7 -0.4,-0.9s-0.4,-0.4 -0.6,-0.5c-0.2,-0.1 -0.6,-0.2 -0.9,-0.2c-0.3,0 -0.6,0.1 -0.9,0.2s-0.5,0.3 -0.7,0.4c-0.2,0.2 -0.4,0.3 -0.5,0.5c-0.1,0.2 -0.2,0.3 -0.2,0.4c0,0.1 -0.1,0.2 -0.2,0.2c-0.2,0 -0.4,-0.1 -0.6,-0.2s-0.3,-0.3 -0.3,-0.5c0,-0.1 0,-0.2 0,-0.3c0.3,-0.2 0.7,-0.4 1.2,-0.6c0.5,-0.2 1,-0.4 1.5,-0.6s1,-0.3 1.5,-0.5c0.5,-0.1 1,-0.2 1.4,-0.2c0.6,0 1.1,0.1 1.4,0.3c0.3,0.2 0.6,0.4 0.7,0.7c0.2,0.3 0.3,0.7 0.3,1.1c0,0.4 0.1,0.9 0.1,1.4c0,0.7 0.1,1.5 0.2,2.2s0.2,1.3 0.3,1.8s0.3,1 0.6,1.3c0.2,0.3 0.5,0.5 0.8,0.5c0.2,0 0.3,0 0.5,-0.1s0.4,-0.1 0.5,-0.2c0.2,-0.1 0.3,-0.2 0.5,-0.2c0.1,-0.1 0.2,-0.1 0.3,-0.2c0.1,0 0.2,0.1 0.2,0.2c0,0.1 0,0.1 0,0.2c0,0 -0.1,0.1 -0.3,0.2s-0.4,0.3 -0.7,0.4s-0.6,0.3 -0.9,0.5c-0.3,0.2 -0.7,0.4 -1,0.5c-0.3,0.2 -0.6,0.3 -0.9,0.4s-0.5,0.2 -0.7,0.2c-0.2,0 -0.4,-0.1 -0.5,-0.2c-0.1,-0.2 -0.3,-0.4 -0.4,-0.6c-0.1,-0.3 -0.2,-0.6 -0.3,-0.9c-0.1,-0.3 -0.1,-0.7 -0.2,-1.1c-0.3,0.2 -0.6,0.5 -1,0.8c-0.4,0.3 -0.9,0.6 -1.3,0.8c-0.5,0.3 -1,0.5 -1.5,0.7c-0.5,0.2 -1,0.3 -1.5,0.3c-0.4,0 -0.7,-0.1 -1,-0.2c-0.3,-0.1 -0.5,-0.3 -0.7,-0.5c-0.2,-0.2 -0.3,-0.4 -0.4,-0.7c-0.1,-0.3 -0.1,-0.6 -0.1,-0.8c0,-0.5 0.1,-0.9 0.4,-1.2c0.3,-0.3 0.7,-0.6 1.3,-0.9c0.3,-0.1 0.7,-0.3 1.2,-0.6c0.5,-0.2 1,-0.5 1.5,-0.7c0.5,-0.2 1,-0.5 1.5,-0.7c0.6,-0.4 0.9,-0.6 1.1,-0.7zm0.6,3.4c0,-0.2 -0.1,-0.5 -0.1,-0.8c0,-0.3 -0.1,-0.6 -0.1,-0.8s-0.1,-0.5 -0.1,-0.7c0,-0.2 -0.1,-0.3 -0.1,-0.4c-0.2,0.1 -0.5,0.2 -0.8,0.3s-0.6,0.2 -0.9,0.4c-0.3,0.1 -0.6,0.3 -0.8,0.4c-0.3,0.1 -0.5,0.3 -0.7,0.4c-0.3,0.2 -0.6,0.4 -0.8,0.7s-0.3,0.5 -0.3,0.8c0,0.4 0.1,0.8 0.4,1.1c0.2,0.3 0.6,0.5 1.2,0.5c0.3,0 0.6,-0.1 0.9,-0.2c0.3,-0.1 0.6,-0.2 0.8,-0.4c0.3,-0.1 0.5,-0.3 0.7,-0.4s0.3,-0.2 0.4,-0.3c0.1,-0.1 0.2,-0.2 0.3,-0.3c0,0 0,-0.2 0,-0.3z"/>
   <path id="svg_32" d="m97.3,72c0.1,0.1 0.1,0.1 0.1,0.2c0,0.1 -0.2,0.3 -0.5,0.5c-0.4,0.2 -0.8,0.4 -1.4,0.7c-0.6,0.3 -1.2,0.5 -1.7,0.7c-0.3,0.1 -0.5,0.2 -0.7,0.3c-0.2,0.1 -0.4,0.1 -0.6,0.1c-0.2,0 -0.5,0 -0.8,-0.1c-0.3,-0.1 -0.6,-0.2 -0.8,-0.3c-0.2,-0.1 -0.3,-0.2 -0.4,-0.3c-0.1,-0.1 -0.2,-0.1 -0.2,-0.2c0,-0.1 0,-0.1 0.1,-0.2c0,-0.1 0.1,-0.1 0.1,-0.2c0,0 0,-0.1 0,-0.2c0,-0.1 0,-0.1 0,-0.2c0,-0.4 0.1,-0.9 0.1,-1.6c0.1,-0.7 0.1,-1.5 0.1,-2.3s0.1,-1.7 0.1,-2.6c0,-0.9 0,-1.7 0,-2.5c0,-1 0,-1.7 0,-2.3c0,-0.6 0,-1.1 -0.1,-1.4c0,-0.5 -0.1,-0.8 -0.2,-1c-0.1,-0.2 -0.2,-0.3 -0.2,-0.3c-0.1,-0.1 -0.2,-0.1 -0.3,-0.2c-0.1,0 -0.2,0 -0.3,0c-0.1,0 -0.1,0 -0.2,0c-0.1,0 -0.1,0 -0.1,0c0,-0.5 0.2,-0.7 0.6,-0.7c0.3,0 0.7,0 1.1,0c0.4,0 0.8,0 1,0c0.2,0 0.4,0 0.6,0c0.2,0 0.4,0 0.6,-0.1c0.2,0 0.4,0 0.5,-0.1s0.3,-0.1 0.4,-0.1c0.1,0 0.1,0 0.1,0.1c0,0.1 0.1,0.1 0.1,0.2c0,0.1 0,0.2 0,0.2c0,0.1 -0.1,0.1 -0.1,0.1c-0.1,0 -0.2,0 -0.2,0c-0.1,0 -0.2,0 -0.3,0.1c-0.1,0 -0.1,0.1 -0.2,0.3c-0.1,0.2 -0.1,0.4 -0.2,0.7c0,0.3 -0.1,0.8 -0.1,1.3s-0.1,1.2 -0.1,2c0,0.6 -0.1,1.3 -0.1,2c0,0.7 0,1.3 -0.1,1.9c0,0.6 0,1.2 0,1.8c0,0.5 0,1 0,1.4c0,0.4 0,0.9 0,1.3c0,0.4 0,0.8 0.1,1c0.1,0.2 0.3,0.5 0.6,0.7c0.3,0.2 0.6,0.3 1,0.3c0.3,0 0.5,0 0.8,-0.1s0.5,-0.2 0.8,-0.3s0.4,-0.2 0.6,-0.3c0.2,-0.2 0.3,-0.3 0.4,-0.3z"/>
   <path id="svg_33" d="m99.4,70.4c0,0.3 0,0.6 0,0.9c0,0.3 0.1,0.5 0.2,0.7c0.1,0.2 0.2,0.4 0.4,0.5c0.2,0.1 0.4,0.2 0.7,0.2c0.2,0 0.3,0 0.5,-0.1c0.2,0 0.4,-0.1 0.6,-0.1c0.2,-0.1 0.3,-0.1 0.5,-0.2c0.1,-0.1 0.2,-0.1 0.3,-0.1c0,0 0.1,0 0.1,0s0,0.1 0,0.2c0,0.1 0,0.1 -0.1,0.2c0,0.1 -0.1,0.1 -0.1,0.1c-0.1,0.1 -0.4,0.2 -0.8,0.4s-0.8,0.4 -1.3,0.6c-0.5,0.2 -0.9,0.4 -1.4,0.5c-0.4,0.1 -0.8,0.2 -1.1,0.2c-0.3,0 -0.6,-0.1 -0.8,-0.3s-0.3,-0.5 -0.3,-0.8c0,-0.1 0,-0.2 0,-0.3c0,-0.1 0,-0.2 0,-0.3c0,-0.1 0,-0.4 0.1,-0.8c0,-0.4 0.1,-0.8 0.1,-1.3c0,-0.5 0.1,-1 0.1,-1.5s0,-0.9 0,-1.3l0,-0.8c0,-0.4 0,-0.7 -0.1,-1c0,-0.3 -0.1,-0.5 -0.2,-0.7c-0.1,-0.1 -0.2,-0.2 -0.3,-0.3c-0.1,-0.1 -0.2,-0.1 -0.4,-0.1c-0.1,0 -0.2,0 -0.3,0.1c-0.1,0 -0.2,0.1 -0.2,0.1c0,0 -0.1,0 -0.1,-0.1c-0.1,-0.1 -0.1,-0.2 0,-0.2c0.1,-0.1 0.3,-0.2 0.6,-0.4s0.7,-0.3 1.1,-0.5c0.4,-0.2 0.8,-0.4 1.2,-0.5c0.4,-0.2 0.7,-0.2 0.8,-0.2s0.3,0 0.3,0.1c0.1,0.1 0.1,0.2 0.1,0.3l0,0.1c0,0.1 0,0.4 -0.1,0.7s-0.1,0.7 -0.1,1.2c-0.1,0.5 -0.1,1 -0.1,1.6c0,0.6 -0.1,1.3 -0.1,2l0,1.2l0.2,0zm-0.9,-11.4c0.1,0 0.2,0.1 0.4,0.2c0.2,0.1 0.3,0.3 0.5,0.5c0.2,0.2 0.3,0.4 0.5,0.5s0.2,0.3 0.2,0.4c0,0.1 -0.1,0.2 -0.3,0.3s-0.4,0.3 -0.6,0.5c-0.2,0.2 -0.4,0.3 -0.7,0.4c-0.2,0.1 -0.4,0.2 -0.5,0.2c0,0 -0.2,-0.1 -0.3,-0.2c-0.2,-0.1 -0.3,-0.3 -0.5,-0.5c-0.2,-0.2 -0.3,-0.3 -0.5,-0.5c-0.1,-0.2 -0.2,-0.3 -0.2,-0.3c0,-0.1 0.1,-0.2 0.3,-0.3c0.2,-0.2 0.4,-0.3 0.6,-0.5c0.2,-0.2 0.4,-0.3 0.7,-0.4c0.2,-0.2 0.4,-0.3 0.4,-0.3z"/>
   <path id="svg_34" d="m112.3,71.2c0,-0.1 0.1,-0.1 0,0c0.1,0 0.1,0.1 0.1,0.2c0,0.1 0,0.1 0,0.2s0,0.1 -0.1,0.2c-0.3,0.3 -0.7,0.6 -1.1,0.9s-0.9,0.6 -1.4,0.9c-0.1,0.1 -0.3,0.2 -0.5,0.3s-0.5,0.2 -0.8,0.3c-0.3,0.1 -0.6,0.2 -0.9,0.3c-0.3,0.1 -0.6,0.1 -0.8,0.1c-0.5,0 -1,-0.1 -1.5,-0.3c-0.5,-0.2 -0.9,-0.5 -1.2,-0.8c-0.4,-0.4 -0.6,-0.8 -0.8,-1.3c-0.2,-0.5 -0.3,-1 -0.3,-1.6c0,-0.6 0.1,-1.2 0.3,-1.8c0.2,-0.6 0.4,-1.1 0.6,-1.5c0.2,-0.4 0.4,-0.8 0.6,-1.1c0.2,-0.3 0.3,-0.5 0.4,-0.7c-0.3,0 -0.5,0 -0.8,0c-0.2,0 -0.4,0 -0.6,0c-0.5,0 -0.9,0 -1.2,0c-0.3,0 -0.6,0 -0.9,0.1c-0.1,0 -0.2,0.1 -0.3,0.2c-0.1,0.1 -0.2,0.2 -0.3,0.2c0,0 -0.1,-0.1 -0.1,-0.1c-0.1,-0.1 -0.1,-0.1 -0.1,-0.2c0,0 0,-0.1 0,-0.1c0,0 0.1,-0.1 0.3,-0.3c0.2,-0.2 0.4,-0.3 0.7,-0.5c0.3,-0.2 0.6,-0.4 0.9,-0.7c0.3,-0.3 0.7,-0.5 1,-0.7s0.6,-0.4 0.8,-0.6c0.2,-0.2 0.4,-0.2 0.5,-0.3c0.1,0 0.2,0 0.3,0c0.1,0.1 0.1,0.1 0.1,0.1c0,0 -0.1,0.1 -0.2,0.2c-0.1,0.1 -0.1,0.2 -0.1,0.2c0.2,0.1 0.4,0.2 0.8,0.4c0.4,0.1 0.8,0.2 1.3,0.3c0.5,0.1 1,0.1 1.5,0.2c0.5,0 1,0.1 1.4,0.1c0.6,0 1.1,0 1.5,-0.1c0.4,0 0.7,-0.1 0.9,-0.1c0.2,-0.1 0.4,-0.1 0.5,-0.1c0,0 0,0 0.1,0.1s0.1,0.1 0.1,0.2c0,0 -0.1,0.1 -0.3,0.2c-0.2,0.1 -0.4,0.2 -0.6,0.4c-0.1,0.1 -0.3,0.2 -0.5,0.3c-0.2,0.1 -0.4,0.2 -0.6,0.3c-0.2,0.1 -0.4,0.2 -0.7,0.3s-0.5,0.1 -0.7,0.2c-0.2,0 -0.5,0.1 -0.8,0.1c-0.3,0 -0.6,0 -0.9,0c-0.3,0 -0.6,0 -1,0c-0.3,0 -0.6,0 -0.9,0c0,0.1 -0.1,0.2 -0.2,0.4c-0.1,0.2 -0.2,0.4 -0.3,0.6s-0.2,0.6 -0.2,0.9s-0.1,0.7 -0.1,1.1c0,0.6 0.1,1.2 0.3,1.7s0.4,0.9 0.8,1.3c0.3,0.4 0.7,0.7 1.2,0.9s0.9,0.3 1.5,0.3c0.3,0 0.6,0 0.9,-0.1c0.3,-0.1 0.6,-0.2 0.8,-0.3s0.5,-0.2 0.7,-0.4c0.2,-0.1 0.4,-0.3 0.6,-0.4l0.3,-0.6z"/>
   <path id="svg_35" d="m118.4,67.3c-0.6,0.3 -1.1,0.5 -1.6,0.7s-0.9,0.4 -1.3,0.6c-0.4,0.2 -0.6,0.3 -0.8,0.4c0,0.5 0.1,1 0.3,1.4c0.2,0.4 0.5,0.8 0.8,1.1s0.8,0.6 1.3,0.8c0.5,0.2 1,0.3 1.6,0.3c0.5,0 1,-0.1 1.4,-0.2c0.4,-0.1 0.8,-0.2 1.1,-0.4c0.3,-0.1 0.5,-0.3 0.7,-0.4c0.2,-0.1 0.3,-0.2 0.3,-0.2c0.1,0 0.1,0 0.2,0.1c0.1,0.1 0.1,0.1 0.1,0.2c-0.2,0.2 -0.4,0.4 -0.7,0.7s-0.7,0.6 -1.2,0.9c-0.5,0.3 -1,0.6 -1.6,0.8s-1.2,0.3 -1.9,0.3c-0.6,0 -1.2,-0.1 -1.8,-0.3c-0.6,-0.2 -1.1,-0.5 -1.5,-0.8c-0.5,-0.4 -0.8,-0.8 -1.1,-1.4c-0.3,-0.6 -0.4,-1.3 -0.4,-2.1c0,-0.7 0,-1.2 0.1,-1.7s0.2,-0.9 0.4,-1.3c0.1,-0.4 0.3,-0.7 0.5,-0.9c0.2,-0.3 0.4,-0.5 0.6,-0.7c0.2,-0.3 0.5,-0.5 0.9,-0.7s0.7,-0.4 1.1,-0.6s0.8,-0.3 1.2,-0.5c0.4,-0.1 0.9,-0.2 1.3,-0.2c0.8,0 1.4,0.1 1.9,0.4s0.7,0.6 0.7,1.1c0,0.3 -0.1,0.6 -0.3,0.8c-0.7,0.8 -0.9,1.1 -2.3,1.8zm-3.7,1c0.2,-0.1 0.5,-0.2 0.8,-0.3c0.3,-0.1 0.6,-0.3 0.9,-0.4c0.3,-0.1 0.6,-0.3 0.8,-0.4s0.4,-0.2 0.6,-0.4c0.3,-0.2 0.4,-0.5 0.4,-1c0,-0.2 0,-0.4 -0.1,-0.5c-0.1,-0.2 -0.2,-0.4 -0.3,-0.5c-0.1,-0.2 -0.3,-0.3 -0.5,-0.4c-0.2,-0.1 -0.4,-0.1 -0.6,-0.1c-0.2,0 -0.4,0.1 -0.7,0.2c-0.2,0.1 -0.5,0.4 -0.7,0.7c-0.2,0.3 -0.4,0.7 -0.5,1.3c0,0.4 -0.1,1 -0.1,1.8zm5.4,-8.6c0,0 -0.2,0.2 -0.5,0.5c-0.4,0.3 -0.8,0.5 -1.3,0.9s-1,0.6 -1.5,0.9c-0.5,0.3 -0.9,0.5 -1.2,0.7c0,0 -0.1,0 -0.2,0s-0.1,-0.1 -0.2,-0.1c-0.1,-0.1 -0.1,-0.1 -0.1,-0.1s0,-0.1 0,-0.1c0.2,-0.2 0.6,-0.5 1,-0.9s0.8,-0.8 1.2,-1.2c0.4,-0.4 0.8,-0.8 1.1,-1.1s0.5,-0.5 0.5,-0.5c0,0 0.1,0 0.2,0.1s0.2,0.2 0.4,0.4c0.1,0.1 0.2,0.3 0.4,0.4c0.2,-0.1 0.2,0 0.2,0.1z"/>
  </g>
 </g>
</svg>