<?xml version="1.0" encoding="utf-8"?>
<!-- Generator: Adobe Illustrator 24.0.2, SVG Export Plug-In . SVG Version: 6.00 Build 0)  -->
<svg version="1.1" id="Слой_1" xmlns="http://www.w3.org/2000/svg" xmlns:xlink="http://www.w3.org/1999/xlink" x="0px" y="0px"
	 viewBox="0 0 1194.16 2000" style="enable-background:new 0 0 1194.16 2000;" xml:space="preserve">
<path d="M597,561.83c-37.57,0-68.03-30.46-68.03-68.03s30.46-68.03,68.03-68.03s68.03,30.46,68.03,68.03S634.57,561.83,597,561.83z
	 M605.39,409.47l-4.15-53.93l-4.15-53.93l-4.15,53.93l-4.15,53.93h8.3H605.39z M592.93,632.06l4.15,53.93l4.15-53.93l4.15-53.93
	h-8.3h-8.3L592.93,632.06z M458.82,497.95l53.93,4.15v-8.3v-8.31l-53.93,4.15l-53.93,4.15L458.82,497.95z M735.34,489.65
	l-53.93-4.15v8.31v8.3l53.93-4.15l53.93-4.15L735.34,489.65z M461.18,357.9l35.2,41.07l35.2,41.07l5.87-5.87l5.87-5.87l-41.07-35.2
	L461.18,357.9z M732.98,629.7l-35.2-41.07l-35.2-41.07l-5.87,5.87l-5.87,5.87l41.07,35.2L732.98,629.7z M543.32,559.31l-5.87-5.87
	l-5.87-5.87l-35.2,41.07l-35.2,41.07l41.07-35.2L543.32,559.31z M656.71,434.17l5.87,5.87l35.2-41.07l35.2-41.07l-41.07,35.2
	l-41.07,35.2L656.71,434.17z M566.1,415.37l7.72-3.05l-23.68-48.63l-23.68-48.63l15.95,51.68l15.95,51.68L566.1,415.37z
	 M667.7,672.55l-15.95-51.68l-15.95-51.68l-7.72,3.05l-7.72,3.05l23.68,48.63L667.7,672.55z M521.7,532.51l-3.05-7.72l-3.05-7.72
	l-48.63,23.68l-48.63,23.68l51.68-15.95L521.7,532.51z M672.46,455.09l3.05,7.72l3.05,7.72l48.63-23.68l48.63-23.68l-51.68,15.95
	L672.46,455.09z M468.58,442.61l47.83,25.26l3.3-7.62l3.3-7.62l-51.13-17.65l-51.13-17.64L468.58,442.61z M725.58,545l-47.83-25.26
	l-3.3,7.62l-3.3,7.62l51.13,17.64l51.13,17.64L725.58,545z M571.15,574.48l-7.62-3.3l-7.62-3.3L538.27,619l-17.64,51.13l25.26-47.83
	L571.15,574.48z M623.01,413.12l7.62,3.3l7.62,3.3l17.64-51.13l17.64-51.13l-25.26,47.82L623.01,413.12z M724.15,223.82
	c-9.95,0-18.03,8.07-18.03,18.02s8.07,18.02,18.03,18.02c9.96,0,18.02-8.07,18.02-18.02S734.1,223.82,724.15,223.82z M470.02,223.82
	c-9.96,0-18.03,8.07-18.03,18.02s8.07,18.02,18.03,18.02c9.96,0,18.02-8.07,18.02-18.02S479.97,223.82,470.02,223.82z
	 M551.32,164.93l-27.95,26.5l44.22-16.88l-16.82,44.25l26.4-27.94L597,290.18l19.84-99.41l26.5,27.95l-16.88-44.22l44.25,16.82
	l-27.94-26.41l99.32-19.82l-99.41-19.84l27.95-26.5l-44.22,16.88l16.82-44.25l-26.41,27.94L597,0l-19.84,99.41l-26.5-27.95
	l16.88,44.22L523.3,98.86l27.94,26.41l-99.32,19.82L551.32,164.93z M995.64,637.2c0,31.21-3.6,61.57-10.38,90.72
	c1.61,0.41,3.07,1.22,4.21,2.36c1.65,1.65,2.67,3.93,2.67,6.44c0,2.51-1.03,4.79-2.67,6.44c-1.65,1.65-3.92,2.67-6.43,2.67
	c-0.8,0-1.56-0.14-2.3-0.33c-21.96,77.94-67.03,146.17-127.34,196.88c-2.64,41.07-5.89,84.55-9.84,129.4
	c15.4,2.93,27.03,16.47,27.03,32.71c0,18.37-14.88,33.28-33.27,33.3c-4.57,45.29-9.85,91.37-15.89,137.2
	c1.68-1.41,3.76-2.13,5.85-2.13c2.18,0,4.37,0.79,6.12,2.37c1.97,1.79,2.99,4.27,2.99,6.74c0,2.19-0.79,4.37-2.37,6.12
	c0,0,0,0,0,0.01c-0.89,0.99-1.97,1.74-3.12,2.23c-1.15,0.51-2.4,0.76-3.63,0.76c-2.18,0-4.37-0.79-6.12-2.36
	c-0.52-0.47-0.97-0.99-1.35-1.53c-3.41,25.29-7.06,50.47-10.95,75.36c-22.24,142.3-49.39,255.06-80.7,335.18
	c-37.77,96.68-81.88,145.7-131.07,145.7c-45.36,0-86.89-47.27-123.5-140.46c-1.76,0.44-3.6,0.69-5.5,0.69
	c-12.62,0-22.85-10.23-22.85-22.85c0-9.07,5.3-16.88,12.95-20.57c-3.08-9.3-6.13-18.92-9.14-28.89c-0.42,0.03-0.83,0.06-1.26,0.06
	c-9.96,0-18.02-8.07-18.02-18.02c0-6.91,3.89-12.9,9.59-15.92c-8.61-31.59-16.87-66.09-24.75-103.42
	c-32.61-6.62-62.71-39.29-89.63-97.42c-25.33-54.7-48.12-132.15-67.74-230.18c-0.03-0.16-0.03-0.31-0.04-0.46
	c-1.04,0.06-2.09,0.15-3.12,0.15c-13.26,0-26.1-5.04-35.83-13.99v0c-6.24,1.17-13.97,2.26-21.24,2.26
	c-10.13,0-19.31-2.11-22.13-9.07c-4.83-11.97,13.75-26.66,26.44-35v-0.01c0.33-5.98,1.72-11.9,4.13-17.58
	c5.52-12.97,15.74-23.02,28.81-28.29c1.55-0.63,3.12-1.17,4.71-1.64c-0.04-0.14-0.08-0.27-0.1-0.41
	C216,916.24,204.6,772.1,200.76,679.46c-1.46-13.89-2.23-27.98-2.23-42.25c0-160.71,95.13-299.18,232.14-362.23
	c-70.64,51.45-116.57,134.8-116.57,228.88c0,156.29,126.7,282.99,282.99,282.99s282.99-126.7,282.99-282.99
	c0-94.08-45.93-177.43-116.57-228.88C900.51,338.03,995.64,476.5,995.64,637.2z M212.36,1145.82c-2.95-3.77-5.42-8.02-7.3-12.68
	c-1.85-4.6-3.05-9.36-3.57-14.17c-15.73,11.02-21.48,19.84-19.93,23.67C183.09,1146.46,193.36,1148.8,212.36,1145.82z
	 M220.56,1144.3c12.62-2.65,26.66-7.02,40.77-12.72c14.08-5.69,27.21-12.29,38.15-19.15c-0.1-5.38-1.17-10.82-3.3-16.09
	c-2.27-5.63-5.57-10.67-9.71-14.87c-4.14-4.21-9.09-7.6-14.7-9.98c-5.73-2.43-11.76-3.65-17.79-3.65c-5.76,0-11.54,1.1-17.05,3.33
	c-11.28,4.56-20.1,13.23-24.84,24.42c-4.76,11.19-4.86,23.56-0.32,34.83C213.89,1135.71,216.91,1140.37,220.56,1144.3z
	 M302.9,1093.64c1.88,4.67,3.05,9.43,3.54,14.2c15.73-11.04,21.49-19.87,19.94-23.68c-1.55-3.83-11.81-6.19-30.79-3.2
	C298.58,1084.77,301.04,1089.02,302.9,1093.64z M271.02,1155.6c15.04-6.08,25.09-19.33,27.77-34.24v-0.01c0-0.01,0-0.01,0-0.02
	c-10.32,6.08-22.17,11.89-34.75,16.97c-12.6,5.09-25.17,9.14-36.8,11.92c0,0,0.01,0.01,0.01,0.01
	C239.53,1159.1,255.98,1161.68,271.02,1155.6z M412.63,1484.75c-7.85-37.92-15.33-78.67-22.41-122.17
	c-22.66-139.22-38.31-290.63-47.69-418.71c-61.81-51.36-107.83-121.05-129.74-200.73c5.65,88.36,16.53,202.49,34.56,317.94
	c9.17-1.18,18.51,0.03,27.25,3.73c5.67,2.4,10.78,5.72,15.18,9.78c14.91-2.81,38.49-5.15,43.32,6.83
	c4.83,11.96-13.79,26.69-26.46,35.03c-1.17,19.7-13.41,37.98-32.91,45.85c-2.65,1.07-5.35,1.86-8.06,2.47
	C304.59,1359.24,355.16,1469.05,412.63,1484.75z M418.78,1486.06c2.76,0.43,5.53,0.66,8.32,0.66c39.31,0,74.03-25.73,103.2-76.49
	c18.68-32.5,35.12-75.27,49.1-127.55c-0.6-0.14-1.2-0.33-1.77-0.59c-1.21-0.57-2.31-1.39-3.21-2.49c-3.18-3.89-2.61-9.64,1.29-12.82
	c1.7-1.38,3.74-2.06,5.77-2.06c0.83,0,1.64,0.15,2.44,0.38c3.21-12.97,6.28-26.46,9.2-40.5c12.49-60.09,21.37-125.74,27.39-189.53
	c-7.75,0.45-15.56,0.7-23.42,0.7c-42.6,0-83.63-6.71-122.12-19.09c-1.21,1.83-3.06,3.25-5.36,3.83c-0.75,0.18-1.5,0.28-2.23,0.28
	c-2.04-0.01-3.99-0.7-5.56-1.9c-1.56-1.21-2.75-2.92-3.27-5c-0.25-0.99-0.29-1.98-0.21-2.95c-39.98-14.85-76.93-35.93-109.67-62.07
	c9.41,126.75,24.92,275.68,47.23,412.8C403.12,1406.03,410.76,1447.53,418.78,1486.06z M842.74,1080.92
	c-1.76-0.42-3.6-0.63-5.48-0.63c-0.09,0-0.16,0-0.25,0.01c-13.25,0.13-23.95,10.91-23.95,24.19c0,11.73,8.34,21.51,19.42,23.73
	c1.54,0.31,3.14,0.47,4.79,0.47c0.33,0,0.65-0.01,0.97-0.02c12.93-0.51,23.25-11.14,23.25-24.18
	C861.48,1093,853.48,1083.38,842.74,1080.92z M847.31,947.4c-60.6,48.94-135.81,80.5-218.08,87.07
	c-6.05,64.54-15.01,131.04-27.66,191.88c-3.46,16.65-7.14,32.52-11,47.69c-0.03,1.36-0.38,2.7-1.01,3.93
	c-14.57,56.18-31.91,102-51.77,136.56c-30.82,53.63-68.06,80.82-110.68,80.82c-2.16,0-4.3-0.12-6.44-0.34
	c7.7,36.28,15.76,69.85,24.14,100.64c0.97-0.16,1.96-0.27,2.97-0.27c9.96,0,18.02,8.07,18.02,18.02c0,7.52-4.6,13.95-11.14,16.66
	c2.95,9.79,5.95,19.23,8.98,28.36c1.44-0.28,2.92-0.44,4.44-0.44c12.62,0,22.85,10.23,22.85,22.85c0,8.68-4.84,16.23-11.97,20.1
	c35.64,90.74,75.37,136.76,118.12,136.76c46.59,0,88.89-47.78,125.71-142.04c31.16-79.74,58.2-192.1,80.37-333.97
	c11.55-73.85,20.92-150.17,28.42-224.37c-15.68-2.7-27.62-16.37-27.62-32.82c0-18.39,14.91-33.3,33.31-33.3c0.18,0,0.37,0,0.56,0.01
	C841.6,1028.39,844.74,986.81,847.31,947.4z M517.72,1182.92c1.45,0.91,3.15,1.41,4.88,1.41c1.25,0,2.53-0.26,3.76-0.82
	c3.36-1.52,5.35-4.83,5.35-8.3c0-1.26-0.27-2.53-0.81-3.75c-1.53-3.37-4.84-5.35-8.3-5.35c-1.26,0-2.54,0.26-3.76,0.82
	c-4.58,2.08-6.62,7.48-4.54,12.06C515.06,1180.67,516.27,1182,517.72,1182.92z M946.55,1013.01c-0.73-0.18-1.46-0.27-2.17-0.27
	c-4.09,0-7.83,2.8-8.84,6.95c-1.19,4.89,1.8,9.82,6.69,11.02c0.73,0.17,1.45,0.26,2.17,0.26c2.05,0,4.01-0.7,5.58-1.92
	c1.57-1.22,2.75-2.95,3.26-5.03c0.18-0.73,0.27-1.46,0.27-2.18C953.51,1017.74,950.71,1014.02,946.55,1013.01z M914.29,1123.58
	c-1.04-0.39-2.12-0.58-3.17-0.58c-3.69,0-7.16,2.27-8.52,5.95c-1.76,4.72,0.65,9.96,5.37,11.71c1.05,0.38,2.12,0.58,3.17,0.58
	c1.85,0,3.64-0.57,5.15-1.59c1.51-1.03,2.71-2.52,3.39-4.35c0.38-1.05,0.57-2.11,0.57-3.16
	C920.23,1128.43,917.96,1124.95,914.29,1123.58z M492.32,1125.01c0.68,1.85,1.89,3.35,3.39,4.37c1.51,1.04,3.31,1.61,5.16,1.61
	c1.04,0,2.1-0.18,3.14-0.57c3.68-1.35,5.97-4.83,5.97-8.55c0-1.04-0.18-2.09-0.56-3.13c-1.35-3.69-4.84-5.98-8.56-5.98
	c-1.04,0-2.09,0.18-3.13,0.56C493.02,1115.05,490.6,1120.28,492.32,1125.01z M931.95,1068.74c-0.87-0.26-1.75-0.38-2.62-0.38
	c-3.92,0-7.55,2.55-8.73,6.5c-1.44,4.81,1.29,9.9,6.11,11.33c0.87,0.27,1.75,0.39,2.62,0.39c1.96,0,3.84-0.63,5.39-1.76
	c1.54-1.13,2.75-2.76,3.34-4.74c0.26-0.87,0.38-1.75,0.38-2.62C938.45,1073.55,935.89,1069.93,931.95,1068.74z M628.05,1306.33
	c-1.62-1.19-3.51-1.76-5.38-1.76c-2.8,0-5.57,1.29-7.36,3.73c-2.97,4.06-2.1,9.76,1.97,12.73c1.62,1.19,3.51,1.76,5.37,1.76
	c1.4,0,2.8-0.33,4.07-0.95c1.27-0.63,2.4-1.56,3.3-2.78c1.19-1.62,1.76-3.5,1.76-5.37C631.78,1310.89,630.49,1308.12,628.05,1306.33
	z M724.93,1346.91c1.6,1.32,3.64,2.1,5.81,2.1c0.53,0,1.07-0.05,1.61-0.14c4.41-0.8,7.51-4.64,7.51-8.97c0-0.53-0.05-1.07-0.14-1.61
	c-0.8-4.41-4.63-7.5-8.96-7.5c-0.53,0-1.07,0.05-1.62,0.14c-4.95,0.88-8.25,5.62-7.36,10.57
	C722.17,1343.71,723.33,1345.59,724.93,1346.91z M671.76,1347.21c0.74,0.19,1.48,0.28,2.21,0.28c2.04,0,3.99-0.69,5.56-1.91
	c1.56-1.21,2.75-2.93,3.27-5.02c1.21-4.88-1.76-9.82-6.65-11.03v-0.01c-0.74-0.18-1.48-0.27-2.2-0.27c-4.09,0-7.82,2.77-8.84,6.92
	C663.9,1341.06,666.88,1346,671.76,1347.21z M477.32,1074.55c1.54,1.13,3.42,1.76,5.38,1.76c0.87,0,1.75-0.12,2.64-0.39
	c4.81-1.45,7.54-6.53,6.09-11.35h-0.01c-1.18-3.93-4.79-6.47-8.71-6.47c-0.87,0-1.77,0.12-2.65,0.39c-3.93,1.18-6.47,4.79-6.47,8.71
	c0,0.87,0.12,1.75,0.39,2.64C474.57,1071.8,475.77,1073.43,477.32,1074.55z M866.44,1228.19c-1.5-0.94-3.16-1.38-4.81-1.38
	c-3.04,0-6,1.52-7.73,4.29c-2.67,4.27-1.37,9.89,2.89,12.55c1.51,0.93,3.17,1.38,4.81,1.38c1.52,0,3.02-0.38,4.36-1.11
	c1.33-0.72,2.51-1.79,3.38-3.17c0.94-1.5,1.38-3.16,1.38-4.81C870.73,1232.88,869.21,1229.91,866.44,1228.19z M975.91,842.72
	c-0.36-0.05-0.73-0.07-1.08-0.07c-4.56,0-8.5,3.4-9.04,8.04c-0.59,5,2.97,9.53,7.97,10.13c0.36,0.04,0.73,0.07,1.09,0.07
	c2.27,0,4.39-0.85,6.01-2.28c1.62-1.43,2.74-3.44,3.02-5.75c0.05-0.36,0.07-0.73,0.07-1.08
	C983.95,847.21,980.54,843.26,975.91,842.72z M968.34,899.86c-0.48-0.08-0.96-0.12-1.44-0.12c-4.4,0-8.28,3.19-8.99,7.68
	c-0.79,4.98,2.6,9.64,7.58,10.42c0.48,0.08,0.96,0.12,1.43,0.12c2.21,0,4.28-0.81,5.89-2.17c1.61-1.36,2.75-3.28,3.11-5.52
	c0.08-0.48,0.12-0.96,0.12-1.43C976.03,904.44,972.82,900.57,968.34,899.86z M958.58,956.66c-0.59-0.12-1.2-0.17-1.78-0.17
	c-4.26,0-8.06,2.99-8.93,7.34c-0.98,4.93,2.22,9.72,7.16,10.7c0.6,0.12,1.2,0.18,1.78,0.18c2.13,0,4.14-0.75,5.74-2.04
	c1.59-1.29,2.76-3.13,3.19-5.29c0.11-0.59,0.17-1.19,0.17-1.78C965.92,961.33,962.92,957.52,958.58,956.66z M892.84,1177.03
	c-1.25-0.58-2.57-0.86-3.86-0.86c-3.42,0-6.7,1.94-8.26,5.24c-2.14,4.56-0.18,9.98,4.37,12.12c1.25,0.58,2.57,0.86,3.86,0.86
	c1.71,0,3.39-0.49,4.83-1.38c1.44-0.89,2.65-2.21,3.42-3.85c-0.01,0-0.01,0-0.01,0c0.59-1.26,0.87-2.57,0.87-3.87
	C898.07,1181.86,896.14,1178.58,892.84,1177.03z M779.37,1327.13c1.34,0.73,2.84,1.1,4.36,1.1h0.05c1.64,0,3.29-0.45,4.77-1.38
	c2.77-1.73,4.29-4.7,4.29-7.74c0-1.65-0.44-3.32-1.38-4.81c-1.73-2.76-4.7-4.29-7.73-4.29c-1.65,0-3.32,0.45-4.82,1.39
	c-4.27,2.67-5.57,8.29-2.91,12.55C776.85,1325.34,778.02,1326.4,779.37,1327.13z M981.18,785.3c-0.24-0.02-0.47-0.03-0.71-0.03
	c-4.72,0-8.71,3.64-9.07,8.42c-0.37,5.02,3.38,9.4,8.4,9.78c0.23,0.01,0.46,0.02,0.69,0.02c2.36,0,4.54-0.91,6.18-2.42
	c1.63-1.51,2.72-3.61,2.91-6c0.02-0.24,0.03-0.47,0.03-0.7C989.6,789.65,985.95,785.65,981.18,785.3z M544.44,1234.37
	c1.36,0.77,2.91,1.17,4.47,1.17c1.56,0,3.15-0.4,4.59-1.25c2.9-1.7,4.51-4.75,4.51-7.87c0-1.56-0.4-3.15-1.25-4.59
	c-1.7-2.9-4.74-4.51-7.87-4.51c-1.56,0-3.14,0.4-4.59,1.25c-4.34,2.54-5.8,8.12-3.26,12.47
	C541.89,1232.48,543.07,1233.61,544.44,1234.37z M1116.45,689.37c-2.93-4.63-6.28-8.84-13.86-57.28
	c-7.58,48.44-10.92,52.65-13.85,57.28c-4.63,2.93-8.84,6.28-57.28,13.85c48.44,7.58,52.65,10.92,57.28,13.85
	c2.93,4.63,6.28,8.84,13.85,57.28c7.58-48.44,10.92-52.65,13.86-57.28c4.63-2.93,8.84-6.28,57.28-13.85
	C1125.29,695.65,1121.08,692.3,1116.45,689.37z M91.57,632.09c-7.58,48.44-10.92,52.65-13.86,57.28
	c-4.63,2.93-8.84,6.28-57.28,13.85c48.44,7.58,52.65,10.92,57.28,13.85c2.93,4.63,6.28,8.84,13.86,57.28
	c7.58-48.44,10.92-52.65,13.85-57.28c4.63-2.93,8.84-6.28,57.28-13.85c-48.43-7.58-52.65-10.92-57.28-13.85
	C102.49,684.74,99.14,680.53,91.57,632.09z M597.08,1857.74c-7.58,48.44-10.92,52.65-13.85,57.28c-4.63,2.93-8.84,6.28-57.28,13.85
	c48.44,7.58,52.65,10.92,57.28,13.85c2.93,4.63,6.28,8.84,13.85,57.28c7.58-48.44,10.92-52.65,13.85-57.28
	c4.63-2.93,8.84-6.28,57.28-13.85c-48.44-7.58-52.65-10.92-57.28-13.85C608,1910.39,604.66,1906.17,597.08,1857.74z"/>
</svg>
